<svg viewBox="0 0 24 24" fill="none" xmlns="http://www.w3.org/2000/svg">
<path d="M10.249 1.64594C10.6376 1.58818 11.0334 1.68522 11.3513 1.91619C11.6691 2.14716 11.8837 2.49363 11.9488 2.8811C12.0139 3.26857 11.9243 3.66612 11.6994 3.98829C11.4745 4.31045 11.1322 4.53151 10.746 4.60394C8.99914 4.90059 7.41366 5.80597 6.27043 7.15968C5.12721 8.5134 4.50003 10.2281 4.5 11.9999C4.5 13.9891 5.29018 15.8967 6.6967 17.3032C8.10322 18.7098 10.0109 19.4999 12 19.4999V22.4999C6.201 22.4999 1.5 17.7999 1.5 11.9999C1.5 6.85494 5.226 2.48994 10.249 1.64594Z"/>
<path d="M16.892 4.29787C17.0235 4.15112 17.1827 4.03173 17.3604 3.94652C17.5381 3.86131 17.7309 3.81196 17.9277 3.80128C18.1245 3.7906 18.3214 3.8188 18.5073 3.88428C18.6932 3.94975 18.8643 4.05122 19.011 4.18287C20.1102 5.1667 20.9892 6.37161 21.5905 7.7187C22.1917 9.06579 22.5017 10.5247 22.5 11.9999C22.5 17.7999 17.799 22.4999 12 22.4999V19.4999C13.5182 19.4999 15.0006 19.0392 16.2513 18.1787C17.502 17.3181 18.4621 16.0983 19.0047 14.6804C19.5473 13.2625 19.6469 11.7134 19.2902 10.2377C18.9335 8.76204 18.1373 7.42937 17.007 6.41587C16.7109 6.15023 16.5325 5.77787 16.5109 5.38068C16.4893 4.98349 16.6264 4.594 16.892 4.29787Z"/>
</svg>
