<svg viewBox="0 0 148 36" fill="none" xmlns="http://www.w3.org/2000/svg">
<g clip-path="url(#clip0_11429_5125)">
<path d="M86.7204 12.6354C82.6658 12.6141 80.2372 15.9907 80.2372 19.7071C80.2372 23.1898 82.9403 26.8213 87.0583 26.8213C89.4869 26.8213 91.662 26.1842 93.0347 24.6552L90.7117 22.8501C90.2049 23.6146 88.3465 24.1242 87.3751 24.103C85.3478 24.103 83.7217 22.6165 83.5739 21.0662H93.0769C94.1219 16.6378 91.405 12.6354 86.7204 12.6354ZM83.5316 18.4117C83.5316 16.5791 85.0892 14.9926 86.9316 14.9926C88.8111 14.9926 90.3316 16.5216 90.3316 18.4117H83.5316Z" fill="black"/>
<path d="M140.653 12.6354C136.599 12.6141 134.17 15.9907 134.17 19.7071C134.17 23.1898 136.873 26.8213 140.991 26.8213C143.42 26.8213 145.595 26.1842 146.968 24.6552L144.645 22.8501C144.138 23.6146 142.279 24.1242 141.308 24.103C139.281 24.103 137.655 22.6165 137.507 21.0662H147.01C148.055 16.6378 145.338 12.6354 140.653 12.6354ZM137.464 18.4117C137.464 16.5791 139.022 14.9926 140.864 14.9926C142.744 14.9926 144.264 16.5216 144.264 18.4117H137.464Z" fill="black"/>
<path d="M41.8228 14.5675C41.8228 10.5963 45.0327 7.98425 48.9818 7.98425H56.3308V11.0848H50.1644C47.5246 11.0848 45.3917 12.6138 45.3917 15.2683H51.8749V18.4113H45.3917V26.8209H41.8228V14.5675Z" fill="black"/>
<path d="M56.5825 12.656H59.4756V14.2487C60.1514 12.9957 62.052 12.5498 63.7837 12.656V15.714C61.6507 15.3742 59.6234 16.6484 59.6234 18.772V26.8419H56.5825V12.6772V12.656Z" fill="black"/>
<path d="M95.5682 21.0659V7.98425H98.6092V21.0234C98.6092 22.5737 99.3272 23.6992 100.721 23.6992V26.8422C97.5744 26.8422 95.5894 24.4212 95.5894 21.0871L95.5682 21.0659Z" fill="black"/>
<path d="M117.406 19.7918C117.406 23.678 114.259 26.821 110.416 26.821C106.572 26.821 103.426 23.678 103.426 19.7918V7.83569H106.467V14.8437C107.311 13.612 108.769 12.7838 110.416 12.7838C114.259 12.7838 117.406 15.948 117.406 19.813V19.7918ZM114.365 19.7918C114.365 17.6044 112.591 15.8206 110.416 15.8206C108.241 15.8206 106.467 17.6044 106.467 19.7918C106.467 21.9791 108.241 23.763 110.416 23.763C112.591 23.763 114.365 22.0004 114.365 19.7918Z" fill="black"/>
<path fill-rule="evenodd" clip-rule="evenodd" d="M65.0799 19.7071C65.0799 15.9907 67.5085 12.6141 71.5631 12.6354C76.2476 12.6354 78.9645 16.6378 77.9196 21.0662H68.4165C68.5643 22.6165 70.1904 24.103 72.2177 24.103C73.1892 24.1242 75.0475 23.6146 75.5544 22.8501L77.8773 24.6552C76.5047 26.1842 74.3295 26.8213 71.901 26.8213C67.783 26.8213 65.0799 23.1898 65.0799 19.7071ZM68.3743 18.4117H75.1742C75.1742 16.5216 73.6538 14.9926 71.7743 14.9926C69.9318 14.9926 68.3743 16.5791 68.3743 18.4117Z" fill="black"/>
<path d="M125.496 12.6354C121.441 12.6141 119.013 15.9907 119.013 19.7071C119.013 23.1898 121.716 26.8213 125.834 26.8213C128.262 26.8213 130.438 26.1842 131.81 24.6552L129.487 22.8501C128.98 23.6146 127.122 24.1242 126.151 24.103C124.123 24.103 122.497 22.6165 122.349 21.0662H131.852C132.897 16.6378 130.181 12.6354 125.496 12.6354ZM122.307 18.4117C122.307 16.5791 123.865 14.9926 125.707 14.9926C127.587 14.9926 129.107 16.5216 129.107 18.4117H122.307Z" fill="black"/>
<path d="M7.55298 5.37191V23.1468C7.55298 26.1623 10.784 28.0736 13.4026 26.6083L29.8112 17.4342C32.5565 15.9052 32.4932 11.9127 29.7267 10.4686L13.3182 1.84667C10.6995 0.466305 7.55298 2.37758 7.55298 5.35068V5.37191Z" fill="#0D76E9"/>
<path d="M0.5 9.34335V27.1182C0.5 30.1338 3.73103 32.0451 6.34965 30.5797L22.7582 21.4056C25.5036 19.8766 25.4402 15.8842 22.6738 14.4401L6.26518 5.83935C3.64656 4.45898 0.5 6.37026 0.5 9.34335Z" fill="#04103D"/>
<path d="M8.81458 13.7132V31.4881C8.81458 34.5037 12.0456 36.4149 14.6642 34.9496L31.0728 25.7755C33.8181 24.2465 33.7548 20.254 30.9883 18.81L14.5798 10.2092C11.9611 8.82885 8.81458 10.7401 8.81458 13.7132Z" fill="#3DE297"/>
</g>
<defs>
<clipPath id="clip0_11429_5125">
<rect width="147.441" height="35.105" fill="white" transform="translate(0.5 0.44751)"/>
</clipPath>
</defs>
</svg>
