<svg viewBox="0 0 27 29" fill="none" xmlns="http://www.w3.org/2000/svg">
<path d="M5.78125 3.96768V18.4553C5.78125 20.9132 8.42953 22.471 10.5759 21.2767L24.025 13.7992C26.2751 12.553 26.2232 9.29886 23.9557 8.12185L10.5066 1.09438C8.3603 -0.0307053 5.78125 1.52711 5.78125 3.95037V3.96768Z" fill="#3D6BE2"/>
<path d="M0 7.20428V21.6919C0 24.1498 2.64828 25.7076 4.7946 24.5133L18.2437 17.0358C20.4939 15.7896 20.442 12.5355 18.1745 11.3584L4.72536 4.34829C2.57905 3.2232 0 4.78101 0 7.20428Z" fill="#04103D"/>
<path d="M6.81641 10.7668V25.2544C6.81641 27.7123 9.46469 29.2701 11.611 28.0758L25.0601 20.5983C27.3103 19.3521 27.2584 16.098 24.9909 14.9209L11.5418 7.91079C9.39545 6.7857 6.81641 8.34351 6.81641 10.7668Z" fill="#3DE297"/>
</svg>
