<svg viewBox="0 0 179 32" fill="none" xmlns="http://www.w3.org/2000/svg">
<g clip-path="url(#clip0_11122_49095)">
<g clip-path="url(#clip1_11122_49095)">
<path d="M39.8035 13.9906C39.8035 12.1457 40.2154 10.4977 41.0394 9.04676C41.8812 7.57793 43.0188 6.44047 44.4517 5.6344C45.9027 4.81042 47.5238 4.39844 49.315 4.39844C51.4108 4.39844 53.2469 4.93582 54.8231 6.01057C56.3995 7.08533 57.5011 8.57208 58.1281 10.4708H53.8022C53.3722 9.57519 52.7632 8.90346 51.975 8.45565C51.2048 8.00783 50.3092 7.78392 49.2881 7.78392C48.1955 7.78392 47.2193 8.04366 46.3595 8.56312C45.5176 9.06468 44.8548 9.78118 44.3711 10.7127C43.9054 11.6441 43.6726 12.7367 43.6726 13.9906C43.6726 15.2266 43.9054 16.3193 44.3711 17.2687C44.8548 18.2002 45.5176 18.9256 46.3595 19.4451C47.2193 19.9466 48.1955 20.1973 49.2881 20.1973C50.3092 20.1973 51.2048 19.9735 51.975 19.5257C52.7632 19.0599 53.3722 18.3792 53.8022 17.4836H58.1281C57.5011 19.4002 56.3995 20.896 54.8231 21.9707C53.2647 23.0276 51.4287 23.556 49.315 23.556C47.5238 23.556 45.9027 23.153 44.4517 22.3469C43.0188 21.5229 41.8812 20.3854 41.0394 18.9345C40.2154 17.4836 39.8035 15.8356 39.8035 13.9906Z" fill="#4E4B66"/>
<path d="M67.9507 23.6366C66.5177 23.6366 65.228 23.3231 64.0816 22.6962C62.9352 22.0513 62.0306 21.1468 61.3678 19.9825C60.723 18.8181 60.4005 17.4746 60.4005 15.9521C60.4005 14.4295 60.7319 13.086 61.3947 11.9218C62.0754 10.7574 62.9979 9.86181 64.1622 9.23486C65.3266 8.59 66.6252 8.26758 68.0582 8.26758C69.4912 8.26758 70.7899 8.59 71.9542 9.23486C73.1186 9.86181 74.0321 10.7574 74.6948 11.9218C75.3755 13.086 75.7158 14.4295 75.7158 15.9521C75.7158 17.4746 75.3666 18.8181 74.6679 19.9825C73.9872 21.1468 73.0558 22.0513 71.8736 22.6962C70.7093 23.3231 69.4016 23.6366 67.9507 23.6366ZM67.9507 20.3586C68.6314 20.3586 69.2673 20.1974 69.8584 19.875C70.4674 19.5346 70.9511 19.0331 71.3094 18.3703C71.6676 17.7076 71.8467 16.9014 71.8467 15.9521C71.8467 14.537 71.4706 13.4533 70.7182 12.7009C69.9838 11.9307 69.0792 11.5456 68.0044 11.5456C66.9297 11.5456 66.0251 11.9307 65.2907 12.7009C64.5742 13.4533 64.2159 14.537 64.2159 15.9521C64.2159 17.3672 64.5652 18.4599 65.2638 19.2301C65.9803 19.9825 66.876 20.3586 67.9507 20.3586Z" fill="#4E4B66"/>
<path d="M96.9611 8.29443C98.7883 8.29443 100.258 8.85868 101.367 9.98718C102.496 11.0978 103.061 12.6562 103.061 14.6624V23.3948H99.2991V15.1729C99.2991 14.0086 99.0032 13.1219 98.4121 12.5128C97.821 11.8859 97.0149 11.5724 95.9939 11.5724C94.9729 11.5724 94.1578 11.8859 93.5488 12.5128C92.9577 13.1219 92.6622 14.0086 92.6622 15.1729V23.3948H88.9004V15.1729C88.9004 14.0086 88.605 13.1219 88.0138 12.5128C87.4227 11.8859 86.6166 11.5724 85.5956 11.5724C84.5567 11.5724 83.7327 11.8859 83.1237 12.5128C82.5325 13.1219 82.237 14.0086 82.237 15.1729V23.3948H78.4753V8.50939H82.237V10.3096C82.7206 9.68266 83.3387 9.19007 84.0909 8.83181C84.8612 8.47357 85.7031 8.29443 86.6166 8.29443C87.781 8.29443 88.8199 8.54522 89.7335 9.04677C90.647 9.53041 91.3545 10.229 91.8561 11.1425C92.3397 10.2827 93.0383 9.59311 93.9519 9.07363C94.8834 8.55417 95.8864 8.29443 96.9611 8.29443Z" fill="#4E4B66"/>
<path d="M110.392 10.6589C110.876 9.97823 111.538 9.41399 112.38 8.96617C113.24 8.50045 114.216 8.26758 115.308 8.26758C116.58 8.26758 117.727 8.58105 118.748 9.208C119.787 9.83493 120.602 10.7305 121.193 11.8949C121.802 13.0413 122.106 14.3758 122.106 15.8984C122.106 17.4209 121.802 18.7734 121.193 19.9556C120.602 21.1199 119.787 22.0245 118.748 22.6694C117.727 23.3142 116.58 23.6366 115.308 23.6366C114.216 23.6366 113.249 23.4127 112.407 22.9649C111.582 22.5171 110.911 21.9529 110.392 21.2722V30.4882H106.63V8.5094H110.392V10.6589ZM118.264 15.8984C118.264 15.0027 118.077 14.2325 117.7 13.5877C117.342 12.9248 116.858 12.4233 116.249 12.083C115.658 11.7426 115.013 11.5724 114.315 11.5724C113.634 11.5724 112.989 11.7516 112.38 12.1099C111.789 12.4502 111.305 12.9517 110.929 13.6145C110.571 14.2773 110.392 15.0565 110.392 15.9521C110.392 16.8477 110.571 17.6269 110.929 18.2897C111.305 18.9525 111.789 19.463 112.38 19.8213C112.989 20.1615 113.634 20.3317 114.315 20.3317C115.013 20.3317 115.658 20.1526 116.249 19.7944C116.858 19.4361 117.342 18.9256 117.7 18.2628C118.077 17.6001 118.264 16.8119 118.264 15.8984Z" fill="#4E4B66"/>
<path d="M123.873 15.8984C123.873 14.3937 124.169 13.0592 124.759 11.8949C125.368 10.7305 126.184 9.83493 127.204 9.208C128.243 8.58105 129.399 8.26758 130.671 8.26758C131.781 8.26758 132.749 8.49148 133.572 8.93931C134.414 9.38712 135.086 9.95137 135.588 10.632V8.5094H139.376V23.3948H135.588V21.2184C135.104 21.917 134.432 22.4991 133.572 22.9649C132.73 23.4127 131.754 23.6366 130.643 23.6366C129.39 23.6366 128.243 23.3142 127.204 22.6694C126.184 22.0245 125.368 21.1199 124.759 19.9556C124.169 18.7734 123.873 17.4209 123.873 15.8984ZM135.588 15.9521C135.588 15.0385 135.408 14.2593 135.05 13.6145C134.692 12.9517 134.208 12.4502 133.599 12.1099C132.99 11.7516 132.337 11.5724 131.638 11.5724C130.94 11.5724 130.295 11.7426 129.703 12.083C129.112 12.4233 128.629 12.9248 128.253 13.5877C127.894 14.2325 127.715 15.0027 127.715 15.8984C127.715 16.7939 127.894 17.5821 128.253 18.2628C128.629 18.9256 129.112 19.4361 129.703 19.7944C130.312 20.1526 130.957 20.3317 131.638 20.3317C132.337 20.3317 132.99 20.1615 133.599 19.8213C134.208 19.463 134.692 18.9614 135.05 18.3166C135.408 17.6538 135.588 16.8656 135.588 15.9521Z" fill="#4E4B66"/>
<path d="M151.299 8.29443C153.072 8.29443 154.505 8.85868 155.597 9.98718C156.691 11.0978 157.236 12.6562 157.236 14.6624V23.3948H153.475V15.1729C153.475 13.9906 153.18 13.086 152.588 12.4591C151.997 11.8143 151.191 11.4918 150.17 11.4918C149.131 11.4918 148.307 11.8143 147.698 12.4591C147.107 13.086 146.812 13.9906 146.812 15.1729V23.3948H143.05V8.50939H146.812V10.3633C147.313 9.71849 147.949 9.21694 148.719 8.85868C149.507 8.48252 150.367 8.29443 151.299 8.29443Z" fill="#4E4B66"/>
<path d="M175.055 8.50928L165.839 30.4343H161.835L165.059 23.0185L159.094 8.50928H163.312L167.154 18.9075L171.051 8.50928H175.055Z" fill="#4E4B66"/>
<path d="M5.43602 31.4842H2.75452V12.7065H12.8132V24.1071C12.8132 28.1808 9.5121 31.4842 5.43602 31.4842Z" fill="#B3B7C7"/>
<path d="M26.2253 12.7067C26.2253 6.22656 20.9723 0.971191 14.4898 0.971191C13.9205 0.971191 13.3608 1.01425 12.813 1.09319V12.7067H26.2253Z" fill="#B3B7C7"/>
<path d="M22.4256 25.0773C24.998 24.0277 26.2324 21.0915 25.1829 18.5191C24.1332 15.9467 21.1969 14.7122 18.6245 15.7618C16.0521 16.8115 14.8177 19.7477 15.8673 22.3201C16.917 24.8925 19.8532 26.127 22.4256 25.0773Z" fill="#4E4B66"/>
</g>
</g>
<defs>
<clipPath id="clip0_11122_49095">
<rect width="178.667" height="32" fill="white"/>
</clipPath>
<clipPath id="clip1_11122_49095">
<rect width="173.812" height="31.0725" fill="white" transform="translate(1.94226 0.971191)"/>
</clipPath>
</defs>
</svg>
