<?xml version="1.0" encoding="UTF-8"?>
<svg id="_Слой_2" data-name="Слой 2" xmlns="http://www.w3.org/2000/svg" xmlns:xlink="http://www.w3.org/1999/xlink" viewBox="0 0 424.79 421.73">
  <defs>
    <style>
      .cls-1, .cls-2, .cls-3, .cls-4 {
        fill: #fff;
      }

      .cls-5 {
        stroke-width: 2px;
      }

      .cls-5, .cls-6, .cls-7, .cls-8, .cls-9 {
        fill: none;
      }

      .cls-5, .cls-7, .cls-3, .cls-9 {
        stroke-linecap: round;
        stroke-linejoin: round;
      }

      .cls-5, .cls-7, .cls-9 {
        stroke: #150d0d;
      }

      .cls-10 {
        fill: #639cff;
      }

      .cls-11 {
        fill: #3de297;
      }

      .cls-2, .cls-3 {
        stroke-width: 1.9px;
      }

      .cls-2, .cls-3, .cls-4 {
        stroke: #000;
      }

      .cls-2, .cls-4 {
        stroke-miterlimit: 10;
      }

      .cls-7 {
        stroke-width: 2px;
      }

      .cls-8 {
        clip-path: url(#clippath);
      }

      .cls-12 {
        fill: #0d76e9;
      }

      .cls-4, .cls-9 {
        stroke-width: 2px;
      }

      .cls-13 {
        fill: #150d0d;
      }

      .cls-14 {
        fill: #04103d;
      }
    </style>
    <clipPath id="clippath">
      <circle class="cls-6" cx="208.97" cy="208.97" r="208.97"/>
    </clipPath>
  </defs>
  <g id="_Слой_2-2" data-name="Слой 2">
    <g>
      <path class="cls-14" d="m198.91,113.34l-86.42-49.89c-6.2-3.58-13.95.9-13.95,8.05v99.78c0,7.16,7.75,11.63,13.95,8.05l86.42-49.89c6.2-3.58,6.2-12.53,0-16.11Z"/>
      <path class="cls-11" d="m98.47,295.94l-77.59,62.74c-5.57,4.5-4.17,13.34,2.51,15.91l93.13,35.83c6.68,2.57,13.64-3.06,12.53-10.13l-15.53-98.57c-1.11-7.07-9.47-10.29-15.03-5.78Z"/>
      <path class="cls-12" d="m412.65,128.17l-95.03,30.44c-6.82,2.18-8.72,10.93-3.42,15.74l73.87,67.08c5.3,4.81,13.82,2.08,15.34-4.91l21.16-97.52c1.52-7-5.11-13.01-11.93-10.83Z"/>
      <g>
        <path class="cls-12" d="m387.25,379.82l-5.44,9.42c-.9,1.56.23,3.52,2.03,3.52h10.88c1.8,0,2.93-1.95,2.03-3.52l-5.44-9.42c-.9-1.56-3.16-1.56-4.06,0Z"/>
        <path class="cls-14" d="m277.23,129.87l5.6-9.71c.87-1.5-.22-3.37-1.95-3.37h-11.21c-1.73,0-2.81,1.87-1.95,3.37l5.6,9.71c.87,1.5,3.03,1.5,3.9,0Z"/>
        <polygon class="cls-11" points="18.28 258.24 27.78 241.78 8.78 241.78 18.28 258.24"/>
        <path class="cls-11" d="m383.75,115.52c-1.07-1.21-.05-4.94,2.07-6.12,1.25-.7,2.63-.53,4.2-1.84.38-.32.7-.64.96-.95.81-.95,2.11-1.33,3.28-.89l.18.07c1.84.69,2.5,2.99,1.27,4.51-.29.36-.56,1.57-3.67,3.19-1.89.99-6.89,3.6-8.28,2.02Z"/>
        <path class="cls-14" d="m409.23,320.87c-1.02-.57-1.65-2.1-1.27-3.16.68-1.93,4.25-1,5.85-3.45,1.06-1.62.16-3.05,1.47-4.1.85-.68,2.24-.9,3.19-.3,1.15.72,1.23,2.36,1.24,2.67.2,4.54-7.56,9.96-10.48,8.34Z"/>
        <path class="cls-10" d="m228.56,54.96c-.73-2.51-1.06-6.12.89-10.14.8-1.65,2.93-2.14,4.4-1.04l.12.09c1.09.82,1.51,2.3.92,3.52-1.13,2.36-.98,4.41-.6,5.8.33,1.22-.09,2.52-1.12,3.25l-.1.07c-1.64,1.15-3.94.37-4.5-1.55Z"/>
        <path class="cls-11" d="m147.05,125.77c-.2.04-1.39.27-2.05-.4-.8-.81-.31-2.41-.18-2.8.85-2.76,4.14-5.01,7.53-5.1.29,0,2.9-.04,5.11,1.7.69.54,1.92,1.52,1.71,2.61-.16.84-1.12,1.54-2.02,1.6-1.18.08-1.46-.98-2.87-1.27-1.55-.32-3,.58-3.79,1.07-1.84,1.15-1.92,2.29-3.44,2.58Z"/>
        <path class="cls-14" d="m45.18,153.71c-2.43-.9-5.48-2.77-7.55-6.65-.88-1.65.01-3.7,1.81-4.24h.02c1.26-.39,2.84.24,3.47,1.4,1.24,2.29,2.98,3.37,4.33,3.87,1.19.45,1.95,1.61,1.91,2.88h0c-.06,2.03-2.09,3.45-3.99,2.74Z"/>
      </g>
    </g>
  </g>
  <g id="_Слой_1-2" data-name="Слой 1">
    <g id="OBJECTS">
      <g class="cls-8">
        <g>
          <g>
            <path class="cls-3" d="m215.24,220.97s-24.2,7.76-43.6,16.88c-19.4,9.12-27.2,15.97-42.8,37.54-15.6,21.58-26.74,34.54-26.74,34.54l49.26,34.34s13.56,64.08,12.72,61.89,172.11-29.08,172.11-29.08l-20.93-78.46,34.32-17.55s-16.19-18.33-30.26-33.71c-14.07-15.39-29.21-18.07-50.64-20.73-21.43-2.66-53.43-5.66-53.43-5.66h0Z"/>
            <path class="cls-9" d="m190,233.08c4.92,8.17,13.96,13.7,23.47,14.37,9.51.67,19.24-3.54,25.25-10.94"/>
            <path class="cls-9" d="m279.53,300.9c-1-10.23-1.99-20.46-2.99-30.69-.54-5.58-2.12-11.3-1.01-16.8s4.11-10.7,8.67-13.97c4.56-3.27,10.72-4.41,15.98-2.48"/>
            <path class="cls-9" d="m151.15,344.5c-3.5-17.25-7.01-34.5-10.51-51.76"/>
            <path class="cls-9" d="m134.48,317.67c4.46,4.08,8.93,8.16,13.39,12.24"/>
            <path class="cls-9" d="m281.29,302.6c19.45-8.17,38.89-16.33,58.34-24.5"/>
          </g>
          <g>
            <polygon class="cls-11" points="161.78 396.14 164.08 420.73 352.71 420.73 335.7 371.33 161.78 396.14"/>
            <polygon class="cls-11" points="179.02 396.03 164.04 239.73 175.84 234.89 192.37 396.03 179.02 396.03"/>
            <path class="cls-11" d="m260.17,383.13s-1.07-117.25,0-136.71,12.68-21.16,12.68-21.16l11.53,1.36s-12.25,3.43-13.2,19.89c-.95,16.45,1.67,137.57,1.67,137.57l-12.68-.95h0Z"/>
            <path class="cls-9" d="m189.22,389.96l-11.28,1.72c.15,2.09,1.55,4.05,3.49,4.87s4.31.45,5.92-.9c1.6-1.36,2.36-3.64,1.87-5.69Z"/>
            <path class="cls-9" d="m272.05,379.2l-12.48,1.18c.18,2.2,1.62,4.25,3.62,5.17,2,.93,4.49.69,6.28-.59s2.82-3.56,2.58-5.76h0Z"/>
            <line class="cls-9" x1="164.08" y1="406.16" x2="337.7" y2="380.97"/>
            <line class="cls-9" x1="316.4" y1="384.53" x2="326.76" y2="419.2"/>
            <line class="cls-9" x1="383.45" y1="420.73" x2="134.48" y2="420.73"/>
            <path class="cls-9" d="m285.17,388.47c3.8,13.13,12.66,24.73,24.34,31.84"/>
          </g>
          <line class="cls-2" x1="196.2" y1="228.02" x2="193.83" y2="218.16"/>
          <line class="cls-4" x1="235.62" y1="224.84" x2="235.62" y2="204.95"/>
          <g>
            <path class="cls-1" d="m234.68,221.67c-.19-6.67.03-13.16-.15-19.82-13.79,4.83-26.48,9.35-40.27,14.18.98,4.09,1.96,8.18,2.94,12.26,1.92,8.01,12.08,13,20.26,12.08s17.46-10.46,17.23-18.69h-.01Z"/>
            <path class="cls-12" d="m263.98,169.22c-2.55-2.46-6-2.39-9.51-1.92-3.89.53-7.78,1.05-11.67,1.58-2.15-4.61-5.36-8.71-9.45-11.73-10.28-7.58-24.78-7.56-35.8-1.1-2.65,1.56-3.86,5.18-2.67,8.01-2.71,6.29-5.86,12.43-8.57,18.72-1.82.75-4.23,1.19-6.05,1.95-1.16,6.13-2.34,12.26-3.5,18.39-.96,5.04,1.45,10.56,4.95,14.31,3.49,3.76,8.59,5.97,13.72,5.96,7.52-.02,15.1.29,22.4-1.53,8.62-2.16,15.58-9.02,19.65-16.92l7.19-13.66c.72-2.38,1.12-4.83,1.22-7.31,3.9,1,8.17,1.06,12.13.9,3.54-.14,6.89-2.54,8.15-5.85,1.26-3.31.37-7.33-2.18-9.8h0Z"/>
            <g>
              <path class="cls-3" d="m232.2,204.19c.62.25,7.63,2.92,13.47-1.18,4.87-3.42,7.79-10.77,4.69-15.92-2.37-3.93-7.13-4.77-8.18-4.93"/>
              <path class="cls-9" d="m239.95,193.59l3.97-1.31"/>
            </g>
            <g>
              <path class="cls-1" d="m230.17,193.42c1.39-5.51,2.63-11.28,4.02-16.78-2.74-6.05-7.67-11.09-13.67-13.95-6-2.87-12.81-2.87-19.41-2.15-5.28.58-9.86,4.06-12.66,8.57-3.34,5.37-5.45,11.5-6.11,17.79,4.94-.18,9.43-.63,14.33-1.3,6.2-.86,13.09-.15,18.67,2.69,4.54,2.31,10.04,3.42,14.84,5.13h0Z"/>
              <circle class="cls-13" cx="226.24" cy="177.97" r="2"/>
              <circle class="cls-13" cx="198.24" cy="172.97" r="2"/>
              <path class="cls-9" d="m206.08,189.8c.13,1.57,1.57,2.91,3.14,2.94,1.57.02,3.05-1.28,3.23-2.84"/>
              <g>
                <circle class="cls-5" cx="192.11" cy="174.28" r="9.95"/>
                <circle class="cls-7" cx="221.13" cy="178.55" r="9.95" transform="translate(-12.09 16.11) rotate(-4.06)"/>
                <path class="cls-9" d="m202.65,172.82c.9-1.71,2.99-2.71,4.89-2.33s3.45,2.09,3.64,4.02"/>
              </g>
              <path class="cls-9" d="m206.24,174.74c-.94,2.71-1.87,5.42-2.81,8.12,1.1-.02,2.18.33,3.27.31"/>
              <path class="cls-9" d="m195.08,164.99c1-1.24,2.59-1.99,4.19-1.97s3.17.8,4.14,2.07"/>
              <path class="cls-9" d="m218.38,165.46l6.94,1.9"/>
            </g>
          </g>
          <g>
            <path class="cls-3" d="m333.93,287.87l-45.47,19.77-15.49-16.14c4.6-13.82,5.02-28.36,6.59-42.84.23-2.15-.99-4.38-2.93-5.34-1.94-.96-4.28-.73-5.84.76.09-2.25-1.43-4.48-3.56-5.21-1.88-.64-4.09.31-5.68,1.63.77-6.31,1.56-12.63,2.35-18.94,4.3-7.37,8.6-14.75,12.84-22.13-1.48-.67-3.26-.42-4.72.29-1.47.71-2.69,1.83-3.88,2.94-.73.68-1.44,1.38-2.16,2.06.57-4.75,1.14-9.49,1.67-14.21-1.22-.63-2.78-.15-3.78.79-1.01.94-1.58,2.23-2.12,3.5-3.14,7.38-5.94,14.9-8.41,22.54-8.08,8.49-15.73,17.37-22.94,26.61-5.63,7.22-8.24,16.58-12.37,24.75-3.36,6.63-7.04,13.21-7.35,20.63-.31,7.43,1.76,14.93,5.84,21.15,0,0,28.72,33.5,52.4,59.31s59.66,7.83,65.32-24.81c4.57-26.37-.31-57.1-.31-57.1h0Z"/>
            <path class="cls-9" d="m253.01,217.51c4.32-4.42,8.88-8.7,13.2-13.13"/>
            <path class="cls-9" d="m244.57,252.37c6.53-10.25,13.06-20.5,19.6-30.75"/>
            <path class="cls-9" d="m247.93,289.79c-.15-5.57-.21-11.43-.36-17,6.06-4,12.13-8,18.19-12,1.55-1.02,3.15-2.1,4.12-3.68s1.43-3.9.15-5.25c-11.08,1.82-22.15,3.64-33.23,5.46-6.22,6.68-12.91,13.23-19.13,19.91"/>
            <path class="cls-9" d="m277.75,254.88c-2.38,3.33-4.77,6.66-7.15,9.99-1.1,1.54-2.91,2.35-4.8,2.48-1.89.14-3.82-.65-5.08-2.06"/>
            <path class="cls-9" d="m264.42,252.32c2.23-2.86,4.47-5.73,6.7-8.59"/>
            <path class="cls-9" d="m261.68,240.54c-3.14,3.13-6.28,6.27-9.42,9.4-1.43,1.42-2.87,3.21-3.45,5.15"/>
            <path class="cls-9" d="m273.58,290.56c-.58,2.8-1.15,5.6-1.73,8.41"/>
            <path class="cls-9" d="m289.08,306.81c9.28,10.97,18.56,21.94,27.84,32.92"/>
          </g>
          <g>
            <path class="cls-3" d="m155.47,202.26c2.86-8.88,5.58-17.82,8.06-26.85-.79-.87-2.21-.88-3.25-.33-1.04.54-1.78,1.51-2.48,2.45-1.96,2.64-3.85,5.34-5.68,8.07-.86-4.32-1.72-8.65-2.53-13.01-1.49.23-2.66,1.48-3.22,2.89-.56,1.4-.61,2.95-.65,4.46-.16,5.59-.33,11.17-.49,16.76-3.27,5.67-6.26,11.49-8.95,17.46-.82-2.29-2.83-4.16-5.25-4.27-3-.14-5.85,2.46-6,5.45-.38-2.53-2.64-4.47-5.2-4.62-2.56-.14-5.09,1.69-5.76,4.16-5.24,19.53-15.15,37.25-22.3,56.17-7.53,19.93-10.72,30.24-19.53,51.93-13,32,21,53,48.21,30.62,20.55-16.91,20.79-16.62,20.79-16.62l-10.06-9.15,14.74-41.63c4.58-5.78,7.35-12.83,9-20.02,1.64-7.19,2.43-14.43,3.27-21.76,1.12-9.66,1.61-19.52-.17-29.08-.82-4.39-1.68-8.73-2.54-13.07h-.01Z"/>
            <path class="cls-9" d="m145.25,196.03c-.28,8.63-.55,17.25-.83,25.88"/>
            <path class="cls-9" d="m152.01,184.99c1.12,6.08,2.23,12.15,3.35,18.23"/>
            <path class="cls-9" d="m150,254.52c-.83-5.33-1.76-10.93-2.58-16.26-5.25-3.86-10.99-7.22-16.83-10.13-5.14.78-10.28,1.56-15.41,2.34-.29,1.66.15,3.75,1.37,4.91s2.8,1.87,4.39,2.42c1.59.56,3.23.99,4.74,1.74,2.45,1.2,3.52,4.4,5.29,6.47-2.17,3.87-4.68,7.69-7.53,11.08"/>
            <path class="cls-9" d="m125.8,227.91c-.21-1.84-.5-3.79-.6-5.64-.13-2.43-.26-4.87-.38-7.3-.63,4.51-1.29,8.68-1.92,13.19"/>
            <path class="cls-9" d="m136.36,213.56c.05,4.31.09,8.63.14,12.94,0,1.26-.3,2.69-.96,3.77"/>
            <path class="cls-9" d="m113.96,218.03c-.38,4.24-.14,8.52.7,12.69"/>
            <path class="cls-9" d="m131.25,327.03c-1.96,5.49-3.93,10.98-5.89,16.47"/>
          </g>
        </g>
      </g>
    </g>
  </g>
</svg>