<svg viewBox="0 0 691 509" fill="none" xmlns="http://www.w3.org/2000/svg">
<path d="M159.5 312.841L164 208.341L157.58 166.341L157.045 162.841L155.287 151.341L153.223 137.841L152 129.841C155.167 124.675 163.9 117.441 173.5 129.841L187 169.341C187 169.341 240 43.8414 248 34.3415C256 24.8415 271 28.3414 270 42.3415C269 56.3416 249.5 105.841 249.5 105.841L311.5 129.841L257 314.341C241.973 316.158 202.242 321.246 160.661 313.073C160.274 312.997 159.887 312.92 159.5 312.841Z" fill="white"/>
<path d="M159.5 312.841L164 208.341L157.58 166.341M159.5 312.841C159.887 312.92 160.274 312.997 160.661 313.073M159.5 312.841L160.661 313.073M153.223 137.841L152 129.841C155.167 124.675 163.9 117.441 173.5 129.841L187 169.341C187 169.341 240 43.8414 248 34.3415C256 24.8415 271 28.3414 270 42.3415C269 56.3416 249.5 105.841 249.5 105.841L311.5 129.841L257 314.341C241.973 316.158 202.242 321.246 160.661 313.073M153.223 137.841C155.815 137.175 161 138.541 161 149.341C160.691 150.675 159.116 152.941 155.287 151.341M153.223 137.841L155.287 151.341M155.287 151.341L157.045 162.841M157.045 162.841L159.5 161.341M157.045 162.841L157.58 166.341M161 164.841L157.58 166.341" stroke="#1C1C1C" stroke-width="2" stroke-linecap="round" stroke-linejoin="round"/>
<path d="M218.775 312.332C292.083 294.096 336.728 219.885 318.491 146.577C300.255 73.2691 226.044 28.6247 152.736 46.861C79.4278 65.0974 34.7835 139.309 53.0198 212.617C71.2562 285.924 145.467 330.569 218.775 312.332Z" fill="#1C1C1C"/>
<path d="M159.5 312.841L164 208.341L157.58 166.341L157.045 162.841L155.287 151.341L153.223 137.841L152 129.841C155.167 124.675 163.9 117.441 173.5 129.841L187 169.341C187 169.341 240 43.8414 248 34.3415C256 24.8415 271 28.3414 270 42.3415C269 56.3416 249.5 105.841 249.5 105.841L311.5 129.841L257 314.341C241.973 316.158 202.242 321.246 160.661 313.073C160.274 312.997 159.887 312.92 159.5 312.841Z" fill="white"/>
<path d="M159.5 312.841L164 208.341L157.58 166.341M159.5 312.841C159.887 312.92 160.274 312.997 160.661 313.073M159.5 312.841L160.661 313.073M153.223 137.841L152 129.841C155.167 124.675 163.9 117.441 173.5 129.841L187 169.341C187 169.341 240 43.8414 248 34.3415C256 24.8415 271 28.3414 270 42.3415C269 56.3416 249.5 105.841 249.5 105.841L311.5 129.841L257 314.341C241.973 316.158 202.242 321.246 160.661 313.073M153.223 137.841C155.815 137.175 161 138.541 161 149.341C160.691 150.675 159.116 152.941 155.287 151.341M153.223 137.841L155.287 151.341M155.287 151.341L157.045 162.841M157.045 162.841L159.5 161.341M157.045 162.841L157.58 166.341M161 164.841L157.58 166.341" stroke="#1C1C1C" stroke-width="2" stroke-linecap="round" stroke-linejoin="round"/>
<rect x="126.394" y="83.1798" width="112.18" height="171.703" rx="13" transform="rotate(-34.7669 126.394 83.1798)" fill="#04103D"/>
<rect x="144.381" y="70.694" width="90.2842" height="171.703" rx="13" transform="rotate(-34.7669 144.381 70.694)" fill="#0D76E9"/>
<rect width="13.7585" height="16.4242" rx="3" transform="matrix(-0.821479 0.570239 0.570239 0.821479 252 118.841)" fill="#D7DBEB"/>
<rect width="13.7585" height="16.4242" rx="3" transform="matrix(-0.821479 0.570239 0.570239 0.821479 263.259 134.841)" fill="#D7DBEB"/>
<rect width="13.7585" height="16.4242" rx="3" transform="matrix(-0.821479 0.570239 0.570239 0.821479 274.259 149.841)" fill="#D7DBEB"/>
<rect width="13.7585" height="16.4242" rx="3" transform="matrix(-0.821479 0.570239 0.570239 0.821479 266 108.841)" fill="#D7DBEB"/>
<rect width="13.7585" height="16.4242" rx="3" transform="matrix(-0.821479 0.570239 0.570239 0.821479 277.259 124.841)" fill="#D7DBEB"/>
<rect width="13.7585" height="16.4242" rx="3" transform="matrix(-0.821479 0.570239 0.570239 0.821479 288.259 139.841)" fill="#D7DBEB"/>
<rect width="13.7585" height="16.4242" rx="3" transform="matrix(-0.821479 0.570239 0.570239 0.821479 238.043 128.7)" fill="#D7DBEB"/>
<rect width="13.7585" height="16.4242" rx="3" transform="matrix(-0.821479 0.570239 0.570239 0.821479 249.302 144.7)" fill="#D7DBEB"/>
<rect width="13.7585" height="16.4242" rx="3" transform="matrix(-0.821479 0.570239 0.570239 0.821479 260.302 159.7)" fill="#D7DBEB"/>
<rect x="210.2" y="148.028" width="17.265" height="25.7832" rx="3" transform="rotate(-34.7669 210.2 148.028)" fill="#04103D"/>
<rect width="17.265" height="26.9992" rx="3" transform="matrix(0.821479 -0.570239 -0.570239 -0.821479 241.78 193.522)" fill="#3DE297"/>
<rect x="172.173" y="126.554" width="3.5299" height="42.3712" rx="1.76495" transform="rotate(145.233 172.173 126.554)" fill="white"/>
<rect width="89.5607" height="1.18417" rx="0.592083" transform="matrix(0.821479 -0.570239 -0.570239 -0.821479 156.829 88.5372)" fill="white"/>
<rect width="44.843" height="2.25326" rx="1.12663" transform="matrix(0.821479 -0.570239 -0.570239 -0.821479 169.96 67.6993)" fill="#04103D"/>
<path d="M228.15 123.841L233.5 120.127C221.971 118.199 200.072 111.841 204.707 101.841C210.5 89.3414 201.5 84.7083 185.5 83.7749L180 87.5927L180.386 87.6368C192.441 89.0097 203.728 90.2589 199.5 103.5C196.473 112.981 195.112 118.092 228.15 123.841Z" fill="white"/>
<path fill-rule="evenodd" clip-rule="evenodd" d="M173.78 95.5623C172.835 94.2013 173.173 92.332 174.534 91.3872L180 87.5927L180.386 87.6368C192.441 89.0097 203.728 90.2589 199.5 103.5C196.473 112.981 195.112 118.092 228.15 123.841L207.171 138.404C205.81 139.349 203.941 139.011 202.996 137.65L173.78 95.5623ZM243 113.533L233.5 120.127C221.971 118.199 200.072 111.841 204.707 101.841C210.5 89.3414 201.5 84.7083 185.5 83.7749L195 77.1803L195.059 77.1892C201.239 78.1167 212.612 79.8236 214.5 82.3414C217.5 86.3414 217.719 89.3414 214.5 95.3414C212 100.002 215.5 108.724 243 113.533ZM254.5 105.55L260.028 101.713C261.389 100.768 261.727 98.8985 260.782 97.5375L231.566 55.4495C230.621 54.0884 228.752 53.751 227.391 54.6958L207.013 68.8414C231.291 69.2206 228.802 77.6136 226.401 85.7138C225.636 88.2944 224.879 90.8453 225 93.0979C225.4 100.556 244.833 104.507 254.5 105.55Z" fill="#04103D"/>
<path d="M214.5 82.3414C217.5 86.3414 217.719 89.3414 214.5 95.3414C212 100.002 215.5 108.724 243 113.533L254.5 105.55C244.833 104.507 225.4 100.556 225 93.0979C224.879 90.8453 225.636 88.2944 226.401 85.7138C228.802 77.6136 231.291 69.2206 207.013 68.8414L195 77.1803L195.059 77.1892C201.239 78.1167 212.612 79.8236 214.5 82.3414Z" fill="white"/>
<path d="M152 129.842C155.167 124.675 163.9 117.442 173.5 129.842L187 169.342L189.5 178.341H185.5L162.5 162.841L158.5 164.341L157 162.341L155.287 151.342L153.223 137.842L152 129.842Z" fill="white"/>
<path d="M187.5 170.341L173.5 129.842C163.9 117.442 155.167 124.675 152 129.842L153.223 137.842M153.223 137.842C155.815 137.175 161 138.542 161 149.342C160.691 150.675 159.116 152.942 155.287 151.342M153.223 137.842L155.287 151.342M155.287 151.342L157.045 162.842L159.5 161.342" stroke="#1C1C1C" stroke-width="2" stroke-linecap="round" stroke-linejoin="round"/>
<path d="M249.5 102.341C250.997 94.8589 252.382 88.0871 254.099 82.6961C256.313 75.7429 262.428 70.4417 269.722 70.2271C281.367 69.8843 284.531 80.2099 284 86.8414C275.667 101.175 264.001 126.569 254.5 124.841C243.5 122.841 247.5 112.341 249.5 102.341Z" fill="white"/>
<path d="M259 97.3414L265.5 100.341M259.5 101.341L262 102.341M249.5 102.341C250.997 94.8589 252.382 88.0871 254.099 82.6961C256.313 75.7429 262.428 70.4417 269.722 70.2271C281.367 69.8843 284.531 80.2099 284 86.8414C275.667 101.175 264.001 126.569 254.5 124.841C243.5 122.841 247.5 112.341 249.5 102.341ZM254.5 118.841C251.26 117.87 251.519 113.771 252.354 110.742C252.678 109.571 253.794 108.829 255.007 108.917C258.092 109.14 262 109.904 262 111.841C262 114.841 259.5 120.341 254.5 118.841Z" stroke="#1C1C1C" stroke-width="2" stroke-linecap="round" stroke-linejoin="round"/>
<path d="M267.5 140.841C259.1 137.241 264 122.341 267.5 115.341C269.316 111.006 273.604 101.768 281.86 91.124C283.511 88.9958 286.034 87.6141 288.72 87.8113C303.494 88.8954 303.42 102.962 302.5 104.341C301.7 105.541 292.5 118.841 288 125.341C284.667 132.008 275.9 144.441 267.5 140.841Z" fill="white"/>
<path d="M279.5 115.341L282 117.841M279.5 111.841L284.5 115.341M267.5 115.341C264 122.341 259.1 137.241 267.5 140.841C275.9 144.441 284.667 132.008 288 125.341C292.5 118.841 301.7 105.541 302.5 104.341C303.42 102.962 303.494 88.8954 288.72 87.8113C286.034 87.6141 283.511 88.9958 281.86 91.124C273.604 101.768 269.316 111.006 267.5 115.341ZM270 125.341C268.167 127.841 265.6 133.441 270 135.841C274.4 138.241 278.167 132.508 279.5 129.341L270 125.341Z" stroke="#1C1C1C" stroke-width="2" stroke-linecap="round" stroke-linejoin="round"/>
<path d="M283 157.841C275.4 156.641 275 145.341 281 135.841C287 126.341 297.7 109.641 300.5 106.841C304 103.341 308.5 102.341 316.5 112.341C324.5 122.341 307 139.841 302 145.341C297 150.841 292.5 159.341 283 157.841Z" fill="white"/>
<path d="M294 132.841L299 136.341M294 136.341L296 138.341M281 135.841C275 145.341 275.4 156.641 283 157.841C292.5 159.341 297 150.841 302 145.341C307 139.841 324.5 122.341 316.5 112.341C308.5 102.341 304 103.341 300.5 106.841C297.7 109.641 287 126.341 281 135.841ZM284.5 143.341C282.833 145.719 280.5 151.147 284.5 153.841C288.5 156.535 291.833 150.631 293 147.341C291.833 146.008 288.5 143.341 284.5 143.341Z" stroke="#1C1C1C" stroke-width="2" stroke-linecap="round" stroke-linejoin="round"/>
<rect x="175.5" y="298.341" width="374" height="208" rx="4.5" fill="#F7F7FC" stroke="#04103D" stroke-width="3" stroke-linejoin="round"/>
<path d="M174.5 274.841C174.5 266.281 181.44 259.341 190 259.341H535C543.56 259.341 550.5 266.281 550.5 274.841V302.341H174.5V274.841Z" fill="#04103D" stroke="#04103D"/>
<path d="M196.352 273.841C192.487 273.841 189.352 276.976 189.352 280.841C189.352 284.706 192.487 287.841 196.352 287.841C200.217 287.841 203.352 284.706 203.352 280.841C203.352 276.976 200.217 273.841 196.352 273.841Z" fill="#3DE297"/>
<path d="M222.223 273.841C218.358 273.841 215.223 276.976 215.223 280.841C215.223 284.706 218.358 287.841 222.223 287.841C226.088 287.841 229.223 284.706 229.223 280.841C229.223 276.976 226.088 273.841 222.223 273.841Z" fill="white"/>
<path d="M248.094 273.841C244.229 273.841 241.094 276.976 241.094 280.841C241.094 284.706 244.229 287.841 248.094 287.841C251.959 287.841 255.094 284.706 255.094 280.841C255.094 276.976 251.959 273.841 248.094 273.841Z" fill="#0D76E9"/>
<path d="M126.485 98.3906C107.727 92.9056 94.5678 79.8358 88.9428 73.32C88.3065 72.5819 87.4793 72.1365 86.614 71.9456C86.6012 71.9456 86.5758 71.9456 86.563 71.9456C86.5503 71.9456 86.5249 71.9456 86.5121 71.9456C86.4994 71.9456 86.474 71.9456 86.4612 71.9456C86.4485 71.9456 86.4231 71.9456 86.4103 71.9456C86.3976 71.9456 86.3722 71.9456 86.3594 71.9456C86.3467 71.9456 86.3213 71.9456 86.3085 71.9456C86.2958 71.9456 86.2703 71.9456 86.2576 71.9456C86.2449 71.9456 86.2194 71.9456 86.2067 71.9456C86.194 71.9456 86.1685 71.9456 86.1558 71.9456C86.1431 71.9456 86.1176 71.9456 86.1049 71.9456C86.0922 71.9456 86.0667 71.9456 86.054 71.9456C86.0413 71.9456 86.0158 71.9456 86.0031 71.9456C85.9904 71.9456 85.9649 71.9456 85.9522 71.9456C85.9395 71.9456 85.914 71.9456 85.9013 71.9456C85.8886 71.9456 85.8631 71.9456 85.8504 71.9456C85.8377 71.9456 85.8122 71.9456 85.7995 71.9456C85.7868 71.9456 85.7613 71.9456 85.7486 71.9456C85.7358 71.9456 85.7104 71.9456 85.6977 71.9456C85.6849 71.9456 85.6595 71.9456 85.6468 71.9456C85.634 71.9456 85.6086 71.9456 85.5959 71.9456C85.5831 71.9456 85.5577 71.9456 85.545 71.9456C85.5322 71.9456 85.5068 71.9456 85.494 71.9456C85.4813 71.9456 85.4559 71.9456 85.4431 71.9456C85.4304 71.9456 85.405 71.9456 85.3922 71.9456C85.3795 71.9456 85.3541 71.9456 85.3413 71.9456C85.3286 71.9456 85.3032 71.9456 85.2904 71.9456C85.2777 71.9456 85.2522 71.9456 85.2395 71.9456C85.2268 71.9456 85.2013 71.9456 85.1886 71.9456C85.1759 71.9456 85.1504 71.9456 85.1377 71.9456C85.125 71.9456 85.0995 71.9456 85.0868 71.9456C85.0741 71.9456 85.0486 71.9456 85.0359 71.9456C85.0232 71.9456 84.9977 71.9456 84.985 71.9456C84.9723 71.9456 84.9468 71.9456 84.9341 71.9456C84.9214 71.9456 84.8959 71.9456 84.8832 71.9456C84.8705 71.9456 84.845 71.9456 84.8323 71.9456C84.8196 71.9456 84.7941 71.9456 84.7814 71.9456C84.7687 71.9456 84.7432 71.9456 84.7305 71.9456C84.7178 71.9456 84.6923 71.9456 84.6796 71.9456C84.6668 71.9456 84.6414 71.9456 84.6287 71.9456C84.6159 71.9456 84.5905 71.9456 84.5778 71.9456C84.565 71.9456 84.5396 71.9456 84.5269 71.9456C84.5141 71.9456 84.4887 71.9456 84.476 71.9456C84.4632 71.9456 84.4378 71.9456 84.425 71.9456C84.4123 71.9456 84.3869 71.9456 84.3741 71.9456C84.3614 71.9456 84.336 71.9456 84.3232 71.9456C84.3105 71.9456 84.2851 71.9456 84.2723 71.9456C84.2596 71.9456 84.2342 71.9456 84.2214 71.9456C84.2087 71.9456 84.1833 71.9456 84.1705 71.9456C84.1578 71.9456 84.1323 71.9456 84.1196 71.9456C84.1069 71.9456 84.0814 71.9456 84.0687 71.9456C84.056 71.9456 84.0305 71.9456 84.0178 71.9456C84.0051 71.9456 83.9796 71.9456 83.9669 71.9456C83.9542 71.9456 83.9287 71.9456 83.916 71.9456C83.9033 71.9456 83.8778 71.9456 83.8651 71.9456C83.8524 71.9456 83.8269 71.9456 83.8142 71.9456C83.8015 71.9456 83.776 71.9456 83.7633 71.9456C83.7506 71.9456 83.7251 71.9456 83.7124 71.9456C83.6997 71.9456 83.6742 71.9456 83.6615 71.9456C83.6488 71.9456 83.6233 71.9456 83.6106 71.9456C83.5978 71.9456 83.5724 71.9456 83.5597 71.9456C83.5469 71.9456 83.5215 71.9456 83.5088 71.9456C83.496 71.9456 83.4706 71.9456 83.4579 71.9456C83.4451 71.9456 83.4197 71.9456 83.407 71.9456C83.3942 71.9456 83.3688 71.9456 83.356 71.9456C83.3433 71.9456 83.3179 71.9456 83.3051 71.9456C83.2924 71.9456 83.267 71.9456 83.2542 71.9456C83.2415 71.9456 83.2161 71.9456 83.2033 71.9456C83.1906 71.9456 83.1651 71.9456 83.1524 71.9456C83.1397 71.9456 83.1142 71.9456 83.1015 71.9456C83.0888 71.9456 83.0633 71.9456 83.0506 71.9456C83.0379 71.9456 83.0124 71.9456 82.9997 71.9456C82.987 71.9456 82.9615 71.9456 82.9488 71.9456C82.9361 71.9456 82.9106 71.9456 82.8979 71.9456C82.8852 71.9456 82.8597 71.9456 82.847 71.9456C82.8343 71.9456 82.8088 71.9456 82.7961 71.9456C82.7834 71.9456 82.7579 71.9456 82.7452 71.9456C82.7325 71.9456 82.707 71.9456 82.6943 71.9456C82.6816 71.9456 82.6561 71.9456 82.6434 71.9456C82.6306 71.9456 82.6052 71.9456 82.5925 71.9456C82.5798 71.9456 82.5543 71.9456 82.5416 71.9456C82.5288 71.9456 82.5034 71.9456 82.4907 71.9456C82.4779 71.9456 82.4525 71.9456 82.4398 71.9456C82.427 71.9456 82.4016 71.9456 82.3889 71.9456C82.3761 71.9456 82.3507 71.9456 82.3379 71.9456C82.3252 71.9456 82.2998 71.9456 82.287 71.9456C82.2743 71.9456 82.2489 71.9456 82.2361 71.9456C82.2234 71.9456 82.198 71.9456 82.1852 71.9456C82.1725 71.9456 82.1471 71.9456 82.1343 71.9456C82.1216 71.9456 82.0962 71.9456 82.0834 71.9456C82.0707 71.9456 82.0452 71.9456 82.0325 71.9456C82.0198 71.9456 81.9943 71.9456 81.9816 71.9456C81.9689 71.9456 81.9434 71.9456 81.9307 71.9456C81.918 71.9456 81.8925 71.9456 81.8798 71.9456C81.8671 71.9456 81.8416 71.9456 81.8289 71.9456C81.8162 71.9456 81.7907 71.9456 81.778 71.9456C81.7653 71.9456 81.7398 71.9456 81.7271 71.9456C81.7144 71.9456 81.6889 71.9456 81.6762 71.9456C81.6635 71.9456 81.638 71.9456 81.6253 71.9456C81.6126 71.9456 81.5871 71.9456 81.5744 71.9456C81.5617 71.9456 81.5362 71.9456 81.5235 71.9456C81.5107 71.9456 81.4853 71.9456 81.4726 71.9456C81.4598 71.9456 81.4344 71.9456 81.4217 71.9456C81.4089 71.9456 81.3835 71.9456 81.3708 71.9456C81.358 71.9456 81.3326 71.9456 81.3199 71.9456C81.3071 71.9456 81.2817 71.9456 81.269 71.9456C81.2562 71.9456 81.2308 71.9456 81.218 71.9456C81.2053 71.9456 81.1799 71.9456 81.1671 71.9456C81.1544 71.9456 81.129 71.9456 81.1162 71.9456C81.1035 71.9456 81.0781 71.9456 81.0653 71.9456C81.0526 71.9456 81.0271 71.9456 81.0144 71.9456C81.0017 71.9456 80.9762 71.9456 80.9635 71.9456C80.9508 71.9456 80.9254 71.9456 80.9126 71.9456C80.8999 71.9456 80.8744 71.9456 80.8617 71.9456C80.849 71.9456 80.8235 71.9456 80.8108 71.9456C80.7981 71.9456 80.7726 71.9456 80.7599 71.9456C80.7472 71.9456 80.7217 71.9456 80.709 71.9456C80.6963 71.9456 80.6708 71.9456 80.6581 71.9456C80.6454 71.9456 80.6199 71.9456 80.6072 71.9456C80.5945 71.9456 80.569 71.9456 80.5563 71.9456C80.5436 71.9456 80.5181 71.9456 80.5054 71.9456C80.4926 71.9456 80.4672 71.9456 80.4545 71.9456C80.4418 71.9456 80.4163 71.9456 80.4036 71.9456C80.3908 71.9456 80.3654 71.9456 80.3527 71.9456C80.3399 71.9456 80.3145 71.9456 80.3018 71.9456C80.289 71.9456 80.2636 71.9456 80.2509 71.9456C80.2381 71.9456 80.2127 71.9456 80.1999 71.9456C80.1872 71.9456 80.1618 71.9456 80.149 71.9456C80.1363 71.9456 80.1109 71.9456 80.0981 71.9456C80.0854 71.9456 80.06 71.9456 80.0472 71.9456C80.0345 71.9456 80.0091 71.9456 79.9963 71.9456C79.9836 71.9456 79.9582 71.9456 79.9454 71.9456C79.9327 71.9456 79.9072 71.9456 79.8945 71.9456C79.8818 71.9456 79.8563 71.9456 79.8436 71.9456C79.8309 71.9456 79.8054 71.9456 79.7927 71.9456C79.78 71.9456 79.7545 71.9456 79.7418 71.9456C79.7291 71.9456 79.7036 71.9456 79.6909 71.9456C79.6782 71.9456 79.6527 71.9456 79.64 71.9456C79.6273 71.9456 79.6018 71.9456 79.5891 71.9456C79.5764 71.9456 79.5509 71.9456 79.5382 71.9456C79.5255 71.9456 79.5 71.9456 79.4873 71.9456C79.4746 71.9456 79.4491 71.9456 79.4364 71.9456C79.4237 71.9456 79.3982 71.9456 79.3855 71.9456C79.3727 71.9456 79.3473 71.9456 79.3346 71.9456C79.3218 71.9456 79.2964 71.9456 79.2837 71.9456C79.2709 71.9456 79.2455 71.9456 79.2328 71.9456C79.22 71.9456 79.1946 71.9456 79.1819 71.9456C79.1691 71.9456 79.1437 71.9456 79.131 71.9456C79.1182 71.9456 79.0928 71.9456 79.08 71.9456C79.0673 71.9456 79.0419 71.9456 79.0291 71.9456C79.0164 71.9456 78.991 71.9456 78.9782 71.9456C78.9655 71.9456 78.9401 71.9456 78.9273 71.9456C78.9146 71.9456 78.8891 71.9456 78.8764 71.9456C78.8637 71.9456 78.8382 71.9456 78.8255 71.9456C78.8128 71.9456 78.7873 71.9456 78.7746 71.9456C78.7619 71.9456 78.7364 71.9456 78.7237 71.9456C78.711 71.9456 78.6855 71.9456 78.6728 71.9456C78.6601 71.9456 78.6346 71.9456 78.6219 71.9456C78.6092 71.9456 78.5837 71.9456 78.571 71.9456C78.5583 71.9456 78.5328 71.9456 78.5201 71.9456C78.5074 71.9456 78.4819 71.9456 78.4692 71.9456C78.4565 71.9456 78.431 71.9456 78.4183 71.9456C78.4056 71.9456 78.3801 71.9456 78.3674 71.9456C78.3547 71.9456 78.3292 71.9456 78.3165 71.9456C78.3038 71.9456 78.2783 71.9456 78.2656 71.9456C78.2528 71.9456 78.2274 71.9456 78.2147 71.9456C78.2019 71.9456 78.1765 71.9456 78.1638 71.9456C78.151 71.9456 78.1256 71.9456 78.1129 71.9456C78.1001 71.9456 78.0747 71.9456 78.0619 71.9456C78.0492 71.9456 78.0238 71.9456 78.011 71.9456C77.9983 71.9456 77.9729 71.9456 77.9601 71.9456C77.9474 71.9456 77.922 71.9456 77.9092 71.9456C77.8965 71.9456 77.8711 71.9456 77.8583 71.9456C77.8456 71.9456 77.8202 71.9456 77.8074 71.9456C77.7947 71.9456 77.7692 71.9456 77.7565 71.9456C77.7438 71.9456 77.7183 71.9456 77.7056 71.9456C77.6929 71.9456 77.6674 71.9456 77.6547 71.9456C77.642 71.9456 77.6165 71.9456 77.6038 71.9456C77.5911 71.9456 77.5656 71.9456 77.5529 71.9456C77.5402 71.9456 77.5147 71.9456 77.502 71.9456C77.4893 71.9456 77.4638 71.9456 77.4511 71.9456C77.4384 71.9456 77.4129 71.9456 77.4002 71.9456C77.3875 71.9456 77.362 71.9456 77.3493 71.9456C77.3366 71.9456 77.3111 71.9456 77.2984 71.9456C77.2857 71.9456 77.2602 71.9456 77.2475 71.9456C77.2347 71.9456 77.2093 71.9456 77.1966 71.9456C77.1838 71.9456 77.1584 71.9456 77.1457 71.9456C77.1329 71.9456 77.1075 71.9456 77.0948 71.9456C77.082 71.9456 77.0566 71.9456 77.0439 71.9456C77.0311 71.9456 77.0057 71.9456 76.993 71.9456C76.9802 71.9456 76.9548 71.9456 76.942 71.9456C76.9293 71.9456 76.9039 71.9456 76.8911 71.9456C76.8784 71.9456 76.853 71.9456 76.8402 71.9456C76.8275 71.9456 76.8021 71.9456 76.7893 71.9456C76.7766 71.9456 76.7511 71.9456 76.7384 71.9456C76.7257 71.9456 76.7002 71.9456 76.6875 71.9456C76.6748 71.9456 76.6493 71.9456 76.6366 71.9456C76.6239 71.9456 76.5984 71.9456 76.5857 71.9456C76.573 71.9456 76.5475 71.9456 76.5348 71.9456C76.5221 71.9456 76.4966 71.9456 76.4839 71.9456C76.4712 71.9456 76.4457 71.9456 76.433 71.9456C75.0077 71.6274 73.4423 72.0346 72.3733 73.2055C56.7328 90.1567 41.3978 96.3799 35.0092 98.3906C33.1385 98.976 31.904 100.732 32.0059 102.692C32.4258 110.888 33.7239 119.071 35.8364 126.999C38.8653 138.376 43.7521 149.499 51.4006 158.56C54.8748 162.671 58.909 166.298 63.4141 169.237C65.8066 170.79 68.3264 172.152 70.9353 173.297C74.435 174.837 78.6983 175.6 82.4907 176.097C86.7667 176.644 89.0956 175.18 92.8498 173.272C95.7895 171.783 98.5766 170.014 101.185 168.003C106.123 164.185 110.348 159.502 113.835 154.335C120.211 144.892 124.169 133.973 126.561 122.889C127.91 116.64 128.789 110.277 129.107 103.901C129.209 101.954 127.949 100.198 126.078 99.6505L126.485 98.3906Z" fill="#04103D"/>
<path d="M129.525 102.641C128.863 115.558 123.926 161.385 87.3251 174.722C86.3961 175.053 85.3653 175.053 84.4363 174.722C47.8739 161.411 42.9107 115.66 42.2362 102.692C42.1344 100.732 43.3688 98.9758 45.2396 98.3904C51.6281 96.3924 66.9632 90.1566 82.6037 73.2053C84.3217 71.3473 87.2997 71.3982 88.9541 73.3198C94.579 79.8356 107.738 92.9054 126.496 98.3904C128.367 98.9376 129.627 100.694 129.525 102.641Z" fill="#3DE297"/>
<path d="M85.8748 162.021C75.0702 157.16 66.8109 147.755 61.3005 133.998C57.4317 124.326 55.7391 114.527 55.0137 107.922C62.9422 104.652 74.0012 98.6067 85.5821 87.6876C92.6451 94.5598 103.157 102.832 116.71 108.075C115.972 114.68 114.28 124.377 110.449 133.96C104.939 147.743 96.6793 157.173 85.862 162.034L85.8748 162.021Z" fill="white"/>
<path d="M95.2059 119.567H77.9619V110.951C77.9619 106.192 81.8307 102.336 86.5776 102.336C91.3244 102.336 95.1932 106.205 95.1932 110.951V119.567H95.2059ZM78.5728 118.956H94.6078V110.939C94.6078 106.523 91.0063 102.921 86.5903 102.921C82.1743 102.921 78.5728 106.523 78.5728 110.939V118.956Z" fill="#04103D"/>
<path d="M96.174 116.411H73.0759C71.6702 116.411 70.5307 117.551 70.5307 118.956V137.855C70.5307 139.26 71.6702 140.4 73.0759 140.4H96.174C97.5797 140.4 98.7192 139.26 98.7192 137.855V118.956C98.7192 117.551 97.5797 116.411 96.174 116.411Z" fill="#04103D"/>
<path d="M99.4056 116.411H76.3075C74.9018 116.411 73.7623 117.551 73.7623 118.956V137.855C73.7623 139.26 74.9018 140.4 76.3075 140.4H99.4056C100.811 140.4 101.951 139.26 101.951 137.855V118.956C101.951 117.551 100.811 116.411 99.4056 116.411Z" fill="#EFF0F6"/>
<path d="M90.9565 131.822L90.3457 129.29C90.2439 128.895 90.3075 128.475 90.5366 128.144C91.0329 127.419 91.2365 126.49 90.9947 125.497C90.7147 124.403 89.8239 123.499 88.7295 123.207C86.5787 122.659 84.6443 124.263 84.6443 126.325C84.6443 126.999 84.8607 127.635 85.217 128.157C85.4461 128.488 85.4843 128.895 85.3952 129.29L84.7843 131.822C84.6571 132.357 85.0643 132.878 85.6115 132.878H90.1421C90.702 132.878 91.1093 132.357 90.9693 131.822H90.9565Z" fill="#04103D"/>
<path d="M427.3 330.341C443 324.341 441.5 319.841 436 320.336C429.926 320.881 428 320.336 428 320.336L427.3 330.341Z" fill="#1C1C1C"/>
<path fill-rule="evenodd" clip-rule="evenodd" d="M414 305.841C414.667 299.008 426.5 254.841 426.5 254.841C444.167 251.675 480.3 249.541 477.5 262.341C475.462 271.66 478.903 283.779 489.489 275.577C496.72 269.975 508.5 266.841 511.5 277.841C514.417 288.536 501 304.341 492 305.841C489.833 306.175 490 306.341 483.5 306.841C479 307.187 484.5 311.841 492 311.341V335.341C494 348.341 490.1 377.007 459 375.341C431 373.841 427.3 350.341 427.3 338.341V330.341C443 324.341 441.5 319.841 436 320.336C429.926 320.881 428 320.336 428 320.336C416.106 319.249 413.495 311.016 414 305.841Z" fill="white"/>
<path d="M492 305.841C489.833 306.175 490 306.341 483.5 306.841C479 307.187 484.5 311.841 492 311.341V305.841Z" fill="#1C1C1C"/>
<path d="M492 305.841C501 304.341 514.417 288.536 511.5 277.841C508.5 266.841 496.72 269.975 489.489 275.577C478.903 283.779 475.462 271.66 477.5 262.341C480.3 249.541 444.167 251.675 426.5 254.841C426.5 254.841 414.667 299.008 414 305.841C413.495 311.016 416.106 319.249 428 320.336M492 305.841C489.833 306.175 490 306.341 483.5 306.841C479 307.187 484.5 311.841 492 311.341M492 305.841V311.341M427.3 330.341V338.341C427.3 350.341 431 373.841 459 375.341C490.1 377.007 494 348.341 492 335.341V311.341M427.3 330.341C443 324.341 441.5 319.841 436 320.336C429.926 320.881 428 320.336 428 320.336M427.3 330.341L428 320.336" stroke="#1C1C1C" stroke-width="2" stroke-linejoin="round"/>
<path d="M425.983 227.451C425.983 222.169 430.455 217.887 435.972 217.887C442.578 217.412 468.437 220.404 485.918 237.016C488.914 239.863 490.857 246.133 490.912 249.6C491.034 257.205 491.025 264.604 490.912 272.265C490.912 273.341 489.209 278.335 486.832 280.165C484.465 281.988 480.524 282.777 477.427 280.165C475.179 278.269 475.429 275.22 475.429 272.265C475.429 264.776 474.866 256.907 464.94 258.157C455.351 259.365 433.641 258.661 423.985 258.157C416.261 258.157 410 252.072 410 244.566C410 237.06 416.261 230.975 423.985 230.975C424.95 230.975 425.892 231.07 426.802 231.251C426.275 230.086 425.983 228.802 425.983 227.451Z" fill="#1C1C1C"/>
<rect x="455.22" y="279.474" width="3.62514" height="5.94951" rx="1.81257" transform="rotate(18.5052 455.22 279.474)" fill="#1C1C1C" stroke="#1C1C1C"/>
<rect x="433.521" y="272.474" width="3.62514" height="5.94951" rx="1.81257" transform="rotate(18.5052 433.521 272.474)" fill="#1C1C1C" stroke="#1C1C1C"/>
<path d="M429.5 267.341C432.5 266.675 439.8 266.541 445 271.341" stroke="#1C1C1C" stroke-width="2" stroke-linecap="round"/>
<path d="M450 274.18C453 273.513 460.3 273.38 465.5 278.18" stroke="#1C1C1C" stroke-width="2" stroke-linecap="round"/>
<path d="M491.895 290.408C493.022 287.548 496.997 281.425 503.886 279.803" stroke="#1C1C1C" stroke-width="2" stroke-linecap="round"/>
<path d="M497.702 283.16C499.117 283.548 500 285.341 500 290.667" stroke="#1C1C1C" stroke-width="2" stroke-linecap="round"/>
<path d="M444.5 276.841C442.167 280.675 437.5 287.341 435 288.341C436.833 288.841 439.8 290.241 441 291.841" stroke="#1C1C1C" stroke-width="2" stroke-linecap="round" stroke-linejoin="round"/>
<path d="M437.5 297.341C439 298.675 442.9 300.141 446.5 295.341" stroke="#1C1C1C" stroke-width="2" stroke-linecap="round"/>
<circle cx="77.5" cy="359.341" r="2.5" stroke="#04103D" stroke-width="2"/>
<path d="M103.12 386.253C98.5898 376.009 85.38 367.559 74.9573 371.669C72.8193 372.509 70.7704 373.705 68.4924 373.973C65.349 374.342 62.2184 372.865 59.8386 370.766C57.4588 368.666 55.6898 365.993 53.8318 363.423C49.0595 356.818 43.0782 350.416 35.1625 348.444C25.6306 346.064 15.3096 350.989 9.23921 358.714C3.16882 366.439 0.725393 376.454 0 386.253H103.133H103.12Z" fill="#B3B7C7"/>
<circle cx="23" cy="386.841" r="4" stroke="#04103D" stroke-width="2"/>
<path d="M427 336.341C426.667 348.841 432.797 370.841 458 370.841C484.5 370.841 491.5 355.841 492 336.341C495.366 336.928 498.56 337.382 502.5 337.653C514.367 338.471 528.46 337.634 542.5 333.781C565.174 327.56 587.709 313.476 600.5 285.803C602.888 280.635 604.937 274.994 606.584 268.841C608.416 261.992 609.751 254.509 610.5 246.341L625.5 239.294L674.5 216.274L685 211.341C687.719 225.323 688.929 243.496 686.938 263.341C686.474 267.973 685.835 272.695 685 277.476C682.289 293.006 677.512 309.16 669.932 324.841C669.93 324.844 669.929 324.847 669.928 324.85C664.915 335.218 658.677 345.38 651 355.019C644.901 362.676 637.894 370.004 629.873 376.841C621.288 384.159 611.541 390.917 600.5 396.919C586.375 404.599 570.133 411.042 551.5 415.841V426.841V453.841V468.341V507.841H542H480H433H405H386H367H358H329H291C292.429 498.748 294.256 486.996 296.206 474.341C297.656 464.933 299.174 455.025 300.646 445.341C301.911 437.024 303.142 428.872 304.269 421.341C304.735 418.224 305.183 415.213 305.609 412.341C307.543 399.276 309 389.091 309.5 384.841C310.702 374.628 317.858 359.904 330.319 349.341C338.6 342.322 349.224 337.14 362 336.341C364.641 336.176 367.315 336.038 370 335.924C376.375 335.653 382.81 335.516 389 335.473C400.322 335.395 410.826 335.629 418.653 335.924C422.215 336.058 424.723 336.205 427 336.341Z" fill="#3DE297"/>
<path d="M551.5 415.841V426.841M551.5 415.841C570.133 411.042 586.375 404.599 600.5 396.919M551.5 415.841C533.5 418.641 524 417.008 521.5 415.841M551.5 415.841C556.5 391.293 583.4 344.761 651 355.019M296.206 474.341C294.256 486.996 292.429 498.748 291 507.841H329M296.206 474.341C312.137 473.175 348.6 478.241 367 507.841M296.206 474.341C297.656 464.933 299.174 455.025 300.646 445.341M367 507.841H358M367 507.841H386M304.269 421.341C316.679 431.841 339 463.841 329 507.841M304.269 421.341C304.735 418.224 305.183 415.213 305.609 412.341M304.269 421.341C303.142 428.872 301.911 437.024 300.646 445.341M329 507.841H358M370 335.924C367.315 336.038 364.641 336.176 362 336.341C349.224 337.14 338.6 342.322 330.319 349.341M370 335.924C373.572 357.396 365.696 402.741 305.609 412.341M370 335.924C376.375 335.653 382.81 335.516 389 335.473M305.609 412.341C307.543 399.276 309 389.091 309.5 384.841C310.702 374.628 317.858 359.904 330.319 349.341M330.319 349.341C332.379 358.175 343.2 377.341 370 383.341C403.5 390.841 409.5 438.735 384.5 447.341C359.5 455.948 346 448.341 336 445.341C326 442.341 310.793 441.341 300.646 445.341M365.5 426.841C362.667 445.341 357.2 487.441 358 507.841M389 335.473C392.167 354.263 407.8 395.941 445 412.341C491.5 432.841 490 448.841 481.5 464.341C473 479.841 429.5 489.841 433 507.841M389 335.473C400.322 335.395 410.826 335.629 418.653 335.924M433 507.841H405M433 507.841H480M418.653 335.924C422.215 336.058 424.723 336.205 427 336.341C426.667 348.841 432.797 370.841 458 370.841C484.5 370.841 491.5 355.841 492 336.341C495.366 336.928 498.56 337.382 502.5 337.653M418.653 335.924C418.51 346.301 421.721 360.991 433 371.575M502.5 337.653C502.755 341.379 501.581 353.171 495.077 363.841M502.5 337.653C514.367 338.471 528.46 337.634 542.5 333.781M433 371.575C438.901 377.112 451.009 381.841 462 381.841C464.464 381.841 466.795 381.696 469 381.421M433 371.575C402.833 392.83 355 451.841 405 507.841M405 507.841H386M386 507.841C391 453.841 488.5 401.841 542 507.841M542 507.841H551.5V468.341M542 507.841H480M480 507.841C487.5 493.508 512.3 465.541 551.5 468.341M551.5 468.341V453.841M469 381.421C464.5 400.841 495.1 440.841 551.5 426.841M469 381.421C482.5 378.841 489.603 372.821 495.077 363.841M551.5 426.841V453.841M495.077 363.841C505.385 363.175 531.5 357.841 551.5 353.841C571.5 349.841 610.5 366.841 600.5 396.919M600.5 396.919C611.541 390.917 621.288 384.159 629.873 376.841M521.5 341.341C523.974 348.008 524.039 365.541 510.5 388.341C493.577 416.841 510 453.841 551.5 453.841M651 355.019C644.901 362.676 637.894 370.004 629.873 376.841M651 355.019C658.679 345.378 664.918 335.213 669.932 324.841M542.5 333.781C565.174 327.56 587.709 313.476 600.5 285.803M542.5 333.781C563 356.841 621.3 341.372 600.5 285.803M600.5 285.803C602.888 280.635 604.937 274.994 606.584 268.841M606.584 268.841C608.416 261.992 609.751 254.509 610.5 246.341L625.5 239.294M606.584 268.841C630.222 275.13 676.9 273.421 674.5 216.274M674.5 216.274L685 211.341C687.719 225.323 688.929 243.496 686.938 263.341M674.5 216.274L625.5 239.294M651 230.841C655.792 240.841 669.689 261.341 686.938 263.341M686.938 263.341C686.474 267.973 685.835 272.695 685 277.476M629.873 376.841C629.415 353.098 639.8 299.984 685 277.476M685 277.476C682.289 293.006 677.512 309.16 669.932 324.841M625.5 239.294C630.5 245.83 637.5 266.389 625.5 296.341C610.5 333.781 668.363 328.179 669.932 324.841" stroke="#1C1C1C" stroke-width="2"/>
<path d="M436.466 50.5319L330.072 37.5824C326.709 37.1731 323.651 39.5675 323.241 42.9304L315.741 104.554C315.332 107.917 317.726 110.975 321.089 111.384L427.484 124.334C430.847 124.743 433.905 122.349 434.314 118.986L441.814 57.3621C442.224 53.9992 439.829 50.9412 436.466 50.5319Z" fill="#3DE297"/>
<path d="M348.335 83.458L332.19 81.4929C330.813 81.3253 329.837 80.0783 330.004 78.7013C330.172 77.3243 331.419 76.348 332.796 76.5155L348.941 78.4806C350.318 78.6482 351.294 79.8952 351.127 81.2722C350.959 82.6492 349.712 83.6256 348.335 83.458Z" fill="#0D76E9"/>
<path d="M394.801 98.8949L331.017 91.1317C329.64 90.9641 328.663 89.7171 328.831 88.3401C328.999 86.9631 330.246 85.9867 331.623 86.1543L395.407 93.9176C396.784 94.0851 397.76 95.3322 397.592 96.7091C397.425 98.0861 396.178 99.0625 394.801 98.8949Z" fill="white"/>
<path d="M361.472 104.556L329.851 100.708C328.474 100.54 327.498 99.2932 327.665 97.9162C327.833 96.5392 329.08 95.5628 330.457 95.7304L362.077 99.5789C363.454 99.7465 364.431 100.994 364.263 102.371C364.096 103.748 362.849 104.724 361.472 104.556Z" fill="white"/>
<path d="M373.614 86.5347L357.469 84.5697C356.092 84.4021 355.115 83.1551 355.283 81.7781C355.451 80.4011 356.698 79.4247 358.075 79.5923L374.22 81.5573C375.596 81.7249 376.573 82.972 376.405 84.3489C376.238 85.7259 374.991 86.7023 373.614 86.5347Z" fill="#0D76E9"/>
<path d="M398.891 89.6112L382.746 87.6461C381.369 87.4785 380.392 86.2315 380.56 84.8545C380.727 83.4775 381.974 82.5012 383.351 82.6687L399.496 84.6338C400.873 84.8014 401.85 86.0484 401.682 87.4254C401.515 88.8024 400.268 89.7788 398.891 89.6112Z" fill="#0D76E9"/>
<path d="M424.169 92.6879L408.024 90.7229C406.647 90.5553 405.671 89.3083 405.839 87.9313C406.006 86.5543 407.253 85.5779 408.63 85.7455L424.775 87.7105C426.152 87.8781 427.128 89.1252 426.961 90.5021C426.793 91.8791 425.546 92.8555 424.169 92.6879Z" fill="#0D76E9"/>
<path d="M423.044 64.9622C419.633 64.5471 416.53 66.9769 416.114 70.3878C415.699 73.7987 418.129 76.9021 421.54 77.3172C424.951 77.7324 428.054 75.3025 428.469 71.8916C428.885 68.4807 426.455 65.3773 423.044 64.9622Z" fill="#04103D"/>
<path d="M353.978 50.9916L342.937 49.6478C338.01 49.0481 333.532 52.5543 332.932 57.4811C332.333 62.408 335.839 66.8859 340.766 67.4855L351.807 68.8294C356.734 69.429 361.212 65.9229 361.811 60.996C362.411 56.0692 358.905 51.5913 353.978 50.9916Z" fill="#1C1C1C"/>
<path d="M351.054 61.7966L351.529 57.5597C351.772 55.3947 350.214 53.4436 348.049 53.2008C345.884 52.958 343.933 54.5155 343.69 56.6805L343.215 60.9174C342.972 63.0824 344.53 65.0335 346.695 65.2764C348.86 65.5192 350.811 63.9617 351.054 61.7966Z" fill="#1C1C1C" stroke="#3DE297"/>
<line x1="351.058" y1="58.3447" x2="362.163" y2="59.6472" stroke="#3DE297"/>
<line x1="351.151" y1="62.3437" x2="362.255" y2="63.6462" stroke="#3DE297"/>
<path d="M455 12.3413C450.2 8.74131 451.266 3.67464 452.899 2.34131C454.895 3.76102 457.151 6.35432 459.344 9.34131C459.22 10.5413 456.396 11.8413 455 12.3413Z" fill="white"/>
<path d="M686 217.841C672.5 110.341 550.5 86.8413 539 81.8413C527.5 76.8413 509.599 58.4662 498.5 42.8413C492.351 34.1857 487.242 25.4334 483.5 18.4657C479.02 10.125 476.5 4.34133 476.5 4.34133C476.5 4.34133 459.11 1.91479 469.067 24.3413C467.172 20.7307 462.801 14.0474 459.344 9.34131C459.22 10.5413 456.396 11.8413 455 12.3413C450.2 8.74131 451.266 3.67464 452.899 2.34131C452.233 1.86774 451.596 1.52475 451 1.34129C445.718 -0.283774 438.786 4.03304 442.006 11.3413C441.705 10.9263 441.368 10.4889 441 10.0405C437.8 14.1999 435.333 14.6408 434.5 14.3413C427.7 8.74131 430.333 4.72199 432.5 3.41233C429.72 2.44836 426.861 2.80598 424.5 5.84131C417.5 14.8413 442.006 30.3413 442.006 39.8413C438.596 38.6144 430.725 36.5847 422.5 36.5429C422.5 40.3042 421.833 42.3091 421.5 42.8413C413.9 45.2413 412 40.6789 412 38.0977C403.407 41.564 401.34 50.4301 412 53.8414C424.5 57.8413 450.5 49.3413 471.5 90.8413C492.5 132.341 423 112.341 413.5 115.341C406.354 117.598 401.98 128.229 412 134.721C412.5 132.261 415.8 128.341 425 132.341L423.5 138.829C424.604 139.027 425.77 139.199 427 139.341C461.5 143.341 607.5 157.841 610.5 245.341L686 217.841Z" fill="white"/>
<path d="M417 36.8413C415.16 37.0621 413.483 37.4995 412 38.0977C412 40.6789 413.9 45.2413 421.5 42.8413C421.833 42.3091 422.5 40.3042 422.5 36.5429C420.669 36.5336 418.821 36.6228 417 36.8413Z" fill="white"/>
<path d="M432.5 3.41233C430.333 4.72199 427.7 8.74131 434.5 14.3413C435.333 14.6408 437.8 14.1999 441 10.0405C438.888 7.46899 435.748 4.53861 432.5 3.41233Z" fill="white"/>
<path d="M425 132.341C415.8 128.341 412.5 132.261 412 134.721C414.707 136.475 418.464 137.926 423.5 138.829L425 132.341Z" fill="white"/>
<path d="M476.5 4.34133C476.5 4.34133 455 1.34131 473.5 32.8413L487.5 53.8414M476.5 4.34133C476.5 4.34133 479.02 10.125 483.5 18.4657M476.5 4.34133C476.5 4.34133 459.11 1.91479 469.067 24.3413C467.172 20.7307 462.801 14.0474 459.344 9.34131M478.5 9.34131C476.833 10.508 474.6 14.2413 479 19.8413C479.833 20.0909 481.9 20.1653 483.5 18.4657M483.5 18.4657C487.242 25.4334 492.351 34.1857 498.5 42.8413C509.599 58.4662 527.5 76.8413 539 81.8413C550.5 86.8413 672.5 110.341 686 217.841L610.5 245.341C607.5 157.841 461.5 143.341 427 139.341C425.77 139.199 424.604 139.027 423.5 138.829M482 61.3413C469.5 55.3413 456.5 27.3413 446 16.8413C444.031 14.8729 442.748 13.0275 442.006 11.3413M452.899 2.34131C452.233 1.86774 451.596 1.52475 451 1.34129C445.718 -0.283774 438.786 4.03304 442.006 11.3413M452.899 2.34131C451.266 3.67464 450.2 8.74131 455 12.3413C456.396 11.8413 459.22 10.5413 459.344 9.34131M452.899 2.34131C454.895 3.76102 457.151 6.35432 459.344 9.34131M442.006 11.3413C441.705 10.9263 441.368 10.4889 441 10.0405M432.5 3.41233C429.72 2.44836 426.861 2.80598 424.5 5.84131C417.5 14.8413 442.006 30.3413 442.006 39.8413C438.596 38.6144 430.725 36.5847 422.5 36.5429M432.5 3.41233C430.333 4.72199 427.7 8.74131 434.5 14.3413C435.333 14.6408 437.8 14.1999 441 10.0405M432.5 3.41233C435.748 4.53861 438.888 7.46899 441 10.0405M412 38.0977C413.483 37.4995 415.16 37.0621 417 36.8413C418.821 36.6228 420.669 36.5336 422.5 36.5429M412 38.0977C403.407 41.564 401.34 50.4301 412 53.8414C424.5 57.8413 450.5 49.3413 471.5 90.8413C492.5 132.341 423 112.341 413.5 115.341C406.354 117.598 401.98 128.229 412 134.721M412 38.0977C412 40.6789 413.9 45.2413 421.5 42.8413C421.833 42.3091 422.5 40.3042 422.5 36.5429M412 134.721C412.5 132.261 415.8 128.341 425 132.341L423.5 138.829M412 134.721C414.707 136.475 418.464 137.926 423.5 138.829" stroke="#1C1C1C" stroke-width="2" stroke-linecap="round" stroke-linejoin="round"/>
<circle cx="2.39221" cy="2.39221" r="1.70872" transform="matrix(-1 0 0 1 589.784 71.8413)" stroke="#04103D" stroke-width="1.36698"/>
<path d="M536.019 111.467C542.828 96.0699 562.681 83.37 578.346 89.5478C581.559 90.8101 584.638 92.608 588.062 93.0097C592.786 93.5643 597.491 91.3457 601.068 88.1898C604.644 85.034 607.303 81.0174 610.096 77.1539C617.268 67.2273 626.257 57.6068 638.154 54.6422C652.48 51.0656 667.991 58.4675 677.114 70.0772C686.238 81.6869 689.91 96.7393 691 111.467H536H536.019Z" fill="#B3B7C7"/>
<circle cx="5.50287" cy="5.50287" r="4.4023" transform="matrix(-1 0 0 1 661.936 104.836)" stroke="#04103D" stroke-width="2.20115"/>
</svg>
