<svg viewBox="0 0 18 18" fill="none" xmlns="http://www.w3.org/2000/svg">
<path d="M0.75 16.5H17.25" stroke-width="1.5" stroke-miterlimit="10" stroke-linecap="round" stroke-linejoin="round"/>
<path d="M14.835 16.5075V13.1625" stroke-width="1.5" stroke-miterlimit="10" stroke-linecap="round" stroke-linejoin="round"/>
<path d="M14.85 8.16748C13.935 8.16748 13.2 8.90249 13.2 9.81749V11.52C13.2 12.435 13.935 13.17 14.85 13.17C15.765 13.17 16.5 12.435 16.5 11.52V9.81749C16.5 8.90249 15.765 8.16748 14.85 8.16748Z" stroke-width="1.5" stroke-miterlimit="10" stroke-linecap="round" stroke-linejoin="round"/>
<path d="M1.57498 16.5V4.52252C1.57498 3.01502 2.32502 2.25751 3.81752 2.25751H8.49001C9.98251 2.25751 10.725 3.01502 10.725 4.52252V16.5" stroke-width="1.5" stroke-miterlimit="10" stroke-linecap="round" stroke-linejoin="round"/>
<path d="M4.34998 6.1875H8.06248" stroke-width="1.5" stroke-miterlimit="10" stroke-linecap="round" stroke-linejoin="round"/>
<path d="M4.34998 9H8.06248" stroke-width="1.5" stroke-miterlimit="10" stroke-linecap="round" stroke-linejoin="round"/>
<path d="M6.1875 16.5V13.6875" stroke-width="1.5" stroke-miterlimit="10" stroke-linecap="round" stroke-linejoin="round"/>
</svg>
