<svg viewBox="0 0 439 257" fill="none" xmlns="http://www.w3.org/2000/svg">
<g clip-path="url(#clip0_11122_48968)">
<path d="M382.374 59.0286C391.136 66.809 400.082 74.4192 410.042 80.2012C411.38 80.9851 411.657 82.7475 410.618 83.8205C404.494 90.0206 395.793 94.3611 384.741 90.2835C377.749 87.7032 370.753 81.7655 363.81 75.451C362.849 74.5777 361.89 73.6972 360.932 72.818C355.002 67.3747 349.127 61.9823 343.418 58.6749L343.167 59.1075L343.418 58.6748C337.326 55.1466 331.68 54.955 326.261 54.7712C325.826 54.7564 325.391 54.7417 324.958 54.7253C319.143 54.5048 313.527 53.9882 307.552 49.1571L307.524 49.1346L307.494 49.1163C307.09 48.8756 306.916 48.5369 306.92 48.0532C306.924 47.5292 307.142 46.8423 307.58 46.0112C308.451 44.3579 310.081 42.3403 311.988 40.2933C315.693 36.3144 320.327 32.3449 322.047 30.9551C332.543 30.5781 345.09 30.8415 354.263 36.0199C354.282 36.0774 354.31 36.1291 354.342 36.1731C354.413 36.2696 354.502 36.3292 354.559 36.363C354.678 36.434 354.843 36.499 355.046 36.5667C355.235 36.6301 355.485 36.7044 355.811 36.7934C363.747 42.393 371.179 49.0327 378.66 55.7174C379.896 56.8214 381.133 57.9266 382.374 59.0286Z" fill="white" stroke="#1C1C1C"/>
<path d="M339.077 99.8247L339.077 99.8246C335.8 95.7687 332.957 91.7534 330.2 87.8591C329.505 86.8783 328.816 85.9052 328.127 84.9411C324.707 80.1559 321.287 75.5978 317.216 71.4795C309.078 63.2486 298.37 56.8117 279.885 53.6785C279.426 53.1294 279.287 52.7313 279.28 52.4613C279.274 52.1973 279.395 51.9593 279.681 51.7232C279.978 51.4787 280.416 51.2711 280.938 51.1005C281.453 50.9319 282.015 50.8102 282.533 50.7198L282.596 50.709L282.653 50.6829C283.474 50.3119 284.25 49.8668 284.998 49.4376C285.197 49.3234 285.394 49.2103 285.59 49.1C286.533 48.5681 287.457 48.0897 288.472 47.7851L288.491 47.7794L288.51 47.7721C305.443 41.1772 316.151 41.4313 324.979 46.6009C329.416 49.1989 333.413 53.058 337.5 57.9957C341.498 62.8268 345.56 68.6626 350.195 75.3218L350.507 75.7705L350.514 75.7805L350.522 75.7902C353.148 79.1951 356.589 82.9648 360.063 86.7707C360.474 87.2216 360.886 87.6729 361.298 88.1242C365.191 92.3976 369.01 96.6686 371.715 100.523L371.716 100.524C372.576 101.748 372.327 103.455 371.153 104.381C362.696 111.009 348.836 111.914 339.077 99.8247Z" fill="white" stroke="#1C1C1C"/>
<path d="M280.201 87.9612C279.622 77.0052 271.757 70.3803 264.195 66.1732C260.699 64.2283 257.237 62.7825 254.547 61.6591C254.322 61.5654 254.103 61.4739 253.89 61.3846C252.496 60.8006 251.369 60.316 250.593 59.8936C250.204 59.6815 249.931 59.5001 249.763 59.3473C249.713 59.3016 249.679 59.2647 249.655 59.2361C250.712 57.6268 252.61 56.2945 255.051 55.1277C257.577 53.9202 260.614 52.9222 263.739 51.9745C264.548 51.7292 265.364 51.4871 266.177 51.2457C268.492 50.5586 270.789 49.8767 272.867 49.1409C275.539 48.1952 277.92 47.1382 279.56 45.8165C279.656 45.8637 279.775 45.9292 279.918 46.0167C280.198 46.1879 280.541 46.4241 280.941 46.7221C281.74 47.3177 282.743 48.144 283.887 49.1511C286.175 51.1641 289.005 53.8824 291.851 56.8815C294.698 59.881 297.554 63.1546 299.897 66.2785C302.223 69.3786 304.015 72.2951 304.81 74.6324V74.6702L304.835 74.7467C307.789 83.6665 306.818 93.5049 304.041 103.848C301.819 112.123 298.459 120.668 295.071 129.283C294.222 131.443 293.371 133.606 292.536 135.771C292.116 136.844 290.897 137.354 289.802 136.91C285.689 135.222 282.704 133.578 280.655 130.928C278.609 128.283 277.443 124.565 277.144 118.614C276.913 114.034 277.787 108.727 278.674 103.358L278.679 103.327C279.558 98.0002 280.447 92.6133 280.201 87.9612ZM280.201 87.9612L279.702 87.9876L280.201 87.9612Z" fill="white" stroke="#1C1C1C"/>
<path d="M132.807 89.9429C48.33 126.441 -9.2787 189.194 -68.0208 255.387L-88.0477 142.574C-24.8543 113.641 32.6786 68.6544 56.1955 48.3664L56.1959 48.366C60.3306 44.7916 68.9741 38.6145 79.8859 32.8186C90.7979 27.0227 103.946 21.6255 117.094 19.5826L117.094 19.5826C137.397 16.422 154.236 13.4026 168.685 10.7618C170.665 10.4 172.6 10.0453 174.492 9.69837C186.415 7.51258 196.662 5.63407 205.935 4.21304C227.411 0.921799 243.621 0.0908118 263.197 3.59267C266.907 4.25784 272.917 5.38173 280.181 6.73983C304.546 11.2956 343.007 18.4869 355.987 19.839C365.056 20.7846 371.919 21.7161 377.889 22.5263C394.39 24.7657 404.065 26.0787 434.607 24.203C435.999 24.1201 437.277 25.0849 437.575 26.44L437.575 26.4411C438.963 32.7024 436.792 38.0267 432.671 41.9643C428.538 45.9148 422.441 48.463 416.048 49.087L416.097 49.5846L416.048 49.087C397.793 50.8736 373.551 49.3786 355.422 47.7624C329.055 45.4044 306.275 45.4537 284.259 53.6535L284.248 53.6575L284.238 53.6621C270.274 59.6131 260.804 63.3694 242.649 65.2896L242.645 65.2901C242.081 65.3539 241.49 65.5112 240.98 65.7635C240.478 66.0124 240.003 66.3792 239.752 66.891C239.487 67.4326 239.512 68.0532 239.861 68.6894C240.198 69.3033 240.837 69.9388 241.817 70.602L241.818 70.6024C246.845 73.9965 257.842 78.8402 268.221 83.0657C278.62 87.2994 288.466 90.9388 291.238 91.9245C302.834 96.0626 311.315 99.7814 316.569 103.633C319.192 105.557 320.977 107.489 321.953 109.49C322.923 111.476 323.112 113.561 322.49 115.839L322.49 115.84C321.509 119.451 319.613 121.381 317.183 122.264C314.712 123.162 311.61 123.005 308.188 122.25C304.774 121.497 301.111 120.166 297.548 118.786C296.769 118.484 295.995 118.18 295.228 117.879C292.505 116.809 289.889 115.781 287.581 115.065C273.569 110.71 262.001 110.044 249.371 109.317L248.455 109.265C235.47 108.515 221.25 107.607 201.953 102.537L201.826 103.021L201.952 102.537C197.53 101.378 192.852 99.2368 187.831 96.8486C187.309 96.6004 186.783 96.3494 186.254 96.0968C181.707 93.9261 176.892 91.6277 171.793 89.7643C160.391 85.5968 147.52 83.5853 132.807 89.9429Z" fill="white" stroke="#1C1C1C"/>
</g>
<defs>
<clipPath id="clip0_11122_48968">
<rect width="527.119" height="255.692" fill="white" transform="translate(-88.6077 0.80249)"/>
</clipPath>
</defs>
</svg>
