<svg viewBox="0 0 514 264" fill="none" xmlns="http://www.w3.org/2000/svg">
<g clip-path="url(#clip0_11122_48976)">
<path d="M154.681 222.726C154.255 211.337 153.831 199.989 154.762 188.42C154.914 188.081 155.024 187.819 155.101 187.616C155.181 187.405 155.236 187.228 155.256 187.085C155.266 187.016 155.274 186.907 155.242 186.79C155.228 186.74 155.207 186.689 155.177 186.641C155.747 183.996 157.84 180.696 160.887 177.048C164.048 173.264 168.169 169.182 172.479 165.179C175.945 161.961 179.524 158.802 182.815 155.898C183.617 155.191 184.401 154.498 185.162 153.824C188.964 150.457 192.213 147.521 194.142 145.398C195.244 145.208 197.559 145.085 200.465 145.093C203.502 145.1 207.138 145.25 210.609 145.6C214.087 145.951 217.369 146.501 219.712 147.297C220.889 147.697 221.786 148.146 222.355 148.631C222.913 149.107 223.101 149.566 223.026 150.036L223.02 150.071L223.02 150.106C222.956 154.079 220.588 157.767 216.888 161.345C213.194 164.918 208.254 168.305 203.195 171.687C202.754 171.982 202.313 172.276 201.871 172.571C197.26 175.647 192.639 178.73 188.933 181.928C184.882 185.424 181.83 189.136 181.131 193.231L181.131 193.231C179.955 200.135 180.357 208.59 180.764 217.132C180.83 218.525 180.896 219.921 180.956 221.312C181.384 231.285 181.467 241.051 178.813 248.525L178.813 248.525C176.708 254.453 173.6 257.619 169.909 259.497C166.35 261.308 162.224 261.939 157.791 262.618C157.578 262.65 157.366 262.683 157.152 262.716L157.149 262.716C155.559 262.97 154.192 261.6 154.35 259.945C155.555 247.771 155.17 235.883 154.73 224.047C154.713 223.607 154.697 223.166 154.681 222.726ZM153.852 259.896C153.666 261.843 155.281 263.521 157.228 263.21C157.451 263.176 157.674 263.142 157.896 263.108C166.931 261.726 175.1 260.477 179.284 248.692C182.354 240.049 181.802 228.437 181.263 217.099C180.857 208.552 180.458 200.16 181.624 193.315C182.902 185.827 192.478 179.438 202.153 172.984C212.708 165.942 223.379 158.823 223.52 150.114L153.852 259.896Z" fill="white" stroke="#1C1C1C"/>
<path d="M248.405 166.332C248.489 166.506 248.54 166.65 248.569 166.764C246.503 169.32 243.2 171.7 239.314 173.947C235.363 176.232 230.857 178.353 226.529 180.374C226.33 180.467 226.132 180.559 225.934 180.651C221.832 182.565 217.913 184.394 214.86 186.174C213.259 187.108 211.877 188.039 210.824 188.976C209.776 189.907 209.009 190.881 208.709 191.912C207.142 197.279 207.685 202.772 208.724 209.145C208.938 210.46 209.174 211.813 209.417 213.212C210.358 218.617 211.419 224.711 211.837 231.947L211.837 231.947C212.793 248.458 201.209 257.655 189.809 258.487L189.807 258.487C188.212 258.611 186.768 257.418 186.573 255.838L186.573 255.837C186.218 253.019 185.788 249.823 185.336 246.46C184.176 237.835 182.868 228.109 182.288 220.819L182.287 220.807L182.286 220.795L182.212 220.229C181.103 211.667 180.13 204.163 179.826 197.497C179.516 190.686 179.906 184.787 181.545 179.566C184.806 169.173 193.064 161.314 211.107 154.392L211.127 154.384L211.147 154.375C212.176 153.875 215.428 152.749 218.754 151.643C221.723 150.655 224.705 149.699 226.099 149.252C226.257 149.201 226.395 149.157 226.51 149.12L226.57 149.101L226.604 149.079C226.615 149.078 226.68 149.068 226.839 149.098C227.048 149.138 227.333 149.232 227.695 149.386C228.415 149.694 229.362 150.21 230.463 150.888C232.662 152.241 235.424 154.205 238.133 156.327C240.841 158.451 243.483 160.723 245.445 162.691C246.428 163.676 247.229 164.575 247.783 165.333C248.06 165.713 248.268 166.047 248.405 166.332Z" fill="white" stroke="#1C1C1C"/>
<path d="M260.397 112.307L260.4 112.303C264.439 105.423 270.053 100.713 276.486 97.1699C303.915 98.7254 335.428 106.696 351.908 128.331C347.188 129.102 341.358 131.01 335.847 133.476C330.009 136.088 324.476 139.35 320.971 142.603C318.408 144.981 315.969 147.44 313.547 149.883C312.044 151.4 310.547 152.91 309.03 154.39C305.056 158.269 300.908 161.983 296.038 165.209C287.075 171.144 276.884 173.915 267.83 176.378C266.099 176.848 264.41 177.308 262.779 177.776C257.722 179.227 253.2 180.769 249.8 183.017C246.375 185.282 244.067 188.277 243.485 192.606C243.446 192.899 243.405 193.177 243.367 193.44C243.293 193.947 243.227 194.4 243.193 194.798C243.139 195.42 243.155 195.985 243.347 196.553C243.723 197.667 244.739 198.653 246.738 200.212L246.739 200.212C247.171 200.548 247.672 200.921 248.221 201.328C249.253 202.094 250.455 202.987 251.688 204.003C253.564 205.551 255.442 207.332 256.738 209.251L256.738 209.251C259.464 213.279 260.496 216.925 260.257 220.522C260.016 224.135 258.49 227.759 255.984 231.734L255.981 231.737C255.32 232.806 253.917 233.123 252.872 232.432L252.872 232.432C248.627 229.628 244.349 227.102 240.26 224.689C239.398 224.18 238.545 223.677 237.703 223.177C232.854 220.298 228.354 217.533 224.555 214.567C216.97 208.648 212.245 201.987 213.124 192.117C213.36 189.487 214.514 185.994 216.187 182.177C217.854 178.372 220.018 174.287 222.238 170.489C224.457 166.691 226.728 163.187 228.609 160.545C229.549 159.223 230.388 158.122 231.071 157.31C231.413 156.903 231.711 156.573 231.961 156.326C232.095 156.194 232.208 156.092 232.299 156.017C233.811 156.752 235.713 157.227 237.823 157.556C240.066 157.907 242.582 158.1 245.173 158.255L245.624 158.282L245.696 157.836C248.219 142.304 252.659 125.19 260.397 112.307Z" fill="white" stroke="#1C1C1C"/>
<path d="M116.604 197.871L116.604 197.871C115.75 195.745 115.556 193.981 116.015 192.36C116.477 190.732 117.62 189.17 119.598 187.496C123.576 184.131 130.72 180.48 141.69 175.02C152.235 169.784 158.528 165.365 163.555 161.427C164.869 160.398 166.091 159.406 167.277 158.444C170.638 155.718 173.704 153.23 177.719 150.812L177.72 150.812C178.528 150.324 179.1 149.756 179.409 149.162C179.721 148.561 179.769 147.915 179.479 147.357C179.193 146.807 178.63 146.444 177.927 146.285C177.224 146.125 176.344 146.158 175.328 146.42L175.326 146.421C173.59 146.874 172.154 147.292 170.858 147.668C168.531 148.345 166.655 148.89 164.302 149.279C160.661 149.882 155.902 150.101 146.684 149.78L146.683 149.78C121.785 148.93 106.03 151.232 89.0021 158.455C85.6145 159.888 81.27 161.859 76.3649 164.084C62.6909 170.286 44.6606 178.464 30.8629 182.48L30.8622 182.48C24.2988 184.402 17.3055 184.373 11.6621 182.183C6.03722 180.001 1.75139 175.677 0.512932 168.954C0.383055 168.234 0.562449 167.438 0.97233 166.741C1.38237 166.044 1.99922 165.487 2.68565 165.223L2.68845 165.222C23.7618 156.971 38.4684 149.667 50.807 143.05C54.7385 140.942 58.4246 138.907 61.997 136.934C69.6459 132.71 76.7729 128.774 84.6686 125.031C92.7551 121.199 111.106 115.433 129.69 109.795C133.442 108.656 137.202 107.523 140.888 106.413C155.424 102.034 168.789 98.0077 175.834 95.3917C195.515 88.0888 223.603 85.1609 251.767 82.8946C256.029 82.5516 260.294 82.2238 264.53 81.8981C288.241 80.0753 311.078 78.3196 327.846 74.3478C403.512 56.4493 471.258 31.8299 554.845 1.10005L562.206 90.0246C515.434 94.9838 482.277 101.879 448.77 109.437C444.38 110.427 439.983 111.429 435.55 112.439C406.033 119.164 374.863 126.266 332.748 132.908L332.826 133.402L332.747 132.908C305.237 137.258 292.865 140.96 280.901 151.878C271.171 160.746 259.356 165.69 239.934 171.964C230.965 174.86 224.683 175.983 218.194 177.144C204.634 179.569 190.169 182.156 148.404 201.414C142.305 204.226 135.489 206.284 129.623 206.149C126.696 206.082 124.029 205.469 121.806 204.155C119.591 202.844 117.787 200.819 116.604 197.871Z" fill="white" stroke="#1C1C1C"/>
</g>
<defs>
<clipPath id="clip0_11122_48976">
<rect width="562.744" height="262.847" fill="white" transform="translate(0 0.404053)"/>
</clipPath>
</defs>
</svg>
