<svg viewBox="0 0 459 385" fill="none" xmlns="http://www.w3.org/2000/svg">
<path d="M32.4717 327.999H21.9756" stroke="#D7DBEB" stroke-width="1.27333" stroke-miterlimit="10" stroke-linecap="round"/>
<path d="M457.766 327.999H49.0879" stroke="#D7DBEB" stroke-width="1.27333" stroke-miterlimit="10" stroke-linecap="round"/>
<path d="M338.192 362.326C338.192 363.346 337.434 364.454 335.72 365.568C334.031 366.667 331.548 367.678 328.43 368.535C322.201 370.248 313.563 371.315 304 371.315C294.436 371.315 285.798 370.248 279.569 368.535C276.451 367.678 273.968 366.667 272.279 365.568C270.565 364.454 269.807 363.346 269.807 362.326C269.807 361.307 270.565 360.199 272.279 359.084C273.968 357.986 276.451 356.975 279.569 356.117C285.798 354.404 294.436 353.338 304 353.338C313.563 353.338 322.201 354.404 328.43 356.117C331.548 356.975 334.031 357.986 335.72 359.084C337.434 360.199 338.192 361.307 338.192 362.326Z" fill="#1C1C1C" stroke="#1C1C1C" stroke-width="1.14375"/>
<path d="M124.382 384.05C88.2135 384.05 82.8734 378.82 82.3461 374.601C82.1174 372.773 82.6709 371.145 83.992 369.76C93.739 359.539 149.887 363.861 227.601 369.847C238.439 370.682 249.651 371.544 261.147 372.398C339.669 378.233 371.279 377.473 377.779 369.587C379.112 367.97 379.39 365.952 378.649 363.238C375.543 351.851 333.96 351.763 318.204 352.686C317.458 352.724 316.812 352.157 316.768 351.409C316.725 350.661 317.296 350.017 318.045 349.974C324.07 349.621 377.026 346.961 381.271 362.525C382.25 366.116 381.794 368.991 379.876 371.317C372.541 380.216 342.532 381.171 260.944 375.109C249.446 374.255 238.233 373.391 227.391 372.557C153.32 366.852 94.8141 362.346 85.9592 371.638C85.2089 372.425 84.9172 373.26 85.0431 374.266C85.3793 376.957 91.8449 382.995 144.529 380.892C173.956 379.718 203.525 376.514 203.82 376.481C204.56 376.399 205.237 376.938 205.318 377.685C205.4 378.43 204.861 379.102 204.115 379.183C203.819 379.215 174.17 382.429 144.651 383.606C136.999 383.91 130.279 384.05 124.382 384.05Z" fill="white" stroke="#1C1C1C" stroke-width="1.27333" stroke-miterlimit="10"/>
<path d="M330.434 320.641C335.481 342.366 321.961 364.068 300.237 369.115C278.512 374.162 256.81 360.642 251.763 338.918C246.716 317.194 260.236 295.491 281.96 290.444C303.684 285.398 325.387 298.917 330.434 320.641Z" fill="white" stroke="#1C1C1C" stroke-width="1.14379"/>
<mask id="mask0_13334_66466" style="mask-type:luminance" maskUnits="userSpaceOnUse" x="250" y="288" width="83" height="83">
<path d="M330.434 320.641C335.481 342.366 321.961 364.068 300.237 369.115C278.512 374.162 256.81 360.642 251.763 338.918C246.716 317.194 260.236 295.491 281.96 290.444C303.684 285.398 325.387 298.917 330.434 320.641Z" fill="white" stroke="white" stroke-width="1.14379"/>
</mask>
<g mask="url(#mask0_13334_66466)">
<path d="M331.458 329.77C331.458 352.071 313.379 370.151 291.077 370.151C280.972 370.151 271.736 366.436 264.654 360.299C289.646 355.691 304.717 346.912 313.612 336.994C322.057 327.578 324.889 317.19 325.41 308.509C329.242 314.685 331.458 321.967 331.458 329.77Z" stroke="#1C1C1C" stroke-width="1.14375"/>
</g>
<mask id="mask1_13334_66466" style="mask-type:luminance" maskUnits="userSpaceOnUse" x="250" y="288" width="83" height="83">
<path d="M330.434 320.641C335.481 342.366 321.961 364.068 300.237 369.115C278.512 374.162 256.81 360.642 251.763 338.918C246.716 317.194 260.236 295.491 281.96 290.444C303.684 285.398 325.387 298.917 330.434 320.641Z" fill="white" stroke="white" stroke-width="1.14379"/>
</mask>
<g mask="url(#mask1_13334_66466)">
<path opacity="0.3" d="M331.458 329.77C331.458 352.071 313.379 370.151 291.077 370.151C280.972 370.151 271.736 366.436 264.654 360.299C289.646 355.691 304.717 346.912 313.612 336.994C322.057 327.578 324.889 317.19 325.41 308.509C329.242 314.685 331.458 321.967 331.458 329.77Z" fill="white" stroke="#1C1C1C" stroke-width="1.14375"/>
</g>
<mask id="mask2_13334_66466" style="mask-type:luminance" maskUnits="userSpaceOnUse" x="250" y="288" width="83" height="83">
<path d="M330.434 320.641C335.481 342.366 321.961 364.068 300.237 369.115C278.512 374.162 256.81 360.642 251.763 338.918C246.716 317.194 260.236 295.491 281.96 290.444C303.684 285.398 325.387 298.917 330.434 320.641Z" fill="white" stroke="white" stroke-width="1.14379"/>
</mask>
<g mask="url(#mask2_13334_66466)">
<path d="M311.235 345.824C299.205 334.054 285.339 330.378 285.339 330.378M311.235 345.824C311.958 345.835 312.666 345.853 313.403 345.854C319.082 340.134 323.022 334.605 325.742 329.767M311.235 345.824C294.384 345.581 281.569 342.985 271.948 339.561C272.569 313.69 281.798 296.45 286.625 289.151C288.147 288.979 289.692 288.883 291.26 288.883C292.66 288.883 294.042 288.955 295.405 289.091M325.742 329.767C306.559 309.475 287.85 311.548 287.85 311.548C287.85 311.548 306.558 309.475 325.742 329.767ZM325.742 329.767C326.8 327.886 327.677 326.113 328.4 324.473C320.467 313.289 306.725 305.702 299.3 304.534L297.582 304.13M297.582 304.13C292.616 303.349 289.523 304.016 289.523 304.016M297.582 304.13L302.469 290.445C300.187 289.799 297.83 289.334 295.405 289.091M295.405 289.091C292.246 294.199 284.082 310.531 284.082 342.932M320.489 337.491C304.17 321.591 286.176 320.754 286.176 320.754" stroke="#1C1C1C" stroke-width="1.27333" stroke-miterlimit="10" stroke-linecap="round" stroke-linejoin="round"/>
<path d="M271.951 339.561C272.572 313.69 281.801 296.449 286.628 289.151C282.777 289.584 279.087 290.548 275.634 291.972C270.412 299.584 262.182 314.688 261.509 334.973C264.472 336.57 267.941 338.134 271.951 339.561Z" stroke="#1C1C1C" stroke-width="1.27333" stroke-miterlimit="10" stroke-linecap="round" stroke-linejoin="round"/>
<path d="M275.633 291.972C261.548 297.78 251.411 311.199 250.335 327.108C252.834 329.445 256.456 332.249 261.508 334.972C262.182 314.688 270.411 299.584 275.633 291.972Z" stroke="#1C1C1C" stroke-width="1.27333" stroke-miterlimit="10" stroke-linecap="round" stroke-linejoin="round"/>
<path d="M321.924 302.656C325.911 307.137 328.926 312.496 330.651 318.408C330.149 320.1 329.426 322.149 328.402 324.474C316.625 309.713 305.008 305.299 297.585 304.13L302.472 290.445C306.344 291.543 309.98 293.193 313.294 295.306M321.924 302.656L318.816 313.222M321.924 302.656C319.407 299.826 316.501 297.351 313.294 295.306M313.294 295.306L309.8 308.356" stroke="#1C1C1C" stroke-width="1.27333" stroke-miterlimit="10" stroke-linecap="round" stroke-linejoin="round"/>
<path d="M328.401 324.474C329.426 322.149 330.148 320.1 330.65 318.408C331.716 322.061 332.298 325.92 332.298 329.917C332.298 330.517 332.278 331.11 332.253 331.703C314.954 355.933 301.612 366.396 293.325 370.898C292.642 370.932 291.954 370.95 291.263 370.95C286.953 370.95 282.8 370.282 278.897 369.051C284.251 366.591 289.084 364.025 293.41 361.391M328.401 324.474C328.414 324.49 328.426 324.504 328.439 324.52M328.401 324.474C327.678 326.114 327.721 326.091 326.663 327.973C326.724 328.038 325.681 329.703 325.743 329.769C325.681 329.702 324.651 331.827 324.589 331.761C321.869 336.598 313.661 345.86 313.793 345.86C313.661 345.86 309.358 349.76 307.004 351.726M307.004 351.726C307.036 351.723 307.066 351.722 307.098 351.718M307.004 351.726C303.114 354.976 298.61 358.226 293.41 361.391M293.41 361.391C293.509 361.373 293.612 361.361 293.709 361.342" stroke="#1C1C1C" stroke-width="1.27333" stroke-miterlimit="10" stroke-linecap="round" stroke-linejoin="round"/>
<path d="M332.252 331.703C314.952 355.934 301.611 366.396 293.324 370.9C314.438 369.855 331.346 352.852 332.252 331.703Z" stroke="#1C1C1C" stroke-width="1.27333" stroke-miterlimit="10" stroke-linecap="round" stroke-linejoin="round"/>
<path d="M259.188 355.497C264.212 361.788 271.041 366.572 278.898 369.052C284.25 366.593 289.084 364.025 293.411 361.392C283.643 363.196 268.368 358.719 259.188 355.497Z" stroke="#1C1C1C" stroke-width="1.27333" stroke-miterlimit="10" stroke-linecap="round" stroke-linejoin="round"/>
<path d="M293.411 361.392C298.611 358.227 303.115 354.977 307.005 351.727C277.514 354.743 259.317 345.614 251.589 340.417C253.063 346.001 255.687 351.114 259.188 355.498C268.369 358.719 283.644 363.196 293.411 361.392Z" stroke="#1C1C1C" stroke-width="1.27333" stroke-miterlimit="10" stroke-linecap="round" stroke-linejoin="round"/>
<path d="M311.235 345.824C311.957 345.835 312.666 345.853 313.403 345.854C311.474 347.799 309.358 349.76 307.004 351.726C277.514 354.743 259.317 345.614 251.59 340.416C250.705 337.064 250.229 333.546 250.229 329.917C250.229 328.972 250.272 328.037 250.335 327.108C252.834 329.445 257.894 334.692 271.951 339.561M311.235 345.824C311.39 345.977 311.547 346.124 311.701 346.279M311.235 345.824C294.384 345.581 281.569 342.985 271.951 339.561M271.951 339.561C271.951 339.569 271.949 339.576 271.949 339.584" stroke="#1C1C1C" stroke-width="1.27333" stroke-miterlimit="10" stroke-linecap="round" stroke-linejoin="round"/>
</g>
<path d="M300.366 369.672C322.398 364.554 336.109 342.544 330.991 320.512C325.872 298.48 303.863 284.769 281.831 289.887C259.799 295.006 246.088 317.015 251.206 339.047C256.325 361.079 278.334 374.79 300.366 369.672Z" stroke="#1C1C1C" stroke-width="1.27339" stroke-miterlimit="10" stroke-linecap="round" stroke-linejoin="round"/>
<path d="M218.317 284.249C192.85 284.25 177.553 261.656 172.118 241.787L171.934 241.09C170.895 237.094 173.292 233.013 177.289 231.976C181.286 230.943 185.365 233.335 186.403 237.33L186.539 237.848C190.676 252.969 201.918 270.251 219.952 269.254C227.143 268.849 232.935 266.022 237.657 260.613C247.552 249.276 251.975 224.596 250.988 212.156C250.726 208.863 253.184 205.983 256.476 205.722C259.792 205.462 262.649 207.918 262.909 211.209C264.01 225.054 262.547 254.833 248.919 270.444C241.516 278.924 232.053 283.545 220.792 284.18C219.956 284.226 219.13 284.249 218.317 284.249Z" fill="white"/>
<mask id="mask3_13334_66466" style="mask-type:luminance" maskUnits="userSpaceOnUse" x="171" y="205" width="93" height="80">
<path d="M218.318 284.249C192.851 284.25 177.554 261.656 172.119 241.787L171.935 241.09C170.896 237.094 173.293 233.013 177.29 231.976C181.287 230.943 185.366 233.335 186.404 237.33L186.54 237.848C190.677 252.969 201.919 270.251 219.952 269.254C227.144 268.849 232.936 266.022 237.658 260.613C247.553 249.276 251.976 224.596 250.989 212.156C250.727 208.863 253.185 205.983 256.477 205.722C259.793 205.462 262.65 207.918 262.91 211.209C264.011 225.054 262.548 254.833 248.92 270.444C241.517 278.924 232.054 283.545 220.793 284.18C219.957 284.226 219.131 284.249 218.318 284.249Z" fill="white"/>
</mask>
<g mask="url(#mask3_13334_66466)">
<path d="M256.474 205.721C253.183 205.982 250.725 208.863 250.987 212.155C251.468 218.226 250.658 227.212 248.556 236.139C251.14 236.013 254.107 236.301 257.439 237.297C256.955 243.405 255.033 252.383 248.71 261.164C237.603 276.591 220.941 281.529 207.982 279.677C202.189 278.849 195.537 275.802 189.947 272.685C197.338 279.605 206.781 284.249 218.318 284.249C219.131 284.249 219.957 284.225 220.791 284.179C232.052 283.544 241.515 278.923 248.918 270.442C262.545 254.831 264.008 225.053 262.908 211.208C262.647 207.917 259.79 205.459 256.474 205.721Z" fill="white"/>
</g>
<path d="M218.317 284.249C192.85 284.25 177.553 261.656 172.118 241.787L171.934 241.09C170.895 237.094 173.292 233.013 177.289 231.976C181.286 230.943 185.365 233.335 186.403 237.33L186.539 237.848C190.676 252.969 201.918 270.251 219.952 269.254C227.143 268.849 232.935 266.022 237.657 260.613C247.552 249.276 251.975 224.596 250.988 212.156C250.726 208.863 253.184 205.983 256.476 205.722C259.792 205.462 262.649 207.918 262.909 211.209C264.01 225.054 262.547 254.833 248.919 270.444C241.516 278.924 232.053 283.545 220.792 284.18C219.956 284.226 219.13 284.249 218.317 284.249Z" stroke="#282C38" stroke-width="1.27333" stroke-miterlimit="10" stroke-linecap="round" stroke-linejoin="round"/>
<path d="M186.536 237.848L186.4 237.33C185.362 233.335 181.283 230.943 177.286 231.976C173.291 233.013 170.892 237.095 171.931 241.09L172.115 241.787C173.92 248.383 176.818 255.276 180.807 261.546L194.429 255.06C190.765 249.775 188.125 243.654 186.536 237.848Z" fill="#282C38" stroke="#282C38" stroke-width="1.27333" stroke-miterlimit="10" stroke-linecap="round" stroke-linejoin="round"/>
<path d="M201.224 140.594C201.224 140.594 190.124 172.756 196.101 197.802C202.079 222.847 223.994 231.102 223.994 231.102C223.994 231.102 207.771 236.794 211.471 245.617C215.171 254.44 229.117 248.748 233.671 245.902C238.224 243.056 243.917 234.517 244.771 228.825C245.624 223.132 245.341 220.002 245.341 220.002C245.341 220.002 263.841 218.009 276.364 207.764C276.364 207.764 287.464 216.587 295.434 214.879C303.403 213.171 314.787 198.941 313.649 186.133C312.511 173.325 305.111 173.325 300.556 175.318C296.002 177.31 294.294 179.303 294.294 179.303C294.294 179.303 300.841 171.333 294.294 160.233C287.749 149.133 276.079 148.279 276.079 148.279C276.079 148.279 272.664 130.063 262.417 123.233C252.171 116.401 215.74 109.286 201.224 140.594Z" fill="white"/>
<path d="M245.34 220.002C245.34 220.002 226.394 221.544 213.144 205.235" stroke="#282C38" stroke-width="1.27333" stroke-miterlimit="10" stroke-linecap="round" stroke-linejoin="round"/>
<path d="M201.224 140.594C201.224 140.594 190.124 172.756 196.101 197.802C202.079 222.847 223.994 231.102 223.994 231.102C223.994 231.102 207.771 236.794 211.471 245.617C215.171 254.44 229.117 248.748 233.671 245.902C238.224 243.056 243.917 234.517 244.771 228.825C245.624 223.132 245.341 220.002 245.341 220.002C245.341 220.002 263.841 218.009 276.364 207.764C276.364 207.764 287.464 216.587 295.434 214.879C303.403 213.171 314.787 198.941 313.649 186.133C312.511 173.325 305.111 173.325 300.556 175.318C296.002 177.31 294.294 179.303 294.294 179.303C294.294 179.303 300.841 171.333 294.294 160.233C287.749 149.133 276.079 148.279 276.079 148.279C276.079 148.279 272.664 130.063 262.417 123.233C252.171 116.401 215.74 109.286 201.224 140.594Z" stroke="#282C38" stroke-width="1.27333" stroke-miterlimit="10" stroke-linecap="round" stroke-linejoin="round"/>
<path d="M294.295 179.302C294.295 179.302 288.317 183.287 285.472 195.525" stroke="#282C38" stroke-width="1.27333" stroke-miterlimit="10" stroke-linecap="round" stroke-linejoin="round"/>
<path d="M305.264 184.536C304.56 186.621 302.656 187.862 301.01 187.306C299.364 186.751 298.6 184.61 299.304 182.525C300.007 180.44 301.911 179.199 303.557 179.755C305.203 180.31 305.968 182.449 305.264 184.536Z" fill="#282C38"/>
<path d="M311.152 188.239C310.449 190.324 308.545 191.565 306.899 191.009C305.253 190.455 304.489 188.314 305.192 186.229C305.896 184.144 307.8 182.903 309.446 183.458C311.092 184.014 311.856 186.154 311.152 188.239Z" fill="#282C38"/>
<path d="M312.407 193.785C311.896 195.299 310.513 196.201 309.318 195.797C308.123 195.393 307.568 193.839 308.078 192.325C308.589 190.81 309.972 189.909 311.168 190.313C312.364 190.716 312.919 192.271 312.407 193.785Z" fill="#282C38"/>
<path d="M304.894 201.405C302.838 205.117 298.718 206.769 295.694 205.093C292.669 203.418 291.883 199.05 293.939 195.337C295.996 191.625 300.115 189.973 303.141 191.649C306.165 193.324 306.951 197.692 304.894 201.405Z" fill="#282C38"/>
<path d="M223.994 231.102C223.994 231.102 229.117 233.948 236.232 231.955" stroke="#282C38" stroke-width="1.27333" stroke-miterlimit="10" stroke-linecap="round" stroke-linejoin="round"/>
<path d="M211.471 245.617C211.471 245.617 212.609 240.779 219.724 237.363" stroke="#282C38" stroke-width="1.27333" stroke-miterlimit="10" stroke-linecap="round" stroke-linejoin="round"/>
<path d="M218.586 249.887C218.586 249.887 221.432 243.056 226.271 239.925" stroke="#282C38" stroke-width="1.27333" stroke-miterlimit="10" stroke-linecap="round" stroke-linejoin="round"/>
<path d="M80.7071 137.932H0.00195312V112.498L80.7071 2.93473H117.391V107.607H136.956V137.932H117.391V174.128H80.7071V137.932ZM80.7071 107.607V43.7764L34.2405 107.607H80.7071Z" fill="#0D76E9"/>
<path d="M226.938 177.062C217.644 177.062 208.922 175.595 200.769 172.66C192.78 169.562 185.851 164.59 179.982 157.742C174.112 150.731 169.466 141.601 166.042 130.351C162.618 118.938 160.906 104.998 160.906 88.5311V83.6399C160.906 68.3141 162.618 55.3523 166.042 44.7547C169.466 34.157 174.112 25.5974 179.982 19.0758C185.851 12.3911 192.78 7.5814 200.769 4.64666C208.922 1.54889 217.644 0 226.938 0C236.231 0 244.872 1.54889 252.861 4.64666C261.013 7.5814 268.024 12.3911 273.893 19.0758C279.763 25.5974 284.409 34.157 287.833 44.7547C291.257 55.3523 292.969 68.3141 292.969 83.6399V88.5311C292.969 104.998 291.257 118.938 287.833 130.351C284.409 141.601 279.763 150.731 273.893 157.742C268.024 164.59 261.013 169.562 252.861 172.66C244.872 175.595 236.231 177.062 226.938 177.062ZM226.938 146.248C231.014 146.248 234.845 145.432 238.432 143.802C242.019 142.172 245.117 139.237 247.725 134.998C250.497 130.596 252.616 124.645 254.084 117.145C255.551 109.645 256.285 100.107 256.285 88.5311V83.6399C256.285 73.2053 255.551 64.6457 254.084 57.961C252.616 51.1133 250.497 45.7329 247.725 41.82C245.117 37.7439 242.019 34.8907 238.432 33.2603C234.845 31.6299 231.014 30.8147 226.938 30.8147C222.698 30.8147 218.785 31.6299 215.199 33.2603C211.775 34.8907 208.677 37.7439 205.905 41.82C203.297 45.7329 201.259 51.1133 199.791 57.961C198.324 64.6457 197.59 73.2053 197.59 83.6399V88.5311C197.59 100.107 198.324 109.645 199.791 117.145C201.259 124.645 203.297 130.596 205.905 134.998C208.677 139.237 211.775 142.172 215.199 143.802C218.785 145.432 222.698 146.248 226.938 146.248Z" fill="#0D76E9"/>
<path d="M390.708 137.932H310.002V112.498L390.708 2.93473H427.392V107.607H446.957V137.932H427.392V174.128H390.708V137.932ZM390.708 107.607V43.7764L344.241 107.607H390.708Z" fill="#0D76E9"/>
<path d="M178.169 124.37C178.169 124.37 166.215 141.162 164.507 158.239C162.8 175.317 164.792 186.702 169.915 190.97C175.038 195.24 180.161 193.532 183.008 189.547C185.854 185.562 181.3 171.617 181.3 171.617C181.3 171.617 186.139 158.239 193.539 148.847C200.939 139.455 202.362 138.032 202.362 138.032C202.362 138.032 189.553 123.516 178.169 124.37Z" fill="white"/>
<path d="M178.169 124.37C178.169 124.37 166.215 141.162 164.507 158.239C162.8 175.317 164.792 186.702 169.915 190.97C175.038 195.24 180.161 193.532 183.008 189.547C185.854 185.562 181.3 171.617 181.3 171.617C181.3 171.617 186.139 158.239 193.539 148.847C200.939 139.455 202.362 138.032 202.362 138.032C202.362 138.032 189.553 123.516 178.169 124.37Z" stroke="#282C38" stroke-width="1.27333" stroke-miterlimit="10" stroke-linecap="round" stroke-linejoin="round"/>
<path d="M169.914 190.971C169.914 190.971 167.922 186.417 167.922 179.302" stroke="#282C38" stroke-width="1.27333" stroke-miterlimit="10" stroke-linecap="round" stroke-linejoin="round"/>
<path d="M177.6 192.679C177.6 192.679 174.755 187.841 174.47 179.586" stroke="#282C38" stroke-width="1.27333" stroke-miterlimit="10" stroke-linecap="round" stroke-linejoin="round"/>
<path d="M271.784 116.081C271.784 116.081 285.327 131.62 288.703 148.447C292.077 165.274 291.211 176.799 286.532 181.55C281.853 186.301 276.587 185.104 273.363 181.418C270.14 177.731 273.303 163.406 273.303 163.406C273.303 163.406 267.176 150.568 258.891 141.947C250.605 133.325 249.049 132.049 249.049 132.049C249.049 132.049 260.371 116.348 271.784 116.081Z" fill="white"/>
<path d="M271.784 116.081C271.784 116.081 285.327 131.62 288.703 148.447C292.077 165.274 291.211 176.799 286.532 181.55C281.853 186.301 276.587 185.104 273.363 181.418C270.14 177.731 273.303 163.406 273.303 163.406C273.303 163.406 267.176 150.568 258.891 141.947C250.605 133.325 249.049 132.049 249.049 132.049C249.049 132.049 260.371 116.348 271.784 116.081Z" stroke="#282C38" stroke-width="1.27333" stroke-miterlimit="10" stroke-linecap="round" stroke-linejoin="round"/>
<path d="M286.53 181.55C286.53 181.55 288.066 176.823 287.369 169.742" stroke="#282C38" stroke-width="1.27333" stroke-miterlimit="10" stroke-linecap="round" stroke-linejoin="round"/>
<path d="M279.051 184.004C279.051 184.004 281.409 178.909 280.882 170.667" stroke="#282C38" stroke-width="1.27333" stroke-miterlimit="10" stroke-linecap="round" stroke-linejoin="round"/>
<path d="M177.049 109.845C177.049 109.845 173.527 121.733 174.847 126.576C176.168 131.419 182.332 127.016 188.495 132.299C194.659 137.582 200.373 147.087 223.708 148.847C247.042 150.608 261.141 138.023 265.985 130.978C270.828 123.934 270.387 115.569 278.753 115.128C287.118 114.688 280.074 98.3976 277.432 95.7555C277.432 95.7555 293.722 71.5401 293.722 65.3765C293.722 59.2128 278.312 60.5339 259.38 66.2572C259.38 66.2572 245.291 58.7725 219.755 63.1748C194.218 67.5771 186.734 75.0629 186.734 75.0629C186.734 75.0629 155.034 79.0248 152.832 82.9879C150.631 86.9498 157.235 103.681 177.049 109.845Z" fill="white"/>
<mask id="mask4_13334_66466" style="mask-type:luminance" maskUnits="userSpaceOnUse" x="152" y="61" width="142" height="89">
<path d="M177.05 109.845C177.05 109.845 173.528 121.733 174.848 126.576C176.169 131.419 182.333 127.016 188.496 132.299C194.66 137.582 200.374 147.087 223.709 148.847C247.043 150.608 261.142 138.023 265.986 130.978C270.829 123.934 270.388 115.569 278.754 115.128C287.119 114.688 280.075 98.3976 277.433 95.7555C277.433 95.7555 293.723 71.5401 293.723 65.3765C293.723 59.2128 278.313 60.5339 259.381 66.2572C259.381 66.2572 245.292 58.7725 219.756 63.1748C194.219 67.5771 186.735 75.0629 186.735 75.0629C186.735 75.0629 155.035 79.0248 152.833 82.9879C150.632 86.9498 157.236 103.681 177.05 109.845Z" fill="white"/>
</mask>
<g mask="url(#mask4_13334_66466)">
<path d="M278.753 115.128C287.119 114.688 280.074 98.3976 277.432 95.7555C277.432 95.7555 280.531 91.1497 284.024 85.4458C274.557 80.5003 265.27 77.7553 262.798 80.5357C257.489 86.5095 260.38 97.9458 262.798 109.069C265.216 120.192 255.543 125.029 248.773 134.7C242.002 144.373 232.33 133.733 232.33 133.733C228.944 147.757 214.436 138.568 214.436 138.568C203.313 135.183 184.451 124.06 188.321 116.321C192.19 108.584 193.156 101.329 186.387 95.0418C179.616 88.7547 152.612 83.5415 152.612 83.5415C151.198 88.3063 158.045 103.931 177.047 109.843C177.047 109.843 173.524 121.73 174.845 126.574C176.166 131.416 182.33 127.014 188.493 132.297C194.657 137.58 200.371 147.085 223.706 148.845C247.041 150.606 261.14 138.02 265.983 130.976C270.828 123.934 270.388 115.569 278.753 115.128Z" fill="white"/>
</g>
<path d="M268.109 74.5619C256.724 82.2467 260.709 89.9315 265.832 94.2C268.96 96.8066 273.99 96.4406 277.438 95.7612C277.436 95.7601 277.435 95.7567 277.433 95.7555C277.433 95.7555 293.723 71.5401 293.723 65.3765C293.723 65.3765 279.494 66.8782 268.109 74.5619Z" fill="#282C38" stroke="#282C38" stroke-width="1.27333" stroke-miterlimit="10"/>
<path d="M152.613 83.5437C151.199 88.3086 158.045 103.933 177.048 109.845C177.048 109.845 191.546 108.432 186.707 96.7631C182.193 85.8758 159.354 83.1651 152.613 83.5437Z" fill="#282C38" stroke="#282C38" stroke-width="1.27333" stroke-miterlimit="10"/>
<path d="M219.755 63.1749C218.251 63.4345 216.814 63.7056 215.433 63.9835C217.71 75.5331 221.483 94.7697 224.846 94.7697C228.328 94.7697 230.778 73.6836 231.879 61.8665C228.182 62.0197 224.141 62.4189 219.755 63.1749Z" fill="#0D76E9"/>
<path d="M206.63 91.3544C210.132 89.2945 209.608 73.8219 209.051 65.428C204.8 66.5065 193.5 70 191 72.5C192.28 80.3598 202.898 93.5504 206.63 91.3544Z" fill="#3DE297"/>
<path d="M240.5 84.2392C244.087 85.4951 253.034 74.2349 254.169 64.3278C251.082 63.8199 240.486 61.8447 236.29 61.7966C236.18 69.9367 236.626 82.8839 240.5 84.2392Z" fill="#04103D"/>
<path d="M235.71 128.784C233.773 128.313 229.621 127.73 225.789 129.999C225.223 130.334 225.125 131.122 225.606 131.572L231.688 137.274C232.177 137.731 232.97 137.574 233.247 136.965L236.355 130.135C236.608 129.582 236.301 128.926 235.71 128.784Z" fill="#282C38" stroke="#282C38" stroke-width="1.27333" stroke-miterlimit="10" stroke-linecap="round" stroke-linejoin="round"/>
<circle cx="219.5" cy="120.5" r="2.5" fill="#282C38"/>
<circle cx="239.5" cy="119.5" r="2.5" fill="#282C38"/>
<path d="M233.248 136.965C233.248 136.965 225.131 147.994 217.73 136.893" stroke="#282C38" stroke-width="1.27333" stroke-miterlimit="10" stroke-linecap="round" stroke-linejoin="round"/>
<path d="M231.689 137.273C231.689 137.273 237.086 142.871 242.778 139.739C248.47 136.609 245.055 131.77 245.055 131.77" stroke="#282C38" stroke-width="1.27333" stroke-miterlimit="10" stroke-linecap="round" stroke-linejoin="round"/>
<path d="M206.915 114.863C206.915 114.863 208.907 107.748 218.3 109.456" stroke="#282C38" stroke-width="2" stroke-miterlimit="10" stroke-linecap="round" stroke-linejoin="round"/>
<path d="M235.377 108.318C235.377 108.318 242.492 104.048 249.039 110.88" stroke="#282C38" stroke-width="2" stroke-miterlimit="10" stroke-linecap="round" stroke-linejoin="round"/>
<path d="M201.507 129.494L208.337 131.201" stroke="#282C38" stroke-width="1.27333" stroke-miterlimit="10" stroke-linecap="round"/>
<path d="M207.484 133.762L201.507 134.901" stroke="#282C38" stroke-width="1.27333" stroke-miterlimit="10" stroke-linecap="round"/>
<path d="M208.623 136.894L204.354 139.17" stroke="#282C38" stroke-width="1.27333" stroke-miterlimit="10" stroke-linecap="round"/>
<path d="M251.885 126.362L257.861 124.939" stroke="#282C38" stroke-width="1.27333" stroke-miterlimit="10" stroke-linecap="round"/>
<path d="M253.022 129.209H257.007" stroke="#282C38" stroke-width="1.27333" stroke-miterlimit="10" stroke-linecap="round"/>
<path d="M253.877 132.055L259.285 133.479" stroke="#282C38" stroke-width="1.27333" stroke-miterlimit="10" stroke-linecap="round"/>
<path d="M177.049 109.845C177.049 109.845 173.527 121.733 174.847 126.576C176.168 131.419 182.332 127.016 188.495 132.299C194.659 137.582 200.373 147.087 223.708 148.847C247.042 150.608 261.141 138.023 265.985 130.978C270.828 123.934 270.387 115.569 278.753 115.128C287.118 114.688 280.074 98.3976 277.432 95.7555C277.432 95.7555 293.722 71.5401 293.722 65.3765C293.722 59.2128 278.312 60.5339 259.38 66.2572C259.38 66.2572 245.291 58.7725 219.755 63.1748C194.218 67.5771 186.734 75.0629 186.734 75.0629C186.734 75.0629 155.034 79.0248 152.832 82.9879C150.631 86.9498 157.235 103.681 177.049 109.845Z" stroke="#282C38" stroke-width="1.27333" stroke-miterlimit="10"/>
</svg>
