<svg viewBox="0 0 460 351" fill="none" xmlns="http://www.w3.org/2000/svg">
<path d="M378 327L393.225 347.905" stroke="#1C1C1C" stroke-width="5.7541" stroke-linecap="round"/>
<path d="M400.824 310L416.049 330.905" stroke="#1C1C1C" stroke-width="5.7541" stroke-linecap="round"/>
<path d="M110.362 78.995H33.5736V119.522C36.8916 115.414 41.6316 112.096 47.7936 109.568C53.9556 106.882 60.5126 105.539 67.4646 105.539C80.1046 105.539 90.4536 108.304 98.5116 113.834C106.57 119.364 112.416 126.474 116.05 135.164C119.684 143.696 121.501 152.86 121.501 162.656C121.501 180.826 116.287 195.441 105.859 206.501C95.5886 217.561 80.8946 223.091 61.7766 223.091C43.7646 223.091 29.3866 218.588 18.6426 209.582C7.89856 200.576 1.81556 188.805 0.393555 174.269H32.6256C34.0476 180.589 37.2076 185.645 42.1056 189.437C47.1616 193.229 53.5606 195.125 61.3026 195.125C70.6246 195.125 77.6556 192.202 82.3956 186.356C87.1356 180.51 89.5056 172.768 89.5056 163.13C89.5056 153.334 87.0566 145.908 82.1586 140.852C77.4186 135.638 70.3876 133.031 61.0656 133.031C54.4296 133.031 48.8996 134.69 44.4756 138.008C40.0516 141.326 36.8916 145.75 34.9956 151.28H3.23756V49.844H110.362V78.995Z" fill="#1C1C1C"/>
<path d="M165.361 134.453C165.361 107.119 170.259 85.71 180.055 70.226C190.009 54.742 206.441 47 229.351 47C252.261 47 268.614 54.742 278.41 70.226C288.364 85.71 293.341 107.119 293.341 134.453C293.341 161.945 288.364 183.512 278.41 199.154C268.614 214.796 252.261 222.617 229.351 222.617C206.441 222.617 190.009 214.796 180.055 199.154C170.259 183.512 165.361 161.945 165.361 134.453ZM260.635 134.453C260.635 122.761 259.845 112.965 258.265 105.065C256.843 97.007 253.841 90.45 249.259 85.394C244.835 80.338 238.199 77.81 229.351 77.81C220.503 77.81 213.788 80.338 209.206 85.394C204.782 90.45 201.78 97.007 200.2 105.065C198.778 112.965 198.067 122.761 198.067 134.453C198.067 146.461 198.778 156.573 200.2 164.789C201.622 172.847 204.624 179.404 209.206 184.46C213.788 189.358 220.503 191.807 229.351 191.807C238.199 191.807 244.914 189.358 249.496 184.46C254.078 179.404 257.08 172.847 258.502 164.789C259.924 156.573 260.635 146.461 260.635 134.453Z" fill="#1C1C1C"/>
<path d="M331.52 134.453C331.52 107.119 336.418 85.71 346.214 70.226C356.168 54.742 372.6 47 395.51 47C418.42 47 434.773 54.742 444.569 70.226C454.523 85.71 459.5 107.119 459.5 134.453C459.5 161.945 454.523 183.512 444.569 199.154C434.773 214.796 418.42 222.617 395.51 222.617C372.6 222.617 356.168 214.796 346.214 199.154C336.418 183.512 331.52 161.945 331.52 134.453ZM426.794 134.453C426.794 122.761 426.004 112.965 424.424 105.065C423.002 97.007 420 90.45 415.418 85.394C410.994 80.338 404.358 77.81 395.51 77.81C386.662 77.81 379.947 80.338 375.365 85.394C370.941 90.45 367.939 97.007 366.359 105.065C364.937 112.965 364.226 122.761 364.226 134.453C364.226 146.461 364.937 156.573 366.359 164.789C367.781 172.847 370.783 179.404 375.365 184.46C379.947 189.358 386.662 191.807 395.51 191.807C404.358 191.807 411.073 189.358 415.655 184.46C420.237 179.404 423.239 172.847 424.661 164.789C426.083 156.573 426.794 146.461 426.794 134.453Z" fill="#1C1C1C"/>
<path d="M117.547 116.749C117.547 116.749 103.341 139.93 103.388 150.936C103.438 161.943 118.991 156.116 129.048 170.804C139.104 185.491 145.813 208.865 194.238 225.837C242.662 242.81 279.667 224.155 293.924 211.983C308.179 199.812 311.994 181.844 329.962 185.658C347.93 189.473 342.255 150.972 338.158 143.877C338.158 143.877 386.405 101.833 389.903 88.7778C393.401 75.723 360.013 69.7755 316.665 71.1531C316.665 71.1531 291.072 47.3046 234.487 42.1362C177.901 36.9678 157.8 48.5753 157.8 48.5753C157.8 48.5753 88.4099 38.9762 81.4974 46.1206C74.588 53.2632 79.0804 92.4474 117.547 116.749Z" fill="white"/>
<mask id="mask0_13334_66854" style="mask-type:luminance" maskUnits="userSpaceOnUse" x="78" y="40" width="313" height="193">
<path d="M117.549 116.749C117.549 116.749 103.343 139.93 103.39 150.936C103.44 161.943 118.993 156.116 129.05 170.804C139.106 185.491 145.815 208.865 194.24 225.837C242.664 242.81 279.669 224.155 293.926 211.983C308.181 199.812 311.996 181.844 329.964 185.658C347.932 189.473 342.257 150.972 338.16 143.877C338.16 143.877 386.407 101.833 389.905 88.7778C393.403 75.723 360.015 69.7755 316.667 71.1531C316.667 71.1531 291.074 47.3046 234.489 42.1362C177.903 36.9678 157.802 48.5753 157.802 48.5753C157.802 48.5753 88.4118 38.9762 81.4994 46.1206C74.59 53.2632 79.0824 92.4474 117.549 116.749Z" fill="white"/>
</mask>
<g mask="url(#mask0_13334_66854)">
<path d="M329.964 185.659C347.932 189.473 342.257 150.972 338.16 143.877C338.16 143.877 347.337 135.88 357.972 125.781C340.728 109.933 322.615 98.8488 315.802 103.335C301.166 112.975 300.8 138.838 299.609 163.769C298.417 188.7 275.185 193.455 255.358 210.098C235.527 226.742 221.079 198.716 221.079 198.716C205.949 226.5 180.434 198.803 180.434 198.803C158.797 185.32 125.16 151.057 137.747 136.862C150.334 122.67 156.498 107.853 145.727 90.6942C134.954 73.535 80.7177 47.1679 80.7177 47.1679C75.0193 56.4577 80.6529 93.437 117.545 116.743C117.545 116.743 103.338 139.921 103.387 150.93C103.436 161.936 118.99 156.11 129.046 170.798C139.103 185.485 145.811 208.859 194.236 225.831C242.66 242.804 279.665 224.149 293.922 211.977C308.181 199.812 311.996 181.844 329.964 185.659Z" fill="white"/>
</g>
<path d="M117.547 116.749C117.547 116.749 103.341 139.93 103.388 150.936C103.438 161.943 118.991 156.116 129.048 170.804C139.104 185.491 145.813 208.865 194.238 225.837C242.662 242.81 279.667 224.155 293.924 211.983C308.179 199.812 311.994 181.844 329.962 185.658C347.93 189.473 342.255 150.972 338.158 143.877C338.158 143.877 386.405 101.833 389.903 88.7778C393.401 75.723 360.013 69.7755 316.665 71.1531C316.665 71.1531 291.072 47.3046 234.487 42.1362C177.901 36.9678 157.8 48.5753 157.8 48.5753C157.8 48.5753 88.4099 38.9762 81.4974 46.1206C74.588 53.2632 79.0804 92.4474 117.547 116.749Z" stroke="#282C38" stroke-width="2.7921" stroke-miterlimit="10"/>
<path d="M330.439 93.6962C301.965 103.512 306.043 122.05 314.471 133.998C319.617 141.294 330.479 143.374 338.168 143.892C338.164 143.888 338.164 143.88 338.16 143.877C338.16 143.877 386.406 101.833 389.904 88.7779C389.904 88.7779 358.914 83.8831 330.439 93.6962Z" fill="#282C38" stroke="#282C38" stroke-width="2.7921" stroke-miterlimit="10"/>
<path d="M80.7176 47.173C75.0192 56.4629 80.6528 93.4421 117.545 116.748C117.545 116.748 149.055 121.982 145.427 94.5214C142.047 68.9003 95.2107 50.197 80.7176 47.173Z" fill="#282C38" stroke="#282C38" stroke-width="2.7921" stroke-miterlimit="10"/>
<path d="M234.485 42.1359C231.152 41.8322 227.956 41.5911 224.872 41.3957C223.14 67.1504 220.215 110.036 227.337 111.944C234.713 113.921 251.869 70.6499 260.906 46.2451C252.99 44.4718 244.205 43.024 234.485 42.1359Z" fill="#0D76E9"/>
<path d="M190.696 94.3728C199.282 91.9974 206.954 58.9286 210.538 40.8338C200.922 40.7054 176.088 42.005 168.033 46.0329C166.283 63.4066 181.545 96.9059 190.696 94.3728Z" fill="#3DE297"/>
<path d="M266.469 98.5239C273.354 103.219 298.695 84.448 306.721 64.1083C300.471 61.2807 279.15 51.0837 270.289 48.6004C265.437 65.7789 259.034 93.4547 266.469 98.5239Z" fill="#04103D"/>
<path d="M230.152 191.399C226.247 189.438 217.666 186.139 208.357 189.093C206.981 189.529 206.384 191.164 207.188 192.362L217.364 207.549C218.181 208.767 219.955 208.825 220.847 207.659L230.862 194.606C231.675 193.548 231.344 191.997 230.152 191.399Z" fill="#282C38" stroke="#282C38" stroke-width="2.7921" stroke-miterlimit="10" stroke-linecap="round" stroke-linejoin="round"/>
<path d="M212.056 149.372C212.056 149.372 197.616 156.72 186.427 139.028" stroke="#282C38" stroke-width="4" stroke-miterlimit="10" stroke-linecap="round" stroke-linejoin="round"/>
<path d="M268.386 149.423C268.386 149.423 255.767 162.532 238 151.815" stroke="#282C38" stroke-width="4" stroke-miterlimit="10" stroke-linecap="round" stroke-linejoin="round"/>
<circle cx="198.982" cy="163.581" r="6.00002" transform="rotate(9.95629 198.982 163.581)" fill="#282C38"/>
<circle cx="246.675" cy="169.516" r="6.00002" transform="rotate(9.95629 246.675 169.516)" fill="#282C38"/>
<path d="M158.199 172.246L171.697 179.739" stroke="#282C38" stroke-width="4" stroke-miterlimit="10" stroke-linecap="round"/>
<path d="M168.437 184.679L155.131 183.699" stroke="#282C38" stroke-width="4" stroke-miterlimit="10" stroke-linecap="round"/>
<path d="M169.07 191.958L158.736 194.355" stroke="#282C38" stroke-width="4" stroke-miterlimit="10" stroke-linecap="round"/>
<path d="M266.678 194.204L280.143 194.582" stroke="#282C38" stroke-width="4" stroke-miterlimit="10" stroke-linecap="round"/>
<path d="M267.473 200.879L275.913 203.14" stroke="#282C38" stroke-width="4" stroke-miterlimit="10" stroke-linecap="round"/>
<path d="M267.667 207.391L278.312 213.476" stroke="#282C38" stroke-width="4" stroke-miterlimit="10" stroke-linecap="round"/>
<path d="M344.551 316.273C333.627 300.541 337.523 278.932 353.255 268.008C368.986 257.083 390.595 260.98 401.52 276.711L419.003 301.887C420.272 303.715 419.819 306.224 417.992 307.493L367.64 342.46C365.813 343.729 363.303 343.276 362.034 341.449L344.551 316.273Z" fill="#0D76E9" stroke="#0D76E9" stroke-width="1.15082"/>
<path d="M117.547 116.749C117.547 116.749 103.341 139.93 103.388 150.936C103.438 161.943 118.991 156.116 129.048 170.804C139.104 185.491 145.813 208.865 194.238 225.837C242.662 242.81 279.667 224.155 293.924 211.983C308.179 199.812 311.994 181.844 329.962 185.658C347.93 189.473 342.255 150.972 338.158 143.877C338.158 143.877 386.405 101.833 389.903 88.7778C393.401 75.723 360.013 69.7755 316.665 71.1531C316.665 71.1531 291.072 47.3046 234.487 42.1362C177.901 36.9678 157.8 48.5753 157.8 48.5753C157.8 48.5753 88.4099 38.9762 81.4974 46.1206C74.588 53.2632 79.0804 92.4475 117.547 116.749Z" stroke="#282C38" stroke-width="2.7921" stroke-miterlimit="10"/>
<path d="M52.376 271.643C101.094 230.789 229.372 173.593 352.74 271.643" stroke="#0D76E9" stroke-width="13.8098" stroke-linecap="round"/>
<path d="M220.775 205.508C220.775 205.508 197.866 221.664 187.717 199.306" stroke="#282C38" stroke-width="4.60328" stroke-miterlimit="10" stroke-linecap="round" stroke-linejoin="round"/>
<path d="M217.294 205.439C217.294 205.439 225.962 217.364 239.692 214.104C253.421 210.845 248.593 201.025 248.593 201.025" stroke="#282C38" stroke-width="4.60328" stroke-miterlimit="10" stroke-linecap="round" stroke-linejoin="round"/>
</svg>
