<svg viewBox="0 0 120 61" fill="none" xmlns="http://www.w3.org/2000/svg">
<rect x="1.48214" y="0.649135" width="117.036" height="59.0357" rx="3.71786" fill="white" stroke="#D7DBEB" stroke-width="1.03571"/>
<path d="M90.0355 30.6943L73.4641 1.16699H114.8C116.567 1.16699 118 2.59968 118 4.36699V55.967C118 57.7343 116.567 59.167 114.8 59.167H73.4641L90.0355 30.6943Z" fill="#FF492C"/>
<path d="M110.848 38.7602C109.445 39.6348 107.853 40.1613 106.205 40.2957C104.557 40.4302 102.901 40.1687 101.374 39.5331C99.8476 38.8975 98.4952 37.9063 97.4296 36.6419C96.364 35.3776 95.6161 33.8769 95.2483 32.2648C94.8804 30.6528 94.9032 28.9761 95.3148 27.3747C95.7265 25.7733 96.515 24.2935 97.6146 23.0586C98.7142 21.8238 100.093 20.8697 101.636 20.2759C103.179 19.6821 104.842 19.4659 106.486 19.6451L105.933 24.7123C105.097 24.6211 104.252 24.7311 103.467 25.0331C102.682 25.3351 101.981 25.8204 101.421 26.4484C100.862 27.0765 100.461 27.8291 100.252 28.6436C100.042 29.4581 100.031 30.3109 100.218 31.1308C100.405 31.9507 100.785 32.714 101.327 33.357C101.869 34.0001 102.557 34.5042 103.333 34.8275C104.11 35.1508 104.952 35.2838 105.79 35.2154C106.629 35.147 107.438 34.8792 108.152 34.4344L110.848 38.7602Z" fill="white"/>
<path d="M106.607 29.1318L104.019 33.2747H109.196L111.786 37.9354L113.857 33.2747L111.269 29.1318H106.607Z" fill="white"/>
<path d="M107.996 26.7744V25.7374L109.977 24.0989C110.108 23.9901 110.221 23.8881 110.314 23.793C110.409 23.6962 110.482 23.5969 110.532 23.4949C110.584 23.3929 110.61 23.2797 110.61 23.1553C110.61 23.0187 110.58 22.9021 110.521 22.8053C110.464 22.7085 110.385 22.6342 110.283 22.5823C110.181 22.5287 110.063 22.5019 109.93 22.5019C109.797 22.5019 109.68 22.5287 109.578 22.5823C109.478 22.6359 109.4 22.7145 109.344 22.8182C109.289 22.9219 109.261 23.0481 109.261 23.1967H107.893C107.893 22.8234 107.976 22.5019 108.144 22.2323C108.312 21.9627 108.549 21.7553 108.854 21.6101C109.16 21.4649 109.519 21.3924 109.93 21.3924C110.356 21.3924 110.724 21.4606 111.035 21.5972C111.348 21.732 111.589 21.9221 111.758 22.1675C111.929 22.4129 112.015 22.7007 112.015 23.0308C112.015 23.2348 111.972 23.4378 111.888 23.6401C111.803 23.8406 111.651 24.0626 111.431 24.3063C111.212 24.55 110.9 24.8404 110.496 25.1774L109.998 25.5922V25.6233H112.072V26.7744H107.996Z" fill="white"/>
<path d="M15.4643 17.7383L17.2979 21.4288L21.3744 22.0322L18.4312 24.9166L19.117 28.98L15.4643 27.0721L11.8116 28.98L12.4974 24.9166L9.55415 22.0322L13.6306 21.4288L15.4643 17.7383Z" fill="#FF492C"/>
<path d="M28.9283 17.7383L30.762 21.4288L34.8385 22.0322L31.8952 24.9166L32.581 28.98L28.9283 27.0721L25.2757 28.98L25.9614 24.9166L23.0182 22.0322L27.0947 21.4288L28.9283 17.7383Z" fill="#FF492C"/>
<path d="M42.3929 17.7383L44.2265 21.4288L48.303 22.0322L45.3598 24.9166L46.0455 28.98L42.3929 27.0721L38.7402 28.98L39.426 24.9166L36.4827 22.0322L40.5592 21.4288L42.3929 17.7383Z" fill="#FF492C"/>
<path d="M55.8572 17.7383L57.6909 21.4288L61.7674 22.0322L58.8241 24.9166L59.5099 28.98L55.8572 27.0721L52.2046 28.98L52.8903 24.9166L49.9471 22.0322L54.0236 21.4288L55.8572 17.7383Z" fill="#FF492C"/>
<path d="M69.3213 17.7383L71.155 21.4288L75.2315 22.0322L72.2882 24.9166L72.974 28.98L69.3213 27.0721L65.6687 28.98L66.3545 24.9166L63.4112 22.0322L67.4877 21.4288L69.3213 17.7383Z" fill="#FF492C"/>
<path d="M9.89294 40.2383V34.9288H11.687C12.1018 34.9288 12.4423 34.9997 12.7084 35.1414C12.9746 35.2814 13.1716 35.4741 13.2995 35.7195C13.4274 35.965 13.4914 36.2441 13.4914 36.5569C13.4914 36.8697 13.4274 37.1471 13.2995 37.3891C13.1716 37.6311 12.9754 37.8212 12.711 37.9595C12.4466 38.096 12.1087 38.1643 11.6973 38.1643H10.2455V37.5835H11.6766C11.96 37.5835 12.1882 37.5421 12.361 37.4591C12.5356 37.3761 12.6618 37.2586 12.7395 37.1065C12.819 36.9527 12.8588 36.7695 12.8588 36.5569C12.8588 36.3443 12.819 36.1585 12.7395 35.9995C12.66 35.8405 12.533 35.7178 12.3584 35.6314C12.1839 35.5432 11.9531 35.4992 11.6662 35.4992H10.5359V40.2383H9.89294ZM12.3921 37.8532L13.6988 40.2383H12.9521L11.6662 37.8532H12.3921ZM16.1066 40.3212C15.7229 40.3212 15.3919 40.2366 15.1136 40.0672C14.8371 39.8961 14.6236 39.6576 14.4733 39.3516C14.3246 39.044 14.2503 38.6862 14.2503 38.2783C14.2503 37.8705 14.3246 37.511 14.4733 37.1999C14.6236 36.887 14.8328 36.6433 15.1007 36.4688C15.3703 36.2925 15.6848 36.2043 16.0443 36.2043C16.2517 36.2043 16.4565 36.2389 16.6588 36.308C16.861 36.3772 17.045 36.4895 17.211 36.6451C17.3769 36.7989 17.5091 37.0028 17.6076 37.2569C17.7061 37.511 17.7554 37.8238 17.7554 38.1954V38.4546H14.6859V37.9258H17.1332C17.1332 37.7011 17.0883 37.5006 16.9984 37.3243C16.9102 37.148 16.7841 37.0089 16.6199 36.9069C16.4574 36.8049 16.2656 36.7539 16.0443 36.7539C15.8006 36.7539 15.5898 36.8144 15.4118 36.9354C15.2355 37.0547 15.0998 37.2102 15.0047 37.4021C14.9097 37.5939 14.8621 37.7996 14.8621 38.0191V38.3717C14.8621 38.6724 14.914 38.9273 15.0177 39.1365C15.1231 39.3439 15.2692 39.502 15.4558 39.6109C15.6425 39.718 15.8594 39.7716 16.1066 39.7716C16.2673 39.7716 16.4125 39.7492 16.5421 39.7042C16.6735 39.6576 16.7867 39.5884 16.8817 39.4968C16.9768 39.4035 17.0502 39.2877 17.1021 39.1494L17.6932 39.3153C17.631 39.5158 17.5264 39.6921 17.3795 39.8442C17.2326 39.9946 17.0511 40.1121 16.8351 40.1968C16.619 40.2798 16.3762 40.3212 16.1066 40.3212ZM19.8579 40.3316C19.6056 40.3316 19.3766 40.2841 19.1709 40.189C18.9652 40.0922 18.8019 39.9531 18.6809 39.7716C18.5599 39.5884 18.4994 39.3672 18.4994 39.1079C18.4994 38.8798 18.5444 38.6949 18.6343 38.5531C18.7241 38.4097 18.8443 38.2974 18.9946 38.2161C19.145 38.1349 19.3109 38.0744 19.4924 38.0346C19.6756 37.9932 19.8597 37.9603 20.0446 37.9361C20.2866 37.905 20.4827 37.8817 20.6331 37.8661C20.7852 37.8488 20.8958 37.8203 20.9649 37.7806C21.0358 37.7408 21.0712 37.6717 21.0712 37.5732V37.5524C21.0712 37.2966 21.0012 37.0979 20.8612 36.9562C20.723 36.8144 20.513 36.7436 20.2312 36.7436C19.9392 36.7436 19.7102 36.8075 19.5442 36.9354C19.3783 37.0633 19.2616 37.1999 19.1942 37.345L18.6135 37.1376C18.7172 36.8957 18.8555 36.7073 19.0283 36.5725C19.2029 36.4359 19.393 36.3409 19.5987 36.2873C19.8061 36.232 20.01 36.2043 20.2105 36.2043C20.3384 36.2043 20.4853 36.2199 20.6512 36.251C20.8189 36.2804 20.9805 36.3417 21.136 36.4351C21.2933 36.5284 21.4238 36.6693 21.5275 36.8576C21.6312 37.046 21.6831 37.2984 21.6831 37.6147V40.2383H21.0712V39.699H21.0401C20.9986 39.7855 20.9295 39.8779 20.8327 39.9764C20.7359 40.075 20.6072 40.1588 20.4464 40.2279C20.2857 40.297 20.0895 40.3316 19.8579 40.3316ZM19.9513 39.782C20.1932 39.782 20.3972 39.7345 20.5631 39.6394C20.7307 39.5444 20.8569 39.4216 20.9416 39.2713C21.028 39.1209 21.0712 38.9628 21.0712 38.7968V38.2369C21.0453 38.268 20.9883 38.2965 20.9001 38.3224C20.8137 38.3466 20.7135 38.3682 20.5994 38.3872C20.487 38.4045 20.3773 38.4201 20.2701 38.4339C20.1647 38.446 20.0792 38.4564 20.0135 38.465C19.8545 38.4857 19.7058 38.5194 19.5676 38.5661C19.431 38.611 19.3204 38.6793 19.2357 38.7709C19.1528 38.8608 19.1113 38.9835 19.1113 39.1391C19.1113 39.3516 19.1899 39.5124 19.3472 39.6213C19.5062 39.7284 19.7076 39.782 19.9513 39.782ZM24.3034 40.3212C23.9716 40.3212 23.6786 40.2374 23.4246 40.0698C23.1705 39.9004 22.9718 39.6619 22.8283 39.3542C22.6848 39.0449 22.6131 38.6793 22.6131 38.2576C22.6131 37.8393 22.6848 37.4764 22.8283 37.1687C22.9718 36.8611 23.1714 36.6235 23.4272 36.4558C23.683 36.2882 23.9785 36.2043 24.3138 36.2043C24.5731 36.2043 24.7779 36.2475 24.9282 36.334C25.0803 36.4186 25.1961 36.5154 25.2756 36.6243C25.3569 36.7315 25.4199 36.8196 25.4649 36.8888H25.5167V34.9288H26.1286V40.2383H25.5375V39.6264H25.4649C25.4199 39.699 25.356 39.7906 25.273 39.9013C25.1901 40.0101 25.0717 40.1078 24.9179 40.1942C24.764 40.2789 24.5592 40.3212 24.3034 40.3212ZM24.3864 39.7716C24.6318 39.7716 24.8392 39.7077 25.0086 39.5798C25.178 39.4502 25.3067 39.2713 25.3949 39.0431C25.483 38.8133 25.5271 38.548 25.5271 38.2472C25.5271 37.95 25.4839 37.6898 25.3975 37.4669C25.3111 37.2422 25.1832 37.0676 25.0138 36.9432C24.8444 36.817 24.6353 36.7539 24.3864 36.7539C24.1271 36.7539 23.9111 36.8205 23.7383 36.9536C23.5672 37.0849 23.4384 37.2638 23.352 37.4902C23.2673 37.7149 23.225 37.9672 23.225 38.2472C23.225 38.5307 23.2682 38.7882 23.3546 39.0198C23.4427 39.2497 23.5724 39.4329 23.7435 39.5694C23.9163 39.7042 24.1306 39.7716 24.3864 39.7716ZM31.0051 40.3212C30.6456 40.3212 30.3302 40.2357 30.0588 40.0646C29.7892 39.8935 29.5783 39.6541 29.4263 39.3465C29.2759 39.0388 29.2007 38.6793 29.2007 38.268C29.2007 37.8532 29.2759 37.4911 29.4263 37.1817C29.5783 36.8723 29.7892 36.6321 30.0588 36.461C30.3302 36.2899 30.6456 36.2043 31.0051 36.2043C31.3646 36.2043 31.6791 36.2899 31.9488 36.461C32.2201 36.6321 32.431 36.8723 32.5813 37.1817C32.7334 37.4911 32.8095 37.8532 32.8095 38.268C32.8095 38.6793 32.7334 39.0388 32.5813 39.3465C32.431 39.6541 32.2201 39.8935 31.9488 40.0646C31.6791 40.2357 31.3646 40.3212 31.0051 40.3212ZM31.0051 39.7716C31.2782 39.7716 31.5029 39.7016 31.6791 39.5616C31.8554 39.4216 31.9859 39.2376 32.0706 39.0094C32.1553 38.7813 32.1976 38.5341 32.1976 38.268C32.1976 38.0018 32.1553 37.7538 32.0706 37.5239C31.9859 37.294 31.8554 37.1083 31.6791 36.9665C31.5029 36.8248 31.2782 36.7539 31.0051 36.7539C30.732 36.7539 30.5073 36.8248 30.331 36.9665C30.1547 37.1083 30.0243 37.294 29.9396 37.5239C29.8549 37.7538 29.8125 38.0018 29.8125 38.268C29.8125 38.5341 29.8549 38.7813 29.9396 39.0094C30.0243 39.2376 30.1547 39.4216 30.331 39.5616C30.5073 39.7016 30.732 39.7716 31.0051 39.7716ZM36.253 38.6102V36.2562H36.8648V40.2383H36.253V39.5642H36.2115C36.1182 39.7664 35.973 39.9384 35.776 40.0801C35.5789 40.2201 35.3301 40.2901 35.0293 40.2901C34.7804 40.2901 34.5592 40.2357 34.3656 40.1268C34.1721 40.0162 34.02 39.8503 33.9094 39.629C33.7987 39.4061 33.7434 39.1252 33.7434 38.7865V36.2562H34.3553V38.745C34.3553 39.0354 34.4365 39.267 34.599 39.4398C34.7632 39.6126 34.9723 39.699 35.2264 39.699C35.3784 39.699 35.5331 39.6602 35.6904 39.5824C35.8494 39.5046 35.9825 39.3853 36.0897 39.2246C36.1985 39.0639 36.253 38.8591 36.253 38.6102ZM37.9854 40.2383V36.2562H38.5765V36.8576H38.618C38.6906 36.6606 38.822 36.5007 39.0121 36.378C39.2022 36.2553 39.4165 36.194 39.655 36.194C39.7 36.194 39.7561 36.1948 39.8235 36.1965C39.8909 36.1983 39.9419 36.2009 39.9765 36.2043V36.8265C39.9558 36.8213 39.9082 36.8136 39.8339 36.8032C39.7613 36.7911 39.6844 36.7851 39.6032 36.7851C39.4096 36.7851 39.2368 36.8257 39.0847 36.9069C38.9343 36.9864 38.815 37.097 38.7269 37.2387C38.6405 37.3787 38.5973 37.5386 38.5973 37.7184V40.2383H37.9854ZM42.755 40.2383V36.2562H43.3461V36.8576H43.3876C43.4602 36.6606 43.5915 36.5007 43.7817 36.378C43.9718 36.2553 44.1861 36.194 44.4246 36.194C44.4695 36.194 44.5257 36.1948 44.5931 36.1965C44.6605 36.1983 44.7115 36.2009 44.7461 36.2043V36.8265C44.7253 36.8213 44.6778 36.8136 44.6035 36.8032C44.5309 36.7911 44.454 36.7851 44.3727 36.7851C44.1792 36.7851 44.0063 36.8257 43.8542 36.9069C43.7039 36.9864 43.5846 37.097 43.4965 37.2387C43.4101 37.3787 43.3669 37.5386 43.3669 37.7184V40.2383H42.755ZM47.0197 40.3212C46.636 40.3212 46.305 40.2366 46.0268 40.0672C45.7502 39.8961 45.5368 39.6576 45.3864 39.3516C45.2378 39.044 45.1635 38.6862 45.1635 38.2783C45.1635 37.8705 45.2378 37.511 45.3864 37.1999C45.5368 36.887 45.7459 36.6433 46.0138 36.4688C46.2834 36.2925 46.598 36.2043 46.9575 36.2043C47.1649 36.2043 47.3697 36.2389 47.5719 36.308C47.7741 36.3772 47.9582 36.4895 48.1241 36.6451C48.29 36.7989 48.4223 37.0028 48.5208 37.2569C48.6193 37.511 48.6685 37.8238 48.6685 38.1954V38.4546H45.599V37.9258H48.0463C48.0463 37.7011 48.0014 37.5006 47.9115 37.3243C47.8234 37.148 47.6972 37.0089 47.533 36.9069C47.3706 36.8049 47.1787 36.7539 46.9575 36.7539C46.7138 36.7539 46.5029 36.8144 46.3249 36.9354C46.1486 37.0547 46.0129 37.2102 45.9179 37.4021C45.8228 37.5939 45.7753 37.7996 45.7753 38.0191V38.3717C45.7753 38.6724 45.8271 38.9273 45.9308 39.1365C46.0363 39.3439 46.1823 39.502 46.369 39.6109C46.5556 39.718 46.7726 39.7716 47.0197 39.7716C47.1804 39.7716 47.3256 39.7492 47.4552 39.7042C47.5866 39.6576 47.6998 39.5884 47.7949 39.4968C47.8899 39.4035 47.9634 39.2877 48.0152 39.1494L48.6063 39.3153C48.5441 39.5158 48.4395 39.6921 48.2926 39.8442C48.1457 39.9946 47.9642 40.1121 47.7482 40.1968C47.5322 40.2798 47.2893 40.3212 47.0197 40.3212ZM52.7343 36.2562L51.2617 40.2383H50.6395L49.167 36.2562H49.8306L50.9299 39.4294H50.9713L52.0706 36.2562H52.7343ZM53.5418 40.2383V36.2562H54.1537V40.2383H53.5418ZM53.8529 35.5925C53.7337 35.5925 53.6308 35.5519 53.5444 35.4706C53.4597 35.3894 53.4174 35.2918 53.4174 35.1777C53.4174 35.0636 53.4597 34.966 53.5444 34.8847C53.6308 34.8035 53.7337 34.7629 53.8529 34.7629C53.9722 34.7629 54.0742 34.8035 54.1588 34.8847C54.2453 34.966 54.2885 35.0636 54.2885 35.1777C54.2885 35.2918 54.2453 35.3894 54.1588 35.4706C54.0742 35.5519 53.9722 35.5925 53.8529 35.5925ZM56.9439 40.3212C56.5602 40.3212 56.2292 40.2366 55.9509 40.0672C55.6744 39.8961 55.4609 39.6576 55.3106 39.3516C55.1619 39.044 55.0876 38.6862 55.0876 38.2783C55.0876 37.8705 55.1619 37.511 55.3106 37.1999C55.4609 36.887 55.6701 36.6433 55.938 36.4688C56.2076 36.2925 56.5221 36.2043 56.8816 36.2043C57.089 36.2043 57.2938 36.2389 57.4961 36.308C57.6983 36.3772 57.8823 36.4895 58.0483 36.6451C58.2142 36.7989 58.3464 37.0028 58.4449 37.2569C58.5434 37.511 58.5927 37.8238 58.5927 38.1954V38.4546H55.5232V37.9258H57.9705C57.9705 37.7011 57.9256 37.5006 57.8357 37.3243C57.7475 37.148 57.6214 37.0089 57.4572 36.9069C57.2947 36.8049 57.1029 36.7539 56.8816 36.7539C56.6379 36.7539 56.4271 36.8144 56.2491 36.9354C56.0728 37.0547 55.9371 37.2102 55.842 37.4021C55.747 37.5939 55.6994 37.7996 55.6994 38.0191V38.3717C55.6994 38.6724 55.7513 38.9273 55.855 39.1365C55.9604 39.3439 56.1065 39.502 56.2931 39.6109C56.4798 39.718 56.6967 39.7716 56.9439 39.7716C57.1046 39.7716 57.2498 39.7492 57.3794 39.7042C57.5108 39.6576 57.624 39.5884 57.719 39.4968C57.8141 39.4035 57.8875 39.2877 57.9394 39.1494L58.5305 39.3153C58.4683 39.5158 58.3637 39.6921 58.2168 39.8442C58.0699 39.9946 57.8884 40.1121 57.6724 40.1968C57.4563 40.2798 57.2135 40.3212 56.9439 40.3212ZM60.4256 40.2383L59.2123 36.2562H59.8552L60.716 39.305H60.7574L61.6078 36.2562H62.2611L63.1011 39.2946H63.1426L64.0033 36.2562H64.6462L63.4329 40.2383H62.8315L61.9604 37.1791H61.8982L61.0271 40.2383H60.4256ZM68.2757 37.148L67.7261 37.3036C67.6916 37.212 67.6406 37.1229 67.5732 37.0365C67.5075 36.9484 67.4176 36.8758 67.3035 36.8188C67.1895 36.7617 67.0434 36.7332 66.8654 36.7332C66.6217 36.7332 66.4186 36.7894 66.2562 36.9017C66.0954 37.0123 66.0151 37.1532 66.0151 37.3243C66.0151 37.4764 66.0704 37.5965 66.181 37.6847C66.2916 37.7728 66.4644 37.8463 66.6995 37.905L67.2906 38.0502C67.6466 38.1366 67.9119 38.2688 68.0865 38.4469C68.261 38.6231 68.3483 38.8504 68.3483 39.1287C68.3483 39.3568 68.2827 39.5608 68.1513 39.7405C68.0217 39.9203 67.8402 40.062 67.6069 40.1657C67.3735 40.2694 67.1022 40.3212 66.7928 40.3212C66.3867 40.3212 66.0505 40.2331 65.7843 40.0568C65.5182 39.8805 65.3497 39.623 65.2788 39.2842L65.8595 39.1391C65.9148 39.3534 66.0194 39.5141 66.1732 39.6213C66.3288 39.7284 66.5318 39.782 66.7825 39.782C67.0676 39.782 67.294 39.7215 67.4617 39.6005C67.6311 39.4778 67.7158 39.3309 67.7158 39.1598C67.7158 39.0215 67.6674 38.9057 67.5706 38.8124C67.4738 38.7173 67.3252 38.6465 67.1247 38.5998L66.461 38.4443C66.0963 38.3578 65.8284 38.2239 65.6573 38.0424C65.4879 37.8592 65.4032 37.6302 65.4032 37.3554C65.4032 37.1307 65.4663 36.932 65.5925 36.7591C65.7204 36.5863 65.8941 36.4506 66.1136 36.3521C66.3348 36.2536 66.5854 36.2043 66.8654 36.2043C67.2595 36.2043 67.5688 36.2907 67.7935 36.4636C68.0199 36.6364 68.1807 36.8646 68.2757 37.148ZM72.9403 40.3212C72.5808 40.3212 72.2654 40.2357 71.9941 40.0646C71.7244 39.8935 71.5136 39.6541 71.3615 39.3465C71.2111 39.0388 71.1359 38.6793 71.1359 38.268C71.1359 37.8532 71.2111 37.4911 71.3615 37.1817C71.5136 36.8723 71.7244 36.6321 71.9941 36.461C72.2654 36.2899 72.5808 36.2043 72.9403 36.2043C73.2998 36.2043 73.6144 36.2899 73.884 36.461C74.1553 36.6321 74.3662 36.8723 74.5166 37.1817C74.6687 37.4911 74.7447 37.8532 74.7447 38.268C74.7447 38.6793 74.6687 39.0388 74.5166 39.3465C74.3662 39.6541 74.1553 39.8935 73.884 40.0646C73.6144 40.2357 73.2998 40.3212 72.9403 40.3212ZM72.9403 39.7716C73.2134 39.7716 73.4381 39.7016 73.6144 39.5616C73.7907 39.4216 73.9212 39.2376 74.0058 39.0094C74.0905 38.7813 74.1329 38.5341 74.1329 38.268C74.1329 38.0018 74.0905 37.7538 74.0058 37.5239C73.9212 37.294 73.7907 37.1083 73.6144 36.9665C73.4381 36.8248 73.2134 36.7539 72.9403 36.7539C72.6672 36.7539 72.4426 36.8248 72.2663 36.9665C72.09 37.1083 71.9595 37.294 71.8748 37.5239C71.7901 37.7538 71.7478 38.0018 71.7478 38.268C71.7478 38.5341 71.7901 38.7813 71.8748 39.0094C71.9595 39.2376 72.09 39.4216 72.2663 39.5616C72.4426 39.7016 72.6672 39.7716 72.9403 39.7716ZM76.2905 37.8428V40.2383H75.6787V36.2562H76.2698V36.8784H76.3216C76.4149 36.6762 76.5567 36.5137 76.7468 36.391C76.9369 36.2665 77.1823 36.2043 77.4831 36.2043C77.7527 36.2043 77.9886 36.2596 78.1908 36.3702C78.393 36.4791 78.5503 36.6451 78.6627 36.868C78.775 37.0892 78.8312 37.3692 78.8312 37.708V40.2383H78.2193V37.7495C78.2193 37.4366 78.1381 37.1929 77.9756 37.0184C77.8132 36.8421 77.5902 36.7539 77.3068 36.7539C77.1115 36.7539 76.9369 36.7963 76.7831 36.881C76.631 36.9657 76.5109 37.0892 76.4227 37.2517C76.3346 37.4142 76.2905 37.6112 76.2905 37.8428Z" fill="#1C1C1C"/>
</svg>
