<svg width="30" height="30" viewBox="0 0 30 30" fill="none" xmlns="http://www.w3.org/2000/svg">
<path d="M5 7C5 4.79086 6.91878 3 9.28571 3H16.6737C17.4314 3 18.1582 3.28095 18.694 3.78105L24.1632 8.88562C24.699 9.38572 25 10.064 25 10.7712V23C25 25.2091 23.0812 27 20.7143 27H9.28571C6.91878 27 5 25.2091 5 23V7Z" fill="white" stroke="#D7DBEB"/>
<path d="M10.2001 20.798C9.64955 20.23 10.2452 19.4495 11.8617 18.6207L12.8789 18.0992L13.2752 17.2047C13.4931 16.7127 13.8184 15.91 13.998 15.4208L14.3246 14.5315L14.0995 13.8733C13.8228 13.064 13.7241 11.8479 13.8997 11.4106C14.1375 10.8183 14.9165 10.879 15.2249 11.514C15.4657 12.0099 15.4411 12.9079 15.1556 14.0405L14.9216 14.969L15.1277 15.3301C15.2411 15.5287 15.5723 16.0003 15.8638 16.378L16.4115 17.0809L17.0931 16.9892C19.2584 16.6977 20 17.1931 20 17.9035C20 18.8 18.2998 18.874 16.8721 17.8394C16.5508 17.6066 16.3302 17.3754 16.3302 17.3754C16.3302 17.3754 15.4358 17.5633 14.9954 17.6857C14.5408 17.8121 14.3141 17.8913 13.6482 18.1232C13.6482 18.1232 13.4146 18.4732 13.2623 18.7277C12.696 19.6744 12.0346 20.4589 11.5624 20.7445C11.0336 21.0642 10.4792 21.086 10.2001 20.798ZM11.0641 20.4796C11.3736 20.2822 12 19.5179 12.4336 18.8085L12.6091 18.5213L11.8098 18.936C10.5752 19.5764 10.0104 20.18 10.3041 20.5451C10.4691 20.7501 10.6664 20.7331 11.0641 20.4796ZM19.0835 18.1573C19.3862 17.9385 19.3422 17.4977 19 17.32C18.7337 17.1817 18.519 17.1533 17.8272 17.1638C17.402 17.1937 16.7184 17.2821 16.6025 17.309C16.6025 17.309 16.9781 17.5768 17.1448 17.6752C17.3668 17.806 17.9062 18.0488 18.3 18.1732C18.6885 18.2959 18.9132 18.2829 19.0835 18.1572V18.1573ZM15.859 16.7746C15.6758 16.5759 15.3643 16.1613 15.1668 15.8531C14.9084 15.5036 14.7789 15.257 14.7789 15.257C14.7789 15.257 14.5901 15.8836 14.4351 16.2606L13.9518 17.4931L13.8117 17.7726C13.8117 17.7726 14.5567 17.5206 14.9357 17.4185C15.3371 17.3103 16.1519 17.145 16.1519 17.145L15.859 16.7746ZM14.8199 12.4754C14.8666 12.0708 14.8864 11.6669 14.7604 11.4632C14.411 11.069 13.9892 11.3977 14.0606 12.3347C14.0847 12.6499 14.1606 13.1888 14.2621 13.5209L14.4466 14.1248L14.5764 13.67C14.6478 13.4198 14.7574 12.8822 14.8199 12.4754Z" fill="#FF2116"/>
</svg>
