<svg width="30" height="30" viewBox="0 0 30 30" fill="none" xmlns="http://www.w3.org/2000/svg">
<path d="M5 7C5 4.79086 6.91878 3 9.28571 3H16.6737C17.4314 3 18.1582 3.28095 18.694 3.78105L24.1632 8.88562C24.699 9.38572 25 10.064 25 10.7712V23C25 25.2091 23.0812 27 20.7143 27H9.28571C6.91878 27 5 25.2091 5 23V7Z" fill="white" stroke="#D7DBEB"/>
<path d="M15.0864 12.0086C15.8603 11.9512 16.6286 12.1816 17.2512 12.6578C17.5037 12.8907 17.7018 13.1792 17.8307 13.5018C17.9597 13.8244 18.0162 14.1728 17.996 14.5209C18.0063 14.9831 17.8761 15.4369 17.6236 15.8193C17.3696 16.2293 17.0088 16.5577 16.5822 16.7671C16.0903 17.0015 15.5527 17.1169 15.0106 17.1047H13.5211V20H12V12.0086H15.0864ZM13.5022 15.7544H14.815C15.2311 15.7816 15.643 15.655 15.9763 15.3973C16.1067 15.3095 16.2118 15.1873 16.2807 15.0434C16.3495 14.8995 16.3795 14.7393 16.3676 14.5794C16.3676 13.69 15.869 13.281 14.8655 13.281H13.5022V15.7544Z" fill="#C43E1C"/>
</svg>
