<svg width="15" height="15" viewBox="0 0 15 15" fill="none" xmlns="http://www.w3.org/2000/svg">
<g clip-path="url(#clip0_11125_50133)">
<rect x="4.47827" y="1.55554" width="11" height="12" rx="0.966566" fill="url(#paint0_linear_11125_50133)"/>
<path d="M3.97827 10.6184H14.4783V12.7143C14.4783 13.2482 14.0455 13.6809 13.5117 13.6809H4.94484C4.41102 13.6809 3.97827 13.2482 3.97827 12.7143V10.6184Z" fill="url(#paint1_linear_11125_50133)"/>
<rect x="4.47827" y="7.55554" width="11" height="3" fill="url(#paint2_linear_11125_50133)"/>
<rect x="4.47827" y="4.55554" width="11" height="3" fill="url(#paint3_linear_11125_50133)"/>
<path d="M3.97827 5.94314C3.97827 5.14241 4.62739 4.49329 5.42812 4.49329H7.77842C8.57915 4.49329 9.22827 5.14241 9.22827 5.94314V10.9184C9.22827 11.7192 8.57915 12.3683 7.77842 12.3683H3.97827V5.94314Z" fill="#181818" fill-opacity="0.3"/>
<rect x="0.478271" y="3.55554" width="8" height="8" rx="0.966566" fill="url(#paint4_linear_11125_50133)"/>
<path d="M7.04065 5.37449H6.18852L5.51941 8.2291L4.78738 5.36829H4.06679L3.32905 8.2291L2.66565 5.37449H1.79065L2.92872 9.74329H3.68362L4.41565 6.98176L5.14768 9.74329H5.90258L7.04065 5.37449Z" fill="white"/>
</g>
<defs>
<linearGradient id="paint0_linear_11125_50133" x1="4.47827" y1="3.55554" x2="15.4783" y2="3.55554" gradientUnits="userSpaceOnUse">
<stop stop-color="#2B78B1"/>
<stop offset="1" stop-color="#338ACD"/>
</linearGradient>
<linearGradient id="paint1_linear_11125_50133" x1="3.97827" y1="12.5325" x2="14.4783" y2="12.5325" gradientUnits="userSpaceOnUse">
<stop stop-color="#1B366F"/>
<stop offset="1" stop-color="#2657B0"/>
</linearGradient>
<linearGradient id="paint2_linear_11125_50133" x1="9.29077" y1="9.26983" x2="15.4783" y2="9.26983" gradientUnits="userSpaceOnUse">
<stop stop-color="#20478B"/>
<stop offset="1" stop-color="#2D6FD1"/>
</linearGradient>
<linearGradient id="paint3_linear_11125_50133" x1="9.29077" y1="6.26983" x2="15.4783" y2="6.26983" gradientUnits="userSpaceOnUse">
<stop stop-color="#215295"/>
<stop offset="1" stop-color="#2E84D3"/>
</linearGradient>
<linearGradient id="paint4_linear_11125_50133" x1="0.478271" y1="7.99999" x2="8.92272" y2="7.99999" gradientUnits="userSpaceOnUse">
<stop stop-color="#223E74"/>
<stop offset="1" stop-color="#215091"/>
</linearGradient>
<clipPath id="clip0_11125_50133">
<rect width="14" height="14" fill="white" transform="translate(0.477783 0.555786)"/>
</clipPath>
</defs>
</svg>
