<svg xmlns="http://www.w3.org/2000/svg" width="200" height="201" viewBox="0 0 200 201" fill="none">
  <path d="M153.029 163.965C149.133 168.126 144.668 171.718 139.767 174.636C139.654 174.705 139.54 174.77 139.425 174.837L131.49 167.833C131.574 167.756 131.666 167.669 131.765 167.574C137.678 161.975 167.029 122.83 168.985 113.297C168.85 114.092 170.75 145.235 153.029 163.965Z" fill="#3DE297"/>
  <path d="M141.298 175.987C141.148 176.023 140.995 176.057 140.842 176.087L134.889 170.833C135.005 170.792 135.141 170.744 135.297 170.691C137.851 169.789 145.458 167.066 153.029 163.965C161.163 160.631 169.259 156.864 171 154.452C170.627 155.012 159.122 172.013 141.298 175.987Z" fill="#3DE297"/>
  <path d="M67.2882 51.4082V79.0052C62.8911 80.1589 58.2873 80.2912 53.8309 79.3921C49.3744 78.493 45.1842 76.5864 41.5826 73.8189C37.981 71.0515 35.064 67.497 33.056 63.4288C31.048 59.3607 30.0025 54.8875 30 50.3532C30 49.5439 30.0326 48.743 30.0978 47.9505H46.4123C47.1945 47.9512 47.9648 47.76 48.6554 47.3936C49.3459 47.0272 49.9355 46.4969 50.3719 45.8496C50.8084 45.2022 51.0784 44.4577 51.1581 43.6817C51.2378 42.9057 51.1247 42.122 50.8289 41.3999H57.2488C58.567 41.3994 59.8724 41.6579 61.0904 42.1607C62.3085 42.6635 63.4152 43.4006 64.3475 44.33C65.2798 45.2594 66.0194 46.3629 66.5239 47.5774C67.0285 48.7919 67.2882 50.0936 67.2882 51.4082Z" fill="#3DE297"/>
  <path d="M142.102 58.2791H141.221V34.324C141.221 32.5033 140.859 30.7004 140.156 29.0183C139.454 27.3362 138.424 25.8078 137.126 24.5203C135.828 23.2329 134.286 22.2116 132.59 21.5149C130.894 20.8181 129.076 20.4595 127.24 20.4595H76.0642C72.3563 20.4595 68.8004 21.9202 66.1785 24.5203C63.5567 27.1204 62.0837 30.6469 62.0837 34.324V165.743C62.0837 169.42 63.5567 172.947 66.1785 175.547C68.8003 178.147 72.3563 179.608 76.0641 179.608H127.24C130.948 179.608 134.504 178.147 137.126 175.547C139.748 172.947 141.221 169.42 141.221 165.743V75.3307H142.102L142.102 58.2791Z" fill="#1C1C1C"/>
  <path d="M138.245 165.647V34.4215C138.245 31.6754 137.145 29.0417 135.187 27.0999C133.229 25.1581 130.573 24.0672 127.804 24.0671H121.125H82.6203H76.3823C73.6132 24.0672 70.9576 25.1581 68.9995 27.0999C67.0415 29.0417 65.9415 31.6754 65.9414 34.4215V165.647C65.9415 168.394 67.0415 171.027 68.9995 172.969C70.9575 174.911 73.6132 176.002 76.3823 176.002H127.804C130.573 176.002 133.229 174.911 135.187 172.969C137.145 171.027 138.245 168.394 138.245 165.647Z" fill="white"/>
  <path d="M79.1232 36.2383C78.1966 36.2383 77.279 36.4193 76.4229 36.7709C75.5668 37.1226 74.789 37.638 74.1337 38.2878C73.4785 38.9376 72.9588 39.709 72.6041 40.558C72.2495 41.407 72.067 42.317 72.067 43.2359C72.067 44.1549 72.2495 45.0648 72.6041 45.9138C72.9587 46.7628 73.4785 47.5342 74.1337 48.184C74.7889 48.8338 75.5668 49.3493 76.4229 49.7009C77.279 50.0526 78.1965 50.2336 79.1231 50.2336H79.1232C80.9946 50.2336 82.7893 49.4964 84.1126 48.184C85.4359 46.8717 86.1793 45.0918 86.1793 43.2359C86.1793 41.38 85.4359 39.6002 84.1126 38.2878C82.7893 36.9755 80.9946 36.2383 79.1232 36.2383Z" fill="#F2F2F2"/>
  <path d="M130.355 49.1395H93.3104C92.8426 49.1395 92.3939 48.9552 92.0631 48.6271C91.7323 48.299 91.5464 47.854 91.5464 47.39C91.5464 46.9261 91.7323 46.4811 92.0631 46.153C92.3939 45.8249 92.8426 45.6406 93.3104 45.6406H130.355C130.823 45.6406 131.272 45.8249 131.603 46.153C131.933 46.4811 132.119 46.9261 132.119 47.39C132.119 47.854 131.933 48.299 131.603 48.6271C131.272 48.9552 130.823 49.1395 130.355 49.1395Z" fill="#F2F2F2"/>
  <path d="M104.997 41.7046H93.3104C92.8426 41.7046 92.3939 41.5203 92.0631 41.1923C91.7323 40.8642 91.5464 40.4192 91.5464 39.9552C91.5464 39.4913 91.7323 39.0463 92.0631 38.7182C92.3939 38.3901 92.8426 38.2058 93.3104 38.2058H104.997C105.465 38.2058 105.914 38.3901 106.245 38.7182C106.575 39.0463 106.761 39.4913 106.761 39.9552C106.761 40.4192 106.575 40.8642 106.245 41.1923C105.914 41.5203 105.465 41.7046 104.997 41.7046Z" fill="#F2F2F2"/>
  <path d="M79.1232 65.5403C78.1966 65.5403 77.279 65.7213 76.4229 66.0729C75.5668 66.4246 74.789 66.94 74.1337 67.5898C73.4785 68.2396 72.9588 69.011 72.6041 69.86C72.2495 70.709 72.067 71.619 72.067 72.5379C72.067 73.4569 72.2495 74.3668 72.6041 75.2158C72.9587 76.0648 73.4785 76.8362 74.1337 77.486C74.7889 78.1358 75.5668 78.6513 76.4229 79.0029C77.279 79.3546 78.1965 79.5356 79.1231 79.5356H79.1232C80.9946 79.5356 82.7893 78.7984 84.1126 77.4861C85.4359 76.1737 86.1793 74.3938 86.1793 72.538C86.1793 70.6821 85.4359 68.9022 84.1126 67.5899C82.7893 66.2775 80.9946 65.5403 79.1232 65.5403Z" fill="#F2F2F2"/>
  <path d="M130.355 78.4419H93.3104C92.8426 78.4419 92.3939 78.2576 92.0631 77.9296C91.7323 77.6015 91.5464 77.1565 91.5464 76.6925C91.5464 76.2286 91.7323 75.7836 92.0631 75.4555C92.3939 75.1274 92.8426 74.9431 93.3104 74.9431H130.355C130.823 74.9431 131.272 75.1274 131.603 75.4555C131.933 75.7836 132.119 76.2286 132.119 76.6925C132.119 77.1565 131.933 77.6015 131.603 77.9296C131.272 78.2576 130.823 78.4419 130.355 78.4419Z" fill="#F2F2F2"/>
  <path d="M104.997 71.0071H93.3104C92.8426 71.0071 92.3939 70.8228 92.0631 70.4947C91.7323 70.1667 91.5464 69.7217 91.5464 69.2577C91.5464 68.7937 91.7323 68.3488 92.0631 68.0207C92.3939 67.6926 92.8426 67.5083 93.3104 67.5083H104.997C105.465 67.5083 105.914 67.6926 106.245 68.0207C106.575 68.3488 106.761 68.7937 106.761 69.2577C106.761 69.7217 106.575 70.1667 106.245 70.4947C105.914 70.8228 105.465 71.0071 104.997 71.0071Z" fill="#F2F2F2"/>
  <path d="M79.1232 124.145C77.2518 124.145 75.457 124.883 74.1337 126.195C72.8104 127.507 72.067 129.287 72.067 131.143C72.067 132.999 72.8104 134.779 74.1337 136.091C75.457 137.403 77.2517 138.141 79.1231 138.141H79.1232C80.9946 138.141 82.7893 137.403 84.1126 136.091C85.4359 134.779 86.1793 132.999 86.1793 131.143C86.1793 129.287 85.4359 127.507 84.1126 126.195C82.7893 124.883 80.9946 124.145 79.1232 124.145Z" fill="#F2F2F2"/>
  <path d="M130.355 137.047H93.3104C92.8426 137.047 92.3939 136.863 92.0631 136.535C91.7323 136.207 91.5464 135.762 91.5464 135.298C91.5464 134.834 91.7323 134.389 92.0631 134.061C92.3939 133.733 92.8426 133.548 93.3104 133.548H130.355C130.823 133.548 131.272 133.733 131.603 134.061C131.933 134.389 132.119 134.834 132.119 135.298C132.119 135.762 131.933 136.207 131.603 136.535C131.272 136.863 130.823 137.047 130.355 137.047Z" fill="#F2F2F2"/>
  <path d="M104.997 129.612H93.3104C92.8426 129.612 92.3939 129.427 92.0631 129.099C91.7323 128.771 91.5464 128.326 91.5464 127.862C91.5464 127.398 91.7323 126.953 92.0631 126.625C92.3939 126.297 92.8426 126.113 93.3104 126.113H104.997C105.465 126.113 105.914 126.297 106.245 126.625C106.575 126.953 106.761 127.398 106.761 127.862C106.761 128.326 106.575 128.771 106.245 129.099C105.914 129.427 105.465 129.612 104.997 129.612Z" fill="#F2F2F2"/>
  <path d="M79.1232 153.448C78.1966 153.448 77.279 153.629 76.4229 153.981C75.5668 154.333 74.789 154.848 74.1337 155.498C73.4785 156.148 72.9588 156.919 72.6041 157.768C72.2495 158.617 72.067 159.527 72.067 160.446C72.067 161.365 72.2495 162.275 72.6041 163.124C72.9587 163.973 73.4785 164.744 74.1337 165.394C74.7889 166.044 75.5668 166.559 76.4229 166.911C77.279 167.263 78.1965 167.444 79.1231 167.444H79.1232C80.9946 167.444 82.7893 166.706 84.1126 165.394C85.4359 164.082 86.1793 162.302 86.1793 160.446C86.1793 158.59 85.4359 156.81 84.1126 155.498C82.7893 154.185 80.9946 153.448 79.1232 153.448Z" fill="#F2F2F2"/>
  <path d="M130.355 166.35H93.3104C92.8426 166.35 92.3939 166.166 92.0631 165.838C91.7323 165.51 91.5464 165.065 91.5464 164.601C91.5464 164.137 91.7323 163.692 92.0631 163.364C92.3939 163.036 92.8426 162.851 93.3104 162.851H130.355C130.823 162.851 131.272 163.036 131.603 163.364C131.933 163.692 132.119 164.137 132.119 164.601C132.119 165.065 131.933 165.51 131.603 165.838C131.272 166.166 130.823 166.35 130.355 166.35Z" fill="#F2F2F2"/>
  <path d="M104.997 158.915H93.3104C92.8426 158.915 92.3939 158.73 92.0631 158.402C91.7323 158.074 91.5464 157.629 91.5464 157.165C91.5464 156.701 91.7323 156.256 92.0631 155.928C92.3939 155.6 92.8426 155.416 93.3104 155.416H104.997C105.465 155.416 105.914 155.6 106.245 155.928C106.575 156.256 106.761 156.701 106.761 157.165C106.761 157.629 106.575 158.074 106.245 158.402C105.914 158.73 105.465 158.915 104.997 158.915Z" fill="#F2F2F2"/>
  <path d="M144.65 118.679H59.5358C58.5712 118.677 57.6464 118.297 56.9643 117.62C56.2822 116.944 55.8985 116.027 55.8975 115.07V87.9544C55.8986 86.9977 56.2822 86.0806 56.9643 85.4042C57.6464 84.7278 58.5712 84.3473 59.5358 84.3462H144.65C145.615 84.3473 146.54 84.7278 147.222 85.4042C147.904 86.0806 148.288 86.9977 148.289 87.9544V115.07C148.288 116.027 147.904 116.944 147.222 117.62C146.54 118.297 145.615 118.677 144.65 118.679Z" fill="white"/>

  <path d="M130.355 107.417H93.3099C92.8421 107.417 92.3934 107.232 92.0626 106.904C91.7318 106.576 91.5459 106.131 91.5459 105.667C91.5459 105.203 91.7318 104.758 92.0626 104.43C92.3934 104.102 92.8421 103.918 93.3099 103.918H130.355C130.823 103.918 131.271 104.102 131.602 104.43C131.933 104.758 132.119 105.203 132.119 105.667C132.119 106.131 131.933 106.576 131.602 106.904C131.271 107.232 130.823 107.417 130.355 107.417Z" fill="#3DE297"/>
  <path d="M104.997 99.9815H93.3099C92.8421 99.9815 92.3934 99.7972 92.0626 99.4691C91.7318 99.141 91.5459 98.6961 91.5459 98.2321C91.5459 97.7681 91.7318 97.3231 92.0626 96.9951C92.3934 96.667 92.8421 96.4827 93.3099 96.4827H104.997C105.465 96.4827 105.913 96.667 106.244 96.9951C106.575 97.3231 106.761 97.7681 106.761 98.2321C106.761 98.6961 106.575 99.141 106.244 99.4691C105.913 99.7972 105.465 99.9815 104.997 99.9815Z" fill="#3DE297"/>
  <rect x="55.8975" y="83.9785" width="92.3913" height="34.901" rx="1" stroke="#1C1C1C"/>
  <ellipse cx="7.04074" cy="6.99622" rx="7.04074" ry="6.99622" transform="matrix(1.00041 0 -0.00116196 0.999591 72.3702 94.1074)" fill="#0D76E9"/>
  <path d="M78.7475 104.782C77.6501 104.686 76.5583 103.886 76.5588 103.468C76.5592 103.058 76.8941 102.865 77.2232 102.617C77.5522 102.369 79.0526 103.873 79.9506 103.571C80.8485 103.268 80.309 102.466 79.5017 101.944C78.5507 101.328 77.8643 100.871 77.2262 99.8908C76.882 99.4074 76.3325 98.049 77.4727 97.4458C77.8293 97.2571 77.9648 97.1378 79.0151 97.1697L79.038 96.455C79.2811 96.1793 80.2945 96.1923 80.5751 96.5016L80.5522 97.2163C81.1968 97.3711 82.7323 97.8029 82.883 98.2667C83.0629 98.4579 83.1975 99.0131 82.8818 99.3941C82.358 100.026 78.7578 97.9119 79.0415 99.3941C79.274 100.609 83.5462 101.863 82.3344 103.719C82.0783 104.344 80.9898 104.881 80.3083 104.83L80.2859 105.527C79.946 105.925 78.9562 105.865 78.7466 105.549L78.7475 104.782Z" fill="white"/>
  <path d="M163.188 59.9147L153.556 52.5684L146.189 62.1736L155.821 69.52L163.188 59.9147Z" fill="#3DE297"/>
</svg>
