<svg width="201" height="201" viewBox="0 0 201 201" fill="none" xmlns="http://www.w3.org/2000/svg">
<path d="M154.904 77.428H46.5538V170.143H154.904V77.428Z" fill="white"/>
<path d="M155.219 170.459H46.239V77.1116H155.219V170.459ZM46.869 169.826H154.589V77.7444H46.869V169.826Z" fill="#1C1C1C" stroke="#1C1C1C"/>
<path d="M114.272 95.4644H87.1849V170.143H114.272V95.4644Z" fill="#3DE297"/>
<path d="M114.272 95.4644H87.1849V170.143H114.272V95.4644Z" fill="#3DE297"/>
<path d="M161.203 68.8845H40.2545V95.4649H161.203V68.8845Z" fill="white"/>
<path d="M114.273 66.353H87.1851V95.1484H114.273V66.353Z" fill="#3DE297"/>
<path fill-rule="evenodd" clip-rule="evenodd" d="M100.729 42.28C100.529 41.9293 100.316 41.5844 100.089 41.246C92.9383 30.5975 74.6085 30.4595 74.6085 30.4595C74.6085 30.4595 67.8716 47.586 75.0219 58.2345C82.1722 68.883 100.502 69.021 100.502 69.021C100.502 69.021 100.587 68.8039 100.729 68.4032C100.87 68.8039 100.956 69.021 100.956 69.021C100.956 69.021 119.286 68.883 126.436 58.2345C133.586 47.586 126.849 30.4595 126.849 30.4595C126.849 30.4595 108.519 30.5975 101.369 41.246C101.142 41.5844 100.929 41.9293 100.729 42.28Z" fill="#3DE297"/>
<ellipse cx="21.871" cy="22.016" rx="21.871" ry="22.016" transform="matrix(1.00041 0 -0.0011555 0.999591 78.8745 103.72)" fill="#0D76E9"/>
<path d="M98.6852 137.31C95.2765 137.006 91.8848 134.49 91.8863 133.173C91.8877 131.885 92.928 131.275 93.9502 130.496C94.9724 129.716 99.6331 134.449 102.422 133.497C105.212 132.545 103.536 130.019 101.028 128.377C98.0738 126.441 95.9419 125.001 93.9596 121.917C92.8905 120.396 91.1833 116.121 94.7253 114.223C95.833 113.629 96.2539 113.254 99.5165 113.354L99.5877 111.105C100.343 110.238 103.491 110.278 104.363 111.252L104.291 113.501C106.294 113.988 111.063 115.347 111.532 116.806C112.09 117.408 112.508 119.155 111.528 120.354C109.901 122.343 98.7171 115.69 99.5985 120.354C100.321 124.177 113.592 128.123 109.827 133.964C109.032 135.931 105.651 137.62 103.534 137.459L103.464 139.654C102.408 140.905 99.3336 140.717 98.6825 139.722L98.6852 137.31Z" fill="white"/>
<path d="M161.518 95.7818H39.9395V68.5686H161.518V95.7818ZM40.5694 95.149H160.888V69.2015H40.5694V95.149Z" fill="#1C1C1C" stroke="#1C1C1C"/>
</svg>
