<svg width="201" height="201" viewBox="0 0 201 201" fill="none" xmlns="http://www.w3.org/2000/svg">
<path d="M84.9822 56.1275C86.5981 56.1262 88.1918 56.5023 89.6358 57.2257C91.0798 57.9492 92.3339 58.9997 93.2976 60.2934L99.2695 52.506L81.3509 38.8379L67.6464 56.7086L75.3692 62.5995C76.142 60.6879 77.4702 59.0504 79.1831 57.8971C80.896 56.7439 82.9155 56.1276 84.9822 56.1275Z" fill="#3DE297"/>
<path d="M168.976 122.597H198.36C199.588 127.254 199.729 132.129 198.772 136.849C197.815 141.568 195.785 146.006 192.838 149.82C189.891 153.634 186.107 156.723 181.775 158.85C177.443 160.976 172.68 162.083 167.853 162.086C166.991 162.086 166.138 162.051 165.294 161.982V144.705C165.295 143.877 165.091 143.061 164.701 142.33C164.311 141.598 163.747 140.974 163.057 140.512C162.368 140.05 161.575 139.764 160.749 139.679C159.923 139.595 159.088 139.715 158.319 140.028V133.229C158.319 131.833 158.594 130.451 159.13 129.161C159.665 127.871 160.45 126.699 161.439 125.712C162.429 124.724 163.604 123.941 164.897 123.407C166.19 122.872 167.576 122.597 168.976 122.597Z" fill="#3DE297"/>
<path d="M19.5494 132.622L9.32214 124.821L1.50002 135.021L11.7273 142.822L19.5494 132.622Z" fill="#3DE297"/>
<path d="M151.631 62.8521L16.2148 83.9805L25.4972 153.383L160.913 132.255L151.631 62.8521Z" fill="#F1F1F1" stroke="#1C1C1C"/>
<path d="M148.555 69.4078L20.8833 89.3279L28.6279 147.233L156.3 127.313L148.555 69.4078Z" fill="white"/>
<path d="M151.037 58.8509L15.6208 79.9792L16.4518 86.1928L151.868 65.0644L151.037 58.8509Z" fill="#E5E5E5" stroke="#1C1C1C"/>
<path d="M20.2073 83.4011C20.7596 83.4011 21.2073 82.9534 21.2073 82.4011C21.2073 81.8488 20.7596 81.4011 20.2073 81.4011C19.655 81.4011 19.2073 81.8488 19.2073 82.4011C19.2073 82.9534 19.655 83.4011 20.2073 83.4011Z" fill="white"/>
<path d="M24.2545 82.7708C24.8068 82.7708 25.2545 82.323 25.2545 81.7708C25.2545 81.2185 24.8068 80.7708 24.2545 80.7708C23.7022 80.7708 23.2545 81.2185 23.2545 81.7708C23.2545 82.323 23.7022 82.7708 24.2545 82.7708Z" fill="white"/>
<path d="M28.3017 82.1389C28.854 82.1389 29.3017 81.6912 29.3017 81.1389C29.3017 80.5866 28.854 80.1389 28.3017 80.1389C27.7494 80.1389 27.3017 80.5866 27.3017 81.1389C27.3017 81.6912 27.7494 82.1389 28.3017 82.1389Z" fill="white"/>
<path d="M46.1984 162.556V92.9964H182.457V162.556H46.1984Z" fill="#E6E6E6" stroke="#1C1C1C" stroke-width="0.563637"/>
<path d="M182.68 88.6633H45.8584V94.9414H182.68V88.6633Z" fill="#E5E5E5" stroke="#1C1C1C"/>
<path d="M50.1002 92.8025C50.6525 92.8025 51.1002 92.3548 51.1002 91.8025C51.1002 91.2502 50.6525 90.8025 50.1002 90.8025C49.5479 90.8025 49.1002 91.2502 49.1002 91.8025C49.1002 92.3548 49.5479 92.8025 50.1002 92.8025Z" fill="white"/>
<path d="M54.1894 92.8025C54.7417 92.8025 55.1894 92.3548 55.1894 91.8025C55.1894 91.2502 54.7417 90.8025 54.1894 90.8025C53.6371 90.8025 53.1894 91.2502 53.1894 91.8025C53.1894 92.3548 53.6371 92.8025 54.1894 92.8025Z" fill="white"/>
<path d="M58.2789 92.8025C58.8312 92.8025 59.2789 92.3548 59.2789 91.8025C59.2789 91.2502 58.8312 90.8025 58.2789 90.8025C57.7266 90.8025 57.2789 91.2502 57.2789 91.8025C57.2789 92.3548 57.7266 92.8025 58.2789 92.8025Z" fill="white"/>
<path d="M178.826 98.728H49.8288V157.234H178.826V98.728Z" fill="white" stroke="#1C1C1C"/>
<ellipse cx="151.046" cy="122.446" rx="7.0611" ry="7.08383" fill="#3DE297"/>
<path d="M162.222 140.632C162.222 139.305 161.934 137.991 161.375 136.764C160.816 135.538 159.997 134.424 158.965 133.485C157.932 132.546 156.706 131.802 155.357 131.294C154.008 130.786 152.562 130.524 151.101 130.524C149.641 130.524 148.195 130.786 146.846 131.294C145.497 131.802 144.271 132.546 143.238 133.485C142.205 134.424 141.386 135.538 140.827 136.764C140.269 137.991 139.981 139.305 139.981 140.632L151.101 140.632H162.222Z" fill="#3DE297"/>
<path d="M84.8557 141.036H66.688V142.511H84.8557V141.036Z" fill="#E6E6E6"/>
<path d="M87.1213 144.868H64.2573V146.343H87.1213V144.868Z" fill="#E6E6E6"/>
<path d="M86.037 116.739H68.0543V130.704H86.037V116.739Z" fill="#0D76E9"/>
<path d="M86.037 131.502H68.7736C68.5829 131.502 68.4001 131.418 68.2652 131.268C68.1304 131.119 68.0545 130.916 68.0543 130.704V117.537C68.0545 117.325 68.1304 117.122 68.2652 116.973C68.4001 116.823 68.5829 116.739 68.7736 116.739H86.037C86.2277 116.739 86.4105 116.823 86.5454 116.973C86.6802 117.122 86.7561 117.325 86.7563 117.537V130.704C86.7561 130.916 86.6802 131.119 86.5454 131.268C86.4105 131.418 86.2277 131.502 86.037 131.502ZM68.7736 117.537V130.704H86.0375L86.0369 117.537H68.7736Z" fill="#1C1C1C"/>
<path d="M84.0586 117.037H83.3393C83.3393 115.291 82.7141 113.617 81.6012 112.382C80.4883 111.147 78.9789 110.454 77.405 110.454C75.8312 110.454 74.3218 111.147 73.2089 112.382C72.096 113.617 71.4708 115.291 71.4708 117.037H70.7515C70.7515 115.08 71.4525 113.202 72.7002 111.818C73.948 110.433 75.6404 109.656 77.405 109.656C79.1697 109.656 80.862 110.433 82.1098 111.818C83.3576 113.202 84.0586 115.08 84.0586 117.037Z" fill="#1C1C1C"/>
<path d="M79.204 122.523C79.2044 122.176 79.1229 121.834 78.9678 121.533C78.8126 121.231 78.5891 120.979 78.3194 120.803C78.0496 120.626 77.743 120.531 77.4299 120.526C77.1167 120.521 76.8079 120.607 76.5339 120.776C76.26 120.944 76.0304 121.189 75.8679 121.486C75.7054 121.783 75.6157 122.122 75.6075 122.469C75.5994 122.816 75.6732 123.16 75.8215 123.466C75.9699 123.772 76.1877 124.03 76.4534 124.214V126.355C76.4534 126.494 76.478 126.631 76.5258 126.759C76.5737 126.887 76.6438 127.004 76.7322 127.102C76.8207 127.2 76.9256 127.278 77.0411 127.331C77.1567 127.384 77.2805 127.411 77.4055 127.411C77.658 127.411 77.9002 127.3 78.0788 127.102C78.2573 126.904 78.3576 126.635 78.3576 126.355V124.214C78.6165 124.035 78.8301 123.786 78.9781 123.49C79.1262 123.194 79.204 122.862 79.204 122.523Z" fill="#1C1C1C"/>
</svg>
