<svg width="570" height="302" viewBox="0 0 570 302" fill="none" xmlns="http://www.w3.org/2000/svg">
<rect width="570" height="302" rx="20" fill="white"/>
<g clip-path="url(#clip0_11122_49699)">
<path d="M537.946 101.656L481.856 248.72L354.764 218.549L408.675 70.6632L537.946 101.656Z" fill="white" stroke="#1C1C1C" stroke-width="2"/>
<path d="M411.477 71.3802C411.382 71.3534 411.291 71.3029 411.217 71.2379C411.14 71.1706 411.079 71.0935 411.039 70.9994M411.477 71.3802L411.37 71.6061C411.377 71.6093 411.383 71.6123 411.39 71.6152M411.477 71.3802L411.409 71.6209C411.403 71.6191 411.397 71.6172 411.39 71.6152M411.477 71.3802C411.757 71.5127 412.166 71.2284 412.301 70.9514L417.713 65.1102M411.39 71.6152C411.265 71.5768 411.148 71.5101 411.052 71.4263L411.052 71.4261C410.952 71.339 410.867 71.2329 410.81 71.0988M411.39 71.6152C411.632 71.7193 411.889 71.6397 412.068 71.5358C412.259 71.4255 412.433 71.2505 412.526 71.0608L412.533 71.0465L412.538 71.0315C413.411 68.4523 415.271 66.3228 417.713 65.1102M410.81 71.0988C410.81 71.0996 410.811 71.1004 410.811 71.1012L411.039 70.9994M410.81 71.0988C410.81 71.098 410.809 71.0972 410.809 71.0963L411.039 70.9994M410.81 71.0988C410.755 70.9742 410.727 70.8432 410.728 70.7078L410.978 70.7092M411.039 70.9994C410.998 70.9055 410.977 70.8087 410.978 70.7092M410.978 70.7092L410.728 70.7077M410.978 70.7092C410.978 70.6074 411.003 70.5099 411.044 70.4192C411.813 68.2104 413.212 66.282 415.07 64.8618L410.728 70.7077M410.728 70.7077C410.728 70.5706 410.76 70.4424 410.811 70.327M410.728 70.7077L410.811 70.327M410.811 70.327C411.597 68.076 413.024 66.1108 414.918 64.6632L414.918 64.6631C416.815 63.2156 419.094 62.3561 421.475 62.1936C423.857 62.0312 426.231 62.5724 428.306 63.7499C430.382 64.925 432.067 66.6872 433.148 68.813C433.868 70.2236 434.291 71.7699 434.394 73.3507L434.394 73.3511C434.494 74.9331 434.271 76.5183 433.736 78.0101C432.968 80.4117 431.457 82.5048 429.423 83.9886C427.389 85.4747 424.934 86.2771 422.413 86.2785C421.075 86.3231 419.736 86.1558 418.448 85.7804C418.311 85.7426 418.192 85.6731 418.095 85.5913L418.091 85.5882L418.091 85.5881C417.988 85.4983 417.905 85.3874 417.85 85.2583C417.793 85.1349 417.765 84.9973 417.769 84.8619M410.811 70.327L432.008 77.4577C431.135 80.0391 429.274 82.1683 426.833 83.376C424.395 84.5821 421.578 84.7782 419.001 83.9147C418.757 83.8074 418.498 83.8875 418.318 83.992C418.127 84.1023 417.953 84.2773 417.86 84.467L417.86 84.467L417.857 84.4734C417.804 84.5919 417.77 84.7274 417.769 84.8619M417.769 84.8619C417.769 84.8628 417.769 84.8638 417.769 84.8648L418.019 84.8665L417.769 84.859C417.769 84.86 417.769 84.8609 417.769 84.8619ZM417.713 65.1102C420.154 63.9023 422.976 63.7076 425.557 64.5757L425.559 64.5762C426.83 64.9931 428.007 65.6589 429.02 66.5333C430.034 67.4103 430.866 68.4775 431.465 69.6756L431.465 69.6759C432.064 70.8696 432.422 72.1737 432.514 73.5102C432.607 74.8466 432.434 76.1878 432.008 77.4573L417.713 65.1102Z" fill="#1C1C1C" stroke="#1C1C1C" stroke-width="0.5"/>
<path d="M448.975 92.1433L449.074 92.1387L449.075 92.1375C450.842 92.0697 452.577 91.6568 454.181 90.9184L454.181 90.9186L454.191 90.9138C457.06 89.4452 459.249 86.9227 460.296 83.8761L460.296 83.8761L460.297 83.871C461.269 80.8303 461.009 77.5308 459.572 74.6816C458.892 73.2528 457.931 71.9712 456.745 70.9205L456.745 70.9203C455.559 69.8725 454.171 69.0694 452.668 68.5727C451.154 68.0336 449.545 67.8106 447.942 67.9087L447.941 67.9087C446.337 68.0117 444.77 68.4357 443.333 69.1624L443.332 69.163C440.462 70.6316 438.273 73.1542 437.227 76.2007L437.224 76.209L437.222 76.2174C437.16 76.4474 437.192 76.6852 437.296 76.8912C437.402 77.1005 437.581 77.2585 437.798 77.3397C437.918 77.3926 438.047 77.4201 438.175 77.4239L438.175 77.424L438.181 77.424C438.319 77.4249 438.451 77.3929 438.566 77.3462L438.566 77.3464L438.576 77.3419C438.702 77.2847 438.812 77.1998 438.899 77.097C438.99 76.9954 439.053 76.8734 439.091 76.7508C439.518 75.473 440.195 74.2881 441.082 73.2776L441.082 73.2771C441.97 72.2616 443.05 71.4365 444.262 70.8445C446.678 69.7204 449.425 69.5266 451.973 70.3C453.254 70.7309 454.434 71.4057 455.446 72.2929C456.461 73.1837 457.288 74.2648 457.88 75.4768C458.756 77.2831 459.08 79.3048 458.819 81.2979C458.557 83.2859 457.719 85.1571 456.406 86.6782C455.094 88.197 453.366 89.3 451.435 89.8492L451.435 89.8493C449.508 90.3994 447.465 90.3721 445.554 89.7767C445.438 89.7239 445.307 89.6926 445.172 89.6944C445.042 89.694 444.907 89.7181 444.779 89.7766C444.659 89.8315 444.546 89.9107 444.454 90.0197C444.367 90.1226 444.302 90.2416 444.263 90.3726L444.263 90.3726L444.261 90.3795C444.2 90.6079 444.23 90.8487 444.336 91.0523C444.444 91.2634 444.625 91.4221 444.845 91.5023C446.165 91.9885 447.569 92.2091 448.975 92.1433Z" fill="#1C1C1C" stroke="#1C1C1C" stroke-width="0.5"/>
<path d="M463.573 82.9941C463.581 83.1258 463.623 83.2569 463.69 83.3685C463.762 83.4879 463.861 83.579 463.972 83.6448L464.099 83.4304L463.972 83.6448C464.081 83.7094 464.198 83.7419 464.313 83.7516C464.556 83.8265 464.797 83.73 464.964 83.6162C465.147 83.4918 465.308 83.3037 465.386 83.107L465.392 83.0926L465.396 83.0777C466.087 80.4415 467.795 78.1875 470.145 76.8124C472.496 75.4371 475.295 75.0461 477.933 75.7317C480.552 76.4213 482.787 78.1212 484.152 80.4633L484.152 80.4635C485.516 82.8009 485.894 85.5866 485.205 88.206C484.515 90.8208 482.815 93.0599 480.473 94.4248L480.473 94.4249C478.133 95.7896 475.35 96.1677 472.73 95.4781L472.688 95.467L472.645 95.4708C472.418 95.4907 472.166 95.5496 471.968 95.6831C471.772 95.8161 471.633 96.0236 471.635 96.3015C471.596 96.4057 471.578 96.517 471.585 96.6279L471.585 96.6282C471.593 96.7603 471.631 96.8885 471.704 97.005C471.771 97.1163 471.868 97.2155 471.989 97.2814C472.1 97.3465 472.22 97.3782 472.337 97.3865C473.639 97.7112 474.981 97.8286 476.318 97.7406L476.318 97.7407L476.323 97.7402L476.326 97.74L476.327 97.7398C478.823 97.5045 481.184 96.5119 483.097 94.8961C485.011 93.2826 486.389 91.1193 487.044 88.7038L487.044 88.7038L487.045 88.6999C487.841 85.5672 487.395 82.2522 485.81 79.4351L485.811 79.4349L485.804 79.4249C484.1 76.7068 481.447 74.7143 478.36 73.8332L478.36 73.8331L478.351 73.8309C475.231 73.0604 471.932 73.5528 469.174 75.2065C466.423 76.8537 464.435 79.5232 463.639 82.6257C463.587 82.741 463.565 82.8671 463.573 82.9941ZM463.573 82.9941C463.573 82.9942 463.573 82.9942 463.573 82.9943L463.822 82.9787L463.573 82.994C463.573 82.994 463.573 82.9941 463.573 82.9941Z" fill="#1C1C1C" stroke="#1C1C1C" stroke-width="0.5"/>
<path d="M502.448 103.145C501.177 103.295 499.89 103.261 498.628 103.043L498.628 103.043C498.5 103.021 498.374 102.978 498.257 102.904L498.253 102.902L498.253 102.902C498.136 102.825 498.043 102.726 497.972 102.618L497.97 102.614L497.97 102.614C497.895 102.495 497.853 102.368 497.835 102.238M502.448 103.145L498.082 102.202M502.448 103.145L502.445 103.164L502.79 103.107C504.812 102.772 506.715 101.93 508.323 100.664L502.448 103.145ZM497.835 102.238C497.835 102.237 497.835 102.236 497.835 102.235L498.082 102.202M497.835 102.238C497.835 102.239 497.835 102.24 497.835 102.241L498.082 102.202M497.835 102.238C497.813 102.095 497.829 101.957 497.869 101.83M498.082 102.202C498.066 102.101 498.077 102.001 498.107 101.905M497.869 101.83C497.869 101.83 497.869 101.831 497.869 101.831L498.107 101.905M497.869 101.83C497.933 101.628 498.08 101.429 498.253 101.292C498.419 101.162 498.665 101.045 498.923 101.119M497.869 101.83L498.107 101.905M498.107 101.905L498.923 101.119M498.923 101.119C498.919 101.118 498.915 101.117 498.912 101.116L498.863 101.361L498.936 101.123C498.932 101.121 498.927 101.12 498.923 101.119ZM498.923 101.119C500.248 101.383 501.611 101.381 502.933 101.111C504.259 100.84 505.52 100.308 506.637 99.5443C507.753 98.7801 508.707 97.8008 509.439 96.6625L509.439 96.6623C510.172 95.5263 510.67 94.2542 510.903 92.9189L510.904 92.9156C511.151 91.5992 511.134 90.2474 510.854 88.9371L510.853 88.9367C510.576 87.6283 510.042 86.3863 509.281 85.286L509.281 85.2855C508.521 84.1823 507.549 83.2414 506.426 82.5185L506.425 82.5182C505.302 81.7911 504.043 81.298 502.725 81.0621L502.724 81.0617C500.044 80.5616 497.276 81.1429 495.03 82.6827L495.03 82.683C492.79 84.212 491.245 86.5658 490.736 89.2284M498.923 101.119L494.889 82.4765C492.585 84.0497 490.998 86.4754 490.483 89.218M490.736 89.2284C490.735 89.212 490.733 89.1955 490.73 89.1789L490.483 89.218M490.736 89.2284C490.752 89.4689 490.605 89.6835 490.436 89.8158C490.246 89.9641 489.977 90.0541 489.687 90.0047M490.736 89.2284C490.733 89.2403 490.731 89.2522 490.729 89.2641L490.483 89.218M490.483 89.218L489.687 90.0047M489.687 90.0047C489.688 90.0049 489.69 90.0051 489.691 90.0054L489.725 89.7576L489.682 90.0039C489.683 90.0042 489.685 90.0044 489.687 90.0047ZM489.687 90.0047C489.551 89.9856 489.422 89.9347 489.311 89.865L489.309 89.8631L489.309 89.8631C489.2 89.7927 489.1 89.6954 489.025 89.5764M489.687 90.0047L489.445 89.6534C489.365 89.6013 489.291 89.5291 489.236 89.4419M489.025 89.5764C489.026 89.5771 489.026 89.5777 489.027 89.5784L489.236 89.4419M489.025 89.5764C488.949 89.4578 488.906 89.3237 488.889 89.1959L488.888 89.1898L488.888 89.1898C488.875 89.0668 488.883 88.9336 488.919 88.8074M489.025 89.5764C489.025 89.5757 489.025 89.5751 489.024 89.5744L489.236 89.4419M489.236 89.4419L488.919 88.8074M488.919 88.8074C488.918 88.8108 488.917 88.8142 488.917 88.8176L489.162 88.8663M488.919 88.8074L489.137 89.1627C489.126 89.0661 489.134 88.9618 489.162 88.8663M488.919 88.8074C489.384 86.4739 490.523 84.3244 492.2 82.6267L488.919 88.8074ZM488.919 88.8074C488.92 88.8036 488.921 88.7998 488.922 88.7959L489.162 88.8663M488.919 88.8074L489.162 88.8663M510.833 84.2009L510.834 84.203C511.993 85.8919 512.706 87.8446 512.914 89.882L512.914 89.8825C513.116 91.9207 512.806 93.977 512.003 95.8618C511.2 97.7462 509.937 99.3977 508.324 100.664L510.833 84.2009ZM510.833 84.2009C509.464 82.2468 507.548 80.7365 505.329 79.8617C503.114 78.9862 500.686 78.7811 498.351 79.2732L510.833 84.2009Z" fill="#1C1C1C" stroke="#1C1C1C" stroke-width="0.5"/>
<path d="M524.619 108.646L524.619 108.646L524.63 108.653C524.74 108.722 524.868 108.775 525.009 108.793C526.332 108.981 527.681 108.963 529.001 108.735C531.898 108.395 534.567 107.012 536.524 104.853L536.525 104.853C538.481 102.689 539.582 99.8881 539.631 96.9698L539.631 96.9695C539.677 94.0561 538.66 91.2207 536.775 88.9977C534.891 86.7709 532.261 85.3079 529.377 84.8754C527.796 84.5785 526.171 84.6038 524.601 84.9503L524.601 84.9504C523.035 85.3012 521.551 85.9592 520.241 86.8981C518.943 87.7771 517.832 88.9078 516.981 90.2253C516.131 91.5403 515.56 93.013 515.292 94.5543C515.257 94.6796 515.249 94.8115 515.262 94.9334L515.262 94.934C515.279 95.0783 515.33 95.2086 515.401 95.3224L515.401 95.3224L515.404 95.3264C515.475 95.4345 515.567 95.5336 515.685 95.6106L515.686 95.611C515.79 95.6785 515.914 95.7279 516.042 95.7485C516.298 95.8212 516.542 95.7065 516.706 95.5783C516.88 95.4419 517.029 95.2427 517.094 95.0406L517.099 95.0244L517.102 95.0076C517.335 93.6766 517.833 92.4021 518.565 91.2636C519.298 90.1254 520.251 89.146 521.368 88.3818C522.485 87.6178 523.746 87.0858 525.072 86.8149C526.397 86.5441 527.764 86.543 529.093 86.8098L529.093 86.8098L529.096 86.8104C530.412 87.058 531.665 87.5661 532.788 88.3012C533.91 89.0358 534.875 89.985 535.631 91.0915C536.384 92.2009 536.914 93.4484 537.185 94.7601C537.456 96.0727 537.471 97.4251 537.219 98.7421L537.219 98.7422C536.967 100.062 536.459 101.315 535.724 102.438C534.989 103.56 534.04 104.523 532.933 105.276L532.932 105.277C531.826 106.034 530.579 106.564 529.267 106.835C527.955 107.106 526.602 107.117 525.282 106.869L525.279 106.869C524.986 106.818 524.715 106.907 524.525 107.057C524.358 107.188 524.217 107.397 524.227 107.631C524.197 107.749 524.194 107.866 524.206 107.978L524.206 107.978L524.207 107.984C524.225 108.115 524.267 108.243 524.342 108.362C524.42 108.486 524.52 108.576 524.619 108.646Z" fill="#1C1C1C" stroke="#1C1C1C" stroke-width="0.5"/>
<g clip-path="url(#clip1_11122_49699)">
<path d="M473.25 155.152L454.448 131.498C453.434 130.216 452.204 129.253 450.757 128.608C445.785 126.393 439.916 128.643 437.701 133.615L425.963 159.953C423.747 164.925 425.998 170.793 430.969 173.009C432.48 173.682 434.173 173.946 435.848 173.826L466.357 171.128C469.967 170.813 473.135 168.529 474.545 165.196C476 161.847 475.475 158.03 473.204 155.17L473.25 155.152ZM466.08 167.685L435.572 170.383C430.702 170.816 427.15 165.838 429.141 161.37L440.879 135.031C442.842 130.626 448.793 129.883 451.783 133.667L470.54 157.339C473.726 161.362 471.167 167.274 466.066 167.717L466.08 167.685Z" fill="#0D76E9"/>
<path d="M466.08 167.685L435.572 170.383C430.702 170.816 427.15 165.838 429.141 161.37L440.879 135.031C442.842 130.626 448.793 129.883 451.783 133.667L470.54 157.339C473.726 161.362 471.167 167.274 466.066 167.717L466.08 167.685Z" fill="#0D76E9"/>
<path d="M460.086 156.339L441.315 132.698C440.302 131.417 439.071 130.454 437.624 129.809C432.652 127.593 426.784 129.844 424.568 134.815L412.83 161.154C410.615 166.126 412.865 171.994 417.837 174.21C419.347 174.883 421.04 175.147 422.716 175.026L453.224 172.328C456.834 172.014 460.002 169.729 461.412 166.397C462.867 163.047 462.342 159.231 460.072 156.371L460.086 156.339ZM452.916 168.872L422.408 171.57C417.538 172.002 413.986 167.025 415.977 162.556L427.715 136.218C429.678 131.812 435.629 131.07 438.619 134.854L457.376 158.526C460.562 162.548 458.003 168.461 452.902 168.904L452.916 168.872Z" fill="#04103D"/>
<path d="M452.916 168.872L422.408 171.57C417.538 172.002 413.986 167.025 415.977 162.556L427.715 136.218C429.678 131.812 435.629 131.07 438.619 134.854L457.376 158.526C460.562 162.548 458.003 168.461 452.902 168.904L452.916 168.872Z" fill="#04103D"/>
<path d="M468.159 166.575L449.357 142.921C448.344 141.639 447.114 140.676 445.666 140.031C440.694 137.815 434.826 140.066 432.61 145.038L420.873 171.376C418.657 176.348 420.907 182.216 425.879 184.432C427.389 185.105 429.082 185.369 430.758 185.248L461.298 182.565C464.908 182.25 468.076 179.965 469.486 176.633C470.941 173.284 470.416 169.467 468.145 166.607L468.159 166.575ZM460.99 179.108L430.481 181.806C425.612 182.238 422.059 177.261 424.051 172.792L435.788 146.454C437.752 142.048 443.702 141.306 446.693 145.09L465.45 168.762C468.636 172.785 466.076 178.697 460.976 179.14L460.99 179.108Z" fill="#3DE297"/>
<path d="M460.99 179.108L430.481 181.806C425.612 182.238 422.059 177.261 424.051 172.792L435.788 146.454C437.752 142.048 443.702 141.306 446.693 145.09L465.45 168.762C468.636 172.785 466.076 178.697 460.976 179.14L460.99 179.108Z" fill="#3DE297"/>
</g>
</g>
<path d="M380.345 102.607L348.329 106.796L369.605 269.394L401.62 265.205L380.345 102.607Z" fill="white"/>
<path d="M402.523 265.932L402.171 266.148L370.303 270.417C370.156 270.454 370.005 270.459 369.86 270.432C369.712 270.407 369.572 270.347 369.452 270.26C369.328 270.174 369.226 270.062 369.152 269.933C369.077 269.805 369.033 269.658 369.017 269.511L347.677 107.01C347.695 106.513 347.764 106.227 347.881 106.154L348.586 105.722L380.563 101.631C380.801 101.634 381.032 101.72 381.214 101.874C381.395 102.028 381.522 102.24 381.566 102.475L403.014 265.145C403.124 265.322 403.053 265.606 402.701 265.823L402.523 265.932ZM370.85 268.14L400.698 264.141L379.625 103.663L349.67 107.487L370.85 268.14Z" fill="#0D76E9"/>
<path d="M370.85 268.14L400.698 264.141L379.625 103.663L349.67 107.487L370.85 268.14Z" fill="#0D76E9"/>
<path d="M382.313 113.181L381.961 113.398L360.018 116.429C359.746 116.405 359.491 116.292 359.29 116.108C359.09 115.924 358.953 115.681 358.907 115.41C358.869 114.949 359.179 114.273 359.748 114.409L381.691 111.378C381.834 111.34 381.989 111.336 382.134 111.363C382.282 111.388 382.422 111.447 382.543 111.535C382.666 111.621 382.768 111.733 382.842 111.861C382.917 111.99 382.962 112.136 382.978 112.284C382.965 112.479 382.894 112.667 382.776 112.827C382.658 112.986 382.496 113.107 382.312 113.178L382.313 113.181Z" fill="#04103D"/>
<path d="M383.701 123.748L383.348 123.965L367.359 126.011C367.117 126.002 366.883 125.905 366.704 125.742C366.524 125.578 366.408 125.355 366.376 125.113C366.344 124.872 366.397 124.628 366.528 124.422C366.659 124.217 366.855 124.064 367.089 123.991L382.969 121.767C383.716 121.794 384.107 122.039 384.258 122.676C384.289 122.889 384.25 123.109 384.152 123.301C384.05 123.493 383.894 123.651 383.701 123.748Z" fill="#04103D"/>
<path d="M383.99 134.5L383.638 134.716L361.698 137.746C361.559 137.756 361.415 137.737 361.282 137.69C361.15 137.643 361.026 137.569 360.922 137.475C360.819 137.381 360.734 137.263 360.677 137.137C360.618 137.007 360.587 136.868 360.587 136.727C360.549 136.266 360.859 135.589 361.428 135.725L383.368 132.696C383.514 132.657 383.666 132.654 383.811 132.681C383.959 132.707 384.096 132.768 384.22 132.854C384.343 132.94 384.445 133.051 384.521 133.183C384.596 133.311 384.64 133.458 384.657 133.606C384.643 133.8 384.574 133.992 384.455 134.149C384.337 134.308 384.175 134.428 383.99 134.5Z" fill="#04103D"/>
<path d="M385.376 145.064L385.024 145.28L369.037 147.325C368.889 147.361 368.739 147.366 368.594 147.34C368.449 147.313 368.309 147.253 368.185 147.167C368.062 147.081 367.96 146.97 367.888 146.839C367.812 146.708 367.766 146.566 367.753 146.416C367.777 146.145 367.89 145.889 368.074 145.689C368.258 145.489 368.503 145.355 368.772 145.306L384.649 143.083C385.218 143.219 385.896 143.533 385.76 144.102C385.624 144.671 385.733 144.848 385.381 145.065L385.376 145.064Z" fill="#04103D"/>
<path d="M386.761 155.628L386.409 155.844L364.36 158.696C364.235 158.756 364.098 158.782 363.959 158.772C363.822 158.765 363.688 158.722 363.572 158.648C363.453 158.576 363.357 158.474 363.288 158.354C363.219 158.235 363.181 158.1 363.179 157.961C363.157 157.676 363.238 157.389 363.405 157.154C363.572 156.919 363.813 156.75 364.09 156.675L386.139 153.824C386.601 153.785 387.277 154.096 387.141 154.665C387.005 155.234 387.114 155.411 386.761 155.628Z" fill="#04103D"/>
<path d="M388.15 166.19L387.797 166.406L371.81 168.451C371.686 168.511 371.548 168.537 371.409 168.527C371.272 168.52 371.138 168.478 371.023 168.404C370.904 168.332 370.807 168.229 370.738 168.11C370.669 167.99 370.632 167.856 370.629 167.716C370.591 167.573 370.587 167.418 370.614 167.273C370.64 167.125 370.699 166.985 370.787 166.865C370.873 166.741 370.984 166.64 371.113 166.565C371.241 166.49 371.388 166.446 371.536 166.43L387.522 164.385C387.761 164.388 387.992 164.474 388.174 164.628C388.355 164.782 388.48 164.992 388.524 165.226C388.563 165.687 388.497 165.972 388.145 166.189L388.15 166.19Z" fill="#04103D"/>
<path d="M390.744 176.742L390.391 176.958L368.448 179.989C368.301 180.026 368.15 180.031 368.005 180.004C367.857 179.979 367.717 179.92 367.597 179.832C367.473 179.746 367.372 179.634 367.297 179.506C367.222 179.377 367.178 179.231 367.162 179.083C367.186 178.811 367.298 178.555 367.482 178.355C367.666 178.155 367.912 178.021 368.18 177.972L390.123 174.941C390.395 174.965 390.651 175.078 390.851 175.262C391.051 175.446 391.185 175.691 391.234 175.96C391.343 176.137 391.098 176.528 390.745 176.745L390.744 176.742Z" fill="#04103D"/>
<path d="M392.129 187.306L391.777 187.522L375.79 189.567C375.642 189.603 375.492 189.609 375.347 189.582C375.202 189.555 375.062 189.496 374.938 189.409C374.815 189.323 374.713 189.212 374.641 189.082C374.565 188.95 374.519 188.808 374.506 188.659C374.53 188.387 374.643 188.131 374.827 187.931C375.011 187.731 375.256 187.597 375.525 187.548L391.512 185.503C391.75 185.506 391.981 185.592 392.163 185.746C392.344 185.9 392.471 186.113 392.515 186.347C392.554 186.809 392.488 187.094 392.136 187.31L392.129 187.306Z" fill="#04103D"/>
<path d="M392.768 201.004L392.415 201.22L370.363 204.073C370.238 204.133 370.101 204.16 369.962 204.15C369.825 204.143 369.691 204.1 369.575 204.026C369.459 203.952 369.36 203.852 369.291 203.732C369.222 203.613 369.185 203.478 369.182 203.339C369.142 203.193 369.14 203.041 369.167 202.896C369.194 202.751 369.253 202.611 369.339 202.487C369.425 202.364 369.537 202.262 369.668 202.186C369.797 202.111 369.944 202.066 370.091 202.05L392.143 199.197C392.382 199.2 392.613 199.286 392.795 199.44C392.976 199.594 393.101 199.804 393.145 200.038C393.184 200.499 393.118 200.784 392.766 201.001L392.768 201.004Z" fill="#04103D"/>
<path d="M394.261 211.742L393.73 212.068L377.744 214.112C377.505 214.109 377.274 214.023 377.093 213.869C376.911 213.715 376.786 213.505 376.742 213.271C376.705 213.124 376.7 212.974 376.727 212.828C376.752 212.68 376.811 212.54 376.899 212.42C376.985 212.296 377.097 212.195 377.227 212.123C377.359 212.047 377.502 212.004 377.65 211.988L393.637 209.943C393.909 209.967 394.165 210.08 394.365 210.264C394.565 210.448 394.699 210.693 394.748 210.962L394.259 211.747L394.261 211.742Z" fill="#04103D"/>
<path d="M395.471 222.413L395.119 222.63L373.354 225.551C372.607 225.525 372.216 225.279 372.065 224.642C372.026 224.496 372.024 224.344 372.05 224.199C372.076 224.051 372.135 223.911 372.223 223.791C372.309 223.667 372.42 223.565 372.552 223.489C372.68 223.414 372.827 223.37 372.975 223.354L394.849 220.609C394.992 220.572 395.147 220.568 395.292 220.595C395.44 220.62 395.58 220.679 395.701 220.767C395.824 220.853 395.926 220.965 396 221.093C396.077 221.224 396.12 221.368 396.136 221.516C396.123 221.711 396.054 221.902 395.934 222.059C395.816 222.218 395.654 222.339 395.47 222.41L395.471 222.413Z" fill="#04103D"/>
<path d="M396.86 232.976L396.507 233.192L380.63 235.414C380.358 235.39 380.102 235.278 379.902 235.094C379.702 234.91 379.568 234.664 379.519 234.396C379.48 233.934 379.791 233.258 380.36 233.394L396.238 231.172C396.385 231.135 396.535 231.13 396.68 231.157C396.826 231.184 396.966 231.243 397.089 231.329C397.212 231.415 397.314 231.527 397.386 231.657C397.462 231.789 397.508 231.931 397.521 232.08C397.505 232.277 397.439 232.467 397.319 232.623C397.202 232.782 397.039 232.903 396.855 232.974L396.86 232.976Z" fill="#04103D"/>
<path d="M398.692 245.455L398.339 245.672L376.292 248.526C376.167 248.586 376.03 248.612 375.891 248.602C375.754 248.595 375.62 248.553 375.504 248.479C375.385 248.407 375.289 248.304 375.22 248.185C375.151 248.066 375.114 247.931 375.111 247.791C375.074 247.644 375.069 247.494 375.096 247.348C375.121 247.2 375.181 247.06 375.268 246.94C375.354 246.816 375.466 246.715 375.595 246.64C375.723 246.565 375.87 246.521 376.017 246.505L398.065 243.65C398.336 243.674 398.592 243.787 398.792 243.971C398.992 244.155 399.127 244.4 399.175 244.669L398.687 245.454L398.692 245.455Z" fill="#04103D"/>
<path d="M399.903 256.126L399.55 256.343L383.673 258.565C383.413 258.513 383.172 258.391 382.974 258.21C382.777 258.032 382.635 257.8 382.562 257.546C382.502 257.422 382.475 257.284 382.485 257.145C382.493 257.008 382.535 256.874 382.609 256.759C382.681 256.64 382.784 256.543 382.903 256.474C383.022 256.405 383.157 256.368 383.296 256.365L399.461 254.212C399.733 254.236 399.989 254.348 400.189 254.532C400.389 254.716 400.523 254.961 400.572 255.23C400.557 255.43 400.49 255.617 400.37 255.773C400.252 255.932 400.09 256.053 399.909 256.123L399.903 256.126Z" fill="#04103D"/>
<defs>
<clipPath id="clip0_11122_49699">
<rect width="141.426" height="195.63" fill="white" transform="translate(422.937 36.0566) rotate(24.0186)"/>
</clipPath>
<clipPath id="clip1_11122_49699">
<rect width="58.0499" height="61.1161" fill="white" transform="translate(431.215 119.9) rotate(24.02)"/>
</clipPath>
</defs>
</svg>
