<svg width="570" height="302" viewBox="0 0 570 302" fill="none" xmlns="http://www.w3.org/2000/svg">
<rect width="570" height="302" rx="20" fill="white"/>
<path d="M536.877 96.8713C536.457 98.2887 536.279 99.8038 536.414 101.311C536.003 100.569 535.489 99.6288 534.834 98.4145C534.518 97.8288 533.725 97.7498 533.292 98.2368L533.291 98.2372C525.676 106.813 517.104 111.674 507.406 113.624C489.541 117.213 467.77 110.948 440.977 99.525C440.867 99.4772 440.816 99.3504 440.861 99.2427C440.861 99.2426 440.861 99.2425 440.861 99.2423L444.203 91.202L444.203 91.2018L459.239 55.0039C459.239 55.0036 459.239 55.0033 459.24 55.0031C459.286 54.8932 459.411 54.8402 459.523 54.8838C484.29 64.8283 507.16 74.2776 525.918 82.9476C531.492 85.5262 536.702 88.0322 541.49 90.4637C539.344 91.816 537.67 94.1924 536.877 96.8713Z" fill="#F7F7FC" stroke="#1C1C1C"/>
<path d="M534.681 103.307L524.16 108.715C523.826 108.832 516.127 111.759 513.923 112.317C512.481 112.706 509.522 113.151 508.059 113.438C499.981 115.022 489.25 112.414 478.213 109.865C468.859 107.705 458.192 104.053 444.778 98.415C444.555 98.3208 444.449 98.0626 444.541 97.8386L446.682 92.6834L460.853 58.57C460.945 58.3492 461.199 58.2417 461.422 58.331C482.855 66.9473 506.588 76.7897 525.979 85.8141C529.846 87.6141 533.543 89.3834 537.012 91.1005C537.231 91.2095 537.292 91.4916 537.138 91.6802C536.408 92.5937 534.597 95.1402 534.179 98.4529C533.991 99.9421 534.085 101.588 534.681 103.307Z" fill="#7EF0BC"/>
<path d="M532.918 102.625C525.158 107.352 517.164 110.648 508.057 111.925C499.424 113.138 487.301 109.999 478.809 108.097C471.313 106.367 463.657 103.825 453.694 99.8864C453.285 99.7247 453.052 99.2792 453.169 98.8573C453.422 97.9444 453.454 97.0108 453.292 96.1208C452.97 94.3377 451.868 92.7333 450.207 91.8184C449.817 91.6019 449.646 91.1341 449.815 90.7229L460.121 65.987C460.284 65.5972 460.707 65.3717 461.116 65.4757C463.396 66.0521 465.797 65.042 466.984 63.0123C467.197 62.6479 467.65 62.5057 468.04 62.6613C486.589 70.1301 507.752 79.1422 525.652 87.5034C527.712 88.4642 529.729 89.4197 531.694 90.3613C531.876 90.4485 531.965 90.6668 531.881 90.8514C531.263 92.234 532.035 93.872 533.284 94.8898L533.288 94.8926C533.42 95.0008 533.471 95.1814 533.407 95.3416C532.435 97.7755 532.242 100.034 532.915 102.628L532.918 102.625Z" fill="#F7F7FC"/>
<path d="M465.59 87.6886C468.259 88.8422 471.176 88.0367 472.104 85.8893C473.032 83.742 471.62 81.066 468.951 79.9123C466.281 78.7587 463.365 79.5643 462.437 81.7116C461.509 83.859 462.921 86.5349 465.59 87.6886Z" fill="#3DE297"/>
<path d="M511.373 98.6096C513.496 90.6987 508.772 82.462 500.664 79.6113C492.571 76.7846 483.51 80.1802 480.59 87.8921C477.693 95.5151 482.562 104.791 491.502 107.875C500.183 110.884 509.193 106.733 511.373 98.6096ZM491.91 106.694C483.36 103.744 479.196 95.077 481.76 88.3366C484.341 81.5175 492.636 78.1312 500.248 80.7923C507.708 83.4144 512.095 91.0881 510.163 98.2829C508.134 105.829 499.765 109.413 491.91 106.694Z" fill="#3DE297"/>
<path d="M507.721 97.4631C506.1 103.484 499.374 106.844 492.573 104.486C485.775 102.139 481.983 95.0985 484.204 89.2529C486.418 83.4017 493.327 80.7986 499.526 82.9648C505.728 85.145 509.338 91.4309 507.721 97.4631Z" fill="#3DE297"/>
<path d="M527.13 103.488C526.392 105.192 523.581 106.494 521.326 105.519C519.072 104.544 517.842 102.377 518.578 100.671C519.314 98.9694 521.536 99.3564 523.991 99.3513C526.597 99.3452 527.864 101.785 527.128 103.487L527.13 103.488Z" fill="#3DE297"/>
<path d="M539.32 106.605C539.325 106.638 539.327 106.664 539.327 106.683C538.662 106.773 538.016 106.88 537.39 107.007C532.12 107.848 528.236 108.79 524.636 109.663C523.94 109.832 523.255 109.998 522.572 110.161L522.407 110.2L522.388 110.223C521.649 110.402 520.187 110.783 518.533 111.214C517.933 111.37 517.307 111.533 516.682 111.695C514.178 112.345 511.69 112.981 510.769 113.158C510.062 113.293 509.337 113.421 508.587 113.544C511.949 112.418 515.53 110.938 519.016 109.175C524.913 106.192 530.578 102.381 534.465 98.0659L534.508 98.076L534.598 97.9867C536.44 101.338 536.916 102.218 537.435 103.072C537.648 103.423 537.868 103.769 538.192 104.28C538.562 104.891 538.913 105.502 539.129 106.006C539.237 106.261 539.299 106.461 539.32 106.605ZM534.631 97.88L534.638 97.8724C534.643 97.8659 534.64 97.8699 534.631 97.88Z" fill="#F7F7FC" stroke="#1C1C1C"/>
<path d="M537.387 106.478C531.116 107.479 526.822 108.621 522.596 109.626C529.435 105.208 533.083 101.456 533.485 101.255C533.755 101.12 533.94 101.21 534.072 101.472C534.727 102.663 535.83 103.995 536.55 105.198C536.702 105.438 536.55 105.198 537.386 106.477L537.387 106.478Z" fill="#7EF0BC"/>
<mask id="path-11-inside-1_11122_49180" fill="white">
<path d="M362.541 119.123C361.527 108.786 364.661 98.4697 371.254 90.4436C377.846 82.4174 387.357 77.3389 397.694 76.3251C408.031 75.3114 418.347 78.4455 426.373 85.0379C434.399 91.6304 439.478 101.141 440.492 111.478L426.708 112.83C426.053 106.149 422.77 100.001 417.583 95.7401C412.395 91.479 405.727 89.4533 399.046 90.1085C392.364 90.7638 386.217 94.0463 381.956 99.2341C377.695 104.422 375.669 111.09 376.324 117.771L362.541 119.123Z"/>
</mask>
<path d="M362.541 119.123C361.527 108.786 364.661 98.4697 371.254 90.4436C377.846 82.4174 387.357 77.3389 397.694 76.3251C408.031 75.3114 418.347 78.4455 426.373 85.0379C434.399 91.6304 439.478 101.141 440.492 111.478L426.708 112.83C426.053 106.149 422.77 100.001 417.583 95.7401C412.395 91.479 405.727 89.4533 399.046 90.1085C392.364 90.7638 386.217 94.0463 381.956 99.2341C377.695 104.422 375.669 111.09 376.324 117.771L362.541 119.123Z" fill="#0D76E9" stroke="#1C1C1C" stroke-width="3" stroke-linejoin="round" mask="url(#path-11-inside-1_11122_49180)"/>
<rect x="306.915" y="121.876" width="189.582" height="135.915" rx="15.25" transform="rotate(-5.60112 306.915 121.876)" fill="#0D76E9" stroke="#1C1C1C" stroke-width="1.5" stroke-linejoin="round"/>
<path d="M329.173 145.923L410.507 188.004L478.43 131.286" stroke="#1C1C1C" stroke-width="1.5" stroke-linecap="round" stroke-linejoin="round"/>
<rect x="395.674" y="174.333" width="25.7951" height="20.7764" rx="3.25" transform="rotate(-5.60112 395.674 174.333)" fill="white" stroke="#1C1C1C" stroke-width="1.5" stroke-linejoin="round"/>
<g clip-path="url(#clip0_11122_49180)">
<path d="M287.549 104.446L287.549 104.447C287.454 106.979 287.277 110.697 287.074 114.96C286.856 119.569 286.606 124.815 286.397 129.889C286.196 134.779 286.031 139.517 285.966 143.391C285.9 147.282 285.935 150.26 286.124 151.659L286.124 151.659C286.476 154.283 288.473 156.531 290.638 158.207L307.894 140.066L307.988 139.967L308.119 139.929L308.256 140.41C308.119 139.929 308.119 139.929 308.119 139.929L308.12 139.929L308.124 139.928L308.139 139.924L308.2 139.906C308.254 139.89 308.334 139.867 308.44 139.836C308.651 139.774 308.963 139.682 309.364 139.562C310.165 139.322 311.322 138.969 312.745 138.519C315.589 137.619 319.492 136.328 323.724 134.77C332.214 131.645 341.946 127.472 347.172 123.231L347.172 123.231C347.546 122.928 347.758 122.46 347.745 121.97C347.282 105.526 346.402 95.8056 344.056 82.7001C343.861 81.6172 343.661 80.5151 343.445 79.3832L343.445 79.3819C343.413 79.2132 343.248 79.1078 343.082 79.1492L343.08 79.1497C340.063 79.8932 329.131 82.6494 317.819 86.2425C312.163 88.0392 306.419 90.0426 301.526 92.1056C296.616 94.1755 292.619 96.2827 290.409 98.2712L290.37 98.3064C290.37 98.3066 290.37 98.3068 290.37 98.307C288.64 99.8777 287.635 102.101 287.549 104.446Z" fill="#F7F7FC" stroke="#1C1C1C"/>
<path d="M290.074 97.8993L290.034 97.936C288.201 99.6002 287.14 101.952 287.049 104.428C286.709 113.489 285.353 137.193 285.44 147.642C291.266 127.765 302.926 109.632 318.607 96.0977C326.067 89.6587 334.963 84.0989 344.547 82.6148C344.353 81.5311 344.152 80.4269 343.936 79.2924C343.851 78.8412 343.405 78.5555 342.96 78.6671C336.917 80.1561 299.184 89.7043 290.074 97.9024L290.074 97.8993Z" fill="#E8FFF4"/>
<path d="M286.872 109.299C286.056 131.906 284.767 144.239 285.469 149.42C287.115 142.377 294.247 139.766 304.963 136.297C306.393 135.833 332.411 129.4 343.602 121.678C344.063 121.361 344.329 120.829 344.309 120.269C343.798 104.236 343.005 96.9531 340.928 84.5344C340.807 83.8206 340.104 83.3834 339.432 83.5574C319.497 88.7158 298.46 95.9353 292.453 100.54C290.408 102.106 287.052 104.425 286.874 109.297L286.872 109.299Z" fill="#7EF0BC"/>
<path d="M286.873 109.299C286.055 131.957 284.982 141.196 285.347 147.962C291.141 127.958 302.84 109.701 318.607 96.0949C324.908 90.6575 332.232 85.8464 340.129 83.5879C339.913 83.5114 339.672 83.4955 339.43 83.5573C319.494 88.7157 298.457 95.9351 292.45 100.539C290.405 102.106 287.049 104.425 286.871 109.297L286.873 109.299Z" fill="#7EF0BC"/>
<path d="M308.152 139.555C308.118 139.661 308.072 139.804 308.015 139.981C307.864 140.025 307.669 140.083 307.434 140.153L307.568 139.739L308.152 139.555ZM308.152 139.555C308.091 139.533 308.036 139.502 307.989 139.468" fill="#F7F7FC" stroke="#1C1C1C"/>
<path d="M289.903 154.313L289.907 154.321C290.922 157.178 295.411 159.569 298.315 160.805C298.661 160.95 299.052 160.789 299.202 160.457C299.212 160.433 299.221 160.41 299.229 160.386C299.334 160.064 305.824 139.979 305.411 141.255C302.829 142.077 299.796 143.158 297.195 144.25C297.195 144.25 297.193 144.251 297.191 144.252C287.946 149.699 289.803 154.094 289.903 154.313Z" fill="#7EF0BC"/>
<path d="M289.903 154.313L289.907 154.321C290.922 157.178 295.411 159.569 298.315 160.805C298.661 160.95 299.053 160.789 299.202 160.458C298.222 160.086 297.284 159.617 296.422 159.01C294.049 157.335 292.364 154.392 292.94 151.545C293.477 148.895 295.747 146.97 298.037 145.529C300.27 144.12 302.66 142.96 305.147 142.072L305.411 141.256C302.829 142.077 299.796 143.158 297.195 144.25C297.195 144.25 297.193 144.251 297.192 144.253C287.946 149.699 289.803 154.094 289.903 154.313Z" fill="#7EF0BC"/>
<path d="M291.982 151.302C291.632 152.026 291.327 153.011 291.613 153.768C292.002 154.789 293.325 155.926 294.251 156.581C294.429 156.71 294.681 156.645 294.778 156.449C295.471 155.035 297.198 154.439 298.619 155.123C298.815 155.217 299.052 155.119 299.118 154.912C299.224 154.581 303.565 141.149 303.305 141.951C302.644 142.163 301.44 142.607 300.793 142.851C298.513 144.513 293.21 148.749 291.982 151.302Z" fill="#F7F7FC"/>
<path d="M291.038 104.253C286.967 107.917 286.778 112.145 286.778 112.145L286.767 112.155C286.115 130.217 285.077 140.27 285.309 147.058C285.35 144.72 286.527 143.257 287.001 142.759C290.941 138.624 298.87 136.228 304.367 134.449C306.551 133.742 323.865 129.605 336.655 123.394C336.912 123.269 337.071 123.008 337.072 122.721C337.081 119.429 338.876 116.393 341.747 114.782C341.996 114.643 342.144 114.378 342.131 114.092C341.667 104.02 341.358 101.498 340.233 93.0049C340.179 92.591 339.796 92.3055 339.383 92.3644C336.468 92.7864 333.673 90.9453 332.907 88.1034C332.798 87.7005 332.382 87.4645 331.983 87.5769C323.91 89.8401 300.288 96.9747 293.632 102.078C291.285 103.863 291.37 103.96 291.038 104.25L291.038 104.253Z" fill="#F7F7FC"/>
<path d="M327.115 102.397C325.101 103.11 323.959 105.712 324.405 108.084C324.818 110.283 326.501 111.695 328.287 111.36C330.195 111.002 331.706 108.767 331.532 106.206C331.341 103.416 329.286 101.631 327.113 102.399L327.115 102.397Z" fill="#3DE297"/>
<path d="M302.81 101.211C310.774 96.7372 316.504 102.141 316.603 110.878C316.798 118.653 314.303 124.844 309.743 127.857C307.432 129.347 304.635 129.805 302.083 129.128C299.164 128.327 297.131 126.369 295.736 123.71L295.722 123.694C292.023 117.013 295.464 105.31 302.81 101.207L302.81 101.211ZM296.502 123.287C299.397 128.792 305.027 129.803 309.272 127.105C313.56 124.278 315.9 118.373 315.706 110.893C315.591 102.948 310.686 97.8449 303.251 101.992C296.61 105.767 292.921 116.527 296.505 123.287L296.502 123.287Z" fill="#3DE297"/>
<path d="M297.964 122.327C300.491 127.032 305.32 127.131 308.613 124.639C312.182 121.898 313.96 116.676 313.735 110.636C313.669 107.486 312.678 104.814 310.954 103.422C309.127 101.915 306.498 101.808 303.269 103.977C297.737 107.727 295.036 116.951 297.962 122.326L297.964 122.327Z" fill="#3DE297"/>
<path d="M286.746 120.244C286.568 120.658 286.406 121.101 286.264 121.562C286.145 124.145 286.025 126.805 285.917 129.429C286.591 131.18 287.899 130.613 288.925 128.236C289.978 125.797 290.459 122.093 289.967 119.801C289.432 117.311 287.972 117.417 286.746 120.244Z" fill="#3DE297"/>
<path d="M286.003 149.312C285.511 143.838 286.994 113.809 287.333 104.747C287.425 102.271 288.485 99.9198 290.318 98.2556L290.359 98.2189L290.359 98.222C299.468 90.0239 336.452 80.3653 342.495 78.8763C342.94 78.7647 343.386 79.0504 343.471 79.5016C343.687 80.6361 343.906 81.9915 344.1 83.0752" stroke="black"/>
</g>
<g clip-path="url(#clip1_11122_49180)">
<path d="M537.723 214.081L537.721 214.079L537.805 213.811C537.918 213.452 537.743 213.064 537.394 212.909L537.723 214.081ZM537.723 214.081C535.949 219.717 528.902 241.861 523.787 254.232L523.787 254.232C520.854 261.329 518.121 264.682 516.173 266.261C515.201 267.048 514.425 267.395 513.914 267.547C513.658 267.623 513.465 267.652 513.345 267.662C513.285 267.667 513.242 267.668 513.219 267.668C513.208 267.667 513.202 267.667 513.199 267.667L513.197 267.667L513.197 267.667L513.195 267.667L513.186 267.666L511.993 267.588L488.828 262.413C488.425 261.835 488.02 261.258 487.613 260.681C484.588 256.382 481.555 252.073 479.725 246.892C477.637 240.982 477.111 233.915 480.083 224.459C480.554 222.963 481.243 220.908 482.057 218.557L482.057 218.557C483.781 213.572 486.043 207.276 487.875 202.225C488.79 199.699 489.598 197.486 490.177 195.904C490.467 195.113 490.699 194.479 490.859 194.044L491.043 193.544L491.09 193.415L491.102 193.382L491.105 193.374L491.106 193.372L491.106 193.371C491.106 193.371 491.106 193.371 490.637 193.198L491.106 193.371L491.108 193.366C491.254 192.957 491.715 192.76 492.108 192.934L492.109 192.934L523.66 206.852L523.66 206.852L537.394 212.908L537.723 214.081Z" fill="#7EF0BC" stroke="#1C1C1C"/>
<path d="M530.357 222.382C527.366 231.534 523.044 244.308 519.65 252.523C515.689 262.104 512.621 263.263 512.588 263.272C511.639 263.601 510.82 263.405 509.868 263.04C505.789 261.463 494.366 259.016 491.49 258.414L491.276 258.109C484.942 249.111 479.47 241.339 484.352 225.802C484.997 223.752 486.07 220.614 487.303 217.103C488.747 212.995 490.409 208.373 491.849 204.398C491.961 204.089 492.294 203.915 492.609 204.014C495.013 204.769 497.627 203.651 498.748 201.391C498.895 201.096 499.249 200.975 499.55 201.109C499.75 201.196 496.896 199.938 526.08 212.811C526.359 212.934 526.503 213.238 526.43 213.534C525.635 216.742 527.129 220.091 530.052 221.637C530.32 221.782 530.452 222.092 530.359 222.38L530.357 222.382Z" fill="#F7F7FC"/>
<path d="M494.794 253.313C487.043 249.848 483.24 241.427 486.319 234.542C489.312 227.847 497.974 224.778 505.957 228.348C513.708 231.815 517.511 240.232 514.434 247.113C511.444 253.802 502.792 256.888 494.794 253.312L494.794 253.313ZM487.265 234.966C484.42 241.328 487.989 249.134 495.218 252.367C502.726 255.725 510.745 252.826 513.488 246.692C516.331 240.331 512.763 232.529 505.533 229.296C498.09 225.969 490.035 228.772 487.265 234.966Z" fill="#3DE297"/>
<path d="M512.187 244.918C510.566 250.939 503.84 254.299 497.039 251.941C490.24 249.594 486.449 242.553 488.67 236.708C490.884 230.856 497.793 228.253 503.992 230.419C510.193 232.6 513.804 238.885 512.187 244.918Z" fill="#3DE297"/>
<path d="M509.921 213.636C512.938 214.985 514.415 218.24 513.224 220.905C512.032 223.571 508.621 224.64 505.604 223.291C502.586 221.942 501.109 218.688 502.302 216.019C503.493 213.355 506.903 212.286 509.921 213.635L509.921 213.636Z" fill="#3DE297"/>
<path d="M511.095 267.534C510.856 267.508 510.599 267.478 510.325 267.445C508.931 267.274 507.136 267.015 505.06 266.691C500.909 266.043 495.647 265.136 490.243 264.161C479.433 262.212 468.076 259.997 463.924 259.048C463.919 259.046 463.913 259.045 463.907 259.044C463.906 259.043 463.905 259.043 463.903 259.043L463.884 259.038L463.881 259.038C463.873 259.036 463.864 259.034 463.854 259.032C463.812 259.023 463.759 259.011 463.717 259.002C462.95 258.825 462.384 258.684 462.032 258.578L462.03 258.577C457.666 257.282 457.059 253.207 456.661 250.534C456.646 250.436 456.632 250.341 456.618 250.247C455.243 241.148 457.092 228.015 457.719 224.045C457.793 223.581 458.169 223.229 458.635 223.184L511.095 267.534ZM511.095 267.534C510.573 267.052 509.998 266.368 509.425 265.4C507.693 262.47 505.978 256.922 505.82 246.382L505.82 246.382C505.582 230.438 505.503 222.343 505.483 219.442C505.477 219.044 505.136 218.739 504.744 218.777L467.517 222.335L467.517 222.335L458.636 223.184L511.095 267.534Z" fill="#7EF0BC" stroke="#1C1C1C"/>
<path d="M507.576 267.563C495.667 265.831 471.054 261.194 463.809 259.534C463.806 259.534 463.802 259.532 463.796 259.532C463.732 259.518 463.671 259.503 463.611 259.491C460.209 257.904 459.39 253.758 459.088 251.671C458.312 246.302 458.878 238.79 459.497 233.394C459.54 233.037 459.802 232.743 460.155 232.676C462.756 232.193 464.816 230.179 465.363 227.586C465.435 227.237 465.735 226.981 466.091 226.947L466.38 226.921L493.89 224.294C494.337 224.253 494.729 224.574 494.791 225.019C495.187 227.883 497.6 230.069 500.491 230.178C500.939 230.194 501.298 230.55 501.301 230.999C501.321 235.149 501.362 240.862 501.452 248.149C501.627 261.757 505.259 265.995 507.099 267.273C507.275 267.395 507.438 267.491 507.576 267.565L507.576 267.563Z" fill="#F7F7FC"/>
<path d="M478.902 237.161C482.207 237.207 484.851 239.61 484.811 242.529C484.772 245.449 482.062 247.78 478.757 247.736C475.452 247.69 472.808 245.287 472.848 242.366C472.888 239.447 475.597 237.117 478.902 237.161Z" fill="#3DE297"/>
<path d="M491.635 265.506C485.904 264.485 479.895 263.367 474.762 262.37C475.26 261.046 476.74 260.251 479.108 260.283C482.911 260.335 487.895 262.5 491.635 265.506Z" fill="#7EF0BC"/>
<path d="M508.295 267.274C496.203 265.825 462.435 262.185 459.358 256.875" stroke="#1C1C1C" stroke-width="0.885791"/>
</g>
<defs>
<clipPath id="clip0_11122_49180">
<rect width="57.5259" height="93.306" fill="white" transform="matrix(-0.668944 -0.743313 -0.743313 0.668944 367.655 105.472)"/>
</clipPath>
<clipPath id="clip1_11122_49180">
<rect width="80.836" height="74.2727" fill="white" transform="translate(458.869 190.203) rotate(3.75909)"/>
</clipPath>
</defs>
</svg>
