<svg viewBox="0 0 570 303" fill="none" xmlns="http://www.w3.org/2000/svg">
<rect width="570" height="302" transform="translate(0 0.794922)" fill="white"/>
<path d="M406.114 122.282L396.81 97.1636L372.622 103.211C372.777 104.606 372.994 107.862 372.622 109.723C372.157 112.049 370.296 113.909 366.11 111.118C365.801 110.913 365.49 110.74 365.179 110.599C361.268 108.822 357.34 112.029 358.202 117.631C358.946 122.468 364.404 124.608 367.04 125.073H369.831C368.946 125.693 367.069 127.213 366.642 128.329C366.346 131.12 366.084 135.307 366.642 142.284C367.573 153.913 371.692 168.798 387.507 168.798C400.16 168.798 402.082 148.331 401.927 142.284L400.201 136.237C399.937 134.802 396.9 134.088 395.415 133.911L399.601 132.981C410.765 131.585 406.114 122.282 406.114 122.282Z" fill="white"/>
<path d="M369.831 125.073H367.04C366.919 125.924 366.78 127.03 366.642 128.329C367.069 127.213 368.946 125.693 369.831 125.073Z" fill="#1C1C1C"/>
<path d="M399.601 132.981L395.415 133.911C396.9 134.088 399.937 134.802 400.201 136.237L399.601 132.981Z" fill="#1C1C1C"/>
<path d="M366.11 111.118C370.296 113.909 372.157 112.049 372.622 109.723C372.994 107.862 372.777 104.606 372.622 103.211L365.179 105.536V110.599C365.49 110.74 365.801 110.913 366.11 111.118Z" fill="#0D76E9"/>
<path d="M399.601 132.981C410.765 131.585 406.114 122.282 406.114 122.282L396.81 97.1636L372.622 103.211M399.601 132.981L395.415 133.911C396.9 134.088 399.937 134.802 400.201 136.237M399.601 132.981L400.201 136.237M367.04 125.073C364.404 124.608 358.946 122.468 358.202 117.631C357.34 112.029 361.268 108.822 365.179 110.599M367.04 125.073H369.831C368.946 125.693 367.069 127.213 366.642 128.329M367.04 125.073C366.919 125.924 366.78 127.03 366.642 128.329M372.622 103.211C372.777 104.606 372.994 107.862 372.622 109.723C372.157 112.049 370.296 113.909 366.11 111.118C365.801 110.913 365.49 110.74 365.179 110.599M372.622 103.211L365.179 105.536V110.599M360.993 115.305C361.867 115.086 363.588 115.176 365.179 116.55M367.04 119.026C366.491 117.927 365.846 117.126 365.179 116.55M363.784 119.956C363.939 118.771 364.435 116.429 365.179 116.55M378.669 111.118C379.599 110.343 382.018 108.607 384.251 107.862M389.833 106.467C391.228 105.847 394.485 104.699 396.345 105.071M389.833 108.793C389.988 110.188 390.763 113.444 392.624 115.305C391.849 115.72 389.926 116.55 388.437 116.55M386.112 117.631C386.267 118.406 387.042 119.956 388.903 119.956M366.642 128.329C366.346 131.12 366.084 135.307 366.642 142.284C367.573 153.913 371.692 168.798 387.507 168.798C400.16 168.798 402.082 148.331 401.927 142.284L400.201 136.237" stroke="#1C1C1C" stroke-width="0.93032" stroke-linecap="round" stroke-linejoin="round"/>
<rect x="380.995" y="111.736" width="2.73356" height="3.72128" rx="1.36678" transform="rotate(-13.0333 380.995 111.736)" fill="#1C1C1C"/>
<rect x="392.159" y="108.945" width="2.73356" height="3.72128" rx="1.36678" transform="rotate(-13.0333 392.159 108.945)" fill="#1C1C1C"/>
<path fill-rule="evenodd" clip-rule="evenodd" d="M385.181 167.402C384.548 167.402 383.928 167.381 383.321 167.341C382.39 175.889 381.925 192.986 387.507 192.986C393.089 192.986 392.892 175.31 392.096 166.472C390.035 167.068 387.738 167.402 385.181 167.402ZM387.507 173.914C388.535 173.914 389.368 173.081 389.368 172.054C389.368 171.026 388.535 170.193 387.507 170.193C386.48 170.193 385.646 171.026 385.646 172.054C385.646 173.081 386.48 173.914 387.507 173.914ZM387.507 181.357C388.535 181.357 389.368 180.524 389.368 179.496C389.368 178.469 388.535 177.636 387.507 177.636C386.48 177.636 385.646 178.469 385.646 179.496C385.646 180.524 386.48 181.357 387.507 181.357ZM387.507 188.334C388.535 188.334 389.368 187.501 389.368 186.474C389.368 185.446 388.535 184.613 387.507 184.613C386.48 184.613 385.646 185.446 385.646 186.474C385.646 187.501 386.48 188.334 387.507 188.334Z" fill="#7EF0BC"/>
<path d="M334.479 268.342H462.863C452.618 145.852 453.463 142.361 409.037 142.285C408.466 149.476 404.639 162.841 392.096 166.472C392.892 175.31 393.089 192.986 387.507 192.986C381.925 192.986 382.39 175.889 383.321 167.341C366.584 166.233 359.98 150.259 359.132 142.129C325.747 141.792 322.533 150.339 309.825 198.104L312.151 211.592L347.142 224.151L334.479 268.342Z" fill="#7EF0BC"/>
<path d="M385.181 160.891C371.04 160.891 367.195 148.332 366.575 142.13C364.284 142.049 361.186 142.15 359.132 142.129C359.98 150.259 366.584 166.233 383.321 167.341L385.181 167.402C387.738 167.402 390.035 167.068 392.096 166.472C404.639 162.841 408.466 149.476 409.037 142.285C407.068 142.282 404.079 142.13 401.927 142.13C401.927 148.332 399.322 160.891 385.181 160.891Z" fill="white"/>
<path d="M389.368 186.474C389.368 187.501 388.535 188.334 387.507 188.334C386.48 188.334 385.646 187.501 385.646 186.474C385.646 185.446 386.48 184.613 387.507 184.613C388.535 184.613 389.368 185.446 389.368 186.474Z" fill="white"/>
<path d="M389.368 179.496C389.368 180.524 388.535 181.357 387.507 181.357C386.48 181.357 385.646 180.524 385.646 179.496C385.646 178.469 386.48 177.636 387.507 177.636C388.535 177.636 389.368 178.469 389.368 179.496Z" fill="white"/>
<path d="M389.368 172.054C389.368 173.081 388.535 173.914 387.507 173.914C386.48 173.914 385.646 173.081 385.646 172.054C385.646 171.026 386.48 170.193 387.507 170.193C388.535 170.193 389.368 171.026 389.368 172.054Z" fill="white"/>
<path d="M357.272 188.799L347.142 224.151M347.142 224.151L334.479 268.342H462.863C452.618 145.852 453.463 142.361 409.037 142.285M347.142 224.151L312.151 211.592L309.825 198.104C322.533 150.339 325.747 141.792 359.132 142.129M359.132 142.129C361.186 142.15 364.284 142.049 366.575 142.13C367.195 148.332 371.04 160.891 385.181 160.891C399.322 160.891 401.927 148.332 401.927 142.13C404.079 142.13 407.068 142.282 409.037 142.285M359.132 142.129C359.98 150.259 366.584 166.233 383.321 167.341M385.181 167.402C384.548 167.402 383.928 167.381 383.321 167.341M385.181 167.402L383.321 167.341M385.181 167.402C387.738 167.402 390.035 167.068 392.096 166.472M409.037 142.285C408.466 149.476 404.639 162.841 392.096 166.472M383.321 167.341C382.39 175.889 381.925 192.986 387.507 192.986C393.089 192.986 392.892 175.31 392.096 166.472M389.368 172.054C389.368 173.081 388.535 173.914 387.507 173.914C386.48 173.914 385.646 173.081 385.646 172.054C385.646 171.026 386.48 170.193 387.507 170.193C388.535 170.193 389.368 171.026 389.368 172.054ZM389.368 179.496C389.368 180.524 388.535 181.357 387.507 181.357C386.48 181.357 385.646 180.524 385.646 179.496C385.646 178.469 386.48 177.636 387.507 177.636C388.535 177.636 389.368 178.469 389.368 179.496ZM389.368 186.474C389.368 187.501 388.535 188.334 387.507 188.334C386.48 188.334 385.646 187.501 385.646 186.474C385.646 185.446 386.48 184.613 387.507 184.613C388.535 184.613 389.368 185.446 389.368 186.474Z" stroke="#1C1C1C" stroke-width="0.93032" stroke-linejoin="round"/>
<path d="M529.105 276.338H424.902L442.689 209.737C443.343 207.295 445.567 205.602 448.104 205.602H541.98C545.019 205.602 547.233 208.463 546.453 211.386L529.105 276.347V276.338Z" fill="#0D76E9"/>
<path d="M482.728 241.555C482.127 244.924 484.396 247.651 487.775 247.651C491.155 247.651 494.392 244.924 494.984 241.555C495.584 238.186 493.316 235.459 489.936 235.459C486.556 235.459 483.32 238.186 482.728 241.555Z" fill="white"/>
<path d="M308.43 292.066C276.334 292.066 281.451 264.156 260.519 174.846L275.404 146.936L304.709 164.147L311.221 211.128L347.038 223.687C334.944 276.716 329.362 292.066 308.43 292.066Z" fill="white"/>
<path d="M311.221 211.128L347.038 223.687C334.944 276.716 329.362 292.066 308.43 292.066C276.334 292.066 281.451 264.156 260.519 174.846L275.404 146.936L304.709 164.147L311.221 211.128ZM311.221 211.128L315.873 240.433" stroke="#1C1C1C" stroke-width="0.93032" stroke-linecap="round" stroke-linejoin="round"/>
<rect x="253.182" y="149.778" width="15.5611" height="30.3513" rx="7.78056" transform="rotate(-15.2321 253.182 149.778)" fill="white" stroke="#1C1C1C" stroke-width="0.93032"/>
<rect x="278.268" y="111.58" width="15.5611" height="50.6319" rx="7.78056" transform="rotate(-10.0421 278.268 111.58)" fill="white" stroke="#1C1C1C" stroke-width="0.93032"/>
<rect x="267.136" y="141.827" width="15.5611" height="30.3513" rx="7.78056" transform="rotate(-15.2321 267.136 141.827)" fill="white" stroke="#1C1C1C" stroke-width="0.93032"/>
<rect x="301.473" y="147.123" width="15.5611" height="30.3513" rx="7.78056" transform="rotate(52.3211 301.473 147.123)" fill="white" stroke="#1C1C1C" stroke-width="0.93032"/>
<path d="M364.456 105.876L397.487 97.6851C391.578 90.9536 385.265 88.5257 379.749 88.8003C377.705 88.9021 375.771 89.3749 374.007 90.1374C367.644 92.8884 363.502 99.4098 364.456 105.876Z" fill="#1C1C1C"/>
<path d="M397.487 97.6851L364.456 105.876C363.502 99.4098 367.644 92.8884 374.007 90.1374M397.487 97.6851C404.515 95.7518 417.575 93.2476 413.939 88.4704C411.166 84.8276 401.427 93.4753 397.487 97.6851ZM397.487 97.6851C391.578 90.9536 385.265 88.5257 379.749 88.8003M374.007 90.1374C375.771 89.3749 377.705 88.9021 379.749 88.8003M374.007 90.1374C373.62 87.5715 377.95 85.8563 379.749 88.8003" stroke="#1C1C1C" stroke-width="0.93032" stroke-linecap="round" stroke-linejoin="round"/>
<path d="M387.507 277.646H528.916" stroke="#0D76E9" stroke-width="2.79096" stroke-linecap="round" stroke-linejoin="round"/>
</svg>
