<svg width="570" height="302" viewBox="0 0 570 302" fill="none" xmlns="http://www.w3.org/2000/svg">
<rect width="570" height="302" rx="20" fill="white"/>
<g clip-path="url(#clip0_11122_49667)">
<path d="M348.309 49.8545C350.611 50.12 352.692 48.4693 352.957 46.1676C353.223 43.8658 351.572 41.7847 349.27 41.5191C346.969 41.2536 344.888 42.9043 344.622 45.206C344.356 47.5077 346.007 49.5889 348.309 49.8545Z" fill="#D7DBEB"/>
<path d="M364.606 51.968C366.908 52.2335 368.989 50.5829 369.254 48.2811C369.52 45.9794 367.869 43.8982 365.567 43.6326C363.266 43.3671 361.185 45.0178 360.919 47.3195C360.653 49.6213 362.304 51.7025 364.606 51.968Z" fill="#D7DBEB"/>
<path d="M332.012 48.2075C334.314 48.473 336.395 46.8224 336.66 44.5206C336.926 42.2189 335.275 40.1377 332.973 39.8722C330.672 39.6066 328.591 41.2573 328.325 43.559C328.059 45.8608 329.71 47.942 332.012 48.2075Z" fill="#D7DBEB"/>
<path d="M318.373 204.061C316.203 201.845 312.501 201.362 311.447 197.954C310.953 196.357 311.341 194.395 312.4 193.143C313.459 191.891 315.129 191.418 316.495 191.983C317.862 192.547 318.849 194.12 318.917 195.838C319.056 194.162 320.288 192.772 321.64 192.155C322.993 191.538 324.601 191.912 325.587 193.075C326.573 194.238 326.884 196.126 326.351 197.709C325.069 201.514 320.167 203.126 318.373 204.061L318.373 204.061Z" fill="#0D76E9"/>
<path d="M350.976 200.445C350.906 204.561 344.33 206.598 339.648 204.283C339.604 204.262 339.552 204.267 339.512 204.296C338.761 204.852 337.938 205.308 337.062 205.63C336.952 205.67 336.842 205.562 336.878 205.451C337.716 202.87 337.714 202.983 337.624 202.898C333.33 198.831 337.417 193.185 344.091 193.955C348.706 194.487 351.028 197.394 350.976 200.446L350.976 200.445Z" fill="#3DE297"/>
<path d="M339.541 186.353L313.51 183.35L327.31 63.7305L445.998 77.4226L444.215 94.0124C444.172 94.4088 444.457 94.764 444.852 94.8095L444.857 94.8102C445.255 94.8532 445.611 94.5654 445.655 94.1677L447.515 76.8638C447.558 76.4689 447.273 76.1122 446.878 76.0667L326.756 62.2092C326.359 62.1633 326 62.4479 325.954 62.8454L311.989 183.904C311.943 184.301 312.227 184.66 312.625 184.706L339.374 187.792C339.772 187.838 340.131 187.553 340.177 187.156C340.222 186.758 339.938 186.399 339.54 186.353L339.541 186.353Z" fill="#1C1C1C"/>
<path d="M343.008 130.491C342.817 130.438 342.609 130.471 342.441 130.572C342.083 130.785 341.727 130.998 341.378 131.223C341.16 131.363 341.034 131.608 341.045 131.867C341.085 132.659 341.921 132.4 344.267 134.352C344.564 134.599 344.997 134.569 345.258 134.291C345.52 134.012 345.519 133.577 345.256 133.298C343.514 131.456 343.652 130.666 343.008 130.491Z" fill="#1C1C1C"/>
<path d="M388.61 116.661C388.59 116.233 388.205 115.923 387.792 115.978C380.793 116.906 373.683 118.373 366.895 120.337C366.475 120.458 366.258 120.922 366.432 121.321C368.196 125.392 368.534 130.953 368.222 135.038C368.18 135.575 368.716 135.958 369.201 135.77C376.478 132.995 384.517 137.94 387.989 144.954C388.385 145.757 389.62 145.244 389.321 144.394C387.478 139.14 388.701 132.6 392.438 127.73C392.636 127.473 392.638 127.114 392.442 126.854C390.196 123.877 388.792 120.397 388.61 116.661Z" fill="#1C1C1C"/>
<path fill-rule="evenodd" clip-rule="evenodd" d="M431.523 233.132C431.328 233.068 431.08 233.014 430.798 232.953C430.076 232.795 429.133 232.59 428.301 232.05C425.595 230.296 424.144 227.723 422.687 224.69L446.2 227.402C446.602 227.449 446.96 227.155 447.002 226.76L467.234 38.9307C467.276 38.5357 466.992 38.1791 466.597 38.1335L317.021 20.8781C316.624 20.8323 316.265 21.1169 316.219 21.5143L294.569 209.181C294.523 209.579 294.808 209.937 295.205 209.983L371.972 218.839C372.216 221.496 373.443 223.657 374.934 225.879C373.92 227.98 374.153 230.548 375.01 232.757C375.448 233.898 376.08 235.075 376.971 236.43C376.09 238.568 376.077 242.697 377.709 246.293C377.794 246.424 377.891 246.656 378.022 246.971C378.59 248.336 379.806 251.256 383.522 254.212L383.647 254.055C383.126 256.014 382.786 257.368 382.537 258.36C381.944 260.721 381.866 261.029 381.088 262.573C380.364 264.01 379.679 265.369 380.048 267.307C380.391 269.149 382.045 271.017 384.126 270.842C385.095 270.762 385.873 270.289 386.637 269.825C387.087 269.551 387.532 269.28 388.008 269.095C390.847 267.98 393.715 269.89 396.572 271.793C398.494 273.072 400.41 274.349 402.309 274.698C404.591 275.108 406.155 274.064 407.646 273.069C408.884 272.243 410.072 271.45 411.58 271.55C412.497 271.616 413.459 271.902 414.441 272.195C416.297 272.747 418.226 273.321 420.06 272.469C422.311 271.438 423.061 268.744 422.804 266.677C422.637 265.343 422.102 264.186 421.56 263.072C422.536 263.817 424.323 264.407 425.914 264.313L425.905 264.376C425.772 265.271 425.642 266.14 425.526 266.96C426.25 267.048 427.911 267.06 429.559 267.071C431.159 267.082 432.746 267.093 433.451 267.174L442.394 268.157L451.628 234.191C450.554 234.047 446.012 233.202 441.555 232.373L441.552 232.373C437.309 231.584 433.145 230.809 432.123 230.667C431.927 231.445 431.725 232.28 431.525 233.134L431.523 233.132ZM296.09 208.628L317.574 22.3993L465.716 39.4894L445.641 225.88L421.959 223.148C421.532 222.222 421.139 221.337 420.761 220.484C419.654 217.987 418.672 215.77 417.301 213.631C426.717 189.002 441.779 147.757 443.99 141.697C447.356 136.688 448.006 131.337 444.43 126.538C444.292 126.354 444.066 126.243 443.845 126.248C443.463 126.25 443.288 126.484 442.832 127.094C442.089 128.088 440.602 130.079 436.262 133.687C431.57 137.574 426.025 139.783 420.375 142.034C420.039 142.167 419.703 142.301 419.367 142.436C419.108 142.54 418.932 142.785 418.915 143.063C418.648 147.396 415.241 157.116 414.263 157.984C408.001 163.685 374.969 166.303 369.574 166.73C369.39 166.745 369.237 166.757 369.119 166.766C364.411 167.096 360.823 158.98 360.045 154.349C359.977 153.941 359.578 153.668 359.171 153.763C356.949 154.266 354.81 154.969 352.676 155.671C351.387 156.095 350.1 156.518 348.798 156.896C340.665 159.269 333.233 158.772 327.754 152.267C327.267 151.693 326.333 152.153 326.493 152.889C327.088 155.62 328.698 158.049 331.128 160.156L372.844 214.391C372.372 215.201 372.048 216.082 371.952 217.38L296.09 208.628ZM373.272 215.719C373.948 213.851 375.644 212.508 377.391 212.454C379.694 212.394 382.826 214.837 384.455 216.376C385.916 217.384 388.771 220.022 388.504 222.511C388.538 223.031 388.431 223.54 388.072 223.961C387.478 224.652 386.393 224.83 384.774 224.511C383.273 223.454 381.521 222.456 379.703 222.495C378.09 222.537 376.493 223.477 375.466 224.935C374.743 223.833 374.044 222.658 373.564 221.411C372.72 219.222 372.739 217.168 373.272 215.719ZM375.609 226.721C376.201 225.016 377.883 223.508 379.727 223.461C382.184 223.406 385.614 226.176 387.314 227.891C389.146 229.686 392.345 233.591 390.49 234.853C389.966 235.582 389.068 235.711 388.171 235.653C386.415 234.289 384.101 232.759 381.887 232.817C380.104 232.865 378.477 233.906 377.485 235.446C375.819 232.808 374.537 229.683 375.609 226.722L375.609 226.721ZM380.756 249.984C379.904 248.817 379.326 247.534 378.725 246.199L378.587 245.894C377.468 243.426 377.09 240.593 377.525 237.918C377.9 235.616 379.787 233.837 381.913 233.779C384.522 233.719 388.082 236.641 389.868 238.458C391.786 239.97 395.14 243.486 393.215 245.455C392.294 247.132 389.934 246.507 386.405 245.572C385.435 245.315 384.376 245.034 383.234 244.772L382.999 245.708L385.69 246.383L385.66 246.501C385.636 246.59 385.613 246.678 385.528 246.996L385.525 247.006L385.524 247.01C385.356 247.641 384.952 249.153 383.865 253.238C382.666 252.25 381.617 251.16 380.757 249.984L380.756 249.984ZM419.654 271.591C418.144 272.292 416.422 271.779 414.678 271.26C413.661 270.958 412.637 270.653 411.642 270.585C409.806 270.462 408.467 271.358 407.152 272.238C405.756 273.172 404.388 274.088 402.481 273.747C400.778 273.433 398.994 272.245 397.143 271.013C394.141 269.014 390.96 266.896 387.655 268.195C387.159 268.387 386.678 268.675 386.204 268.959C385.478 269.393 384.768 269.819 384.043 269.879C382.557 270.004 381.262 268.563 380.995 267.129C380.688 265.511 381.271 264.353 381.95 263.006C382.103 262.702 382.261 262.389 382.414 262.059C382.904 260.991 383.179 259.813 383.45 258.652C383.556 258.198 383.661 257.747 383.778 257.306C386.518 246.994 386.521 247.027 386.519 247.038C386.518 247.041 386.516 247.043 386.625 246.617C386.952 246.686 387.32 246.783 387.714 246.887C389.681 247.404 392.296 248.092 393.754 246.39C395.013 244.92 394.795 241.557 391.878 239.163C391.68 239.002 391.504 238.805 391.268 238.541C390.883 238.11 390.337 237.499 389.269 236.562C391.639 236.193 392.929 233.729 390.524 230.239C389.308 228.493 387.865 226.95 386.237 225.622C389.231 225.58 390.2 223.151 388.859 220.393C388.097 218.184 381.695 211.385 377.365 211.49C375.878 211.535 374.441 212.337 373.425 213.564L333.943 162.234C339.054 165.434 346.443 167.637 355.32 168.661C384.83 172.065 426.815 161.749 442.038 144.232C437.923 155.492 425.107 190.483 416.643 212.654C413.455 208.184 407.895 204.382 402.631 205.609C399.437 206.349 396.976 209.133 396.903 212.084C396.815 215.562 399.526 218.119 402.085 220.286C406.257 223.823 406.573 225.276 407.122 227.797C407.305 228.639 407.515 229.6 407.902 230.797C407.964 231.072 408.067 231.809 408.19 232.683C408.416 234.283 408.706 236.346 408.923 236.884L409.958 239.551C412.448 245.893 413.901 248.77 415.22 251.381C416.192 253.305 417.09 255.085 418.277 257.999C419.429 260.819 420.204 262.468 420.734 263.594C421.429 265.072 421.701 265.651 421.845 266.797C422.066 268.58 421.386 270.8 419.654 271.593L419.654 271.591ZM422.314 261.824C421.797 261.339 421.378 260.408 420.982 259.529C420.806 259.137 420.634 258.755 420.46 258.428C414.646 247.549 412.636 242.39 411.118 238.495C410.825 237.743 410.55 237.039 410.27 236.349C410.202 236.179 410.097 235.603 409.987 234.919C412.353 238.208 416.024 240.555 420.056 241.139L420.077 241.142C420.464 241.186 420.82 240.915 420.877 240.526C420.933 240.13 420.659 239.763 420.264 239.705C415.252 238.978 410.846 235.247 409.298 230.417L409.298 230.414C409.062 229.676 408.885 228.905 408.706 228.124C408.379 226.698 408.044 225.24 407.332 223.892C406.3 221.96 404.641 220.552 403.014 219.172C402.604 218.824 402.197 218.479 401.802 218.127C399.431 216.011 398.302 214.046 398.351 212.118C398.388 210.634 399.221 209.206 400.489 208.211C402.166 206.93 406.575 203.976 413.035 210.702C416.226 213.673 418.031 217.803 419.79 221.831C421.778 226.38 423.708 230.798 427.514 233.264C428.636 233.992 429.969 234.263 430.656 234.403C430.833 234.439 430.967 234.466 431.044 234.49C431.048 234.694 426.929 261.558 426.631 262.698C425.565 263.19 423.178 262.608 422.315 261.824L422.314 261.824Z" fill="#1C1C1C"/>
<path d="M334.569 255.637C323.977 258.988 312.951 262.243 303.076 256.952C315.705 255.913 321.567 239.915 310.616 232.922C304.636 229.105 297.444 231.054 294.345 237.935C291.825 243.531 292.756 250.083 297.812 254.984C292.586 253.639 287.652 249.968 284.092 246.07C274.203 235.243 268.958 220.689 269.632 206.052L275.733 212.905C275.997 213.202 276.456 213.23 276.755 212.964C277.054 212.698 277.08 212.24 276.814 211.942L269.34 203.548C269.03 203.199 268.472 203.229 268.203 203.617L262.649 211.669C262.422 211.999 262.505 212.45 262.834 212.677C263.167 212.904 263.615 212.82 263.842 212.492L268.178 206.205C267.55 221.149 272.925 235.992 283.024 247.047C287.39 251.829 293.624 256.231 300.18 256.925C310.721 264.247 323.534 260.647 335.007 257.018C335.387 256.897 335.599 256.491 335.478 256.109C335.357 255.727 334.952 255.518 334.569 255.637ZM295.665 238.53C298.385 232.491 304.567 230.778 309.837 234.142C320.206 240.761 313.538 256.489 300.723 255.478C294.644 251.053 292.983 244.488 295.665 238.53Z" fill="#1C1C1C"/>
<path d="M493.421 119.303C492.97 118.156 492.403 116.912 491.703 115.681C495.349 109.589 495.629 101.685 492.375 95.3609C489.023 88.8459 482.126 84.398 474.811 84.0525C474.412 84.0332 474.073 84.3404 474.053 84.7402C474.033 85.1406 474.339 85.4707 474.741 85.4982C481.561 85.8272 487.968 89.9607 491.087 96.0237C494 101.684 493.871 108.704 490.837 114.277C489.179 111.795 486.922 109.543 483.901 108.47C478.972 106.72 472.428 109.734 472.14 114.99C471.899 119.455 476.438 123.172 480.964 122.984C484.585 122.838 488.204 120.638 490.803 117.049C491.305 117.999 491.725 118.946 492.075 119.833C499.841 139.55 490.725 162.022 471.288 170.715L472.307 166.063C472.392 165.673 472.146 165.286 471.754 165.201C471.376 165.117 470.978 165.362 470.892 165.753L469.284 173.094C469.179 173.577 469.579 174.023 470.068 173.969C472.631 173.698 475.203 173.85 477.714 174.421C478.098 174.498 478.491 174.265 478.579 173.875C478.668 173.485 478.424 173.098 478.034 173.009C475.695 172.477 473.302 172.288 470.909 172.444L470.95 172.255C470.989 172.266 471.021 172.294 471.062 172.299C471.184 172.313 471.311 172.296 471.431 172.244C491.784 163.44 501.562 139.973 493.421 119.304L493.421 119.303ZM480.905 121.537C478.92 121.62 476.78 120.746 475.321 119.267C468.851 112.707 482.016 102.793 490.007 115.657C487.644 119.209 484.257 121.402 480.905 121.537Z" fill="#1C1C1C"/>
<path d="M364.142 153.799C358.87 153.999 353.965 156.151 349.002 157.592C340.579 160.05 332.854 159.445 327.202 152.735C320.42 144.677 322.586 134.47 329.566 131.143C333.877 129.088 340.065 129.914 344.731 133.796C341.045 129.902 340.036 123.726 341.653 118.613C343.178 113.823 347.762 110.639 352.914 110.797C358.066 110.954 363.512 114.458 366.276 119.384C368.576 123.438 369.026 128.156 369.035 132.791C369.012 140.487 365.996 146.668 364.143 153.801L364.142 153.799Z" fill="#3DE297"/>
<path d="M446.628 121.937C444.692 126.954 440.873 130.798 436.724 134.244C430.051 139.78 421.962 141.831 414.424 145.344C410.281 140.736 404.87 138.032 399.904 134.66C393.527 130.323 388.273 124.591 387.886 116.696C387.567 111.295 389.453 105.555 392.985 101.726C397.336 97.0288 403.93 95.4672 409.168 97.9077C414.397 100.338 417.985 106.641 417.949 113.351C418.778 106.839 423.82 101.628 429.202 99.451C434.583 97.2829 440.796 99.0196 444.442 103.726C448.088 108.423 448.982 115.843 446.626 121.936L446.628 121.937Z" fill="#D7DBEB"/>
<path d="M414.751 158.52C413.861 159.33 412.448 159.702 411.349 160.129C398.869 165.031 385.249 166.188 371.77 167.283C367.61 167.591 367.59 167.76 366.952 167.602C365.865 167.34 364.919 165.851 364.223 165.062C353.971 153.405 359.71 134.63 373.131 134.264C379.186 134.088 385.518 138.326 388.638 144.634C386.45 138.396 388.428 131.114 392.669 126.296C401.641 116.119 418.116 123.864 419.603 139.208C420.267 146.446 416.091 157.331 414.751 158.521L414.751 158.52Z" fill="#0D76E9"/>
</g>
<defs>
<clipPath id="clip0_11122_49667">
<rect width="234.24" height="242.384" fill="white" transform="translate(285 17.1841) rotate(6.58068)"/>
</clipPath>
</defs>
</svg>
