<svg width="570" height="302" viewBox="0 0 570 302" fill="none" xmlns="http://www.w3.org/2000/svg">
<g clip-path="url(#clip0_11122_49741)">
<rect width="570" height="302" rx="20" fill="white"/>
<g clip-path="url(#clip1_11122_49741)">
<path d="M419.943 159.322H419.681C419.588 159.293 419.504 159.247 419.434 159.183C419.363 159.118 419.31 159.041 419.27 158.952C419.232 158.864 419.217 158.771 419.219 158.676C419.219 158.581 419.243 158.488 419.285 158.401L431.767 131.997C432.028 131.603 432.422 131.472 432.686 131.733C432.947 131.997 433.208 132.258 432.947 132.521L420.6 158.926C420.542 159.052 420.452 159.158 420.334 159.229C420.217 159.3 420.08 159.331 419.943 159.32V159.322Z" fill="#1C1C1C"/>
<path d="M316.904 47.9209H288.789V172.563H316.904V47.9209Z" fill="#04103D"/>
<path d="M312.566 127.136H293.255V55.6709H312.566V127.134V127.136ZM294.569 125.822H311.254V56.9855H294.569V125.822Z" fill="white"/>
<path d="M303.242 159.321C301.578 159.321 299.952 158.828 298.571 157.905C297.19 156.982 296.112 155.667 295.474 154.132C294.837 152.596 294.673 150.905 294.994 149.274C295.32 147.643 296.121 146.144 297.296 144.969C298.473 143.794 299.971 142.993 301.603 142.668C303.234 142.342 304.924 142.511 306.46 143.146C307.996 143.783 309.309 144.861 310.234 146.242C311.157 147.625 311.65 149.249 311.65 150.914C311.668 152.022 311.462 153.125 311.046 154.151C310.63 155.181 310.012 156.114 309.229 156.898C308.443 157.681 307.512 158.301 306.482 158.717C305.456 159.133 304.353 159.339 303.245 159.321H303.242ZM303.242 143.951C301.833 143.951 300.454 144.372 299.288 145.157C298.117 145.943 297.207 147.058 296.674 148.362C296.145 149.665 296.01 151.1 296.296 152.478C296.581 153.857 297.269 155.121 298.274 156.108C299.277 157.095 300.556 157.759 301.941 158.018C303.322 158.277 304.756 158.117 306.051 157.56C307.343 157.002 308.443 156.072 309.205 154.888C309.97 153.704 310.362 152.321 310.338 150.911C310.338 149.986 310.154 149.07 309.793 148.216C309.435 147.362 308.91 146.589 308.251 145.941C307.589 145.292 306.806 144.783 305.947 144.44C305.088 144.097 304.17 143.931 303.242 143.949V143.951Z" fill="white"/>
<path d="M307.706 66.0504H298.247C298.073 66.0504 297.909 65.9818 297.785 65.8579C297.661 65.734 297.595 65.568 297.595 65.3931C297.595 65.2183 297.661 65.0523 297.785 64.9284C297.909 64.8044 298.073 64.7358 298.247 64.7358H307.706C307.881 64.7358 308.049 64.8044 308.173 64.9284C308.295 65.0523 308.364 65.2183 308.364 65.3931C308.364 65.568 308.293 65.734 308.173 65.8579C308.049 65.9818 307.881 66.0504 307.706 66.0504Z" fill="white"/>
<path d="M308.102 71.962H298.513C298.338 71.962 298.17 71.8934 298.046 71.7695C297.924 71.6456 297.856 71.4796 297.856 71.3048C297.856 71.1299 297.927 70.9639 298.046 70.84C298.17 70.7161 298.338 70.6475 298.513 70.6475H308.102C308.277 70.6475 308.441 70.7161 308.565 70.84C308.689 70.9639 308.76 71.1299 308.76 71.3048C308.76 71.4796 308.689 71.6456 308.565 71.7695C308.441 71.8934 308.277 71.962 308.102 71.962Z" fill="white"/>
<path d="M347.905 47.9209H319.792V172.563H347.905V47.9209Z" fill="#3A81E1"/>
<path d="M343.439 127.136H324.127V55.6709H343.439V127.134V127.136ZM325.44 125.822H342.124V56.9855H325.44V125.822Z" fill="#1C1C1C"/>
<path d="M334.241 159.321C332.577 159.321 330.955 158.828 329.572 157.905C328.186 156.982 327.111 155.667 326.476 154.132C325.838 152.596 325.67 150.905 325.995 149.274C326.321 147.643 327.12 146.144 328.297 144.969C329.47 143.794 330.97 142.993 332.601 142.668C334.233 142.342 335.923 142.511 337.459 143.146C338.995 143.783 340.31 144.861 341.233 146.242C342.158 147.625 342.651 149.249 342.651 150.914C342.651 153.142 341.766 155.282 340.19 156.858C338.614 158.436 336.474 159.321 334.244 159.321H334.241ZM334.241 143.951C332.832 143.951 331.457 144.372 330.287 145.157C329.12 145.943 328.211 147.058 327.677 148.362C327.144 149.665 327.009 151.1 327.294 152.478C327.58 153.857 328.268 155.121 329.273 156.108C330.28 157.095 331.555 157.759 332.94 158.018C334.325 158.277 335.755 158.117 337.05 157.56C338.344 157.002 339.442 156.072 340.206 154.888C340.967 153.704 341.363 152.321 341.337 150.911C341.303 149.052 340.538 147.282 339.214 145.981C337.886 144.679 336.1 143.949 334.244 143.949L334.241 143.951Z" fill="#1C1C1C"/>
<path d="M338.71 66.0504H329.12C328.945 66.0504 328.777 65.9818 328.653 65.8579C328.532 65.734 328.463 65.568 328.463 65.3931C328.463 65.2183 328.534 65.0523 328.653 64.9284C328.777 64.8044 328.945 64.7358 329.12 64.7358H338.71C338.885 64.7358 339.053 64.8044 339.172 64.9284C339.296 65.0523 339.367 65.2183 339.367 65.3931C339.367 65.568 339.296 65.734 339.172 65.8579C339.051 65.9818 338.885 66.0504 338.71 66.0504Z" fill="#1C1C1C"/>
<path d="M338.973 71.962H329.514C329.339 71.962 329.171 71.8934 329.052 71.7695C328.928 71.6456 328.857 71.4796 328.857 71.3048C328.857 71.1299 328.928 70.9639 329.052 70.84C329.173 70.7161 329.339 70.6475 329.514 70.6475H338.973C339.148 70.6475 339.316 70.7161 339.436 70.84C339.56 70.9639 339.63 71.1299 339.63 71.3048C339.63 71.4796 339.56 71.6456 339.436 71.7695C339.314 71.8934 339.148 71.962 338.973 71.962Z" fill="#1C1C1C"/>
<path d="M257.106 172.063V48.4209H284.216V172.063H257.106Z" fill="white" stroke="black"/>
<path d="M280.381 127.136H261.069V55.6709H280.381V127.134V127.136ZM262.384 125.822H279.069V56.9855H262.384V125.822Z" fill="#1C1C1C"/>
<path d="M271.188 159.321C269.521 159.348 267.881 158.877 266.481 157.969C265.08 157.062 263.982 155.758 263.327 154.225C262.67 152.691 262.486 150.996 262.794 149.356C263.103 147.716 263.893 146.207 265.064 145.016C266.235 143.828 267.733 143.013 269.366 142.679C271 142.345 272.697 142.502 274.244 143.135C275.787 143.768 277.108 144.846 278.037 146.229C278.967 147.612 279.463 149.245 279.463 150.914C279.48 152.012 279.279 153.103 278.872 154.121C278.462 155.141 277.856 156.068 277.088 156.849C276.316 157.633 275.397 158.253 274.384 158.677C273.37 159.102 272.283 159.319 271.188 159.319V159.321ZM271.188 143.951C269.771 143.925 268.384 144.323 267.198 145.091C266.011 145.861 265.082 146.968 264.529 148.269C263.975 149.571 263.825 151.007 264.093 152.397C264.363 153.784 265.04 155.061 266.04 156.062C267.041 157.062 268.315 157.739 269.705 158.009C271.093 158.279 272.529 158.126 273.83 157.573C275.132 157.02 276.238 156.09 277.006 154.904C277.778 153.718 278.172 152.328 278.15 150.914C278.113 149.077 277.371 147.326 276.07 146.027C274.771 144.728 273.02 143.985 271.186 143.951H271.188Z" fill="#1C1C1C"/>
<path d="M275.521 66.0504H266.062C265.887 66.0504 265.721 65.9818 265.597 65.8579C265.474 65.734 265.405 65.568 265.405 65.3931C265.405 65.2183 265.474 65.0523 265.597 64.9284C265.721 64.8044 265.887 64.7358 266.062 64.7358H275.521C275.696 64.7358 275.864 64.8044 275.988 64.9284C276.11 65.0523 276.178 65.2183 276.178 65.3931C276.178 65.568 276.107 65.734 275.988 65.8579C275.864 65.9818 275.696 66.0504 275.521 66.0504Z" fill="#1C1C1C"/>
<path d="M275.917 71.962H266.326C266.151 71.962 265.985 71.8934 265.861 71.7695C265.737 71.6456 265.668 71.4796 265.668 71.3048C265.668 71.1299 265.737 70.9639 265.861 70.84C265.985 70.7161 266.151 70.6475 266.326 70.6475H275.917C276.092 70.6475 276.256 70.7161 276.38 70.84C276.504 70.9639 276.57 71.1299 276.57 71.3048C276.57 71.4796 276.504 71.6456 276.38 71.7695C276.256 71.8934 276.092 71.962 275.917 71.962Z" fill="#1C1C1C"/>
<path d="M468.155 86.6745C482.522 86.6745 494.163 75.0292 494.163 60.6639C494.163 46.2987 482.522 34.6533 468.155 34.6533C453.788 34.6533 442.147 46.2987 442.147 60.6639C442.147 75.0292 453.79 86.6745 468.155 86.6745Z" fill="#1C1C1C"/>
<path d="M445.298 79.5816L437.546 99.0237H458.825L469.598 67.3652L445.296 79.5816H445.298Z" fill="white"/>
<path d="M458.831 99.6811H437.548C437.287 99.6811 437.156 99.5505 437.021 99.2871C436.917 99.1322 436.871 98.9463 436.89 98.7604L444.643 79.3183L445.035 79.0549L469.206 66.7058C469.341 66.666 469.481 66.6593 469.616 66.6815C469.753 66.7036 469.883 66.7567 469.994 66.8364C470.091 66.9138 470.156 67.0223 470.178 67.1418C470.202 67.2613 470.184 67.3852 470.127 67.4937L459.484 99.1543C459.427 99.2871 459.334 99.4044 459.219 99.4974C459.103 99.5881 458.971 99.6523 458.829 99.6811H458.831ZM438.466 98.3665H458.304L468.418 68.6777L445.823 80.1062L438.466 98.3665Z" fill="#1C1C1C"/>
<mask id="path-21-outside-1_11122_49741" maskUnits="userSpaceOnUse" x="361.849" y="90.0024" width="146" height="119" fill="black">
<rect fill="white" x="361.849" y="90.0024" width="146" height="119"/>
<path d="M370.418 195.316L363.849 207.14C363.849 207.14 448.186 207.005 462.638 203.199C485.101 197.285 501.916 139.747 505.466 122.801C509.011 105.855 505.857 89.3036 445.431 91.1427C385.002 92.9818 363.851 157.746 363.851 157.746L420.117 158.214C420.117 158.214 415.556 169.259 408.841 180.575C400.794 194.134 392.981 201.119 368.318 199.257"/>
</mask>
<path d="M370.418 195.316L363.849 207.14C363.849 207.14 448.186 207.005 462.638 203.199C485.101 197.285 501.916 139.747 505.466 122.801C509.011 105.855 505.857 89.3036 445.431 91.1427C385.002 92.9818 363.851 157.746 363.851 157.746L420.117 158.214C420.117 158.214 415.556 169.259 408.841 180.575C400.794 194.134 392.981 201.119 368.318 199.257" fill="#3DE297"/>
<path d="M371.292 195.801C371.56 195.319 371.386 194.71 370.903 194.442C370.421 194.173 369.812 194.347 369.544 194.83L371.292 195.801ZM363.849 207.14L362.975 206.655L362.148 208.143L363.851 208.14L363.849 207.14ZM462.638 203.199L462.383 202.232L462.383 202.232L462.638 203.199ZM505.466 122.801L506.445 123.006L506.445 123.006L505.466 122.801ZM445.431 91.1427L445.461 92.1422V92.1422L445.431 91.1427ZM363.851 157.746L362.901 157.436L362.477 158.735L363.843 158.746L363.851 157.746ZM420.117 158.214L421.041 158.595L421.607 157.226L420.125 157.214L420.117 158.214ZM368.393 198.26C367.842 198.219 367.362 198.631 367.32 199.182C367.279 199.733 367.691 200.213 368.242 200.254L368.393 198.26ZM408.841 180.575L407.981 180.064L408.841 180.575ZM369.544 194.83L362.975 206.655L364.723 207.626L371.292 195.801L369.544 194.83ZM363.849 207.14C363.851 208.14 363.851 208.14 363.852 208.14C363.853 208.14 363.853 208.14 363.855 208.14C363.857 208.14 363.861 208.14 363.866 208.14C363.877 208.14 363.892 208.14 363.912 208.14C363.953 208.14 364.014 208.14 364.094 208.14C364.254 208.139 364.492 208.139 364.803 208.138C365.425 208.136 366.338 208.133 367.506 208.127C369.842 208.116 373.194 208.096 377.262 208.06C385.397 207.988 396.395 207.852 407.846 207.597C419.296 207.342 431.206 206.968 441.16 206.419C451.069 205.873 459.161 205.149 462.892 204.166L462.383 202.232C458.889 203.152 451.019 203.872 441.05 204.422C431.127 204.969 419.243 205.343 407.802 205.597C396.362 205.852 385.373 205.988 377.244 206.06C373.179 206.096 369.83 206.116 367.497 206.127C366.33 206.133 365.418 206.136 364.797 206.138C364.486 206.139 364.249 206.139 364.089 206.14C364.009 206.14 363.949 206.14 363.908 206.14C363.888 206.14 363.873 206.14 363.863 206.14C363.858 206.14 363.854 206.14 363.851 206.14C363.85 206.14 363.849 206.14 363.849 206.14C363.848 206.14 363.848 206.14 363.849 207.14ZM462.892 204.166C468.843 202.599 474.278 197.668 479.112 191.119C483.965 184.543 488.319 176.19 492.062 167.534C499.548 150.221 504.658 131.534 506.445 123.006L504.487 122.596C502.724 131.014 497.651 149.57 490.226 166.74C486.514 175.326 482.23 183.526 477.502 189.931C472.755 196.363 467.665 200.841 462.383 202.232L462.892 204.166ZM506.445 123.006C507.34 118.725 507.839 114.36 507.061 110.26C506.276 106.122 504.197 102.301 500.044 99.1326C495.921 95.9869 489.801 93.5191 480.978 91.946C472.148 90.3717 460.546 89.6822 445.4 90.1432L445.461 92.1422C460.529 91.6837 471.981 92.3735 480.627 93.915C489.279 95.4576 495.056 97.8421 498.831 100.723C502.577 103.58 504.399 106.96 505.096 110.633C505.801 114.346 505.364 118.404 504.487 122.596L506.445 123.006ZM445.4 90.1432C414.788 91.0748 394.144 107.956 381.193 124.518C374.717 132.799 370.148 141.018 367.199 147.165C365.724 150.24 364.652 152.8 363.947 154.594C363.595 155.492 363.335 156.198 363.162 156.682C363.076 156.924 363.011 157.11 362.968 157.237C362.946 157.301 362.93 157.349 362.918 157.382C362.913 157.399 362.909 157.412 362.906 157.421C362.904 157.425 362.903 157.429 362.902 157.431C362.902 157.432 362.902 157.433 362.901 157.434C362.901 157.435 362.901 157.436 363.851 157.746C364.802 158.057 364.802 158.057 364.802 158.057C364.802 158.056 364.802 158.056 364.803 158.055C364.803 158.054 364.804 158.051 364.805 158.048C364.807 158.041 364.811 158.03 364.816 158.016C364.825 157.987 364.84 157.943 364.86 157.883C364.901 157.765 364.962 157.588 365.045 157.355C365.212 156.889 365.465 156.202 365.809 155.325C366.498 153.57 367.55 151.056 369.002 148.031C371.907 141.977 376.403 133.89 382.768 125.75C395.499 109.47 415.645 93.0497 445.461 92.1422L445.4 90.1432ZM363.843 158.746L420.109 159.214L420.125 157.214L363.86 156.746L363.843 158.746ZM420.117 158.214C419.193 157.832 419.193 157.832 419.193 157.832C419.193 157.832 419.193 157.832 419.193 157.832C419.193 157.833 419.192 157.833 419.192 157.834C419.192 157.835 419.191 157.837 419.19 157.839C419.188 157.844 419.185 157.852 419.181 157.862C419.172 157.882 419.159 157.913 419.142 157.954C419.108 158.036 419.056 158.159 418.988 158.319C418.851 158.64 418.649 159.112 418.384 159.714C417.855 160.919 417.079 162.645 416.094 164.723C414.123 168.881 411.318 174.441 407.981 180.064L409.701 181.085C413.08 175.392 415.913 169.773 417.901 165.579C418.895 163.482 419.679 161.738 420.215 160.519C420.483 159.909 420.689 159.429 420.828 159.102C420.898 158.938 420.951 158.812 420.987 158.727C421.004 158.684 421.018 158.652 421.027 158.63C421.032 158.619 421.035 158.61 421.038 158.605C421.039 158.602 421.04 158.6 421.04 158.598C421.041 158.597 421.041 158.597 421.041 158.596C421.041 158.596 421.041 158.596 421.041 158.596C421.041 158.596 421.041 158.595 420.117 158.214ZM407.981 180.064C403.984 186.799 400.135 191.739 394.341 194.816C388.539 197.897 380.64 199.185 368.393 198.26L368.242 200.254C380.658 201.192 388.997 199.918 395.279 196.582C401.57 193.242 405.651 187.91 409.701 181.085L407.981 180.064Z" fill="#1C1C1C" mask="url(#path-21-outside-1_11122_49741)"/>
<path d="M362.537 166.415L303.159 167.466C301.681 165.029 299.486 163.106 296.881 161.955C294.272 160.804 291.372 160.481 288.579 161.03C288.579 161.03 254.553 147.893 252.189 154.462C249.826 161.03 268.217 171.277 268.217 171.277C264.275 168.781 253.767 172.198 253.767 172.198C253.767 172.198 241.157 170.489 227.496 167.468C213.834 164.447 209.499 164.841 207.79 170.226C206.082 175.612 223.423 179.421 223.423 179.421C227.889 187.961 244.441 192.034 244.441 192.034C244.441 192.034 249.828 198.472 256.394 199.129C262.965 199.784 368.322 199.259 368.322 199.259L382.641 198.994C397.88 198.733 406.416 186.12 413.248 172.459L419.614 159.56" fill="white"/>
<path d="M456.2 203.723L506.253 445.965L460.537 455.293L402.866 291.083C402.866 291.083 347.165 349.673 346.773 369.381C346.377 389.084 344.276 458.71 344.276 458.71L274.123 458.184C274.123 458.184 263.222 386.72 299.871 309.607C336.524 232.494 366.609 202.413 366.609 202.413L456.2 203.725V203.723Z" fill="white"/>
<path d="M344.276 459.366L274.128 458.839C273.732 458.708 273.47 458.578 273.47 458.182C273.47 457.785 262.96 385.667 299.218 309.344C335.475 233.02 365.821 202.145 366.082 201.884H366.609L456.335 203.199C456.472 203.199 456.607 203.252 456.704 203.349C456.804 203.449 456.859 203.584 456.859 203.721L506.913 445.963C506.913 446.147 506.869 446.328 506.778 446.49L506.386 446.751L460.67 455.949C460.513 455.993 460.345 455.975 460.201 455.902C460.053 455.829 459.942 455.705 459.882 455.552L402.607 292.263C396.037 299.354 347.824 351.377 347.432 369.376C347.036 387.373 344.936 458.049 344.936 458.706C344.936 458.881 344.865 459.049 344.741 459.169C344.619 459.293 344.453 459.363 344.279 459.363L344.276 459.366ZM274.65 457.524L343.619 458.051C343.88 450.956 345.722 387.772 346.116 369.379C346.512 350.988 400.106 293.055 402.342 290.689C402.426 290.597 402.525 290.526 402.64 290.479C402.756 290.435 402.879 290.415 402.999 290.426C403.26 290.426 403.395 290.692 403.526 290.822L460.931 454.638L505.466 445.441L455.677 204.383L366.872 203.068C364.245 205.828 335.081 237.095 300.399 309.873C265.72 382.648 273.732 450.697 274.652 457.527L274.65 457.524Z" fill="#1C1C1C"/>
<path d="M292.517 200.178C273.862 200.178 258.625 200.178 256.259 199.782C250.085 199.127 244.961 193.609 244.043 192.691C243.122 191.768 227.491 188.092 222.892 180.079C220.923 179.552 209.886 176.794 207.522 172.722C207.27 172.339 207.104 171.906 207.035 171.452C206.967 170.998 207 170.536 207.128 170.095C209.098 163.79 215.011 163.921 227.622 166.811C240.232 169.701 252.187 171.41 253.632 171.54C257.078 170.44 260.657 169.821 264.273 169.701C262.697 168.65 260.728 167.336 258.886 165.893C252.844 161.163 250.481 157.222 251.53 154.201C251.691 153.833 251.926 153.504 252.218 153.234C252.512 152.964 252.862 152.756 253.238 152.625C259.94 149.604 285.95 159.324 288.577 160.375C291.432 159.871 294.367 160.209 297.029 161.353C299.689 162.498 301.958 164.394 303.553 166.811L362.539 165.76C362.71 165.76 362.878 165.828 363.002 165.952C363.126 166.076 363.192 166.242 363.192 166.417C363.192 166.592 363.126 166.758 363.002 166.882C362.878 167.006 362.71 167.074 362.539 167.074L303.292 168.126C303.168 168.172 303.033 168.17 302.914 168.121C302.79 168.072 302.692 167.98 302.635 167.862C297.248 159.585 289.104 161.557 288.71 161.688H288.314C288.053 161.557 260.201 150.916 253.765 153.805C253.555 153.884 253.367 154.006 253.205 154.165C253.048 154.325 252.924 154.515 252.847 154.725C251.008 159.585 262.83 167.468 268.086 170.489L268.478 170.753C268.555 170.779 268.622 170.823 268.679 170.879C268.737 170.934 268.779 171.005 268.803 171.082C268.83 171.158 268.836 171.239 268.827 171.319C268.816 171.399 268.788 171.474 268.743 171.54C268.608 171.934 268.217 171.934 267.825 171.804H267.429C264.275 170.095 256.658 172.067 253.898 172.986H253.637C253.506 172.986 240.894 171.277 227.363 168.126C213.832 164.972 209.89 165.629 208.445 170.622C208.357 170.885 208.335 171.169 208.381 171.443C208.427 171.717 208.54 171.976 208.709 172.198C210.548 175.482 220.006 178.239 223.554 178.897L223.948 179.293C228.283 187.307 244.441 191.509 244.572 191.509C244.702 191.509 244.835 191.64 244.835 191.77C244.835 191.901 250.352 197.945 256.394 198.602C262.438 199.26 367.269 198.733 368.322 198.733L382.641 198.472C397.88 198.206 406.286 185.071 412.591 172.198L419.42 158.536C419.504 158.408 419.624 158.313 419.77 158.264C419.914 158.215 420.069 158.22 420.21 158.273C420.607 158.403 420.737 158.8 420.476 159.061L413.775 172.855C407.337 185.992 398.535 199.523 382.643 199.784L368.324 200.05L292.523 200.18L292.517 200.178Z" fill="#1C1C1C"/>
<path d="M259.019 194.922H248.246V196.236H259.019V194.922Z" fill="#1C1C1C"/>
<path d="M254.29 191.244H243.647V192.556H254.29V191.244Z" fill="#1C1C1C"/>
<path d="M223.536 179.096L223.233 180.373L248.115 186.3L248.418 185.023L223.536 179.096Z" fill="#1C1C1C"/>
<path d="M456.2 204.381H455.939C455.797 204.277 455.698 204.133 455.651 203.965C455.605 203.801 455.613 203.622 455.675 203.462L488.783 135.15C488.863 135.022 488.985 134.927 489.129 134.878C489.273 134.829 489.427 134.834 489.571 134.887C489.662 134.916 489.746 134.962 489.817 135.026C489.888 135.091 489.945 135.168 489.981 135.257C490.018 135.345 490.034 135.438 490.034 135.533C490.032 135.628 490.007 135.721 489.963 135.808L456.859 204.12C456.786 204.219 456.685 204.301 456.567 204.347C456.452 204.392 456.326 204.405 456.202 204.381H456.2Z" fill="#1C1C1C"/>
<path d="M491.8 164.708C491.8 164.708 475.12 207.143 456.2 203.723L475.642 163.657" fill="white"/>
<path d="M458.566 204.511C457.767 204.556 456.97 204.467 456.2 204.25C456.1 204.25 455.998 204.226 455.908 204.179C455.815 204.135 455.737 204.069 455.675 203.989C455.616 203.89 455.585 203.774 455.585 203.659C455.585 203.544 455.616 203.431 455.675 203.33L474.987 163.392C475.071 163.23 475.208 163.102 475.376 163.031C475.545 162.96 475.728 162.947 475.905 162.998C476.003 163.013 476.096 163.056 476.173 163.124C476.246 163.191 476.304 163.277 476.33 163.374C476.357 163.472 476.357 163.573 476.326 163.671C476.299 163.766 476.242 163.852 476.164 163.919L457.247 203.199C475.115 205.169 491.64 165.112 491.901 164.716C492.162 164.322 492.428 164.192 492.689 164.322C492.78 164.351 492.864 164.398 492.934 164.462C493.005 164.526 493.063 164.603 493.098 164.692C493.136 164.778 493.151 164.873 493.151 164.968C493.147 165.064 493.125 165.157 493.08 165.243C490.153 172.528 485.917 179.249 481.682 185.857C473.798 198.204 465.915 204.511 458.561 204.511H458.566Z" fill="#1C1C1C"/>
<path d="M368.056 227.631H398.4C398.4 227.631 398.4 256.141 376.594 250.227C364.117 246.682 368.059 227.631 368.059 227.631H368.056Z" fill="white"/>
<path d="M382.24 251.672C380.277 251.668 378.33 251.358 376.462 250.754C363.458 247.204 367.399 227.764 367.53 227.501C367.53 227.359 367.583 227.229 367.685 227.129C367.782 227.032 367.917 226.974 368.054 226.974H398.4C398.575 226.974 398.743 227.045 398.867 227.169C398.991 227.293 399.057 227.457 399.057 227.631C399.057 228.289 399.057 242.607 390.913 248.915C388.404 250.761 385.358 251.73 382.242 251.672H382.24ZM368.709 228.289C368.187 231.312 366.082 246.68 376.853 249.568C382.24 251.013 386.708 250.491 390.123 247.861C396.822 242.74 397.61 231.177 397.741 228.289H368.709Z" fill="#1C1C1C"/>
<path d="M428.614 228.815H456.069C456.069 228.815 456.069 254.563 436.366 249.176C424.935 246.022 428.614 228.815 428.614 228.815Z" fill="white"/>
<path d="M441.357 250.493C439.575 250.46 437.811 250.194 436.101 249.705C424.276 246.551 427.956 228.818 427.956 228.683C428.016 228.552 428.107 228.435 428.222 228.34C428.337 228.249 428.47 228.185 428.614 228.158H456.069C456.244 228.158 456.412 228.225 456.532 228.349C456.656 228.472 456.727 228.641 456.727 228.816C456.727 229.338 456.596 242.344 449.235 247.992C446.965 249.685 444.187 250.568 441.357 250.491V250.493ZM429.136 229.471C428.744 232.363 426.905 245.894 436.494 248.519C441.354 249.833 445.294 249.307 448.445 246.943C454.359 242.344 455.277 232.23 455.277 229.471H429.134H429.136Z" fill="#1C1C1C"/>
<path d="M468.943 68.9409C466.577 72.4885 451.736 87.3318 438.862 84.5742C433.476 83.3925 433.476 77.6118 435.182 71.4373C436.632 66.6747 438.615 62.0913 441.093 57.7758L441.359 57.2513L442.671 55.6755H442.806C445.929 51.9398 450.242 49.3903 455.022 48.4498C471.968 45.0349 470.919 65.9222 468.947 68.9431L468.943 68.9409Z" fill="white"/>
<path d="M442.277 85.4928C441.082 85.4928 439.896 85.36 438.732 85.0989C437.891 84.9661 437.092 84.6518 436.388 84.1738C435.684 83.698 435.093 83.0717 434.66 82.3392C433.215 79.9756 433.215 76.2974 434.525 71.3046C435.941 66.4668 437.971 61.8303 440.569 57.5103L440.83 56.9836L442.144 55.2751L442.406 55.0117C445.626 51.234 450.021 48.6424 454.887 47.6554C462.244 46.3408 466.055 49.3639 467.892 52.2542C471.703 57.9043 470.915 67.0997 469.467 69.3327C468.022 71.5658 454.359 85.4906 442.273 85.4906L442.277 85.4928ZM443.196 56.0674L441.883 57.6431L441.618 58.1676C439.128 62.3703 437.187 66.874 435.839 71.568C434.525 76.2974 434.525 79.5816 435.709 81.6841C436.074 82.2617 436.554 82.7574 437.118 83.1425C437.685 83.5276 438.322 83.791 438.993 83.9193C445.692 85.3645 452.654 81.8169 457.517 78.6654C461.668 75.8968 465.349 72.482 468.421 68.5493C469.47 66.9736 470.39 58.3026 466.845 52.9159C463.295 47.5292 460.407 47.9232 455.151 48.9744C450.541 49.9083 446.38 52.3582 443.326 55.9368L443.196 56.0674Z" fill="#1C1C1C"/>
<path d="M446.61 51.9929C446.61 51.9929 460.537 44.6366 463.952 66.4423C466.843 85.4904 479.583 50.9417 479.583 50.9417C479.583 50.9417 462.638 30.9729 446.61 51.9929Z" fill="#1C1C1C"/>
<path d="M467.106 73.5374C470.443 73.5374 473.148 70.8308 473.148 67.4934C473.148 64.1561 470.443 61.4517 467.106 61.4517C463.769 61.4517 461.062 64.1583 461.062 67.4934C461.062 70.8286 463.769 73.5374 467.106 73.5374Z" fill="white"/>
<path d="M464.213 69.7289L463.822 69.4656C463.7 69.3438 463.634 69.1779 463.634 69.0052C463.634 68.8326 463.7 68.6688 463.822 68.5449L469.076 64.0789C469.472 63.8155 469.863 63.8155 469.994 64.0789C470.129 64.3422 470.26 64.8667 469.994 64.9973L464.74 69.5961L464.213 69.7267V69.7289Z" fill="#1C1C1C"/>
<path d="M468.416 70.6473C468.155 70.6473 467.894 70.5168 467.894 70.2534L466.84 66.8386C466.71 66.4447 466.971 66.0507 467.237 66.0507C467.321 66.0087 467.414 65.9843 467.509 65.9821C467.606 65.9799 467.699 65.9976 467.788 66.0352C467.874 66.0729 467.951 66.1282 468.016 66.199C468.08 66.2698 468.131 66.3539 468.157 66.4447L469.076 69.8595C469.206 70.1228 468.945 70.5168 468.684 70.6473H468.418H468.416Z" fill="#1C1C1C"/>
<path d="M454.624 81.157L440.963 90.483L443.722 84.833C443.722 84.833 453.048 82.9939 454.624 81.1548V81.157Z" fill="#1C1C1C"/>
<path d="M419.155 273.086L402.866 291.083L427.299 360.579L419.155 273.089V273.086Z" fill="#1C1C1C"/>
<path d="M402.866 291.741H402.47C402.333 291.637 402.238 291.48 402.216 291.307C402.191 291.137 402.235 290.957 402.339 290.82L423.492 267.567C423.543 267.496 423.607 267.439 423.68 267.397C423.758 267.352 423.838 267.324 423.922 267.31C424.008 267.299 424.096 267.304 424.181 267.328C424.265 267.348 424.342 267.386 424.413 267.439C424.479 267.49 424.541 267.554 424.583 267.629C424.628 267.702 424.654 267.784 424.667 267.87C424.681 267.954 424.674 268.041 424.654 268.125C424.63 268.209 424.594 268.286 424.544 268.357L403.391 291.61L402.868 291.741H402.866Z" fill="#1C1C1C"/>
<path d="M445.035 64.3422C446.126 64.3422 447.007 63.4591 447.007 62.3725C447.007 61.2859 446.124 60.4028 445.035 60.4028C443.946 60.4028 443.065 61.2859 443.065 62.3725C443.065 63.4591 443.948 64.3422 445.035 64.3422Z" fill="#1C1C1C"/>
<path d="M436.627 70.9109C436.627 70.9109 432.816 62.24 435.182 61.4521C437.548 60.6642 438.993 63.1606 438.993 63.1606" fill="white"/>
<path d="M436.627 71.5678C436.49 71.5788 436.353 71.5478 436.235 71.477C436.118 71.4062 436.025 71.3 435.97 71.1738C435.709 70.5165 432.947 64.0808 433.998 61.715C434.078 61.5048 434.202 61.3144 434.361 61.1551C434.518 60.9958 434.711 60.874 434.921 60.7944C437.152 60.0065 438.858 61.8456 439.515 62.8968C439.562 62.9632 439.588 63.0384 439.599 63.1181C439.613 63.1978 439.604 63.2775 439.579 63.3549C439.553 63.4302 439.513 63.501 439.456 63.5585C439.398 63.6161 439.332 63.6581 439.254 63.6847C439.183 63.7356 439.106 63.7732 439.022 63.7953C438.938 63.8175 438.851 63.8219 438.767 63.8086C438.681 63.7953 438.599 63.7666 438.526 63.7223C438.453 63.678 438.384 63.6205 438.336 63.5519C438.077 62.9964 437.634 62.5494 437.085 62.286C436.536 62.0226 435.908 61.9585 435.315 62.1067C435.282 62.1067 435.248 62.12 435.222 62.1444C435.197 62.1687 435.184 62.2019 435.184 62.2373C434.527 63.5519 436.103 68.1485 437.154 70.6449C437.2 70.7223 437.231 70.8064 437.24 70.8972C437.253 70.9857 437.247 71.0764 437.22 71.1628C437.196 71.2491 437.156 71.3287 437.099 71.3996C437.041 71.4704 436.97 71.5257 436.891 71.5678H436.629H436.627Z" fill="#1C1C1C"/>
<path d="M442.016 76.6914C442.485 76.7467 442.961 76.6781 443.401 76.4922C443.837 76.3085 444.22 76.0142 444.512 75.6401" fill="white"/>
<path d="M442.277 77.3482H441.881C441.731 77.2774 441.602 77.1667 441.509 77.0273C441.419 76.8879 441.365 76.7263 441.359 76.5604C441.372 76.474 441.405 76.3899 441.456 76.3169C441.503 76.2417 441.567 76.1797 441.64 76.131C441.713 76.0823 441.795 76.0491 441.881 76.0314C441.967 76.0159 442.058 76.0159 442.147 76.0358C442.512 76.058 442.877 75.9982 443.22 75.861C443.559 75.7238 443.868 75.5158 444.116 75.248C444.15 75.1572 444.207 75.0776 444.28 75.0178C444.353 74.9581 444.442 74.9182 444.535 74.905C444.632 74.8917 444.725 74.905 444.816 74.9404C444.902 74.978 444.979 75.0377 445.035 75.1152C445.156 75.2369 445.223 75.4029 445.223 75.5755C445.223 75.7481 445.156 75.9119 445.035 76.0358C444.716 76.4608 444.3 76.8038 443.818 77.034C443.337 77.2619 442.808 77.3703 442.277 77.3504V77.3482Z" fill="#1C1C1C"/>
</g>
<path d="M531.819 251.296H509.465C504.887 251.296 501.176 247.585 501.176 243.007V220.654C501.176 216.076 504.887 212.365 509.465 212.365H531.819C536.397 212.365 540.108 216.076 540.108 220.654V243.007C540.108 247.585 536.397 251.296 531.819 251.296Z" fill="white"/>
<path d="M531.818 252H509.466C504.507 252 500.473 247.966 500.473 243.007V220.654C500.473 215.696 504.507 211.661 509.466 211.661H531.818C536.778 211.661 540.812 215.696 540.812 220.654V243.007C540.812 247.966 536.778 252 531.818 252ZM509.466 213.068C505.283 213.068 501.88 216.471 501.88 220.654V243.007C501.88 247.19 505.283 250.593 509.466 250.593H531.818C536.002 250.593 539.405 247.19 539.405 243.007V220.654C539.405 216.471 536.002 213.068 531.818 213.068H509.466Z" fill="#1B1B1B"/>
<path d="M531.502 225.467C531.069 224.679 530.43 224.018 529.646 223.579C526.054 221.569 522.427 222.817 520.65 225.426C518.851 222.783 515.152 221.536 511.515 223.659C510.855 224.044 510.301 224.596 509.909 225.252C508.258 228.024 508.581 230.803 509.968 232.785C509.993 232.821 510.02 232.855 510.047 232.889C510.052 232.895 510.057 232.9 510.061 232.906C510.092 232.944 511.857 234.993 512.962 236.111C513.903 237.064 516.238 239.237 519.584 241.942C520.196 242.437 521.07 242.439 521.684 241.948C523.671 240.36 525.284 238.984 526.484 237.934C528.097 236.521 528.601 236.012 529.076 235.482C530.788 233.57 534.584 231.075 531.502 225.467Z" fill="#0D75E8"/>
</g>
<defs>
<clipPath id="clip0_11122_49741">
<rect width="570" height="302" rx="20" fill="white"/>
</clipPath>
<clipPath id="clip1_11122_49741">
<rect width="307.057" height="458.604" fill="white" transform="translate(207 34.6533)"/>
</clipPath>
</defs>
</svg>
