<svg width="570" height="302" viewBox="0 0 570 302" fill="none" xmlns="http://www.w3.org/2000/svg">
<g clip-path="url(#clip0_11122_49828)">
<rect width="570" height="302" rx="20" fill="white"/>
<g clip-path="url(#clip1_11122_49828)">
<mask id="mask0_11122_49828" style="mask-type:luminance" maskUnits="userSpaceOnUse" x="149" y="-58" width="438" height="438">
<path d="M586.442 -58H149V379.442H586.442V-58Z" fill="white"/>
</mask>
<g mask="url(#mask0_11122_49828)">
<path d="M370.21 99.3869H287.339C282.072 99.3869 277.803 95.1179 277.803 89.8515V53.1639C277.803 47.8979 282.072 43.6289 287.339 43.6289H370.21C375.476 43.6289 379.745 47.8979 379.745 53.1639V89.8515C379.745 95.1179 375.476 99.3869 370.21 99.3869Z" fill="white"/>
<path d="M370.21 100.091H287.339C281.693 100.091 277.1 95.4974 277.1 89.8521V53.1642C277.1 47.5189 281.693 42.9255 287.339 42.9255H370.21C375.856 42.9255 380.449 47.5189 380.449 53.1642V89.8521C380.449 95.4974 375.856 100.091 370.21 100.091ZM287.339 44.3327C282.469 44.3327 278.507 48.2946 278.507 53.1642V89.8521C278.507 94.7217 282.469 98.6836 287.339 98.6836H370.21C375.08 98.6836 379.042 94.7217 379.042 89.8521V53.1642C379.042 48.2946 375.08 44.3327 370.21 44.3327H287.339Z" fill="#1C1C1C"/>
<path d="M296.41 62.4415C296.029 62.4415 295.716 62.1372 295.707 61.7545C295.638 58.8919 296.698 57.1811 297.601 56.2492C298.633 55.1822 300.061 54.5381 301.42 54.5269H301.459C302.792 54.5269 304.142 55.1154 305.168 56.1448C306.091 57.0707 307.184 58.7945 307.149 61.746C307.144 62.132 306.83 62.4415 306.445 62.4415H306.437C306.048 62.4366 305.737 62.1179 305.742 61.7295C305.771 59.2662 304.904 57.8728 304.171 57.1379C303.419 56.3826 302.406 55.934 301.458 55.934H301.432C300.442 55.9421 299.388 56.4262 298.611 57.2283C297.587 58.2868 297.068 59.8404 297.113 61.7211C297.123 62.1098 296.815 62.432 296.427 62.4412C296.421 62.4415 296.416 62.4415 296.41 62.4415Z" fill="#1C1C1C"/>
<path d="M311.534 89.5633H291.42C289.329 89.5633 287.717 87.7206 287.995 85.6479L290.797 64.7351C291.027 63.0187 292.492 61.7378 294.223 61.7378H308.255C309.957 61.7378 311.406 62.9768 311.669 64.6587L314.949 85.5712C315.278 87.6682 313.657 89.5633 311.534 89.5633Z" fill="#04103D"/>
<path d="M366.189 66.1593H328.073C326.559 66.1593 325.332 64.9319 325.332 63.4181V61.2897C325.332 59.7756 326.559 58.5479 328.073 58.5479H366.189C367.703 58.5479 368.93 59.7756 368.93 61.2897V63.4181C368.93 64.9319 367.703 66.1593 366.189 66.1593Z" fill="#04103D"/>
<path d="M367.109 75.7885H327.153C326.764 75.7885 326.449 75.4733 326.449 75.0849C326.449 74.6966 326.764 74.3813 327.153 74.3813H367.109C367.497 74.3813 367.813 74.6966 367.813 75.0849C367.813 75.4733 367.497 75.7885 367.109 75.7885Z" fill="#1C1C1C"/>
<path d="M361.483 84.8305H327.153C326.764 84.8305 326.449 84.5153 326.449 84.1269C326.449 83.7385 326.764 83.4233 327.153 83.4233H361.483C361.872 83.4233 362.187 83.7385 362.187 84.1269C362.187 84.5153 361.872 84.8305 361.483 84.8305Z" fill="#1C1C1C"/>
<path d="M412.371 128.664L417.825 97.751C418.15 95.9117 420.067 94.8206 421.814 95.4809L432.166 99.3922C434.098 100.122 434.72 102.549 433.377 104.118L412.371 128.664Z" fill="#3DE297"/>
<path d="M409.975 127.3L437.61 114.254C439.444 113.388 441.607 114.45 442.043 116.43L444.311 126.724C444.775 128.829 443.041 130.77 440.897 130.545L409.975 127.3Z" fill="#3DE297"/>
<path d="M418.041 129.667C415.118 129.667 412.74 127.289 412.74 124.366C412.74 121.443 415.118 119.065 418.041 119.065C420.964 119.065 423.342 121.443 423.342 124.366C423.342 127.289 420.964 129.667 418.041 129.667ZM418.041 120.523C415.923 120.523 414.199 122.247 414.199 124.366C414.199 126.485 415.923 128.209 418.041 128.209C420.16 128.209 421.884 126.485 421.884 124.366C421.884 122.247 420.16 120.523 418.041 120.523Z" fill="#1C1C1C"/>
<path d="M395.253 161.149C395.327 173.227 385.596 183.077 373.518 183.151C361.441 183.224 351.59 173.493 351.516 161.416C351.443 149.338 361.174 139.488 373.251 139.414C385.329 139.34 395.18 149.071 395.253 161.149Z" fill="#1C1C1C"/>
<path d="M463.027 177.073C463.445 189.613 453.553 200.119 440.933 200.539C428.313 200.96 417.744 191.135 417.326 178.596C416.908 166.056 426.8 155.55 439.42 155.13C452.041 154.709 462.61 164.534 463.027 177.073Z" fill="#1C1C1C"/>
<path d="M439.156 147.2C439.574 159.74 429.682 170.246 417.062 170.666C404.442 171.087 393.873 161.262 393.455 148.723C393.037 136.183 402.929 125.677 415.549 125.257C428.17 124.836 438.739 134.661 439.156 147.2Z" fill="#1C1C1C"/>
<path d="M395.733 144.867L381.839 144.952C367.455 145.039 355.723 133.45 355.635 119.066L355.527 101.286C355.475 92.772 362.335 85.8275 370.85 85.7756L389.595 85.6612C402.835 85.5805 413.634 96.2482 413.715 109.488L413.819 126.559C413.88 136.609 405.783 144.806 395.733 144.867Z" fill="#1C1C1C"/>
<path d="M396.262 136.119L396.386 156.58L369.909 156.742L369.838 145.158L369.833 144.408L369.084 144.412L360.182 144.458L360.172 144.458L360.162 144.458C356.77 144.568 354.404 143.927 352.75 142.962C351.101 142 350.106 140.685 349.504 139.346C348.898 137.999 348.691 136.625 348.639 135.576C348.613 135.055 348.625 134.62 348.644 134.319C348.654 134.169 348.665 134.052 348.673 133.975C348.677 133.937 348.681 133.909 348.683 133.891L348.685 133.872L348.686 133.871L348.686 133.87L348.686 133.869L348.686 133.869L348.689 133.844L348.691 133.818L349.532 122.658L349.555 122.348L349.352 122.113L347.541 120.01C347.124 119.526 347.135 118.802 347.566 118.33L347.566 118.33L348.886 116.887L348.343 116.391L348.886 116.887C350.441 115.186 351.4 113.033 351.669 110.749C352.686 102.135 355.214 97.6184 357.396 95.2656C358.488 94.0874 359.506 93.4377 360.231 93.0844C360.373 93.0156 360.503 92.9579 360.621 92.9097C363.235 108.222 370.481 114.872 377.258 117.612C380.68 118.996 383.938 119.365 386.336 119.389C387.536 119.401 388.526 119.328 389.219 119.25C389.565 119.211 389.838 119.171 390.027 119.14C390.121 119.125 390.195 119.112 390.246 119.103C390.271 119.098 390.291 119.094 390.305 119.091L390.322 119.088L390.327 119.087L390.329 119.087C390.33 119.086 390.33 119.086 390.178 118.352L390.33 119.086L390.418 119.068L390.498 119.03C393.404 117.659 395.668 117.481 397.415 117.868C399.166 118.256 400.485 119.231 401.461 120.323C403.447 122.545 404.291 125.614 403.765 128.568C403.25 131.45 401.546 133.141 399.943 134.129C399.137 134.625 398.362 134.939 397.789 135.129C397.503 135.224 397.269 135.287 397.11 135.325C397.031 135.345 396.97 135.358 396.931 135.366C396.911 135.37 396.897 135.373 396.889 135.374L396.882 135.376L396.881 135.376L396.881 135.376L396.881 135.376L396.88 135.376L396.258 135.486L396.262 136.119Z" fill="white" stroke="#1C1C1C" stroke-width="1.5"/>
<path d="M398.552 123.36C398.42 123.353 395.299 123.143 393.443 124.936C392.515 125.835 392.071 127.045 392.127 128.539L392.127 128.564L392.127 128.572C392.155 130.172 393.468 131.458 395.072 131.448C396.687 131.438 397.991 130.118 397.982 128.503C397.972 126.892 396.651 125.584 395.037 125.594C395.007 125.594 394.982 125.594 394.953 125.598C396.031 124.902 397.467 124.814 398.108 124.81C398.316 124.808 398.437 124.815 398.444 124.815C398.849 124.842 399.193 124.544 399.224 124.143C399.254 123.742 398.953 123.39 398.552 123.36ZM395.045 127.052C395.855 127.047 396.518 127.703 396.523 128.512C396.528 129.325 395.873 129.985 395.063 129.99C394.254 129.995 393.594 129.347 393.585 128.534L393.585 128.508C393.591 127.71 394.243 127.057 395.045 127.052Z" fill="#1C1C1C"/>
<path d="M366.029 116.751C366.034 117.703 365.267 118.479 364.315 118.485C363.363 118.491 362.587 117.724 362.581 116.772C362.575 115.82 363.342 115.043 364.294 115.037C365.246 115.032 366.023 115.799 366.029 116.751Z" fill="#1C1C1C"/>
<path d="M358.346 133.064C357.65 133.068 356.957 132.942 356.302 132.67C354.198 131.795 352.776 129.468 352.764 126.878C352.762 126.433 352.956 126.012 353.295 125.725C353.631 125.441 354.074 125.321 354.506 125.395L354.507 125.395L363.211 126.897C363.665 126.976 364.051 127.253 364.269 127.66C364.488 128.068 364.506 128.544 364.32 128.966C363.218 131.468 360.759 133.05 358.346 133.064ZM354.252 126.831C354.248 126.832 354.243 126.833 354.237 126.838C354.222 126.85 354.222 126.866 354.222 126.871C354.231 128.882 355.292 130.671 356.861 131.323C359.265 132.323 362.018 130.573 362.986 128.379L362.963 128.334L354.258 126.832C354.256 126.832 354.254 126.831 354.252 126.831Z" fill="#1C1C1C"/>
<path d="M368.855 143.652L382.224 143.571C382.786 143.567 382.948 144.337 382.432 144.561L368.897 150.439L368.855 143.652Z" fill="#1C1C1C"/>
<path d="M512.282 273.611H245.939C245.536 273.611 245.21 273.284 245.21 272.882C245.21 272.479 245.536 272.153 245.939 272.153H512.282C512.685 272.153 513.011 272.479 513.011 272.882C513.011 273.284 512.685 273.611 512.282 273.611Z" fill="#1C1C1C"/>
<path d="M367.018 157.107C367.018 155.739 368.068 154.524 369.613 154.132C370.144 153.997 370.733 153.89 371.376 153.834C374.609 153.552 377.019 154.76 377.778 155.177C378.415 154.761 380.288 153.652 383.021 153.575C386.1 153.489 388.236 154.769 388.838 155.159C389.607 154.718 391.53 153.746 394.24 153.678C395.622 153.644 396.826 153.855 397.8 154.137C399.269 154.561 400.237 155.751 400.237 157.066V163.447H367.018V157.107Z" fill="#3DE297"/>
<path d="M450.772 185.544L450.776 185.553L450.779 185.561C464.282 216.586 474.023 239.212 475.081 241.882C475.463 242.847 475.759 243.831 475.959 244.577C476.059 244.949 476.135 245.259 476.185 245.476C476.21 245.584 476.229 245.669 476.241 245.725L476.255 245.789L476.258 245.805L476.259 245.808L476.259 245.809C476.455 246.757 476.572 247.625 476.642 248.384L317.435 248.249L324.472 183.805L323.727 183.724L324.472 183.805C325.83 171.375 336.313 161.951 348.817 161.919L415.312 161.752C430.877 161.713 444.907 171.127 450.772 185.544Z" fill="#3DE297" stroke="#1C1C1C" stroke-width="1.5"/>
<path d="M428.785 249.052H346.333V193.172H408.556C410.3 193.172 411.84 194.308 412.356 195.974L428.785 249.052Z" fill="#1C1C1C"/>
<path d="M408.546 193.901C408.197 193.901 407.888 193.65 407.828 193.294C407.623 192.088 402.93 163.726 412.719 160.319C413.1 160.185 413.515 160.388 413.647 160.768C413.78 161.148 413.579 161.564 413.198 161.696C406.031 164.19 407.929 185.175 409.265 193.05C409.333 193.447 409.066 193.824 408.669 193.891C408.628 193.898 408.586 193.901 408.546 193.901Z" fill="#1C1C1C"/>
<path d="M348.155 193.901C347.824 193.901 347.524 193.679 347.446 193.349C345.54 185.325 345.49 177.366 347.295 169.697C347.944 166.94 348.842 164.21 349.965 161.581C350.121 161.217 350.548 161.046 350.919 161.198C351.291 161.35 351.466 161.768 351.31 162.131C350.219 164.686 349.346 167.339 348.716 170.017C346.96 177.473 347.011 185.215 348.866 193.026C348.957 193.41 348.713 193.794 348.321 193.883C348.265 193.895 348.21 193.901 348.155 193.901Z" fill="#1C1C1C"/>
<path d="M362.229 245.489C358.275 245.243 353.176 245.472 347.617 247.224C330.043 252.763 322.246 268.99 320.588 272.664C334.469 272.737 348.349 272.809 362.229 272.882V245.489Z" fill="white"/>
<path d="M362.958 273.615L319.462 273.389L319.924 272.365C322.64 266.344 330.755 251.774 347.398 246.529C352.132 245.037 357.138 244.442 362.275 244.762L362.958 244.804V273.615ZM321.729 271.942L361.5 272.149V246.18C356.783 245.964 352.189 246.548 347.836 247.92C332.629 252.712 324.768 265.614 321.729 271.942Z" fill="#1C1C1C"/>
<path d="M445.247 280.337H366.29C361.224 280.337 357.116 276.229 357.116 271.163V256.025C357.116 244.777 366.234 235.658 377.483 235.658H462.974C470.416 235.658 476.449 241.691 476.449 249.134C476.449 266.366 462.479 280.337 445.247 280.337Z" fill="#3DE297"/>
<path d="M393.624 162.567H371.019C370.617 162.567 370.29 162.24 370.29 161.838C370.29 161.436 370.617 161.109 371.019 161.109H393.624C394.026 161.109 394.353 161.436 394.353 161.838C394.353 162.24 394.026 162.567 393.624 162.567Z" fill="#1C1C1C"/>
<path d="M532.367 232.506H463.75C457.218 232.506 451.923 227.211 451.923 220.679V145.56C451.923 139.028 457.218 133.733 463.75 133.733H532.367C538.899 133.733 544.194 139.028 544.194 145.56V220.679C544.194 227.211 538.899 232.506 532.367 232.506Z" fill="white"/>
<path d="M532.367 233.21H463.75C456.84 233.21 451.219 227.588 451.219 220.678V145.56C451.219 138.65 456.84 133.029 463.75 133.029H532.367C539.276 133.029 544.898 138.65 544.898 145.56V220.678C544.898 227.588 539.276 233.21 532.367 233.21ZM463.75 134.436C457.616 134.436 452.626 139.427 452.626 145.56V220.678C452.626 226.812 457.616 231.802 463.75 231.802H532.367C538.5 231.802 543.49 226.812 543.49 220.678V145.56C543.49 139.427 538.5 134.436 532.367 134.436H463.75Z" fill="#1C1C1C"/>
<path d="M473.969 188.322H464.793C462.129 188.322 459.969 186.162 459.969 183.498V174.322C459.969 171.658 462.129 169.499 464.793 169.499H473.969C476.633 169.499 478.793 171.658 478.793 174.322V183.498C478.793 186.162 476.633 188.322 473.969 188.322Z" fill="#7EF0BC"/>
<path d="M473.969 216.9H464.793C462.129 216.9 459.969 214.741 459.969 212.077V202.901C459.969 200.237 462.129 198.077 464.793 198.077H473.969C476.633 198.077 478.793 200.237 478.793 202.901V212.077C478.793 214.741 476.633 216.9 473.969 216.9Z" fill="#7EF0BC"/>
<path d="M533.631 173.65H491.143C490.754 173.65 490.439 173.323 490.439 172.921C490.439 172.519 490.754 172.192 491.143 172.192H533.631C534.02 172.192 534.335 172.519 534.335 172.921C534.335 173.323 534.02 173.65 533.631 173.65Z" fill="#1C1C1C"/>
<path d="M517.332 184.387H491.143C490.754 184.387 490.439 184.06 490.439 183.658C490.439 183.255 490.754 182.929 491.143 182.929H517.332C517.721 182.929 518.036 183.255 518.036 183.658C518.036 184.06 517.721 184.387 517.332 184.387Z" fill="#1C1C1C"/>
<path d="M533.631 203.367H491.143C490.754 203.367 490.439 203.04 490.439 202.638C490.439 202.235 490.754 201.909 491.143 201.909H533.631C534.02 201.909 534.335 202.235 534.335 202.638C534.335 203.04 534.02 203.367 533.631 203.367Z" fill="#1C1C1C"/>
<path d="M517.332 214.104H491.143C490.754 214.104 490.439 213.777 490.439 213.375C490.439 212.972 490.754 212.646 491.143 212.646H517.332C517.721 212.646 518.036 212.972 518.036 213.375C518.036 213.777 517.721 214.104 517.332 214.104Z" fill="#1C1C1C"/>
<path d="M477.72 142.803C477.385 142.194 476.891 141.683 476.284 141.343C473.506 139.788 470.701 140.754 469.327 142.772C467.935 140.727 465.074 139.764 462.261 141.406C461.75 141.703 461.321 142.13 461.019 142.637C459.742 144.781 459.992 146.931 461.064 148.463C461.084 148.491 461.104 148.518 461.126 148.544C461.13 148.549 461.133 148.553 461.137 148.557C461.16 148.586 462.526 150.171 463.38 151.036C464.108 151.773 465.913 153.454 468.502 155.547C468.975 155.929 469.651 155.931 470.126 155.551C471.663 154.323 472.911 153.259 473.838 152.447C475.086 151.354 475.476 150.959 475.843 150.549C477.168 149.07 480.104 147.141 477.72 142.803Z" fill="#0D76E9"/>
<path d="M266.462 249.563C266.179 249.603 265.908 249.419 265.844 249.135C264.424 242.83 262.417 236.622 259.879 230.683C257.487 225.086 254.593 219.66 251.278 214.552C251.111 214.296 251.184 213.952 251.441 213.785C251.699 213.618 252.042 213.691 252.208 213.949C255.558 219.109 258.482 224.592 260.899 230.247C263.464 236.248 265.492 242.521 266.926 248.892C266.994 249.19 266.806 249.487 266.507 249.554C266.492 249.558 266.477 249.561 266.462 249.563Z" fill="#1C1C1C"/>
<path d="M255.07 208.939C255.487 211.905 253.42 214.649 250.453 215.066C247.487 215.483 244.743 213.415 244.326 210.449C243.91 207.482 245.977 204.739 248.943 204.322C251.91 203.905 254.653 205.972 255.07 208.939Z" fill="#04103D"/>
<path d="M267.321 242.825C267.295 242.821 267.268 242.816 267.242 242.808C266.948 242.722 266.779 242.414 266.865 242.12C267.591 239.64 268.762 237.362 270.343 235.347C271.542 233.821 272.958 232.475 274.553 231.349C274.804 231.173 275.15 231.233 275.326 231.483C275.503 231.733 275.443 232.079 275.193 232.256C273.686 233.319 272.348 234.59 271.215 236.032C269.721 237.935 268.616 240.088 267.93 242.432C267.851 242.699 267.589 242.863 267.321 242.825Z" fill="#1C1C1C"/>
<path d="M279.135 232.134C278.84 234.232 276.9 235.694 274.803 235.399C272.705 235.104 271.243 233.164 271.538 231.067C271.833 228.969 273.772 227.507 275.87 227.802C277.968 228.097 279.43 230.037 279.135 232.134Z" fill="#04103D"/>
<path d="M272.757 251.151L273.008 244.142C273.039 243.264 272.335 242.535 271.457 242.535H260.198C259.313 242.535 258.608 243.273 258.648 244.156L258.945 250.746C259.007 252.134 258.302 253.444 257.11 254.157C251.857 257.292 248.398 263.12 248.642 269.737C248.98 278.855 256.457 286.226 265.579 286.442C275.364 286.674 283.37 278.811 283.37 269.077C283.37 262.545 279.829 257.183 274.512 254.282C273.379 253.664 272.711 252.441 272.757 251.151Z" fill="white"/>
<path d="M266.004 287.002C265.858 287.002 265.712 287 265.566 286.997C256.115 286.773 248.438 279.2 248.088 269.758C247.846 263.203 251.193 257.042 256.825 253.68C257.844 253.072 258.444 251.958 258.39 250.771L258.094 244.181C258.068 243.601 258.274 243.05 258.675 242.631C259.077 242.211 259.617 241.98 260.198 241.98H271.457C272.033 241.98 272.572 242.209 272.973 242.624C273.373 243.039 273.582 243.585 273.561 244.161L273.311 251.172C273.272 252.259 273.848 253.288 274.778 253.796C280.505 256.92 283.925 262.632 283.925 269.078C283.925 273.945 282.006 278.5 278.523 281.902C275.146 285.2 270.714 287.002 266.004 287.002ZM260.198 243.09C259.923 243.09 259.667 243.199 259.477 243.398C259.287 243.596 259.189 243.857 259.202 244.131L259.498 250.721C259.57 252.316 258.764 253.815 257.394 254.633C252.11 257.788 248.969 263.567 249.196 269.717C249.525 278.574 256.726 285.678 265.592 285.888C270.166 286.001 274.481 284.298 277.748 281.108C281.016 277.917 282.815 273.644 282.815 269.078C282.815 263.045 279.612 257.696 274.247 254.77C272.951 254.063 272.149 252.635 272.203 251.132L272.453 244.122C272.463 243.849 272.364 243.59 272.174 243.394C271.985 243.198 271.73 243.09 271.457 243.09H260.198Z" fill="#1C1C1C"/>
<path d="M266.146 243.542C265.896 243.506 265.694 243.302 265.671 243.04C265.104 236.456 267.91 229.301 270.363 224.457C273.008 219.235 275.828 215.496 275.857 215.459C276.041 215.214 276.389 215.166 276.634 215.352C276.878 215.537 276.926 215.884 276.741 216.129C276.713 216.165 273.944 219.839 271.343 224.976C268.96 229.686 266.232 236.626 266.776 242.945C266.803 243.25 266.577 243.519 266.272 243.545C266.229 243.548 266.187 243.547 266.146 243.542Z" fill="#1C1C1C"/>
<path d="M283.448 213.169L281.562 212.904C281.539 212.802 281.513 212.702 281.482 212.603L283.035 211.575C283.713 211.126 283.898 210.214 283.45 209.536C283.002 208.859 282.089 208.673 281.412 209.122L279.776 210.204C279.751 210.221 279.73 210.243 279.706 210.262C279.62 210.207 279.531 210.156 279.44 210.107L279.688 208.346C279.801 207.542 279.24 206.798 278.436 206.685C277.631 206.572 276.888 207.132 276.775 207.937L276.527 209.698C276.385 209.729 276.246 209.767 276.11 209.812C276.073 209.757 276.039 209.702 275.995 209.651L274.703 208.176C274.167 207.565 273.238 207.504 272.627 208.039C272.016 208.574 271.955 209.503 272.49 210.115L273.782 211.59C273.793 211.602 273.806 211.61 273.817 211.622C273.781 211.681 273.75 211.742 273.717 211.802L271.892 211.545C271.087 211.432 270.344 211.993 270.23 212.797C270.117 213.601 270.678 214.345 271.482 214.458L273.29 214.712C273.299 214.755 273.307 214.798 273.317 214.841C273.312 214.844 273.307 214.846 273.302 214.849L271.667 215.931C270.989 216.38 270.804 217.293 271.252 217.97C271.7 218.647 272.613 218.833 273.29 218.385L274.926 217.302C274.938 217.293 274.948 217.283 274.96 217.274C275.106 217.379 275.262 217.474 275.422 217.56L275.177 219.306C275.064 220.111 275.624 220.855 276.429 220.968C277.233 221.081 277.977 220.52 278.09 219.716L278.335 217.97C278.443 217.946 278.548 217.919 278.652 217.888L279.904 219.317C280.44 219.928 281.369 219.989 281.98 219.454C282.591 218.919 282.652 217.989 282.117 217.378L281.004 216.107C281.063 216.014 281.118 215.918 281.17 215.82L283.038 216.083C283.843 216.196 284.587 215.635 284.7 214.831C284.813 214.026 284.252 213.282 283.448 213.169Z" fill="#7EF0BC"/>
<path d="M283.448 213.169L281.562 212.904C281.539 212.802 281.513 212.702 281.482 212.603L283.035 211.575C283.713 211.126 283.898 210.214 283.45 209.536C283.002 208.859 282.089 208.673 281.412 209.122L279.776 210.204C279.751 210.221 279.73 210.243 279.706 210.262C279.62 210.207 279.531 210.156 279.44 210.107L279.688 208.346C279.801 207.542 279.24 206.798 278.436 206.685C277.631 206.572 276.888 207.132 276.775 207.937L276.527 209.698C276.385 209.729 276.246 209.767 276.11 209.812C276.073 209.757 276.039 209.702 275.995 209.651L274.703 208.176C274.167 207.565 273.238 207.504 272.627 208.039C272.016 208.574 271.955 209.503 272.49 210.115L273.782 211.59C273.793 211.602 273.806 211.61 273.817 211.622C273.781 211.681 273.75 211.742 273.717 211.802L271.892 211.545C271.087 211.432 270.344 211.993 270.23 212.797C270.117 213.601 270.678 214.345 271.482 214.458L273.29 214.712C273.299 214.755 273.307 214.798 273.317 214.841C273.312 214.844 273.307 214.846 273.302 214.849L271.667 215.931C270.989 216.38 270.804 217.293 271.252 217.97C271.7 218.647 272.613 218.833 273.29 218.385L274.926 217.302C274.938 217.293 274.948 217.283 274.96 217.274C275.106 217.379 275.262 217.474 275.422 217.56L275.177 219.306C275.064 220.111 275.624 220.855 276.429 220.968C277.233 221.081 277.977 220.52 278.09 219.716L278.335 217.97C278.443 217.946 278.548 217.919 278.652 217.888L279.904 219.317C280.44 219.928 281.369 219.989 281.98 219.454C282.591 218.919 282.652 217.989 282.117 217.378L281.004 216.107C281.063 216.014 281.118 215.918 281.17 215.82L283.038 216.083C283.843 216.196 284.587 215.635 284.7 214.831C284.813 214.026 284.252 213.282 283.448 213.169Z" fill="#7EF0BC"/>
<path d="M283.448 213.169L281.562 212.904C281.539 212.802 281.513 212.702 281.482 212.603L283.035 211.575C283.713 211.126 283.898 210.214 283.45 209.536C283.002 208.859 282.089 208.673 281.412 209.122L279.776 210.204C279.751 210.221 279.73 210.243 279.706 210.262C279.62 210.207 279.531 210.156 279.44 210.107L279.688 208.346C279.801 207.542 279.24 206.798 278.436 206.685C277.631 206.572 276.888 207.132 276.775 207.937L276.527 209.698C276.385 209.729 276.246 209.767 276.11 209.812C276.073 209.757 276.039 209.702 275.995 209.651L274.703 208.176C274.167 207.565 273.238 207.504 272.627 208.039C272.016 208.574 271.955 209.503 272.49 210.115L273.782 211.59C273.793 211.602 273.806 211.61 273.817 211.622C273.781 211.681 273.75 211.742 273.717 211.802L271.892 211.545C271.087 211.432 270.344 211.993 270.23 212.797C270.117 213.601 270.678 214.345 271.482 214.458L273.29 214.712C273.299 214.755 273.307 214.798 273.317 214.841C273.312 214.844 273.307 214.846 273.302 214.849L271.667 215.931C270.989 216.38 270.804 217.293 271.252 217.97C271.7 218.647 272.613 218.833 273.29 218.385L274.926 217.302C274.938 217.293 274.948 217.283 274.96 217.274C275.106 217.379 275.262 217.474 275.422 217.56L275.177 219.306C275.064 220.111 275.624 220.855 276.429 220.968C277.233 221.081 277.977 220.52 278.09 219.716L278.335 217.97C278.443 217.946 278.548 217.919 278.652 217.888L279.904 219.317C280.44 219.928 281.369 219.989 281.98 219.454C282.591 218.919 282.652 217.989 282.117 217.378L281.004 216.107C281.063 216.014 281.118 215.918 281.17 215.82L283.038 216.083C283.843 216.196 284.587 215.635 284.7 214.831C284.813 214.026 284.252 213.282 283.448 213.169Z" fill="#7EF0BC"/>
<path d="M283.448 213.169L281.562 212.904C281.539 212.802 281.513 212.702 281.482 212.603L283.035 211.575C283.713 211.126 283.898 210.214 283.45 209.536C283.002 208.859 282.089 208.673 281.412 209.122L279.776 210.204C279.751 210.221 279.73 210.243 279.706 210.262C279.62 210.207 279.531 210.156 279.44 210.107L279.688 208.346C279.801 207.542 279.24 206.798 278.436 206.685C277.631 206.572 276.888 207.132 276.775 207.937L276.527 209.698C276.385 209.729 276.246 209.767 276.11 209.812C276.073 209.757 276.039 209.702 275.995 209.651L274.703 208.176C274.167 207.565 273.238 207.504 272.627 208.039C272.016 208.574 271.955 209.503 272.49 210.115L273.782 211.59C273.793 211.602 273.806 211.61 273.817 211.622C273.781 211.681 273.75 211.742 273.717 211.802L271.892 211.545C271.087 211.432 270.344 211.993 270.23 212.797C270.117 213.601 270.678 214.345 271.482 214.458L273.29 214.712C273.299 214.755 273.307 214.798 273.317 214.841C273.312 214.844 273.307 214.846 273.302 214.849L271.667 215.931C270.989 216.38 270.804 217.293 271.252 217.97C271.7 218.647 272.613 218.833 273.29 218.385L274.926 217.302C274.938 217.293 274.948 217.283 274.96 217.274C275.106 217.379 275.262 217.474 275.422 217.56L275.177 219.306C275.064 220.111 275.624 220.855 276.429 220.968C277.233 221.081 277.977 220.52 278.09 219.716L278.335 217.97C278.443 217.946 278.548 217.919 278.652 217.888L279.904 219.317C280.44 219.928 281.369 219.989 281.98 219.454C282.591 218.919 282.652 217.989 282.117 217.378L281.004 216.107C281.063 216.014 281.118 215.918 281.17 215.82L283.038 216.083C283.843 216.196 284.587 215.635 284.7 214.831C284.813 214.026 284.252 213.282 283.448 213.169Z" fill="#7EF0BC"/>
<path d="M283.448 213.169L281.562 212.904C281.539 212.802 281.513 212.702 281.482 212.603L283.035 211.575C283.713 211.126 283.898 210.214 283.45 209.536C283.002 208.859 282.089 208.673 281.412 209.122L279.776 210.204C279.751 210.221 279.73 210.243 279.706 210.262C279.62 210.207 279.531 210.156 279.44 210.107L279.688 208.346C279.801 207.542 279.24 206.798 278.436 206.685C277.631 206.572 276.888 207.132 276.775 207.937L276.527 209.698C276.385 209.729 276.246 209.767 276.11 209.812C276.073 209.757 276.039 209.702 275.995 209.651L274.703 208.176C274.167 207.565 273.238 207.504 272.627 208.039C272.016 208.574 271.955 209.503 272.49 210.115L273.782 211.59C273.793 211.602 273.806 211.61 273.817 211.622C273.781 211.681 273.75 211.742 273.717 211.802L271.892 211.545C271.087 211.432 270.344 211.993 270.23 212.797C270.117 213.601 270.678 214.345 271.482 214.458L273.29 214.712C273.299 214.755 273.307 214.798 273.317 214.841C273.312 214.844 273.307 214.846 273.302 214.849L271.667 215.931C270.989 216.38 270.804 217.293 271.252 217.97C271.7 218.647 272.613 218.833 273.29 218.385L274.926 217.302C274.938 217.293 274.948 217.283 274.96 217.274C275.106 217.379 275.262 217.474 275.422 217.56L275.177 219.306C275.064 220.111 275.624 220.855 276.429 220.968C277.233 221.081 277.977 220.52 278.09 219.716L278.335 217.97C278.443 217.946 278.548 217.919 278.652 217.888L279.904 219.317C280.44 219.928 281.369 219.989 281.98 219.454C282.591 218.919 282.652 217.989 282.117 217.378L281.004 216.107C281.063 216.014 281.118 215.918 281.17 215.82L283.038 216.083C283.843 216.196 284.587 215.635 284.7 214.831C284.813 214.026 284.252 213.282 283.448 213.169Z" fill="#7EF0BC"/>
<path d="M283.448 213.169L281.562 212.904C281.539 212.802 281.513 212.702 281.482 212.603L283.035 211.575C283.713 211.126 283.898 210.214 283.45 209.536C283.002 208.859 282.089 208.673 281.412 209.122L279.776 210.204C279.751 210.221 279.73 210.243 279.706 210.262C279.62 210.207 279.531 210.156 279.44 210.107L279.688 208.346C279.801 207.542 279.24 206.798 278.436 206.685C277.631 206.572 276.888 207.132 276.775 207.937L276.527 209.698C276.385 209.729 276.246 209.767 276.11 209.812C276.073 209.757 276.039 209.702 275.995 209.651L274.703 208.176C274.167 207.565 273.238 207.504 272.627 208.039C272.016 208.574 271.955 209.503 272.49 210.115L273.782 211.59C273.793 211.602 273.806 211.61 273.817 211.622C273.781 211.681 273.75 211.742 273.717 211.802L271.892 211.545C271.087 211.432 270.344 211.993 270.23 212.797C270.117 213.601 270.678 214.345 271.482 214.458L273.29 214.712C273.299 214.755 273.307 214.798 273.317 214.841C273.312 214.844 273.307 214.846 273.302 214.849L271.667 215.931C270.989 216.38 270.804 217.293 271.252 217.97C271.7 218.647 272.613 218.833 273.29 218.385L274.926 217.302C274.938 217.293 274.948 217.283 274.96 217.274C275.106 217.379 275.262 217.474 275.422 217.56L275.177 219.306C275.064 220.111 275.624 220.855 276.429 220.968C277.233 221.081 277.977 220.52 278.09 219.716L278.335 217.97C278.443 217.946 278.548 217.919 278.652 217.888L279.904 219.317C280.44 219.928 281.369 219.989 281.98 219.454C282.591 218.919 282.652 217.989 282.117 217.378L281.004 216.107C281.063 216.014 281.118 215.918 281.17 215.82L283.038 216.083C283.843 216.196 284.587 215.635 284.7 214.831C284.813 214.026 284.252 213.282 283.448 213.169Z" fill="#7EF0BC"/>
<path d="M283.448 213.169L281.562 212.904C281.539 212.802 281.513 212.702 281.482 212.603L283.035 211.575C283.713 211.126 283.898 210.214 283.45 209.536C283.002 208.859 282.089 208.673 281.412 209.122L279.776 210.204C279.751 210.221 279.73 210.243 279.706 210.262C279.62 210.207 279.531 210.156 279.44 210.107L279.688 208.346C279.801 207.542 279.24 206.798 278.436 206.685C277.631 206.572 276.888 207.132 276.775 207.937L276.527 209.698C276.385 209.729 276.246 209.767 276.11 209.812C276.073 209.757 276.039 209.702 275.995 209.651L274.703 208.176C274.167 207.565 273.238 207.504 272.627 208.039C272.016 208.574 271.955 209.503 272.49 210.115L273.782 211.59C273.793 211.602 273.806 211.61 273.817 211.622C273.781 211.681 273.75 211.742 273.717 211.802L271.892 211.545C271.087 211.432 270.344 211.993 270.23 212.797C270.117 213.601 270.678 214.345 271.482 214.458L273.29 214.712C273.299 214.755 273.307 214.798 273.317 214.841C273.312 214.844 273.307 214.846 273.302 214.849L271.667 215.931C270.989 216.38 270.804 217.293 271.252 217.97C271.7 218.647 272.613 218.833 273.29 218.385L274.926 217.302C274.938 217.293 274.948 217.283 274.96 217.274C275.106 217.379 275.262 217.474 275.422 217.56L275.177 219.306C275.064 220.111 275.624 220.855 276.429 220.968C277.233 221.081 277.977 220.52 278.09 219.716L278.335 217.97C278.443 217.946 278.548 217.919 278.652 217.888L279.904 219.317C280.44 219.928 281.369 219.989 281.98 219.454C282.591 218.919 282.652 217.989 282.117 217.378L281.004 216.107C281.063 216.014 281.118 215.918 281.17 215.82L283.038 216.083C283.843 216.196 284.587 215.635 284.7 214.831C284.813 214.026 284.252 213.282 283.448 213.169Z" fill="#7EF0BC"/>
<path d="M279.38 214.178C279.23 215.242 278.246 215.984 277.181 215.834C276.116 215.685 275.374 214.7 275.524 213.636C275.674 212.571 276.658 211.829 277.723 211.979C278.788 212.129 279.529 213.113 279.38 214.178Z" fill="white"/>
<path d="M253.265 232.108C255.493 233.687 257.96 235.672 260.462 238.147C262.125 239.792 263.561 241.413 264.794 242.943" fill="white"/>
<path d="M264.871 243.492C264.684 243.518 264.489 243.449 264.362 243.291C263.026 241.634 261.583 240.036 260.072 238.541C257.873 236.366 255.474 234.353 252.945 232.561C252.694 232.383 252.635 232.037 252.813 231.787C252.99 231.538 253.335 231.478 253.586 231.656C256.165 233.483 258.609 235.535 260.852 237.753C262.392 239.277 263.864 240.906 265.225 242.595C265.417 242.833 265.38 243.183 265.142 243.375C265.061 243.44 264.967 243.479 264.871 243.492Z" fill="#1C1C1C"/>
<path d="M257.246 228.068L255.7 229.179C255.613 229.122 255.525 229.067 255.434 229.016L255.847 227.2C256.027 226.408 255.53 225.62 254.738 225.44C253.946 225.26 253.158 225.756 252.978 226.548L252.544 228.461C252.537 228.491 252.538 228.521 252.533 228.551C252.432 228.571 252.333 228.596 252.234 228.623L251.196 227.179C250.722 226.519 249.803 226.369 249.143 226.843C248.483 227.317 248.333 228.236 248.807 228.896L249.845 230.34C249.764 230.46 249.689 230.584 249.622 230.711C249.558 230.696 249.495 230.68 249.428 230.674L247.474 230.5C246.665 230.428 245.951 231.026 245.879 231.835C245.807 232.645 246.405 233.359 247.214 233.431L249.168 233.604C249.184 233.605 249.199 233.602 249.216 233.604C249.23 233.67 249.249 233.736 249.267 233.802L247.77 234.878C247.111 235.352 246.96 236.271 247.434 236.931C247.908 237.591 248.828 237.741 249.487 237.267L250.969 236.202C251.006 236.227 251.041 236.252 251.078 236.276C251.077 236.281 251.074 236.286 251.072 236.292L250.638 238.205C250.458 238.997 250.955 239.785 251.747 239.965C252.539 240.145 253.327 239.648 253.507 238.856L253.941 236.943C253.944 236.929 253.944 236.914 253.947 236.9C254.125 236.875 254.303 236.836 254.479 236.787L255.508 238.219C255.982 238.879 256.901 239.029 257.56 238.555C258.22 238.081 258.37 237.162 257.896 236.502L256.867 235.07C256.929 234.979 256.986 234.887 257.04 234.792L258.933 234.96C259.742 235.032 260.456 234.434 260.528 233.625C260.6 232.816 260.002 232.102 259.193 232.03L257.51 231.881C257.488 231.772 257.461 231.665 257.431 231.558L258.963 230.457C259.623 229.983 259.773 229.063 259.299 228.404C258.825 227.744 257.906 227.594 257.246 228.068Z" fill="#7EF0BC"/>
<path d="M257.246 228.068L255.7 229.179C255.613 229.122 255.525 229.067 255.434 229.016L255.847 227.2C256.027 226.408 255.53 225.62 254.738 225.44C253.946 225.26 253.158 225.756 252.978 226.548L252.544 228.461C252.537 228.491 252.538 228.521 252.533 228.551C252.432 228.571 252.333 228.596 252.234 228.623L251.196 227.179C250.722 226.519 249.803 226.369 249.143 226.843C248.483 227.317 248.333 228.236 248.807 228.896L249.845 230.34C249.764 230.46 249.689 230.584 249.622 230.711C249.558 230.696 249.495 230.68 249.428 230.674L247.474 230.5C246.665 230.428 245.951 231.026 245.879 231.835C245.807 232.645 246.405 233.359 247.214 233.431L249.168 233.604C249.184 233.605 249.199 233.602 249.216 233.604C249.23 233.67 249.249 233.736 249.267 233.802L247.77 234.878C247.111 235.352 246.96 236.271 247.434 236.931C247.908 237.591 248.828 237.741 249.487 237.267L250.969 236.202C251.006 236.227 251.041 236.252 251.078 236.276C251.077 236.281 251.074 236.286 251.072 236.292L250.638 238.205C250.458 238.997 250.955 239.785 251.747 239.965C252.539 240.145 253.327 239.648 253.507 238.856L253.941 236.943C253.944 236.929 253.944 236.914 253.947 236.9C254.125 236.875 254.303 236.836 254.479 236.787L255.508 238.219C255.982 238.879 256.901 239.029 257.56 238.555C258.22 238.081 258.37 237.162 257.896 236.502L256.867 235.07C256.929 234.979 256.986 234.887 257.04 234.792L258.933 234.96C259.742 235.032 260.456 234.434 260.528 233.625C260.6 232.816 260.002 232.102 259.193 232.03L257.51 231.881C257.488 231.772 257.461 231.665 257.431 231.558L258.963 230.457C259.623 229.983 259.773 229.063 259.299 228.404C258.825 227.744 257.906 227.594 257.246 228.068Z" fill="#7EF0BC"/>
<path d="M257.246 228.068L255.7 229.179C255.613 229.122 255.525 229.067 255.434 229.016L255.847 227.2C256.027 226.408 255.53 225.62 254.738 225.44C253.946 225.26 253.158 225.756 252.978 226.548L252.544 228.461C252.537 228.491 252.538 228.521 252.533 228.551C252.432 228.571 252.333 228.596 252.234 228.623L251.196 227.179C250.722 226.519 249.803 226.369 249.143 226.843C248.483 227.317 248.333 228.236 248.807 228.896L249.845 230.34C249.764 230.46 249.689 230.584 249.622 230.711C249.558 230.696 249.495 230.68 249.428 230.674L247.474 230.5C246.665 230.428 245.951 231.026 245.879 231.835C245.807 232.645 246.405 233.359 247.214 233.431L249.168 233.604C249.184 233.605 249.199 233.602 249.216 233.604C249.23 233.67 249.249 233.736 249.267 233.802L247.77 234.878C247.111 235.352 246.96 236.271 247.434 236.931C247.908 237.591 248.828 237.741 249.487 237.267L250.969 236.202C251.006 236.227 251.041 236.252 251.078 236.276C251.077 236.281 251.074 236.286 251.072 236.292L250.638 238.205C250.458 238.997 250.955 239.785 251.747 239.965C252.539 240.145 253.327 239.648 253.507 238.856L253.941 236.943C253.944 236.929 253.944 236.914 253.947 236.9C254.125 236.875 254.303 236.836 254.479 236.787L255.508 238.219C255.982 238.879 256.901 239.029 257.56 238.555C258.22 238.081 258.37 237.162 257.896 236.502L256.867 235.07C256.929 234.979 256.986 234.887 257.04 234.792L258.933 234.96C259.742 235.032 260.456 234.434 260.528 233.625C260.6 232.816 260.002 232.102 259.193 232.03L257.51 231.881C257.488 231.772 257.461 231.665 257.431 231.558L258.963 230.457C259.623 229.983 259.773 229.063 259.299 228.404C258.825 227.744 257.906 227.594 257.246 228.068Z" fill="#7EF0BC"/>
<path d="M257.246 228.068L255.7 229.179C255.613 229.122 255.525 229.067 255.434 229.016L255.847 227.2C256.027 226.408 255.53 225.62 254.738 225.44C253.946 225.26 253.158 225.756 252.978 226.548L252.544 228.461C252.537 228.491 252.538 228.521 252.533 228.551C252.432 228.571 252.333 228.596 252.234 228.623L251.196 227.179C250.722 226.519 249.803 226.369 249.143 226.843C248.483 227.317 248.333 228.236 248.807 228.896L249.845 230.34C249.764 230.46 249.689 230.584 249.622 230.711C249.558 230.696 249.495 230.68 249.428 230.674L247.474 230.5C246.665 230.428 245.951 231.026 245.879 231.835C245.807 232.645 246.405 233.359 247.214 233.431L249.168 233.604C249.184 233.605 249.199 233.602 249.216 233.604C249.23 233.67 249.249 233.736 249.267 233.802L247.77 234.878C247.111 235.352 246.96 236.271 247.434 236.931C247.908 237.591 248.828 237.741 249.487 237.267L250.969 236.202C251.006 236.227 251.041 236.252 251.078 236.276C251.077 236.281 251.074 236.286 251.072 236.292L250.638 238.205C250.458 238.997 250.955 239.785 251.747 239.965C252.539 240.145 253.327 239.648 253.507 238.856L253.941 236.943C253.944 236.929 253.944 236.914 253.947 236.9C254.125 236.875 254.303 236.836 254.479 236.787L255.508 238.219C255.982 238.879 256.901 239.029 257.56 238.555C258.22 238.081 258.37 237.162 257.896 236.502L256.867 235.07C256.929 234.979 256.986 234.887 257.04 234.792L258.933 234.96C259.742 235.032 260.456 234.434 260.528 233.625C260.6 232.816 260.002 232.102 259.193 232.03L257.51 231.881C257.488 231.772 257.461 231.665 257.431 231.558L258.963 230.457C259.623 229.983 259.773 229.063 259.299 228.404C258.825 227.744 257.906 227.594 257.246 228.068Z" fill="#7EF0BC"/>
<path d="M257.246 228.068L255.7 229.179C255.613 229.122 255.525 229.067 255.434 229.016L255.847 227.2C256.027 226.408 255.53 225.62 254.738 225.44C253.946 225.26 253.158 225.756 252.978 226.548L252.544 228.461C252.537 228.491 252.538 228.521 252.533 228.551C252.432 228.571 252.333 228.596 252.234 228.623L251.196 227.179C250.722 226.519 249.803 226.369 249.143 226.843C248.483 227.317 248.333 228.236 248.807 228.896L249.845 230.34C249.764 230.46 249.689 230.584 249.622 230.711C249.558 230.696 249.495 230.68 249.428 230.674L247.474 230.5C246.665 230.428 245.951 231.026 245.879 231.835C245.807 232.645 246.405 233.359 247.214 233.431L249.168 233.604C249.184 233.605 249.199 233.602 249.216 233.604C249.23 233.67 249.249 233.736 249.267 233.802L247.77 234.878C247.111 235.352 246.96 236.271 247.434 236.931C247.908 237.591 248.828 237.741 249.487 237.267L250.969 236.202C251.006 236.227 251.041 236.252 251.078 236.276C251.077 236.281 251.074 236.286 251.072 236.292L250.638 238.205C250.458 238.997 250.955 239.785 251.747 239.965C252.539 240.145 253.327 239.648 253.507 238.856L253.941 236.943C253.944 236.929 253.944 236.914 253.947 236.9C254.125 236.875 254.303 236.836 254.479 236.787L255.508 238.219C255.982 238.879 256.901 239.029 257.56 238.555C258.22 238.081 258.37 237.162 257.896 236.502L256.867 235.07C256.929 234.979 256.986 234.887 257.04 234.792L258.933 234.96C259.742 235.032 260.456 234.434 260.528 233.625C260.6 232.816 260.002 232.102 259.193 232.03L257.51 231.881C257.488 231.772 257.461 231.665 257.431 231.558L258.963 230.457C259.623 229.983 259.773 229.063 259.299 228.404C258.825 227.744 257.906 227.594 257.246 228.068Z" fill="#7EF0BC"/>
<path d="M257.246 228.068L255.7 229.179C255.613 229.122 255.525 229.067 255.434 229.016L255.847 227.2C256.027 226.408 255.53 225.62 254.738 225.44C253.946 225.26 253.158 225.756 252.978 226.548L252.544 228.461C252.537 228.491 252.538 228.521 252.533 228.551C252.432 228.571 252.333 228.596 252.234 228.623L251.196 227.179C250.722 226.519 249.803 226.369 249.143 226.843C248.483 227.317 248.333 228.236 248.807 228.896L249.845 230.34C249.764 230.46 249.689 230.584 249.622 230.711C249.558 230.696 249.495 230.68 249.428 230.674L247.474 230.5C246.665 230.428 245.951 231.026 245.879 231.835C245.807 232.645 246.405 233.359 247.214 233.431L249.168 233.604C249.184 233.605 249.199 233.602 249.216 233.604C249.23 233.67 249.249 233.736 249.267 233.802L247.77 234.878C247.111 235.352 246.96 236.271 247.434 236.931C247.908 237.591 248.828 237.741 249.487 237.267L250.969 236.202C251.006 236.227 251.041 236.252 251.078 236.276C251.077 236.281 251.074 236.286 251.072 236.292L250.638 238.205C250.458 238.997 250.955 239.785 251.747 239.965C252.539 240.145 253.327 239.648 253.507 238.856L253.941 236.943C253.944 236.929 253.944 236.914 253.947 236.9C254.125 236.875 254.303 236.836 254.479 236.787L255.508 238.219C255.982 238.879 256.901 239.029 257.56 238.555C258.22 238.081 258.37 237.162 257.896 236.502L256.867 235.07C256.929 234.979 256.986 234.887 257.04 234.792L258.933 234.96C259.742 235.032 260.456 234.434 260.528 233.625C260.6 232.816 260.002 232.102 259.193 232.03L257.51 231.881C257.488 231.772 257.461 231.665 257.431 231.558L258.963 230.457C259.623 229.983 259.773 229.063 259.299 228.404C258.825 227.744 257.906 227.594 257.246 228.068Z" fill="#7EF0BC"/>
<path d="M257.246 228.068L255.7 229.179C255.613 229.122 255.525 229.067 255.434 229.016L255.847 227.2C256.027 226.408 255.53 225.62 254.738 225.44C253.946 225.26 253.158 225.756 252.978 226.548L252.544 228.461C252.537 228.491 252.538 228.521 252.533 228.551C252.432 228.571 252.333 228.596 252.234 228.623L251.196 227.179C250.722 226.519 249.803 226.369 249.143 226.843C248.483 227.317 248.333 228.236 248.807 228.896L249.845 230.34C249.764 230.46 249.689 230.584 249.622 230.711C249.558 230.696 249.495 230.68 249.428 230.674L247.474 230.5C246.665 230.428 245.951 231.026 245.879 231.835C245.807 232.645 246.405 233.359 247.214 233.431L249.168 233.604C249.184 233.605 249.199 233.602 249.216 233.604C249.23 233.67 249.249 233.736 249.267 233.802L247.77 234.878C247.111 235.352 246.96 236.271 247.434 236.931C247.908 237.591 248.828 237.741 249.487 237.267L250.969 236.202C251.006 236.227 251.041 236.252 251.078 236.276C251.077 236.281 251.074 236.286 251.072 236.292L250.638 238.205C250.458 238.997 250.955 239.785 251.747 239.965C252.539 240.145 253.327 239.648 253.507 238.856L253.941 236.943C253.944 236.929 253.944 236.914 253.947 236.9C254.125 236.875 254.303 236.836 254.479 236.787L255.508 238.219C255.982 238.879 256.901 239.029 257.56 238.555C258.22 238.081 258.37 237.162 257.896 236.502L256.867 235.07C256.929 234.979 256.986 234.887 257.04 234.792L258.933 234.96C259.742 235.032 260.456 234.434 260.528 233.625C260.6 232.816 260.002 232.102 259.193 232.03L257.51 231.881C257.488 231.772 257.461 231.665 257.431 231.558L258.963 230.457C259.623 229.983 259.773 229.063 259.299 228.404C258.825 227.744 257.906 227.594 257.246 228.068Z" fill="#7EF0BC"/>
<path d="M255.05 232.449C255.199 233.513 254.457 234.498 253.393 234.647C252.328 234.797 251.344 234.055 251.194 232.99C251.044 231.926 251.786 230.941 252.851 230.792C253.916 230.642 254.9 231.384 255.05 232.449Z" fill="white"/>
<path d="M255.923 283.201C256.601 282.423 259.696 279.044 264.849 278.579C271.443 277.985 275.747 282.675 276.214 283.201" fill="white"/>
<path d="M275.799 283.569C275.343 283.056 271.166 278.562 264.898 279.132C260.301 279.546 257.382 282.37 256.34 283.566L255.504 282.837C256.634 281.541 259.801 278.477 264.799 278.027C271.471 277.426 275.824 281.925 276.629 282.833L275.799 283.569Z" fill="#1C1C1C"/>
<path d="M299.199 146.752L299.196 146.75C299.19 146.747 299.18 146.742 299.167 146.734C299.139 146.719 299.095 146.696 299.037 146.667C298.921 146.61 298.749 146.531 298.537 146.451C298.106 146.29 297.536 146.137 296.934 146.132C296.341 146.127 295.731 146.265 295.174 146.671C294.615 147.079 294.043 147.805 293.613 149.094L293.456 149.565L292.964 149.604L292.964 149.604L292.964 149.604L292.963 149.604L292.962 149.604L292.962 149.604L292.958 149.605C292.951 149.606 292.939 149.607 292.921 149.609C292.887 149.613 292.833 149.62 292.763 149.631C292.623 149.654 292.419 149.694 292.177 149.761C291.69 149.896 291.076 150.134 290.522 150.541C289.975 150.944 289.488 151.509 289.222 152.322C288.955 153.139 288.891 154.269 289.304 155.831L289.304 155.833L289.305 155.835M299.199 146.752L289.305 155.835M299.199 146.752L299.199 146.752L299.2 146.753L299.2 146.753L299.2 146.753L300.431 147.481L300.329 146.053C300.209 144.379 301.18 143.276 302.33 142.539C302.902 142.173 303.489 141.919 303.938 141.756C304.161 141.676 304.347 141.619 304.474 141.583C304.537 141.565 304.586 141.552 304.618 141.544L304.652 141.535L304.658 141.534L304.658 141.534L304.658 141.534L304.658 141.534L304.659 141.534L305.383 141.37L305.225 140.643L303.11 130.932L303.107 130.92L303.104 130.907C303.003 130.511 302.857 129.917 302.692 129.193C302.164 126.859 301.789 125.167 301.665 123.857C301.542 122.556 301.681 121.761 302.062 121.155M299.199 146.752L295.419 165.297M289.305 155.835L289.309 155.85L289.329 155.92C289.347 155.983 289.374 156.075 289.41 156.194C289.482 156.432 289.59 156.774 289.73 157.187C290.012 158.013 290.422 159.111 290.941 160.214C291.462 161.323 292.077 162.402 292.758 163.21C293.454 164.035 294.12 164.463 294.73 164.513L295.454 164.571L295.419 165.297L295.419 165.297M289.305 155.835L295.419 165.297M295.419 165.297L295.419 165.297L295.419 165.297L295.418 165.302L295.417 165.327C295.417 165.35 295.416 165.386 295.415 165.434C295.412 165.531 295.411 165.676 295.413 165.864C295.416 166.241 295.434 166.791 295.491 167.473C295.604 168.836 295.873 170.717 296.493 172.78C297.733 176.905 300.361 181.712 305.921 184.634L306.247 184.805L306.311 185.167C307.561 192.226 314.274 195.599 318.599 194.018L318.857 194.722L318.599 194.018C321.999 192.775 324.626 188.223 323.801 183.032L323.777 182.884L323.812 182.738C324.183 181.203 324.489 179.845 324.747 178.705C324.859 178.208 324.962 177.753 325.057 177.342L325.788 177.51L325.057 177.342C326.689 170.267 327.128 165.621 327.1 162.556C327.073 159.526 326.589 158.027 326.329 157.22L326.325 157.207C325.989 156.166 325.37 154.54 324.196 152.655C323.481 151.696 322.825 151.116 321.931 150.325C321.864 150.266 321.796 150.206 321.727 150.144L321.726 150.143L321.687 150.108C319.821 148.453 318.211 146.548 316.896 144.458L316.896 144.458C315.84 142.78 315.164 141.035 314.244 138.662C314.132 138.371 314.016 138.072 313.895 137.762L313.895 137.762C313.333 136.321 312.937 135.195 312.715 134.557L312.715 134.557C312.231 133.168 311.783 131.819 311.356 130.533C310.621 128.323 309.949 126.301 309.269 124.588C308.735 123.24 308.215 122.134 307.683 121.317C307.143 120.485 306.653 120.052 306.223 119.895C305.997 119.813 305.743 119.759 305.534 119.727C305.432 119.711 305.346 119.701 305.287 119.695C305.257 119.692 305.235 119.69 305.221 119.689L305.206 119.687L305.205 119.687L305.205 119.687L305.205 119.687L305.205 119.687L305.204 119.687L305.204 119.687L305.192 119.686L305.192 119.686C304.246 119.61 303.319 119.887 302.641 120.482L302.641 120.482C302.361 120.728 302.182 120.965 302.062 121.155M302.062 121.155L301.428 120.755M302.062 121.155L301.428 120.755M301.428 120.755C300.408 122.376 300.912 124.725 301.961 129.359L306.48 119.19C305.901 118.98 305.252 118.939 305.252 118.939C304.128 118.848 302.993 119.174 302.146 119.919C301.804 120.219 301.579 120.514 301.428 120.755Z" fill="white" stroke="#1C1C1C" stroke-width="1.5"/>
<path d="M308.018 177.409C307.793 177.409 307.571 177.305 307.429 177.11C305.882 174.99 303.945 171.511 303.497 166.969C302.669 158.571 307.46 152.397 309.421 150.255L307.902 146.334C307.753 145.938 307.558 145.428 307.342 144.927C306.135 142.125 305.594 139.768 305.733 137.922C305.819 136.782 306.345 135.756 307.216 135.034C308.073 134.322 309.158 133.998 310.269 134.121C313.574 134.487 315.003 138.51 315.086 138.67C315.271 139.028 315.129 139.468 314.771 139.652C314.413 139.836 313.975 139.695 313.79 139.338C313.773 139.305 312.632 135.85 310.109 135.571C309.392 135.492 308.697 135.699 308.147 136.156C307.584 136.623 307.242 137.29 307.187 138.031C307.066 139.641 307.568 141.766 308.681 144.35C308.909 144.879 309.113 145.411 309.264 145.814L311.115 150.59L310.792 150.925C309.214 152.562 304.132 158.546 304.948 166.826C305.364 171.041 307.167 174.277 308.607 176.25C308.844 176.575 308.772 177.032 308.447 177.268C308.317 177.363 308.167 177.409 308.018 177.409Z" fill="#1C1C1C"/>
<path d="M297.485 164.188C297.174 164.188 296.887 163.988 296.789 163.677L292.431 149.774C292.31 149.39 292.524 148.981 292.908 148.861C293.291 148.74 293.701 148.954 293.822 149.338L298.18 163.24C298.301 163.625 298.087 164.034 297.703 164.154C297.63 164.177 297.557 164.188 297.485 164.188Z" fill="#1C1C1C"/>
<path d="M304.779 160.491C304.48 160.491 304.199 160.306 304.092 160.007L299.335 147.282C299.2 146.903 299.398 146.486 299.777 146.35C300.155 146.216 300.573 146.412 300.709 146.792L305.466 159.517C305.601 159.896 305.404 160.313 305.024 160.449C304.944 160.478 304.861 160.491 304.779 160.491Z" fill="#1C1C1C"/>
<path d="M301.496 166.496C300.755 166.496 300.068 166.345 299.436 166.043C298.515 165.603 297.885 164.917 297.472 164.295C297.213 164.614 296.907 164.861 296.556 165.035C295.523 165.547 294.526 165.203 294.415 165.162C294.038 165.022 293.846 164.603 293.986 164.225C294.125 163.85 294.541 163.656 294.916 163.793C294.94 163.8 295.451 163.964 295.921 163.723C296.302 163.528 296.594 163.104 296.787 162.465L297.112 160.034L298.186 162.477C298.19 162.49 298.67 164.069 300.076 164.733C301.078 165.207 302.347 165.124 303.846 164.488C304.217 164.33 304.645 164.503 304.802 164.874C304.96 165.244 304.787 165.672 304.416 165.829C303.371 166.273 302.395 166.496 301.496 166.496Z" fill="#1C1C1C"/>
<path d="M334.043 277.685C320.947 280.202 308.291 271.625 305.775 258.529L293.428 194.273C292.03 186.996 296.795 179.964 304.071 178.566L325.144 174.517C332.421 173.119 339.454 177.884 340.852 185.16L353.199 249.416C355.715 262.512 347.139 275.169 334.043 277.685Z" fill="#3DE297" stroke="#1C1C1C" stroke-width="1.5"/>
<path d="M474.852 241.386C483.364 261.826 462.479 280.337 445.247 280.337H366.29C361.224 280.337 357.116 276.229 357.116 271.163V256.025C357.116 244.777 366.234 235.658 377.483 235.658H440.094" stroke="#1C1C1C" stroke-width="1.5" stroke-linecap="round"/>
</g>
</g>
</g>
<defs>
<clipPath id="clip0_11122_49828">
<rect width="570" height="302" rx="20" fill="white"/>
</clipPath>
<clipPath id="clip1_11122_49828">
<rect width="437.442" height="437.442" fill="white" transform="translate(149 -58)"/>
</clipPath>
</defs>
</svg>
