<svg width="60" height="61" viewBox="0 0 60 61" fill="none" xmlns="http://www.w3.org/2000/svg">
<rect x="0.375" y="0.911133" width="59.25" height="59.25" rx="14.625" fill="#E8FFF4"/>
<rect x="0.375" y="0.911133" width="59.25" height="59.25" rx="14.625" stroke="#188B5B" stroke-width="0.75"/>
<path d="M36.9374 35.4063L35.6999 35.6988C35.4224 35.7663 35.2049 35.9763 35.1449 36.2538L34.8824 37.3563C34.7399 37.9563 33.9749 38.1438 33.5774 37.6713L31.3349 35.0913C31.1549 34.8813 31.2524 34.5513 31.5224 34.4838C32.8499 34.1613 34.0424 33.4188 34.9199 32.3613C35.0624 32.1888 35.3174 32.1663 35.4749 32.3238L37.1399 33.9888C37.7099 34.5588 37.5074 35.2713 36.9374 35.4063Z" fill="#3DE297"/>
<path d="M23.0249 35.4063L24.2624 35.6988C24.5399 35.7663 24.7574 35.9763 24.8174 36.2538L25.0799 37.3563C25.2224 37.9563 25.9874 38.1438 26.3849 37.6713L28.6274 35.0913C28.8074 34.8813 28.7099 34.5513 28.4399 34.4838C27.1124 34.1613 25.9199 33.4188 25.0424 32.3613C24.8999 32.1888 24.6449 32.1663 24.4874 32.3238L22.8224 33.9888C22.2524 34.5588 22.4549 35.2713 23.0249 35.4063Z" fill="#3DE297"/>
<path d="M30 23.0537C27.0975 23.0537 24.75 25.4012 24.75 28.3037C24.75 29.3912 25.0725 30.3887 25.6275 31.2212C26.4375 32.4212 27.72 33.2687 29.2125 33.4862C29.4675 33.5312 29.73 33.5537 30 33.5537C30.27 33.5537 30.5325 33.5312 30.7875 33.4862C32.28 33.2687 33.5625 32.4212 34.3725 31.2212C34.9275 30.3887 35.25 29.3912 35.25 28.3037C35.25 25.4012 32.9025 23.0537 30 23.0537ZM32.295 28.1387L31.6725 28.7612C31.5675 28.8662 31.5075 29.0687 31.545 29.2187L31.725 29.9912C31.8675 30.5987 31.545 30.8387 31.005 30.5162L30.255 30.0737C30.12 29.9912 29.895 29.9912 29.76 30.0737L29.01 30.5162C28.47 30.8312 28.1475 30.5987 28.29 29.9912L28.47 29.2187C28.5 29.0762 28.4475 28.8662 28.3425 28.7612L27.705 28.1387C27.3375 27.7712 27.4575 27.4037 27.9675 27.3212L28.77 27.1862C28.905 27.1637 29.0625 27.0437 29.1225 26.9237L29.565 26.0387C29.805 25.5587 30.195 25.5587 30.435 26.0387L30.8775 26.9237C30.9375 27.0437 31.095 27.1637 31.2375 27.1862L32.04 27.3212C32.5425 27.4037 32.6625 27.7712 32.295 28.1387Z" fill="#3DE297"/>
</svg>
