<svg width="60" height="61" viewBox="0 0 60 61" fill="none" xmlns="http://www.w3.org/2000/svg">
<rect x="0.375" y="0.911133" width="59.25" height="59.25" rx="14.625" fill="#EBF4FA"/>
<rect x="0.375" y="0.911133" width="59.25" height="59.25" rx="14.625" stroke="#0D76E9" stroke-width="0.75"/>
<path d="M35.8425 24.7189C33.6225 22.5064 30.0225 22.5064 27.8175 24.7189C26.265 26.2564 25.8 28.4689 26.4 30.4189L22.875 33.9439C22.6275 34.1989 22.455 34.7014 22.5075 35.0614L22.7325 36.6964C22.815 37.2364 23.3175 37.7464 23.8575 37.8214L25.4925 38.0464C25.8525 38.0989 26.355 37.9339 26.61 37.6714L27.225 37.0564C27.375 36.9139 27.375 36.6739 27.225 36.5239L25.77 35.0689C25.5525 34.8514 25.5525 34.4914 25.77 34.2739C25.9875 34.0564 26.3475 34.0564 26.565 34.2739L28.0275 35.7364C28.17 35.8789 28.41 35.8789 28.5525 35.7364L30.1425 34.1539C32.085 34.7614 34.2975 34.2889 35.8425 32.7514C38.055 30.5389 38.055 26.9314 35.8425 24.7189ZM31.875 30.5539C30.84 30.5539 30 29.7139 30 28.6789C30 27.6439 30.84 26.8039 31.875 26.8039C32.91 26.8039 33.75 27.6439 33.75 28.6789C33.75 29.7139 32.91 30.5539 31.875 30.5539Z" fill="#0D76E9"/>
</svg>
