<svg width="60" height="61" viewBox="0 0 60 61" fill="none" xmlns="http://www.w3.org/2000/svg">
<rect x="0.375" y="0.911133" width="59.25" height="59.25" rx="14.625" fill="#EBF4FA"/>
<rect x="0.375" y="0.911133" width="59.25" height="59.25" rx="14.625" stroke="#0D76E9" stroke-width="0.75"/>
<path d="M33.9675 24.6587L33.915 27.5012C33.9075 27.8912 34.155 28.4087 34.47 28.6412L36.33 30.0512C37.5225 30.9512 37.3275 32.0537 35.9025 32.5037L33.48 33.2612C33.075 33.3887 32.6475 33.8312 32.5425 34.2437L31.965 36.4487C31.5075 38.1887 30.3675 38.3612 29.4225 36.8312L28.1025 34.6937C27.8625 34.3037 27.2925 34.0112 26.8425 34.0337L24.3375 34.1612C22.545 34.2512 22.035 33.2162 23.205 31.8512L24.69 30.1262C24.9675 29.8037 25.095 29.2037 24.9675 28.7987L24.2025 26.3687C23.76 24.9437 24.555 24.1562 25.9725 24.6212L28.185 25.3487C28.56 25.4687 29.1225 25.3862 29.4375 25.1537L31.7475 23.4887C33 22.5962 33.9975 23.1212 33.9675 24.6587Z" fill="#0D76E9"/>
<path d="M37.08 36.9063L34.8075 34.6338C34.59 34.4163 34.23 34.4163 34.0125 34.6338C33.795 34.8513 33.795 35.2113 34.0125 35.4288L36.285 37.7013C36.3975 37.8138 36.54 37.8663 36.6825 37.8663C36.825 37.8663 36.9675 37.8138 37.08 37.7013C37.2975 37.4838 37.2975 37.1238 37.08 36.9063Z" fill="#0D76E9"/>
</svg>
