<svg width="60" height="61" viewBox="0 0 60 61" fill="none" xmlns="http://www.w3.org/2000/svg">
<rect x="0.375" y="0.911133" width="59.25" height="59.25" rx="14.625" fill="#E8FFF4"/>
<rect x="0.375" y="0.911133" width="59.25" height="59.25" rx="14.625" stroke="#188B5B" stroke-width="0.75"/>
<path d="M36.405 35.8346C36.2925 35.9471 36.15 35.9996 36.0075 35.9996C35.865 35.9996 35.7225 35.9471 35.61 35.8346L31.8975 32.1221L32.295 31.7246L32.6925 31.3271L36.405 35.0396C36.6225 35.2571 36.6225 35.6171 36.405 35.8346Z" fill="#3DE297"/>
<path d="M25.8525 28.5152L30.2025 32.8652C30.495 33.1577 30.495 33.6302 30.2025 33.9227L29.5275 34.6052C28.92 35.2052 27.96 35.2052 27.36 34.6052L24.105 31.3502C23.5125 30.7577 23.5125 29.7902 24.105 29.1902L24.7875 28.5077C25.08 28.2227 25.56 28.2227 25.8525 28.5152Z" fill="#3DE297"/>
<path d="M34.9426 29.197L32.0851 32.047C31.7851 32.347 31.3051 32.347 31.0051 32.047L26.6701 27.712C26.3701 27.412 26.3701 26.932 26.6701 26.632L29.5276 23.7745C30.1201 23.182 31.0876 23.182 31.6876 23.7745L34.9426 27.0295C35.5351 27.6295 35.5351 28.5895 34.9426 29.197Z" fill="#3DE297"/>
<path d="M27 37.8672H22.5C22.1925 37.8672 21.9375 37.6122 21.9375 37.3047C21.9375 36.9972 22.1925 36.7422 22.5 36.7422H27C27.3075 36.7422 27.5625 36.9972 27.5625 37.3047C27.5625 37.6122 27.3075 37.8672 27 37.8672Z" fill="#3DE297"/>
</svg>
