<svg width="60" height="61" viewBox="0 0 60 61" fill="none" xmlns="http://www.w3.org/2000/svg">
<rect x="0.375" y="0.911133" width="59.25" height="59.25" rx="14.625" fill="#E8FFF4"/>
<rect x="0.375" y="0.911133" width="59.25" height="59.25" rx="14.625" stroke="#188B5B" stroke-width="0.75"/>
<path d="M36.9375 28.417C35.205 25.6945 32.67 24.127 30 24.127C28.665 24.127 27.3675 24.517 26.1825 25.2445C24.9975 25.9795 23.9325 27.052 23.0625 28.417C22.3125 29.5945 22.3125 31.507 23.0625 32.6845C24.795 35.4145 27.33 36.9745 30 36.9745C31.335 36.9745 32.6325 36.5845 33.8175 35.857C35.0025 35.122 36.0675 34.0495 36.9375 32.6845C37.6875 31.5145 37.6875 29.5945 36.9375 28.417ZM30 33.5845C28.32 33.5845 26.97 32.227 26.97 30.5545C26.97 28.882 28.32 27.5245 30 27.5245C31.68 27.5245 33.03 28.882 33.03 30.5545C33.03 32.227 31.68 33.5845 30 33.5845Z" fill="#3DE297"/>
<path d="M29.9998 28.4092C28.8223 28.4092 27.8623 29.3692 27.8623 30.5542C27.8623 31.7317 28.8223 32.6917 29.9998 32.6917C31.1773 32.6917 32.1448 31.7317 32.1448 30.5542C32.1448 29.3767 31.1773 28.4092 29.9998 28.4092Z" fill="#3DE297"/>
</svg>
