<svg width="60" height="60" viewBox="0 0 60 60" fill="none" xmlns="http://www.w3.org/2000/svg">
<rect width="60" height="60" rx="30" fill="#1C1C1C"/>
<path fill-rule="evenodd" clip-rule="evenodd" d="M31.8757 12C31.8757 10.9645 31.0362 10.125 30.0007 10.125C28.9652 10.125 28.1257 10.9645 28.1257 12V16.1651C26.3154 16.2828 24.4381 16.6788 22.9066 17.6327C21.291 18.639 20.1448 20.2221 19.8847 22.4116C19.678 24.1515 19.8696 25.6878 20.4834 27.0128C21.0995 28.3427 22.0713 29.3091 23.1743 30.0192C25.2656 31.3657 28.0616 31.9145 30.3494 32.3636H30.3495L30.3703 32.3677L30.5747 32.4078C31.7095 32.6303 32.7492 32.8342 33.6964 33.0901C34.7038 33.3624 35.479 33.662 36.0403 34.0156C36.5743 34.3519 36.8535 34.6966 36.9966 35.0771C37.1463 35.4754 37.2298 36.1358 36.959 37.2417C36.7549 38.0755 36.1855 38.7334 35.1125 39.2413C33.9982 39.7688 32.4684 40.0595 30.717 40.115C27.1687 40.2272 23.4401 39.3629 21.8748 38.538C20.9587 38.0552 19.8247 38.4065 19.3419 39.3226C18.8591 40.2387 19.2104 41.3727 20.1265 41.8555C21.9055 42.7931 24.9689 43.5625 28.1257 43.7993V48C28.1257 49.0355 28.9652 49.875 30.0007 49.875C31.0362 49.875 31.8757 49.0355 31.8757 48V43.8055C33.5666 43.6699 35.2595 43.3207 36.7169 42.6308C38.5152 41.7796 40.0596 40.3466 40.6014 38.1335C40.9932 36.5335 40.9974 35.063 40.5068 33.7576C40.0094 32.4344 39.087 31.5028 38.0388 30.8425C37.0179 30.1995 35.8303 29.7823 34.6748 29.47C33.5946 29.1781 32.431 28.9501 31.3325 28.7349L31.3324 28.7349L31.0926 28.6879C28.6194 28.2024 26.5831 27.7539 25.2043 26.8662C24.5691 26.4572 24.1443 25.9941 23.886 25.4365C23.6254 24.874 23.4647 24.0649 23.6085 22.8539C23.7255 21.8693 24.1745 21.2609 24.8892 20.8158C25.6858 20.3196 26.8707 20.0039 28.3753 19.9068C31.3793 19.7128 34.9492 20.4309 37.1878 21.1838C38.1693 21.514 39.2326 20.9859 39.5627 20.0044C39.8928 19.0229 39.3648 17.9596 38.3833 17.6295C36.6942 17.0614 34.3335 16.4992 31.8757 16.2535V12Z" fill="white"/>
</svg>
