<svg viewBox="0 0 21 20" fill="none" xmlns="http://www.w3.org/2000/svg">
<g clip-path="url(#clip0_11874_18838)">
<path d="M10.6261 11C10.5473 10.9921 10.4527 10.9921 10.366 11C8.48986 10.9369 7 9.39797 7 7.50395C7 5.57046 8.56081 4 10.5 4C12.4313 4 14 5.57046 14 7.50395C13.9921 9.39797 12.5023 10.9369 10.6261 11Z" stroke-linecap="round" stroke-linejoin="round"/>
<path d="M5.3629 14.1142C2.87903 15.4294 2.87903 17.5726 5.3629 18.8797C8.18548 20.3734 12.8145 20.3734 15.6371 18.8797C18.121 17.5645 18.121 15.4213 15.6371 14.1142C12.8248 12.6286 8.19575 12.6286 5.3629 14.1142Z" stroke-linecap="round" stroke-linejoin="round"/>
</g>
<rect x="1" y="0.5" width="19" height="19" rx="9.5"/>
<defs>
<clipPath id="clip0_11874_18838">
<rect x="0.5" width="20" height="20" rx="10" />
</clipPath>
</defs>
</svg>
