<svg width="17" height="18" viewBox="0 0 17 18" fill="none" xmlns="http://www.w3.org/2000/svg">
<path d="M7.13712 1.93058C7.8789 1.15196 9.1211 1.15196 9.86288 1.93058L10.0943 2.17352C10.5002 2.59954 11.0819 2.81127 11.6666 2.7458L12.0001 2.70846C13.0688 2.58881 14.0204 3.38729 14.0882 4.46055L14.1093 4.79543C14.1464 5.38266 14.4559 5.91877 14.9459 6.24449L15.2254 6.43023C16.121 7.02553 16.3367 8.24887 15.6987 9.11458L15.4996 9.3847C15.1506 9.85837 15.0431 10.468 15.2091 11.0325L15.3037 11.3544C15.6072 12.3861 14.9861 13.4619 13.9409 13.715L13.6147 13.794C13.0429 13.9324 12.5686 14.3304 12.333 14.8695L12.1986 15.177C11.7678 16.1623 10.6005 16.5872 9.6372 16.1092L9.33661 15.9601C8.80953 15.6986 8.19047 15.6986 7.66339 15.9601L7.3628 16.1092C6.39946 16.5872 5.23216 16.1623 4.80143 15.177L4.66703 14.8695C4.43135 14.3304 3.95713 13.9324 3.38526 13.794L3.05914 13.715C2.01395 13.4619 1.39284 12.3861 1.69626 11.3544L1.79093 11.0325C1.95694 10.468 1.84945 9.85837 1.50038 9.3847L1.30131 9.11458C0.663331 8.24887 0.879039 7.02553 1.77464 6.43023L2.05408 6.24449C2.5441 5.91877 2.85363 5.38266 2.8907 4.79543L2.91184 4.46055C2.97958 3.38729 3.93117 2.58881 4.99989 2.70846L5.33335 2.7458C5.91809 2.81127 6.49981 2.59954 6.90567 2.17352L7.13712 1.93058Z"/>
<path d="M6.06836 9.44427L7.39298 10.7689L10.9308 7.23108" stroke="white" stroke-width="1.41176" stroke-linecap="round" stroke-linejoin="round"/>
</svg>
