<svg viewBox="0 0 20 20" fill="none" xmlns="http://www.w3.org/2000/svg">
<path d="M8.2964 1.78822C9.22362 0.814944 10.7764 0.814945 11.7036 1.78822L11.8283 1.91913C12.3356 2.45165 13.0628 2.71631 13.7937 2.63448L13.9734 2.61436C15.3093 2.46479 16.4988 3.46289 16.5835 4.80446L16.5949 4.98491C16.6412 5.71895 17.0281 6.38909 17.6406 6.79623L17.7912 6.89632C18.9107 7.64045 19.1803 9.16962 18.3829 10.2518L18.2756 10.3973C17.8393 10.9894 17.7049 11.7515 17.9124 12.4571L17.9634 12.6305C18.3427 13.9202 17.5663 15.2649 16.2598 15.5813L16.0841 15.6238C15.3692 15.7969 14.7765 16.2943 14.4819 16.9682L14.4095 17.1339C13.871 18.3656 12.4119 18.8967 11.2077 18.2992L11.0458 18.2189C10.3869 17.892 9.61309 17.892 8.95423 18.2189L8.79226 18.2992C7.58808 18.8967 6.12897 18.3656 5.59055 17.1339L5.51813 16.9682C5.22353 16.2943 4.63076 15.7969 3.91592 15.6238L3.74019 15.5813C2.4337 15.2649 1.65732 13.9202 2.03659 12.6305L2.0876 12.4571C2.29512 11.7515 2.16075 10.9894 1.72441 10.3973L1.61715 10.2518C0.819668 9.16962 1.0893 7.64045 2.2088 6.89632L2.35938 6.79623C2.97191 6.38909 3.35881 5.71895 3.40515 4.98491L3.41654 4.80446C3.50122 3.46289 4.6907 2.46479 6.0266 2.61436L6.20629 2.63448C6.93722 2.71631 7.66436 2.45165 8.17169 1.91913L8.2964 1.78822Z"/>
<path d="M7.6135 10.6301L10.7948 10.6301L10.7964 5.46825" stroke="white" stroke-width="2.54734" stroke-linecap="round" stroke-linejoin="round"/>
</svg>
