<svg  viewBox="0 0 24 24" fill="none" xmlns="http://www.w3.org/2000/svg">
<path d="M4.95099 20.7087V6.70875V5.70875C4.95099 3.49875 5.95099 1.70875 8.95099 1.70875H9.95099H14.049H15.049C18.049 1.70875 19.049 3.49875 19.049 5.70875V6.70875L18.951 20.7087C18.951 21.5287 18.011 21.9988 17.351 21.5088L15.641 20.2287C15.251 19.9287 14.691 19.9687 14.341 20.3187L12.661 21.9987C12.271 22.3887 11.631 22.3887 11.241 21.9987L9.58099 20.3288C9.22099 19.9688 8.66099 19.9287 8.26099 20.2287L6.55099 21.5088C5.89099 22.0088 4.95099 21.5387 4.95099 20.7087Z" fill="#0D76E9" stroke="#0D76E9" stroke-width="1.5" stroke-miterlimit="10" stroke-linecap="round" stroke-linejoin="round"/>
<circle cx="8.95557" cy="8.70875" r="1" fill="white"/>
<circle cx="8.95557" cy="12.7087" r="1" fill="white"/>
<rect x="10.7957" y="7.88008" width="5.3106" height="1.65733" rx="0.828667" fill="white"/>
<rect x="10.7957" y="11.8801" width="5.3106" height="1.65733" rx="0.828667" fill="white"/>
</svg>
