<svg viewBox="0 0 27 28" fill="none" xmlns="http://www.w3.org/2000/svg">
<path d="M13.5001 26.5C20.4037 26.5 26.0001 20.9036 26.0001 14C26.0001 7.09644 20.4037 1.5 13.5001 1.5C6.59656 1.5 1.00012 7.09644 1.00012 14C1.00012 20.9036 6.59656 26.5 13.5001 26.5Z" fill="#0D76E9" stroke="white" stroke-width="1.875" stroke-linecap="round" stroke-linejoin="round"/>
<path d="M8.49963 2.75H9.74963C7.31213 10.05 7.31213 17.95 9.74963 25.25H8.49963" stroke="white" stroke-width="1.875" stroke-linecap="round" stroke-linejoin="round"/>
<path d="M17.2502 2.75C19.6877 10.05 19.6877 17.95 17.2502 25.25" stroke="white" stroke-width="1.875" stroke-linecap="round" stroke-linejoin="round"/>
<path d="M2.25012 19V17.75C9.55012 20.1875 17.4501 20.1875 24.7501 17.75V19" stroke="white" stroke-width="1.875" stroke-linecap="round" stroke-linejoin="round"/>
<path d="M2.25012 10.2501C9.55012 7.81263 17.4501 7.81263 24.7501 10.2501" stroke="white" stroke-width="1.875" stroke-linecap="round" stroke-linejoin="round"/>
</svg>
