<svg  viewBox="0 0 25 24" fill="none" xmlns="http://www.w3.org/2000/svg">
<path d="M19.25 5.25H5.75C4.75544 5.25 3.80161 5.64509 3.09835 6.34835C2.39509 7.05161 2 8.00544 2 9V15C2 15.9946 2.39509 16.9484 3.09835 17.6517C3.80161 18.3549 4.75544 18.75 5.75 18.75H19.25C20.2446 18.75 21.1984 18.3549 21.9017 17.6517C22.6049 16.9484 23 15.9946 23 15V9C23 8.00544 22.6049 7.05161 21.9017 6.34835C21.1984 5.64509 20.2446 5.25 19.25 5.25V5.25ZM12.5 15C11.9067 15 11.3266 14.8241 10.8333 14.4944C10.3399 14.1648 9.95542 13.6962 9.72836 13.148C9.5013 12.5999 9.44189 11.9967 9.55764 11.4147C9.6734 10.8328 9.95912 10.2982 10.3787 9.87868C10.7982 9.45912 11.3328 9.1734 11.9147 9.05764C12.4967 8.94189 13.0999 9.0013 13.648 9.22836C14.1962 9.45542 14.6648 9.83994 14.9944 10.3333C15.3241 10.8266 15.5 11.4067 15.5 12C15.5 12.7956 15.1839 13.5587 14.6213 14.1213C14.0587 14.6839 13.2956 15 12.5 15Z" fill="#0D76E9"/>
<path d="M12.5 13.5C13.3284 13.5 14 12.8284 14 12C14 11.1716 13.3284 10.5 12.5 10.5C11.6716 10.5 11 11.1716 11 12C11 12.8284 11.6716 13.5 12.5 13.5Z" fill="#3DE297"/>
</svg>
