<svg viewBox="0 0 19 19" fill="none" xmlns="http://www.w3.org/2000/svg">
<path d="M12.8795 9.0332C12.8795 10.6901 11.5364 12.0332 9.87952 12.0332C8.22266 12.0332 6.87952 10.6901 6.87952 9.0332C6.87952 7.37635 8.22266 6.0332 9.87952 6.0332C11.5364 6.0332 12.8795 7.37635 12.8795 9.0332ZM12.8795 9.0332V10.1582C12.8795 11.1937 13.719 12.0332 14.7545 12.0332V12.0332C15.7901 12.0332 16.6295 11.1937 16.6295 10.1582V9.0332C16.6295 5.30528 13.6074 2.2832 9.87952 2.2832C6.15159 2.2832 3.12952 5.30528 3.12952 9.0332C3.12952 12.7611 6.15159 15.7832 9.87952 15.7832H12.8795"  stroke-width="1.125" stroke-linecap="round" stroke-linejoin="round"/>
</svg>
