<svg width="316" height="314" fill="none" xmlns="http://www.w3.org/2000/svg"><rect y=".648" width="316" height="313" rx="10" fill="#fff"/><rect x="23.5" y="24.5" width="86" height="58" rx="9.5" fill="#fff"/><rect x="23.5" y="24.5" width="86" height="58" rx="9.5" stroke="#EFF0F6"/><rect x="33.042" y="33.5" width="24" height="24" rx="3.2" fill="#F1F5FF"/><path d="M40.843 46.264V41.7a.4.4 0 0 1 .4-.4h7.6a.4.4 0 0 1 .4.4v7.6a.4.4 0 0 1-.4.4h-3.419" stroke="#0D76E9" stroke-width=".8" stroke-linecap="round" stroke-linejoin="round"/><path d="m45.042 46.7-3.2 3.2-1.6-1.6" stroke="#0D76E9" stroke-width=".8" stroke-linecap="round" stroke-linejoin="round"/><path d="M70.238 52.182c-.693 0-1.313-.09-1.86-.273a4.285 4.285 0 0 1-1.367-.784 3.272 3.272 0 0 1-.856-1.148 3.588 3.588 0 0 1-.292-1.44h1.713c0 .62.213 1.13.639 1.53.425.39 1.1.584 2.023.584.924 0 1.598-.2 2.024-.602.425-.413.638-.947.638-1.604 0-.68-.22-1.227-.657-1.64-.425-.426-1.093-.639-2.005-.639h-1.367v-1.458h1.367c.875 0 1.507-.182 1.896-.547.389-.377.583-.893.583-1.55 0-.631-.188-1.124-.565-1.476-.377-.365-1.015-.547-1.914-.547-.863 0-1.495.188-1.896.565-.389.365-.583.82-.583 1.367h-1.714c0-.474.091-.923.274-1.349.194-.425.468-.79.82-1.093a4.07 4.07 0 0 1 1.313-.748c.522-.182 1.118-.273 1.786-.273.668 0 1.264.09 1.787.273.522.183.96.426 1.312.73.365.303.638.662.82 1.075.183.413.274.845.274 1.294 0 .73-.194 1.35-.583 1.86-.377.498-.912.85-1.605 1.057.73.231 1.307.608 1.732 1.13.426.523.638 1.24.638 2.151 0 .487-.097.948-.291 1.386-.195.425-.48.802-.857 1.13-.365.316-.82.572-1.367.766-.547.182-1.167.273-1.86.273Zm6.471-1.677h3.044v-9.388l-3.044 2.17v-1.86l3.08-2.188h1.715v11.266H84V52h-7.292v-1.495Z" fill="#1C1C1C"/><path d="M36.464 70.262H34.36l-.477 1.238h-.697l1.906-4.98h.669l1.906 4.98h-.725l-.477-1.238Zm-1.885-.583h1.665l-.833-2.305-.832 2.305Zm5.187 1.892c-.242 0-.467-.038-.676-.114-.209-.08-.389-.199-.54-.355a1.77 1.77 0 0 1-.363-.605 2.542 2.542 0 0 1-.128-.846v-.143c0-.303.047-.571.142-.803.095-.233.22-.425.377-.577.156-.156.337-.272.54-.348.21-.08.425-.121.648-.121.223 0 .422.03.597.092a1.406 1.406 0 0 1 .783.64c.085.147.147.306.185.477h-.64a1.393 1.393 0 0 0-.136-.249.821.821 0 0 0-.441-.341c-.1-.033-.215-.05-.348-.05-.138 0-.27.026-.398.078a.901.901 0 0 0-.342.228c-.1.1-.18.23-.242.391a1.76 1.76 0 0 0-.085.583v.143c0 .241.028.45.085.626.062.17.142.31.242.42a.98.98 0 0 0 .341.234c.129.047.261.071.399.071a.965.965 0 0 0 .583-.17.909.909 0 0 0 .342-.47h.64c-.09.375-.275.67-.555.89-.28.213-.617.32-1.01.32Zm3.805-.035c-.403 0-.695-.09-.875-.27-.175-.186-.263-.463-.263-.833v-2.148h-.57v-.555h.57v-.854h.626v.854h1.01v.555h-1.01v2.077c0 .213.045.367.135.462.09.095.263.143.52.143.142 0 .284-.008.426-.022v.555c-.09.01-.18.017-.27.021-.09.01-.19.015-.299.015Zm1.532-3.806h.626v3.77h-.626v-3.77Zm.313-.498a.414.414 0 0 1-.427-.427.415.415 0 0 1 .427-.427.415.415 0 0 1 .427.427.414.414 0 0 1-.427.427Zm1.093.498h.697l1.223 3.13 1.11-3.13h.669l-1.423 3.77h-.711l-1.565-3.77Zm5.833 3.841c-.242 0-.472-.038-.69-.114a1.594 1.594 0 0 1-.576-.348 1.766 1.766 0 0 1-.398-.605c-.1-.242-.15-.526-.15-.853v-.143c0-.313.047-.583.142-.81.095-.233.22-.425.377-.577.162-.156.347-.272.555-.348a1.98 1.98 0 0 1 .669-.114c.555 0 .984.151 1.287.455.304.304.456.733.456 1.288v.398h-2.86c0 .223.036.41.107.562a1.054 1.054 0 0 0 .654.576c.142.043.285.064.427.064.285 0 .503-.047.654-.142a.791.791 0 0 0 .335-.391h.611c-.037.18-.106.339-.206.476a1.313 1.313 0 0 1-.355.349c-.138.09-.297.159-.477.206a2.148 2.148 0 0 1-.562.071Zm-.036-3.343c-.147 0-.289.021-.426.064a.986.986 0 0 0-.626.52c-.067.132-.1.29-.1.476h2.27a1.237 1.237 0 0 0-.1-.491.808.808 0 0 0-.235-.327.91.91 0 0 0-.356-.185 1.546 1.546 0 0 0-.427-.057Zm5.678-1.124h-1.729v-.583h4.126v.583h-1.729V71.5h-.668v-4.396Zm3.544 4.467c-.209 0-.394-.028-.555-.085a1.21 1.21 0 0 1-.398-.25 1.041 1.041 0 0 1-.25-.369 1.254 1.254 0 0 1-.085-.47c0-.374.11-.645.328-.81.223-.166.54-.25.953-.25h1.223v-.255c0-.323-.073-.546-.22-.67-.142-.123-.358-.184-.647-.184-.27 0-.468.052-.59.156a.51.51 0 0 0-.207.342h-.626a.98.98 0 0 1 .12-.42c.077-.133.176-.246.3-.341.128-.095.28-.169.455-.22.175-.058.37-.086.583-.086.446 0 .8.106 1.06.32.266.209.398.552.398 1.031v2.056c.005.147.017.292.036.434h-.548a3.862 3.862 0 0 1-.028-.306 7.015 7.015 0 0 1-.007-.334c-.1.199-.261.367-.484.505a1.515 1.515 0 0 1-.811.206Zm.135-.569c.147 0 .285-.019.413-.057a1.15 1.15 0 0 0 .348-.178c.1-.08.178-.177.235-.291a.88.88 0 0 0 .085-.399v-.256h-1.116c-.233 0-.415.048-.548.143-.133.09-.2.234-.2.433 0 .176.062.32.186.434.128.114.327.171.597.171Zm4.129.57c-.251 0-.47-.03-.654-.086a1.578 1.578 0 0 1-.463-.242 1.096 1.096 0 0 1-.299-.349 1.469 1.469 0 0 1-.149-.426h.626c.033.151.121.284.263.398.147.109.373.164.676.164.175 0 .323-.015.441-.043.119-.033.213-.074.285-.121a.48.48 0 0 0 .163-.178.516.516 0 0 0 .05-.22.443.443 0 0 0-.05-.214.386.386 0 0 0-.163-.163 1.08 1.08 0 0 0-.32-.136 3.092 3.092 0 0 0-.506-.106 3.62 3.62 0 0 1-.569-.121 1.507 1.507 0 0 1-.426-.22 1.023 1.023 0 0 1-.27-.32 1.057 1.057 0 0 1-.093-.463c0-.142.03-.278.092-.406a.992.992 0 0 1 .278-.341c.123-.1.275-.178.455-.235a2.11 2.11 0 0 1 .633-.085c.223 0 .417.03.583.092.166.057.306.135.42.235.119.1.211.216.278.349.066.132.113.275.142.426h-.626a.727.727 0 0 0-.242-.405c-.123-.104-.308-.157-.555-.157-.308 0-.524.053-.647.157a.458.458 0 0 0-.185.37c0 .085.014.159.042.22a.464.464 0 0 0 .157.164c.076.047.173.088.292.12.123.03.275.055.455.08.232.028.438.07.619.127.18.052.332.126.455.22.123.09.216.202.277.335.067.133.1.292.1.477a.941.941 0 0 1-.1.426.945.945 0 0 1-.284.349c-.128.1-.292.18-.491.242a2.471 2.471 0 0 1-.69.085Zm2.456-5.051h.626v2.945l1.736-1.736h.768l-1.565 1.558L71.52 71.5h-.796l-1.36-1.778-.49.462V71.5h-.626v-4.98Z" fill="#4E4B66"/><rect x="115.181" y="24.5" width="86" height="58" rx="9.5" fill="#fff"/><rect x="115.181" y="24.5" width="86" height="58" rx="9.5" stroke="#EFF0F6"/><rect x="124.724" y="33.5" width="24" height="24" rx="3.2" fill="#FAF0FF"/><path d="M134.724 47.1a2.6 2.6 0 1 0 0-5.2 2.6 2.6 0 0 0 0 5.2Z" stroke="#6A25AE" stroke-width=".8" stroke-miterlimit="10"/><path d="M138.095 41.997a2.595 2.595 0 0 1 2.128.327 2.605 2.605 0 0 1 1.153 1.82A2.6 2.6 0 0 1 138.8 47.1M131.124 48.97a4.404 4.404 0 0 1 3.6-1.87 4.397 4.397 0 0 1 3.6 1.87" stroke="#6A25AE" stroke-width=".8" stroke-linecap="round" stroke-linejoin="round"/><path d="M138.8 47.1a4.398 4.398 0 0 1 3.6 1.87" stroke="#6A25AE" stroke-width=".8" stroke-linecap="round" stroke-linejoin="round"/><path d="m157.453 50.596 5.105-4.43c.389-.328.704-.625.948-.893.255-.267.455-.516.601-.747.146-.243.243-.48.292-.711.061-.231.091-.48.091-.748 0-.717-.213-1.306-.638-1.768-.425-.474-1.009-.71-1.75-.71-.887 0-1.568.242-2.042.728-.474.474-.711 1.149-.711 2.024h-1.714c0-.62.104-1.191.31-1.714.219-.535.523-.99.912-1.367a4.238 4.238 0 0 1 1.422-.875 4.866 4.866 0 0 1 1.823-.328c.644 0 1.221.103 1.732.31.51.194.942.474 1.294.838.352.353.62.772.802 1.258.182.486.274 1.021.274 1.604 0 .438-.067.845-.201 1.222a4.358 4.358 0 0 1-.565 1.075c-.231.34-.517.675-.857 1.003-.328.316-.693.644-1.094.984l-3.81 3.154h6.709V52h-8.933v-1.404Zm15.133 1.586c-.693 0-1.295-.09-1.805-.273a4.315 4.315 0 0 1-1.295-.748 3.418 3.418 0 0 1-.783-1.057 3.245 3.245 0 0 1-.31-1.203h1.713c.061.462.304.869.729 1.221.438.353 1.021.529 1.751.529.826 0 1.476-.255 1.95-.766.474-.522.711-1.245.711-2.169 0-.523-.079-.972-.237-1.349a2.347 2.347 0 0 0-.601-.911 2.302 2.302 0 0 0-.839-.51 2.987 2.987 0 0 0-.984-.165c-.657 0-1.173.122-1.55.365a2.757 2.757 0 0 0-.839.838h-1.531V39.24h7.566v1.495h-5.852v3.555c.632-.693 1.458-1.04 2.479-1.04 1.264 0 2.26.383 2.99 1.15.741.765 1.112 1.87 1.112 3.317 0 .68-.11 1.3-.328 1.86a3.916 3.916 0 0 1-.894 1.403 3.728 3.728 0 0 1-1.385.894 4.868 4.868 0 0 1-1.768.31Z" fill="#1C1C1C"/><path d="M128.146 70.262h-2.106l-.477 1.238h-.697l1.907-4.98h.668l1.907 4.98h-.726l-.476-1.238Zm-1.885-.583h1.664l-.832-2.305-.832 2.305Zm5.186 1.892c-.242 0-.467-.038-.675-.114-.209-.08-.389-.199-.541-.355a1.767 1.767 0 0 1-.363-.605 2.552 2.552 0 0 1-.128-.846v-.143c0-.303.048-.571.142-.803.095-.233.221-.425.377-.577.157-.156.337-.272.541-.348.209-.08.424-.121.647-.121.223 0 .422.03.598.092a1.406 1.406 0 0 1 .782.64c.086.147.147.306.185.477h-.64a1.405 1.405 0 0 0-.135-.249.691.691 0 0 0-.185-.206.826.826 0 0 0-.256-.135c-.1-.034-.216-.05-.349-.05-.137 0-.27.026-.398.078a.895.895 0 0 0-.341.228c-.1.1-.181.23-.242.391a1.757 1.757 0 0 0-.086.583v.143c0 .241.029.45.086.626.061.17.142.31.242.42a.972.972 0 0 0 .341.234c.128.047.261.071.398.071a.967.967 0 0 0 .584-.17.907.907 0 0 0 .341-.47h.64c-.09.375-.275.67-.555.89-.279.213-.616.32-1.01.32Zm3.805-.035c-.403 0-.694-.09-.874-.27-.176-.186-.264-.463-.264-.833v-2.148h-.569v-.555h.569v-.854h.626v.854h1.01v.555h-1.01v2.077c0 .213.045.367.135.462.091.095.264.143.52.143.142 0 .284-.008.427-.022v.555c-.091.01-.181.017-.271.021-.09.01-.189.015-.299.015Zm1.533-3.806h.626v3.77h-.626v-3.77Zm.313-.498a.413.413 0 0 1-.427-.427.413.413 0 0 1 .427-.427c.123 0 .225.04.306.121.08.08.12.183.12.306s-.04.225-.12.306a.416.416 0 0 1-.306.121Zm1.092.498h.697l1.224 3.13 1.109-3.13h.669l-1.423 3.77h-.711l-1.565-3.77Zm5.833 3.841c-.241 0-.471-.038-.69-.114a1.594 1.594 0 0 1-.576-.348 1.773 1.773 0 0 1-.398-.605 2.225 2.225 0 0 1-.149-.853v-.143c0-.313.047-.583.142-.81.095-.233.22-.425.377-.577.161-.156.346-.272.555-.348.213-.076.436-.114.668-.114.555 0 .984.151 1.288.455.303.304.455.733.455 1.288v.398h-2.859c0 .223.035.41.106.562a1.052 1.052 0 0 0 .655.576c.142.043.284.064.426.064.285 0 .503-.047.655-.142a.79.79 0 0 0 .334-.391h.612a1.319 1.319 0 0 1-.562.825 1.6 1.6 0 0 1-.477.206 2.14 2.14 0 0 1-.562.071Zm-.035-3.343c-.147 0-.289.021-.427.064a.989.989 0 0 0-.626.52 1.06 1.06 0 0 0-.099.476h2.269a1.234 1.234 0 0 0-.1-.491.806.806 0 0 0-.235-.327.907.907 0 0 0-.355-.185 1.546 1.546 0 0 0-.427-.057Zm6.331 3.343c-.279 0-.545-.047-.796-.142a1.867 1.867 0 0 1-.669-.455 2.267 2.267 0 0 1-.462-.79c-.114-.318-.171-.697-.171-1.138v-.142c0-.427.057-.795.171-1.103.114-.308.268-.562.462-.761.195-.2.417-.346.669-.441.251-.1.517-.15.796-.15.271 0 .517.036.74.107.228.071.427.173.598.306.171.133.308.297.412.49.109.195.178.416.207.662h-.712c-.066-.322-.206-.564-.419-.725-.214-.161-.489-.242-.826-.242-.175 0-.346.033-.512.1a1.207 1.207 0 0 0-.448.32 1.627 1.627 0 0 0-.313.569 2.87 2.87 0 0 0-.114.868v.142c0 .36.043.664.128.91.086.242.195.44.328.59.132.153.282.262.448.328.166.067.327.1.483.1.37 0 .66-.09.868-.27.209-.18.335-.413.377-.698h.712a1.96 1.96 0 0 1-.228.712 1.572 1.572 0 0 1-.434.483 1.75 1.75 0 0 1-.59.285 2.784 2.784 0 0 1-.705.085Zm4.444 0c-.242 0-.472-.038-.69-.114a1.68 1.68 0 0 1-.576-.355 1.759 1.759 0 0 1-.398-.605c-.1-.242-.15-.524-.15-.846v-.143c0-.303.05-.571.15-.803a1.636 1.636 0 0 1 .974-.925c.218-.08.448-.121.69-.121.242 0 .472.04.69.12a1.651 1.651 0 0 1 .975.925c.099.233.149.5.149.804v.143c0 .322-.05.604-.149.846-.1.242-.233.444-.399.605a1.68 1.68 0 0 1-.576.355 2.083 2.083 0 0 1-.69.114Zm0-.569c.142 0 .285-.024.427-.071.142-.052.268-.13.377-.235.109-.109.197-.249.263-.42.071-.17.107-.379.107-.625v-.143c0-.227-.036-.422-.107-.583a1.14 1.14 0 0 0-.263-.398.995.995 0 0 0-.377-.228 1.344 1.344 0 0 0-.427-.071c-.142 0-.284.024-.427.071a.995.995 0 0 0-.377.228 1.228 1.228 0 0 0-.27.398c-.066.161-.1.356-.1.583v.143c0 .246.034.455.1.626.071.17.161.31.27.42.109.104.235.182.377.234.143.047.285.071.427.071Zm2.7-3.272h.584v.711a1.244 1.244 0 0 1 .448-.548 1.465 1.465 0 0 1 .839-.234c.475 0 .825.128 1.053.384.233.251.349.621.349 1.11V71.5h-.626v-2.205c0-.351-.074-.617-.221-.797-.147-.18-.393-.27-.74-.27-.185 0-.346.03-.483.092a.958.958 0 0 0-.52.584 1.369 1.369 0 0 0-.057.39V71.5h-.626v-3.77Zm5.695 3.806c-.403 0-.695-.09-.875-.27-.176-.186-.264-.463-.264-.833v-2.148h-.569v-.555h.569v-.854h.626v.854h1.011v.555h-1.011v2.077c0 .213.045.367.136.462.09.095.263.143.519.143.142 0 .284-.008.427-.022v.555c-.09.01-.181.017-.271.021a2.85 2.85 0 0 1-.298.015Zm1.461-3.806h.583v.711c.081-.223.213-.408.398-.555.19-.151.42-.227.69-.227a1.449 1.449 0 0 1 .392.05v.583a.912.912 0 0 0-.185-.05 1.57 1.57 0 0 0-.242-.014c-.143 0-.275.026-.399.078a.946.946 0 0 0-.32.22.962.962 0 0 0-.213.335 1.18 1.18 0 0 0-.078.434V71.5h-.626v-3.77Zm3.776 3.841c-.209 0-.394-.028-.555-.085a1.212 1.212 0 0 1-.398-.25 1.044 1.044 0 0 1-.249-.369 1.252 1.252 0 0 1-.085-.47c0-.374.109-.645.327-.81.223-.166.54-.25.953-.25h1.223v-.255c0-.323-.073-.546-.22-.67-.142-.123-.358-.184-.647-.184-.271 0-.467.052-.591.156a.51.51 0 0 0-.206.342h-.626a.974.974 0 0 1 .121-.42c.076-.133.175-.246.299-.341.128-.095.279-.169.455-.22.175-.058.37-.086.583-.086.446 0 .799.106 1.06.32.266.209.398.552.398 1.031v2.056c.005.147.017.292.036.434h-.548a4.103 4.103 0 0 1-.028-.306 6.768 6.768 0 0 1-.007-.334c-.1.199-.261.367-.484.505a1.515 1.515 0 0 1-.811.206Zm.135-.569c.147 0 .285-.019.413-.057.133-.042.249-.102.348-.178.1-.08.178-.177.235-.291a.879.879 0 0 0 .085-.399v-.256h-1.116c-.233 0-.415.048-.548.143-.133.09-.199.234-.199.433 0 .176.061.32.185.434.128.114.327.171.597.171Zm4.271.57c-.241 0-.467-.039-.675-.115-.209-.08-.389-.199-.541-.355a1.767 1.767 0 0 1-.363-.605 2.552 2.552 0 0 1-.128-.846v-.143c0-.303.048-.571.142-.803.095-.233.221-.425.377-.577.157-.156.337-.272.541-.348.209-.08.424-.121.647-.121.223 0 .422.03.598.092a1.406 1.406 0 0 1 .782.64c.086.147.147.306.185.477h-.64a1.405 1.405 0 0 0-.135-.249.815.815 0 0 0-.441-.341c-.1-.033-.216-.05-.349-.05-.137 0-.27.026-.398.078a.895.895 0 0 0-.341.228c-.1.1-.181.23-.242.391a1.757 1.757 0 0 0-.086.583v.143c0 .241.029.45.086.626.061.17.142.31.242.42a.972.972 0 0 0 .341.234c.128.047.261.071.398.071a.967.967 0 0 0 .584-.17.907.907 0 0 0 .341-.47h.64c-.09.375-.275.67-.555.89-.279.213-.616.32-1.01.32Zm3.806-.036c-.404 0-.695-.09-.875-.27-.176-.186-.264-.463-.264-.833v-2.148h-.569v-.555h.569v-.854h.626v.854h1.01v.555h-1.01v2.077c0 .213.045.367.136.462.09.095.263.143.519.143.142 0 .284-.008.427-.022v.555c-.091.01-.181.017-.271.021a2.85 2.85 0 0 1-.298.015Zm3.026.035c-.242 0-.472-.038-.69-.114-.219-.08-.411-.199-.577-.355a1.773 1.773 0 0 1-.398-.605 2.205 2.205 0 0 1-.149-.846v-.143c0-.303.049-.571.149-.803a1.65 1.65 0 0 1 .975-.925c.218-.08.448-.121.69-.121.241 0 .471.04.69.12a1.65 1.65 0 0 1 .974.925c.1.233.149.5.149.804v.143c0 .322-.049.604-.149.846-.1.242-.232.444-.398.605a1.68 1.68 0 0 1-.576.355 2.092 2.092 0 0 1-.69.114Zm0-.569c.142 0 .284-.024.426-.071.143-.052.268-.13.377-.235.109-.109.197-.249.264-.42.071-.17.106-.379.106-.625v-.143c0-.227-.035-.422-.106-.583a1.157 1.157 0 0 0-.264-.398.988.988 0 0 0-.377-.228 1.338 1.338 0 0 0-.426-.071 1.34 1.34 0 0 0-.427.071.988.988 0 0 0-.377.228 1.246 1.246 0 0 0-.271.398 1.539 1.539 0 0 0-.099.583v.143c0 .246.033.455.099.626.072.17.162.31.271.42.109.104.234.182.377.234.142.047.284.071.427.071Zm2.7-3.272h.583v.711c.081-.223.214-.408.399-.555.189-.151.419-.227.69-.227a1.444 1.444 0 0 1 .391.05v.583a.912.912 0 0 0-.185-.05 1.57 1.57 0 0 0-.242-.014 1.01 1.01 0 0 0-.398.078.936.936 0 0 0-.32.22.95.95 0 0 0-.214.335 1.18 1.18 0 0 0-.078.434V71.5h-.626v-3.77Zm4.088 3.841c-.252 0-.47-.028-.655-.085a1.577 1.577 0 0 1-.462-.242 1.095 1.095 0 0 1-.299-.349 1.462 1.462 0 0 1-.149-.426h.626a.699.699 0 0 0 .263.398c.147.109.372.164.676.164.175 0 .322-.015.441-.043.118-.033.213-.074.284-.121a.48.48 0 0 0 .164-.178.519.519 0 0 0 .05-.22.446.446 0 0 0-.05-.214.388.388 0 0 0-.164-.163 1.075 1.075 0 0 0-.32-.136 3.095 3.095 0 0 0-.505-.106 3.617 3.617 0 0 1-.569-.121 1.515 1.515 0 0 1-.427-.22 1.017 1.017 0 0 1-.27-.32 1.053 1.053 0 0 1-.093-.463c0-.142.031-.278.093-.406a.987.987 0 0 1 .277-.341c.124-.1.275-.178.456-.235.18-.057.391-.085.633-.085.223 0 .417.03.583.092.166.057.306.135.42.235.118.1.211.216.277.349.066.132.114.275.142.426h-.626a.724.724 0 0 0-.242-.405c-.123-.104-.308-.157-.554-.157-.309 0-.524.053-.648.157a.459.459 0 0 0-.185.37.53.53 0 0 0 .043.22.456.456 0 0 0 .157.164c.075.047.173.088.291.12.123.03.275.055.455.08.233.028.439.07.619.127.181.052.332.126.456.22a.86.86 0 0 1 .277.335c.066.133.1.292.1.477a.947.947 0 0 1-.1.426.95.95 0 0 1-.285.349c-.128.1-.291.18-.49.242a2.477 2.477 0 0 1-.69.085Z" fill="#4E4B66"/><rect x="206.863" y="24.5" width="86" height="58" rx="9.5" fill="#fff"/><rect x="206.863" y="24.5" width="86" height="58" rx="9.5" stroke="#EFF0F6"/><rect x="216.406" y="33.5" width="24" height="24" rx="3.2" fill="#E8FFF4"/><path d="M224.806 41.9v2.755c0 1.985 1.587 3.63 3.572 3.645a3.6 3.6 0 0 0 3.628-3.6v-2.8a.4.4 0 0 0-.4-.4h-6.4a.399.399 0 0 0-.4.4ZM226.806 50.3h3.2M228.406 48.3v2" stroke="#3DE297" stroke-width=".8" stroke-linecap="round" stroke-linejoin="round"/><path d="M231.916 45.5h.49a1.6 1.6 0 0 0 1.6-1.6v-.8a.4.4 0 0 0-.4-.4h-1.6M224.904 45.5h-.505a1.6 1.6 0 0 1-1.6-1.6v-.8a.4.4 0 0 1 .4-.4h1.6" stroke="#3DE297" stroke-width=".8" stroke-linecap="round" stroke-linejoin="round"/><path d="M249.408 50.505h3.045v-9.388l-3.045 2.17v-1.86l3.081-2.188h1.714v11.266h2.497V52h-7.292v-1.495Zm8.848 0h3.045v-9.388l-3.045 2.17v-1.86l3.081-2.188h1.714v11.266h2.497V52h-7.292v-1.495Zm14.992-9.771h-6.782v-1.495h8.568v1.404L270.477 52h-1.823l4.594-11.266Z" fill="#1C1C1C"/><path d="M218.931 71.571c-.28 0-.546-.047-.797-.142a1.876 1.876 0 0 1-.669-.455 2.267 2.267 0 0 1-.462-.79c-.114-.318-.171-.697-.171-1.138v-.142c0-.427.057-.795.171-1.103.114-.308.268-.562.462-.761.195-.2.418-.346.669-.441.251-.1.517-.15.797-.15.27 0 .517.036.74.107.227.071.426.173.597.306.171.133.308.297.413.49.109.195.178.416.206.662h-.711c-.067-.322-.207-.564-.42-.725-.213-.161-.488-.242-.825-.242-.176 0-.346.033-.512.1a1.21 1.21 0 0 0-.449.32 1.627 1.627 0 0 0-.313.569 2.904 2.904 0 0 0-.113.868v.142c0 .36.042.664.128.91.085.242.194.44.327.59.133.153.282.262.448.328.166.067.327.1.484.1.37 0 .659-.09.868-.27.208-.18.334-.413.377-.698h.711a1.96 1.96 0 0 1-.228.712 1.56 1.56 0 0 1-.434.483c-.17.128-.367.223-.59.285a2.782 2.782 0 0 1-.704.085Zm4.444 0c-.242 0-.472-.038-.691-.114a1.68 1.68 0 0 1-.576-.355 1.773 1.773 0 0 1-.398-.605 2.205 2.205 0 0 1-.149-.846v-.143c0-.303.049-.571.149-.803a1.65 1.65 0 0 1 .974-.925c.219-.08.449-.121.691-.121.241 0 .471.04.69.12a1.65 1.65 0 0 1 .974.925c.1.233.149.5.149.804v.143c0 .322-.049.604-.149.846-.1.242-.232.444-.398.605a1.68 1.68 0 0 1-.576.355 2.092 2.092 0 0 1-.69.114Zm0-.569c.142 0 .284-.024.426-.071.143-.052.268-.13.377-.235.109-.109.197-.249.264-.42.071-.17.106-.379.106-.625v-.143c0-.227-.035-.422-.106-.583a1.157 1.157 0 0 0-.264-.398.988.988 0 0 0-.377-.228 1.338 1.338 0 0 0-.426-.071 1.34 1.34 0 0 0-.427.071.988.988 0 0 0-.377.228 1.246 1.246 0 0 0-.271.398 1.539 1.539 0 0 0-.099.583v.143c0 .246.033.455.099.626.072.17.162.31.271.42.109.104.234.182.377.234.142.047.284.071.427.071Zm2.7-3.272h.583v.711c.081-.232.218-.42.413-.562.199-.147.424-.22.676-.22.327 0 .578.07.754.213.175.138.296.316.362.534a1.53 1.53 0 0 1 .47-.548c.194-.133.427-.2.697-.2.389 0 .692.12.91.356.219.233.328.6.328 1.103V71.5h-.626v-2.24c0-.375-.067-.64-.199-.797-.129-.157-.325-.235-.591-.235a.78.78 0 0 0-.327.071.841.841 0 0 0-.278.206c-.08.09-.144.2-.192.328-.047.128-.071.27-.071.426V71.5h-.626v-2.24c0-.375-.066-.64-.199-.797-.133-.157-.33-.235-.59-.235a.788.788 0 0 0-.328.071.837.837 0 0 0-.277.206.997.997 0 0 0-.192.328c-.047.128-.071.27-.071.426V71.5h-.626v-3.77Zm6.294 0h.583v.711c.128-.251.306-.443.533-.576.233-.137.501-.206.804-.206.474 0 .854.156 1.138.47.285.307.427.767.427 1.38v.142c0 .322-.038.604-.114.846a1.69 1.69 0 0 1-.32.598 1.327 1.327 0 0 1-.498.355c-.189.08-.4.121-.633.121-.322 0-.593-.07-.811-.213a1.406 1.406 0 0 1-.483-.534v2.099h-.626V67.73Zm1.778 3.286c.152 0 .294-.028.427-.085a.972.972 0 0 0 .341-.263c.1-.114.176-.256.228-.427.057-.17.085-.368.085-.59v-.143c0-.204-.028-.386-.085-.547a1.081 1.081 0 0 0-.228-.406.9.9 0 0 0-.341-.256 1.073 1.073 0 0 0-.427-.085c-.171 0-.327.028-.47.085a.979.979 0 0 0-.362.228c-.1.094-.178.208-.235.341a1.07 1.07 0 0 0-.085.427v.569c0 .17.028.327.085.47.057.142.135.263.235.362.099.1.22.178.362.235.143.057.299.085.47.085Zm3.736.52c-.393 0-.676-.095-.846-.285-.171-.19-.256-.498-.256-.925v-3.805h.626v3.805c0 .247.04.415.121.505.08.09.222.136.426.136h.136l.113-.015v.555a.977.977 0 0 1-.163.021 2.317 2.317 0 0 1-.157.008Zm1.212-3.806h.626v3.77h-.626v-3.77Zm.313-.498a.413.413 0 0 1-.427-.427.413.413 0 0 1 .427-.427.416.416 0 0 1 .427.427.416.416 0 0 1-.427.427Zm2.906 4.304c-.403 0-.695-.09-.875-.27-.175-.186-.263-.463-.263-.833v-2.148h-.569v-.555h.569v-.854h.626v.854h1.01v.555h-1.01v2.077c0 .213.045.367.135.462.09.095.263.143.519.143.143 0 .285-.008.427-.022v.555c-.09.01-.18.017-.27.021-.09.01-.19.015-.299.015Zm3.026.035c-.242 0-.472-.038-.69-.114a1.594 1.594 0 0 1-.576-.348 1.759 1.759 0 0 1-.398-.605c-.1-.242-.15-.526-.15-.853v-.143c0-.313.048-.583.142-.81a1.562 1.562 0 0 1 .932-.925c.214-.076.437-.114.669-.114.555 0 .984.151 1.288.455.303.304.455.733.455 1.288v.398h-2.86c0 .223.036.41.107.562a1.05 1.05 0 0 0 .654.576c.143.043.285.064.427.064.285 0 .503-.047.655-.142a.79.79 0 0 0 .334-.391h.612c-.038.18-.107.339-.207.476a1.3 1.3 0 0 1-.355.349c-.138.09-.297.159-.477.206a2.146 2.146 0 0 1-.562.071Zm-.035-3.343c-.147 0-.29.021-.427.064a.982.982 0 0 0-.726.996h2.269a1.234 1.234 0 0 0-.099-.491.806.806 0 0 0-.235-.327.911.911 0 0 0-.356-.185 1.539 1.539 0 0 0-.426-.057Zm3.913 3.343a1.66 1.66 0 0 1-.641-.12 1.36 1.36 0 0 1-.491-.356 1.723 1.723 0 0 1-.32-.598 2.866 2.866 0 0 1-.113-.846v-.143c0-.298.038-.562.113-.79.081-.232.19-.426.328-.583.137-.156.301-.275.49-.355.195-.08.406-.121.634-.121.303 0 .566.066.789.199.228.133.396.315.505.548V66.52h.626v4.98h-.583v-.712a1.198 1.198 0 0 1-.498.569 1.6 1.6 0 0 1-.839.213Zm.142-.555c.171 0 .327-.028.469-.085.143-.057.263-.135.363-.235.1-.1.178-.22.235-.362.057-.143.085-.3.085-.47v-.57a1.07 1.07 0 0 0-.085-.426 1.017 1.017 0 0 0-.235-.341.983.983 0 0 0-.363-.228 1.249 1.249 0 0 0-.469-.085c-.152 0-.294.028-.427.085a.967.967 0 0 0-.349.256c-.094.11-.17.244-.227.406a1.781 1.781 0 0 0-.078.547v.143c0 .222.026.42.078.59.057.17.133.313.227.427.1.114.216.201.349.263.133.057.275.085.427.085Zm6.083.52c-.403 0-.694-.09-.874-.27-.176-.186-.264-.463-.264-.833v-2.148h-.569v-.555h.569v-.854h.626v.854h1.01v.555h-1.01v2.077c0 .213.045.367.135.462.091.095.264.143.52.143.142 0 .284-.008.427-.022v.555c-.091.01-.181.017-.271.021-.09.01-.189.015-.299.015Zm2.536.035c-.209 0-.394-.028-.555-.085a1.217 1.217 0 0 1-.399-.25 1.044 1.044 0 0 1-.249-.369 1.272 1.272 0 0 1-.085-.47c0-.374.109-.645.327-.81.223-.166.541-.25.954-.25h1.223v-.255c0-.323-.073-.546-.22-.67-.143-.123-.358-.184-.648-.184-.27 0-.467.052-.59.156a.51.51 0 0 0-.206.342h-.626a.973.973 0 0 1 .12-.42c.076-.133.176-.246.299-.341.128-.095.28-.169.455-.22.176-.058.37-.086.584-.086.446 0 .799.106 1.06.32.265.209.398.552.398 1.031v2.056c.005.147.017.292.036.434h-.548a4.131 4.131 0 0 1-.036-.64 1.26 1.26 0 0 1-.483.505 1.518 1.518 0 0 1-.811.206Zm.135-.569c.147 0 .284-.019.412-.057.133-.042.249-.102.349-.178.1-.08.178-.177.235-.291a.879.879 0 0 0 .085-.399v-.256h-1.117c-.232 0-.415.048-.547.143-.133.09-.2.234-.2.433 0 .176.062.32.185.434.128.114.328.171.598.171Zm4.129.57c-.252 0-.47-.03-.655-.086a1.577 1.577 0 0 1-.462-.242 1.095 1.095 0 0 1-.299-.349 1.462 1.462 0 0 1-.149-.426h.626a.699.699 0 0 0 .263.398c.147.109.372.164.676.164.175 0 .322-.015.441-.043.118-.033.213-.074.284-.121a.48.48 0 0 0 .164-.178.519.519 0 0 0 .05-.22.446.446 0 0 0-.05-.214.388.388 0 0 0-.164-.163 1.075 1.075 0 0 0-.32-.136 3.095 3.095 0 0 0-.505-.106 3.617 3.617 0 0 1-.569-.121 1.515 1.515 0 0 1-.427-.22 1.017 1.017 0 0 1-.27-.32 1.053 1.053 0 0 1-.093-.463c0-.142.031-.278.093-.406a.999.999 0 0 1 .277-.341c.124-.1.275-.178.456-.235.18-.057.391-.085.633-.085.223 0 .417.03.583.092.166.057.306.135.42.235.118.1.211.216.277.349.067.132.114.275.142.426h-.626a.729.729 0 0 0-.241-.405c-.124-.104-.309-.157-.555-.157-.309 0-.524.053-.648.157a.459.459 0 0 0-.185.37.53.53 0 0 0 .043.22.456.456 0 0 0 .157.164c.075.047.173.088.291.12.124.03.275.055.456.08.232.028.438.07.618.127.181.052.332.126.456.22a.86.86 0 0 1 .277.335c.066.133.1.292.1.477a.947.947 0 0 1-.1.426.947.947 0 0 1-.284.349c-.129.1-.292.18-.491.242a2.477 2.477 0 0 1-.69.085Zm2.456-5.051h.626v2.945l1.735-1.736h.769l-1.565 1.558 1.707 2.212h-.797l-1.358-1.778-.491.462V71.5h-.626v-4.98Zm5.338 5.05a2.23 2.23 0 0 1-.654-.085 1.57 1.57 0 0 1-.463-.242 1.108 1.108 0 0 1-.299-.349 1.462 1.462 0 0 1-.149-.426h.626a.699.699 0 0 0 .263.398c.147.109.372.164.676.164.175 0 .322-.015.441-.043.119-.033.213-.074.285-.121a.485.485 0 0 0 .163-.178.519.519 0 0 0 .05-.22.446.446 0 0 0-.05-.214.385.385 0 0 0-.163-.163 1.082 1.082 0 0 0-.321-.136 3.072 3.072 0 0 0-.505-.106 3.642 3.642 0 0 1-.569-.121 1.515 1.515 0 0 1-.427-.22 1.044 1.044 0 0 1-.27-.32 1.068 1.068 0 0 1-.092-.463.932.932 0 0 1 .37-.747c.123-.1.275-.178.455-.235.18-.057.391-.085.633-.085.223 0 .417.03.583.092.166.057.306.135.42.235.119.1.211.216.277.349.067.132.114.275.143.426h-.626a.73.73 0 0 0-.242-.405c-.123-.104-.308-.157-.555-.157-.308 0-.524.053-.647.157a.456.456 0 0 0-.185.37.53.53 0 0 0 .042.22.474.474 0 0 0 .157.164c.076.047.173.088.292.12.123.03.275.055.455.08.232.028.438.07.619.127.18.052.332.126.455.22.123.09.216.202.277.335.067.133.1.292.1.477a.934.934 0 0 1-.1.426.937.937 0 0 1-.284.349c-.128.1-.292.18-.491.242a2.467 2.467 0 0 1-.69.085Z" fill="#4E4B66"/><rect x="23.5" y="99.5" width="268" height="190" rx="5.352" fill="#fff"/><rect x="23.5" y="99.5" width="268" height="190" rx="5.352" stroke="#EFF0F6"/><g clip-path="url(#a)"><path stroke="#D7DBEB" stroke-width=".585" d="M49.707 250V115"/><path d="M38.813 217.52h.977v-3.013l-.977.696v-.597l.988-.702h.55v3.616h.802v.48h-2.34v-.48Zm4.332.539c-.199 0-.388-.034-.568-.1a1.102 1.102 0 0 1-.462-.339 1.84 1.84 0 0 1-.316-.65 3.764 3.764 0 0 1-.117-1.018v-.117c0-.379.039-.695.117-.948.078-.254.183-.457.316-.609.133-.156.287-.267.462-.333.18-.067.369-.1.568-.1.199 0 .386.033.562.1.18.066.335.177.468.333.133.152.238.355.316.609.078.253.117.569.117.948v.117c0 .406-.04.745-.117 1.018a1.842 1.842 0 0 1-.316.65c-.133.16-.289.273-.468.339-.176.066-.363.1-.562.1Zm0-.48a.934.934 0 0 0 .345-.065.665.665 0 0 0 .293-.245 1.38 1.38 0 0 0 .199-.498c.05-.21.076-.484.076-.819v-.117c0-.304-.026-.554-.076-.749a1.24 1.24 0 0 0-.2-.462.64.64 0 0 0-.292-.235.97.97 0 0 0-.696 0 .683.683 0 0 0-.293.235 1.38 1.38 0 0 0-.199.462c-.047.195-.07.445-.07.749v.117c0 .335.023.609.07.819.051.211.117.377.2.498a.71.71 0 0 0 .292.245.95.95 0 0 0 .35.065Zm2.4-3.675h.55v2.159l1.925-2.159h.685l-1.522 1.685L48.822 218h-.679l-1.317-2.036-.731.801V218h-.55v-4.096ZM38.17 184.549l1.639-1.422c.125-.105.226-.2.304-.286.082-.086.147-.166.193-.24a.742.742 0 0 0 .094-.228.95.95 0 0 0 .03-.24.804.804 0 0 0-.206-.568c-.136-.152-.323-.228-.561-.228-.285 0-.504.078-.656.234-.152.152-.228.369-.228.649h-.55c0-.199.033-.382.1-.55.07-.171.167-.318.292-.439a1.547 1.547 0 0 1 1.042-.386c.206 0 .392.033.556.1.163.062.302.152.415.269.113.113.199.248.258.404.058.156.087.327.087.515 0 .14-.021.271-.064.392a1.385 1.385 0 0 1-.181.345 2.044 2.044 0 0 1-.276.322 7.653 7.653 0 0 1-.35.316l-1.224 1.012h2.154v.48H38.17v-.451Zm4.975.51c-.199 0-.388-.034-.568-.1a1.102 1.102 0 0 1-.462-.339 1.84 1.84 0 0 1-.316-.65 3.764 3.764 0 0 1-.117-1.018v-.117c0-.379.039-.695.117-.948.078-.254.183-.457.316-.609.133-.156.287-.267.462-.333.18-.067.369-.1.568-.1.199 0 .386.033.562.1.18.066.335.177.468.333.133.152.238.355.316.609.078.253.117.569.117.948v.117c0 .406-.04.745-.117 1.018a1.842 1.842 0 0 1-.316.65c-.133.16-.289.273-.468.339-.176.066-.363.1-.562.1Zm0-.48a.934.934 0 0 0 .345-.065.665.665 0 0 0 .293-.245 1.38 1.38 0 0 0 .199-.498c.05-.21.076-.484.076-.819v-.117c0-.304-.026-.554-.076-.749a1.24 1.24 0 0 0-.2-.462.64.64 0 0 0-.292-.235.97.97 0 0 0-.696 0 .683.683 0 0 0-.293.235 1.38 1.38 0 0 0-.199.462c-.047.195-.07.445-.07.749v.117c0 .335.023.609.07.819.051.211.117.377.2.498a.71.71 0 0 0 .292.245.95.95 0 0 0 .35.065Zm2.4-3.675h.55v2.159l1.925-2.159h.685l-1.522 1.685L48.822 185h-.679l-1.317-2.036-.731.801V185h-.55v-4.096ZM39.575 152.059c-.222 0-.42-.03-.596-.088a1.374 1.374 0 0 1-.44-.252 1.05 1.05 0 0 1-.368-.831h.55c0 .199.068.363.205.492.136.125.353.187.65.187.296 0 .513-.064.65-.193a.686.686 0 0 0 .204-.515.691.691 0 0 0-.21-.527c-.137-.136-.352-.205-.645-.205h-.438v-.468h.438c.281 0 .484-.058.61-.175.124-.121.186-.287.186-.498 0-.203-.06-.361-.181-.474-.12-.117-.326-.175-.614-.175-.277 0-.48.06-.609.181a.577.577 0 0 0-.187.439h-.55c0-.152.029-.296.087-.433.063-.136.15-.254.264-.351.117-.101.257-.181.421-.24a1.75 1.75 0 0 1 .573-.088c.215 0 .406.03.574.088.168.059.308.137.421.234a.948.948 0 0 1 .264.345c.058.133.087.271.087.416a.956.956 0 0 1-.187.597.967.967 0 0 1-.515.339c.234.074.42.195.556.363.137.168.205.398.205.69 0 .157-.031.305-.094.445a1.06 1.06 0 0 1-.275.363 1.374 1.374 0 0 1-.439.246 1.897 1.897 0 0 1-.596.088Zm3.57 0c-.199 0-.388-.034-.568-.1a1.102 1.102 0 0 1-.462-.339 1.84 1.84 0 0 1-.316-.65 3.764 3.764 0 0 1-.117-1.018v-.117c0-.379.039-.695.117-.948.078-.254.183-.457.316-.609.133-.156.287-.267.462-.333.18-.067.369-.1.568-.1.199 0 .386.033.562.1.18.066.335.177.468.333.133.152.238.355.316.609.078.253.117.569.117.948v.117c0 .406-.04.745-.117 1.018a1.842 1.842 0 0 1-.316.65c-.133.16-.289.273-.468.339-.176.066-.363.1-.562.1Zm0-.48a.934.934 0 0 0 .345-.065.665.665 0 0 0 .293-.245 1.38 1.38 0 0 0 .199-.498c.05-.21.076-.484.076-.819v-.117c0-.304-.026-.554-.076-.749a1.24 1.24 0 0 0-.2-.462.64.64 0 0 0-.292-.235.97.97 0 0 0-.696 0 .683.683 0 0 0-.293.235 1.38 1.38 0 0 0-.199.462c-.047.195-.07.445-.07.749v.117c0 .335.023.609.07.819.051.211.117.377.2.498a.71.71 0 0 0 .292.245.95.95 0 0 0 .35.065Zm2.4-3.675h.55v2.159l1.925-2.159h.685l-1.522 1.685L48.822 152h-.679l-1.317-2.036-.731.801V152h-.55v-4.096ZM38.96 118.011h-2.084v-.421l2.025-2.686h.609v2.627h.526v.48h-.526V119h-.55v-.989Zm0-.48v-1.984l-1.499 1.984h1.498Zm3.185 1.528c-.199 0-.388-.034-.568-.1a1.102 1.102 0 0 1-.462-.339 1.84 1.84 0 0 1-.316-.65 3.764 3.764 0 0 1-.117-1.018v-.117c0-.379.039-.695.117-.948.078-.254.183-.457.316-.609.133-.156.287-.267.462-.333.18-.067.369-.1.568-.1.199 0 .386.033.562.1.18.066.335.177.468.333.133.152.238.355.316.609.078.253.117.569.117.948v.117c0 .406-.04.745-.117 1.018a1.842 1.842 0 0 1-.316.65c-.133.16-.289.273-.468.339-.176.066-.363.1-.562.1Zm0-.48a.934.934 0 0 0 .345-.065.665.665 0 0 0 .293-.245 1.38 1.38 0 0 0 .199-.498c.05-.21.076-.484.076-.819v-.117c0-.304-.026-.554-.076-.749a1.24 1.24 0 0 0-.2-.462.64.64 0 0 0-.292-.235.97.97 0 0 0-.696 0 .683.683 0 0 0-.293.235 1.38 1.38 0 0 0-.199.462c-.047.195-.07.445-.07.749v.117c0 .335.023.609.07.819.051.211.117.377.2.498a.71.71 0 0 0 .292.245.95.95 0 0 0 .35.065Zm2.4-3.675h.55v2.159l1.925-2.159h.685l-1.522 1.685L47.822 119h-.679l-1.317-2.036-.731.801V119h-.55v-4.096ZM41.876 251.059c-.198 0-.388-.034-.567-.1a1.1 1.1 0 0 1-.462-.339 1.84 1.84 0 0 1-.316-.65 3.764 3.764 0 0 1-.117-1.018v-.117c0-.379.038-.695.117-.948.078-.254.183-.457.316-.609a1.12 1.12 0 0 1 .462-.333c.18-.067.369-.1.567-.1.2 0 .387.033.562.1.18.066.336.177.468.333.133.152.238.355.316.609.078.253.117.569.117.948v.117c0 .406-.039.745-.117 1.018a1.842 1.842 0 0 1-.316.65c-.132.16-.288.273-.468.339-.175.066-.363.1-.562.1Zm0-.48a.934.934 0 0 0 .346-.065.665.665 0 0 0 .292-.245c.086-.121.152-.287.2-.498.05-.21.075-.484.075-.819v-.117c0-.304-.025-.554-.076-.749a1.239 1.239 0 0 0-.199-.462.64.64 0 0 0-.292-.235.97.97 0 0 0-.696 0 .683.683 0 0 0-.293.235 1.38 1.38 0 0 0-.2.462c-.046.195-.07.445-.07.749v.117c0 .335.024.609.07.819.051.211.118.377.2.498a.71.71 0 0 0 .292.245.95.95 0 0 0 .351.065Zm2.283-3.675h.515v2.422l1.428-1.427h.632l-1.287 1.281L46.85 251h-.655l-1.118-1.463-.404.38V251h-.515v-4.096Z" fill="#737A92"/><path stroke="#D7DBEB" stroke-width=".585" d="M50 249.707h234"/><path d="M64.567 260.059c-.199 0-.388-.034-.567-.1a1.102 1.102 0 0 1-.463-.339 1.842 1.842 0 0 1-.316-.65 3.764 3.764 0 0 1-.117-1.018v-.117c0-.379.04-.695.117-.948.078-.254.184-.457.316-.609.133-.156.287-.267.463-.333.18-.067.368-.1.567-.1.2 0 .387.033.562.1.18.066.335.177.468.333.133.152.238.355.316.609.078.253.117.569.117.948v.117c0 .406-.039.745-.117 1.018a1.84 1.84 0 0 1-.316.65c-.132.16-.288.273-.468.339-.175.066-.363.1-.562.1Zm0-.48c.121 0 .236-.022.346-.065a.664.664 0 0 0 .292-.245c.086-.121.152-.287.2-.498.05-.21.075-.484.075-.819v-.117c0-.304-.025-.554-.076-.749a1.239 1.239 0 0 0-.199-.462.64.64 0 0 0-.293-.235.97.97 0 0 0-.696 0 .682.682 0 0 0-.292.235 1.378 1.378 0 0 0-.2.462c-.046.195-.07.445-.07.749v.117c0 .335.024.609.07.819.051.211.118.377.2.498a.71.71 0 0 0 .292.245.95.95 0 0 0 .351.065Zm2.137-.059h.977v-3.013l-.977.696v-.597l.989-.702h.55v3.616h.802v.48h-2.341v-.48Zm3.396.539a.41.41 0 0 1-.293-.117.411.411 0 0 1-.117-.293.398.398 0 0 1 .41-.41.39.39 0 0 1 .287.117.388.388 0 0 1 .123.293.4.4 0 0 1-.123.293.39.39 0 0 1-.287.117Zm1.11-.51 1.64-1.422c.124-.105.226-.2.303-.286a1.59 1.59 0 0 0 .194-.24.744.744 0 0 0 .093-.228.95.95 0 0 0 .03-.24.804.804 0 0 0-.205-.568c-.137-.152-.324-.228-.562-.228-.285 0-.503.078-.656.234-.152.152-.228.369-.228.649h-.55c0-.199.033-.382.1-.55.07-.171.168-.318.292-.439a1.548 1.548 0 0 1 1.042-.386c.207 0 .392.033.556.1.164.062.302.152.415.269.113.113.2.248.258.404.058.156.088.327.088.515 0 .14-.022.271-.065.392a1.388 1.388 0 0 1-.181.345 2.044 2.044 0 0 1-.275.322 7.706 7.706 0 0 1-.351.316l-1.223 1.012h2.153v.48h-2.867v-.451Zm4.975.51c-.199 0-.388-.034-.567-.1a1.102 1.102 0 0 1-.463-.339 1.84 1.84 0 0 1-.316-.65 3.764 3.764 0 0 1-.117-1.018v-.117c0-.379.04-.695.117-.948.078-.254.184-.457.316-.609.133-.156.287-.267.463-.333.18-.067.368-.1.567-.1.2 0 .386.033.562.1.18.066.335.177.468.333.133.152.238.355.316.609.078.253.117.569.117.948v.117c0 .406-.039.745-.117 1.018a1.842 1.842 0 0 1-.316.65c-.133.16-.288.273-.468.339-.175.066-.363.1-.562.1Zm0-.48a.934.934 0 0 0 .346-.065.665.665 0 0 0 .292-.245 1.38 1.38 0 0 0 .2-.498c.05-.21.075-.484.075-.819v-.117c0-.304-.025-.554-.076-.749a1.24 1.24 0 0 0-.199-.462.64.64 0 0 0-.292-.235.97.97 0 0 0-.696 0 .683.683 0 0 0-.294.235 1.38 1.38 0 0 0-.198.462c-.047.195-.07.445-.07.749v.117c0 .335.023.609.07.819.05.211.117.377.198.498a.71.71 0 0 0 .293.245.95.95 0 0 0 .351.065ZM98.013 260.059c-.199 0-.388-.034-.568-.1a1.1 1.1 0 0 1-.462-.339 1.84 1.84 0 0 1-.316-.65 3.764 3.764 0 0 1-.117-1.018v-.117c0-.379.039-.695.117-.948.078-.254.183-.457.316-.609a1.12 1.12 0 0 1 .462-.333c.18-.067.369-.1.568-.1.199 0 .386.033.562.1.18.066.335.177.468.333.132.152.238.355.316.609.078.253.117.569.117.948v.117c0 .406-.04.745-.117 1.018a1.842 1.842 0 0 1-.316.65c-.133.16-.289.273-.468.339-.176.066-.363.1-.562.1Zm0-.48a.934.934 0 0 0 .345-.065.665.665 0 0 0 .293-.245c.086-.121.152-.287.199-.498.05-.21.076-.484.076-.819v-.117c0-.304-.026-.554-.076-.749a1.239 1.239 0 0 0-.2-.462.64.64 0 0 0-.292-.235.97.97 0 0 0-.696 0 .683.683 0 0 0-.293.235 1.38 1.38 0 0 0-.199.462c-.047.195-.07.445-.07.749v.117c0 .335.023.609.07.819.051.211.117.377.2.498a.71.71 0 0 0 .292.245.95.95 0 0 0 .35.065Zm2.049-.03 1.638-1.422c.125-.105.227-.2.305-.286.082-.086.146-.166.193-.24a.928.928 0 0 0 .123-.468.807.807 0 0 0-.205-.568c-.137-.152-.324-.228-.562-.228-.285 0-.503.078-.655.234-.153.152-.229.369-.229.649h-.55c0-.199.033-.382.1-.55.07-.171.168-.318.292-.439a1.543 1.543 0 0 1 1.042-.386c.207 0 .392.033.556.1.164.062.302.152.415.269.114.113.199.248.258.404.058.156.088.327.088.515 0 .14-.022.271-.065.392a1.39 1.39 0 0 1-.181.345 2.049 2.049 0 0 1-.275.322 7.865 7.865 0 0 1-.351.316l-1.223 1.012h2.153v.48h-2.867v-.451Zm4.038.51a.411.411 0 0 1-.293-.117.411.411 0 0 1-.117-.293.398.398 0 0 1 .41-.41.39.39 0 0 1 .287.117.388.388 0 0 1 .123.293.4.4 0 0 1-.123.293.39.39 0 0 1-.287.117Zm1.111-.51 1.638-1.422c.125-.105.226-.2.305-.286a1.66 1.66 0 0 0 .193-.24.928.928 0 0 0 .123-.468.807.807 0 0 0-.205-.568c-.137-.152-.324-.228-.562-.228-.285 0-.503.078-.655.234-.153.152-.229.369-.229.649h-.55c0-.199.033-.382.1-.55.07-.171.167-.318.292-.439a1.543 1.543 0 0 1 1.042-.386c.207 0 .392.033.556.1.164.062.302.152.415.269.113.113.199.248.258.404.058.156.088.327.088.515 0 .14-.022.271-.065.392a1.39 1.39 0 0 1-.181.345 2.049 2.049 0 0 1-.275.322 8.465 8.465 0 0 1-.351.316l-1.223 1.012h2.153v.48h-2.867v-.451Zm4.974.51c-.199 0-.388-.034-.567-.1a1.102 1.102 0 0 1-.463-.339 1.851 1.851 0 0 1-.316-.65 3.764 3.764 0 0 1-.117-1.018v-.117c0-.379.039-.695.117-.948.078-.254.184-.457.316-.609.133-.156.287-.267.463-.333.179-.067.368-.1.567-.1.199 0 .386.033.562.1.179.066.336.177.468.333.133.152.238.355.316.609.078.253.117.569.117.948v.117c0 .406-.039.745-.117 1.018a1.834 1.834 0 0 1-.316.65c-.132.16-.289.273-.468.339-.176.066-.363.1-.562.1Zm0-.48a.932.932 0 0 0 .345-.065.661.661 0 0 0 .293-.245c.086-.121.152-.287.199-.498.051-.21.076-.484.076-.819v-.117a3.04 3.04 0 0 0-.076-.749 1.239 1.239 0 0 0-.199-.462.637.637 0 0 0-.293-.235.968.968 0 0 0-.696 0 .677.677 0 0 0-.292.235 1.364 1.364 0 0 0-.199.462 3.281 3.281 0 0 0-.071.749v.117c0 .335.024.609.071.819.05.211.117.377.199.498a.705.705 0 0 0 .292.245.948.948 0 0 0 .351.065ZM132.984 260.059c-.199 0-.388-.034-.567-.1a1.102 1.102 0 0 1-.463-.339 1.851 1.851 0 0 1-.316-.65 3.764 3.764 0 0 1-.117-1.018v-.117c0-.379.039-.695.117-.948.078-.254.184-.457.316-.609.133-.156.287-.267.463-.333.179-.067.368-.1.567-.1.199 0 .387.033.562.1.18.066.336.177.468.333.133.152.238.355.316.609.078.253.117.569.117.948v.117c0 .406-.039.745-.117 1.018a1.834 1.834 0 0 1-.316.65c-.132.16-.288.273-.468.339-.175.066-.363.1-.562.1Zm0-.48a.941.941 0 0 0 .346-.065.664.664 0 0 0 .292-.245c.086-.121.152-.287.199-.498.051-.21.076-.484.076-.819v-.117a3.04 3.04 0 0 0-.076-.749 1.239 1.239 0 0 0-.199-.462.64.64 0 0 0-.292-.235.972.972 0 0 0-.697 0 .677.677 0 0 0-.292.235 1.364 1.364 0 0 0-.199.462 3.281 3.281 0 0 0-.071.749v.117c0 .335.024.609.071.819.05.211.117.377.199.498a.705.705 0 0 0 .292.245.952.952 0 0 0 .351.065Zm3.483.48c-.222 0-.421-.03-.597-.088a1.373 1.373 0 0 1-.439-.252 1.056 1.056 0 0 1-.369-.831h.551c0 .199.068.363.204.492.137.125.353.187.65.187.296 0 .513-.064.649-.193a.685.685 0 0 0 .205-.515.692.692 0 0 0-.21-.527c-.137-.136-.352-.205-.644-.205h-.439v-.468h.439c.281 0 .484-.058.608-.175.125-.121.188-.287.188-.498 0-.203-.061-.361-.182-.474-.121-.117-.325-.175-.614-.175-.277 0-.48.06-.609.181a.577.577 0 0 0-.187.439h-.55c0-.152.029-.296.088-.433a1.01 1.01 0 0 1 .263-.351 1.33 1.33 0 0 1 .421-.24c.168-.058.359-.088.574-.088.214 0 .406.03.573.088.168.059.309.137.422.234a.941.941 0 0 1 .263.345c.059.133.088.271.088.416a.962.962 0 0 1-.187.597.969.969 0 0 1-.515.339c.234.074.419.195.556.363.136.168.204.398.204.69 0 .157-.031.305-.093.445a1.067 1.067 0 0 1-.275.363 1.38 1.38 0 0 1-.439.246 1.902 1.902 0 0 1-.597.088Zm2.633 0a.411.411 0 0 1-.293-.117.411.411 0 0 1-.117-.293.398.398 0 0 1 .41-.41.39.39 0 0 1 .287.117.388.388 0 0 1 .123.293.4.4 0 0 1-.123.293.39.39 0 0 1-.287.117Zm1.111-.51 1.638-1.422c.125-.105.226-.2.305-.286a1.66 1.66 0 0 0 .193-.24.928.928 0 0 0 .123-.468.807.807 0 0 0-.205-.568c-.137-.152-.324-.228-.562-.228-.285 0-.503.078-.655.234-.153.152-.229.369-.229.649h-.55c0-.199.033-.382.1-.55.07-.171.167-.318.292-.439a1.543 1.543 0 0 1 1.042-.386c.207 0 .392.033.556.1.164.062.302.152.415.269.113.113.199.248.258.404.058.156.088.327.088.515 0 .14-.022.271-.065.392a1.39 1.39 0 0 1-.181.345 2.049 2.049 0 0 1-.275.322 8.465 8.465 0 0 1-.351.316l-1.223 1.012h2.153v.48h-2.867v-.451Zm4.974.51c-.199 0-.388-.034-.567-.1a1.102 1.102 0 0 1-.463-.339 1.851 1.851 0 0 1-.316-.65 3.764 3.764 0 0 1-.117-1.018v-.117c0-.379.039-.695.117-.948.078-.254.184-.457.316-.609.133-.156.287-.267.463-.333.179-.067.368-.1.567-.1.199 0 .386.033.562.1.179.066.336.177.468.333.133.152.238.355.316.609.078.253.117.569.117.948v.117c0 .406-.039.745-.117 1.018a1.834 1.834 0 0 1-.316.65c-.132.16-.289.273-.468.339-.176.066-.363.1-.562.1Zm0-.48a.932.932 0 0 0 .345-.065.661.661 0 0 0 .293-.245c.086-.121.152-.287.199-.498.051-.21.076-.484.076-.819v-.117a3.04 3.04 0 0 0-.076-.749 1.239 1.239 0 0 0-.199-.462.637.637 0 0 0-.293-.235.968.968 0 0 0-.696 0 .677.677 0 0 0-.292.235 1.364 1.364 0 0 0-.199.462 3.281 3.281 0 0 0-.071.749v.117c0 .335.024.609.071.819.05.211.117.377.199.498a.705.705 0 0 0 .292.245.948.948 0 0 0 .351.065ZM166.836 260.059c-.199 0-.388-.034-.568-.1a1.1 1.1 0 0 1-.462-.339 1.834 1.834 0 0 1-.316-.65 3.764 3.764 0 0 1-.117-1.018v-.117c0-.379.039-.695.117-.948.078-.254.183-.457.316-.609a1.12 1.12 0 0 1 .462-.333c.18-.067.369-.1.568-.1.199 0 .386.033.562.1.179.066.335.177.468.333.132.152.238.355.316.609.078.253.117.569.117.948v.117c0 .406-.039.745-.117 1.018a1.851 1.851 0 0 1-.316.65c-.133.16-.289.273-.468.339-.176.066-.363.1-.562.1Zm0-.48a.932.932 0 0 0 .345-.065.667.667 0 0 0 .293-.245c.085-.121.152-.287.199-.498.05-.21.076-.484.076-.819v-.117c0-.304-.026-.554-.076-.749a1.255 1.255 0 0 0-.199-.462.642.642 0 0 0-.293-.235.968.968 0 0 0-.696 0 .68.68 0 0 0-.293.235 1.384 1.384 0 0 0-.199.462c-.047.195-.07.445-.07.749v.117c0 .335.023.609.07.819.051.211.117.377.199.498a.707.707 0 0 0 .293.245.948.948 0 0 0 .351.065Zm4.015-.568h-2.083v-.421l2.024-2.686h.609v2.627h.527v.48h-.527V260h-.55v-.989Zm0-.48v-1.984l-1.498 1.984h1.498Zm2.249 1.528a.411.411 0 0 1-.293-.117.411.411 0 0 1-.117-.293.398.398 0 0 1 .41-.41.39.39 0 0 1 .287.117.388.388 0 0 1 .123.293.4.4 0 0 1-.123.293.39.39 0 0 1-.287.117Zm1.111-.51 1.638-1.422c.125-.105.226-.2.305-.286a1.66 1.66 0 0 0 .193-.24.928.928 0 0 0 .123-.468.807.807 0 0 0-.205-.568c-.137-.152-.324-.228-.562-.228-.285 0-.503.078-.655.234-.153.152-.229.369-.229.649h-.55c0-.199.033-.382.1-.55.07-.171.167-.318.292-.439a1.543 1.543 0 0 1 1.042-.386c.207 0 .392.033.556.1.164.062.302.152.415.269.113.113.199.248.258.404.058.156.088.327.088.515 0 .14-.022.271-.065.392a1.39 1.39 0 0 1-.181.345 2.049 2.049 0 0 1-.275.322 8.465 8.465 0 0 1-.351.316l-1.223 1.012h2.153v.48h-2.867v-.451Zm4.974.51c-.199 0-.388-.034-.567-.1a1.102 1.102 0 0 1-.463-.339 1.851 1.851 0 0 1-.316-.65 3.764 3.764 0 0 1-.117-1.018v-.117c0-.379.039-.695.117-.948.078-.254.184-.457.316-.609.133-.156.287-.267.463-.333.179-.067.368-.1.567-.1.199 0 .386.033.562.1.179.066.336.177.468.333.133.152.238.355.316.609.078.253.117.569.117.948v.117c0 .406-.039.745-.117 1.018a1.834 1.834 0 0 1-.316.65c-.132.16-.289.273-.468.339-.176.066-.363.1-.562.1Zm0-.48a.932.932 0 0 0 .345-.065.661.661 0 0 0 .293-.245c.086-.121.152-.287.199-.498.051-.21.076-.484.076-.819v-.117a3.04 3.04 0 0 0-.076-.749 1.239 1.239 0 0 0-.199-.462.637.637 0 0 0-.293-.235.968.968 0 0 0-.696 0 .677.677 0 0 0-.292.235 1.364 1.364 0 0 0-.199.462 3.281 3.281 0 0 0-.071.749v.117c0 .335.024.609.071.819.05.211.117.377.199.498a.705.705 0 0 0 .292.245.948.948 0 0 0 .351.065ZM202.013 260.059c-.199 0-.388-.034-.568-.1a1.106 1.106 0 0 1-.462-.339 1.834 1.834 0 0 1-.316-.65 3.764 3.764 0 0 1-.117-1.018v-.117c0-.379.039-.695.117-.948.078-.254.183-.457.316-.609.133-.156.287-.267.462-.333.18-.067.369-.1.568-.1.199 0 .386.033.562.1.179.066.335.177.468.333.132.152.238.355.316.609.078.253.117.569.117.948v.117c0 .406-.039.745-.117 1.018a1.851 1.851 0 0 1-.316.65c-.133.16-.289.273-.468.339-.176.066-.363.1-.562.1Zm0-.48a.932.932 0 0 0 .345-.065.667.667 0 0 0 .293-.245c.086-.121.152-.287.199-.498.05-.21.076-.484.076-.819v-.117c0-.304-.026-.554-.076-.749a1.239 1.239 0 0 0-.199-.462.642.642 0 0 0-.293-.235.968.968 0 0 0-.696 0 .685.685 0 0 0-.293.235 1.384 1.384 0 0 0-.199.462c-.047.195-.07.445-.07.749v.117c0 .335.023.609.07.819.051.211.117.377.199.498a.713.713 0 0 0 .293.245.948.948 0 0 0 .351.065Zm3.512.48c-.223 0-.416-.03-.58-.088a1.414 1.414 0 0 1-.415-.24 1.054 1.054 0 0 1-.351-.726h.55a.604.604 0 0 0 .234.392c.14.113.328.17.562.17.265 0 .474-.082.626-.246.152-.168.228-.4.228-.696a1.11 1.11 0 0 0-.076-.433.754.754 0 0 0-.462-.457.965.965 0 0 0-.316-.052c-.211 0-.377.039-.498.117a.895.895 0 0 0-.269.269h-.491v-2.165h2.428v.48h-1.878v1.141c.203-.223.468-.334.796-.334.405 0 .725.123.959.369.238.246.357.601.357 1.065 0 .218-.035.417-.105.597a1.245 1.245 0 0 1-.732.737c-.171.066-.361.1-.567.1Zm2.575 0a.411.411 0 0 1-.293-.117.411.411 0 0 1-.117-.293.398.398 0 0 1 .41-.41.39.39 0 0 1 .287.117.388.388 0 0 1 .123.293.4.4 0 0 1-.123.293.39.39 0 0 1-.287.117Zm1.111-.51 1.638-1.422c.125-.105.226-.2.305-.286a1.66 1.66 0 0 0 .193-.24.928.928 0 0 0 .123-.468.807.807 0 0 0-.205-.568c-.137-.152-.324-.228-.562-.228-.285 0-.503.078-.655.234-.153.152-.229.369-.229.649h-.55c0-.199.033-.382.1-.55.07-.171.167-.318.292-.439a1.543 1.543 0 0 1 1.042-.386c.207 0 .392.033.556.1.164.062.302.152.415.269.113.113.199.248.258.404.058.156.088.327.088.515 0 .14-.022.271-.065.392a1.39 1.39 0 0 1-.181.345 2.049 2.049 0 0 1-.275.322 8.465 8.465 0 0 1-.351.316l-1.223 1.012h2.153v.48h-2.867v-.451Zm4.974.51c-.199 0-.388-.034-.567-.1a1.102 1.102 0 0 1-.463-.339 1.851 1.851 0 0 1-.316-.65 3.764 3.764 0 0 1-.117-1.018v-.117c0-.379.039-.695.117-.948.078-.254.184-.457.316-.609.133-.156.287-.267.463-.333.179-.067.368-.1.567-.1.199 0 .386.033.562.1.179.066.336.177.468.333.133.152.238.355.316.609.078.253.117.569.117.948v.117c0 .406-.039.745-.117 1.018a1.834 1.834 0 0 1-.316.65c-.132.16-.289.273-.468.339-.176.066-.363.1-.562.1Zm0-.48a.932.932 0 0 0 .345-.065.661.661 0 0 0 .293-.245c.086-.121.152-.287.199-.498.051-.21.076-.484.076-.819v-.117a3.04 3.04 0 0 0-.076-.749 1.239 1.239 0 0 0-.199-.462.637.637 0 0 0-.293-.235.968.968 0 0 0-.696 0 .677.677 0 0 0-.292.235 1.364 1.364 0 0 0-.199.462 3.281 3.281 0 0 0-.071.749v.117c0 .335.024.609.071.819.05.211.117.377.199.498a.705.705 0 0 0 .292.245.948.948 0 0 0 .351.065ZM235.864 260.059c-.199 0-.388-.034-.567-.1a1.102 1.102 0 0 1-.463-.339 1.851 1.851 0 0 1-.316-.65 3.764 3.764 0 0 1-.117-1.018v-.117c0-.379.039-.695.117-.948.078-.254.184-.457.316-.609.133-.156.287-.267.463-.333.179-.067.368-.1.567-.1.199 0 .387.033.562.1.18.066.336.177.468.333.133.152.238.355.316.609.078.253.117.569.117.948v.117c0 .406-.039.745-.117 1.018a1.834 1.834 0 0 1-.316.65c-.132.16-.288.273-.468.339-.175.066-.363.1-.562.1Zm0-.48a.941.941 0 0 0 .346-.065.664.664 0 0 0 .292-.245c.086-.121.152-.287.199-.498.051-.21.076-.484.076-.819v-.117a3.04 3.04 0 0 0-.076-.749 1.239 1.239 0 0 0-.199-.462.64.64 0 0 0-.292-.235.972.972 0 0 0-.697 0 .677.677 0 0 0-.292.235 1.364 1.364 0 0 0-.199.462 3.281 3.281 0 0 0-.071.749v.117c0 .335.024.609.071.819.05.211.117.377.199.498a.705.705 0 0 0 .292.245.952.952 0 0 0 .351.065Zm3.658.48c-.226 0-.431-.037-.614-.112a1.24 1.24 0 0 1-.474-.339 1.646 1.646 0 0 1-.298-.585 2.903 2.903 0 0 1-.106-.837v-.117c0-.402.041-.743.123-1.024.082-.285.193-.515.334-.691.14-.179.304-.308.491-.386.187-.082.388-.123.603-.123.316 0 .581.076.796.228.218.149.363.375.433.679h-.55c-.109-.277-.336-.415-.679-.415-.148 0-.285.025-.41.076a.796.796 0 0 0-.327.252c-.09.117-.162.273-.217.468a3.055 3.055 0 0 0-.094.731.95.95 0 0 1 .199-.24.932.932 0 0 1 .252-.164 1.393 1.393 0 0 1 .568-.123c.409 0 .735.116.977.346.246.226.369.552.369.977v.059c0 .195-.037.374-.112.538-.07.164-.167.306-.292.427a1.443 1.443 0 0 1-.972.375Zm-.046-.492c.284 0 .501-.072.649-.216.148-.145.223-.354.223-.627v-.058c0-.269-.075-.476-.223-.62-.148-.145-.365-.217-.649-.217-.285 0-.502.072-.65.217-.148.144-.222.351-.222.62v.058c0 .27.074.478.222.627.148.144.365.216.65.216Zm2.624.492a.411.411 0 0 1-.293-.117.411.411 0 0 1-.117-.293.398.398 0 0 1 .41-.41.39.39 0 0 1 .287.117.388.388 0 0 1 .123.293.4.4 0 0 1-.123.293.39.39 0 0 1-.287.117Zm1.111-.51 1.638-1.422c.125-.105.226-.2.305-.286a1.66 1.66 0 0 0 .193-.24.928.928 0 0 0 .123-.468.807.807 0 0 0-.205-.568c-.137-.152-.324-.228-.562-.228-.285 0-.503.078-.655.234-.153.152-.229.369-.229.649h-.55c0-.199.033-.382.1-.55.07-.171.167-.318.292-.439a1.543 1.543 0 0 1 1.042-.386c.207 0 .392.033.556.1.164.062.302.152.415.269.113.113.199.248.258.404.058.156.088.327.088.515 0 .14-.022.271-.065.392a1.39 1.39 0 0 1-.181.345 2.049 2.049 0 0 1-.275.322 8.465 8.465 0 0 1-.351.316l-1.223 1.012h2.153v.48h-2.867v-.451Zm4.974.51c-.199 0-.388-.034-.567-.1a1.102 1.102 0 0 1-.463-.339 1.851 1.851 0 0 1-.316-.65 3.764 3.764 0 0 1-.117-1.018v-.117c0-.379.039-.695.117-.948.078-.254.184-.457.316-.609.133-.156.287-.267.463-.333.179-.067.368-.1.567-.1.199 0 .386.033.562.1.179.066.336.177.468.333.133.152.238.355.316.609.078.253.117.569.117.948v.117c0 .406-.039.745-.117 1.018a1.834 1.834 0 0 1-.316.65c-.132.16-.289.273-.468.339-.176.066-.363.1-.562.1Zm0-.48a.932.932 0 0 0 .345-.065.661.661 0 0 0 .293-.245c.086-.121.152-.287.199-.498.051-.21.076-.484.076-.819v-.117a3.04 3.04 0 0 0-.076-.749 1.239 1.239 0 0 0-.199-.462.637.637 0 0 0-.293-.235.968.968 0 0 0-.696 0 .677.677 0 0 0-.292.235 1.364 1.364 0 0 0-.199.462 3.281 3.281 0 0 0-.071.749v.117c0 .335.024.609.071.819.05.211.117.377.199.498a.705.705 0 0 0 .292.245.948.948 0 0 0 .351.065ZM271.304 260.059c-.199 0-.388-.034-.567-.1a1.102 1.102 0 0 1-.463-.339 1.851 1.851 0 0 1-.316-.65 3.764 3.764 0 0 1-.117-1.018v-.117c0-.379.039-.695.117-.948.078-.254.184-.457.316-.609.133-.156.287-.267.463-.333.179-.067.368-.1.567-.1.199 0 .387.033.562.1.18.066.336.177.468.333.133.152.238.355.316.609.078.253.117.569.117.948v.117c0 .406-.039.745-.117 1.018a1.834 1.834 0 0 1-.316.65c-.132.16-.288.273-.468.339-.175.066-.363.1-.562.1Zm0-.48a.941.941 0 0 0 .346-.065.664.664 0 0 0 .292-.245c.086-.121.152-.287.199-.498.051-.21.076-.484.076-.819v-.117a3.04 3.04 0 0 0-.076-.749 1.239 1.239 0 0 0-.199-.462.64.64 0 0 0-.292-.235.976.976 0 0 0-.697 0 .683.683 0 0 0-.292.235 1.364 1.364 0 0 0-.199.462 3.281 3.281 0 0 0-.071.749v.117c0 .335.024.609.071.819.05.211.117.377.199.498a.711.711 0 0 0 .292.245c.11.043.227.065.351.065Zm4.109-3.195h-2.177v-.48h2.751v.45L274.524 260h-.586l1.475-3.616Zm1.687 3.675a.411.411 0 0 1-.293-.117.411.411 0 0 1-.117-.293.398.398 0 0 1 .41-.41.39.39 0 0 1 .287.117.388.388 0 0 1 .123.293.4.4 0 0 1-.123.293.39.39 0 0 1-.287.117Zm1.111-.51 1.638-1.422c.125-.105.226-.2.305-.286a1.66 1.66 0 0 0 .193-.24.928.928 0 0 0 .123-.468.807.807 0 0 0-.205-.568c-.137-.152-.324-.228-.562-.228-.285 0-.503.078-.655.234-.153.152-.229.369-.229.649h-.55c0-.199.033-.382.1-.55.07-.171.167-.318.292-.439a1.543 1.543 0 0 1 1.042-.386c.207 0 .392.033.556.1.164.062.302.152.415.269.113.113.199.248.258.404.058.156.088.327.088.515 0 .14-.022.271-.065.392a1.39 1.39 0 0 1-.181.345 2.049 2.049 0 0 1-.275.322 8.465 8.465 0 0 1-.351.316l-1.223 1.012h2.153v.48h-2.867v-.451Zm4.974.51c-.199 0-.388-.034-.567-.1a1.102 1.102 0 0 1-.463-.339 1.851 1.851 0 0 1-.316-.65 3.764 3.764 0 0 1-.117-1.018v-.117c0-.379.039-.695.117-.948.078-.254.184-.457.316-.609.133-.156.287-.267.463-.333.179-.067.368-.1.567-.1.199 0 .386.033.562.1.179.066.336.177.468.333.133.152.238.355.316.609.078.253.117.569.117.948v.117c0 .406-.039.745-.117 1.018a1.834 1.834 0 0 1-.316.65c-.132.16-.289.273-.468.339-.176.066-.363.1-.562.1Zm0-.48a.932.932 0 0 0 .345-.065.661.661 0 0 0 .293-.245c.086-.121.152-.287.199-.498.051-.21.076-.484.076-.819v-.117a3.04 3.04 0 0 0-.076-.749 1.239 1.239 0 0 0-.199-.462.637.637 0 0 0-.293-.235.968.968 0 0 0-.696 0 .677.677 0 0 0-.292.235 1.364 1.364 0 0 0-.199.462 3.281 3.281 0 0 0-.071.749v.117c0 .335.024.609.071.819.05.211.117.377.199.498a.705.705 0 0 0 .292.245.948.948 0 0 0 .351.065Z" fill="#737A92"/><path stroke="#D7DBEB" stroke-width=".585" stroke-dasharray="1.17 4.68" d="M50 188.707h315M50 152.707h315M50 117.707h315"/><path d="M56.237 206.503c0-11.906 15.681-9.308 26.055-9.308s19.059-15.153 29.191-15.153c10.133 0 14.716 10.174 28.709 10.174 13.992 0 17.37-74.683 32.568-74.683 15.199 0 16.164 53.252 26.538 53.252 10.374 0 13.269 11.257 26.537 11.257 13.269 0 19.059-26.626 29.674-26.626 8.492 0 22.838 45.747 28.95 68.621" stroke="#9DECF1" stroke-width="1.17" stroke-linecap="round"/><path d="M56.237 151.084c9.062 0 13.831 99.286 28.379 99.286 14.547 0 13.354-132.837 29.571-132.837 16.216 0 7.869 67.101 25.755 67.101s14.786 65.736 29.333 65.736h58.188c16.694 0 10.016-113.743 25.279-113.743 15.262 0 4.054 32.186 31.717 32.186" stroke="#0D76E9" stroke-width="1.17" stroke-linecap="round"/></g><rect x="51.489" y="274" width="15" height="2" rx="1" fill="#0D76E9"/><path d="M74.284 273.085h.66V278h-.66v-4.915Zm1.997 1.193h.576v.703a1.204 1.204 0 0 1 .442-.541 1.456 1.456 0 0 1 .829-.232c.468 0 .814.126 1.04.379.229.248.343.614.343 1.096V278h-.618v-2.177c0-.346-.072-.608-.217-.786-.145-.178-.389-.267-.73-.267-.183 0-.342.03-.478.091a.944.944 0 0 0-.513.576 1.348 1.348 0 0 0-.056.386V278h-.618v-3.722Zm5.76 3.792c-.239 0-.461-.037-.667-.112a1.484 1.484 0 0 1-.534-.351 1.745 1.745 0 0 1-.358-.597 2.51 2.51 0 0 1-.126-.836v-.14c0-.3.046-.564.14-.794.094-.229.218-.419.372-.568.155-.155.333-.27.534-.345a1.77 1.77 0 0 1 .639-.119c.22 0 .417.03.59.091a1.385 1.385 0 0 1 .772.632c.084.145.145.302.183.471h-.632a1.372 1.372 0 0 0-.134-.246.696.696 0 0 0-.182-.204.819.819 0 0 0-.253-.133 1.083 1.083 0 0 0-.344-.049 1.042 1.042 0 0 0-.73.302 1.084 1.084 0 0 0-.24.386 1.74 1.74 0 0 0-.083.576v.14c0 .239.028.445.084.618.06.169.14.307.239.415.098.103.21.18.337.231.126.047.257.071.393.071.23 0 .421-.057.576-.169a.897.897 0 0 0 .337-.463h.632a1.527 1.527 0 0 1-.548.877c-.276.211-.608.316-.997.316Zm3.932 0c-.239 0-.466-.037-.681-.112a1.67 1.67 0 0 1-.57-.351 1.741 1.741 0 0 1-.392-.597 2.184 2.184 0 0 1-.148-.836v-.14c0-.3.05-.564.148-.794a1.617 1.617 0 0 1 .962-.913c.215-.079.442-.119.68-.119.24 0 .467.04.682.119a1.618 1.618 0 0 1 .962.913c.098.23.147.494.147.794v.14c0 .319-.049.597-.147.836-.098.239-.23.438-.393.597a1.672 1.672 0 0 1-.569.351 2.056 2.056 0 0 1-.681.112Zm0-.561c.14 0 .28-.024.421-.071.14-.051.265-.128.372-.231.108-.108.195-.246.26-.415.07-.168.106-.374.106-.618v-.14a1.42 1.42 0 0 0-.106-.576 1.13 1.13 0 0 0-.26-.393.984.984 0 0 0-.372-.225 1.32 1.32 0 0 0-.843 0 .984.984 0 0 0-.372.225 1.214 1.214 0 0 0-.267.393 1.51 1.51 0 0 0-.098.576v.14c0 .244.033.45.099.618.07.169.159.307.266.415.108.103.232.18.373.231.14.047.28.071.42.071Zm2.665-3.231h.576v.703c.08-.23.216-.415.408-.555.196-.145.419-.218.667-.218.323 0 .57.07.744.211.173.135.293.311.358.526.122-.229.276-.409.464-.54.192-.131.421-.197.688-.197.384 0 .683.117.899.351.215.23.323.592.323 1.089V278h-.618v-2.212c0-.37-.066-.632-.197-.786-.126-.155-.32-.232-.583-.232a.769.769 0 0 0-.323.07.825.825 0 0 0-.274.204.992.992 0 0 0-.19.323c-.046.126-.07.267-.07.421V278h-.617v-2.212c0-.37-.066-.632-.197-.786-.131-.155-.325-.232-.583-.232a.768.768 0 0 0-.323.07.825.825 0 0 0-.274.204.992.992 0 0 0-.19.323c-.046.126-.07.267-.07.421V278h-.618v-3.722Zm7.758 3.792c-.238 0-.465-.037-.68-.112a1.58 1.58 0 0 1-.57-.344 1.741 1.741 0 0 1-.393-.597 2.207 2.207 0 0 1-.147-.843v-.14c0-.309.047-.576.14-.801.094-.229.218-.419.372-.568.16-.155.342-.27.548-.345.21-.074.43-.112.66-.112.548 0 .972.15 1.271.449.3.3.45.724.45 1.272v.393h-2.823c0 .22.035.405.105.555.07.149.162.271.274.365.112.093.236.161.372.203.14.042.281.064.421.064.281 0 .497-.047.647-.141a.781.781 0 0 0 .33-.386h.603a1.211 1.211 0 0 1-.203.47c-.094.136-.21.251-.351.344a1.595 1.595 0 0 1-.47.204c-.174.047-.359.07-.556.07Zm-.035-3.3c-.145 0-.285.021-.421.063a.967.967 0 0 0-.618.513 1.042 1.042 0 0 0-.098.47h2.24a1.217 1.217 0 0 0-.099-.484.792.792 0 0 0-.231-.323.884.884 0 0 0-.351-.183 1.544 1.544 0 0 0-.422-.056Z" fill="#737A92"/><rect x="129.489" y="274" width="15" height="2" rx="1" fill="#7EF0BC"/><path d="M152.213 273.085h1.686c.323 0 .604.037.842.112.239.075.436.18.59.316.159.131.276.29.351.477.075.183.113.384.113.604 0 .22-.038.424-.113.611a1.245 1.245 0 0 1-.351.478 1.672 1.672 0 0 1-.59.309 2.815 2.815 0 0 1-.842.112h-1.026V278h-.66v-4.915Zm1.651 2.443c.234 0 .43-.021.589-.063.164-.047.295-.11.394-.19a.635.635 0 0 0 .217-.294c.047-.118.071-.246.071-.387 0-.14-.024-.269-.071-.386a.642.642 0 0 0-.217-.295 1.038 1.038 0 0 0-.394-.182 2.103 2.103 0 0 0-.589-.071h-.991v1.868h.991Zm3.802 2.542c-.206 0-.388-.028-.548-.084a1.204 1.204 0 0 1-.393-.246 1.028 1.028 0 0 1-.246-.365 1.238 1.238 0 0 1-.084-.463c0-.37.108-.637.323-.801.22-.164.534-.246.941-.246h1.208v-.252c0-.319-.073-.539-.218-.661-.14-.121-.353-.182-.639-.182-.267 0-.461.051-.583.154a.507.507 0 0 0-.203.337h-.618a.964.964 0 0 1 .119-.414 1.13 1.13 0 0 1 .295-.337c.126-.094.276-.166.45-.218.173-.056.365-.084.575-.084.44 0 .789.105 1.047.316.262.206.393.545.393 1.018V277.572c.005.145.016.288.035.428h-.541a3.994 3.994 0 0 1-.028-.302 8.033 8.033 0 0 1-.007-.33 1.24 1.24 0 0 1-.477.499c-.22.135-.487.203-.801.203Zm.134-.561c.145 0 .28-.019.407-.057.131-.042.246-.1.344-.175a.886.886 0 0 0 .232-.288.871.871 0 0 0 .084-.393v-.253h-1.103c-.229 0-.409.047-.54.14-.131.089-.197.232-.197.429 0 .173.061.316.183.428.126.112.323.169.59.169Zm3.131 1.966c-.07 0-.141-.007-.211-.021v-.562c.07.014.141.021.211.021a.44.44 0 0 0 .182-.035.389.389 0 0 0 .148-.134c.047-.065.096-.159.147-.28a5.49 5.49 0 0 0 .19-.464l-1.58-3.722h.688l1.208 3.02 1.095-3.02h.66L162.265 278a8.604 8.604 0 0 1-.281.674c-.089.187-.185.34-.288.457a.851.851 0 0 1-.33.259 1.02 1.02 0 0 1-.435.085Zm3.438-5.197h.575v.703c.08-.23.216-.415.408-.555.196-.145.419-.218.667-.218.323 0 .571.07.744.211.173.135.293.311.358.526.122-.229.277-.409.464-.54a1.19 1.19 0 0 1 .688-.197c.384 0 .683.117.899.351.215.23.323.592.323 1.089V278h-.618v-2.212c0-.37-.066-.632-.197-.786-.126-.155-.32-.232-.583-.232a.77.77 0 0 0-.323.07.815.815 0 0 0-.273.204.99.99 0 0 0-.19.323 1.2 1.2 0 0 0-.07.421V278h-.618v-2.212c0-.37-.066-.632-.197-.786-.131-.155-.325-.232-.583-.232a.77.77 0 0 0-.323.07.829.829 0 0 0-.274.204 1.005 1.005 0 0 0-.189.323 1.2 1.2 0 0 0-.07.421V278h-.618v-3.722Zm7.758 3.792c-.239 0-.466-.037-.682-.112a1.573 1.573 0 0 1-.568-.344 1.751 1.751 0 0 1-.394-.597 2.213 2.213 0 0 1-.147-.843v-.14c0-.309.047-.576.14-.801a1.65 1.65 0 0 1 .372-.568c.16-.155.342-.27.548-.345a1.98 1.98 0 0 1 .66-.112c.548 0 .972.15 1.271.449.3.3.45.724.45 1.272v.393h-2.823c0 .22.035.405.105.555.07.149.162.271.274.365.112.093.236.161.372.203.141.042.281.064.422.064.28 0 .496-.047.646-.141a.786.786 0 0 0 .33-.386h.604a1.226 1.226 0 0 1-.204.47 1.292 1.292 0 0 1-.351.344 1.599 1.599 0 0 1-.471.204c-.173.047-.358.07-.554.07Zm-.036-3.3c-.145 0-.285.021-.421.063a.967.967 0 0 0-.618.513 1.048 1.048 0 0 0-.098.47h2.24a1.237 1.237 0 0 0-.098-.484.803.803 0 0 0-.232-.323.88.88 0 0 0-.351-.183 1.548 1.548 0 0 0-.422-.056Zm2.564-.492h.576v.703a1.208 1.208 0 0 1 .442-.541c.108-.07.23-.127.365-.169.141-.042.295-.063.464-.063.468 0 .815.126 1.039.379.23.248.344.614.344 1.096V278h-.618v-2.177c0-.346-.072-.608-.217-.786-.145-.178-.389-.267-.731-.267-.182 0-.341.03-.477.091a.943.943 0 0 0-.513.576 1.365 1.365 0 0 0-.056.386V278h-.618v-3.722Zm5.621 3.757c-.398 0-.686-.089-.864-.267-.173-.182-.259-.456-.259-.821v-2.121h-.562v-.548h.562v-.842h.618v.842h.997v.548h-.997v2.051c0 .21.044.362.133.456.089.094.26.14.513.14.14 0 .28-.007.421-.021V278a5.997 5.997 0 0 1-.267.021 2.935 2.935 0 0 1-.295.014Zm2.742.035c-.249 0-.464-.028-.646-.084a1.543 1.543 0 0 1-.457-.239 1.081 1.081 0 0 1-.295-.344 1.452 1.452 0 0 1-.147-.421h.618c.032.15.119.281.259.393.146.108.368.162.668.162.173 0 .318-.014.435-.043a.964.964 0 0 0 .281-.119.464.464 0 0 0 .161-.175.51.51 0 0 0 .05-.218c0-.08-.017-.15-.05-.211a.377.377 0 0 0-.161-.161 1.064 1.064 0 0 0-.316-.134 3.037 3.037 0 0 0-.499-.105 3.646 3.646 0 0 1-.562-.119 1.518 1.518 0 0 1-.421-.218 1.021 1.021 0 0 1-.267-.316 1.046 1.046 0 0 1-.091-.457c0-.14.03-.273.091-.4a.979.979 0 0 1 .274-.337c.122-.098.272-.175.45-.232.177-.056.386-.084.625-.084.22 0 .412.03.575.091.164.057.302.134.415.232.117.098.208.213.274.344.065.131.112.272.14.422h-.618a.716.716 0 0 0-.239-.401c-.121-.103-.304-.154-.547-.154-.305 0-.518.051-.639.154a.453.453 0 0 0-.183.365c0 .085.014.157.042.218a.457.457 0 0 0 .155.162c.074.046.17.086.288.119.121.028.271.054.449.077.229.028.433.07.611.127.178.051.328.124.449.217a.845.845 0 0 1 .274.33c.066.131.098.288.098.471a.92.92 0 0 1-.098.421.926.926 0 0 1-.281.344 1.499 1.499 0 0 1-.484.239 2.447 2.447 0 0 1-.681.084Z" fill="#737A92"/><defs><clipPath id="a"><path fill="#fff" transform="translate(34 107)" d="M0 0h250v154H0z"/></clipPath></defs></svg>