<svg width="316" height="313" fill="none" xmlns="http://www.w3.org/2000/svg"><rect y=".648" width="316" height="311.918" rx="8.193" fill="#fff"/><path d="M19.621 23.41h2.239c1.054 0 1.873.283 2.457.846.583.558.875 1.386.875 2.487v.2c0 .556-.08 1.05-.239 1.482a2.802 2.802 0 0 1-.676 1.074 2.93 2.93 0 0 1-1.074.657 4.424 4.424 0 0 1-1.443.219h-2.139V23.41Zm2.04 5.93c.338 0 .646-.043.925-.13.285-.086.527-.222.726-.407.199-.193.351-.441.458-.746.112-.305.169-.677.169-1.115v-.199c0-.404-.057-.752-.17-1.044a1.96 1.96 0 0 0-.457-.716 1.746 1.746 0 0 0-.696-.408 2.753 2.753 0 0 0-.856-.13h-.945v4.895h.846Zm7.064 1.144c-.352 0-.684-.053-.995-.16a2.436 2.436 0 0 1-.826-.497 2.474 2.474 0 0 1-.557-.845c-.14-.338-.209-.736-.209-1.194v-.199c0-.438.066-.819.2-1.144a2.26 2.26 0 0 1 .536-.806c.232-.219.498-.381.796-.487a2.83 2.83 0 0 1 .955-.16c.803 0 1.416.216 1.84.647.432.431.647 1.048.647 1.85v.558h-3.86c.007.272.05.504.13.696.086.186.195.338.328.458.14.112.295.195.467.248.18.053.362.08.548.08.378 0 .653-.06.825-.18a.908.908 0 0 0 .368-.467h1.095c-.106.524-.368.922-.786 1.194-.411.272-.912.408-1.502.408Zm-.05-4.536c-.186 0-.365.023-.537.07a1.248 1.248 0 0 0-.448.228c-.126.1-.229.232-.308.398-.08.16-.123.355-.13.587h2.766a1.645 1.645 0 0 0-.12-.617.98.98 0 0 0-.278-.398c-.12-.1-.262-.169-.428-.209-.159-.04-.331-.06-.517-.06Zm5.522 4.536c-.391 0-.726-.043-1.005-.13a2.153 2.153 0 0 1-.686-.348 1.598 1.598 0 0 1-.418-.507 2.051 2.051 0 0 1-.18-.617h1.095c.047.186.16.342.338.468.18.12.465.179.856.179.438 0 .746-.06.925-.18.18-.119.269-.274.269-.467a.437.437 0 0 0-.07-.239.59.59 0 0 0-.229-.208 1.584 1.584 0 0 0-.408-.18 3.95 3.95 0 0 0-.646-.129 5.343 5.343 0 0 1-.816-.169 2.212 2.212 0 0 1-.627-.308 1.309 1.309 0 0 1-.398-.458 1.389 1.389 0 0 1-.139-.646 1.4 1.4 0 0 1 .13-.597 1.3 1.3 0 0 1 .397-.498c.18-.14.401-.248.667-.328.272-.086.587-.13.945-.13.345 0 .643.044.895.13.252.086.461.202.627.348a1.4 1.4 0 0 1 .388.517c.093.193.153.395.179.607h-1.094a.797.797 0 0 0-.329-.477c-.159-.113-.38-.17-.666-.17-.391 0-.663.06-.816.18-.152.119-.229.258-.229.418 0 .092.02.175.06.248.04.073.106.14.199.2.093.052.219.102.378.148.166.047.375.083.627.11.305.04.583.1.835.179.259.08.478.186.657.318.186.126.328.285.428.478.1.185.149.404.149.656a1.404 1.404 0 0 1-.577 1.144 2.25 2.25 0 0 1-.716.339c-.285.08-.617.119-.995.119Zm5.571 0a3.01 3.01 0 0 1-.995-.16 2.198 2.198 0 0 1-.786-.507 2.394 2.394 0 0 1-.517-.845 3.384 3.384 0 0 1-.189-1.184v-.199c0-.424.066-.8.2-1.124.132-.325.31-.597.536-.816.232-.219.498-.381.796-.487.305-.113.624-.17.955-.17.345 0 .65.047.916.14.271.093.5.222.686.388a1.8 1.8 0 0 1 .458.567c.112.219.188.454.228.706h-1.114a1.25 1.25 0 0 0-.358-.607c-.173-.159-.444-.238-.816-.238-.185 0-.361.033-.527.1-.166.059-.312.155-.438.288a1.398 1.398 0 0 0-.298.517c-.073.205-.11.45-.11.736v.199c0 .312.037.58.11.806.073.219.172.398.298.537.126.14.272.242.438.308.166.06.342.09.527.09.617 0 1.008-.282 1.174-.846h1.114c-.053.279-.146.53-.278.756a1.996 1.996 0 0 1-.488.567 2.33 2.33 0 0 1-.686.359c-.259.08-.537.119-.836.119Zm3.33-5.382h1.014v.895a1.73 1.73 0 0 1 .518-.706c.245-.199.547-.298.905-.298.166 0 .289.006.368.02a.927.927 0 0 1 .18.04v.994a2.217 2.217 0 0 0-.31-.07 1.641 1.641 0 0 0-.337-.03c-.22 0-.408.04-.568.12a1.051 1.051 0 0 0-.378.298c-.099.12-.175.262-.228.428-.047.16-.07.325-.07.498v3.084h-1.094v-5.273Zm3.976 0h1.094v5.273h-1.094v-5.273Zm.547-.597a.707.707 0 0 1-.508-.189.707.707 0 0 1-.189-.507c0-.206.063-.372.19-.498a.687.687 0 0 1 .507-.199c.205 0 .371.067.497.2a.654.654 0 0 1 .199.497.687.687 0 0 1-.199.507.673.673 0 0 1-.497.19Zm2.034.597h1.015v.885a1.77 1.77 0 0 1 .706-.726c.319-.179.677-.268 1.075-.268.69 0 1.233.215 1.631.646.398.431.597 1.081.597 1.95v.199c0 .451-.053.846-.159 1.184-.106.338-.259.62-.458.845a1.865 1.865 0 0 1-.696.498c-.272.113-.577.169-.915.169-.378 0-.723-.083-1.035-.249a1.442 1.442 0 0 1-.666-.696v2.825h-1.095v-7.262Zm2.537 4.427c.411 0 .743-.143.995-.428.252-.285.378-.723.378-1.313v-.199c0-.557-.123-.968-.368-1.233-.245-.273-.58-.408-1.005-.408-.186 0-.365.03-.537.09-.172.059-.328.148-.468.268a1.207 1.207 0 0 0-.318.437c-.08.173-.12.372-.12.597v.697c0 .252.04.47.12.656.08.186.186.342.318.468.133.126.286.219.458.278.172.06.355.09.547.09Zm5.623.895c-.603 0-1.038-.13-1.303-.388-.259-.258-.388-.676-.388-1.253v-2.746h-.746v-.935h.746v-1.194h1.094v1.194h1.343v.935h-1.343v2.597c0 .311.057.53.17.656.119.12.344.18.676.18.199 0 .398-.01.597-.03v.934a7.123 7.123 0 0 1-.388.03c-.133.014-.285.02-.458.02Zm2.043-5.322h1.095v5.273h-1.095v-5.273Zm.548-.597a.707.707 0 0 1-.508-.189.707.707 0 0 1-.189-.507c0-.206.063-.372.19-.498a.687.687 0 0 1 .507-.199c.205 0 .371.067.497.2a.655.655 0 0 1 .199.497.688.688 0 0 1-.199.507.673.673 0 0 1-.497.19Zm4.322 5.979c-.364 0-.706-.056-1.024-.17a2.376 2.376 0 0 1-.816-.517 2.376 2.376 0 0 1-.547-.835 3.203 3.203 0 0 1-.2-1.174v-.199c0-.418.067-.786.2-1.104.132-.325.315-.597.547-.816.232-.226.504-.395.816-.507.318-.113.66-.17 1.024-.17.365 0 .703.057 1.015.17a2.294 2.294 0 0 1 1.373 1.323c.133.318.199.686.199 1.104v.199a3.2 3.2 0 0 1-.2 1.174c-.132.332-.314.61-.546.835a2.358 2.358 0 0 1-.826.518 2.96 2.96 0 0 1-1.015.169Zm0-.955c.193 0 .375-.033.547-.1.18-.066.335-.169.468-.308.14-.14.249-.318.328-.537.087-.219.13-.484.13-.796v-.199c0-.285-.043-.53-.13-.736a1.373 1.373 0 0 0-.796-.806 1.589 1.589 0 0 0-1.104 0 1.404 1.404 0 0 0-.467.299 1.561 1.561 0 0 0-.329.507c-.08.205-.119.45-.119.736v.199c0 .312.04.577.12.796.086.219.195.398.328.537.139.14.295.242.467.308.18.067.365.1.557.1Zm3.677-4.427h1.015v.885c.126-.265.332-.497.617-.696.285-.199.653-.298 1.104-.298.643 0 1.127.175 1.453.527.324.345.487.852.487 1.522v3.332h-1.094v-3.083c0-.445-.093-.78-.279-1.005-.186-.226-.49-.338-.915-.338-.232 0-.431.04-.597.119a1.123 1.123 0 0 0-.627.726c-.046.16-.07.325-.07.498v3.084h-1.094v-5.273Zm7.227.627-.975.666-.427-.736 1.074-.507-1.074-.508.417-.736.985.667-.08-1.164h.836l-.08 1.164.986-.667.418.736-1.075.508 1.075.507-.428.736-.975-.666.08 1.164h-.836l.08-1.164Z" fill="#1C1C1C"/><path d="M275.352 28.299h1.173v-3.617l-1.173.836v-.716l1.187-.843h.66v4.34h.962v.576h-2.809v-.576Zm3.409 0h1.172v-3.617l-1.172.836v-.716l1.186-.843h.66v4.34h.963v.576h-2.809v-.576Zm5.522-4.34h.589l-2.219 6.32h-.589l2.219-6.32Zm1.26 4.34h1.173v-3.617l-1.173.836v-.716l1.187-.843h.66v4.34h.962v.576h-2.809v-.576Zm5.199.646c-.239 0-.466-.04-.681-.12a1.324 1.324 0 0 1-.555-.407 2.195 2.195 0 0 1-.379-.78c-.094-.327-.141-.734-.141-1.221v-.14c0-.455.047-.834.141-1.138a1.98 1.98 0 0 1 .379-.73c.159-.188.344-.321.555-.4.215-.08.442-.12.681-.12.239 0 .463.04.674.12.215.079.402.212.562.4.159.182.285.425.379.73.093.304.14.683.14 1.137v.14c0 .488-.047.895-.14 1.223-.094.323-.22.582-.379.78-.16.191-.347.327-.562.406-.211.08-.435.12-.674.12Zm0-.576c.145 0 .283-.026.414-.077a.803.803 0 0 0 .351-.295c.103-.145.183-.344.239-.597.061-.253.091-.58.091-.983v-.14c0-.366-.03-.666-.091-.9a1.487 1.487 0 0 0-.239-.554.768.768 0 0 0-.351-.281 1.121 1.121 0 0 0-.414-.077c-.15 0-.29.025-.422.077a.822.822 0 0 0-.351.28c-.098.137-.178.321-.238.555a3.904 3.904 0 0 0-.085.9v.14c0 .402.028.73.085.983.06.253.14.452.238.597.103.14.22.238.351.295.132.051.272.077.422.077Zm4.354.576c-.238 0-.465-.04-.681-.12a1.337 1.337 0 0 1-.555-.407c-.159-.197-.285-.456-.379-.78-.093-.327-.14-.734-.14-1.221v-.14c0-.455.047-.834.14-1.138.094-.305.22-.548.379-.73.16-.188.345-.321.555-.4.216-.08.443-.12.681-.12.239 0 .464.04.674.12.216.079.403.212.562.4.159.182.286.425.379.73.094.304.141.683.141 1.137v.14c0 .488-.047.895-.141 1.223-.093.323-.22.582-.379.78a1.314 1.314 0 0 1-.562.406c-.21.08-.435.12-.674.12Zm0-.576c.145 0 .284-.026.415-.077a.814.814 0 0 0 .351-.295c.103-.145.182-.344.239-.597.06-.253.091-.58.091-.983v-.14c0-.366-.031-.666-.091-.9a1.503 1.503 0 0 0-.239-.554.778.778 0 0 0-.351-.281 1.127 1.127 0 0 0-.415-.077c-.149 0-.29.025-.421.077a.822.822 0 0 0-.351.28c-.098.137-.178.321-.239.555a3.968 3.968 0 0 0-.084.9v.14c0 .402.028.73.084.983.061.253.141.452.239.597.103.14.22.238.351.295.131.051.272.077.421.077Z" fill="#737A92"/><rect x="19.018" y="38.349" width="277.963" height="46.141" rx="9.07" fill="#fff"/><rect x="19.018" y="38.349" width="277.963" height="46.141" rx="9.07" stroke="#3DE297" stroke-width=".585"/><path d="M31.998 57.489c-.643 0-1.23-.15-1.76-.448a3.397 3.397 0 0 1-1.264-1.263 3.676 3.676 0 0 1-.457-1.831c0-.676.152-1.283.457-1.82a3.303 3.303 0 0 1 1.264-1.264 3.469 3.469 0 0 1 1.76-.457c.65 0 1.24.152 1.771.457.53.299.949.716 1.254 1.254.305.537.457 1.147.457 1.83s-.152 1.293-.457 1.83a3.324 3.324 0 0 1-1.254 1.264c-.53.298-1.12.448-1.77.448Zm0-.786c.485 0 .919-.113 1.304-.339.391-.225.696-.547.915-.964.225-.418.338-.902.338-1.453 0-.557-.113-1.041-.338-1.452a2.358 2.358 0 0 0-.905-.965 2.548 2.548 0 0 0-1.313-.339c-.491 0-.929.113-1.314.339-.384.225-.69.547-.915.965-.219.41-.328.895-.328 1.452 0 .55.11 1.035.328 1.453.226.417.53.739.915.964.392.226.83.339 1.314.339Zm9.512-4.736v5.452h-.905v-.806a1.789 1.789 0 0 1-.726.657 2.236 2.236 0 0 1-1.015.228c-.424 0-.806-.086-1.144-.258a1.98 1.98 0 0 1-.806-.796c-.192-.352-.288-.78-.288-1.283v-3.194h.895v3.074c0 .538.136.952.408 1.244.272.285.643.428 1.114.428.484 0 .866-.15 1.144-.448.279-.298.418-.733.418-1.303v-2.995h.905Zm2.434.886c.16-.312.385-.554.676-.727.299-.172.66-.258 1.085-.258v.935h-.239c-1.015 0-1.522.55-1.522 1.651v2.965h-.905v-5.452h.905v.886Zm5.12 1.83c0-.563.113-1.054.338-1.472.226-.425.537-.753.935-.985a2.729 2.729 0 0 1 1.383-.348c.67 0 1.22.162 1.651.487.438.325.727.776.866 1.353h-.975a1.392 1.392 0 0 0-.547-.786c-.266-.192-.597-.288-.995-.288-.517 0-.935.179-1.253.537-.319.352-.478.852-.478 1.502 0 .657.16 1.164.478 1.522.318.358.736.538 1.253.538.398 0 .73-.093.995-.28.265-.185.447-.45.547-.795h.975a2.421 2.421 0 0 1-.876 1.343c-.437.332-.984.497-1.641.497-.517 0-.978-.116-1.383-.348a2.436 2.436 0 0 1-.935-.985c-.225-.424-.338-.921-.338-1.492Zm8.758 2.825c-.51 0-.975-.116-1.392-.348a2.53 2.53 0 0 1-.975-.985c-.232-.43-.348-.928-.348-1.492 0-.557.119-1.048.358-1.472.245-.431.577-.76.994-.985a2.84 2.84 0 0 1 1.403-.348c.517 0 .985.116 1.403.348.418.226.746.55.985.975.245.424.368.919.368 1.482 0 .564-.126 1.061-.378 1.492a2.56 2.56 0 0 1-1.005.985 2.895 2.895 0 0 1-1.413.349Zm0-.795c.325 0 .63-.077.916-.23.285-.152.514-.38.686-.686.18-.305.269-.676.269-1.114 0-.438-.087-.809-.259-1.114a1.66 1.66 0 0 0-.676-.677 1.855 1.855 0 0 0-.906-.228c-.331 0-.636.076-.915.228-.272.146-.49.372-.657.677-.165.305-.248.676-.248 1.114 0 .445.08.82.239 1.124.165.305.384.534.656.687.272.146.57.219.895.219Zm10.542-4.845c.424 0 .802.09 1.134.268.332.173.594.435.786.786.192.352.288.78.288 1.284v3.213h-.895v-3.084c0-.544-.136-.958-.408-1.243-.265-.292-.627-.438-1.084-.438-.471 0-.846.152-1.124.457-.279.299-.418.733-.418 1.304v3.004h-.895v-3.084c0-.544-.136-.958-.408-1.243-.266-.292-.627-.438-1.085-.438-.47 0-.845.152-1.124.457-.278.299-.418.733-.418 1.304v3.004h-.905v-5.452h.905v.786c.18-.285.418-.504.717-.656.305-.153.64-.23 1.004-.23.458 0 .863.104 1.214.31.352.205.614.507.786.905.153-.385.405-.684.756-.896a2.227 2.227 0 0 1 1.174-.318Zm4.599 1.104c.179-.312.444-.57.796-.776a2.392 2.392 0 0 1 1.243-.318c.484 0 .922.116 1.313.348.398.232.71.56.935.985.226.418.339.905.339 1.462a3.13 3.13 0 0 1-.339 1.473 2.488 2.488 0 0 1-2.248 1.362c-.464 0-.875-.102-1.233-.308a2.291 2.291 0 0 1-.806-.786v3.591h-.906v-8.038h.906v1.005Zm3.7 1.701c0-.41-.082-.77-.248-1.074a1.712 1.712 0 0 0-.677-.696 1.831 1.831 0 0 0-.925-.24c-.332 0-.64.084-.925.25-.279.159-.504.394-.677.706-.165.305-.248.66-.248 1.064 0 .411.083.773.248 1.085.173.305.398.54.677.706.285.159.593.239.925.239.338 0 .647-.08.925-.24a1.78 1.78 0 0 0 .677-.705c.165-.312.248-.677.248-1.095Zm1.779 0c0-.557.113-1.044.338-1.462.226-.425.534-.753.925-.985a2.578 2.578 0 0 1 1.323-.348c.478 0 .892.103 1.244.308.352.206.613.465.786.776v-.995h.915v5.452h-.915v-1.015c-.18.319-.448.584-.806.796-.351.206-.763.308-1.233.308a2.47 2.47 0 0 1-1.314-.358 2.511 2.511 0 0 1-.925-1.004c-.225-.431-.338-.922-.338-1.473Zm4.616.01c0-.411-.083-.77-.249-1.074a1.712 1.712 0 0 0-.676-.697 1.775 1.775 0 0 0-.925-.248c-.339 0-.647.08-.926.239-.278.159-.5.39-.666.696-.166.305-.249.663-.249 1.074 0 .418.083.783.249 1.095.166.305.388.54.666.706.279.159.587.239.925.239.339 0 .647-.08.926-.24a1.78 1.78 0 0 0 .676-.705c.166-.312.249-.674.249-1.085Zm5.101-2.815c.663 0 1.2.202 1.612.607.41.398.617.975.617 1.73v3.214h-.896v-3.084c0-.544-.136-.958-.408-1.243-.272-.292-.643-.438-1.114-.438-.477 0-.859.149-1.144.447-.278.299-.418.733-.418 1.304v3.014h-.905v-5.452h.905v.776c.18-.278.421-.494.727-.646a2.298 2.298 0 0 1 1.024-.23Zm8.403.1-3.283 8.018h-.935l1.074-2.627-2.198-5.392h1.004l1.712 4.417 1.69-4.417h.936Zm6.218-.1c.663 0 1.201.202 1.612.607.411.398.617.975.617 1.73v3.214h-.896v-3.084c0-.544-.136-.958-.408-1.243-.272-.292-.643-.438-1.114-.438-.477 0-.859.149-1.144.447-.278.299-.418.733-.418 1.304v3.014h-.905v-5.452h.905v.776a1.8 1.8 0 0 1 .727-.646 2.295 2.295 0 0 1 1.024-.23Zm8.681 2.616c0 .173-.01.355-.029.547h-4.358c.033.538.216.959.547 1.264a1.79 1.79 0 0 0 1.224.447c.391 0 .716-.09.975-.268.265-.186.451-.431.557-.736h.975a2.371 2.371 0 0 1-.875 1.283c-.438.325-.982.487-1.632.487-.517 0-.982-.116-1.393-.348a2.485 2.485 0 0 1-.955-.985c-.232-.43-.348-.928-.348-1.492 0-.563.113-1.058.338-1.482.226-.425.541-.75.945-.975a2.826 2.826 0 0 1 1.413-.348c.517 0 .975.113 1.373.338.398.226.703.537.915.935.219.391.328.836.328 1.333Zm-.935-.189c0-.345-.076-.64-.229-.885a1.437 1.437 0 0 0-.626-.567 1.87 1.87 0 0 0-.866-.2c-.457 0-.849.147-1.174.439-.318.291-.5.696-.547 1.213h3.442Zm7.104.19c0 .172-.01.354-.029.546h-4.358c.033.538.216.959.547 1.264a1.79 1.79 0 0 0 1.224.447c.391 0 .716-.09.975-.268.265-.186.451-.431.557-.736h.975a2.371 2.371 0 0 1-.875 1.283c-.438.325-.982.487-1.632.487-.517 0-.981-.116-1.393-.348a2.485 2.485 0 0 1-.955-.985c-.232-.43-.348-.928-.348-1.492 0-.563.113-1.058.338-1.482.226-.425.541-.75.945-.975a2.826 2.826 0 0 1 1.413-.348c.517 0 .975.113 1.373.338.398.226.703.537.915.935.219.391.328.836.328 1.333Zm-.935-.19c0-.345-.076-.64-.229-.885a1.437 1.437 0 0 0-.626-.567 1.87 1.87 0 0 0-.866-.2c-.457 0-.849.147-1.174.439-.318.291-.5.696-.547 1.213h3.442Zm1.792.378c0-.557.113-1.044.338-1.462.226-.425.534-.753.926-.985a2.594 2.594 0 0 1 1.333-.348c.424 0 .819.1 1.183.298.365.193.644.448.836.766v-2.885h.915v7.362h-.915v-1.025a2.15 2.15 0 0 1-.796.806c-.351.206-.762.308-1.233.308a2.52 2.52 0 0 1-1.323-.358 2.512 2.512 0 0 1-.926-1.004 3.135 3.135 0 0 1-.338-1.473Zm4.616.01c0-.411-.083-.77-.249-1.074a1.707 1.707 0 0 0-.676-.697 1.776 1.776 0 0 0-.925-.248c-.339 0-.647.08-.925.239-.279.159-.501.39-.667.696-.166.305-.249.663-.249 1.074 0 .418.083.783.249 1.095.166.305.388.54.667.706.278.159.586.239.925.239.338 0 .646-.08.925-.24.285-.165.511-.4.676-.705.166-.312.249-.674.249-1.085Zm4.375 2.825a2.88 2.88 0 0 1-1.124-.208 1.949 1.949 0 0 1-.786-.597 1.617 1.617 0 0 1-.318-.886h.935a.92.92 0 0 0 .378.667c.232.172.534.258.905.258.345 0 .617-.076.816-.228a.699.699 0 0 0 .298-.577.559.559 0 0 0-.318-.528c-.212-.119-.541-.235-.985-.348a8.162 8.162 0 0 1-.995-.318 1.88 1.88 0 0 1-.656-.488c-.179-.218-.269-.504-.269-.855 0-.279.083-.534.249-.766.166-.232.401-.415.706-.547a2.49 2.49 0 0 1 1.045-.21c.603 0 1.091.153 1.462.458.371.306.57.723.597 1.254h-.905a.93.93 0 0 0-.348-.686c-.206-.173-.485-.26-.836-.26-.325 0-.584.07-.776.21a.647.647 0 0 0-.289.547c0 .179.057.328.17.448.119.112.265.205.437.278.179.066.425.143.736.229.392.106.71.212.955.318.246.1.455.252.627.458.179.206.272.474.279.806 0 .298-.083.567-.249.806a1.69 1.69 0 0 1-.706.566 2.53 2.53 0 0 1-1.035.2Zm9.392-3.66c.252.04.481.142.686.308.212.166.378.371.498.617.126.245.189.507.189.786 0 .351-.09.67-.269.955-.179.278-.441.5-.786.666-.338.16-.739.239-1.204.239h-2.586v-6.934h2.487c.471 0 .872.08 1.204.239.331.152.58.361.746.627.166.265.248.563.248.895 0 .411-.112.753-.338 1.025-.219.265-.51.457-.875.577Zm-2.567-.368h1.522c.425 0 .753-.1.985-.299.232-.199.348-.474.348-.826 0-.351-.116-.626-.348-.825-.232-.2-.567-.299-1.005-.299h-1.502v2.248Zm1.602 3.193c.451 0 .802-.106 1.054-.319.252-.212.378-.507.378-.885 0-.385-.132-.686-.398-.905-.265-.226-.62-.338-1.064-.338h-1.572v2.447h1.602Zm4.499-3.82c.159-.312.385-.554.677-.727.298-.172.66-.258 1.084-.258v.935h-.239c-1.014 0-1.522.55-1.522 1.651v2.965h-.905v-5.452h.905v.886Zm2.468 1.82c0-.557.112-1.044.338-1.462.225-.425.534-.753.925-.985a2.578 2.578 0 0 1 1.323-.348c.478 0 .892.103 1.244.308.351.206.613.465.786.776v-.995h.915v5.452h-.915v-1.015a2.16 2.16 0 0 1-.806.796c-.352.206-.763.308-1.234.308a2.47 2.47 0 0 1-1.313-.358 2.51 2.51 0 0 1-.925-1.004c-.226-.431-.338-.922-.338-1.473Zm4.616.01c0-.411-.083-.77-.249-1.074a1.714 1.714 0 0 0-.676-.697 1.777 1.777 0 0 0-.926-.248c-.338 0-.646.08-.925.239a1.73 1.73 0 0 0-.666.696c-.166.305-.249.663-.249 1.074 0 .418.083.783.249 1.095a1.8 1.8 0 0 0 .666.706c.279.159.587.239.925.239.339 0 .647-.08.926-.24.285-.165.51-.4.676-.705.166-.312.249-.674.249-1.085Zm5.101-2.815c.663 0 1.2.202 1.612.607.411.398.616.975.616 1.73v3.214h-.895v-3.084c0-.544-.136-.958-.408-1.243-.272-.292-.643-.438-1.114-.438-.478 0-.859.149-1.144.447-.279.299-.418.733-.418 1.304v3.014h-.905v-5.452h.905v.776c.179-.278.421-.494.726-.646a2.302 2.302 0 0 1 1.025-.23Zm3.369 2.805c0-.557.113-1.044.338-1.462.226-.425.534-.753.925-.985a2.599 2.599 0 0 1 1.333-.348c.425 0 .819.1 1.184.298.365.193.643.448.836.766v-2.885h.915v7.362h-.915v-1.025a2.157 2.157 0 0 1-.796.806c-.352.206-.763.308-1.234.308-.484 0-.925-.119-1.323-.358a2.516 2.516 0 0 1-.925-1.004 3.135 3.135 0 0 1-.338-1.473Zm4.616.01c0-.411-.083-.77-.249-1.074a1.714 1.714 0 0 0-.676-.697 1.777 1.777 0 0 0-.926-.248c-.338 0-.646.08-.925.239-.278.159-.5.39-.666.696-.166.305-.249.663-.249 1.074 0 .418.083.783.249 1.095.166.305.388.54.666.706.279.159.587.239.925.239.339 0 .647-.08.926-.24.285-.165.51-.4.676-.705.166-.312.249-.674.249-1.085Zm5.565-3.601a.594.594 0 0 1-.438-.18.597.597 0 0 1-.179-.437c0-.172.06-.318.179-.438a.594.594 0 0 1 .438-.179.55.55 0 0 1 .417.18c.12.119.179.265.179.437a.593.593 0 0 1-.179.438.55.55 0 0 1-.417.179Zm.437.885v5.452h-.905v-5.452h.905Zm1.205 2.706c0-.557.113-1.044.338-1.462.226-.425.534-.753.925-.985a2.599 2.599 0 0 1 1.333-.348c.425 0 .82.1 1.184.298.365.193.644.448.836.766v-2.885h.915v7.362h-.915v-1.025a2.15 2.15 0 0 1-.796.806c-.351.206-.763.308-1.234.308-.484 0-.925-.119-1.323-.358a2.516 2.516 0 0 1-.925-1.004 3.135 3.135 0 0 1-.338-1.473Zm4.616.01c0-.411-.083-.77-.249-1.074a1.714 1.714 0 0 0-.676-.697 1.776 1.776 0 0 0-.925-.248c-.339 0-.647.08-.926.239-.278.159-.5.39-.666.696-.166.305-.249.663-.249 1.074 0 .418.083.783.249 1.095.166.305.388.54.666.706.279.159.587.239.926.239.338 0 .646-.08.925-.24.285-.165.51-.4.676-.705.166-.312.249-.674.249-1.085Zm7.419-.199a5.3 5.3 0 0 1-.03.547h-4.357c.033.538.215.959.547 1.264.338.298.746.447 1.224.447.391 0 .716-.09.975-.268.265-.186.451-.431.557-.736h.975a2.368 2.368 0 0 1-.876 1.283c-.438.325-.981.487-1.631.487-.518 0-.982-.116-1.393-.348a2.479 2.479 0 0 1-.955-.985c-.232-.43-.348-.928-.348-1.492 0-.563.112-1.058.338-1.482.225-.425.54-.75.945-.975.411-.232.882-.348 1.413-.348.517 0 .975.113 1.373.338.397.226.703.537.915.935.219.391.328.836.328 1.333Zm-.935-.189c0-.345-.076-.64-.229-.885a1.434 1.434 0 0 0-.627-.567 1.866 1.866 0 0 0-.865-.2c-.458 0-.849.147-1.174.439-.318.291-.501.696-.547 1.213h3.442Zm4.786-2.427c.663 0 1.201.202 1.612.607.411.398.617.975.617 1.73v3.214H185v-3.084c0-.544-.136-.958-.408-1.243-.272-.292-.643-.438-1.114-.438-.477 0-.859.149-1.144.447-.278.299-.418.733-.418 1.304v3.014h-.905v-5.452h.905v.776c.179-.278.421-.494.726-.646a2.302 2.302 0 0 1 1.025-.23Zm4.812.846v3.213c0 .265.056.454.169.567.112.106.308.159.587.159h.666v.766h-.816c-.504 0-.882-.116-1.134-.348-.252-.232-.378-.614-.378-1.144v-3.213h-.706v-.747h.706v-1.373h.906v1.373h1.422v.747h-1.422Zm2.987-1.632a.594.594 0 0 1-.438-.18.593.593 0 0 1-.179-.437c0-.172.059-.318.179-.438a.594.594 0 0 1 .438-.179.55.55 0 0 1 .417.18c.12.119.179.265.179.437a.593.593 0 0 1-.179.438.55.55 0 0 1-.417.179Zm.437.885v5.452h-.905v-5.452h.905Zm2.647.747v3.213c0 .265.057.454.17.567.112.106.308.159.586.159h.667v.766h-.816c-.504 0-.882-.116-1.134-.348-.252-.232-.378-.614-.378-1.144v-3.213h-.706v-.747h.706v-1.373h.905v1.373h1.423v.747h-1.423Zm7.215-.747-3.282 8.019h-.936l1.075-2.627-2.199-5.392h1.005l1.711 4.417 1.691-4.417h.935Zm5.781.747h-1.144v4.705h-.905v-4.705h-.707v-.747h.707v-.388c0-.61.156-1.054.467-1.333.319-.285.826-.427 1.522-.427v.756c-.398 0-.679.08-.845.238-.159.153-.239.408-.239.766v.388h1.144v.747Zm3.433 4.794a2.82 2.82 0 0 1-1.393-.348 2.524 2.524 0 0 1-.974-.985c-.233-.43-.349-.928-.349-1.492 0-.557.12-1.048.358-1.472.246-.431.577-.76.995-.985a2.842 2.842 0 0 1 1.403-.348c.517 0 .985.116 1.403.348.417.226.746.55.985.975.245.424.368.919.368 1.482 0 .564-.126 1.061-.378 1.492a2.568 2.568 0 0 1-1.005.985 2.9 2.9 0 0 1-1.413.349Zm0-.795c.325 0 .63-.077.915-.23.286-.152.514-.38.687-.686.179-.305.268-.676.268-1.114 0-.438-.086-.809-.258-1.114a1.662 1.662 0 0 0-.677-.677 1.852 1.852 0 0 0-.905-.228c-.332 0-.637.076-.915.228a1.62 1.62 0 0 0-.657.677c-.166.305-.248.676-.248 1.114 0 .445.079.82.238 1.124.166.305.385.534.657.687.272.146.57.219.895.219Zm4.891-3.86c.159-.312.385-.554.677-.727.298-.172.66-.258 1.084-.258v.935h-.239c-1.014 0-1.522.55-1.522 1.651v2.965h-.905v-5.452h.905v.886Zm6.562-.14v3.214c0 .265.057.454.17.567.112.106.308.159.587.159h.666v.766h-.816c-.504 0-.882-.116-1.134-.348-.252-.232-.378-.614-.378-1.144v-3.213h-.706v-.747h.706v-1.373h.905v1.373h1.423v.747h-1.423Zm5.226-.845c.411 0 .782.09 1.114.268.332.173.59.435.776.786.192.352.288.78.288 1.284v3.213h-.895v-3.084c0-.544-.136-.958-.408-1.243-.272-.292-.643-.438-1.114-.438-.477 0-.859.149-1.144.447-.279.299-.418.733-.418 1.304v3.014h-.905v-7.362h.905v2.686c.179-.278.425-.494.736-.646a2.433 2.433 0 0 1 1.065-.23Zm8.631 2.616a5.3 5.3 0 0 1-.03.547h-4.357c.033.538.216.959.547 1.264.339.298.746.447 1.224.447.391 0 .716-.09.975-.268.265-.186.451-.431.557-.736h.975a2.368 2.368 0 0 1-.876 1.283c-.437.325-.981.487-1.631.487-.517 0-.982-.116-1.393-.348a2.485 2.485 0 0 1-.955-.985c-.232-.43-.348-.928-.348-1.492 0-.563.113-1.058.338-1.482.226-.425.541-.75.945-.975.411-.232.882-.348 1.413-.348.517 0 .975.113 1.373.338.398.226.703.537.915.935.219.391.328.836.328 1.333Zm-.935-.189c0-.345-.076-.64-.229-.885a1.437 1.437 0 0 0-.626-.567 1.873 1.873 0 0 0-.866-.2c-.457 0-.849.147-1.174.439-.318.291-.5.696-.547 1.213h3.442Zm4.444.388c0-.563.113-1.054.338-1.472a2.44 2.44 0 0 1 .936-.985 2.725 2.725 0 0 1 1.382-.348c.67 0 1.221.162 1.652.487.437.325.726.776.865 1.353h-.975a1.392 1.392 0 0 0-.547-.786c-.265-.192-.597-.288-.995-.288-.517 0-.935.179-1.253.537-.318.352-.478.852-.478 1.502 0 .657.16 1.164.478 1.522.318.358.736.538 1.253.538.398 0 .73-.093.995-.28.265-.185.448-.45.547-.795h.975a2.425 2.425 0 0 1-.875 1.343c-.438.332-.985.497-1.642.497-.517 0-.978-.116-1.382-.348a2.44 2.44 0 0 1-.936-.985c-.225-.424-.338-.921-.338-1.492Zm8.759 2.825a2.82 2.82 0 0 1-1.393-.348 2.534 2.534 0 0 1-.975-.985c-.232-.43-.348-.928-.348-1.492 0-.557.119-1.048.358-1.472a2.49 2.49 0 0 1 .995-.985 2.839 2.839 0 0 1 1.403-.348c.517 0 .984.116 1.402.348.418.226.746.55.985.975.245.424.368.919.368 1.482 0 .564-.126 1.061-.378 1.492-.245.425-.58.753-1.005.985a2.893 2.893 0 0 1-1.412.349Zm0-.795c.325 0 .63-.077.915-.23.285-.152.514-.38.686-.686.179-.305.269-.676.269-1.114 0-.438-.086-.809-.259-1.114a1.66 1.66 0 0 0-.676-.677 1.855 1.855 0 0 0-.905-.228c-.332 0-.637.076-.916.228-.272.146-.49.372-.656.677-.166.305-.249.676-.249 1.114 0 .445.08.82.239 1.124.166.305.384.534.656.687.272.146.571.219.896.219Zm6.204-4h-1.144v4.706h-.905v-4.705h-.707v-.747h.707v-.388c0-.61.155-1.054.467-1.333.318-.285.826-.427 1.522-.427v.756c-.398 0-.68.08-.845.238-.16.153-.239.408-.239.766v.388h1.144v.747Zm3.274 0h-1.144v4.706h-.905v-4.705h-.707v-.747h.707v-.388c0-.61.155-1.054.467-1.333.318-.285.826-.427 1.522-.427v.756c-.398 0-.68.08-.845.238-.16.153-.239.408-.239.766v.388h1.144v.747Zm6.029 1.771c0 .173-.01.355-.029.547h-4.358c.033.538.216.959.547 1.264a1.79 1.79 0 0 0 1.224.447c.391 0 .716-.09.975-.268.265-.186.451-.431.557-.736h.975a2.371 2.371 0 0 1-.875 1.283c-.438.325-.982.487-1.632.487-.517 0-.981-.116-1.393-.348a2.485 2.485 0 0 1-.955-.985c-.232-.43-.348-.928-.348-1.492 0-.563.113-1.058.338-1.482.226-.425.541-.75.945-.975a2.826 2.826 0 0 1 1.413-.348c.517 0 .975.113 1.373.338.398.226.703.537.915.935.219.391.328.836.328 1.333Zm-.935-.189c0-.345-.076-.64-.229-.885a1.437 1.437 0 0 0-.626-.567 1.87 1.87 0 0 0-.866-.2c-.457 0-.849.147-1.174.439-.318.291-.5.696-.547 1.213h3.442Zm7.104.19c0 .172-.01.354-.029.546h-4.358c.033.538.216.959.547 1.264a1.79 1.79 0 0 0 1.224.447c.391 0 .716-.09.975-.268.265-.186.451-.431.557-.736h.975a2.371 2.371 0 0 1-.875 1.283c-.438.325-.982.487-1.632.487-.517 0-.981-.116-1.393-.348a2.485 2.485 0 0 1-.955-.985c-.232-.43-.348-.928-.348-1.492 0-.563.113-1.058.338-1.482.226-.425.541-.75.945-.975a2.829 2.829 0 0 1 1.413-.348c.517 0 .975.113 1.373.338.398.226.703.537.915.935.219.391.328.836.328 1.333Zm-.935-.19c0-.345-.076-.64-.228-.885a1.445 1.445 0 0 0-.627-.567 1.87 1.87 0 0 0-.866-.2c-.457 0-.849.147-1.174.439-.318.291-.5.696-.547 1.213h3.442ZM30.785 71.508a2.88 2.88 0 0 1-1.124-.208 1.953 1.953 0 0 1-.786-.597 1.613 1.613 0 0 1-.319-.886h.936a.922.922 0 0 0 .378.667c.232.172.534.259.905.259.345 0 .617-.077.816-.23a.7.7 0 0 0 .298-.576.559.559 0 0 0-.318-.528c-.213-.119-.54-.235-.985-.348a8.108 8.108 0 0 1-.995-.318 1.889 1.889 0 0 1-.657-.488c-.179-.218-.268-.504-.268-.855 0-.279.083-.534.249-.766.165-.232.4-.415.706-.547a2.49 2.49 0 0 1 1.044-.21c.604 0 1.091.153 1.463.458.371.306.57.723.597 1.254h-.906a.929.929 0 0 0-.348-.686c-.205-.173-.484-.26-.835-.26-.325 0-.584.07-.776.21a.646.646 0 0 0-.289.547c0 .179.056.328.17.448.119.112.265.205.437.278.179.066.424.143.736.229.391.106.71.212.955.318.246.1.455.252.627.458.179.206.272.474.278.806 0 .298-.083.567-.248.806a1.689 1.689 0 0 1-.707.567 2.525 2.525 0 0 1-1.034.198Zm5.973-5.64c.411 0 .783.09 1.114.269.332.172.59.434.776.785.193.352.289.78.289 1.284v3.213h-.895v-3.084c0-.544-.136-.958-.408-1.243-.272-.292-.644-.438-1.114-.438-.478 0-.86.149-1.145.447-.278.299-.417.733-.417 1.304v3.014h-.906v-7.362h.906v2.686a1.79 1.79 0 0 1 .736-.646 2.431 2.431 0 0 1 1.064-.23Zm6.035 5.64c-.51 0-.975-.116-1.392-.348a2.53 2.53 0 0 1-.975-.985c-.233-.43-.349-.928-.349-1.492 0-.557.12-1.048.359-1.472.245-.431.577-.76.994-.985a2.84 2.84 0 0 1 1.403-.348c.517 0 .985.116 1.403.348.418.225.746.55.985.975.245.424.368.919.368 1.482 0 .564-.126 1.061-.378 1.492a2.56 2.56 0 0 1-1.005.985 2.896 2.896 0 0 1-1.413.349Zm0-.795c.325 0 .63-.077.916-.23.285-.152.513-.38.686-.686.179-.305.269-.676.269-1.114 0-.438-.087-.809-.26-1.114a1.66 1.66 0 0 0-.676-.677 1.855 1.855 0 0 0-.905-.228c-.331 0-.636.076-.915.228-.272.146-.49.372-.657.677-.165.305-.248.677-.248 1.114 0 .445.08.82.238 1.124.166.305.385.534.657.687.272.146.57.219.895.219Zm4.891-3.74c.18-.313.445-.571.796-.777a2.392 2.392 0 0 1 1.244-.318c.484 0 .922.116 1.313.348.398.232.71.56.935.985.225.418.338.905.338 1.462 0 .55-.113 1.041-.338 1.473a2.488 2.488 0 0 1-2.248 1.362c-.465 0-.876-.102-1.234-.308a2.291 2.291 0 0 1-.806-.786v3.591h-.905v-8.038h.905v1.005Zm3.701 1.7c0-.41-.083-.77-.249-1.074a1.712 1.712 0 0 0-.676-.697 1.831 1.831 0 0 0-.925-.238c-.332 0-.64.083-.925.248-.28.16-.505.395-.677.707-.166.305-.249.66-.249 1.064 0 .411.083.773.249 1.085.172.305.398.54.676.706.286.159.594.239.926.239.338 0 .646-.08.925-.24a1.78 1.78 0 0 0 .676-.705c.166-.312.249-.677.249-1.095Zm6.987-1.96h-1.144v4.706h-.905v-4.706h-.706v-.746h.706v-.388c0-.61.156-1.054.468-1.333.318-.285.825-.427 1.522-.427v.756c-.398 0-.68.08-.846.238-.159.153-.239.408-.239.766v.388h1.144v.746Zm1.961.14c.16-.312.385-.554.677-.727.298-.172.66-.258 1.084-.258v.935h-.239c-1.014 0-1.522.55-1.522 1.651v2.965h-.905v-5.452h.905v.886Zm2.468 1.82c0-.557.113-1.044.338-1.462.226-.425.534-.753.925-.985a2.578 2.578 0 0 1 1.323-.348c.478 0 .892.103 1.244.308.351.206.613.464.786.776v-.995h.915v5.452h-.915v-1.015c-.18.319-.448.584-.806.796-.352.206-.763.308-1.234.308-.484 0-.921-.119-1.313-.358a2.511 2.511 0 0 1-.925-1.004c-.225-.431-.338-.922-.338-1.473Zm4.616.01c0-.411-.083-.77-.249-1.074a1.712 1.712 0 0 0-.676-.697 1.775 1.775 0 0 0-.926-.248c-.338 0-.646.08-.925.239-.278.159-.5.39-.666.696-.166.305-.249.663-.249 1.074 0 .418.083.783.249 1.095.166.305.388.54.666.706.279.159.587.239.925.239.339 0 .647-.08.926-.24a1.78 1.78 0 0 0 .676-.705c.166-.312.249-.674.249-1.085Zm5.101-2.815c.663 0 1.2.202 1.612.607.41.398.616.975.616 1.73v3.214h-.895v-3.084c0-.544-.136-.958-.408-1.243-.272-.292-.643-.438-1.114-.438-.477 0-.859.149-1.144.447-.279.299-.418.733-.418 1.304v3.014h-.905v-5.452h.905v.776c.18-.278.421-.494.726-.646a2.299 2.299 0 0 1 1.025-.23Zm3.369 2.815c0-.564.113-1.054.338-1.472.226-.425.537-.753.935-.985a2.728 2.728 0 0 1 1.383-.348c.67 0 1.22.162 1.651.487.438.325.727.776.866 1.353h-.975a1.392 1.392 0 0 0-.547-.786c-.265-.192-.597-.288-.995-.288-.517 0-.935.179-1.253.537-.319.352-.478.852-.478 1.502 0 .657.16 1.164.478 1.522.318.358.736.538 1.253.538.398 0 .73-.093.995-.28.265-.185.448-.45.547-.795h.975a2.423 2.423 0 0 1-.876 1.343c-.437.332-.984.498-1.64.498-.518 0-.98-.117-1.384-.349a2.435 2.435 0 0 1-.935-.985c-.225-.424-.338-.921-.338-1.492Zm9.087-2.815c.411 0 .782.09 1.114.269.332.172.59.434.776.785.192.352.288.78.288 1.284v3.213h-.895v-3.084c0-.544-.136-.958-.408-1.243-.272-.292-.643-.438-1.114-.438-.478 0-.859.149-1.144.447-.279.299-.418.733-.418 1.304v3.014h-.905v-7.362h.905v2.686a1.79 1.79 0 0 1 .736-.646 2.431 2.431 0 0 1 1.065-.23Zm4.125-.786a.595.595 0 0 1-.438-.18.596.596 0 0 1-.179-.437c0-.172.06-.318.179-.438.12-.119.265-.179.438-.179.166 0 .305.06.418.18.119.119.179.265.179.437 0 .173-.06.319-.18.438a.552.552 0 0 1-.417.179Zm.438.885v5.452h-.906v-5.452h.906Zm3.472 5.541a2.88 2.88 0 0 1-1.124-.208 1.953 1.953 0 0 1-.786-.597 1.613 1.613 0 0 1-.318-.886h.935a.922.922 0 0 0 .378.667c.232.172.534.259.905.259.345 0 .617-.077.816-.23a.7.7 0 0 0 .299-.576.559.559 0 0 0-.319-.528c-.212-.119-.54-.235-.985-.348a8.112 8.112 0 0 1-.995-.318 1.889 1.889 0 0 1-.656-.488c-.18-.218-.269-.504-.269-.855 0-.279.083-.534.25-.766.165-.232.4-.415.705-.547a2.49 2.49 0 0 1 1.045-.21c.603 0 1.09.153 1.462.458.372.306.57.723.597 1.254h-.905a.929.929 0 0 0-.348-.686c-.206-.173-.484-.26-.836-.26-.325 0-.584.07-.776.21a.646.646 0 0 0-.288.547c0 .179.056.328.169.448.12.112.265.205.438.278.178.066.424.143.736.229.39.106.71.212.955.318.245.1.454.252.626.458.18.206.272.474.279.806 0 .298-.083.567-.249.806a1.689 1.689 0 0 1-.706.567 2.525 2.525 0 0 1-1.035.198Zm8.242-3.024a5.3 5.3 0 0 1-.03.547h-4.357c.033.538.215.959.547 1.264.338.298.746.448 1.224.448.39 0 .716-.09.974-.27a1.47 1.47 0 0 0 .558-.735h.975a2.368 2.368 0 0 1-.876 1.283c-.438.325-.982.487-1.631.487-.518 0-.982-.116-1.393-.348a2.483 2.483 0 0 1-.955-.985c-.232-.43-.348-.928-.348-1.492s.112-1.058.338-1.482c.225-.424.54-.75.945-.975.411-.232.882-.348 1.413-.348.517 0 .974.113 1.372.338.398.226.703.537.916.935.219.392.328.836.328 1.333Zm-.935-.189c0-.345-.076-.64-.229-.885a1.44 1.44 0 0 0-.627-.567 1.87 1.87 0 0 0-.865-.2c-.458 0-.85.147-1.174.439-.318.291-.5.696-.547 1.213h3.442Zm3.065 1.87-1.114 2.676h-.607l.726-2.675h.995Zm3.351-1.492c0-.557.113-1.044.338-1.462.226-.425.534-.753.925-.985a2.58 2.58 0 0 1 1.324-.348c.477 0 .892.103 1.243.308.352.206.614.464.786.776v-.995h.915v5.452h-.915v-1.015a2.16 2.16 0 0 1-.806.796c-.351.206-.763.308-1.233.308-.485 0-.922-.119-1.314-.358a2.516 2.516 0 0 1-.925-1.004 3.135 3.135 0 0 1-.338-1.473Zm4.616.01c0-.411-.083-.77-.249-1.074a1.714 1.714 0 0 0-.676-.697 1.776 1.776 0 0 0-.925-.248c-.339 0-.647.08-.926.239-.278.159-.5.39-.666.696-.166.305-.249.663-.249 1.074 0 .418.083.783.249 1.095.166.305.388.54.666.706.279.159.587.239.926.239.338 0 .646-.08.925-.24.285-.165.51-.4.676-.705.166-.312.249-.674.249-1.085Zm3.35-4.626v7.362h-.905v-7.362h.905Zm2.448 0v7.362h-.905v-7.362h.905Zm3.857 4.616c0-.557.113-1.044.339-1.462.225-.425.533-.753.925-.985a2.596 2.596 0 0 1 1.333-.348c.424 0 .819.1 1.184.298.364.193.643.448.835.766v-2.885h.915v7.362h-.915v-1.025a2.15 2.15 0 0 1-.796.806c-.351.206-.762.308-1.233.308-.484 0-.925-.119-1.323-.358a2.502 2.502 0 0 1-.925-1.004c-.226-.431-.339-.922-.339-1.473Zm4.616.01c0-.411-.083-.77-.248-1.074a1.716 1.716 0 0 0-.677-.697 1.773 1.773 0 0 0-.925-.248c-.338 0-.647.08-.925.239-.279.159-.501.39-.667.696-.166.305-.249.663-.249 1.074 0 .418.083.783.249 1.095.166.305.388.54.667.706.278.159.587.239.925.239.338 0 .647-.08.925-.24.285-.165.511-.4.677-.705.165-.312.248-.674.248-1.085Zm7.419-.199c0 .173-.01.355-.029.547h-4.358c.033.538.216.959.547 1.264a1.79 1.79 0 0 0 1.224.448c.391 0 .716-.09.975-.27.265-.185.451-.43.557-.735h.975a2.371 2.371 0 0 1-.875 1.283c-.438.325-.982.487-1.632.487-.517 0-.982-.116-1.393-.348a2.485 2.485 0 0 1-.955-.985c-.232-.43-.348-.928-.348-1.492s.113-1.058.338-1.482c.226-.424.541-.75.945-.975a2.826 2.826 0 0 1 1.413-.348c.517 0 .975.113 1.373.338.398.226.703.537.915.935.219.392.328.836.328 1.333Zm-.935-.189c0-.345-.076-.64-.229-.885a1.437 1.437 0 0 0-.626-.567 1.87 1.87 0 0 0-.866-.2c-.457 0-.849.147-1.174.439-.318.291-.5.696-.547 1.213h3.442Zm3.235-1.582v3.214c0 .265.056.454.169.567.112.106.308.159.587.159h.666v.766h-.816c-.504 0-.882-.116-1.134-.348-.252-.232-.378-.614-.378-1.144v-3.214h-.706v-.746h.706v-1.373h.906v1.373h1.422v.746h-1.422Zm2.181 1.96c0-.557.113-1.044.338-1.462.226-.425.534-.753.925-.985a2.578 2.578 0 0 1 1.323-.348c.478 0 .892.103 1.244.308.351.206.613.464.786.776v-.995h.915v5.452h-.915v-1.015a2.16 2.16 0 0 1-.806.796c-.352.206-.763.308-1.234.308-.484 0-.921-.119-1.313-.358a2.516 2.516 0 0 1-.925-1.004 3.135 3.135 0 0 1-.338-1.473Zm4.616.01c0-.411-.083-.77-.249-1.074a1.714 1.714 0 0 0-.676-.697 1.777 1.777 0 0 0-.926-.248c-.338 0-.646.08-.925.239a1.73 1.73 0 0 0-.666.696c-.166.305-.249.663-.249 1.074 0 .418.083.783.249 1.095a1.8 1.8 0 0 0 .666.706c.279.159.587.239.925.239.339 0 .647-.08.926-.24.285-.165.51-.4.676-.705.166-.312.249-.674.249-1.085Zm2.912-3.601a.594.594 0 0 1-.437-.18.593.593 0 0 1-.179-.437c0-.172.059-.318.179-.438a.594.594 0 0 1 .437-.179c.166 0 .305.06.418.18.12.119.179.265.179.437a.593.593 0 0 1-.179.438.552.552 0 0 1-.418.179Zm.438.885v5.452h-.905v-5.452h.905Zm2.448-1.91v7.362h-.905v-7.362h.905Zm3.473 7.451a2.88 2.88 0 0 1-1.124-.208 1.949 1.949 0 0 1-.786-.597 1.617 1.617 0 0 1-.318-.886h.935a.92.92 0 0 0 .378.667c.232.172.534.259.905.259.345 0 .617-.077.816-.23a.699.699 0 0 0 .298-.576.559.559 0 0 0-.318-.528c-.212-.119-.541-.235-.985-.348a8.162 8.162 0 0 1-.995-.318 1.88 1.88 0 0 1-.656-.488c-.179-.218-.269-.504-.269-.855 0-.279.083-.534.249-.766.166-.232.401-.415.706-.547a2.49 2.49 0 0 1 1.045-.21c.603 0 1.091.153 1.462.458.371.306.57.723.597 1.254h-.905a.93.93 0 0 0-.348-.686c-.206-.173-.485-.26-.836-.26-.325 0-.584.07-.776.21a.647.647 0 0 0-.289.547c0 .179.057.328.17.448.119.112.265.205.437.278.179.066.425.143.736.229.392.106.71.212.955.318.246.1.455.252.627.458.179.206.272.474.279.806 0 .298-.083.567-.249.806a1.69 1.69 0 0 1-.706.567 2.53 2.53 0 0 1-1.035.198Zm5.582-2.835c0-.557.112-1.044.338-1.462.225-.425.534-.753.925-.985a2.578 2.578 0 0 1 1.323-.348c.478 0 .892.103 1.244.308.351.206.613.464.786.776v-.995h.915v5.452h-.915v-1.015a2.16 2.16 0 0 1-.806.796c-.352.206-.763.308-1.234.308a2.47 2.47 0 0 1-1.313-.358 2.51 2.51 0 0 1-.925-1.004c-.226-.431-.338-.922-.338-1.473Zm4.616.01c0-.411-.083-.77-.249-1.074a1.71 1.71 0 0 0-.677-.697 1.773 1.773 0 0 0-.925-.248c-.338 0-.646.08-.925.239-.279.159-.501.39-.666.696-.166.305-.249.663-.249 1.074 0 .418.083.783.249 1.095.165.305.387.54.666.706.279.159.587.239.925.239.338 0 .647-.08.925-.24.286-.165.511-.4.677-.705.166-.312.249-.674.249-1.085Zm3.35-1.83a1.75 1.75 0 0 1 .676-.727c.299-.172.66-.258 1.085-.258v.935h-.239c-1.015 0-1.522.55-1.522 1.651v2.965h-.905v-5.452h.905v.886Zm7.78 1.631a5.3 5.3 0 0 1-.03.547h-4.357c.033.538.215.959.547 1.264.338.298.746.448 1.223.448.392 0 .717-.09.975-.27a1.46 1.46 0 0 0 .557-.735h.975a2.36 2.36 0 0 1-.875 1.283c-.438.325-.982.487-1.632.487-.517 0-.981-.116-1.392-.348a2.479 2.479 0 0 1-.955-.985c-.232-.43-.348-.928-.348-1.492s.112-1.058.338-1.482c.225-.424.54-.75.945-.975a2.822 2.822 0 0 1 1.412-.348c.518 0 .975.113 1.373.338.398.226.703.537.916.935.218.392.328.836.328 1.333Zm-.935-.189c0-.345-.077-.64-.229-.885a1.445 1.445 0 0 0-.627-.567 1.866 1.866 0 0 0-.865-.2c-.458 0-.849.147-1.174.439-.319.291-.501.696-.547 1.213h3.442Zm5.25-3.213a.594.594 0 0 1-.438-.18.593.593 0 0 1-.179-.437c0-.172.059-.318.179-.438a.594.594 0 0 1 .438-.179.55.55 0 0 1 .417.18c.12.119.179.265.179.437a.593.593 0 0 1-.179.438.55.55 0 0 1-.417.179Zm.437.885v5.452h-.905v-5.452h.905Zm4.199-.1c.664 0 1.201.203 1.612.608.411.398.617.975.617 1.73v3.214h-.896v-3.084c0-.544-.136-.958-.408-1.243-.271-.292-.643-.438-1.114-.438-.477 0-.859.149-1.144.447-.278.299-.418.733-.418 1.304v3.014h-.905v-5.452h.905v.776c.179-.278.422-.494.727-.646a2.295 2.295 0 0 1 1.024-.23Zm3.369 2.806c0-.557.113-1.044.338-1.462.226-.425.534-.753.926-.985a2.596 2.596 0 0 1 1.333-.348c.424 0 .819.1 1.184.298.364.193.643.448.835.766v-2.885h.915v7.362h-.915v-1.025a2.15 2.15 0 0 1-.796.806c-.351.206-.762.308-1.233.308-.484 0-.925-.119-1.323-.358a2.512 2.512 0 0 1-.926-1.004 3.135 3.135 0 0 1-.338-1.473Zm4.616.01c0-.411-.083-.77-.249-1.074a1.707 1.707 0 0 0-.676-.697 1.776 1.776 0 0 0-.925-.248c-.338 0-.647.08-.925.239-.279.159-.501.39-.667.696-.166.305-.249.663-.249 1.074 0 .418.083.783.249 1.095.166.305.388.54.667.706.278.159.587.239.925.239.338 0 .646-.08.925-.24.285-.165.511-.4.676-.705.166-.312.249-.674.249-1.085Zm2.913-3.601a.594.594 0 0 1-.438-.18.597.597 0 0 1-.179-.437c0-.172.06-.318.179-.438a.594.594 0 0 1 .438-.179c.166 0 .305.06.418.18.119.119.179.265.179.437 0 .173-.06.319-.179.438a.552.552 0 0 1-.418.179Zm.438.885v5.452h-.906v-5.452h.906Zm1.204 2.716c0-.564.113-1.054.338-1.472a2.44 2.44 0 0 1 .936-.985 2.725 2.725 0 0 1 1.382-.348c.67 0 1.221.162 1.652.487.437.325.726.776.865 1.353h-.975a1.392 1.392 0 0 0-.547-.786c-.265-.192-.597-.288-.995-.288-.517 0-.935.179-1.253.537-.318.352-.478.852-.478 1.502 0 .657.16 1.164.478 1.522.318.358.736.538 1.253.538.398 0 .73-.093.995-.28.265-.185.448-.45.547-.795h.975a2.425 2.425 0 0 1-.875 1.343c-.438.332-.985.498-1.642.498-.517 0-.978-.117-1.382-.349a2.44 2.44 0 0 1-.936-.985c-.225-.424-.338-.921-.338-1.492Zm6.043-.01c0-.557.113-1.044.338-1.462.226-.425.534-.753.925-.985a2.578 2.578 0 0 1 1.323-.348c.478 0 .892.103 1.244.308.351.206.613.464.786.776v-.995h.915v5.452h-.915v-1.015a2.16 2.16 0 0 1-.806.796c-.351.206-.763.308-1.234.308-.484 0-.921-.119-1.313-.358a2.516 2.516 0 0 1-.925-1.004 3.135 3.135 0 0 1-.338-1.473Zm4.616.01c0-.411-.083-.77-.249-1.074a1.714 1.714 0 0 0-.676-.697 1.777 1.777 0 0 0-.926-.248c-.338 0-.646.08-.925.239-.278.159-.5.39-.666.696-.166.305-.249.663-.249 1.074 0 .418.083.783.249 1.095.166.305.388.54.666.706.279.159.587.239.925.239.339 0 .647-.08.926-.24.285-.165.51-.4.676-.705.166-.312.249-.674.249-1.085Zm3.549-1.97v3.214c0 .265.057.454.169.567.113.106.309.159.587.159h.667v.766h-.816c-.504 0-.882-.116-1.134-.348-.252-.232-.378-.614-.378-1.144v-3.214h-.706v-.746h.706v-1.373h.905v1.373h1.423v.746h-1.423Zm7.494 1.771a5.3 5.3 0 0 1-.03.547h-4.357c.033.538.215.959.547 1.264.338.298.746.448 1.223.448.392 0 .717-.09.975-.27a1.46 1.46 0 0 0 .557-.735h.975a2.366 2.366 0 0 1-.875 1.283c-.438.325-.982.487-1.632.487-.517 0-.981-.116-1.392-.348a2.479 2.479 0 0 1-.955-.985c-.233-.43-.349-.928-.349-1.492s.113-1.058.339-1.482c.225-.424.54-.75.945-.975a2.822 2.822 0 0 1 1.412-.348c.518 0 .975.113 1.373.338.398.226.703.537.915.935.219.392.329.836.329 1.333Zm-.935-.189c0-.345-.077-.64-.229-.885a1.445 1.445 0 0 0-.627-.567 1.87 1.87 0 0 0-.865-.2c-.458 0-.849.147-1.174.439-.319.291-.501.696-.548 1.213h3.443Zm1.791.378c0-.557.113-1.044.339-1.462.225-.425.533-.753.925-.985a2.596 2.596 0 0 1 1.333-.348c.424 0 .819.1 1.184.298.364.193.643.448.835.766v-2.885h.916v7.362h-.916v-1.025a2.15 2.15 0 0 1-.796.806c-.351.206-.762.308-1.233.308-.484 0-.925-.119-1.323-.358a2.502 2.502 0 0 1-.925-1.004c-.226-.431-.339-.922-.339-1.473Zm4.616.01c0-.411-.083-.77-.248-1.074a1.716 1.716 0 0 0-.677-.697 1.773 1.773 0 0 0-.925-.248c-.338 0-.647.08-.925.239-.279.159-.501.39-.667.696-.166.305-.248.663-.248 1.074 0 .418.082.783.248 1.095.166.305.388.54.667.706.278.159.587.239.925.239.338 0 .647-.08.925-.24.285-.165.511-.4.677-.705.165-.312.248-.674.248-1.085Zm5.565-3.601a.598.598 0 0 1-.438-.18.597.597 0 0 1-.179-.437c0-.172.06-.318.179-.438.12-.119.266-.179.438-.179.166 0 .305.06.418.18.119.119.179.265.179.437 0 .173-.06.319-.179.438a.552.552 0 0 1-.418.179Zm.438.885v5.452h-.905v-5.452h.905Zm4.199-.1c.663 0 1.2.203 1.612.608.411.398.616.975.616 1.73v3.214h-.895v-3.084c0-.544-.136-.958-.408-1.243-.272-.292-.643-.438-1.114-.438-.478 0-.859.149-1.144.447-.279.299-.418.733-.418 1.304v3.014h-.905v-5.452h.905v.776c.179-.278.421-.494.726-.646a2.302 2.302 0 0 1 1.025-.23Zm7.463.846v3.214c0 .265.057.454.17.567.112.106.308.159.587.159h.666v.766h-.816c-.504 0-.882-.116-1.134-.348-.252-.232-.378-.614-.378-1.144v-3.214h-.706v-.746h.706v-1.373h.905v1.373h1.423v.746h-1.423Zm5.226-.845c.411 0 .782.09 1.114.269.332.172.59.434.776.785.192.352.288.78.288 1.284v3.213h-.895v-3.084c0-.544-.136-.958-.408-1.243-.272-.292-.643-.438-1.114-.438-.477 0-.859.149-1.144.447-.278.299-.418.733-.418 1.304v3.014h-.905v-7.362h.905v2.686c.179-.278.425-.494.736-.646a2.436 2.436 0 0 1 1.065-.23Zm8.631 2.616a5.3 5.3 0 0 1-.03.547h-4.357c.033.538.216.959.547 1.264.339.298.746.448 1.224.448.391 0 .716-.09.975-.27.265-.185.451-.43.557-.735h.975a2.368 2.368 0 0 1-.876 1.283c-.437.325-.981.487-1.631.487-.517 0-.982-.116-1.393-.348a2.485 2.485 0 0 1-.955-.985c-.232-.43-.348-.928-.348-1.492s.113-1.058.338-1.482c.226-.424.541-.75.945-.975a2.826 2.826 0 0 1 1.413-.348c.517 0 .975.113 1.373.338.398.226.703.537.915.935.219.392.328.836.328 1.333Zm-.935-.189c0-.345-.076-.64-.229-.885a1.437 1.437 0 0 0-.626-.567 1.87 1.87 0 0 0-.866-.2c-.457 0-.849.147-1.174.439-.318.291-.5.696-.547 1.213h3.442Zm8.254-.447c.252.04.481.142.687.308.212.166.378.371.497.617.126.245.189.507.189.786 0 .351-.089.67-.268.955-.179.278-.441.5-.786.666-.339.16-.74.239-1.204.239h-2.587v-6.934h2.488c.47 0 .872.08 1.203.239.332.152.581.361.746.627.166.265.249.563.249.895 0 .411-.113.753-.338 1.025a1.85 1.85 0 0 1-.876.577Zm-2.566-.368h1.522c.424 0 .753-.1.985-.299.232-.199.348-.474.348-.826 0-.351-.116-.626-.348-.825-.232-.2-.567-.299-1.005-.299h-1.502v2.249Zm1.601 3.193c.451 0 .803-.106 1.055-.319.252-.212.378-.507.378-.885 0-.385-.133-.686-.398-.905-.265-.226-.62-.338-1.064-.338h-1.572v2.447h1.601Zm4.5-3.82c.159-.312.384-.554.676-.727.299-.172.66-.258 1.085-.258v.935h-.239c-1.015 0-1.522.55-1.522 1.651v2.965h-.906v-5.452h.906v.886Zm3.273-1.771a.598.598 0 0 1-.438-.18.597.597 0 0 1-.179-.437c0-.172.06-.318.179-.438.12-.119.266-.179.438-.179.166 0 .305.06.418.18.119.119.179.265.179.437 0 .173-.06.319-.179.438a.552.552 0 0 1-.418.179Zm.438.885v5.452h-.905v-5.452h.905Zm6.517 2.517a5.3 5.3 0 0 1-.03.547h-4.357c.033.538.215.959.547 1.264.338.298.746.448 1.224.448.391 0 .716-.09.974-.27.266-.185.451-.43.558-.735h.974a2.36 2.36 0 0 1-.875 1.283c-.438.325-.982.487-1.631.487-.518 0-.982-.116-1.393-.348a2.479 2.479 0 0 1-.955-.985c-.232-.43-.348-.928-.348-1.492s.112-1.058.338-1.482c.225-.424.54-.75.945-.975.411-.232.882-.348 1.413-.348.517 0 .974.113 1.372.338.398.226.703.537.916.935.218.392.328.836.328 1.333Zm-.935-.189c0-.345-.077-.64-.229-.885a1.445 1.445 0 0 0-.627-.567 1.866 1.866 0 0 0-.865-.2c-.458 0-.849.147-1.174.439-.319.291-.501.696-.547 1.213h3.442Zm4.348-1.582h-1.144v4.706h-.905v-4.706h-.706v-.746h.706v-.388c0-.61.156-1.054.467-1.333.319-.285.826-.427 1.523-.427v.756c-.398 0-.68.08-.846.238-.159.153-.239.408-.239.766v.388h1.144v.746ZM23.481 103.573h-2.825l-.587 1.572h-1.194l2.636-6.964h1.194l2.637 6.964h-1.274l-.587-1.572Zm-2.437-1.035h2.05l-1.016-2.865-1.034 2.865Zm6.83 2.657c-.604 0-1.038-.13-1.304-.388-.258-.259-.388-.677-.388-1.254v-2.745h-.746v-.936h.746V98.68h1.095v1.193h1.343v.936h-1.343v2.596c0 .312.056.531.169.657.12.119.345.179.676.179.2 0 .398-.01.597-.03v.935a7.777 7.777 0 0 1-.388.03c-.132.013-.285.02-.457.02Zm3.788 0c-.603 0-1.037-.13-1.303-.388-.258-.259-.388-.677-.388-1.254v-2.745h-.746v-.936h.746V98.68h1.095v1.193h1.342v.936h-1.343v2.596c0 .312.057.531.17.657.119.119.345.179.676.179.2 0 .398-.01.597-.03v.935a7.768 7.768 0 0 1-.388.03 4.73 4.73 0 0 1-.458.02Zm3.486.059c-.285 0-.54-.039-.766-.119a1.686 1.686 0 0 1-.557-.348 1.568 1.568 0 0 1-.348-.527 1.754 1.754 0 0 1-.12-.657c0-.524.156-.912.468-1.164.312-.259.77-.388 1.373-.388h1.641v-.288c0-.398-.09-.67-.268-.816-.173-.153-.448-.229-.826-.229-.338 0-.587.053-.746.159a.61.61 0 0 0-.279.438h-1.064c.013-.226.07-.431.17-.617.105-.192.248-.358.427-.497.185-.14.408-.246.666-.319.259-.08.55-.12.876-.12.325 0 .617.037.875.11.265.073.491.189.677.349.185.152.328.351.428.596.106.246.159.541.159.886v2.099c0 .278.003.524.01.736.006.206.023.408.05.607h-.995l-.05-.388a6.517 6.517 0 0 1-.01-.398c-.126.245-.345.458-.657.637-.305.172-.683.258-1.134.258Zm.299-.955c.185 0 .361-.023.527-.069.172-.053.322-.126.448-.219.126-.1.225-.219.298-.358.08-.146.12-.312.12-.498v-.288h-1.443c-.279 0-.504.059-.677.179-.165.119-.248.295-.248.527 0 .219.076.395.228.527.16.133.408.199.747.199Zm6.021.955c-.358 0-.69-.053-.995-.159a2.207 2.207 0 0 1-.785-.507 2.405 2.405 0 0 1-.518-.846 3.385 3.385 0 0 1-.189-1.184v-.199c0-.424.067-.799.2-1.124.132-.325.311-.597.537-.815a2.24 2.24 0 0 1 .795-.488c.305-.113.624-.17.955-.17.345 0 .65.047.916.14.272.093.5.222.686.388.192.159.345.348.458.567.112.219.189.455.228.707h-1.114a1.246 1.246 0 0 0-.358-.607c-.172-.159-.444-.239-.816-.239-.185 0-.361.033-.527.099-.166.06-.312.156-.438.289a1.403 1.403 0 0 0-.298.517 2.21 2.21 0 0 0-.11.736v.199c0 .312.037.581.11.806.073.219.172.398.298.537.126.14.272.242.438.309.166.059.342.089.527.089.617 0 1.008-.282 1.174-.845h1.114c-.053.278-.145.53-.278.756a1.99 1.99 0 0 1-.488.567 2.335 2.335 0 0 1-.686.358c-.259.08-.537.119-.836.119Zm3.33-7.073h1.094v2.527c.06-.119.136-.235.229-.348.093-.12.206-.222.338-.309a2.02 2.02 0 0 1 .468-.209c.179-.052.381-.08.607-.08.643 0 1.127.177 1.452.528.325.345.488.852.488 1.522v3.333h-1.095v-3.084c0-.444-.093-.779-.278-1.005-.186-.225-.491-.338-.916-.338-.232 0-.43.04-.596.119a1.126 1.126 0 0 0-.627.727c-.047.159-.07.325-.07.497v3.084h-1.094v-6.964Zm8.311 7.073c-.351 0-.683-.053-.995-.159a2.435 2.435 0 0 1-.825-.497 2.483 2.483 0 0 1-.557-.846c-.14-.338-.21-.736-.21-1.194v-.199c0-.437.067-.819.2-1.144.132-.325.311-.593.537-.805a2.24 2.24 0 0 1 .796-.488 2.83 2.83 0 0 1 .955-.16c.802 0 1.416.216 1.84.648.431.431.647 1.047.647 1.85v.557h-3.86c.007.272.05.504.13.696.085.186.195.339.327.458.14.113.296.196.468.249.18.053.361.079.547.079.378 0 .654-.059.826-.179a.906.906 0 0 0 .368-.467h1.094c-.106.524-.368.922-.786 1.193-.41.272-.911.408-1.502.408Zm-.05-4.536c-.185 0-.364.023-.537.07a1.241 1.241 0 0 0-.447.228c-.126.1-.23.233-.309.398-.08.16-.122.355-.13.587h2.767a1.647 1.647 0 0 0-.12-.617.978.978 0 0 0-.278-.397c-.12-.1-.262-.17-.428-.209-.16-.04-.332-.06-.517-.06Zm5.463 4.536c-.338 0-.643-.056-.915-.169a1.956 1.956 0 0 1-.707-.497 2.393 2.393 0 0 1-.447-.846 3.965 3.965 0 0 1-.16-1.184v-.199c0-.424.053-.795.16-1.114a2.3 2.3 0 0 1 .447-.816c.2-.218.435-.384.707-.497.272-.113.573-.17.905-.17.398 0 .74.09 1.024.27.292.179.521.407.687.686v-2.537h1.094v6.964h-1.014v-.885c-.06.132-.146.258-.26.378a1.826 1.826 0 0 1-.407.318 2.166 2.166 0 0 1-1.114.298Zm.248-.955c.193 0 .375-.03.548-.089.179-.06.335-.153.467-.279.133-.126.239-.282.319-.467.08-.186.119-.405.119-.657v-.706c0-.226-.04-.425-.12-.597a1.173 1.173 0 0 0-.328-.428 1.303 1.303 0 0 0-.467-.268 1.623 1.623 0 0 0-.538-.09c-.417 0-.749.136-.994.408-.246.265-.368.676-.368 1.233v.199c0 .584.126 1.022.378 1.314.252.285.58.427.984.427Zm6.728-3.491H64.8v-.936h.697v-.149c0-.524.132-.918.398-1.184.272-.272.72-.407 1.343-.407.199 0 .447.01.746.03v.954c-.1-.013-.21-.02-.329-.02a5.46 5.46 0 0 0-.318-.01c-.278 0-.474.053-.587.16-.106.1-.159.275-.159.527v.1h1.293v.935h-1.293v4.337h-1.094v-4.337Zm3.434-.936h1.094v5.273h-1.094v-5.273Zm.547-.597a.707.707 0 0 1-.507-.189.707.707 0 0 1-.189-.507c0-.205.063-.371.189-.497a.687.687 0 0 1 .507-.2c.206 0 .372.067.498.2a.654.654 0 0 1 .199.497.687.687 0 0 1-.2.508.673.673 0 0 1-.497.188Zm3.726 5.92c-.285 0-.53-.03-.736-.09a1.245 1.245 0 0 1-.517-.288 1.326 1.326 0 0 1-.299-.538 3.217 3.217 0 0 1-.09-.815v-5.283h1.095v5.203c0 .325.053.551.16.677.105.119.301.179.586.179h.19l.158-.02v.945a1.2 1.2 0 0 1-.258.02c-.12.006-.216.01-.289.01Zm3.735.059c-.351 0-.683-.053-.995-.159a2.434 2.434 0 0 1-.825-.497 2.483 2.483 0 0 1-.558-.846c-.139-.338-.208-.736-.208-1.194v-.199c0-.437.066-.819.198-1.144.133-.325.312-.593.538-.805.232-.219.497-.382.796-.488a2.83 2.83 0 0 1 .955-.16c.802 0 1.416.216 1.84.648.431.431.647 1.047.647 1.85v.557h-3.86c.006.272.05.504.13.696.085.186.195.339.327.458.14.113.296.196.468.249.179.053.361.079.547.079.378 0 .653-.059.826-.179a.906.906 0 0 0 .368-.467h1.094c-.106.524-.368.922-.786 1.193-.41.272-.912.408-1.502.408Zm-.05-4.536c-.185 0-.364.023-.537.07a1.24 1.24 0 0 0-.447.228c-.127.1-.23.233-.309.398-.08.16-.123.355-.13.587h2.766a1.65 1.65 0 0 0-.119-.617.978.978 0 0 0-.279-.397c-.119-.1-.261-.17-.427-.209-.16-.04-.332-.06-.518-.06Zm5.522 4.536c-.39 0-.726-.043-1.004-.129a2.147 2.147 0 0 1-.687-.348 1.596 1.596 0 0 1-.418-.508 2.05 2.05 0 0 1-.179-.616h1.095c.046.185.159.341.338.467.179.12.464.179.855.179.438 0 .746-.059.925-.179.18-.119.27-.275.27-.467a.435.435 0 0 0-.07-.239.589.589 0 0 0-.23-.209 1.594 1.594 0 0 0-.407-.179 3.946 3.946 0 0 0-.647-.129 5.365 5.365 0 0 1-.816-.17 2.196 2.196 0 0 1-.626-.308 1.302 1.302 0 0 1-.398-.458 1.386 1.386 0 0 1-.14-.646c0-.212.044-.411.13-.597.086-.192.219-.358.398-.497.179-.14.401-.25.666-.329.272-.086.587-.13.945-.13.345 0 .644.044.896.13.252.087.46.203.626.348.173.146.302.319.388.518.093.192.153.394.18.607h-1.095a.797.797 0 0 0-.328-.478c-.16-.113-.381-.169-.667-.169-.39 0-.663.06-.815.179-.153.119-.23.259-.23.418 0 .093.02.176.06.249a.57.57 0 0 0 .2.199c.092.053.218.102.377.149.166.046.375.083.627.109.305.04.584.1.836.179.258.08.477.186.656.319.186.126.329.285.428.477.1.186.15.405.15.657 0 .225-.05.437-.15.636a1.4 1.4 0 0 1-.428.508 2.25 2.25 0 0 1-.716.338c-.285.08-.617.119-.995.119Z" fill="#1C1C1C"/><rect x="19.018" y="113.119" width="277.963" height="27.504" rx="5.559" fill="#fff"/><rect x="19.018" y="113.119" width="277.963" height="27.504" rx="5.559" stroke="#D7DBEB" stroke-width=".585"/><rect x="22" y="116.25" width="79.074" height="21.242" rx="3.54" fill="#F1F5FF"/><g clip-path="url(#a)"><g clip-path="url(#b)" fill-rule="evenodd" clip-rule="evenodd"><path d="m38.522 119.79 2.36 2.36v11.211a.59.59 0 0 1-.59.59H29.67a.59.59 0 0 1-.59-.59V120.38a.59.59 0 0 1 .59-.59h8.85Z" fill="#FAFAFA"/><path d="M38.522 119.79v2.36h2.36l-2.36-2.36Z" fill="#EFF0F6"/></g><rect x="28.491" y="125.691" width="12.981" height="5.901" rx=".59" fill="#0D76E9"/><path d="M31.191 130.691h-1.163v-3.433h1.187c.34 0 .633.068.878.206.246.136.435.332.567.588.132.256.197.562.197.919s-.066.665-.199.922a1.374 1.374 0 0 1-.572.591c-.248.138-.546.207-.895.207Zm-.541-.538h.511c.24 0 .439-.044.598-.131.16-.088.28-.22.36-.394.081-.176.122-.395.122-.657 0-.263-.04-.481-.121-.654a.83.83 0 0 0-.357-.391 1.187 1.187 0 0 0-.584-.13h-.53v2.357Zm5.866-1.179c0 .37-.07.687-.208.951a1.477 1.477 0 0 1-.563.603c-.237.14-.506.21-.806.21-.301 0-.57-.07-.808-.21a1.496 1.496 0 0 1-.564-.605c-.137-.264-.206-.58-.206-.949 0-.37.069-.686.206-.949a1.49 1.49 0 0 1 .564-.605c.238-.139.507-.209.808-.209.3 0 .569.07.806.209.238.14.426.342.563.605.139.263.208.579.208.949Zm-.625 0c0-.26-.041-.48-.123-.659a.907.907 0 0 0-.335-.407.887.887 0 0 0-.494-.139.886.886 0 0 0-.495.139.917.917 0 0 0-.337.407c-.08.179-.12.399-.12.659 0 .261.04.481.12.661a.934.934 0 0 0 .337.407.893.893 0 0 0 .495.137.894.894 0 0 0 .494-.137.923.923 0 0 0 .335-.407c.082-.18.123-.4.123-.661Zm4.151-.558h-.627a.773.773 0 0 0-.278-.478.746.746 0 0 0-.245-.126.956.956 0 0 0-.293-.043.888.888 0 0 0-.496.141.919.919 0 0 0-.339.409 1.573 1.573 0 0 0-.122.655c0 .263.04.484.122.664a.93.93 0 0 0 .339.406c.144.09.309.135.494.135a.993.993 0 0 0 .289-.04.803.803 0 0 0 .243-.122.73.73 0 0 0 .287-.466l.627.003a1.348 1.348 0 0 1-.153.459 1.347 1.347 0 0 1-.743.634c-.167.06-.353.091-.558.091-.302 0-.57-.07-.808-.21a1.461 1.461 0 0 1-.56-.605c-.136-.264-.204-.58-.204-.949 0-.37.069-.686.206-.949a1.48 1.48 0 0 1 .562-.605 1.56 1.56 0 0 1 .804-.209c.191 0 .369.026.533.08.164.054.31.133.44.236.128.103.233.23.316.379.084.149.139.319.164.51Z" fill="#fff"/></g><path d="M47.609 124.088h2.065c.347 0 .644.039.892.116.248.077.451.184.611.322.165.132.287.295.364.488.077.187.115.393.115.619 0 .298-.082.554-.248.768-.165.21-.369.361-.61.455.34.077.61.234.809.471.198.231.297.534.297.908 0 .237-.038.455-.116.653a1.348 1.348 0 0 1-.363.52c-.165.143-.38.256-.644.339a3.11 3.11 0 0 1-.942.124h-2.23v-5.783Zm2.23 5.106c.248 0 .454-.023.62-.067.165-.049.297-.115.396-.198a.698.698 0 0 0 .207-.314c.044-.121.066-.256.066-.405 0-.148-.022-.283-.066-.404a.639.639 0 0 0-.207-.314.961.961 0 0 0-.405-.198 2.173 2.173 0 0 0-.62-.075h-1.445v1.975h1.454Zm-.165-2.619c.231 0 .424-.022.578-.066a.953.953 0 0 0 .372-.19.685.685 0 0 0 .198-.289 1.1 1.1 0 0 0 .058-.364c0-.132-.02-.253-.058-.363a.619.619 0 0 0-.198-.289 1.004 1.004 0 0 0-.372-.182 2.144 2.144 0 0 0-.578-.066h-1.289v1.809h1.289Zm3.303-1.082h.678v.826a1.43 1.43 0 0 1 .462-.645c.22-.176.488-.264.802-.264a1.672 1.672 0 0 1 .454.058v.677a1.07 1.07 0 0 0-.215-.058 1.833 1.833 0 0 0-.28-.016c-.166 0-.32.03-.463.091-.143.06-.267.146-.372.256a1.121 1.121 0 0 0-.248.388c-.06.154-.09.322-.09.504v2.561h-.728v-4.378Zm3.302 0h.727v4.378h-.727v-4.378Zm.363-.579a.48.48 0 0 1-.495-.495.48.48 0 0 1 .495-.496.48.48 0 0 1 .496.496.482.482 0 0 1-.496.495Zm3.582 5.04c-.28 0-.548-.045-.801-.133a1.857 1.857 0 0 1-.67-.404 2.065 2.065 0 0 1-.462-.703 2.59 2.59 0 0 1-.173-.991v-.165c0-.364.055-.678.165-.942.11-.27.256-.493.438-.669.187-.182.402-.317.644-.405.248-.088.507-.132.776-.132.645 0 1.143.176 1.496.529.352.352.528.851.528 1.495v.463h-3.32c0 .258.04.476.123.652a1.228 1.228 0 0 0 .76.669c.166.05.33.075.496.075.33 0 .584-.055.76-.166a.916.916 0 0 0 .388-.454h.71a1.526 1.526 0 0 1-.653.958 1.86 1.86 0 0 1-.552.24 2.495 2.495 0 0 1-.653.083Zm-.041-3.883c-.171 0-.336.025-.496.074a1.144 1.144 0 0 0-.843 1.157h2.636a1.433 1.433 0 0 0-.116-.57.932.932 0 0 0-.273-.38 1.058 1.058 0 0 0-.413-.215 1.8 1.8 0 0 0-.495-.066Zm3.183.066h-.62v-.644h.62v-.083c0-.457.104-.798.314-1.024.214-.226.55-.339 1.007-.339.166 0 .372.008.62.025v.661a2.07 2.07 0 0 0-.273-.017 4.992 4.992 0 0 0-.264-.008c-.253 0-.43.052-.529.157-.099.099-.148.281-.148.545v.083h1.131v.644h-1.131v3.734h-.727v-3.734Zm3.016 3.817a.58.58 0 0 1-.413-.166.576.576 0 0 1-.165-.413.56.56 0 0 1 .165-.413.579.579 0 0 1 .413-.165.55.55 0 0 1 .405.165c.116.11.174.248.174.413 0 .16-.058.298-.174.413a.552.552 0 0 1-.405.166Zm3.266 0c-.27 0-.518-.047-.744-.141a1.566 1.566 0 0 1-.57-.413 1.99 1.99 0 0 1-.371-.694 3.29 3.29 0 0 1-.133-.983v-.165c0-.347.044-.653.133-.917a2 2 0 0 1 .38-.677c.16-.182.35-.32.57-.413.225-.094.47-.141.735-.141.352 0 .658.077.917.231.264.155.46.367.586.636v-2.189h.727v5.783h-.677v-.826c-.11.27-.303.49-.578.661-.276.165-.6.248-.975.248Zm.165-.645c.198 0 .38-.033.545-.099a1.23 1.23 0 0 0 .421-.273 1.23 1.23 0 0 0 .273-.421c.066-.165.1-.347.1-.545v-.661a1.25 1.25 0 0 0-.1-.496 1.181 1.181 0 0 0-.273-.396 1.13 1.13 0 0 0-.42-.264 1.437 1.437 0 0 0-.546-.1 1.23 1.23 0 0 0-.496.1c-.154.066-.289.165-.404.297-.11.127-.199.284-.265.471-.06.187-.09.399-.09.636v.165c0 .259.03.487.09.686.066.198.154.363.265.495.115.133.25.234.404.306.155.066.32.099.496.099Zm5.206.645c-.28 0-.548-.045-.801-.133a1.936 1.936 0 0 1-.67-.413 2.05 2.05 0 0 1-.462-.702 2.568 2.568 0 0 1-.173-.983v-.165c0-.353.058-.664.173-.934.116-.269.27-.492.463-.669.193-.181.416-.316.669-.404.253-.094.52-.141.801-.141s.548.047.802.141c.253.088.476.223.669.404.192.177.347.4.462.669.116.27.174.581.174.934v.165c0 .375-.058.702-.174.983a2.05 2.05 0 0 1-.462.702c-.193.182-.416.32-.67.413-.253.088-.52.133-.8.133Zm0-.661c.165 0 .33-.028.496-.083.165-.061.311-.151.438-.273.126-.126.228-.289.305-.487.083-.198.124-.441.124-.727v-.165c0-.264-.041-.49-.124-.678a1.328 1.328 0 0 0-.305-.462 1.154 1.154 0 0 0-.438-.264 1.534 1.534 0 0 0-.991 0 1.155 1.155 0 0 0-.438.264 1.425 1.425 0 0 0-.314.462 1.785 1.785 0 0 0-.116.678v.165c0 .286.039.529.116.727.082.198.187.361.314.487.127.122.272.212.438.273.165.055.33.083.495.083Zm4.83.661c-.281 0-.543-.045-.785-.133a1.721 1.721 0 0 1-.628-.413 2.055 2.055 0 0 1-.421-.702 2.951 2.951 0 0 1-.149-.983v-.165c0-.353.055-.664.165-.934a1.95 1.95 0 0 1 .438-.669 1.74 1.74 0 0 1 .628-.404c.242-.094.493-.141.752-.141.258 0 .49.036.694.107a1.635 1.635 0 0 1 .908.744c.1.171.17.355.215.553h-.743a1.632 1.632 0 0 0-.157-.289.945.945 0 0 0-.512-.396 1.269 1.269 0 0 0-.405-.058c-.16 0-.314.03-.463.091-.149.055-.28.143-.396.264a1.28 1.28 0 0 0-.281.454c-.067.188-.1.414-.1.678v.165c0 .281.034.523.1.727.071.198.165.361.28.487.116.122.248.212.397.273.149.055.303.083.463.083.27 0 .495-.066.677-.199.187-.132.32-.314.397-.545h.743a1.8 1.8 0 0 1-.644 1.033c-.325.248-.716.372-1.173.372Z" fill="#1C1C1C"/><path d="m88.978 124.511 4.72 4.72m-4.72 0 4.72-4.72" stroke="#B3B7C7" stroke-width=".59" stroke-linecap="round" stroke-linejoin="round"/><path d="M20.547 149.565h.918l2.19 4.166 2.191-4.166h.88v6.554h-.88v-4.962l-1.881 3.558h-.656l-1.882-3.558v4.962h-.88v-6.554Zm9.282 6.648c-.275 0-.518-.038-.73-.113a1.595 1.595 0 0 1-.525-.327 1.379 1.379 0 0 1-.327-.487 1.655 1.655 0 0 1-.113-.618c0-.493.144-.849.431-1.068.293-.218.712-.327 1.255-.327h1.61v-.337c0-.425-.097-.718-.29-.881-.187-.162-.471-.243-.852-.243-.356 0-.615.069-.777.206-.162.131-.253.281-.272.449h-.824c.013-.199.066-.383.16-.552.1-.175.23-.325.393-.449.168-.125.368-.222.599-.291.23-.075.487-.112.768-.112.586 0 1.052.14 1.395.421.35.275.524.727.524 1.358v2.706c.006.193.022.384.047.571h-.721a5.058 5.058 0 0 1-.037-.403 9.355 9.355 0 0 1-.01-.44 1.66 1.66 0 0 1-.637.665c-.293.181-.649.272-1.067.272Zm.178-.749a1.9 1.9 0 0 0 .543-.075c.175-.057.328-.135.459-.234.13-.107.234-.235.309-.384.075-.15.112-.325.112-.525v-.337h-1.47c-.306 0-.546.063-.72.188-.176.118-.263.309-.263.571 0 .231.081.421.244.571.168.15.43.225.786.225Zm5.05-1.864-1.769-2.443h.955l1.31 1.807 1.312-1.807h.917l-1.77 2.397 1.864 2.565h-.974l-1.386-1.938-1.385 1.938h-.937l1.864-2.519Zm4.547 2.613a.655.655 0 0 1-.468-.188.655.655 0 0 1-.187-.468c0-.187.062-.343.187-.468a.655.655 0 0 1 .468-.187c.181 0 .334.062.459.187a.62.62 0 0 1 .196.468.639.639 0 0 1-.196.468.624.624 0 0 1-.459.188Zm4.773-4.326h-.702v-.73h.702v-.094c0-.518.119-.905.356-1.161.244-.256.624-.384 1.142-.384.188 0 .422.009.703.028v.749a2.43 2.43 0 0 0-.31-.019 5.322 5.322 0 0 0-.299-.009c-.287 0-.487.059-.6.178-.112.112-.168.318-.168.618v.094h1.283v.73h-1.283v4.232h-.824v-4.232Zm3.233-.73h.824v4.962h-.824v-4.962Zm.412-.656a.546.546 0 0 1-.562-.562.545.545 0 0 1 .562-.561.546.546 0 0 1 .562.561.545.545 0 0 1-.562.562Zm3.498 5.665c-.519 0-.89-.125-1.115-.375-.224-.249-.337-.655-.337-1.217v-5.009h.824v5.009c0 .325.053.546.16.665.105.118.293.178.561.178h.178l.15-.019v.73a2.69 2.69 0 0 1-.421.038Zm3.469.047c-.318 0-.621-.05-.908-.15a2.1 2.1 0 0 1-.759-.459 2.327 2.327 0 0 1-.524-.796c-.131-.318-.197-.693-.197-1.123v-.188c0-.412.063-.767.188-1.067.124-.306.29-.559.496-.758a2.04 2.04 0 0 1 .73-.459c.281-.1.574-.15.88-.15.73 0 1.295.2 1.695.599.4.4.6.965.6 1.695v.524h-3.765c0 .294.047.54.14.74a1.39 1.39 0 0 0 .862.758c.187.056.375.085.562.085.374 0 .662-.063.861-.188a1.04 1.04 0 0 0 .44-.515h.806c-.05.238-.14.447-.272.628-.125.181-.28.334-.468.458a2.1 2.1 0 0 1-.627.272 2.843 2.843 0 0 1-.74.094Zm-.047-4.401c-.193 0-.38.028-.562.084a1.294 1.294 0 0 0-.955 1.311h2.987a1.628 1.628 0 0 0-.131-.646 1.064 1.064 0 0 0-.309-.431 1.203 1.203 0 0 0-.468-.243 2.035 2.035 0 0 0-.562-.075Zm7.491 4.401c-.33 0-.618-.038-.861-.113a2.075 2.075 0 0 1-.609-.318 1.44 1.44 0 0 1-.393-.459 1.94 1.94 0 0 1-.197-.562h.824c.044.2.16.375.347.525.193.143.49.215.89.215.23 0 .424-.019.58-.056.156-.044.28-.097.374-.159a.638.638 0 0 0 .216-.234.684.684 0 0 0 .065-.291.588.588 0 0 0-.065-.281.512.512 0 0 0-.216-.215c-.1-.069-.24-.128-.421-.178a4.03 4.03 0 0 0-.665-.14 4.92 4.92 0 0 1-.749-.159 1.977 1.977 0 0 1-.562-.291 1.346 1.346 0 0 1-.355-.421 1.394 1.394 0 0 1-.122-.609c0-.187.04-.365.121-.533.082-.169.203-.319.366-.45.162-.131.362-.234.599-.309.237-.075.515-.112.833-.112.294 0 .55.041.768.122.218.075.403.178.552.309.156.131.278.284.365.458.088.175.15.362.188.562h-.824a.956.956 0 0 0-.319-.533c-.162-.138-.405-.206-.73-.206-.405 0-.69.068-.852.206a.602.602 0 0 0-.243.486c0 .113.018.21.056.291a.609.609 0 0 0 .206.215c.1.062.228.115.384.159.162.038.362.072.599.103.306.038.577.094.815.169.237.068.436.165.599.29.162.119.284.265.365.44.087.175.131.384.131.627 0 .2-.044.387-.131.562a1.242 1.242 0 0 1-.375.459 2.012 2.012 0 0 1-.646.318 3.248 3.248 0 0 1-.908.113Zm3.327-5.056h.823v4.962h-.823v-4.962Zm.412-.656a.546.546 0 0 1-.562-.562.544.544 0 0 1 .562-.561.546.546 0 0 1 .561.561.545.545 0 0 1-.561.562Zm1.625 4.934 2.94-3.548H67.89v-.73h3.84v.683l-2.94 3.549h3.033v.73h-4.026v-.684Zm7.207.778c-.318 0-.621-.05-.908-.15-.287-.1-.54-.253-.758-.459a2.329 2.329 0 0 1-.525-.796c-.131-.318-.197-.693-.197-1.123v-.188c0-.412.063-.767.188-1.067.125-.306.29-.559.496-.758a2.04 2.04 0 0 1 .73-.459c.281-.1.575-.15.88-.15.73 0 1.296.2 1.695.599.4.4.6.965.6 1.695v.524H73.44c0 .294.047.54.14.74a1.388 1.388 0 0 0 .862.758c.188.056.375.085.562.085.375 0 .662-.063.861-.188a1.04 1.04 0 0 0 .44-.515h.806c-.05.238-.14.447-.272.628a1.71 1.71 0 0 1-.468.458c-.181.119-.39.21-.627.272-.231.062-.478.094-.74.094Zm-.047-4.401c-.193 0-.38.028-.561.084a1.294 1.294 0 0 0-.956 1.311h2.987a1.625 1.625 0 0 0-.13-.646 1.064 1.064 0 0 0-.31-.431 1.203 1.203 0 0 0-.468-.243 2.034 2.034 0 0 0-.562-.075Zm4.074 4.401a.656.656 0 0 1-.468-.188.655.655 0 0 1-.188-.468.636.636 0 0 1 .656-.655c.18 0 .334.062.459.187a.62.62 0 0 1 .196.468.639.639 0 0 1-.196.468.624.624 0 0 1-.46.188Zm0-3.839a.659.659 0 0 1-.468-.187.66.66 0 0 1-.188-.469.636.636 0 0 1 .656-.655c.18 0 .334.062.459.187a.62.62 0 0 1 .196.468.643.643 0 0 1-.196.469.627.627 0 0 1-.46.187Zm6.412 3.839c-.356 0-.674-.047-.955-.141a2.214 2.214 0 0 1-.703-.402 1.692 1.692 0 0 1-.59-1.33h.88c0 .318.11.58.328.786.219.2.565.3 1.04.3.474 0 .82-.103 1.039-.309.218-.212.328-.487.328-.824 0-.349-.113-.63-.337-.842-.219-.219-.562-.328-1.03-.328h-.703v-.749h.703c.45 0 .774-.094.973-.281.2-.194.3-.459.3-.796 0-.325-.097-.577-.29-.758-.194-.188-.521-.281-.983-.281-.444 0-.768.096-.974.29-.2.187-.3.421-.3.702h-.88c0-.243.047-.474.14-.693.1-.218.24-.405.422-.561.187-.163.412-.291.674-.384.268-.094.574-.141.918-.141.343 0 .649.047.917.141.269.093.493.218.674.374.188.156.328.34.422.553.093.212.14.433.14.664 0 .375-.1.693-.3.955-.193.256-.468.437-.823.543.374.119.67.313.89.581.218.268.327.637.327 1.105 0 .249-.05.487-.15.711-.1.219-.247.412-.44.581a2.176 2.176 0 0 1-.702.393c-.281.094-.6.141-.955.141Zm5.71 0a2.58 2.58 0 0 1-.907-.16 1.766 1.766 0 0 1-.74-.543c-.212-.262-.38-.608-.506-1.039-.125-.437-.187-.98-.187-1.629v-.187c0-.606.062-1.111.187-1.517.125-.406.294-.73.506-.974.212-.25.459-.427.74-.534.287-.106.59-.159.908-.159.318 0 .618.053.898.159.288.107.537.284.75.534.212.244.38.568.505.974s.187.911.187 1.517v.187c0 .649-.062 1.192-.187 1.629-.125.431-.293.777-.505 1.039a1.755 1.755 0 0 1-.75.543c-.28.107-.58.16-.898.16Zm0-.768c.194 0 .378-.035.553-.103.181-.075.337-.206.468-.393.138-.194.244-.459.319-.796.08-.337.121-.774.121-1.311v-.187c0-.487-.04-.887-.121-1.199-.075-.312-.181-.558-.319-.739a1.032 1.032 0 0 0-.468-.375 1.49 1.49 0 0 0-.552-.103c-.2 0-.387.034-.562.103a1.1 1.1 0 0 0-.468.375c-.131.181-.237.427-.319.739-.075.312-.112.712-.112 1.199v.187c0 .537.038.974.112 1.311.082.337.188.602.319.796.137.187.293.318.468.393.175.068.362.103.562.103Zm6.181-5.88h.918l2.191 4.166 2.191-4.166h.88v6.554h-.88v-4.962l-1.882 3.558h-.656l-1.882-3.558v4.962h-.88v-6.554Zm8.056 0h2.341c.393 0 .73.044 1.011.131.281.087.512.209.693.365.187.15.324.334.412.553.087.212.131.446.131.702 0 .337-.094.627-.281.871a1.61 1.61 0 0 1-.693.514c.387.088.693.266.917.534.225.262.338.606.338 1.03 0 .268-.044.515-.132.74a1.531 1.531 0 0 1-.412.59c-.187.162-.43.29-.73.384-.293.093-.649.14-1.067.14h-2.528v-6.554Zm2.528 5.786c.281 0 .515-.025.702-.075.187-.056.337-.131.449-.224a.792.792 0 0 0 .235-.356 1.36 1.36 0 0 0 .074-.459 1.36 1.36 0 0 0-.074-.459.733.733 0 0 0-.235-.356 1.097 1.097 0 0 0-.458-.224 2.496 2.496 0 0 0-.703-.085h-1.638v2.238h1.648Zm-.187-2.968c.262 0 .48-.025.655-.075.175-.05.315-.121.421-.215a.78.78 0 0 0 .225-.328c.044-.125.066-.262.066-.412 0-.15-.022-.287-.066-.412a.705.705 0 0 0-.225-.327 1.127 1.127 0 0 0-.421-.206 2.423 2.423 0 0 0-.655-.075h-1.461v2.05h1.461Z" fill="#B3B7C7"/><path d="m234.906 149.789-4.31 4.31a.732.732 0 0 0 1.034 1.035l4.311-4.31a1.464 1.464 0 0 0-2.069-2.069l-4.311 4.31a2.194 2.194 0 1 0 3.104 3.103l4.436-4.435" stroke="#0D76E9" stroke-width=".585" stroke-linecap="round"/><path d="M245.802 154.468h-2.772l-.627 1.629h-.917l2.509-6.554h.88l2.509 6.554h-.955l-.627-1.629Zm-2.481-.768h2.191l-1.096-3.034-1.095 3.034Zm6.45 2.444c-.531 0-.915-.119-1.152-.356-.231-.244-.346-.609-.346-1.096v-2.827h-.749v-.731h.749v-1.123h.824v1.123h1.329v.731h-1.329v2.734c0 .281.059.483.177.608.119.125.347.188.684.188.187 0 .374-.01.562-.029v.731a7.202 7.202 0 0 1-.356.028 3.92 3.92 0 0 1-.393.019Zm3.657 0c-.531 0-.914-.119-1.152-.356-.231-.244-.346-.609-.346-1.096v-2.827h-.749v-.731h.749v-1.123h.824v1.123h1.329v.731h-1.329v2.734c0 .281.059.483.178.608.118.125.346.188.683.188.188 0 .375-.01.562-.029v.731a7.107 7.107 0 0 1-.356.028 3.89 3.89 0 0 1-.393.019Zm3.337.046c-.275 0-.518-.037-.73-.112a1.587 1.587 0 0 1-.525-.328 1.354 1.354 0 0 1-.327-.487 1.646 1.646 0 0 1-.113-.618c0-.493.144-.848.431-1.067.293-.218.712-.328 1.255-.328h1.61v-.337c0-.424-.097-.717-.29-.88-.188-.162-.472-.243-.852-.243-.356 0-.615.068-.777.206-.163.131-.253.281-.272.449h-.824c.013-.2.066-.384.159-.552a1.5 1.5 0 0 1 .394-.45 1.93 1.93 0 0 1 .599-.29c.231-.075.487-.112.768-.112.586 0 1.051.14 1.395.421.349.275.524.727.524 1.358v2.706c.006.193.022.383.047.571h-.721a5.368 5.368 0 0 1-.047-.843 1.656 1.656 0 0 1-.637.665c-.293.181-.649.271-1.067.271Zm.178-.749c.193 0 .374-.025.543-.075.175-.056.328-.134.459-.234a1.15 1.15 0 0 0 .309-.384c.075-.149.112-.324.112-.524v-.337h-1.47c-.306 0-.546.063-.721.187-.175.119-.262.309-.262.571 0 .231.081.422.243.572.169.149.431.224.787.224Zm5.622.749c-.319 0-.615-.05-.89-.149a1.966 1.966 0 0 1-.711-.469 2.332 2.332 0 0 1-.478-.795 3.362 3.362 0 0 1-.168-1.115v-.187c0-.399.062-.752.187-1.058.125-.306.29-.559.496-.758.206-.206.443-.359.712-.459.274-.106.558-.159.852-.159.293 0 .555.04.786.121.237.082.44.194.609.338.174.143.315.312.421.505.112.194.194.403.243.627h-.842a1.831 1.831 0 0 0-.178-.327 1.08 1.08 0 0 0-.581-.45 1.471 1.471 0 0 0-.458-.065c-.181 0-.356.034-.525.103a1.185 1.185 0 0 0-.449.299 1.447 1.447 0 0 0-.318.515 2.317 2.317 0 0 0-.113.768v.187c0 .319.038.593.113.824.081.225.187.409.318.553a1.3 1.3 0 0 0 .449.309c.169.062.344.093.525.093.305 0 .561-.075.767-.224.213-.15.362-.356.45-.618h.842c-.118.493-.362.883-.73 1.17-.368.281-.811.421-1.329.421Zm3.182-6.647h.824v2.481c.063-.131.144-.256.244-.375.1-.118.218-.221.355-.309.138-.093.294-.165.469-.215.174-.056.365-.084.571-.084.624 0 1.086.168 1.385.505.306.331.459.818.459 1.461v3.09h-.824v-2.903c0-.462-.096-.811-.29-1.048-.193-.238-.518-.356-.974-.356-.243 0-.455.04-.636.121a1.26 1.26 0 0 0-.684.768c-.05.169-.075.34-.075.515v2.903h-.824v-6.554Zm9.515 6.647c-.274 0-.518-.037-.73-.112a1.573 1.573 0 0 1-.524-.328 1.357 1.357 0 0 1-.328-.487 1.646 1.646 0 0 1-.112-.618c0-.493.143-.848.43-1.067.294-.218.712-.328 1.255-.328h1.61v-.337c0-.424-.096-.717-.29-.88-.187-.162-.471-.243-.852-.243-.356 0-.615.068-.777.206-.162.131-.253.281-.272.449h-.824c.013-.2.066-.384.16-.552.099-.175.231-.325.393-.45a1.93 1.93 0 0 1 .599-.29c.231-.075.487-.112.768-.112.587 0 1.052.14 1.395.421.349.275.524.727.524 1.358v2.706c.007.193.022.383.047.571h-.721a4.866 4.866 0 0 1-.037-.403 8.36 8.36 0 0 1-.01-.44 1.66 1.66 0 0 1-.636.665c-.294.181-.65.271-1.068.271Zm.178-.749c.194 0 .375-.025.543-.075.175-.056.328-.134.459-.234a1.15 1.15 0 0 0 .309-.384c.075-.149.112-.324.112-.524v-.337h-1.47c-.306 0-.546.063-.721.187-.174.119-.262.309-.262.571 0 .231.081.422.244.572.168.149.43.224.786.224Zm6.324-3.576h-.702v-.731h.702v-.093c0-.518.119-.905.356-1.161.243-.256.624-.384 1.142-.384.188 0 .422.009.702.028v.749a2.247 2.247 0 0 0-.309-.019 5.288 5.288 0 0 0-.299-.009c-.287 0-.487.059-.599.178-.113.112-.169.318-.169.618v.093h1.283v.731h-1.283v4.232h-.824v-4.232Zm3.233-.731h.824v4.963h-.824v-4.963Zm.412-.655a.546.546 0 0 1-.562-.562.545.545 0 0 1 .562-.562.542.542 0 0 1 .561.562.545.545 0 0 1-.561.562Zm3.497 5.665c-.518 0-.889-.125-1.114-.375-.225-.25-.337-.655-.337-1.217v-5.009h.824v5.009c0 .324.053.546.159.665.106.118.294.178.562.178h.178l.15-.019v.73a1.23 1.23 0 0 1-.216.028c-.087.006-.156.01-.206.01Zm3.47.046c-.319 0-.621-.05-.908-.149-.288-.1-.54-.253-.759-.459a2.334 2.334 0 0 1-.524-.796c-.131-.318-.197-.693-.197-1.124v-.187c0-.412.063-.768.187-1.067.125-.306.291-.559.497-.759.212-.206.455-.359.73-.458.281-.1.574-.15.88-.15.73 0 1.295.199 1.695.599.399.399.599.964.599 1.695v.524h-3.764c0 .293.047.54.141.74a1.388 1.388 0 0 0 .861.758c.187.056.375.084.562.084.374 0 .661-.062.861-.187.206-.125.353-.296.44-.515h.805c-.05.237-.14.446-.271.627a1.733 1.733 0 0 1-.468.459 2.12 2.12 0 0 1-.628.272 2.839 2.839 0 0 1-.739.093Zm-.047-4.4c-.194 0-.381.028-.562.084a1.297 1.297 0 0 0-.824.684 1.389 1.389 0 0 0-.131.627h2.987a1.625 1.625 0 0 0-.131-.646 1.066 1.066 0 0 0-.309-.431 1.201 1.201 0 0 0-.468-.243 2.036 2.036 0 0 0-.562-.075Z" fill="#0D76E9"/><path d="M23.481 178.432h-2.825l-.587 1.572h-1.194l2.636-6.964h1.194l2.637 6.964h-1.274l-.587-1.572Zm-2.437-1.034h2.05l-1.016-2.865-1.034 2.865Zm6.973 2.716c-.338 0-.644-.057-.915-.17a1.945 1.945 0 0 1-.707-.497 2.377 2.377 0 0 1-.447-.846 3.958 3.958 0 0 1-.16-1.183v-.199c0-.425.053-.796.16-1.115.106-.324.255-.596.447-.815a1.96 1.96 0 0 1 .707-.498c.271-.112.573-.169.905-.169.398 0 .74.09 1.024.269.292.179.521.408.687.686v-2.537h1.094v6.964h-1.015v-.885a1.39 1.39 0 0 1-.258.378 1.824 1.824 0 0 1-.408.318 2.166 2.166 0 0 1-1.114.299Zm.248-.955c.193 0 .375-.03.548-.09.179-.06.335-.153.467-.279.133-.126.239-.281.319-.467.08-.186.119-.405.119-.657v-.706c0-.225-.04-.424-.12-.597a1.18 1.18 0 0 0-.328-.428 1.302 1.302 0 0 0-.467-.268 1.623 1.623 0 0 0-.538-.09c-.417 0-.749.136-.994.408-.246.265-.368.677-.368 1.234v.199c0 .583.126 1.021.378 1.313.252.285.58.428.984.428Zm5.872.955c-.338 0-.643-.057-.915-.17a1.944 1.944 0 0 1-.706-.497 2.377 2.377 0 0 1-.448-.846 3.958 3.958 0 0 1-.16-1.183v-.199c0-.425.054-.796.16-1.115.106-.324.255-.596.448-.815.199-.219.434-.385.706-.498.272-.112.574-.169.905-.169.398 0 .74.09 1.025.269.292.179.52.408.686.686v-2.537h1.095v6.964h-1.015v-.885c-.06.132-.146.258-.259.378a1.828 1.828 0 0 1-.408.318 2.166 2.166 0 0 1-1.114.299Zm.249-.955c.192 0 .375-.03.547-.09.18-.06.335-.153.468-.279.132-.126.238-.281.318-.467.08-.186.12-.405.12-.657v-.706c0-.225-.04-.424-.12-.597a1.18 1.18 0 0 0-.328-.428 1.303 1.303 0 0 0-.468-.268 1.623 1.623 0 0 0-.537-.09c-.418 0-.75.136-.995.408-.245.265-.368.677-.368 1.234v.199c0 .583.126 1.021.378 1.313.252.285.58.428.985.428Zm8.617.955c-.358 0-.69-.053-.995-.16a2.18 2.18 0 0 1-.785-.507 2.386 2.386 0 0 1-.518-.846 3.379 3.379 0 0 1-.189-1.183v-.199c0-.425.067-.799.2-1.124.132-.325.311-.597.536-.816.233-.219.498-.382.796-.488a2.75 2.75 0 0 1 .955-.169c.345 0 .65.047.916.139.272.093.5.223.686.388.192.16.345.349.458.567.112.219.189.455.228.707h-1.114a1.246 1.246 0 0 0-.358-.607c-.172-.159-.444-.239-.816-.239-.185 0-.361.033-.527.1a1.12 1.12 0 0 0-.438.288 1.4 1.4 0 0 0-.298.518 2.2 2.2 0 0 0-.11.736v.199c0 .311.037.58.11.805.073.219.172.398.298.538.126.139.272.242.438.308.166.06.342.09.527.09.617 0 1.008-.282 1.174-.846h1.114a2.334 2.334 0 0 1-.278.756 1.992 1.992 0 0 1-.488.567 2.312 2.312 0 0 1-.686.358c-.259.08-.537.12-.836.12Zm5.618 0a3.04 3.04 0 0 1-1.025-.17 2.362 2.362 0 0 1-.815-.517 2.376 2.376 0 0 1-.548-.835 3.205 3.205 0 0 1-.199-1.174v-.199c0-.418.067-.786.2-1.105.132-.325.314-.596.547-.815.232-.226.504-.395.815-.508.319-.112.66-.169 1.025-.169.365 0 .703.057 1.015.169a2.293 2.293 0 0 1 1.373 1.323c.132.319.198.687.198 1.105v.199c0 .444-.066.835-.199 1.174-.132.331-.315.61-.547.835a2.343 2.343 0 0 1-.825.517c-.312.113-.65.17-1.015.17Zm0-.955c.192 0 .375-.034.547-.1.18-.066.335-.169.468-.308.139-.14.248-.319.328-.538a2.17 2.17 0 0 0 .13-.795v-.199c0-.286-.044-.531-.13-.736a1.374 1.374 0 0 0-.796-.806 1.577 1.577 0 0 0-1.104 0 1.408 1.408 0 0 0-.468.298 1.562 1.562 0 0 0-.328.508c-.08.205-.12.45-.12.736v.199c0 .311.04.577.12.795.086.219.196.398.328.538.14.139.295.242.468.308.179.066.365.1.557.1Zm3.677-4.427h1.014v.885c.127-.265.332-.497.617-.696.285-.199.654-.299 1.105-.299.643 0 1.127.176 1.452.527.325.345.488.853.488 1.523v3.332h-1.095v-3.084c0-.444-.093-.779-.278-1.005-.186-.225-.491-.338-.916-.338-.232 0-.43.04-.596.12a1.123 1.123 0 0 0-.627.726c-.047.159-.07.325-.07.497v3.084h-1.094v-5.272Zm8.063 5.322c-.604 0-1.038-.129-1.304-.388-.258-.259-.388-.677-.388-1.254v-2.745h-.746v-.935h.746v-1.194h1.095v1.194h1.343v.935h-1.343v2.596c0 .312.056.531.169.657.12.119.345.179.676.179.2 0 .398-.01.597-.03v.935a7.768 7.768 0 0 1-.388.03c-.133.013-.285.02-.457.02Zm1.943-5.322h1.015v.895c.106-.272.278-.507.517-.706.246-.199.547-.299.906-.299.165 0 .288.007.368.02a.927.927 0 0 1 .179.04v.995a2.2 2.2 0 0 0-.309-.07 1.632 1.632 0 0 0-.338-.03c-.219 0-.408.04-.567.12a1.051 1.051 0 0 0-.378.298c-.1.119-.176.262-.229.428-.046.159-.07.325-.07.497v3.084h-1.094v-5.272Zm5.224 5.382c-.285 0-.54-.04-.766-.12a1.688 1.688 0 0 1-.557-.348 1.56 1.56 0 0 1-.348-.527 1.754 1.754 0 0 1-.12-.657c0-.524.156-.912.468-1.164.312-.258.77-.388 1.373-.388h1.641v-.288c0-.398-.09-.67-.268-.816-.173-.153-.448-.229-.826-.229-.338 0-.587.053-.746.159a.611.611 0 0 0-.279.438h-1.064c.013-.225.07-.431.17-.617.105-.192.248-.358.427-.497.186-.139.408-.245.666-.318.26-.08.55-.12.876-.12.325 0 .617.037.875.11.266.073.491.189.677.348.185.152.328.351.427.597.107.245.16.54.16.885v2.099c0 .279.003.524.01.736.006.206.023.408.05.607h-.995l-.05-.388a6.61 6.61 0 0 1-.01-.398c-.126.246-.345.458-.657.637-.305.172-.683.259-1.134.259Zm.299-.955c.185 0 .361-.024.527-.07.172-.053.322-.126.448-.219.126-.099.225-.219.298-.358.08-.146.12-.312.12-.497v-.289h-1.443c-.279 0-.504.06-.677.179-.165.119-.248.295-.248.527 0 .219.076.395.229.528.159.132.407.199.746.199Zm6.021.955c-.358 0-.69-.053-.994-.16a2.18 2.18 0 0 1-.786-.507 2.386 2.386 0 0 1-.518-.846 3.379 3.379 0 0 1-.189-1.183v-.199c0-.425.067-.799.2-1.124.132-.325.311-.597.536-.816.233-.219.498-.382.796-.488a2.75 2.75 0 0 1 .955-.169c.345 0 .65.047.916.139.272.093.5.223.686.388.192.16.345.349.458.567.112.219.189.455.228.707h-1.114a1.246 1.246 0 0 0-.358-.607c-.172-.159-.444-.239-.816-.239-.185 0-.361.033-.527.1a1.12 1.12 0 0 0-.438.288 1.398 1.398 0 0 0-.298.518 2.2 2.2 0 0 0-.11.736v.199c0 .311.037.58.11.805a1.5 1.5 0 0 0 .298.538c.126.139.272.242.438.308.166.06.342.09.527.09.617 0 1.008-.282 1.174-.846h1.114a2.334 2.334 0 0 1-.278.756 1.992 1.992 0 0 1-.487.567 2.312 2.312 0 0 1-.687.358c-.259.08-.537.12-.836.12Zm5.37-.06c-.604 0-1.039-.129-1.304-.388-.259-.259-.388-.677-.388-1.254v-2.745h-.746v-.935h.746v-1.194h1.094v1.194h1.343v.935H78.62v2.596c0 .312.057.531.17.657.119.119.344.179.676.179.199 0 .398-.01.597-.03v.935a7.777 7.777 0 0 1-.388.03c-.133.013-.285.02-.458.02Zm4.183.06c-.365 0-.707-.057-1.025-.17a2.362 2.362 0 0 1-.816-.517 2.376 2.376 0 0 1-.547-.835 3.207 3.207 0 0 1-.199-1.174v-.199c0-.418.066-.786.199-1.105.133-.325.315-.596.547-.815.232-.226.504-.395.816-.508.318-.112.66-.169 1.025-.169.364 0 .703.057 1.014.169a2.292 2.292 0 0 1 1.373 1.323c.133.319.2.687.2 1.105v.199c0 .444-.067.835-.2 1.174-.132.331-.315.61-.547.835a2.344 2.344 0 0 1-.826.517c-.311.113-.65.17-1.014.17Zm0-.955c.192 0 .374-.034.547-.1.179-.066.335-.169.467-.308.14-.14.249-.319.329-.538a2.17 2.17 0 0 0 .129-.795v-.199c0-.286-.043-.531-.13-.736a1.374 1.374 0 0 0-.795-.806 1.576 1.576 0 0 0-1.104 0 1.408 1.408 0 0 0-.468.298 1.563 1.563 0 0 0-.328.508c-.08.205-.12.45-.12.736v.199c0 .311.04.577.12.795.086.219.195.398.328.538.14.139.295.242.468.308.178.066.364.1.557.1Zm3.677-4.427h1.014v.895c.106-.272.279-.507.517-.706.246-.199.548-.299.906-.299.166 0 .288.007.368.02a.927.927 0 0 1 .179.04v.995a2.2 2.2 0 0 0-.308-.07 1.632 1.632 0 0 0-.339-.03c-.219 0-.408.04-.567.12a1.05 1.05 0 0 0-.378.298c-.1.119-.175.262-.229.428-.046.159-.07.325-.07.497v3.084h-1.094v-5.272Zm5.865 5.382a3.43 3.43 0 0 1-1.004-.13 2.147 2.147 0 0 1-.687-.348 1.603 1.603 0 0 1-.418-.507 2.057 2.057 0 0 1-.179-.617h1.095c.046.186.159.341.338.467.179.12.464.18.855.18.438 0 .746-.06.926-.18.179-.119.268-.275.268-.467a.437.437 0 0 0-.07-.239.597.597 0 0 0-.228-.209 1.594 1.594 0 0 0-.408-.179 3.947 3.947 0 0 0-.647-.129 5.37 5.37 0 0 1-.816-.169 2.224 2.224 0 0 1-.626-.309 1.31 1.31 0 0 1-.398-.457 1.392 1.392 0 0 1-.14-.647c0-.212.044-.411.13-.597.086-.192.219-.358.398-.497.179-.139.401-.249.666-.328.272-.087.587-.13.945-.13.345 0 .644.043.896.13.252.086.46.202.627.348a1.4 1.4 0 0 1 .387.517c.093.192.153.395.18.607h-1.095a.797.797 0 0 0-.328-.478c-.16-.112-.381-.169-.667-.169-.39 0-.663.06-.815.179-.153.12-.23.259-.23.418 0 .093.02.176.06.249a.57.57 0 0 0 .2.199c.092.053.218.103.377.149.166.046.375.083.627.109.305.04.584.1.836.179.259.08.477.186.656.319.186.126.329.285.428.477.1.186.15.405.15.657a1.408 1.408 0 0 1-.578 1.144 2.25 2.25 0 0 1-.716.338 3.7 3.7 0 0 1-.995.12Zm4.587-4.756-.975.667-.428-.736 1.075-.508-1.075-.507.418-.736.985.666-.08-1.164h.836l-.08 1.164.985-.666.418.736-1.074.507 1.074.508-.428.736-.975-.667.08 1.164h-.836l.08-1.164Z" fill="#1C1C1C"/><rect x="19.018" y="187.978" width="277.963" height="27.504" rx="5.559" fill="#fff"/><rect x="19.018" y="187.978" width="277.963" height="27.504" rx="5.559" stroke="#D7DBEB" stroke-width=".585"/><path d="M33.114 205.293c2.29 0 4.147-1.78 4.147-3.976 0-2.196-1.857-3.976-4.147-3.976s-4.147 1.78-4.147 3.976c0 2.196 1.856 3.976 4.147 3.976ZM37.744 206.119l-.877-.878" stroke="#D7DBEB" stroke-width=".878" stroke-linecap="round" stroke-linejoin="round"/><rect x="18.726" y="220.456" width="122.533" height="33" rx="4.681" fill="#F7F7FC"/><path d="M30.511 233.725h-2.945l-.666 1.731h-.975l2.666-6.964h.935l2.666 6.964h-1.015l-.666-1.731Zm-2.636-.816h2.328l-1.164-3.223-1.164 3.223Zm6.709 2.597c-.55 0-.945-.133-1.184-.398s-.358-.697-.358-1.293v-5.323h.875v5.323c0 .344.056.58.17.706.112.126.311.189.596.189h.19l.158-.02v.776c-.053.013-.129.023-.228.03-.093.006-.166.01-.22.01Zm1.694-5.323h.875v5.273h-.875v-5.273Zm.438-.696a.579.579 0 0 1-.597-.597c0-.172.056-.315.169-.428a.583.583 0 0 1 .428-.169c.172 0 .315.057.428.169.112.113.169.256.169.428a.58.58 0 0 1-.597.597Zm4.164 6.068c-.339 0-.654-.053-.945-.159a2.075 2.075 0 0 1-.756-.497 2.477 2.477 0 0 1-.508-.846 3.555 3.555 0 0 1-.179-1.184v-.198c0-.425.067-.8.2-1.125.132-.325.308-.593.526-.805.22-.219.471-.382.756-.488.292-.113.594-.169.906-.169.311 0 .59.043.835.129.252.087.468.206.647.358.186.153.335.332.448.538.12.205.205.427.258.666h-.895a1.932 1.932 0 0 0-.189-.348.98.98 0 0 0-.259-.289 1.174 1.174 0 0 0-.358-.189 1.556 1.556 0 0 0-.487-.069c-.193 0-.378.036-.557.109-.18.067-.339.173-.478.319a1.53 1.53 0 0 0-.338.547c-.08.225-.12.497-.12.816v.198c0 .339.04.631.12.876.086.239.199.434.338.587.14.146.299.255.478.328.179.066.364.1.557.1.325 0 .597-.08.816-.239.225-.159.384-.378.477-.657h.895c-.126.524-.384.939-.776 1.244-.39.298-.862.447-1.412.447Zm5.57 0a2.92 2.92 0 0 1-.965-.159 2.223 2.223 0 0 1-.806-.487 2.483 2.483 0 0 1-.557-.846c-.14-.338-.209-.736-.209-1.194v-.198c0-.438.067-.816.2-1.135.132-.325.307-.593.526-.805.226-.219.484-.382.776-.488.299-.106.61-.159.935-.159.776 0 1.377.212 1.801.637.425.424.637 1.024.637 1.8v.557h-4c0 .312.05.574.15.786a1.476 1.476 0 0 0 .915.806c.199.06.398.09.597.09.398 0 .703-.067.915-.199.22-.133.375-.315.468-.547h.855c-.053.252-.149.474-.288.666a1.825 1.825 0 0 1-.498.487 2.22 2.22 0 0 1-.666.289 3.016 3.016 0 0 1-.786.099Zm-.05-4.675c-.205 0-.404.03-.597.089a1.38 1.38 0 0 0-.875.727 1.47 1.47 0 0 0-.14.666h3.174a1.724 1.724 0 0 0-.14-.686 1.129 1.129 0 0 0-.328-.458 1.278 1.278 0 0 0-.497-.259 2.166 2.166 0 0 0-.597-.079Zm6.318-2.388h2.04c.523 0 .99.073 1.402.219.411.139.76.348 1.045.627.285.278.504.627.656 1.044.153.418.23.899.23 1.443v.199c0 .557-.08 1.051-.24 1.482a2.801 2.801 0 0 1-.676 1.075c-.292.285-.65.504-1.075.656a4.42 4.42 0 0 1-1.442.219h-1.94v-6.964Zm1.84 6.148c.392 0 .743-.049 1.055-.149a2.04 2.04 0 0 0 .806-.458c.219-.212.384-.484.497-.815.12-.332.18-.73.18-1.194v-.199c0-.444-.057-.826-.17-1.144a1.922 1.922 0 0 0-.487-.776 1.88 1.88 0 0 0-.776-.448 3.18 3.18 0 0 0-1.005-.149h-1.005v5.332h.906Zm6.787.915c-.637 0-1.114-.182-1.432-.547-.319-.364-.478-.928-.478-1.691v-3.134h.875v3.084c0 .491.1.863.299 1.115.206.252.537.378.995.378.245 0 .457-.043.636-.13.186-.086.335-.199.448-.338.12-.139.206-.298.259-.477.06-.18.09-.362.09-.548v-3.084h.875v5.273h-.816v-.995c-.06.146-.143.285-.249.418-.1.133-.225.249-.378.348a1.998 1.998 0 0 1-1.124.328Zm6.202 0c-.338 0-.653-.053-.945-.159a2.074 2.074 0 0 1-.756-.497 2.478 2.478 0 0 1-.507-.846 3.558 3.558 0 0 1-.18-1.184v-.198c0-.425.067-.8.2-1.125.133-.325.308-.593.527-.805.219-.219.471-.382.756-.488.292-.113.594-.169.905-.169.312 0 .59.043.836.129.252.087.468.206.647.358.185.153.335.332.447.538.12.205.206.427.259.666h-.895a1.945 1.945 0 0 0-.19-.348.982.982 0 0 0-.258-.289 1.173 1.173 0 0 0-.358-.189 1.557 1.557 0 0 0-.488-.069c-.192 0-.378.036-.557.109a1.269 1.269 0 0 0-.477.319 1.53 1.53 0 0 0-.338.547c-.08.225-.12.497-.12.816v.198c0 .339.04.631.12.876.086.239.199.434.338.587.14.146.298.255.477.328.18.066.365.1.557.1.325 0 .597-.08.816-.239a1.27 1.27 0 0 0 .478-.657h.895c-.126.524-.385.939-.776 1.244-.391.298-.862.447-1.413.447Zm3.382-7.063h.875v4.119l2.428-2.428h1.074l-2.188 2.179 2.387 3.094h-1.114l-1.9-2.487-.687.647v1.84h-.875v-6.964Z" fill="#1C1C1C"/><path d="M27.897 247.538c-.268 0-.513-.047-.737-.139a1.558 1.558 0 0 1-.566-.41 1.975 1.975 0 0 1-.368-.688 3.27 3.27 0 0 1-.131-.975v-.164c0-.344.043-.647.13-.909.093-.268.22-.492.378-.672.158-.18.346-.317.565-.41.224-.093.467-.139.729-.139.35 0 .653.076.91.229.262.153.455.364.581.631v-2.171h.721v5.735h-.672v-.819c-.109.267-.3.486-.573.655a1.842 1.842 0 0 1-.967.246Zm.164-.639c.197 0 .377-.033.54-.098a1.23 1.23 0 0 0 .418-.271c.115-.114.205-.254.27-.418.066-.163.099-.344.099-.54v-.656a1.234 1.234 0 0 0-.369-.885 1.142 1.142 0 0 0-.417-.262 1.454 1.454 0 0 0-.541-.098c-.175 0-.339.033-.492.098a1.117 1.117 0 0 0-.401.295c-.11.126-.197.282-.262.467-.06.186-.09.396-.09.631v.164c0 .257.03.483.09.68.065.197.153.36.262.491.114.132.248.233.401.304.153.065.317.098.492.098Zm4.893.639c-.525 0-.918-.15-1.18-.451-.262-.3-.393-.764-.393-1.392v-2.581h.72v2.54c0 .404.083.71.246.917.17.208.443.312.82.312.202 0 .377-.036.524-.107a1.01 1.01 0 0 0 .369-.279c.098-.114.17-.245.213-.393.049-.147.073-.297.073-.45v-2.54h.721v4.342h-.671v-.819c-.05.12-.118.235-.205.344a1.216 1.216 0 0 1-.312.287 1.658 1.658 0 0 1-.926.27Zm5.108 0a2.27 2.27 0 0 1-.779-.131 1.725 1.725 0 0 1-.622-.41 2.039 2.039 0 0 1-.418-.696 2.932 2.932 0 0 1-.148-.975v-.164c0-.349.055-.658.164-.926.11-.267.254-.489.434-.663a1.72 1.72 0 0 1 .623-.402c.24-.093.489-.139.746-.139.256 0 .486.035.688.106.207.072.385.17.532.295.153.126.276.274.369.443.098.169.17.352.213.549h-.737a1.582 1.582 0 0 0-.156-.287.809.809 0 0 0-.213-.238.95.95 0 0 0-.295-.155 1.277 1.277 0 0 0-.401-.058c-.159 0-.312.03-.46.091a1.032 1.032 0 0 0-.392.262 1.263 1.263 0 0 0-.279.45 2.03 2.03 0 0 0-.098.672v.164c0 .278.032.519.098.721.071.196.164.358.279.483.114.12.245.211.393.271.147.054.3.082.459.082.267 0 .491-.066.671-.197.186-.131.317-.311.394-.541h.737a1.778 1.778 0 0 1-.64 1.024c-.321.246-.71.369-1.162.369Zm2.784-5.817h.721v3.392l2-1.999h.884l-1.802 1.794 1.966 2.548h-.918l-1.564-2.048-.566.532v1.516h-.72v-5.735Zm5.988 5.817c-.267 0-.513-.047-.737-.139a1.558 1.558 0 0 1-.565-.41 1.975 1.975 0 0 1-.369-.688 3.27 3.27 0 0 1-.131-.975v-.164c0-.344.044-.647.131-.909.093-.268.219-.492.377-.672.158-.18.347-.317.565-.41.224-.093.467-.139.73-.139.349 0 .652.076.909.229.262.153.456.364.581.631v-2.171h.721v5.735h-.671v-.819c-.11.267-.3.486-.574.655a1.842 1.842 0 0 1-.967.246Zm.164-.639c.197 0 .377-.033.54-.098a1.23 1.23 0 0 0 .419-.271c.114-.114.205-.254.27-.418a1.44 1.44 0 0 0 .098-.54v-.656a1.236 1.236 0 0 0-.368-.885 1.14 1.14 0 0 0-.418-.262 1.454 1.454 0 0 0-.54-.098c-.176 0-.34.033-.492.098a1.116 1.116 0 0 0-.402.295c-.109.126-.196.282-.262.467-.06.186-.09.396-.09.631v.164c0 .257.03.483.09.68.066.197.153.36.262.491.115.132.249.233.402.304.153.065.316.098.491.098Zm4.893.639c-.524 0-.917-.15-1.18-.451-.262-.3-.393-.764-.393-1.392v-2.581h.721v2.54c0 .404.082.71.246.917.17.208.442.312.82.312.201 0 .376-.036.523-.107a1.01 1.01 0 0 0 .37-.279 1.05 1.05 0 0 0 .212-.393c.05-.147.074-.297.074-.45v-2.54h.72v4.342h-.671v-.819c-.05.12-.117.235-.205.344a1.216 1.216 0 0 1-.311.287 1.658 1.658 0 0 1-.926.27Zm5.108 0a2.27 2.27 0 0 1-.778-.131 1.725 1.725 0 0 1-.623-.41 2.036 2.036 0 0 1-.418-.696 2.932 2.932 0 0 1-.147-.975v-.164c0-.349.054-.658.164-.926.109-.267.253-.489.434-.663a1.72 1.72 0 0 1 .622-.402c.24-.093.49-.139.746-.139.257 0 .486.035.688.106.208.072.385.17.533.295.153.126.275.274.368.443.099.169.17.352.213.549h-.737a1.582 1.582 0 0 0-.156-.287.809.809 0 0 0-.213-.238.95.95 0 0 0-.295-.155 1.277 1.277 0 0 0-.401-.058c-.159 0-.311.03-.459.091a1.032 1.032 0 0 0-.393.262 1.263 1.263 0 0 0-.279.45c-.065.186-.098.41-.098.672v.164c0 .278.033.519.098.721.071.196.164.358.279.483.115.12.246.211.393.271.148.054.3.082.459.082.268 0 .491-.066.672-.197.185-.131.316-.311.393-.541h.737a1.78 1.78 0 0 1-.639 1.024c-.322.246-.71.369-1.163.369Zm2.785-5.817h.72v3.392l2-1.999h.885l-1.803 1.794 1.966 2.548h-.917l-1.565-2.048-.565.532v1.516h-.721v-5.735Zm8.157 7.455a4.06 4.06 0 0 1-1.524-.278 3.54 3.54 0 0 1-1.188-.778 3.55 3.55 0 0 1-.778-1.188 4.073 4.073 0 0 1-.279-1.524c0-.541.093-1.041.279-1.499a3.69 3.69 0 0 1 .778-1.197c.333-.338.724-.6 1.172-.786a3.679 3.679 0 0 1 1.458-.287c.552 0 1.054.088 1.507.262.454.175.841.416 1.164.721.322.306.57.669.745 1.09.18.421.27.877.27 1.368 0 .377-.043.707-.13.991a2.042 2.042 0 0 1-.361.705 1.458 1.458 0 0 1-.549.418 1.643 1.643 0 0 1-.68.139 1.74 1.74 0 0 1-.344-.033.996.996 0 0 1-.303-.131.787.787 0 0 1-.238-.246 1.064 1.064 0 0 1-.139-.393 1.785 1.785 0 0 1-.467.582c-.18.147-.434.221-.762.221-.224 0-.429-.038-.614-.115a1.302 1.302 0 0 1-.484-.344 1.695 1.695 0 0 1-.311-.573 2.807 2.807 0 0 1-.106-.811v-.164c0-.306.035-.574.106-.803.077-.235.18-.429.311-.582.137-.153.298-.267.484-.344.185-.076.39-.114.614-.114.311 0 .557.068.737.204.186.137.315.287.386.451v-.573h.72v2.326c0 .159.009.29.025.393.022.104.05.186.082.246.038.06.082.104.131.131a.456.456 0 0 0 .172.033.953.953 0 0 0 .402-.082.754.754 0 0 0 .32-.27c.087-.131.155-.298.204-.5.05-.207.074-.461.074-.762 0-.453-.082-.855-.246-1.204a2.496 2.496 0 0 0-.647-.877c-.273-.24-.59-.42-.95-.54a3.455 3.455 0 0 0-1.123-.181c-.426 0-.82.077-1.18.23-.36.153-.674.366-.942.639-.262.273-.47.603-.623.991a3.502 3.502 0 0 0-.22 1.27c0 .475.073.906.22 1.294a2.736 2.736 0 0 0 1.581 1.614c.377.148.793.221 1.246.221.453 0 .83-.043 1.13-.131.306-.082.558-.18.754-.295v.697a3.052 3.052 0 0 1-.762.262c-.295.071-.669.106-1.122.106Zm-.246-2.482c.295 0 .535-.093.721-.278.186-.186.279-.426.279-.721v-.574c0-.295-.093-.535-.279-.721-.186-.186-.426-.278-.72-.278a.854.854 0 0 0-.673.286c-.164.192-.245.497-.245.918v.164c0 .42.081.726.245.917.17.192.394.287.672.287Zm6.714 2.482c-.317 0-.587-.032-.81-.098a1.646 1.646 0 0 1-.558-.254 1.126 1.126 0 0 1-.328-.393 1.432 1.432 0 0 1-.147-.483h.754a.874.874 0 0 0 .114.237c.05.071.115.131.197.18a1 1 0 0 0 .311.115c.131.027.287.041.467.041.442 0 .767-.106.975-.319.208-.213.311-.517.311-.91v-.696a1.3 1.3 0 0 1-.581.647 1.85 1.85 0 0 1-.91.213c-.267 0-.513-.046-.737-.139a1.558 1.558 0 0 1-.565-.41 1.89 1.89 0 0 1-.369-.672 3.125 3.125 0 0 1-.131-.95v-.164c0-.333.044-.628.131-.885.093-.262.218-.48.377-.655.158-.18.347-.317.565-.41.224-.093.467-.139.73-.139a1.8 1.8 0 0 1 .966.254c.273.164.464.38.573.647v-.819h.672v4.178c0 .59-.172 1.052-.516 1.385-.344.333-.84.499-1.49.499Zm-.04-2.359c.196 0 .376-.03.54-.09a1.23 1.23 0 0 0 .418-.271 1.24 1.24 0 0 0 .27-.409c.066-.159.098-.331.098-.516v-.656a1.14 1.14 0 0 0-.098-.467 1.212 1.212 0 0 0-.27-.385 1.195 1.195 0 0 0-.418-.254 1.454 1.454 0 0 0-.54-.098c-.176 0-.34.033-.492.098a1.156 1.156 0 0 0-.402.287c-.109.126-.196.279-.262.459-.06.175-.09.377-.09.606v.164c0 .246.03.464.09.655.066.192.153.353.262.484.115.131.249.229.402.295.153.065.316.098.491.098Zm3.36-3.703h.672v.819a1.32 1.32 0 0 1 .475-.647 1.28 1.28 0 0 1 .778-.254c.377 0 .667.082.869.246.202.158.341.363.418.614.142-.267.322-.478.54-.631.224-.153.492-.229.803-.229.448 0 .798.137 1.049.41.251.267.377.691.377 1.269v2.745h-.721v-2.581c0-.431-.077-.737-.23-.917-.147-.18-.374-.271-.68-.271a.91.91 0 0 0-.376.082.96.96 0 0 0-.32.238 1.16 1.16 0 0 0-.221.377 1.4 1.4 0 0 0-.082.491v2.581h-.721v-2.581c0-.431-.077-.737-.23-.917-.152-.18-.38-.271-.68-.271a.91.91 0 0 0-.376.082.962.962 0 0 0-.32.238 1.164 1.164 0 0 0-.221.377 1.403 1.403 0 0 0-.082.491v2.581h-.72v-4.342Zm8.486 4.424a1.93 1.93 0 0 1-.64-.098 1.396 1.396 0 0 1-.458-.287 1.195 1.195 0 0 1-.287-.426 1.445 1.445 0 0 1-.098-.541c0-.431.125-.743.377-.934.256-.191.622-.287 1.098-.287h1.409v-.294c0-.372-.085-.629-.254-.771-.164-.142-.413-.213-.746-.213-.311 0-.538.06-.68.181a.584.584 0 0 0-.238.393h-.72c.01-.175.057-.336.139-.483.087-.153.202-.284.344-.394.147-.109.322-.194.524-.254.202-.065.426-.098.672-.098.514 0 .92.123 1.22.369.307.24.46.636.46 1.188v2.367c.005.17.019.336.04.5h-.63a4.487 4.487 0 0 1-.033-.352 8.253 8.253 0 0 1-.008-.385 1.45 1.45 0 0 1-.557.581c-.257.159-.568.238-.934.238Zm.155-.655c.17 0 .328-.022.475-.066.153-.049.287-.117.402-.205a1.01 1.01 0 0 0 .27-.336c.066-.131.099-.284.099-.459v-.294h-1.287c-.267 0-.477.054-.63.163-.153.104-.23.271-.23.5a.65.65 0 0 0 .213.5c.148.131.377.197.688.197Zm3.322-3.769h.72v4.342h-.72v-4.342Zm.36-.574a.477.477 0 0 1-.491-.491.476.476 0 0 1 .491-.492.477.477 0 0 1 .492.492.477.477 0 0 1-.492.491Zm3.06 4.957c-.452 0-.777-.109-.974-.328-.197-.218-.295-.573-.295-1.065v-4.383h.721v4.383c0 .284.046.478.14.582.092.104.256.156.49.156h.156l.132-.017v.639a1.182 1.182 0 0 1-.189.025 3.003 3.003 0 0 1-.18.008Zm2.296.041a.574.574 0 0 1-.41-.164.574.574 0 0 1-.164-.41c0-.163.055-.3.164-.409a.574.574 0 0 1 .41-.164c.158 0 .292.055.401.164a.542.542 0 0 1 .172.409.56.56 0 0 1-.172.41.547.547 0 0 1-.401.164Zm3.402 0a2.27 2.27 0 0 1-.778-.131 1.724 1.724 0 0 1-.623-.41 2.037 2.037 0 0 1-.418-.696 2.932 2.932 0 0 1-.147-.975v-.164c0-.349.054-.658.164-.926.109-.267.254-.489.434-.663a1.72 1.72 0 0 1 .622-.402c.24-.093.49-.139.746-.139.257 0 .486.035.688.106.208.072.385.17.533.295.153.126.275.274.368.443.099.169.17.352.213.549h-.737a1.582 1.582 0 0 0-.156-.287.809.809 0 0 0-.213-.238.95.95 0 0 0-.295-.155 1.277 1.277 0 0 0-.401-.058c-.158 0-.311.03-.459.091a1.032 1.032 0 0 0-.393.262 1.263 1.263 0 0 0-.279.45 2.03 2.03 0 0 0-.098.672v.164c0 .278.033.519.098.721.071.196.164.358.279.483.115.12.246.211.393.271.148.054.3.082.459.082.268 0 .492-.066.672-.197.185-.131.317-.311.393-.541h.737a1.772 1.772 0 0 1-.639 1.024c-.322.246-.71.369-1.163.369Zm4.587 0a2.42 2.42 0 0 1-.795-.131 1.939 1.939 0 0 1-.663-.41 2.04 2.04 0 0 1-.459-.696 2.545 2.545 0 0 1-.172-.975v-.164c0-.349.057-.658.172-.926a1.898 1.898 0 0 1 1.122-1.065c.252-.093.517-.139.795-.139.279 0 .544.046.795.139.251.088.472.221.663.402.192.174.345.396.459.663.115.268.172.577.172.926v.164c0 .371-.057.696-.172.975a2.012 2.012 0 0 1-.459.696c-.191.18-.412.317-.663.41a2.41 2.41 0 0 1-.795.131Zm0-.655c.164 0 .328-.028.492-.082.164-.06.308-.151.434-.271.126-.125.227-.287.303-.483.082-.197.123-.437.123-.721v-.164a1.66 1.66 0 0 0-.123-.672 1.323 1.323 0 0 0-.303-.459 1.152 1.152 0 0 0-.434-.262 1.567 1.567 0 0 0-.492-.082c-.164 0-.328.028-.491.082a1.156 1.156 0 0 0-.435.262 1.444 1.444 0 0 0-.311.459c-.076.186-.115.41-.115.672v.164c0 .284.039.524.115.721.082.196.186.358.311.483.126.12.271.211.435.271.163.054.327.082.491.082Zm3.11-3.769h.672v.819a1.32 1.32 0 0 1 .475-.647c.23-.169.489-.254.778-.254.377 0 .667.082.869.246.202.158.341.363.418.614.142-.267.322-.478.54-.631a1.39 1.39 0 0 1 .803-.229c.448 0 .798.137 1.049.41.251.267.377.691.377 1.269v2.745h-.721v-2.581c0-.431-.077-.737-.23-.917-.147-.18-.374-.271-.68-.271a.906.906 0 0 0-.376.082.957.957 0 0 0-.32.238 1.148 1.148 0 0 0-.221.377 1.393 1.393 0 0 0-.082.491v2.581h-.721v-2.581c0-.431-.076-.737-.229-.917-.153-.18-.38-.271-.68-.271a.91.91 0 0 0-.377.082.967.967 0 0 0-.32.238 1.166 1.166 0 0 0-.221.377 1.393 1.393 0 0 0-.082.491v2.581h-.721v-4.342Z" fill="#737A92"/><path fill-rule="evenodd" clip-rule="evenodd" d="M131.936 234.012a.438.438 0 0 1 0 .621l-5.266 5.267a.44.44 0 0 1-.621-.621l5.267-5.267a.439.439 0 0 1 .62 0Z" fill="#B3B7C7"/><path fill-rule="evenodd" clip-rule="evenodd" d="M126.049 234.012a.44.44 0 0 1 .621 0l5.266 5.267a.438.438 0 1 1-.62.621l-5.267-5.267a.44.44 0 0 1 0-.621Z" fill="#B3B7C7"/><rect x="18.726" y="263.456" width="134.593" height="30.385" rx="15.193" fill="#7EF0BC"/><path d="M75.527 275.685h1.154l3.422 4.974v-4.974h1.194v6.964h-1.154l-3.422-4.975v4.975h-1.194v-6.964Zm9.647 7.073c-.351 0-.683-.053-.995-.159a2.436 2.436 0 0 1-.825-.498 2.468 2.468 0 0 1-.558-.845c-.139-.338-.208-.736-.208-1.194v-.199c0-.438.066-.819.199-1.144a2.26 2.26 0 0 1 .537-.806 2.24 2.24 0 0 1 .796-.487c.298-.106.616-.159.955-.159.802 0 1.416.215 1.84.646.431.431.647 1.048.647 1.851v.557h-3.86c.006.272.05.504.13.696a1.4 1.4 0 0 0 .327.458c.14.112.295.195.468.248.179.053.361.08.547.08.378 0 .653-.06.826-.179a.904.904 0 0 0 .368-.468h1.094c-.106.524-.368.922-.786 1.194-.41.272-.912.408-1.502.408Zm-.05-4.536c-.185 0-.364.023-.537.069a1.259 1.259 0 0 0-.448.229 1.11 1.11 0 0 0-.308.398c-.08.159-.123.355-.13.587h2.766a1.65 1.65 0 0 0-.119-.617.981.981 0 0 0-.279-.398 1.042 1.042 0 0 0-.427-.209 2.17 2.17 0 0 0-.518-.059Zm4.741 1.681-1.8-2.527h1.233l1.283 1.771 1.264-1.771h1.194l-1.781 2.487 1.88 2.786h-1.253l-1.343-2.05-1.363 2.05h-1.214l1.9-2.746Zm6.3 2.795c-.603 0-1.037-.129-1.303-.388-.258-.258-.388-.676-.388-1.253v-2.746h-.746v-.935h.746v-1.194h1.095v1.194h1.343v.935h-1.343v2.597c0 .311.056.53.169.656.12.12.345.179.676.179.2 0 .398-.01.597-.03v.936a6.747 6.747 0 0 1-.388.029 4.43 4.43 0 0 1-.457.02Z" fill="#1C1C1C"/><rect x="162.974" y="263.749" width="134.007" height="29.8" rx="14.9" fill="#fff"/><rect x="162.974" y="263.749" width="134.007" height="29.8" rx="14.9" stroke="#D7DBEB" stroke-width=".585"/><path d="M219.084 275.685h2.785c.79 0 1.367.169 1.731.507.372.338.558.789.558 1.353 0 .358-.093.667-.279.925a1.552 1.552 0 0 1-.766.547c.411.093.736.282.975.568.245.278.368.643.368 1.094 0 .292-.046.56-.139.806a1.551 1.551 0 0 1-.438.616 2.039 2.039 0 0 1-.746.408c-.305.093-.673.14-1.104.14h-2.945v-6.964Zm2.815 5.929c.518 0 .872-.083 1.065-.249.199-.166.298-.421.298-.766 0-.166-.023-.315-.069-.447a.73.73 0 0 0-.229-.329 1.04 1.04 0 0 0-.428-.209 2.555 2.555 0 0 0-.647-.069h-1.611v2.069h1.621Zm-.179-3.024c.464 0 .786-.087.965-.259.186-.172.279-.404.279-.696 0-.299-.09-.524-.269-.677-.179-.159-.504-.239-.975-.239h-1.442v1.871h1.442Zm5.42 4.168c-.285 0-.54-.04-.766-.119a1.698 1.698 0 0 1-.557-.349 1.533 1.533 0 0 1-.348-.527 1.744 1.744 0 0 1-.12-.656c0-.524.156-.912.468-1.164.312-.259.769-.388 1.373-.388h1.641v-.289c0-.398-.089-.67-.268-.816-.173-.152-.448-.228-.826-.228-.338 0-.587.053-.746.159a.611.611 0 0 0-.279.438h-1.064c.013-.226.069-.432.169-.617.106-.193.249-.358.428-.498a2.01 2.01 0 0 1 .666-.318c.259-.08.551-.119.876-.119.325 0 .616.036.875.109.265.073.491.189.677.348.185.153.328.352.427.597.106.246.16.541.16.886v2.099c0 .278.003.523.009.736.007.205.024.408.05.607h-.995l-.049-.388a6.304 6.304 0 0 1-.01-.398c-.126.245-.345.457-.657.636-.305.173-.683.259-1.134.259Zm.298-.955c.186 0 .362-.023.528-.07a1.48 1.48 0 0 0 .447-.219c.126-.099.226-.218.299-.358.079-.146.119-.311.119-.497v-.289h-1.442c-.279 0-.504.06-.677.18-.166.119-.248.295-.248.527 0 .219.076.394.228.527.16.133.408.199.746.199Zm6.022.955c-.358 0-.69-.053-.995-.159a2.204 2.204 0 0 1-.786-.508 2.402 2.402 0 0 1-.517-.845 3.385 3.385 0 0 1-.189-1.184v-.199c0-.424.067-.799.199-1.124.133-.325.312-.597.537-.816.232-.219.498-.381.796-.487a2.73 2.73 0 0 1 .955-.169c.345 0 .65.046.915.139.272.093.501.222.687.388.192.159.345.348.457.567.113.219.189.454.229.706h-1.114a1.256 1.256 0 0 0-.358-.607c-.172-.159-.444-.238-.816-.238-.185 0-.361.033-.527.099-.166.06-.312.156-.438.289a1.394 1.394 0 0 0-.298.517c-.073.206-.11.451-.11.736v.199c0 .312.037.58.11.806.073.219.172.398.298.537s.272.242.438.308c.166.06.342.09.527.09.617 0 1.008-.282 1.174-.846h1.114a2.347 2.347 0 0 1-.278.756 1.992 1.992 0 0 1-.488.567 2.33 2.33 0 0 1-.686.359 2.849 2.849 0 0 1-.836.119Zm3.33-7.073h1.094v3.989l2.189-2.298h1.293l-2.129 2.238 2.328 3.035h-1.313l-1.741-2.338-.627.636v1.702h-1.094v-6.964Z" fill="#1C1C1C"/><defs><clipPath id="a"><path fill="#fff" transform="translate(27.9 119.79)" d="M0 0h14.161v14.161H0z"/></clipPath><clipPath id="b"><path fill="#fff" transform="translate(29.08 119.79)" d="M0 0h11.801v14.161H0z"/></clipPath></defs></svg>