<svg width="20" height="22" viewBox="0 0 20 22" fill="none" xmlns="http://www.w3.org/2000/svg">
  <path d="M18.5658 7.77385V14.2261C18.5658 15.2826 17.9998 16.2637 17.0848 16.8014L11.4815 20.037C10.5665 20.5653 9.43451 20.5653 8.51006 20.037L2.90678 16.8014C1.99177 16.2732 1.42578 15.2921 1.42578 14.2261V7.77385C1.42578 6.71733 1.99177 5.73624 2.90678 5.19855L8.51006 1.96297C9.42508 1.43471 10.5571 1.43471 11.4815 1.96297L17.0848 5.19855C17.9998 5.73624 18.5658 6.7079 18.5658 7.77385Z" stroke="black" stroke-width="1.69797" stroke-linecap="round" stroke-linejoin="round"/>
  <path d="M10.0007 10.0567C11.2145 10.0567 12.1986 9.07267 12.1986 7.85878C12.1986 6.6449 11.2145 5.66089 10.0007 5.66089C8.78678 5.66089 7.80273 6.6449 7.80273 7.85878C7.80273 9.07267 8.78678 10.0567 10.0007 10.0567Z" stroke="black" stroke-width="1.69797" stroke-linecap="round" stroke-linejoin="round"/>
  <path d="M13.7731 15.3959C13.7731 13.6979 12.0845 12.3207 9.99982 12.3207C7.91509 12.3207 6.22656 13.6979 6.22656 15.3959" stroke="black" stroke-width="1.69797" stroke-linecap="round" stroke-linejoin="round"/>
</svg>
