<svg viewBox="0 0 20 21" fill="none" xmlns="http://www.w3.org/2000/svg">
<path d="M18.75 16.8114H17.5V8.06136C17.5 7.72984 17.3683 7.4119 17.1339 7.17748C16.8995 6.94306 16.5815 6.81136 16.25 6.81136H11.25V3.06136C11.2501 2.835 11.1888 2.61285 11.0726 2.41863C10.9563 2.2244 10.7895 2.06538 10.59 1.95854C10.3904 1.8517 10.1656 1.80106 9.93951 1.81201C9.71342 1.82297 9.49454 1.89511 9.30625 2.02073L3.05625 6.18636C2.8848 6.30075 2.74429 6.45576 2.64724 6.6376C2.55019 6.81943 2.49961 7.02244 2.5 7.22855V16.8114H1.25C1.08424 16.8114 0.925268 16.8772 0.808058 16.9944C0.690848 17.1116 0.625 17.2706 0.625 17.4364C0.625 17.6021 0.690848 17.7611 0.808058 17.8783C0.925268 17.9955 1.08424 18.0614 1.25 18.0614H18.75C18.9158 18.0614 19.0747 17.9955 19.1919 17.8783C19.3092 17.7611 19.375 17.6021 19.375 17.4364C19.375 17.2706 19.3092 17.1116 19.1919 16.9944C19.0747 16.8772 18.9158 16.8114 18.75 16.8114ZM16.25 8.06136V16.8114H11.25V8.06136H16.25ZM3.75 7.22855L10 3.06136V16.8114H3.75V7.22855ZM8.75 9.31136V10.5614C8.75 10.7271 8.68415 10.8861 8.56694 11.0033C8.44973 11.1205 8.29076 11.1864 8.125 11.1864C7.95924 11.1864 7.80027 11.1205 7.68306 11.0033C7.56585 10.8861 7.5 10.7271 7.5 10.5614V9.31136C7.5 9.1456 7.56585 8.98663 7.68306 8.86942C7.80027 8.75221 7.95924 8.68636 8.125 8.68636C8.29076 8.68636 8.44973 8.75221 8.56694 8.86942C8.68415 8.98663 8.75 9.1456 8.75 9.31136ZM6.25 9.31136V10.5614C6.25 10.7271 6.18415 10.8861 6.06694 11.0033C5.94973 11.1205 5.79076 11.1864 5.625 11.1864C5.45924 11.1864 5.30027 11.1205 5.18306 11.0033C5.06585 10.8861 5 10.7271 5 10.5614V9.31136C5 9.1456 5.06585 8.98663 5.18306 8.86942C5.30027 8.75221 5.45924 8.68636 5.625 8.68636C5.79076 8.68636 5.94973 8.75221 6.06694 8.86942C6.18415 8.98663 6.25 9.1456 6.25 9.31136ZM6.25 13.6864V14.9364C6.25 15.1021 6.18415 15.2611 6.06694 15.3783C5.94973 15.4955 5.79076 15.5614 5.625 15.5614C5.45924 15.5614 5.30027 15.4955 5.18306 15.3783C5.06585 15.2611 5 15.1021 5 14.9364V13.6864C5 13.5206 5.06585 13.3616 5.18306 13.2444C5.30027 13.1272 5.45924 13.0614 5.625 13.0614C5.79076 13.0614 5.94973 13.1272 6.06694 13.2444C6.18415 13.3616 6.25 13.5206 6.25 13.6864ZM8.75 13.6864V14.9364C8.75 15.1021 8.68415 15.2611 8.56694 15.3783C8.44973 15.4955 8.29076 15.5614 8.125 15.5614C7.95924 15.5614 7.80027 15.4955 7.68306 15.3783C7.56585 15.2611 7.5 15.1021 7.5 14.9364V13.6864C7.5 13.5206 7.56585 13.3616 7.68306 13.2444C7.80027 13.1272 7.95924 13.0614 8.125 13.0614C8.29076 13.0614 8.44973 13.1272 8.56694 13.2444C8.68415 13.3616 8.75 13.5206 8.75 13.6864Z" fill="#1C1C1C" stroke="black" stroke-width="0.2"/>
</svg>
