<svg viewBox="0 0 20 20" fill="none" xmlns="http://www.w3.org/2000/svg">
<path d="M12.3998 7.19999V6.95999C12.3998 6.06749 12.3998 5.62124 12.3114 5.25296C12.0305 4.08289 11.1169 3.16931 9.94683 2.8884C9.57855 2.79999 9.1323 2.79999 8.23981 2.79999H6.9598C6.06731 2.79999 5.62106 2.79999 5.25278 2.8884C4.0827 3.16931 3.16913 4.08289 2.88822 5.25296C2.7998 5.62124 2.7998 6.06749 2.7998 6.95999V13.04C2.7998 13.9325 2.7998 14.3787 2.88822 14.747C3.16913 15.9171 4.0827 16.8307 5.25278 17.1116C5.62106 17.2 6.06731 17.2 6.9598 17.2H8.2398C9.1323 17.2 9.57855 17.2 9.94683 17.1116C11.1169 16.8307 12.0305 15.9171 12.3114 14.747C12.3998 14.3787 12.3998 13.9325 12.3998 13.04V12.8" stroke-width="1.6" stroke-linecap="round"/>
<path d="M8.3999 9.99991H17.1999M17.1999 9.99991L15.5999 12.3999M17.1999 9.99991L15.5999 7.59991" stroke-width="1.6" stroke-linecap="round" stroke-linejoin="round"/>
</svg>
