<svg viewBox="0 0 20 20" fill="none" xmlns="http://www.w3.org/2000/svg">
<path d="M9.97493 18.3334C14.5773 18.3334 18.3083 14.6024 18.3083 10C18.3083 5.39765 14.5773 1.66669 9.97493 1.66669C5.37256 1.66669 1.6416 5.39765 1.6416 10C1.6416 14.6024 5.37256 18.3334 9.97493 18.3334Z" stroke-width="1.5" stroke-linecap="round" stroke-linejoin="round"/>
<path d="M10 13.75C12.0711 13.75 13.75 12.0711 13.75 10C13.75 7.92893 12.0711 6.25 10 6.25C7.92893 6.25 6.25 7.92893 6.25 10C6.25 12.0711 7.92893 13.75 10 13.75Z" stroke="#1C1C1C" stroke-width="1.5" stroke-linecap="round" stroke-linejoin="round"/>
<path d="M4.08301 4.10834L7.03301 7.05" stroke-width="1.5" stroke-linecap="round" stroke-linejoin="round"/>
<path d="M4.08301 15.8917L7.03301 12.95" stroke-width="1.5" stroke-linecap="round" stroke-linejoin="round"/>
<path d="M15.8748 15.8917L12.9248 12.95" stroke-width="1.5" stroke-linecap="round" stroke-linejoin="round"/>
<path d="M15.8748 4.10834L12.9248 7.05" stroke-width="1.5" stroke-linecap="round" stroke-linejoin="round"/>
</svg>
