<svg viewBox="0 0 20 21" fill="none" xmlns="http://www.w3.org/2000/svg">
<path d="M5 8.89323V7.22656C5 4.46823 5.83333 2.22656 10 2.22656C14.1667 2.22656 15 4.46823 15 7.22656V8.89323" stroke-width="1.5" stroke-linecap="round" stroke-linejoin="round"/>
<path d="M10.0003 15.9772C11.1509 15.9772 12.0837 15.0445 12.0837 13.8939C12.0837 12.7433 11.1509 11.8105 10.0003 11.8105C8.84973 11.8105 7.91699 12.7433 7.91699 13.8939C7.91699 15.0445 8.84973 15.9772 10.0003 15.9772Z" stroke-width="1.5" stroke-linecap="round" stroke-linejoin="round"/>
<path d="M14.167 18.8945H5.83366C2.50033 18.8945 1.66699 18.0612 1.66699 14.7279V13.0612C1.66699 9.72786 2.50033 8.89453 5.83366 8.89453H14.167C17.5003 8.89453 18.3337 9.72786 18.3337 13.0612V14.7279C18.3337 18.0612 17.5003 18.8945 14.167 18.8945Z" stroke-width="1.5" stroke-linecap="round" stroke-linejoin="round"/>
</svg>
