<svg width="26" height="26" viewBox="0 0 26 26" fill="none" xmlns="http://www.w3.org/2000/svg">
<path d="M15.167 5.41667C15.167 4.225 14.192 3.25 13.0003 3.25C11.8087 3.25 10.8337 4.225 10.8337 5.41667C10.8337 6.60833 11.8087 7.58333 13.0003 7.58333C14.192 7.58333 15.167 6.60833 15.167 5.41667Z" stroke-width="1.5"/>
<path d="M15.167 20.5832C15.167 19.3915 14.192 18.4165 13.0003 18.4165C11.8087 18.4165 10.8337 19.3915 10.8337 20.5832C10.8337 21.7748 11.8087 22.7498 13.0003 22.7498C14.192 22.7498 15.167 21.7748 15.167 20.5832Z" stroke-width="1.5"/>
<path d="M15.167 13.0002C15.167 11.8085 14.192 10.8335 13.0003 10.8335C11.8087 10.8335 10.8337 11.8085 10.8337 13.0002C10.8337 14.1918 11.8087 15.1668 13.0003 15.1668C14.192 15.1668 15.167 14.1918 15.167 13.0002Z" stroke-width="1.5"/>
</svg>
