<svg viewBox="0 0 20 21" fill="none" xmlns="http://www.w3.org/2000/svg">
<path d="M10.0165 2.98633C7.25816 2.98633 5.0165 5.22799 5.0165 7.98633V10.3947C5.0165 10.903 4.79983 11.678 4.5415 12.1113L3.58316 13.703C2.9915 14.6863 3.39983 15.778 4.48316 16.1447C8.07483 17.3447 11.9498 17.3447 15.5415 16.1447C16.5498 15.8113 16.9915 14.6197 16.4415 13.703L15.4832 12.1113C15.2332 11.678 15.0165 10.903 15.0165 10.3947V7.98633C15.0165 5.23633 12.7665 2.98633 10.0165 2.98633Z" stroke-width="1.5" stroke-miterlimit="10" stroke-linecap="round"/>
<path d="M11.5579 3.22773C11.2996 3.15273 11.0329 3.0944 10.7579 3.06107C9.95794 2.96107 9.19128 3.0194 8.47461 3.22773C8.71628 2.61107 9.31628 2.17773 10.0163 2.17773C10.7163 2.17773 11.3163 2.61107 11.5579 3.22773Z" stroke-width="1.5" stroke-miterlimit="10" stroke-linecap="round" stroke-linejoin="round"/>
<path d="M12.5166 16.4434C12.5166 17.8184 11.3916 18.9434 10.0166 18.9434C9.33327 18.9434 8.69993 18.66 8.24993 18.21C7.79993 17.76 7.5166 17.1267 7.5166 16.4434" stroke-width="1.5" stroke-miterlimit="10"/>
</svg>
