<svg viewBox="0 0 20 21" fill="none" xmlns="http://www.w3.org/2000/svg">
<path d="M7.63314 9.61921C7.5498 9.61087 7.4498 9.61087 7.35814 9.61921C5.3748 9.55254 3.7998 7.92754 3.7998 5.92754C3.7998 3.88587 5.4498 2.22754 7.4998 2.22754C9.54147 2.22754 11.1998 3.88587 11.1998 5.92754C11.1915 7.92754 9.61647 9.55254 7.63314 9.61921Z" stroke-width="1.5" stroke-linecap="round" stroke-linejoin="round"/>
<path d="M13.6751 3.89355C15.2918 3.89355 16.5918 5.20189 16.5918 6.81022C16.5918 8.38522 15.3418 9.66856 13.7834 9.72689C13.7168 9.71856 13.6418 9.71856 13.5668 9.72689" stroke-width="1.5" stroke-linecap="round" stroke-linejoin="round"/>
<path d="M3.4666 12.6936C1.44993 14.0436 1.44993 16.2436 3.4666 17.5852C5.75827 19.1186 9.5166 19.1186 11.8083 17.5852C13.8249 16.2352 13.8249 14.0352 11.8083 12.6936C9.52494 11.1686 5.7666 11.1686 3.4666 12.6936Z" stroke-width="1.5" stroke-linecap="round" stroke-linejoin="round"/>
<path d="M15.2833 17.2275C15.8833 17.1025 16.45 16.8609 16.9167 16.5025C18.2167 15.5275 18.2167 13.9192 16.9167 12.9442C16.4583 12.5942 15.9 12.3609 15.3083 12.2275" stroke-width="1.5" stroke-linecap="round" stroke-linejoin="round"/>
</svg>
