<svg viewBox="0 0 20 21" fill="none" xmlns="http://www.w3.org/2000/svg">
<path d="M18.5658 7.33403V13.7863C18.5658 14.8428 17.9998 15.8239 17.0848 16.3616L11.4815 19.5972C10.5665 20.1255 9.43451 20.1255 8.51006 19.5972L2.90678 16.3616C1.99177 15.8334 1.42578 14.8523 1.42578 13.7863V7.33403C1.42578 6.27751 1.99177 5.29642 2.90678 4.75873L8.51006 1.52315C9.42508 0.994888 10.5571 0.994888 11.4815 1.52315L17.0848 4.75873C17.9998 5.29642 18.5658 6.26808 18.5658 7.33403Z" stroke-width="1.69797" stroke-linecap="round" stroke-linejoin="round"/>
<path d="M10.0007 9.61655C11.2145 9.61655 12.1986 8.63248 12.1986 7.4186C12.1986 6.20471 11.2145 5.2207 10.0007 5.2207C8.78678 5.2207 7.80273 6.20471 7.80273 7.4186C7.80273 8.63248 8.78678 9.61655 10.0007 9.61655Z" stroke-width="1.69797" stroke-linecap="round" stroke-linejoin="round"/>
<path d="M13.7731 14.956C13.7731 13.2581 12.0845 11.8809 9.99982 11.8809C7.91509 11.8809 6.22656 13.2581 6.22656 14.956"  stroke-width="1.69797" stroke-linecap="round" stroke-linejoin="round"/>
</svg>
