<svg viewBox="0 0 20 20" fill="none" xmlns="http://www.w3.org/2000/svg">
<path d="M10 12.5C11.3807 12.5 12.5 11.3807 12.5 10C12.5 8.61929 11.3807 7.5 10 7.5C8.61929 7.5 7.5 8.61929 7.5 10C7.5 11.3807 8.61929 12.5 10 12.5Z" stroke-width="1.5" stroke-miterlimit="10" stroke-linecap="round" stroke-linejoin="round"/>
<path d="M1.66663 10.7329V9.26621C1.66663 8.39954 2.37496 7.68287 3.24996 7.68287C4.75829 7.68287 5.37496 6.61621 4.61663 5.30787C4.18329 4.55787 4.44163 3.58287 5.19996 3.14954L6.64163 2.32454C7.29996 1.93287 8.14996 2.16621 8.54163 2.82454L8.63329 2.98287C9.38329 4.29121 10.6166 4.29121 11.375 2.98287L11.4666 2.82454C11.8583 2.16621 12.7083 1.93287 13.3666 2.32454L14.8083 3.14954C15.5666 3.58287 15.825 4.55787 15.3916 5.30787C14.6333 6.61621 15.25 7.68287 16.7583 7.68287C17.625 7.68287 18.3416 8.39121 18.3416 9.26621V10.7329C18.3416 11.5995 17.6333 12.3162 16.7583 12.3162C15.25 12.3162 14.6333 13.3829 15.3916 14.6912C15.825 15.4495 15.5666 16.4162 14.8083 16.8495L13.3666 17.6745C12.7083 18.0662 11.8583 17.8329 11.4666 17.1745L11.375 17.0162C10.625 15.7079 9.39163 15.7079 8.63329 17.0162L8.54163 17.1745C8.14996 17.8329 7.29996 18.0662 6.64163 17.6745L5.19996 16.8495C4.44163 16.4162 4.18329 15.4412 4.61663 14.6912C5.37496 13.3829 4.75829 12.3162 3.24996 12.3162C2.37496 12.3162 1.66663 11.5995 1.66663 10.7329Z" stroke-width="1.5" stroke-miterlimit="10" stroke-linecap="round" stroke-linejoin="round"/>
</svg>
