<svg viewBox="0 0 20 21" fill="none" xmlns="http://www.w3.org/2000/svg">
<path d="M6.66602 18.8939H13.3327C16.6827 18.8939 17.9077 17.5522 18.0827 15.9189V9.25221C18.0827 7.06055 17.7243 5.56055 14.166 5.56055H5.83268C2.27435 5.56055 1.91734 7.06055 1.91602 9.25221L1.91602 15.9189C2.09102 17.5522 3.31602 18.8939 6.66602 18.8939Z" stroke-width="1.5" stroke-miterlimit="10" stroke-linecap="round" stroke-linejoin="round"/>
<path d="M6.66602 5.56087V4.89421C6.66602 3.41921 6.66602 2.22754 9.33268 2.22754H10.666C13.3327 2.22754 13.3327 3.41921 13.3327 4.89421V5.56087" stroke-width="1.5" stroke-miterlimit="10" stroke-linecap="round" stroke-linejoin="round"/>
<path d="M11.6673 11.3939V12.2272C11.6673 12.2355 11.6673 12.2355 11.6673 12.2439C11.6673 13.1522 11.659 13.8939 10.0007 13.8939C8.35065 13.8939 8.33398 13.1605 8.33398 12.2522V11.3939C8.33398 10.5605 8.33398 10.5605 9.16732 10.5605H10.834C11.6673 10.5605 11.6673 10.5605 11.6673 11.3939Z" stroke-width="1.5" stroke-miterlimit="10" stroke-linecap="round" stroke-linejoin="round"/>
<path d="M18.041 9.72754C16.116 11.1275 13.916 11.9609 11.666 12.2442" stroke-width="1.5" stroke-miterlimit="10" stroke-linecap="round" stroke-linejoin="round"/>
<path d="M2.18347 9.95215C4.05847 11.2355 6.17514 12.0105 8.33347 12.2521" stroke-width="1.5" stroke-miterlimit="10" stroke-linecap="round" stroke-linejoin="round"/>
</svg>
