<svg viewBox="0 0 20 21" fill="none" xmlns="http://www.w3.org/2000/svg">
<path d="M7.63314 9.61823C7.5498 9.6099 7.4498 9.6099 7.35814 9.61823C5.3748 9.55156 3.7998 7.92656 3.7998 5.92656C3.7998 3.8849 5.4498 2.22656 7.4998 2.22656C9.54147 2.22656 11.1998 3.8849 11.1998 5.92656C11.1915 7.92656 9.61647 9.55156 7.63314 9.61823Z" stroke-width="1.5" stroke-linecap="round" stroke-linejoin="round"/>
<path d="M13.6747 3.89453C15.2914 3.89453 16.5914 5.20286 16.5914 6.8112C16.5914 8.3862 15.3414 9.66953 13.7831 9.72787C13.7164 9.71953 13.6414 9.71953 13.5664 9.72787" stroke-width="1.5" stroke-linecap="round" stroke-linejoin="round"/>
<path d="M3.4666 12.6945C1.44993 14.0445 1.44993 16.2445 3.4666 17.5862C5.75827 19.1195 9.5166 19.1195 11.8083 17.5862C13.8249 16.2362 13.8249 14.0362 11.8083 12.6945C9.52494 11.1695 5.7666 11.1695 3.4666 12.6945Z" stroke-width="1.5" stroke-linecap="round" stroke-linejoin="round"/>
<path d="M15.2832 17.2266C15.8832 17.1016 16.4499 16.8599 16.9165 16.5016C18.2165 15.5266 18.2165 13.9182 16.9165 12.9432C16.4582 12.5932 15.8999 12.3599 15.3082 12.2266" stroke-width="1.5" stroke-linecap="round" stroke-linejoin="round"/>
</svg>
