<svg viewBox="0 0 20 20" fill="none" xmlns="http://www.w3.org/2000/svg">
<path d="M10.3087 1.79219L17.8087 4.79217C18.1003 4.90883 18.3337 5.25883 18.3337 5.56716V8.33383C18.3337 8.79217 17.9587 9.16717 17.5003 9.16717H2.50033C2.04199 9.16717 1.66699 8.79217 1.66699 8.33383V5.56716C1.66699 5.25883 1.90033 4.90883 2.192 4.79217L9.692 1.79219C9.85866 1.72552 10.142 1.72552 10.3087 1.79219Z" stroke="#1C1C1C" stroke-width="1.5" stroke-miterlimit="10" stroke-linecap="round" stroke-linejoin="round"/>
<path d="M10.3087 1.79219L17.8087 4.79217C18.1003 4.90883 18.3337 5.25883 18.3337 5.56716V8.33383C18.3337 8.79217 17.9587 9.16717 17.5003 9.16717H2.50033C2.04199 9.16717 1.66699 8.79217 1.66699 8.33383V5.56716C1.66699 5.25883 1.90033 4.90883 2.192 4.79217L9.692 1.79219C9.85866 1.72552 10.142 1.72552 10.3087 1.79219Z" stroke="black" stroke-opacity="0.2" stroke-width="1.5" stroke-miterlimit="10" stroke-linecap="round" stroke-linejoin="round"/>
<path d="M18.3337 18.3333H1.66699V15.8333C1.66699 15.375 2.04199 15 2.50033 15H17.5003C17.9587 15 18.3337 15.375 18.3337 15.8333V18.3333Z" stroke="#1C1C1C" stroke-width="1.5" stroke-miterlimit="10" stroke-linecap="round" stroke-linejoin="round"/>
<path d="M18.3337 18.3333H1.66699V15.8333C1.66699 15.375 2.04199 15 2.50033 15H17.5003C17.9587 15 18.3337 15.375 18.3337 15.8333V18.3333Z" stroke="black" stroke-opacity="0.2" stroke-width="1.5" stroke-miterlimit="10" stroke-linecap="round" stroke-linejoin="round"/>
<path d="M3.33301 14.9993V9.16602" stroke="#1C1C1C" stroke-width="1.5" stroke-miterlimit="10" stroke-linecap="round" stroke-linejoin="round"/>
<path d="M3.33301 14.9993V9.16602" stroke="black" stroke-opacity="0.2" stroke-width="1.5" stroke-miterlimit="10" stroke-linecap="round" stroke-linejoin="round"/>
<path d="M6.66699 14.9993V9.16602" stroke="#1C1C1C" stroke-width="1.5" stroke-miterlimit="10" stroke-linecap="round" stroke-linejoin="round"/>
<path d="M6.66699 14.9993V9.16602" stroke="black" stroke-opacity="0.2" stroke-width="1.5" stroke-miterlimit="10" stroke-linecap="round" stroke-linejoin="round"/>
<path d="M10 14.9993V9.16602" stroke="#1C1C1C" stroke-width="1.5" stroke-miterlimit="10" stroke-linecap="round" stroke-linejoin="round"/>
<path d="M10 14.9993V9.16602" stroke="black" stroke-opacity="0.2" stroke-width="1.5" stroke-miterlimit="10" stroke-linecap="round" stroke-linejoin="round"/>
<path d="M13.333 14.9993V9.16602" stroke="#1C1C1C" stroke-width="1.5" stroke-miterlimit="10" stroke-linecap="round" stroke-linejoin="round"/>
<path d="M13.333 14.9993V9.16602" stroke="black" stroke-opacity="0.2" stroke-width="1.5" stroke-miterlimit="10" stroke-linecap="round" stroke-linejoin="round"/>
<path d="M16.667 14.9993V9.16602" stroke="#1C1C1C" stroke-width="1.5" stroke-miterlimit="10" stroke-linecap="round" stroke-linejoin="round"/>
<path d="M16.667 14.9993V9.16602" stroke="black" stroke-opacity="0.2" stroke-width="1.5" stroke-miterlimit="10" stroke-linecap="round" stroke-linejoin="round"/>
<path d="M0.833008 18.334H19.1663" stroke="#1C1C1C" stroke-width="1.5" stroke-miterlimit="10" stroke-linecap="round" stroke-linejoin="round"/>
<path d="M0.833008 18.334H19.1663" stroke="black" stroke-opacity="0.2" stroke-width="1.5" stroke-miterlimit="10" stroke-linecap="round" stroke-linejoin="round"/>
<path d="M10 7.08398C10.6904 7.08398 11.25 6.52434 11.25 5.83398C11.25 5.14363 10.6904 4.58398 10 4.58398C9.30964 4.58398 8.75 5.14363 8.75 5.83398C8.75 6.52434 9.30964 7.08398 10 7.08398Z" stroke="#1C1C1C" stroke-width="1.5" stroke-miterlimit="10" stroke-linecap="round" stroke-linejoin="round"/>
<path d="M10 7.08398C10.6904 7.08398 11.25 6.52434 11.25 5.83398C11.25 5.14363 10.6904 4.58398 10 4.58398C9.30964 4.58398 8.75 5.14363 8.75 5.83398C8.75 6.52434 9.30964 7.08398 10 7.08398Z" stroke="black" stroke-opacity="0.2" stroke-width="1.5" stroke-miterlimit="10" stroke-linecap="round" stroke-linejoin="round"/>
</svg>
