<svg width="16" height="17" viewBox="0 0 16 17" fill="none" xmlns="http://www.w3.org/2000/svg">
<g clip-path="url(#clip0_10848_17619)">
<path d="M7.98203 16.5C12.3904 16.5 15.9641 12.9183 15.9641 8.5C15.9641 4.08175 12.3902 0.5 7.98203 0.5C3.57391 0.5 0 4.08175 0 8.5C0 12.9183 3.57366 16.5 7.98203 16.5Z" fill="url(#paint0_linear_10848_17619)"/>
<path d="M12.8491 8.01999L10.6242 5.80225L10.6202 5.79825L10.6114 5.7905C10.597 5.77754 10.5819 5.76536 10.5663 5.754L10.5326 5.72925C10.5274 5.7255 10.5223 5.72275 10.5168 5.71925C10.3895 5.63632 10.2364 5.60417 10.0871 5.629C9.9382 5.65338 9.80361 5.73314 9.70946 5.85275L6.24878 9.30224V6.22925C6.24878 6.06775 6.18429 5.91275 6.06983 5.7985C5.95536 5.68425 5.79979 5.62 5.63758 5.62C5.47536 5.62 5.32004 5.68425 5.20558 5.7985C5.09112 5.91275 5.02663 6.06775 5.02663 6.22925V9.30249L3.76336 8.04325C3.647 7.93318 3.49332 7.87291 3.33432 7.87499C3.17481 7.877 3.0222 7.941 2.90946 8.0535C2.79672 8.166 2.73247 8.318 2.7305 8.477C2.72882 8.63659 2.78955 8.79033 2.89936 8.9045L5.20583 11.2035C5.22031 11.2181 5.2356 11.2319 5.25161 11.2447L5.29936 11.2812C5.383 11.3351 5.47813 11.3679 5.57678 11.3767H5.57924L5.63881 11.3797H5.64792L5.6974 11.3775H5.70946L5.75647 11.3705H5.76336L5.81481 11.3577H5.81776C5.83623 11.3522 5.85444 11.3457 5.87216 11.3382C5.89743 11.3278 5.92194 11.3156 5.94552 11.3017L5.95955 11.2937C5.98269 11.2797 6.0046 11.264 6.02552 11.247L6.03167 11.2415L6.06835 11.207L9.57703 7.70725V10.771C9.57703 10.9325 9.64152 11.0875 9.75598 11.2017C9.87044 11.316 10.026 11.3802 10.188 11.3802C10.3495 11.3804 10.5047 11.3163 10.6202 11.2017C10.6768 11.1457 10.7217 11.0787 10.7525 11.0047C10.7832 10.9307 10.7991 10.8513 10.7992 10.771V7.69775L11.9847 8.88175C12.0999 8.99375 12.2544 9.056 12.4152 9.055C12.5759 9.054 12.73 8.98975 12.8435 8.8765C12.957 8.76325 13.0215 8.60975 13.0224 8.44925C13.0228 8.36956 13.0076 8.2906 12.9778 8.21691C12.9479 8.14323 12.9039 8.0763 12.8484 8.01999H12.8491Z" fill="white"/>
</g>
<defs>
<linearGradient id="paint0_linear_10848_17619" x1="1.06806" y1="4.49925" x2="14.9115" y2="12.4734" gradientUnits="userSpaceOnUse">
<stop offset="0.13" stop-color="#348BED"/>
<stop offset="0.31" stop-color="#2B80E8"/>
<stop offset="0.64" stop-color="#1461DB"/>
<stop offset="0.72" stop-color="#0E57D7"/>
</linearGradient>
<clipPath id="clip0_10848_17619">
<rect width="16" height="16" fill="white" transform="translate(0 0.5)"/>
</clipPath>
</defs>
</svg>
