<svg viewBox="0 0 20 20" fill="none" xmlns="http://www.w3.org/2000/svg">
<path d="M15.8332 8.57314V12.0731C15.8332 14.9898 14.6665 16.1565 11.7498 16.1565H8.24984C5.33317 16.1565 4.1665 14.9898 4.1665 12.0731V8.57314C4.1665 5.65647 5.33317 4.48981 8.24984 4.48981H11.7498C14.6665 4.48981 15.8332 5.65647 15.8332 8.57314Z" stroke-width="1.5" stroke-linecap="round" stroke-linejoin="round"/>
<path d="M6.80518 4.57683L12.8893 4.57681C15.8059 4.57681 15.7956 7.58608 15.7956 10.5028V13.1885C17.6768 12.8256 18.3329 11.6366 18.3329 9.2503V5.7502C18.3329 2.83345 17.1663 1.66675 14.2497 1.66675H10.7497C8.26124 1.66675 7.04662 2.51593 6.74365 4.57683" stroke-width="1.5" stroke-linecap="round" stroke-linejoin="round"/>
</svg>
