<svg width="30" height="30" viewBox="0 0 30 30" fill="none" xmlns="http://www.w3.org/2000/svg">
<path d="M5 7C5 4.79086 6.91878 3 9.28571 3H16.6737C17.4314 3 18.1582 3.28095 18.694 3.78105L24.1632 8.88562C24.699 9.38572 25 10.064 25 10.7712V23C25 25.2091 23.0812 27 20.7143 27H9.28571C6.91878 27 5 25.2091 5 23V7Z" fill="white" stroke="#D7DBEB"/>
<path d="M18 20L15.8866 15.92L17.9072 12H16.2577L15.0103 14.5029L13.7835 12H12.0825L14.1134 15.92L12 20H13.6495L14.9794 17.3486L16.299 20H18Z" fill="#176D3C"/>
</svg>
