<svg width="30" height="30" viewBox="0 0 30 30" fill="none" xmlns="http://www.w3.org/2000/svg">
<path d="M5 7C5 4.79086 6.91878 3 9.28571 3H16.6737C17.4314 3 18.1582 3.28095 18.694 3.78105L24.1632 8.88562C24.699 9.38572 25 10.064 25 10.7712V23C25 25.2091 23.0812 27 20.7143 27H9.28571C6.91878 27 5 25.2091 5 23V7Z" fill="white" stroke="#D7DBEB"/>
<path d="M13.1794 14.2469C13.0375 14.0184 12.8402 13.8299 12.606 13.6992C12.3718 13.5686 12.1085 13.5 11.8408 13.5C11.573 13.5 11.3097 13.5686 11.0755 13.6992C10.8414 13.8299 10.6441 14.0184 10.5022 14.2469L5.2404 22.2228C5.09078 22.4634 5.0079 22.7399 5.00036 23.0237C4.99283 23.3074 5.10355 24.4071 5.24018 24.6553C5.37681 24.9036 5.57699 25.1105 5.81993 25.2546C6.06287 25.3986 8.21806 26.5003 8.5 26.5002H21.5224C21.8156 26.5002 24.0398 25.3922 24.2892 25.2371C24.5385 25.0819 24.7401 24.8599 24.8712 24.5959C25.0023 24.3319 25.0151 23.2174 24.9888 22.9234C24.9625 22.6295 24.8554 22.3487 24.6795 22.1126L21.5224 18.3746C21.3754 18.1772 21.1847 18.017 20.9655 17.9067C20.7463 17.7964 20.5046 17.7389 20.2596 17.7389C20.0145 17.7389 19.7728 17.7964 19.5536 17.9067C19.3345 18.017 19.1438 18.1772 18.9968 18.3746L17.2204 20.7584L13.1794 14.2469Z" fill="#D7DBEB"/>
<circle cx="18" cy="12" r="2" fill="#D7DBEB"/>
</svg>
