<svg width="30" height="30" viewBox="0 0 30 30" fill="none" xmlns="http://www.w3.org/2000/svg">
<path d="M5 7C5 4.79086 6.91878 3 9.28571 3H16.6737C17.4314 3 18.1582 3.28095 18.694 3.78105L24.1632 8.88562C24.699 9.38572 25 10.064 25 10.7712V23C25 25.2091 23.0812 27 20.7143 27H9.28571C6.91878 27 5 25.2091 5 23V7Z" fill="white" stroke="#D7DBEB"/>
<path d="M20 12.0113H18.3769L17.1024 17.2312L15.7081 12H14.3355L12.9303 17.2312L11.6667 12.0113H10L12.1678 20H13.6057L15 14.9504L16.3943 20H17.8322L20 12.0113Z" fill="#224782"/>
</svg>
