<svg width="60" height="60" viewBox="0 0 60 60" fill="none" xmlns="http://www.w3.org/2000/svg">
<path fill-rule="evenodd" clip-rule="evenodd" d="M30 60C46.5685 60 60 46.5685 60 30C60 13.4315 46.5685 0 30 0C13.4315 0 0 13.4315 0 30C0 46.5685 13.4315 60 30 60Z" fill="#F7931A"/>
<path fill-rule="evenodd" clip-rule="evenodd" d="M39.9975 35.1819C39.4412 33.8467 38.1988 32.7239 38.1988 32.7239C38.1988 32.7239 39.8062 32.7109 40.7036 32.289C41.6016 31.8671 42.4778 30.916 42.8462 30.3728C43.2145 29.829 44.6832 27.5058 43.6466 25.082C42.8449 23.2069 41.4682 21.8513 39.3724 20.459L42.1437 15.659L39.2262 13.9746L36.4877 18.7178C35.8367 18.342 35.076 17.9028 34.2655 17.4348L37.004 12.6916L34.0868 11.0073L31.3483 15.7506C28.3701 14.0312 25.6088 12.4369 25.6088 12.4369L23.8344 15.5102C23.8344 15.5102 25.0613 16.2186 25.5214 16.4842C25.9813 16.7497 26.7694 17.2739 26.8891 17.8692C27.0094 18.4639 26.9509 18.7069 26.508 19.474C26.0649 20.2414 19.6055 31.4298 19.4378 31.7203C19.2701 32.0106 19.0081 32.3385 18.6267 32.432C18.2457 32.5257 17.9687 32.439 17.3822 32.1004C16.7959 31.7619 15.6374 31.093 15.6374 31.093L12.9854 34.3013C12.9854 34.3013 15.8377 35.948 18.7249 37.615L15.9941 42.3448L18.9114 44.0292L21.6422 39.2993C22.5386 39.8168 23.3191 40.2675 23.8644 40.5823L21.1336 45.3121L24.0511 46.9966L26.8269 42.1887C27.6069 42.5794 28.3436 42.9275 28.7852 43.1098C29.6807 43.4796 31.6897 44.3444 34.1673 44.1152C36.6445 43.8856 38.1654 42.1636 39.3401 40.2237C40.5153 38.2839 40.5528 36.5166 39.9975 35.1819ZM32.3269 20.7828C32.3269 20.7828 33.3017 21.2351 34.2073 21.776C35.1131 22.3172 35.901 22.8092 36.8855 23.8755C37.8693 24.9417 38.0507 26.2634 37.4557 27.3583C36.86 28.4527 35.9809 28.9036 34.8998 28.8881C33.8185 28.8722 32.5438 28.4682 31.4562 27.8951C30.369 27.3229 29.0295 26.494 29.0295 26.494L32.3269 20.7828ZM30.7011 38.701C29.8174 38.689 28.2896 38.2493 26.939 37.5983C25.5878 36.9475 23.6759 35.7883 23.6759 35.7883L27.3409 29.4404C27.3409 29.4404 29.2508 30.4144 30.6403 31.3453C32.0291 32.2768 33.0271 33.3503 33.4121 33.9421C33.7978 34.5333 34.4013 35.6927 33.5627 37.1451C32.7245 38.5969 31.5842 38.7131 30.7011 38.701Z" fill="white"/>
</svg>
