<svg width="60" height="60" viewBox="0 0 60 60" fill="none" xmlns="http://www.w3.org/2000/svg">
<rect width="60" height="60" rx="30" fill="#1BA27A"/>
<mask id="mask0_11054_19415" style="mask-type:luminance" maskUnits="userSpaceOnUse" x="0" y="0" width="60" height="60">
<rect width="60" height="60" rx="30" fill="white"/>
</mask>
<g mask="url(#mask0_11054_19415)">
<path fill-rule="evenodd" clip-rule="evenodd" d="M45 15H15V22H26V48H34V22H45V15Z" fill="white"/>
<path fill-rule="evenodd" clip-rule="evenodd" d="M30 32.3408C44.4713 32.3408 48 29.6569 48 28C48 26.3431 39.9411 25 30 25C20.0589 25 12 26.3431 12 28C12 29.6569 15.5287 32.3408 30 32.3408ZM30 30.25C38.8366 30.25 46 29.2426 46 28C46 26.7574 38.8366 25.75 30 25.75C21.1634 25.75 14 26.7574 14 28C14 29.2426 21.1634 30.25 30 30.25Z" fill="white"/>
<path fill-rule="evenodd" clip-rule="evenodd" d="M26 29.4805C26 29.4805 28.6631 29.7691 30 29.7691C31.3369 29.7691 34 29.4805 34 29.4805V30.0982C34 30.0982 32.8042 30.3069 30 30.3069C27.1958 30.3069 26 30.0982 26 30.0982V29.4805Z" fill="#1BA27A"/>
</g>
</svg>
