<svg viewBox="0 0 20 21" fill="none" xmlns="http://www.w3.org/2000/svg">
<path d="M8.125 12.5332C7.95924 12.5332 7.80027 12.5991 7.68306 12.7163C7.56585 12.8335 7.5 12.9924 7.5 13.1582C7.5 13.324 7.56585 13.4829 7.68306 13.6001C7.80027 13.7174 7.95924 13.7832 8.125 13.7832H11.875C12.0408 13.7832 12.1997 13.7174 12.3169 13.6001C12.4342 13.4829 12.5 13.324 12.5 13.1582C12.5 12.9924 12.4342 12.8335 12.3169 12.7163C12.1997 12.5991 12.0408 12.5332 11.875 12.5332H8.125ZM3.4375 3.7832C2.85734 3.7832 2.30094 4.01367 1.8907 4.42391C1.48047 4.83414 1.25 5.39054 1.25 5.9707V14.0957C1.25 15.3032 2.23 16.2832 3.4375 16.2832H16.5625C17.1427 16.2832 17.6991 16.0527 18.1093 15.6425C18.5195 15.2323 18.75 14.6759 18.75 14.0957V5.9707C18.75 5.39054 18.5195 4.83414 18.1093 4.42391C17.6991 4.01367 17.1427 3.7832 16.5625 3.7832H3.4375ZM2.5 5.9707C2.5 5.72206 2.59877 5.48361 2.77459 5.30779C2.9504 5.13198 3.18886 5.0332 3.4375 5.0332H16.5625C16.8111 5.0332 17.0496 5.13198 17.2254 5.30779C17.4012 5.48361 17.5 5.72206 17.5 5.9707V14.0957C17.5 14.3443 17.4012 14.5828 17.2254 14.7586C17.0496 14.9344 16.8111 15.0332 16.5625 15.0332H3.4375C3.18886 15.0332 2.9504 14.9344 2.77459 14.7586C2.59877 14.5828 2.5 14.3443 2.5 14.0957V5.9707Z" fill="#1C1C1C"/>
</svg>
