<svg viewBox="0 0 20 21" fill="none" xmlns="http://www.w3.org/2000/svg">
<g clip-path="url(#clip0_11889_27078)">
<path d="M13.75 1.2832C14.0815 1.2832 14.3995 1.4149 14.6339 1.64932C14.8683 1.88374 15 2.20168 15 2.5332V17.5332C15 17.8647 14.8683 18.1827 14.6339 18.4171C14.3995 18.6515 14.0815 18.7832 13.75 18.7832H6.25C5.91848 18.7832 5.60054 18.6515 5.36612 18.4171C5.1317 18.1827 5 17.8647 5 17.5332V2.5332C5 2.20168 5.1317 1.88374 5.36612 1.64932C5.60054 1.4149 5.91848 1.2832 6.25 1.2832H13.75ZM6.25 0.0332031C5.58696 0.0332031 4.95107 0.296595 4.48223 0.765436C4.01339 1.23428 3.75 1.87016 3.75 2.5332V17.5332C3.75 18.1962 4.01339 18.8321 4.48223 19.301C4.95107 19.7698 5.58696 20.0332 6.25 20.0332H13.75C14.413 20.0332 15.0489 19.7698 15.5178 19.301C15.9866 18.8321 16.25 18.1962 16.25 17.5332V2.5332C16.25 1.87016 15.9866 1.23428 15.5178 0.765436C15.0489 0.296595 14.413 0.0332031 13.75 0.0332031L6.25 0.0332031Z" fill="#1C1C1C"/>
<path d="M10.0006 17.5332C10.3321 17.5332 10.6501 17.4015 10.8845 17.1671C11.1189 16.9327 11.2506 16.6147 11.2506 16.2832C11.2506 15.9517 11.1189 15.6337 10.8845 15.3993C10.6501 15.1649 10.3321 15.0332 10.0006 15.0332C9.66909 15.0332 9.35115 15.1649 9.11673 15.3993C8.88231 15.6337 8.75061 15.9517 8.75061 16.2832C8.75061 16.6147 8.88231 16.9327 9.11673 17.1671C9.35115 17.4015 9.66909 17.5332 10.0006 17.5332Z" fill="#1C1C1C"/>
</g>
<defs>
<clipPath id="clip0_11889_27078">
<rect width="20" height="20" fill="white" transform="translate(0 0.0332031)"/>
</clipPath>
</defs>
</svg>
