<svg viewBox="0 0 20 21" fill="none" xmlns="http://www.w3.org/2000/svg">
<path d="M14.1075 17.8906H5.89324C5.75751 17.8905 5.62685 17.839 5.52768 17.7463C5.4285 17.6536 5.36819 17.5268 5.35894 17.3914C5.34969 17.2559 5.39218 17.1221 5.47784 17.0168C5.56349 16.9115 5.68592 16.8426 5.82038 16.8241L5.89324 16.8191H7.14324V15.0348H3.0361C2.60986 15.0348 2.20107 14.8655 1.89968 14.5641C1.59828 14.2627 1.42896 13.8539 1.42896 13.4277V3.78341C1.42896 3.35717 1.59828 2.94839 1.89968 2.64699C2.20107 2.34559 2.60986 2.17627 3.0361 2.17627H16.964C17.3902 2.17627 17.799 2.34559 18.1004 2.64699C18.4018 2.94839 18.5711 3.35717 18.5711 3.78341V13.4277C18.5711 13.8539 18.4018 14.2627 18.1004 14.5641C17.799 14.8655 17.3902 15.0348 16.964 15.0348H12.8561V16.8191H14.1075C14.2371 16.8192 14.3623 16.8661 14.4598 16.9514C14.5574 17.0366 14.6208 17.1543 14.6382 17.2827L14.6432 17.3548C14.6434 17.4844 14.5966 17.6097 14.5115 17.7074C14.4264 17.8051 14.3088 17.8686 14.1804 17.8863L14.1075 17.8906ZM11.7847 15.0348H8.21467V16.8191H11.7854L11.7847 15.0348ZM16.9632 3.2477H3.0361C2.89402 3.2477 2.75776 3.30414 2.65729 3.40461C2.55682 3.50507 2.50038 3.64133 2.50038 3.78341V13.4277C2.50038 13.7241 2.74038 13.9634 3.0361 13.9634L12.3211 13.962L12.3411 13.9634H16.964C17.106 13.9634 17.2423 13.907 17.3428 13.8065C17.4432 13.706 17.4997 13.5698 17.4997 13.4277V3.78341C17.4997 3.64133 17.4432 3.50507 17.3428 3.40461C17.2423 3.30414 17.106 3.2477 16.964 3.2477H16.9632Z" fill="#1C1C1C"/>
</svg>
