<svg viewBox="0 0 95 104" fill="none" xmlns="http://www.w3.org/2000/svg">
<path d="M93.5 34.5581V69.4419C93.5 75.1539 90.462 80.4581 85.5506 83.3651L55.4747 100.858C50.5633 103.714 44.4873 103.714 39.5253 100.858L9.44937 83.3651C4.53797 80.5091 1.5 75.2049 1.5 69.4419V34.5581C1.5 28.8461 4.53797 23.5419 9.44937 20.6349L39.5253 3.142C44.4367 0.286001 50.5127 0.286001 55.4747 3.142L85.5506 20.6349C90.462 23.5419 93.5 28.7951 93.5 34.5581Z" fill="#E8FFF4" stroke="white" stroke-width="1.5" stroke-linecap="round" stroke-linejoin="round"/>
<path d="M73.9831 42.0258V61.9757C73.9831 65.2423 72.2331 68.2758 69.404 69.9383L52.079 79.9424C49.2498 81.5758 45.7498 81.5758 42.8915 79.9424L25.5665 69.9383C22.7373 68.3049 20.9873 65.2715 20.9873 61.9757V42.0258C20.9873 38.7591 22.7373 35.7256 25.5665 34.0631L42.8915 24.059C45.7206 22.4257 49.2206 22.4257 52.079 24.059L69.404 34.0631C72.2331 35.7256 73.9831 38.7299 73.9831 42.0258Z" fill="#3DE297" stroke="white" stroke-width="1.5" stroke-linecap="round" stroke-linejoin="round"/>
<path d="M39.1665 60.333H55.8332" stroke="white" stroke-width="1.5" stroke-miterlimit="10" stroke-linecap="round" stroke-linejoin="round"/>
<path d="M51.6667 43.667H43.3333C40.8333 43.667 40 45.1587 40 47.0003V60.3337H55V47.0003C55 45.1587 54.1667 43.667 51.6667 43.667Z" stroke="white" stroke-width="1.5" stroke-miterlimit="10" stroke-linecap="round" stroke-linejoin="round"/>
<path d="M43.3335 55.75H45.8335" stroke="white" stroke-width="1.5" stroke-miterlimit="10" stroke-linecap="round" stroke-linejoin="round"/>
<path d="M49.1665 55.75H51.6665" stroke="white" stroke-width="1.5" stroke-miterlimit="10" stroke-linecap="round" stroke-linejoin="round"/>
<path d="M43.3335 52H45.8335" stroke="white" stroke-width="1.5" stroke-miterlimit="10" stroke-linecap="round" stroke-linejoin="round"/>
<path d="M49.1665 52H51.6665" stroke="white" stroke-width="1.5" stroke-miterlimit="10" stroke-linecap="round" stroke-linejoin="round"/>
<path d="M43.3335 48.25H45.8335" stroke="white" stroke-width="1.5" stroke-miterlimit="10" stroke-linecap="round" stroke-linejoin="round"/>
<path d="M49.1665 48.25H51.6665" stroke="white" stroke-width="1.5" stroke-miterlimit="10" stroke-linecap="round" stroke-linejoin="round"/>
</svg>
