<svg viewBox="0 0 95 104" fill="none" xmlns="http://www.w3.org/2000/svg">
<path d="M93.5 34.5581V69.4419C93.5 75.1539 90.462 80.4581 85.5506 83.3651L55.4747 100.858C50.5633 103.714 44.4873 103.714 39.5253 100.858L9.44937 83.3651C4.53797 80.5091 1.5 75.2049 1.5 69.4419V34.5581C1.5 28.8461 4.53797 23.5419 9.44937 20.6349L39.5253 3.142C44.4367 0.286001 50.5127 0.286001 55.4747 3.142L85.5506 20.6349C90.462 23.5419 93.5 28.7951 93.5 34.5581Z" fill="#F1F5FF" stroke="white" stroke-width="1.5" stroke-linecap="round" stroke-linejoin="round"/>
<path d="M73.9831 42.0258V61.9757C73.9831 65.2423 72.2331 68.2758 69.404 69.9383L52.079 79.9424C49.2498 81.5758 45.7498 81.5758 42.8915 79.9424L25.5665 69.9383C22.7373 68.3049 20.9873 65.2715 20.9873 61.9757V42.0258C20.9873 38.7591 22.7373 35.7256 25.5665 34.0631L42.8915 24.059C45.7206 22.4257 49.2206 22.4257 52.079 24.059L69.404 34.0631C72.2331 35.7256 73.9831 38.7299 73.9831 42.0258Z" fill="#0D76E9" stroke="white" stroke-width="1.5" stroke-linecap="round" stroke-linejoin="round"/>
<path d="M47.4999 49.5417C50.0736 49.5417 52.1599 47.4553 52.1599 44.8816C52.1599 42.308 50.0736 40.2217 47.4999 40.2217C44.9262 40.2217 42.8398 42.308 42.8398 44.8816C42.8398 47.4553 44.9262 49.5417 47.4999 49.5417Z" stroke="white" stroke-width="1.5" stroke-linecap="round" stroke-linejoin="round"/>
<path d="M55.5002 60.8618C55.5002 57.2617 51.9201 54.3418 47.5001 54.3418C43.08 54.3418 39.5 57.2617 39.5 60.8618" stroke="white" stroke-width="1.5" stroke-linecap="round" stroke-linejoin="round"/>
</svg>
