<svg viewBox="0 0 28 30" fill="none" xmlns="http://www.w3.org/2000/svg">
<path d="M10.7823 21.5868L10.7822 21.5869C8.88219 22.6501 6.52734 21.2654 6.52734 19.0651V3.87505V3.8569C6.52734 1.68843 8.81978 0.302567 10.721 1.30476L10.7216 1.30507L24.744 8.67322L24.7452 8.67385C26.7565 9.72377 26.804 12.6333 24.8055 13.7464L24.8047 13.7468L10.7823 21.5868Z" />
<path d="M4.75498 24.9808L4.75482 24.9808C2.85485 26.044 0.5 24.6594 0.5 22.459V7.26901C0.5 5.10054 2.79244 3.71468 4.69364 4.71687L4.69467 4.71741L18.7171 12.0674L18.7178 12.0678C20.7292 13.1177 20.7767 16.0272 18.7781 17.1403L18.7774 17.1407L4.75498 24.9808Z" />
<path d="M11.8604 28.7151L11.8603 28.7152C9.96032 29.7784 7.60547 28.3937 7.60547 26.1934V11.0034C7.60547 8.83491 9.8979 7.44905 11.7991 8.45124L11.8001 8.45179L25.8226 15.8018L25.8233 15.8022C27.8347 16.8521 27.8821 19.7616 25.8836 20.8747L25.8829 20.8751L11.8604 28.7151Z" />
</svg>
