<svg width="112" height="62" viewBox="0 0 112 62" fill="none" xmlns="http://www.w3.org/2000/svg">
<mask id="mask0_11122_50363" style="mask-type:luminance" maskUnits="userSpaceOnUse" x="25" y="19" width="61" height="27">
<path d="M86 19.585H25V45.585H86V19.585Z" fill="white"/>
</mask>
<g mask="url(#mask0_11122_50363)">
<path d="M36.5036 22.9378C37.2165 22.0353 37.7002 20.8234 37.5726 19.585C36.5291 19.6375 35.2557 20.2819 34.5185 21.1852C33.8566 21.9587 33.2707 23.2213 33.4234 24.4078C34.5948 24.5107 35.7651 23.8151 36.5036 22.9378Z" fill="black"/>
<path d="M37.5594 24.6392C35.8583 24.5367 34.4119 25.6166 33.5996 25.6166C32.7867 25.6166 31.5427 24.6909 30.1972 24.7159C28.446 24.7419 26.821 25.7442 25.9324 27.3384C24.1045 30.5276 25.45 35.2583 27.2275 37.8556C28.0907 39.1407 29.131 40.5556 30.5017 40.5048C31.7968 40.4533 32.3045 39.6558 33.8788 39.6558C35.4519 39.6558 35.9092 40.5048 37.2802 40.479C38.7019 40.4533 39.5907 39.1934 40.4539 37.9071C41.4442 36.4423 41.8495 35.0278 41.875 34.9502C41.8495 34.9245 39.1335 33.8697 39.1083 30.7071C39.0827 28.0589 41.2407 26.7993 41.3423 26.7212C40.1236 24.8966 38.2195 24.6909 37.5594 24.6392Z" fill="black"/>
<path d="M52.3714 21.0557C56.0688 21.0557 58.6434 23.6357 58.6434 27.3919C58.6434 31.1616 56.0158 33.7549 52.2787 33.7549H48.185V40.345H45.2274V21.0557H52.3714ZM48.185 31.2417H51.5787C54.1539 31.2417 55.6195 29.8383 55.6195 27.4053C55.6195 24.9726 54.1539 23.5823 51.592 23.5823H48.185V31.2417Z" fill="black"/>
<path d="M59.4161 36.3481C59.4161 33.8883 61.278 32.3779 64.5795 32.1907L68.3822 31.9636V30.8809C68.3822 29.3168 67.3392 28.3811 65.5963 28.3811C63.9453 28.3811 62.9152 29.183 62.6646 30.4397H59.9708C60.1293 27.8998 62.2683 26.0283 65.7018 26.0283C69.0689 26.0283 71.2211 27.833 71.2211 30.6535V40.3449H68.4878V38.0324H68.422C67.6165 39.5964 65.8604 40.5855 64.038 40.5855C61.3177 40.5855 59.4161 38.8744 59.4161 36.3481ZM68.3822 35.0783V33.9688L64.9621 34.1825C63.2586 34.303 62.2948 35.0649 62.2948 36.2679C62.2948 37.4976 63.2983 38.2997 64.8301 38.2997C66.8239 38.2997 68.3822 36.9095 68.3822 35.0783Z" fill="black"/>
<path d="M73.802 45.5181V43.1787C74.0127 43.232 74.4883 43.232 74.7258 43.232C76.0466 43.232 76.7597 42.6707 77.1951 41.2271C77.1951 41.2003 77.4464 40.3716 77.4464 40.3582L72.4287 26.2822H75.518L79.0311 37.7248H79.0837L82.5964 26.2822H85.6071L80.4041 41.0799C79.2162 44.4888 77.8425 45.5848 74.9638 45.5848C74.7258 45.5848 74.0127 45.558 73.802 45.5181Z" fill="black"/>
</g>
</svg>
