<svg width="112" height="62" viewBox="0 0 112 62" fill="none" xmlns="http://www.w3.org/2000/svg">
<mask id="mask0_11122_50373" style="mask-type:luminance" maskUnits="userSpaceOnUse" x="17" y="20" width="78" height="23">
<path d="M95 20.585H17V42.585H95V20.585Z" fill="white"/>
</mask>
<g mask="url(#mask0_11122_50373)">
<path d="M25.9758 25.5436H29.1863C34.366 20.4681 40.4874 20.339 47.3794 25.2425C40.573 18.9196 33.4242 19.0486 25.9758 25.5436Z" fill="#A60D14"/>
<path d="M23.9211 23.9951H22.3372L17.5856 38.2754H18.8699L20.4109 33.501H25.8474L27.3885 38.2754H28.7155L23.9211 23.9951ZM25.4194 32.0816H20.8818L23.1078 25.0275L25.4194 32.0816ZM35.4362 28.9846C35.8643 29.1567 36.2924 29.4148 36.6776 29.7159L37.2341 28.9416C36.7205 28.5975 36.2496 28.2965 35.6931 28.1244C35.1366 27.9523 34.6229 27.8663 33.938 27.8663C33.2531 27.8663 32.6966 27.9954 32.2257 28.2104C31.712 28.4255 31.2839 28.7696 30.9843 29.1137C30.6846 29.5438 30.5562 29.974 30.5562 30.4901C30.5562 31.2213 30.7703 31.7805 31.2411 32.2106C31.7548 32.6408 32.4825 33.0279 33.5955 33.329C34.2804 33.501 34.8369 33.6731 35.2222 33.8881C35.6075 34.1032 35.8643 34.3183 36.0783 34.5764C36.2496 34.8774 36.2924 35.2215 36.2924 35.6087C36.2924 36.2109 36.0355 36.684 35.5647 37.0281C35.1366 37.3292 34.4945 37.5012 33.7668 37.5012C33.2281 37.5278 32.6895 37.4464 32.1824 37.2617C31.6753 37.0771 31.2098 36.793 30.8131 36.4259L30.1281 37.1571C30.599 37.5443 31.1127 37.8453 31.6692 38.0604C32.9569 38.5197 34.3626 38.5197 35.6503 38.0604C36.2068 37.8453 36.6348 37.5012 36.9773 37.0711C37.3198 36.641 37.5338 36.0818 37.5338 35.4366C37.5338 34.8774 37.3626 34.3613 37.1485 33.9742C36.9345 33.587 36.592 33.2859 36.1212 33.0279C35.6075 32.7268 35.0082 32.5117 34.2376 32.3397C33.3815 32.1246 32.6966 31.8665 32.3541 31.5654C31.9689 31.3074 31.7548 30.8772 31.7548 30.4041C31.7548 29.8879 32.0117 29.5008 32.3969 29.1567C32.7822 28.8556 33.3815 28.7266 34.0236 28.7266C34.5373 28.7696 35.0082 28.8556 35.4362 28.9846ZM41.6433 25.5006L40.5303 25.6296V28.0814H38.7752V28.9416H40.5303V35.7377C40.5303 36.5979 40.7443 37.2862 41.1724 37.7163C41.6433 38.1464 42.1998 38.3615 43.0131 38.3615C43.3984 38.3615 43.7836 38.3185 44.1261 38.1894C44.5114 38.1034 44.811 37.9314 45.1535 37.7593L44.7254 36.9851L43.9549 37.3292L43.1843 37.4582C42.6278 37.4582 42.2854 37.3292 42.0285 37.0281C41.7717 36.727 41.6861 36.2539 41.6861 35.6947V28.9416H44.1689L44.2973 28.0814H41.6861V25.5006H41.6433ZM48.1072 28.0814H47.0798V38.1894H48.2356V32.0386C48.468 31.2124 48.8292 30.4285 49.3058 29.7159C49.7338 29.1567 50.3331 28.8986 50.9753 28.8986L51.489 28.9416L51.8742 29.0277L52.0883 27.9954L51.66 27.8663H51.0609C50.376 27.8663 49.7767 28.0814 49.3058 28.4685C48.8349 28.8556 48.4496 29.5438 48.1928 30.3611L48.1072 28.0814ZM58.0813 27.8663C57.054 27.8663 56.1977 28.0814 55.4273 28.5115C54.6996 28.8986 54.1003 29.5438 53.7578 30.318C53.3726 31.1353 53.2012 32.0386 53.2012 33.1569C53.2012 34.2322 53.4154 35.1785 53.7578 35.9528C54.143 36.77 54.7424 37.3722 55.4273 37.7593C56.155 38.1464 57.0112 38.3615 58.0813 38.4475C59.1087 38.4475 60.0077 38.1894 60.7354 37.7593C61.5058 37.3292 62.0197 36.727 62.4049 35.9098C62.7901 35.1355 63.047 34.1892 63.047 33.1139C63.0042 31.4364 62.5332 30.146 61.72 29.1997C60.8209 28.3395 59.6222 27.8663 58.0813 27.8663ZM55.4273 29.8879C56.0694 29.1567 56.9254 28.7696 58.0386 28.7696C59.1515 28.7696 60.0505 29.1137 60.6495 29.8879C61.2489 30.5761 61.5913 31.6945 61.5913 33.1139C61.5913 34.5333 61.2489 35.6517 60.6068 36.3829C60.278 36.7452 59.8733 37.0296 59.4217 37.2156C58.9701 37.4015 58.483 37.4844 57.9955 37.4582C56.8398 37.4582 56.0267 37.1141 55.3845 36.3399C54.7852 35.6517 54.4427 34.5333 54.4427 33.1569C54.5282 31.6945 54.8279 30.5761 55.4273 29.8879Z" fill="#131313"/>
<path d="M73.8769 30.6191C74.3908 29.9739 74.6046 29.1137 74.6046 28.1244C74.6046 26.705 74.0911 25.7156 73.192 24.9844C72.2502 24.3392 70.9232 24.0381 69.2965 24.0381H65.9575V38.1464H67.2418V32.3397H69.2965C70.0673 32.3397 70.7094 32.2536 71.3088 32.1246L72.0792 31.9095C72.8496 31.6514 73.449 31.2213 73.8769 30.6191ZM72.293 30.6191C72.0364 30.8342 71.7367 30.9633 71.3943 31.1353C70.7521 31.3504 70.11 31.4364 69.2537 31.3934H67.2418V24.9844H69.2965C70.5808 24.9844 71.5653 25.1995 72.2502 25.7156C72.9351 26.1888 73.2776 26.963 73.2776 28.0814C73.2776 28.8986 73.1065 29.5868 72.7213 30.06C72.6358 30.275 72.4644 30.4471 72.293 30.6191ZM81.8391 29.3718C82.1815 29.7589 82.3529 30.318 82.3529 31.1783V32.1246H80.4265C79.9558 32.1246 79.4847 32.1676 79.0995 32.2536C78.3719 32.3827 77.8153 32.6408 77.3445 33.0279C76.9723 33.3056 76.673 33.6699 76.4715 34.0894C76.2703 34.5089 76.1731 34.9711 76.1885 35.4366C76.1885 36.3399 76.4882 37.1141 77.0021 37.6303C77.6011 38.1464 78.3291 38.4905 79.3564 38.4905C80.0413 38.4905 80.6407 38.3185 81.197 38.0174C81.7108 37.7593 82.096 37.4152 82.3957 36.9851L82.524 36.77V38.2324H83.5513L83.5086 35.9528V31.0493C83.5086 30.0169 83.2517 29.1997 82.6954 28.6835C82.1815 28.1244 81.3256 27.8663 80.2124 27.8663C79.6561 27.8663 79.1423 27.9093 78.6288 28.0384C78.0722 28.1244 77.5583 28.2964 77.0021 28.5115L77.3018 29.4148C77.7725 29.2427 78.2432 29.0277 78.7571 28.9416C79.185 28.8556 79.6134 28.7696 80.0413 28.7696C80.8118 28.7696 81.4539 28.9416 81.8391 29.3718ZM77.43 35.3506C77.43 34.5333 77.687 33.9311 78.2005 33.544C78.4574 33.3289 78.8426 33.1999 79.2278 33.1139C79.6134 33.0279 80.0841 32.8988 80.5976 32.8988H82.3529V35.6947L81.9677 36.3399L81.8391 36.5119C81.668 36.77 81.4539 36.9421 81.197 37.1141C80.769 37.4152 80.2124 37.5442 79.5703 37.5442C78.9281 37.5442 78.3719 37.3722 78.0294 36.9851C77.6011 36.5549 77.43 36.0388 77.43 35.3506ZM94.5959 28.0814H93.3971L90.4006 37.3722L87.3614 28.0814H86.1199L89.844 38.7056L89.3733 39.6949C89.1591 40.082 88.8594 40.4261 88.4315 40.6842C88.0463 40.9423 87.5324 41.1573 86.8475 41.3294L86.9762 42.2327C87.8321 42.0176 88.4742 41.8025 89.0308 41.4584C89.5443 41.1143 89.9726 40.7272 90.3151 40.168C90.6148 39.6519 90.9141 39.0497 91.1283 38.2754L94.5959 28.0814Z" fill="#787878"/>
<path d="M93.0119 27.9522C93.0397 27.8731 93.092 27.8051 93.1618 27.7586C93.2312 27.712 93.3137 27.6894 93.3972 27.6942H94.5959C94.8525 27.6942 95.0239 27.9522 94.9383 28.2103L91.5135 38.4044C91.2997 39.0926 91.0428 39.7378 90.6576 40.383C90.2293 40.9852 89.8013 41.4153 89.245 41.8024C88.6884 42.1465 88.0035 42.4046 87.0617 42.5767C86.8476 42.6197 86.6337 42.4906 86.6337 42.2756L86.4623 41.3723C86.4493 41.2759 86.4729 41.1781 86.5287 41.0984C86.5841 41.0187 86.6676 40.9629 86.762 40.9422C87.4042 40.8131 87.8749 40.5981 88.2173 40.34C88.6029 40.1249 88.8595 39.8238 89.0309 39.5227L89.2878 39.0496C89.3169 38.9638 89.3456 38.8778 89.3733 38.7915L89.4588 38.6625L85.7347 28.2103C85.6492 27.9522 85.863 27.6942 86.1199 27.6942H87.3614C87.4373 27.6983 87.5106 27.7251 87.5714 27.771C87.6323 27.817 87.6785 27.88 87.7038 27.9522L90.4007 36.1247L93.0119 27.9522ZM93.6968 28.4684L90.7431 37.5011C90.6576 37.8452 90.1437 37.8452 90.0154 37.5011L87.0617 28.4684H86.6765L90.2293 38.5764C90.2587 38.6599 90.2587 38.751 90.2293 38.8345L90.101 39.1356C90.0589 39.222 90.0161 39.308 89.9727 39.3937L89.7158 39.9098C89.4588 40.34 89.1164 40.6841 88.6457 40.9852C88.3032 41.2432 87.8321 41.4583 87.2759 41.6304L87.3186 41.7594C87.8571 41.6622 88.3699 41.4557 88.8263 41.1524C89.2827 40.8492 89.6727 40.4557 89.9727 39.9959C90.3151 39.3937 90.5721 38.7915 90.7859 38.1893L94.0393 28.4684H93.6968ZM83.8511 31.0492V35.9527L83.8938 36.5978V38.2323C83.8938 38.335 83.8534 38.4335 83.7813 38.5061C83.7087 38.5787 83.6109 38.6195 83.5086 38.6195H82.4813C82.3793 38.6195 82.2811 38.5787 82.2089 38.5061C82.1368 38.4335 82.0961 38.335 82.0961 38.2323V37.8452C81.3379 38.5405 80.3397 38.9109 79.3137 38.8775C78.2433 38.8775 77.3873 38.5334 76.7024 37.9312C76.386 37.6008 76.1393 37.2094 75.9775 36.7806C75.8157 36.3519 75.7418 35.8947 75.7606 35.4365C75.7606 34.2752 76.1886 33.3719 77.0449 32.7267C77.6015 32.2965 78.2433 32.0385 78.9713 31.8664C79.3992 31.7804 79.87 31.7374 80.3838 31.7374H81.925V31.1782C81.925 30.404 81.7964 29.9308 81.4967 29.6298C81.2398 29.3287 80.7263 29.1566 79.9986 29.1566L78.7571 29.3287L77.3873 29.7588C77.1732 29.8448 76.9162 29.7158 76.8735 29.5007L76.6169 28.6404C76.5875 28.5489 76.5933 28.4499 76.633 28.3624C76.6727 28.275 76.7431 28.2054 76.8307 28.1673C77.4301 27.9092 77.9867 27.7372 78.5002 27.6511C79.014 27.5221 79.5703 27.4791 80.1697 27.4791C81.4112 27.4791 82.353 27.7802 82.9523 28.4254C83.5514 29.0276 83.8511 29.9308 83.8511 31.0492ZM83.1234 36.6409L83.0806 35.9527V31.0492C83.0806 30.1029 82.8665 29.4147 82.3957 28.9845C81.9678 28.4684 81.2398 28.2533 80.1697 28.2533C79.6134 28.2533 79.0996 28.2963 78.6716 28.4254C78.6572 28.4262 78.6428 28.4262 78.6288 28.4254C78.2433 28.4684 77.8581 28.5974 77.4301 28.7265L77.4728 28.8985C77.9867 28.7265 78.2864 28.6404 78.6288 28.5974C79.3137 28.4254 79.6134 28.3824 79.9986 28.3824C80.9404 28.3824 81.6681 28.5974 82.0961 29.1136C82.524 29.5867 82.6954 30.2319 82.6954 31.1782V32.1245C82.6954 32.2272 82.6547 32.3256 82.5825 32.3982C82.5103 32.4708 82.4122 32.5116 82.3102 32.5116H80.3838C79.9127 32.5116 79.4848 32.5546 79.1423 32.6407C78.5002 32.7697 77.9867 32.9848 77.5156 33.3288C77.1933 33.5733 76.9354 33.8929 76.7637 34.2602C76.5923 34.6275 76.5122 35.0312 76.531 35.4365C76.531 36.2537 76.788 36.8989 77.2587 37.3721C77.7725 37.8452 78.4574 38.1033 79.3137 38.1033C79.9558 38.1033 80.4693 37.9743 80.9832 37.6732C81.4556 37.423 81.8542 37.0521 82.1388 36.5978C82.353 36.2107 82.8665 36.3398 82.8665 36.7699V37.8452H83.1234C83.1282 37.4438 83.1282 37.0423 83.1234 36.6409ZM67.6702 38.1463C67.6702 38.249 67.6295 38.3475 67.5573 38.4201C67.4851 38.4927 67.3869 38.5334 67.2846 38.5334H66.0007C65.8984 38.5334 65.8002 38.4927 65.728 38.4201C65.6558 38.3475 65.6151 38.249 65.6151 38.1463V24.038V23.952C65.6257 23.857 65.6712 23.7692 65.7421 23.7057C65.8132 23.6422 65.9052 23.6073 66.0007 23.6079H69.3824C71.1374 23.6079 72.5072 23.909 73.4918 24.6402C74.5619 25.4145 75.0757 26.5758 75.0757 28.0813C75.0329 29.1996 74.776 30.1029 74.3053 30.7481C74.2813 30.7811 74.2523 30.8102 74.2194 30.8341C73.6047 31.5933 72.7648 32.1357 71.8223 32.3826L71.3943 32.5116C70.7094 32.6407 70.0245 32.7267 69.2969 32.7267H67.6271L67.6702 38.1463ZM66.3859 37.7592H66.8994L66.8566 32.3396C66.8566 32.2369 66.8973 32.1384 66.9695 32.0658C67.0417 31.9932 67.1399 31.9524 67.2418 31.9524H69.2969C70.0769 31.9509 70.8534 31.8498 71.6081 31.6513L71.9509 31.5223C72.6481 31.2727 73.2581 30.8243 73.7059 30.2319C74.0484 29.7158 74.2622 28.9845 74.3053 28.0813C74.3053 26.7909 73.877 25.8876 73.0638 25.2424C72.2075 24.6832 70.9663 24.3821 69.3824 24.3821H66.3859V37.7592ZM67.6271 31.3933C67.6271 31.4959 67.5867 31.5944 67.5145 31.667C67.442 31.7396 67.3441 31.7804 67.2418 31.7804H67.1991C67.0971 31.7804 66.9989 31.7396 66.9268 31.667C66.8546 31.5944 66.8139 31.4959 66.8139 31.3933V31.3503C66.8139 31.2476 66.8546 31.1491 66.9268 31.0765C66.9989 31.0039 67.0971 30.9632 67.1991 30.9632H67.6271V31.3933ZM69.211 30.9632C70.0245 31.0062 70.6239 30.9201 71.1802 30.7051C71.6081 30.576 71.8223 30.447 71.9937 30.3179L72.4217 29.8448C72.7213 29.4147 72.8924 28.8125 72.8924 28.0813C72.8924 27.092 72.5927 26.4038 72.0365 26.0166C71.3943 25.5865 70.538 25.3714 69.2969 25.3714H67.6271V30.9632H69.211ZM67.1991 31.3503H67.5843V31.3933H67.1991V31.0062H67.2418V31.3933H67.1991V31.3503ZM66.8566 31.3933V24.9844C66.8566 24.8817 66.8973 24.7832 66.9695 24.7106C67.0417 24.638 67.1399 24.5972 67.2418 24.5972H69.2969C70.6667 24.5972 71.694 24.8553 72.4644 25.3714C73.2776 25.9306 73.6632 26.8769 73.6632 28.0813C73.6632 28.9845 73.449 29.7158 73.0638 30.2749L72.5072 30.8771C72.2075 31.0922 71.9509 31.2643 71.4798 31.4363C70.7949 31.6944 70.0673 31.7804 69.211 31.7374H67.1991V31.3933H66.8566Z" fill="#787878"/>
<path d="M58.0814 29.1567C57.0968 29.1567 56.3264 29.5008 55.727 30.146C55.1276 30.7482 54.8707 31.7375 54.8707 33.1569C54.8707 34.4473 55.1704 35.4366 55.727 36.0818C56.2833 36.77 57.0113 37.0711 58.0386 37.0711C59.0232 37.0711 59.8364 36.77 60.3502 36.1248C60.9496 35.4796 61.2489 34.4903 61.2489 33.1139C61.2489 31.7805 60.9496 30.7482 60.393 30.146C59.8791 29.5008 59.1087 29.1567 58.0814 29.1567ZM54.1003 33.1569C54.1003 31.5654 54.4427 30.4041 55.1704 29.6299C55.9408 28.8126 56.8826 28.3825 58.0814 28.3825C59.3229 28.3825 60.3075 28.8126 60.9923 29.6299C61.6772 30.4041 62.0197 31.6084 62.0197 33.1139C62.0197 34.6624 61.6772 35.8237 60.9496 36.641C60.5828 37.0455 60.132 37.3633 59.6287 37.5715C59.1251 37.7798 58.5822 37.8733 58.0386 37.8453C56.7971 37.8453 55.8553 37.4582 55.1276 36.5979C54.4427 35.8237 54.1003 34.6194 54.1003 33.1569ZM58.0814 27.4792C59.7081 27.4792 60.9923 27.9523 61.9769 28.9416C62.9184 29.974 63.3895 31.3074 63.4322 33.0709C63.4322 34.2322 63.1753 35.2215 62.7473 36.0818C62.3194 36.9851 61.72 37.6303 60.9496 38.1034C60.1361 38.5765 59.1515 38.8346 58.0814 38.8346C56.9685 38.7486 56.0267 38.5335 55.2559 38.1034C54.4855 37.6733 53.8434 36.9851 53.4154 36.1248C53.0302 35.2215 52.816 34.2322 52.816 33.1569C52.816 31.9525 52.9874 31.0063 53.4154 30.146C53.8006 29.2857 54.4427 28.5975 55.2559 28.1674C56.0695 27.6943 57.0113 27.4792 58.0814 27.4792ZM58.0814 28.2534C57.1396 28.2534 56.3264 28.4255 55.6415 28.8556C54.9562 29.1997 54.4427 29.7589 54.1003 30.4901C53.7578 31.2213 53.5865 32.0816 53.5865 33.1569C53.5865 34.1032 53.7578 35.0065 54.1003 35.7807C54.4855 36.5119 54.9993 37.0711 55.6415 37.4152C56.2833 37.8023 57.0968 38.0174 58.0814 38.0604C59.0232 38.0174 59.8364 37.8453 60.5213 37.4152C61.2062 37.0281 61.6772 36.5119 62.0625 35.7377C62.4477 34.9634 62.6618 34.1032 62.6618 33.1139C62.6191 31.5224 62.1907 30.3611 61.4203 29.5008C60.6068 28.6405 59.4939 28.2534 58.0814 28.2534ZM49.049 28.1674C49.6483 27.6943 50.2904 27.4792 51.061 27.4792C51.2608 27.4802 51.4606 27.4802 51.6604 27.4792C51.7028 27.472 51.7463 27.472 51.7887 27.4792C51.9293 27.5288 52.0723 27.5718 52.2167 27.6082C52.3036 27.6376 52.3768 27.6971 52.424 27.7758C52.4708 27.8547 52.4886 27.9477 52.4736 28.0384L52.2594 29.1137C52.2167 29.3288 51.9597 29.4578 51.7459 29.4148L51.489 29.3288C51.4466 29.336 51.4031 29.336 51.3607 29.3288C51.305 29.3093 51.2475 29.2949 51.1894 29.2857H50.9753C50.4188 29.2857 49.948 29.5008 49.6055 29.9309L49.0918 30.8342C48.8778 31.2644 48.7494 31.6515 48.6209 32.0816V38.1894C48.6209 38.2921 48.5804 38.3906 48.5081 38.4632C48.4359 38.5358 48.3378 38.5765 48.2357 38.5765H47.0799C46.9777 38.5765 46.8797 38.5358 46.8075 38.4632C46.7352 38.3906 46.6946 38.2921 46.6946 38.1894V28.0814C46.6946 27.9787 46.7352 27.8802 46.8075 27.8076C46.8797 27.735 46.9777 27.6943 47.0799 27.6943H48.1073C48.2094 27.6943 48.3074 27.735 48.3797 27.8076C48.4519 27.8802 48.4925 27.9787 48.4925 28.0814L48.5353 28.7696C48.6638 28.5115 48.8778 28.3395 49.049 28.1674ZM47.8076 30.3611L47.722 28.4685H47.4651V37.8023H47.8504V32.0386C47.8611 32.0082 47.8754 31.9793 47.8932 31.9525C47.9788 31.5224 48.1073 31.1783 48.2785 30.7482C48.0645 30.7912 47.8076 30.6622 47.8076 30.3611ZM51.5745 28.2534C51.5602 28.2392 51.5458 28.2249 51.5318 28.2104L51.6604 27.8663V28.2534C51.6317 28.2535 51.6033 28.2535 51.5745 28.2534C51.4035 28.2555 51.2321 28.2555 51.061 28.2534C50.6304 28.2444 50.2059 28.3564 49.8353 28.5767C49.4647 28.7972 49.1627 29.1172 48.9634 29.5008L49.0062 29.4578C49.2702 29.1159 49.6182 28.8489 50.016 28.683C50.4137 28.5171 50.8476 28.458 51.2748 28.5115L51.5318 28.5545H51.5745L51.7032 27.9093L52.0884 27.9954L51.9597 28.3395L51.7459 28.2965C51.7172 28.2822 51.6888 28.2679 51.6604 28.2534H51.5745ZM41.9858 35.6947C41.9858 36.2108 42.0714 36.5549 42.2855 36.77C42.4567 36.9851 42.7136 37.0711 43.1416 37.0711L43.7837 36.9421C43.9978 36.899 44.2546 36.77 44.4686 36.641C44.5545 36.5924 44.6555 36.5788 44.751 36.6028C44.8466 36.6268 44.9293 36.6866 44.9823 36.77L45.496 37.5443C45.5816 37.7593 45.5388 38.0174 45.3248 38.1034L45.1964 38.1894L45.0679 38.2324C44.803 38.3614 44.5315 38.4763 44.2546 38.5765C43.8693 38.7056 43.4841 38.7486 42.9704 38.7486C42.1143 38.7486 41.4293 38.5335 40.9156 37.9744C40.402 37.4582 40.1451 36.727 40.1451 35.7377V29.3288H38.7753C38.6731 29.3288 38.5751 29.288 38.5029 29.2154C38.4306 29.1428 38.39 29.0443 38.39 28.9416V28.0814C38.39 27.9787 38.4306 27.8802 38.5029 27.8076C38.5751 27.735 38.6731 27.6943 38.7753 27.6943H40.1451V25.6296C40.1544 25.5416 40.1935 25.4594 40.2558 25.3967C40.3181 25.3341 40.3999 25.2949 40.4876 25.2855L41.5578 25.1135C41.8146 25.1135 41.9858 25.2855 41.9858 25.5006V27.6943H44.2546C44.5115 27.6943 44.6827 27.9093 44.6399 28.1244L44.5115 29.0277C44.4917 29.1148 44.4426 29.1924 44.3723 29.2473C44.3021 29.3022 44.2151 29.331 44.1262 29.3288H41.9858V35.6947ZM44.0406 37.6733C43.7409 37.8023 43.4413 37.8453 43.1416 37.8453C42.4995 37.8453 42.0286 37.6733 41.6862 37.2862C41.3437 36.899 41.2153 36.3829 41.2153 35.6947V28.9416C41.2153 28.839 41.2559 28.7405 41.3281 28.6679C41.4004 28.5953 41.4984 28.5545 41.6006 28.5545H43.7837L43.8265 28.4685H41.6006C41.4984 28.4685 41.4004 28.4277 41.3281 28.3551C41.2559 28.2825 41.2153 28.184 41.2153 28.0814V25.9737H40.9156V28.0814C40.9156 28.184 40.8751 28.2825 40.8028 28.3551C40.7305 28.4277 40.6326 28.4685 40.5304 28.4685H39.1606V28.5545H40.5304C40.6326 28.5545 40.7305 28.5953 40.8028 28.6679C40.8751 28.7405 40.9156 28.839 40.9156 28.9416V35.7377C40.9156 36.5119 41.0869 37.0711 41.4293 37.4582C41.8146 37.8023 42.2855 37.9744 42.9704 37.9744C43.3985 37.9744 43.7409 37.9314 43.9978 37.8453C44.012 37.8445 44.0263 37.8445 44.0406 37.8453L44.4686 37.6733C44.5118 37.6452 44.5546 37.6165 44.5971 37.5873L44.5115 37.5012L44.0406 37.6733ZM33.9809 27.4792C35.236 27.449 36.4622 27.8598 37.4483 28.6405C37.5242 28.7002 37.5751 28.7863 37.591 28.8819C37.6068 28.9775 37.5865 29.0755 37.5339 29.1567L37.0202 29.8879C36.8917 30.06 36.6777 30.103 36.4637 29.974C36.1641 29.7159 35.8216 29.5438 35.3507 29.3288C34.9226 29.1997 34.4945 29.1137 34.0665 29.1137C33.4672 29.1137 32.9535 29.2427 32.6539 29.5008C32.3542 29.7159 32.183 30.017 32.183 30.4041C32.183 30.7912 32.3114 31.0493 32.6111 31.2213C32.6264 31.2345 32.6407 31.2489 32.6539 31.2644C32.9107 31.5224 33.51 31.7375 34.3661 31.9525C35.1795 32.1676 35.8216 32.3827 36.3353 32.6838C36.8917 32.9849 37.277 33.329 37.5339 33.8021C37.7907 34.2753 37.962 34.8344 37.962 35.4366C37.962 36.1678 37.7479 36.813 37.3198 37.3292C36.9346 37.8023 36.4209 38.1894 35.8644 38.4475C34.4936 38.9363 32.9972 38.9363 31.6265 38.4475C30.9415 38.1894 30.3851 37.8453 29.9142 37.4582C29.7858 37.2862 29.7429 37.0281 29.9142 36.899L30.5563 36.1678C30.5923 36.1301 30.6355 36.1001 30.6833 36.0795C30.7311 36.059 30.7825 36.0485 30.8345 36.0485C30.8865 36.0485 30.938 36.059 30.9858 36.0795C31.0336 36.1001 31.0768 36.1301 31.1128 36.1678C31.4553 36.4689 31.8833 36.727 32.3114 36.899C32.7395 37.0281 33.2532 37.1141 33.8097 37.1141C34.4517 37.1141 35.0083 36.9851 35.3935 36.727C35.7788 36.4259 35.95 36.0818 35.95 35.6087C35.95 35.2215 35.9072 34.9634 35.7788 34.8344C35.6504 34.6194 35.4363 34.4043 35.0938 34.2322C34.7514 34.0602 34.2377 33.8881 33.5528 33.6731C32.3542 33.372 31.5837 32.9849 31.0272 32.5117C30.753 32.2548 30.5381 31.9407 30.3976 31.5915C30.2571 31.2422 30.1944 30.8663 30.2139 30.4901C30.2139 29.8879 30.3851 29.3718 30.7275 28.8986C31.1556 28.4255 31.5837 28.0814 32.0973 27.8663C32.6539 27.6082 33.2959 27.4792 33.9809 27.4792ZM35.5647 28.4685C34.5448 28.1317 33.4399 28.1621 32.4398 28.5545C32.0118 28.7266 31.6693 28.9846 31.3268 29.3718C31.07 29.6729 30.9844 30.06 30.9844 30.4901C30.9844 31.0923 31.1556 31.5654 31.5408 31.9095C31.9689 32.3397 32.6966 32.6408 33.724 32.9419C34.4945 33.1569 35.0511 33.329 35.4363 33.544C35.9072 33.8021 36.2069 34.0602 36.4209 34.3613C36.6349 34.7054 36.7205 35.0925 36.7205 35.6087C36.7205 36.3399 36.4209 36.899 35.8644 37.3292C35.8501 37.33 35.8358 37.33 35.8216 37.3292C35.3079 37.7163 34.623 37.8883 33.8097 37.8883C33.1675 37.8883 32.5682 37.8023 32.0546 37.5873C31.6265 37.4582 31.2412 37.2432 30.8987 36.9851L30.7703 37.1141C31.07 37.3722 31.4553 37.5443 31.8833 37.7163C33.0749 38.136 34.3731 38.136 35.5647 37.7163C35.9928 37.5443 36.4209 37.2432 36.7205 36.813C37.0202 36.4689 37.1914 35.9958 37.1914 35.4366C37.1914 34.9634 37.063 34.5333 36.849 34.1892C36.6777 33.8451 36.4209 33.587 35.95 33.329C35.5219 33.1139 34.9226 32.8989 34.1949 32.7268C33.2532 32.4687 32.5682 32.2106 32.1401 31.8665C31.6693 31.5224 31.4125 31.0063 31.4125 30.4041C31.4125 29.7589 31.7121 29.2427 32.183 28.8556C32.6539 28.5115 33.2959 28.3395 34.0665 28.3395C34.5802 28.3395 35.0938 28.4255 35.6076 28.5975C35.6218 28.5968 35.6361 28.5968 35.6504 28.5975L36.6349 29.1137L36.6777 29.0707C36.2497 28.7696 35.9072 28.5975 35.5647 28.4685ZM19.2124 38.4045C19.1871 38.4767 19.1411 38.5398 19.0801 38.5857C19.0192 38.6317 18.946 38.6584 18.8699 38.6626H17.5857C17.2861 38.6626 17.1148 38.4045 17.2004 38.1894L21.952 23.8661C21.9798 23.7869 22.0323 23.719 22.1018 23.6724C22.1713 23.6259 22.2539 23.6033 22.3373 23.608H23.9212C24.0045 23.6033 24.0872 23.6259 24.1567 23.6724C24.2262 23.719 24.2787 23.7869 24.3064 23.8661L29.1008 38.1894C29.1865 38.4045 29.0152 38.6626 28.7584 38.6626H27.4314C27.348 38.6673 27.2653 38.6447 27.1958 38.5982C27.1264 38.5516 27.0738 38.4837 27.0461 38.4045L25.5478 33.8881H20.6678L19.2124 38.4045ZM28.2019 37.8883L23.6643 24.3823H22.5941L18.0994 37.8883H18.5703L20.0257 33.372C20.0534 33.2928 20.106 33.2248 20.1755 33.1783C20.245 33.1317 20.3276 33.1092 20.411 33.1139H25.8475C25.9236 33.1181 25.9967 33.1448 26.0577 33.1908C26.1186 33.2367 26.1647 33.2998 26.1899 33.372L27.6882 37.8883H28.2019Z" fill="#131313"/>
</g>
</svg>
