<svg width="112" height="62" viewBox="0 0 112 62" fill="none" xmlns="http://www.w3.org/2000/svg">
<mask id="mask0_11122_50383" style="mask-type:luminance" maskUnits="userSpaceOnUse" x="24" y="13" width="64" height="35">
<path d="M88 13.585H24V47.585H88V13.585Z" fill="white"/>
</mask>
<g mask="url(#mask0_11122_50383)">
<path d="M40.6797 27.4221C40.7683 27.3384 40.9228 27.3985 40.9578 27.5072C40.9753 27.5724 40.9421 27.633 40.9044 27.6833C41.0528 27.7003 41.2021 27.7355 41.3316 27.813C41.3679 27.8329 41.4022 27.8622 41.4458 27.8643C41.5794 27.8794 41.7148 27.9176 41.8243 27.9983C41.9359 28.0798 41.9915 28.2369 41.9368 28.3678C41.8755 28.5174 41.7226 28.6091 41.5703 28.64C41.4826 28.6485 41.5085 28.7576 41.4963 28.8196C41.16 28.7457 40.8133 28.737 40.4707 28.7587C40.3385 28.7683 40.209 28.8038 40.0763 28.8063C40.0731 28.7587 40.0704 28.7116 40.0686 28.6645C39.9929 28.6306 39.9068 28.6256 39.8364 28.5796C39.7226 28.5165 39.6158 28.4023 39.6206 28.2637C39.6131 28.1514 39.6794 28.0464 39.7694 27.9851C39.8759 27.9107 40.0061 27.8798 40.1331 27.8638C40.1708 27.8627 40.2006 27.8373 40.2317 27.819C40.3642 27.7327 40.523 27.7057 40.6761 27.6817C40.6002 27.6156 40.5891 27.4802 40.6797 27.4221ZM40.2822 28.067C40.2281 28.161 40.2331 28.2955 40.3119 28.3749C40.403 28.4771 40.5384 28.5245 40.6711 28.5389C40.6784 28.4435 40.6227 28.3577 40.6236 28.2626C40.608 28.1296 40.6445 28.0011 40.6784 27.8746C40.5273 27.8743 40.3733 27.9441 40.2822 28.067ZM40.884 27.8785C40.9851 28.0866 40.9819 28.347 40.8635 28.5474C41.0335 28.5313 41.2266 28.465 41.3109 28.3037C41.3438 28.2159 41.3334 28.1054 41.2659 28.0361C41.1709 27.9306 41.0255 27.8679 40.884 27.8785ZM39.8021 28.1873C39.7862 28.2694 39.783 28.3696 39.8509 28.4302C39.9321 28.5183 40.057 28.5311 40.1692 28.5378C40.1704 28.5229 40.1727 28.4929 40.1738 28.4778C40.0888 28.4245 40.0095 28.3426 40.002 28.2372C39.9927 28.1573 40.035 28.0862 40.0616 28.0143C39.9582 28.0294 39.8378 28.0793 39.8021 28.1873ZM41.5163 28.0141C41.5556 28.1049 41.6001 28.2063 41.5585 28.3053C41.5167 28.4179 41.4038 28.4707 41.3082 28.5279C41.4461 28.5327 41.6044 28.5403 41.7126 28.4373C41.7868 28.3801 41.7957 28.276 41.7753 28.191C41.738 28.0823 41.6221 28.0276 41.5163 28.0141Z" fill="white"/>
<path d="M42.111 28.8862C42.4695 28.9475 42.7871 29.2108 42.9205 29.5514C42.9669 29.6701 43.0078 29.7946 43.0096 29.9236C43.013 29.9231 43.0198 29.9222 43.0232 29.9218C42.9882 29.5583 43.3292 29.1874 43.6975 29.2485C43.4612 29.4032 43.3233 29.6667 43.2493 29.9336C43.0861 30.5403 42.9737 31.1603 42.8964 31.7839C42.8403 32.2295 42.7837 32.698 42.9407 33.1301C43.0577 32.908 43.2281 32.7103 43.4517 32.5925C43.4767 32.579 43.5055 32.577 43.5332 32.5717C43.3567 32.833 43.2345 33.1274 43.1566 33.4328C43.2995 33.2591 43.4549 33.0704 43.6768 33.0018C43.5889 33.161 43.4899 33.3159 43.4274 33.4881C43.3826 33.6119 43.3263 33.7366 43.3179 33.8695C43.441 33.6572 43.623 33.4625 43.8572 33.3792C43.7064 33.6393 43.5639 33.9127 43.5019 34.2094C43.5971 34.3833 43.7132 34.5466 43.7947 34.7282C43.8545 34.8573 43.9061 35.003 43.8709 35.1464C43.8652 35.2846 43.8072 35.4145 43.733 35.5287C43.6007 35.7227 43.3574 35.8208 43.1279 35.7972C42.7329 35.7622 42.3646 35.4843 42.2273 35.1087C42.1469 35.094 42.0869 35.1656 42.0422 35.2226C41.8216 35.5234 41.7807 35.9183 41.8291 36.2795C41.8625 36.46 42.0004 36.6546 42.2008 36.6462C42.2673 36.5572 42.3169 36.4574 42.3807 36.3666C42.4459 36.5297 42.4418 36.7118 42.4311 36.8845C42.4041 37.1126 42.3089 37.3258 42.186 37.5173C42.0688 37.7149 41.9229 37.9087 41.8931 38.1434C41.8677 38.2777 41.8659 38.4175 41.8141 38.5456C41.7646 38.4948 41.7103 38.4211 41.6287 38.4509C41.5301 38.4877 41.4751 38.5893 41.436 38.6817C41.3617 38.8457 41.3374 39.0337 41.2266 39.1801C41.2007 39.2115 41.1739 39.2518 41.1291 39.2545C41.0105 39.2755 40.891 39.2902 40.7731 39.3147C40.7574 39.386 40.739 39.4567 40.7202 39.5276C40.6895 39.5068 40.6586 39.4867 40.6281 39.4663C40.5675 39.2389 40.5468 38.9912 40.6175 38.764C40.6193 38.7517 40.6229 38.727 40.6247 38.7146C40.5947 38.7581 40.562 38.8022 40.5498 38.8546C40.5423 38.9255 40.5479 38.9974 40.5479 39.069L40.5259 39.0658C40.5652 39.1053 40.5284 39.1721 40.532 39.2225C40.4775 39.2264 40.4169 39.2163 40.3701 39.2508C40.3053 39.2808 40.2983 39.3584 40.2683 39.4155C40.2453 39.3924 40.2185 39.3703 40.2147 39.3359C40.1542 39.1063 40.1867 38.864 40.2565 38.641C40.2617 38.6119 40.2644 38.5831 40.2651 38.5545C40.2537 38.5604 40.2306 38.5728 40.2192 38.579C40.1724 38.7402 40.1769 38.9143 40.1117 39.0703C40.0413 39.0401 40.0315 38.912 39.9363 38.9546C39.9077 38.9967 39.8843 39.0422 39.858 39.0859C39.8159 39.0717 39.8271 39.0228 39.8191 38.9894C39.8121 38.9001 39.7887 38.8 39.843 38.7208C39.9157 38.5989 39.9806 38.4705 40.0754 38.3642C40.0963 38.3408 40.1129 38.3138 40.1254 38.2855C40.0488 38.2987 40.0156 38.3811 39.9632 38.4303C39.9282 38.4596 39.9082 38.5215 39.8614 38.5282C39.8384 38.4742 39.8316 38.4152 39.8225 38.3582C39.7732 38.3369 39.7189 38.3376 39.6667 38.3365C39.6496 38.2713 39.6905 38.2038 39.7466 38.1731C39.8112 38.1544 39.8902 38.1656 39.9402 38.1112C39.9981 38.0622 40.0434 37.976 40.1299 37.981C40.2812 37.9837 40.3891 38.1029 40.5161 38.1683C40.6197 38.2278 40.754 38.2232 40.8585 38.1681C40.9803 38.1066 41.0753 38.0043 41.1591 37.8984C41.3227 37.6955 41.4465 37.4644 41.5705 37.2359C41.5867 37.2062 41.5973 37.1741 41.6069 37.1419C41.5421 37.1305 41.4765 37.1291 41.4113 37.1259C41.3804 37.1833 41.3497 37.2428 41.3006 37.2872C41.2459 37.3407 41.1673 37.3535 41.0977 37.378C41.0891 37.2673 41.1118 37.1558 41.0923 37.0458C41.0646 36.8095 40.9003 36.6231 40.8363 36.3984C40.7401 36.0839 40.7533 35.7497 40.762 35.4241C40.7597 35.2555 40.8035 35.0849 40.7776 34.9181C40.4564 34.5908 40.1774 34.1911 39.7441 34.0047C39.6058 33.9431 39.4477 33.9257 39.3002 33.9582C39.2096 33.9777 39.1362 34.0525 39.1166 34.1428C39.0832 34.2783 39.2096 34.3874 39.3241 34.4276C39.2988 34.5011 39.2459 34.5823 39.1668 34.6075C39.0637 34.6541 38.9458 34.6731 38.8354 34.6445C38.7838 34.6269 38.7368 34.5994 38.687 34.5784C38.6048 34.6683 38.5246 34.7694 38.5037 34.8934C38.4853 35.0389 38.5075 35.1851 38.5082 35.3308C38.51 35.4477 38.4578 35.5609 38.3771 35.6433C38.3712 35.6424 38.3596 35.6403 38.3537 35.6394C38.3453 35.592 38.3396 35.5445 38.3312 35.4976C38.2388 35.4845 38.1474 35.46 38.0704 35.4049C37.9841 35.5406 37.9148 35.7247 37.7442 35.7686C37.6853 35.7604 37.6406 35.7185 37.5869 35.6998C37.5202 35.7263 37.479 35.7975 37.4209 35.8398C37.3791 35.6867 37.4236 35.5307 37.4231 35.3756C37.4191 35.3493 37.4393 35.3308 37.454 35.313C37.5256 35.2333 37.6042 35.1599 37.6733 35.078C37.6703 35.051 37.6562 35.0032 37.6201 35.022C37.5358 35.0965 37.4609 35.1821 37.3743 35.2544C37.3475 35.2901 37.3134 35.2503 37.2875 35.2375C37.2818 35.1874 37.2668 35.1087 37.2019 35.1119C37.1682 35.1327 37.1389 35.1611 37.1014 35.1757C37.0819 35.011 37.1751 34.8609 37.2623 34.7301C37.2911 34.6784 37.3532 34.6768 37.4043 34.6667C37.4786 34.6845 37.5533 34.7026 37.6294 34.7131C37.6288 34.6983 37.6276 34.6685 37.6272 34.6537C37.522 34.6164 37.41 34.612 37.3032 34.5848C37.3073 34.5139 37.3134 34.443 37.3093 34.3723C37.265 34.3476 37.2123 34.3444 37.1653 34.3272C37.1803 34.2856 37.1971 34.2451 37.2166 34.2058C37.3454 34.1758 37.4729 34.1133 37.6074 34.1264C37.708 34.1609 37.7612 34.2652 37.825 34.3444C37.8866 34.3435 37.9386 34.3094 37.9829 34.2693C38.1663 34.1088 38.3092 33.9086 38.4491 33.7105C38.4837 33.6526 38.5352 33.6002 38.5396 33.5295C38.373 33.4378 38.2224 33.3108 38.1193 33.1491C38.0781 33.0812 38.0338 33.0109 38.0272 32.9295C38.2608 32.8659 38.4394 32.6831 38.5832 32.4958C38.8011 32.2158 38.9687 31.8982 39.2077 31.6347C39.3665 31.456 39.5681 31.3069 39.8009 31.2456C39.9786 31.1927 40.1713 31.1886 40.338 31.1012C40.5023 31.0107 40.5784 30.8112 40.5775 30.6302C40.4868 30.6275 40.3855 30.6488 40.3296 30.7272C40.2699 30.7993 40.2705 30.8965 40.2576 30.9843C40.0461 30.7867 39.999 30.4486 40.0995 30.1844C40.1238 30.2427 40.1556 30.3026 40.2199 30.3235C40.2914 30.3488 40.4119 30.3447 40.4282 30.25C40.4662 30.0686 40.4598 29.855 40.3294 29.7104C40.2976 29.6742 40.2496 29.6175 40.1972 29.6523C40.0897 29.6987 40.0706 29.8252 40.0009 29.9053C39.8802 29.7516 39.8289 29.5534 39.8309 29.3601C39.8334 29.3311 39.8405 29.2938 39.8716 29.2831C39.9416 29.2531 40.0165 29.2366 40.0861 29.2055C39.9975 29.1648 39.8911 29.1966 39.7966 29.1735C39.8112 29.1307 39.8128 29.0666 39.8686 29.0589C40.2424 28.9644 40.6295 28.8811 41.0169 28.926C41.3006 28.9573 41.5794 29.0948 41.7509 29.3293C42.0042 29.6665 42.0658 30.1032 42.0879 30.514C42.0195 30.5168 41.9515 30.5168 41.8836 30.5145C41.9056 30.7075 41.9586 30.9013 41.9211 31.0969C41.9097 31.3348 41.8752 31.572 41.89 31.8109C41.8845 31.8422 41.9129 31.9042 41.86 31.9019C41.8504 31.8932 41.8314 31.8761 41.8216 31.8676C41.8329 31.8653 41.8557 31.8607 41.867 31.8587C41.877 31.7221 41.8682 31.5839 41.8686 31.4469C41.8609 31.5791 41.875 31.7125 41.8627 31.844C41.8018 31.8754 41.7705 31.8006 41.7339 31.769C41.6973 31.8056 41.7098 31.8603 41.6998 31.9065C41.641 32.2846 41.4563 32.6497 41.1625 32.897C41.1509 32.9233 41.1779 32.9389 41.1929 32.9563C41.3579 33.1125 41.5187 33.2729 41.6789 33.4341C41.9543 33.7148 42.2544 33.9921 42.4134 34.3611C42.5456 34.6205 42.6879 34.8783 42.8771 35.1007C42.9612 35.1899 43.0616 35.3004 43.1963 35.2844C43.3031 35.296 43.3699 35.1913 43.4069 35.1057C43.4478 34.9545 43.3638 34.8131 43.2988 34.6832C43.1039 34.3279 42.8558 34.0051 42.6606 33.6499C42.4482 33.2836 42.2796 32.8785 42.2626 32.45C42.2719 32.1416 42.3314 31.8381 42.3841 31.535C42.4423 31.2154 42.4993 30.8954 42.5322 30.5721C42.5318 30.3585 42.5722 30.1453 42.5402 29.932C42.5313 29.548 42.398 29.1501 42.111 28.8862ZM40.4821 29.1385C40.483 29.2195 40.483 29.3007 40.4811 29.3821C40.5259 29.3766 40.5695 29.3643 40.6109 29.3457C40.7354 29.2913 40.8676 29.2551 40.9896 29.1948C40.9969 29.1572 40.9505 29.1618 40.9287 29.1515C40.7817 29.1222 40.6306 29.1382 40.4821 29.1385Z" fill="white"/>
<path d="M39.3009 30.0137C39.3302 29.9352 39.3715 29.8481 39.4552 29.8174C39.4231 29.9087 39.3856 30.0071 39.4177 30.1043C39.4606 30.1649 39.5415 30.1576 39.6062 30.1507C39.7646 30.1217 39.9109 30.0524 40.0602 29.9942C40.1476 29.959 40.2508 29.9663 40.3355 30.0061C40.2487 30.0212 40.1622 30.0441 40.0883 30.0942C39.9377 30.1912 39.8239 30.3447 39.6517 30.4072C39.5506 30.4447 39.4206 30.4479 39.3404 30.3648C39.2557 30.2699 39.2591 30.1272 39.3009 30.0137Z" fill="white"/>
<path d="M38.0807 30.2109C38.1711 30.2413 38.2333 30.3283 38.2695 30.414C38.3333 30.6794 38.2188 30.9487 38.2635 31.2154C38.3347 31.5357 38.6968 31.677 38.7745 31.9939C38.7681 32.0353 38.7363 32.0673 38.7161 32.1028C38.6055 32.2661 38.5132 32.4489 38.3603 32.5774C38.1863 32.3649 38.0273 32.1403 37.8505 31.9303C37.8423 31.9296 37.8257 31.9278 37.8176 31.9268C37.7542 31.9957 37.7187 32.0851 37.6583 32.1563C37.619 32.1849 37.5654 32.1764 37.5197 32.1776C37.4282 32.1691 37.3152 32.1718 37.2566 32.0867C37.3732 31.9895 37.4743 31.8525 37.4686 31.6928C37.4872 31.4453 37.35 31.2271 37.2196 31.0301C37.173 30.9514 37.1087 30.8864 37.0485 30.8187C37.1721 30.7789 37.3134 30.722 37.4404 30.7791C37.5113 30.8565 37.5756 30.9402 37.6435 31.0205C37.6551 31.02 37.6781 31.0193 37.6894 31.0189C37.6878 30.9834 37.686 30.9482 37.684 30.9134C37.6256 30.8457 37.5913 30.7618 37.5422 30.6879C37.46 30.5669 37.509 30.4138 37.4825 30.2786C37.6265 30.3138 37.7612 30.393 37.8653 30.4991C37.9598 30.5971 37.9148 30.7595 38.0127 30.8535C38.0173 30.7524 38.0057 30.6517 37.9932 30.5518C37.9943 30.4314 38.0875 30.3337 38.0807 30.2109Z" fill="white"/>
<path d="M39.916 34.4378C40.0903 34.3996 40.2507 34.5115 40.3797 34.6158C40.3663 34.6929 40.362 34.7711 40.3684 34.8494C40.3743 34.7794 40.372 34.7089 40.3795 34.6394C40.4009 34.7164 40.3647 34.8009 40.3988 34.877C40.4604 35.0129 40.6135 35.0751 40.6842 35.203C40.6871 35.3268 40.6733 35.4505 40.6596 35.5736C40.5688 35.5162 40.4522 35.4464 40.3452 35.5041C40.2518 35.5407 40.2268 35.6493 40.1975 35.7351C40.1616 35.9396 40.2411 36.1414 40.3286 36.3221C40.4563 36.5651 40.6224 36.789 40.8212 36.9775C40.7151 37.1191 40.5635 37.2422 40.3809 37.252C40.1841 37.2589 39.9765 37.2587 39.7979 37.3534C39.695 37.4236 39.6309 37.5428 39.5098 37.5883C39.4955 37.5373 39.4903 37.4849 39.4816 37.4332C39.4651 37.3831 39.4278 37.3449 39.396 37.3051C39.2815 37.3092 39.1863 37.3843 39.1268 37.4783C39.0625 37.5762 38.9496 37.6814 38.8237 37.6405C38.7726 37.6203 38.7178 37.6183 38.6642 37.6256C38.6449 37.6848 38.6269 37.7443 38.6083 37.804C38.4979 37.7208 38.4965 37.5643 38.5265 37.4412C38.5427 37.3172 38.5926 37.2008 38.6051 37.0766C38.5915 37.0766 38.5638 37.0766 38.5502 37.0766C38.5136 37.1868 38.5068 37.3111 38.4338 37.4055C38.3861 37.3584 38.3398 37.3099 38.2966 37.2587C38.2425 37.2886 38.1951 37.3321 38.1335 37.3463C38.1205 37.1919 38.2062 37.0553 38.2925 36.9359C38.3554 36.8478 38.4166 36.7513 38.42 36.6394C38.3216 36.7289 38.2453 36.8389 38.1519 36.9334C38.1401 36.848 38.1112 36.7668 38.0685 36.6925C38.0178 36.69 37.9676 36.6879 37.9172 36.6856C37.9454 36.5989 37.9967 36.515 38.0799 36.4724C38.205 36.4024 38.3561 36.4168 38.4904 36.4482C38.4902 36.4219 38.4902 36.396 38.4904 36.3704C38.4002 36.3475 38.3116 36.3203 38.223 36.2938C38.2373 36.234 38.2743 36.1769 38.2625 36.1135C38.2448 36.0684 38.2171 36.0288 38.1937 35.9872C38.3359 35.9657 38.4818 36.0094 38.5906 36.1034C38.7426 36.2377 38.8319 36.4408 39.0182 36.5356C39.1218 36.5934 39.2433 36.5875 39.3578 36.5882C39.5023 36.587 39.6482 36.5911 39.7915 36.5699C39.8265 36.5344 39.7695 36.4951 39.7509 36.4667C39.5337 36.2347 39.4092 35.9216 39.393 35.6045C39.3901 35.5599 39.3842 35.516 39.376 35.4725C39.2978 35.4567 39.2199 35.4256 39.1665 35.3641C39.0918 35.2767 39.0577 35.1609 39.0459 35.0484C39.2458 35.058 39.4187 34.9283 39.5387 34.7791C39.6493 34.6517 39.7495 34.495 39.916 34.4378Z" fill="white"/>
<path d="M35.4495 14.0064C35.6742 13.973 35.9111 13.9893 36.1181 14.0897C36.4496 14.2377 36.7272 14.5362 36.7944 14.902C36.841 15.201 36.7524 15.5176 36.5613 15.7507C36.5082 15.8173 36.4412 15.8701 36.3819 15.9305C37.4172 16.0314 38.47 16.275 39.3501 16.8568C39.4394 16.9101 39.5142 16.9865 39.6068 17.0336C40.4518 17.129 41.3147 17.3006 42.0505 17.7508C42.3847 17.9603 42.6853 18.2369 42.8839 18.5825C43.0722 18.9067 43.1669 19.2848 43.1495 19.6605C43.1631 19.9492 43.0843 20.2351 42.9566 20.4916C42.7773 20.8612 42.4933 21.1717 42.1684 21.4171C41.8595 21.6482 41.5109 21.8241 41.1454 21.944C41.0516 21.978 40.9527 21.9968 40.8616 22.0387C41.2117 22.075 41.5673 22.1203 41.896 22.2535C41.9219 22.3237 41.929 22.3999 41.9433 22.4733C42.0242 22.9141 42.1051 23.3552 42.1916 23.7949C40.445 23.5695 38.6888 23.4103 36.9278 23.3767C36.5195 23.3501 36.1095 23.3623 35.7003 23.3595C35.3968 23.3618 35.0925 23.3522 34.7897 23.3758C34.1381 23.3785 33.4886 23.4247 32.8381 23.4538C32.3456 23.4963 31.8521 23.5279 31.3602 23.5771C30.6321 23.6489 29.9044 23.7306 29.1803 23.8376C29.1453 23.8415 29.1103 23.8406 29.0756 23.8404C29.1926 23.3181 29.2801 22.7897 29.3809 22.2642C29.5018 22.2045 29.6402 22.1851 29.7703 22.1517C30.0091 22.0961 30.2533 22.0732 30.4946 22.0345C29.9882 21.9151 29.4995 21.6962 29.0872 21.3737C28.6703 21.0463 28.3265 20.5986 28.1993 20.075C28.1434 19.8737 28.1634 19.663 28.1614 19.4566C28.1852 18.9797 28.3995 18.5199 28.7287 18.1788C29.1562 17.729 29.7372 17.4639 30.3229 17.2926C30.7732 17.161 31.2375 17.0846 31.7031 17.0341C31.7478 17.0137 31.7839 16.9792 31.8237 16.9513C32.4128 16.5216 33.1076 16.2645 33.8121 16.1023C34.1799 16.0232 34.5525 15.9664 34.9269 15.9317C34.7454 15.7766 34.5941 15.5766 34.5393 15.3396C34.4657 15.0825 34.4993 14.7956 34.6407 14.568C34.8185 14.2802 35.1191 14.0721 35.4495 14.0064ZM33.1814 17.5339C32.8127 17.8045 32.4916 18.1605 32.3265 18.594C32.2392 18.8008 32.2045 19.0252 32.1945 19.2482C32.1952 19.7607 32.4183 20.2575 32.767 20.6254C33.1073 20.9999 33.5551 21.2586 34.0238 21.4347C34.3787 21.5605 34.7499 21.6406 35.1253 21.6667C34.7949 21.1607 34.6793 20.5503 34.6095 19.9588C34.5686 19.5335 34.5616 19.1046 34.5923 18.6782C34.6427 18.0543 34.7522 17.4163 35.0555 16.8616C34.3898 16.9254 33.7296 17.1423 33.1814 17.5339ZM36.2537 16.8618C36.5068 17.32 36.6197 17.8402 36.6849 18.3561C36.6956 18.5018 36.7231 18.6461 36.7199 18.793C36.7179 19.1432 36.7286 19.4942 36.7115 19.8442C36.6765 20.1303 36.6454 20.4181 36.5743 20.6979C36.4923 21.0369 36.3787 21.3741 36.1828 21.6649C36.5209 21.6523 36.8535 21.5731 37.1752 21.4716C37.6421 21.3169 38.0853 21.0735 38.4416 20.7297C38.7224 20.4584 38.9439 20.1182 39.0468 19.7382C39.1268 19.4457 39.1352 19.1336 39.06 18.839C38.9509 18.3789 38.6631 17.9784 38.308 17.6764C37.7327 17.1921 36.9935 16.9339 36.2537 16.8618ZM30.3201 18.1111C29.9519 18.2854 29.6193 18.5656 29.4441 18.9417C29.2855 19.2842 29.2433 19.6788 29.321 20.0478C29.3966 20.4186 29.6133 20.7523 29.9053 20.988C30.292 21.3021 30.7773 21.467 31.2632 21.5429C31.6856 21.5997 32.1163 21.6129 32.5382 21.5452C32.2688 21.4292 32.0039 21.2993 31.761 21.1325C31.3348 20.8468 30.9656 20.4474 30.7954 19.954C30.5498 19.2519 30.7225 18.4405 31.1737 17.861C30.8779 17.8931 30.59 17.9859 30.3201 18.1111ZM40.136 17.8603C40.4463 18.2685 40.6301 18.779 40.6242 19.2949C40.6308 19.7069 40.4922 20.1159 40.2571 20.4513C40.1362 20.6316 39.9779 20.7807 39.8227 20.9303C39.508 21.1858 39.1511 21.3835 38.7796 21.5418C38.9007 21.5816 39.0298 21.5622 39.1541 21.5827C39.434 21.6065 39.7145 21.5814 39.9926 21.55C40.4063 21.4835 40.8212 21.3737 41.1792 21.1476C41.5282 20.9337 41.8199 20.6078 41.9449 20.2113C42.0426 19.8965 42.0535 19.5539 41.9674 19.235C41.8808 18.8719 41.6543 18.551 41.3558 18.3325C40.9993 18.0717 40.5715 17.9159 40.136 17.8603Z" fill="#DAB42D"/>
<path d="M35.7415 24.5402C35.8701 24.5388 36.0176 24.5354 36.1543 24.537C36.6087 24.547 37.0642 24.5315 37.5179 24.5623C38.5037 24.5786 39.4872 24.6442 40.4696 24.7211C41.8664 24.8369 43.2602 25.0013 44.6445 25.2262C45.1068 27.6968 45.5181 30.1766 45.9406 32.6545C46.1758 34.0646 46.4132 35.4742 46.6463 36.8848C46.6954 37.1737 46.7692 37.4619 46.7626 37.7575C46.7606 37.9096 46.7669 38.0624 46.7551 38.2146C46.6983 38.6391 46.5595 39.0578 46.3194 39.4139C46.0613 39.7951 45.7234 40.1137 45.3602 40.3917C44.7043 40.8808 44.0302 41.344 43.3611 41.8141C41.1766 43.3363 38.9811 44.8422 36.7843 46.3465C36.4851 46.5506 36.1868 46.756 35.8856 46.9566C35.8185 47.0024 35.7531 46.936 35.6988 46.9022C34.1391 45.8696 32.5865 44.8262 31.035 43.7817C29.5785 42.7948 28.1188 41.8127 26.6782 40.803C26.3528 40.5696 26.0184 40.3457 25.7253 40.0707C25.4647 39.8333 25.2291 39.564 25.0517 39.2575C24.8118 38.8313 24.6848 38.3379 24.7068 37.8476C24.6904 37.4903 24.7786 37.1421 24.8397 36.7933C25.5397 32.9631 26.2383 29.1332 26.9487 25.3049C27.0303 25.2788 27.1157 25.2731 27.1998 25.2594C27.673 25.1736 28.149 25.1047 28.6247 25.035L28.634 25.0327C28.6315 25.0519 28.6265 25.0901 28.6238 25.1091C28.2544 27.1187 27.9079 29.1328 27.5626 31.1468C27.1946 33.2964 26.8347 35.4475 26.47 37.5978C26.4142 37.9709 26.4794 38.3786 26.7165 38.6798C26.9939 39.0463 27.3786 39.3067 27.7498 39.567C28.1785 39.8669 28.6134 40.1583 29.0473 40.4505C30.5263 41.4421 32.0133 42.4217 33.4982 43.4044C34.2439 43.8938 34.9845 44.3909 35.7322 44.8772C35.7388 44.8372 35.7463 44.7974 35.7488 44.7573C35.7477 38.3749 35.7486 31.9923 35.7483 25.6096C35.744 25.2566 35.757 24.903 35.7413 24.5504L35.7415 24.5402ZM40.6798 27.4221C40.5891 27.4802 40.6003 27.6156 40.6761 27.6817C40.523 27.7057 40.3642 27.7327 40.2317 27.819C40.2006 27.8373 40.1709 27.8627 40.1331 27.8638C40.0061 27.8798 39.876 27.9107 39.7694 27.9851C39.6794 28.0464 39.6131 28.1514 39.6206 28.2637C39.6158 28.4023 39.7226 28.5165 39.8364 28.5796C39.9069 28.6256 39.993 28.6306 40.0686 28.6645C40.0704 28.7116 40.0732 28.7587 40.0763 28.8063C40.209 28.8038 40.3385 28.7683 40.4708 28.7587C40.8134 28.737 41.1601 28.7457 41.4963 28.8196C41.5086 28.7576 41.4827 28.6485 41.5704 28.64C41.7226 28.6091 41.8755 28.5174 41.9368 28.3678C41.9916 28.2369 41.9359 28.0798 41.8244 27.9983C41.7149 27.9176 41.5795 27.8794 41.4459 27.8643C41.4022 27.8622 41.3679 27.8329 41.3316 27.813C41.2021 27.7355 41.0528 27.7003 40.9045 27.6833C40.9422 27.633 40.9753 27.5724 40.9579 27.5072C40.9229 27.3985 40.7684 27.3384 40.6798 27.4221ZM42.1111 28.8861C42.398 29.1501 42.5314 29.548 42.5402 29.932C42.5723 30.1452 42.5318 30.3585 42.5323 30.5721C42.4994 30.8954 42.4423 31.2154 42.3842 31.535C42.3315 31.8381 42.2719 32.1416 42.2626 32.45C42.2797 32.8785 42.4482 33.2836 42.6607 33.6499C42.8558 34.0051 43.1039 34.3279 43.2988 34.6832C43.3638 34.8131 43.4479 34.9545 43.407 35.1057C43.37 35.1912 43.3032 35.296 43.1964 35.2844C43.0617 35.3004 42.9612 35.1899 42.8772 35.1007C42.6879 34.8783 42.5457 34.6205 42.4135 34.3611C42.2544 33.9921 41.9543 33.7148 41.679 33.4341C41.5188 33.2729 41.3579 33.1125 41.193 32.9563C41.178 32.9389 41.151 32.9233 41.1626 32.897C41.4563 32.6497 41.641 32.2846 41.6999 31.9065C41.7099 31.8603 41.6974 31.8056 41.7339 31.769C41.7705 31.8006 41.8019 31.8754 41.8628 31.844C41.875 31.7125 41.8609 31.5791 41.8687 31.4469C41.8682 31.5839 41.8771 31.7221 41.8671 31.8587C41.8557 31.8607 41.833 31.8653 41.8216 31.8676C41.8314 31.8761 41.8505 31.8932 41.86 31.9019C41.913 31.9042 41.8846 31.8422 41.89 31.8109C41.8753 31.572 41.9098 31.3348 41.9211 31.0969C41.9586 30.9013 41.9057 30.7075 41.8837 30.5145C41.9516 30.5168 42.0195 30.5168 42.0879 30.514C42.0659 30.1032 42.0043 29.6665 41.751 29.3293C41.5795 29.0948 41.3007 28.9573 41.0169 28.926C40.6296 28.8811 40.2424 28.9644 39.8687 29.0589C39.8128 29.0666 39.8112 29.1307 39.7967 29.1735C39.8912 29.1966 39.9975 29.1648 40.0861 29.2055C40.0166 29.2366 39.9416 29.2531 39.8716 29.283C39.8405 29.2938 39.8335 29.3311 39.831 29.3601C39.8289 29.5534 39.8803 29.7516 40.0009 29.9053C40.0707 29.8252 40.0898 29.6987 40.1972 29.6523C40.2497 29.6175 40.2976 29.6742 40.3294 29.7104C40.4598 29.855 40.4662 30.0686 40.4283 30.25C40.4119 30.3447 40.2915 30.3488 40.2199 30.3235C40.1556 30.3026 40.1238 30.2427 40.0995 30.1844C39.9991 30.4486 40.0461 30.7867 40.2576 30.9843C40.2706 30.8965 40.2699 30.7993 40.3297 30.7272C40.3856 30.6487 40.4869 30.6275 40.5775 30.6302C40.5784 30.8112 40.5023 31.0106 40.3381 31.1012C40.1713 31.1886 39.9787 31.1927 39.801 31.2456C39.5681 31.3069 39.3666 31.456 39.2078 31.6347C38.9688 31.8982 38.8011 32.2158 38.5832 32.4958C38.4394 32.6831 38.2609 32.8659 38.0273 32.9295C38.0339 33.0109 38.0782 33.0812 38.1193 33.1491C38.2225 33.3108 38.3731 33.4378 38.5396 33.5295C38.5353 33.6002 38.4837 33.6526 38.4492 33.7105C38.3092 33.9086 38.1663 34.1088 37.983 34.2693C37.9387 34.3094 37.8867 34.3435 37.8251 34.3444C37.7613 34.2652 37.7081 34.1609 37.6075 34.1264C37.473 34.1133 37.3455 34.1758 37.2167 34.2057C37.1971 34.2451 37.1803 34.2856 37.1653 34.3272C37.2124 34.3444 37.2651 34.3476 37.3094 34.3723C37.3135 34.443 37.3073 34.5139 37.3032 34.5848C37.41 34.612 37.522 34.6164 37.6272 34.6537C37.6277 34.6685 37.6288 34.6983 37.6295 34.7131C37.5534 34.7026 37.4786 34.6845 37.4043 34.6667C37.3532 34.6768 37.2912 34.6784 37.2623 34.7301C37.1751 34.8609 37.082 35.011 37.1015 35.1757C37.139 35.1611 37.1683 35.1327 37.2019 35.1119C37.2669 35.1087 37.2819 35.1874 37.2876 35.2375C37.3135 35.2503 37.3475 35.2901 37.3744 35.2544C37.4609 35.1821 37.5359 35.0965 37.6202 35.022C37.6563 35.0032 37.6704 35.051 37.6733 35.078C37.6043 35.1599 37.5257 35.2333 37.4541 35.3129C37.4393 35.3308 37.4191 35.3493 37.4232 35.3756C37.4237 35.5307 37.3791 35.6867 37.4209 35.8398C37.4791 35.7975 37.5202 35.7263 37.587 35.6998C37.6406 35.7185 37.6854 35.7604 37.7442 35.7686C37.9148 35.7247 37.9841 35.5406 38.0705 35.4049C38.1475 35.46 38.2388 35.4845 38.3313 35.4976C38.3397 35.5445 38.3454 35.592 38.3538 35.6394C38.3597 35.6403 38.3713 35.6424 38.3772 35.6433C38.4578 35.5609 38.5101 35.4477 38.5083 35.3308C38.5076 35.1851 38.4853 35.0389 38.5037 34.8934C38.5246 34.7694 38.6048 34.6683 38.6871 34.5784C38.7368 34.5994 38.7839 34.6269 38.8354 34.6445C38.9458 34.6731 39.0638 34.6541 39.1669 34.6075C39.246 34.5823 39.2989 34.5011 39.3241 34.4276C39.2096 34.3874 39.0833 34.2783 39.1167 34.1428C39.1362 34.0525 39.2096 33.9777 39.3003 33.9582C39.4477 33.9257 39.6058 33.9431 39.7442 34.0047C40.1774 34.1911 40.4564 34.5908 40.7777 34.9181C40.8036 35.0849 40.7597 35.2555 40.762 35.4241C40.7534 35.7497 40.7402 36.0839 40.8363 36.3984C40.9004 36.6231 41.0646 36.8095 41.0924 37.0458C41.1119 37.1558 41.0892 37.2673 41.0978 37.378C41.1673 37.3535 41.2459 37.3407 41.3007 37.2872C41.3498 37.2428 41.3804 37.1833 41.4113 37.1259C41.4765 37.1291 41.5422 37.1305 41.6069 37.1419C41.5974 37.1741 41.5867 37.2062 41.5706 37.2359C41.4465 37.4644 41.3227 37.6955 41.1591 37.8984C41.0753 38.0043 40.9803 38.1066 40.8586 38.1681C40.7541 38.2232 40.6198 38.2278 40.5162 38.1683C40.3892 38.1029 40.2813 37.9837 40.13 37.981C40.0434 37.976 39.9982 38.0622 39.9403 38.1112C39.8903 38.1656 39.8112 38.1544 39.7467 38.1731C39.6906 38.2038 39.6497 38.2713 39.6667 38.3365C39.719 38.3376 39.7733 38.3369 39.8226 38.3582C39.8317 38.4152 39.8385 38.4742 39.8614 38.5282C39.9082 38.5215 39.9282 38.4596 39.9632 38.4303C40.0157 38.3811 40.0489 38.2987 40.1254 38.2855C40.1129 38.3138 40.0963 38.3408 40.0754 38.3642C39.9807 38.4705 39.9157 38.5989 39.843 38.7208C39.7887 38.7999 39.8121 38.9001 39.8192 38.9894C39.8271 39.0228 39.816 39.0717 39.858 39.0859C39.8844 39.0422 39.9078 38.9967 39.9364 38.9546C40.0316 38.912 40.0414 39.0401 40.1118 39.0703C40.177 38.9143 40.1725 38.7402 40.2193 38.579C40.2306 38.5728 40.2538 38.5604 40.2651 38.5545C40.2645 38.5831 40.2617 38.6119 40.2565 38.641C40.1868 38.864 40.1543 39.1063 40.2147 39.3359C40.2186 39.3702 40.2454 39.3924 40.2683 39.4155C40.2983 39.3584 40.3054 39.2808 40.3701 39.2508C40.4169 39.2163 40.4776 39.2264 40.5321 39.2225C40.5285 39.1721 40.5653 39.1053 40.526 39.0658L40.548 39.069C40.548 38.9974 40.5423 38.9255 40.5498 38.8546C40.5621 38.8022 40.5948 38.7581 40.6248 38.7146C40.623 38.727 40.6193 38.7517 40.6175 38.764C40.5469 38.9912 40.5675 39.2389 40.6282 39.4663C40.6586 39.4867 40.6895 39.5068 40.7202 39.5276C40.7391 39.4567 40.7575 39.386 40.7731 39.3147C40.8911 39.2902 41.0106 39.2755 41.1292 39.2545C41.1739 39.2518 41.2007 39.2115 41.2266 39.1801C41.3375 39.0337 41.3618 38.8457 41.4361 38.6817C41.4752 38.5893 41.5302 38.4877 41.6288 38.4509C41.7103 38.4211 41.7646 38.4948 41.8141 38.5456C41.8659 38.4175 41.8678 38.2777 41.8932 38.1434C41.923 37.9087 42.0688 37.7149 42.1861 37.5173C42.309 37.3258 42.4042 37.1126 42.4312 36.8845C42.4419 36.7118 42.446 36.5297 42.3808 36.3666C42.3169 36.4574 42.2674 36.5572 42.2008 36.6462C42.0004 36.6546 41.8625 36.46 41.8291 36.2795C41.7807 35.9183 41.8216 35.5234 42.0422 35.2226C42.087 35.1656 42.147 35.094 42.2274 35.1087C42.3646 35.4843 42.7329 35.7622 43.128 35.7972C43.3575 35.8208 43.6008 35.7227 43.733 35.5287C43.8073 35.4145 43.8652 35.2846 43.8709 35.1464C43.9061 35.003 43.8546 34.8573 43.7948 34.7282C43.7132 34.5466 43.5971 34.3833 43.502 34.2094C43.564 33.9127 43.7064 33.6393 43.8573 33.3792C43.623 33.4625 43.4411 33.6572 43.3179 33.8695C43.3263 33.7366 43.3827 33.6119 43.4274 33.4881C43.4899 33.3159 43.589 33.161 43.6769 33.0018C43.4549 33.0704 43.2995 33.2591 43.1566 33.4328C43.2345 33.1274 43.3568 32.833 43.5333 32.5717C43.5056 32.577 43.4767 32.579 43.4517 32.5925C43.2282 32.7103 43.0578 32.908 42.9408 33.1301C42.7838 32.698 42.8404 32.2295 42.8965 31.7839C42.9737 31.1603 43.0862 30.5403 43.2493 29.9336C43.3234 29.6667 43.4613 29.4031 43.6976 29.2485C43.3293 29.1874 42.9883 29.5582 43.0233 29.9217C43.0198 29.9222 43.013 29.9231 43.0096 29.9236C43.0078 29.7946 42.9669 29.6701 42.9206 29.5514C42.7872 29.2108 42.4696 28.9475 42.1111 28.8861ZM39.3009 30.0135C39.2591 30.1269 39.2557 30.2697 39.3405 30.3646C39.4207 30.4477 39.5506 30.4445 39.6517 30.4069C39.8239 30.3445 39.9378 30.191 40.0884 30.094C40.1622 30.0439 40.2488 30.021 40.3356 30.0059C40.2508 29.9661 40.1477 29.9588 40.0602 29.994C39.911 30.0521 39.7646 30.1215 39.6063 30.1505C39.5415 30.1574 39.4607 30.1647 39.4177 30.1041C39.3857 30.0068 39.4232 29.9085 39.4552 29.8172C39.3716 29.8479 39.3302 29.935 39.3009 30.0135ZM38.0807 30.2109C38.0875 30.3337 37.9944 30.4314 37.9932 30.5518C38.0057 30.6517 38.0173 30.7524 38.0128 30.8535C37.9148 30.7595 37.9598 30.597 37.8653 30.4991C37.7613 30.393 37.6265 30.3138 37.4825 30.2786C37.5091 30.4138 37.46 30.5669 37.5422 30.6879C37.5913 30.7618 37.6256 30.8457 37.684 30.9134C37.6861 30.9482 37.6879 30.9834 37.6895 31.0189C37.6781 31.0193 37.6552 31.02 37.6436 31.0205C37.5756 30.9402 37.5114 30.8565 37.4405 30.7791C37.3135 30.722 37.1722 30.7789 37.0486 30.8187C37.1088 30.8864 37.1731 30.9514 37.2196 31.0301C37.35 31.2271 37.4873 31.4453 37.4686 31.6928C37.4743 31.8525 37.3732 31.9895 37.2567 32.0867C37.3153 32.1718 37.4282 32.1691 37.5198 32.1776C37.5654 32.1764 37.619 32.1849 37.6583 32.1563C37.7188 32.0851 37.7542 31.9957 37.8176 31.9268C37.8258 31.9277 37.8424 31.9296 37.8505 31.9303C38.0273 32.1403 38.1863 32.3649 38.3604 32.5774C38.5133 32.4489 38.6055 32.2661 38.7161 32.1028C38.7364 32.0673 38.7682 32.0353 38.7745 31.9939C38.6968 31.677 38.3347 31.5357 38.2636 31.2154C38.2188 30.9487 38.3333 30.6794 38.2695 30.414C38.2334 30.3283 38.1711 30.2413 38.0807 30.2109ZM39.9162 34.4377C39.7496 34.4949 39.6495 34.6516 39.5388 34.779C39.4189 34.9282 39.246 35.0579 39.046 35.0483C39.0578 35.1608 39.0919 35.2766 39.1667 35.364C39.2201 35.4255 39.298 35.4566 39.3761 35.4724C39.3843 35.5159 39.3902 35.5598 39.3932 35.6044C39.4093 35.9215 39.5338 36.2346 39.751 36.4666C39.7696 36.495 39.8267 36.5343 39.7917 36.5698C39.6483 36.591 39.5025 36.5869 39.358 36.5881C39.2435 36.5874 39.1219 36.5933 39.0183 36.5354C38.832 36.4407 38.7427 36.2376 38.5907 36.1033C38.4819 36.0093 38.3361 35.9656 38.1938 35.9871C38.2172 36.0287 38.245 36.0683 38.2627 36.1134C38.2745 36.1767 38.2375 36.2339 38.2231 36.2936C38.3117 36.3202 38.4004 36.3474 38.4905 36.3703C38.4903 36.3959 38.4903 36.4218 38.4905 36.4481C38.3563 36.4167 38.2052 36.4023 38.08 36.4723C37.9969 36.5149 37.9455 36.5988 37.9173 36.6855C37.9678 36.6878 38.018 36.6899 38.0687 36.6924C38.1114 36.7667 38.1402 36.8479 38.152 36.9333C38.2454 36.8388 38.3217 36.7287 38.4201 36.6393C38.4167 36.7512 38.3556 36.8477 38.2927 36.9358C38.2063 37.0552 38.1207 37.1918 38.1336 37.3462C38.1952 37.332 38.2427 37.2885 38.2968 37.2586C38.3399 37.3098 38.3863 37.3583 38.434 37.4054C38.5069 37.3109 38.5137 37.1867 38.5503 37.0765C38.5639 37.0765 38.5916 37.0765 38.6053 37.0765C38.5928 37.2007 38.5428 37.3171 38.5267 37.4411C38.4967 37.5642 38.498 37.7207 38.6085 37.8039C38.6271 37.7442 38.645 37.6847 38.6644 37.6255C38.718 37.6182 38.7727 37.6202 38.8238 37.6404C38.9497 37.6813 39.0626 37.5761 39.1269 37.4782C39.1864 37.3841 39.2816 37.3091 39.3961 37.305C39.4279 37.3448 39.4652 37.383 39.4818 37.4331C39.4904 37.4848 39.4956 37.5372 39.51 37.5882C39.6311 37.5427 39.6951 37.4235 39.798 37.3533C39.9766 37.2586 40.1843 37.2588 40.381 37.2519C40.5637 37.2421 40.7152 37.119 40.8213 36.9774C40.6225 36.7889 40.4564 36.565 40.3288 36.322C40.2413 36.1413 40.1618 35.9395 40.1977 35.735C40.227 35.6492 40.252 35.5406 40.3453 35.504C40.4524 35.4463 40.5689 35.5161 40.6598 35.5735C40.6734 35.4504 40.6873 35.3267 40.6843 35.2029C40.6137 35.075 40.4605 35.0128 40.399 34.8769C40.3649 34.8008 40.401 34.7163 40.3797 34.6392C40.3722 34.7088 40.3744 34.7793 40.3685 34.8493C40.3622 34.771 40.3665 34.6928 40.3799 34.6157C40.2508 34.5114 40.0904 34.3995 39.9162 34.4377Z" fill="#DAB42D"/>
<path d="M40.2822 28.0669C40.3733 27.944 40.5273 27.8742 40.6784 27.8745C40.6445 28.001 40.6079 28.1295 40.6236 28.2624C40.6227 28.3576 40.6784 28.4434 40.6711 28.5388C40.5384 28.5244 40.403 28.477 40.3119 28.3748C40.2331 28.2954 40.2281 28.1609 40.2822 28.0669Z" fill="#DAB42D"/>
<path d="M40.884 27.8786C41.0256 27.868 41.171 27.9307 41.2659 28.0362C41.3334 28.1055 41.3439 28.216 41.3109 28.3038C41.2266 28.4651 41.0335 28.5314 40.8636 28.5475C40.982 28.3471 40.9851 28.0867 40.884 27.8786Z" fill="#DAB42D"/>
<path d="M39.8021 28.1872C39.8378 28.0792 39.9582 28.0293 40.0616 28.0142C40.035 28.0861 39.9927 28.1572 40.0021 28.2371C40.0095 28.3425 40.0888 28.4244 40.1738 28.4777C40.1727 28.4928 40.1704 28.5228 40.1693 28.5376C40.057 28.531 39.9321 28.5182 39.851 28.4301C39.783 28.3695 39.7862 28.2693 39.8021 28.1872Z" fill="#DAB42D"/>
<path d="M41.5163 28.0142C41.6221 28.0277 41.738 28.0824 41.7753 28.191C41.7957 28.2761 41.7869 28.3802 41.7126 28.4374C41.6044 28.5404 41.4461 28.5328 41.3082 28.528C41.4038 28.4708 41.5167 28.418 41.5585 28.3054C41.6001 28.2064 41.5556 28.105 41.5163 28.0142Z" fill="#DAB42D"/>
<path d="M31.3904 28.1611C31.6344 28.1636 31.8784 28.1618 32.1224 28.162C32.1267 28.3809 32.1203 28.6001 32.1258 28.8192C32.3132 28.8222 32.5009 28.8156 32.6883 28.8222C32.7006 28.7973 32.7065 28.7712 32.706 28.7437C32.7058 28.5639 32.7038 28.3839 32.7074 28.2041C32.9387 28.2034 33.1697 28.2052 33.401 28.2029C33.4056 28.7321 33.4044 29.2612 33.4017 29.7903C32.291 29.7883 31.1804 29.7896 30.0699 29.7896C30.0695 29.261 30.0672 28.7321 30.0711 28.2034C30.3023 28.2041 30.5336 28.2052 30.7649 28.2027C30.7694 28.3365 30.7667 28.4706 30.7672 28.6046C30.7688 28.6774 30.759 28.7524 30.7829 28.8229C30.9778 28.8156 31.1732 28.8217 31.3683 28.8192C31.4069 28.6021 31.3733 28.3802 31.3904 28.1611Z" fill="#DAB42D"/>
<path d="M40.4821 29.1384C40.6307 29.1381 40.7818 29.1221 40.9288 29.1514C40.9506 29.1617 40.9969 29.1571 40.9897 29.1947C40.8677 29.255 40.7354 29.2912 40.6109 29.3456C40.5696 29.3642 40.526 29.3765 40.4812 29.382C40.483 29.3006 40.483 29.2194 40.4821 29.1384Z" fill="#DAB42D"/>
<path d="M30.6183 30.0573C31.3635 30.0584 32.1087 30.0596 32.8537 30.0566C32.8959 30.241 32.9 30.4322 32.9314 30.6189C33.1472 32.3749 33.3642 34.1308 33.5816 35.8868C33.593 36.0348 33.6286 36.1805 33.6286 36.3297C32.3675 36.3258 31.1061 36.3295 29.845 36.3279C29.8641 36.0364 29.9197 35.7484 29.9454 35.4577C30.1683 33.669 30.3868 31.8794 30.6092 30.0907C30.6115 30.0822 30.6161 30.0655 30.6183 30.0573ZM31.2043 31.881C31.1979 32.0034 31.1856 32.1312 31.2186 32.2513C31.5644 32.2513 31.9101 32.2488 32.2557 32.2525C32.2852 32.1301 32.2705 32.0025 32.27 31.878C32.2634 31.8721 32.2498 31.8599 32.243 31.854C31.9042 31.8503 31.5648 31.8499 31.2261 31.8544C31.2206 31.8611 31.2097 31.8743 31.2043 31.881ZM31.2165 33.1053C31.2202 33.2309 31.217 33.3569 31.2197 33.4828C31.5689 33.4825 31.9183 33.483 32.2675 33.4823C32.2787 33.3572 32.2682 33.2316 32.275 33.1065C32.245 33.0909 32.2119 33.0843 32.1787 33.0866C31.8911 33.0872 31.6037 33.0875 31.316 33.0866C31.2815 33.0838 31.2481 33.092 31.2165 33.1053ZM31.1981 34.3427C31.207 34.4687 31.1815 34.5987 31.2181 34.7215C31.5637 34.7222 31.909 34.7204 32.2546 34.7226C32.29 34.5993 32.2632 34.4699 32.2737 34.3438C32.2439 34.3278 32.2114 34.3193 32.1778 34.3223C31.8899 34.3223 31.6023 34.3225 31.3144 34.3223C31.2745 34.3214 31.2363 34.3328 31.1981 34.3427Z" fill="#DAB42D"/>
<path d="M29.4136 36.6189C30.9612 36.6196 32.5088 36.6171 34.0565 36.6203C34.0578 37.149 34.0565 37.6777 34.0571 38.2063C33.6446 38.2098 33.232 38.2061 32.8194 38.2084C32.8117 38.0704 32.8305 37.9307 32.8005 37.7948C32.0908 37.7971 31.381 37.7941 30.6713 37.7964C30.6679 37.9329 30.6697 38.0695 30.6702 38.2063C30.2512 38.2095 29.8323 38.2068 29.4133 38.2077C29.414 37.6781 29.4136 37.1485 29.4136 36.6189Z" fill="#DAB42D"/>
<path d="M51.3462 24.5556C53.318 24.5554 55.2898 24.5556 57.2616 24.5556C58.441 24.5472 59.626 24.5948 60.7897 24.8006C61.6594 24.9594 62.5302 25.2037 63.2911 25.6688C63.6537 25.8923 63.986 26.1707 64.2518 26.5061C64.4918 26.8044 64.6756 27.147 64.7996 27.5096C64.962 27.9852 65.0202 28.4919 65.0134 28.9931C65.0043 29.4122 64.9439 29.8329 64.8014 30.2282C64.6499 30.6599 64.3993 31.0543 64.0805 31.3803C63.5187 31.9483 62.7817 32.3026 62.0295 32.5385C61.8486 32.5989 61.6619 32.6375 61.4803 32.6938C62.3278 32.8548 63.1747 33.109 63.9036 33.5853C64.2539 33.8168 64.5715 34.1032 64.8187 34.4452C65.0459 34.7529 65.2124 35.1036 65.3226 35.47C65.4612 35.9353 65.5089 36.4242 65.4994 36.9087C65.4891 37.4436 65.411 37.9811 65.227 38.4846C64.9868 39.1604 64.5367 39.7545 63.962 40.1775C63.294 40.6721 62.4977 40.9575 61.6932 41.1323C61.0716 41.2652 60.4377 41.3361 59.8032 41.3663C59.335 41.3947 58.8658 41.3819 58.3971 41.3846C57.1323 41.3846 55.8673 41.3846 54.6025 41.3846C53.5163 41.3819 52.4299 41.3904 51.3439 41.3805C51.3489 35.7722 51.3442 30.1639 51.3462 24.5556ZM55.8317 27.6137C55.8301 28.8666 55.8319 30.1196 55.8307 31.3723C56.1706 31.3729 56.5105 31.3725 56.8506 31.3727C57.4418 31.3658 58.0366 31.4006 58.6234 31.3107C59.0591 31.2444 59.5044 31.1309 59.8655 30.8646C60.1756 30.6404 60.3803 30.2856 60.4459 29.9093C60.5234 29.4806 60.4973 29.0151 60.2858 28.6271C60.0988 28.287 59.773 28.0447 59.4202 27.9008C58.9174 27.6922 58.3687 27.6309 57.8294 27.6137C57.1635 27.6133 56.4976 27.6128 55.8317 27.6137ZM55.8307 34.2805C55.8328 35.6274 55.8282 36.9746 55.833 38.3215C56.3844 38.3179 56.9358 38.3211 57.4872 38.3202C58.097 38.3243 58.7131 38.2959 59.3066 38.1445C59.7073 38.0397 60.111 37.8645 60.385 37.5401C60.6599 37.223 60.7731 36.7964 60.789 36.383C60.8074 35.9811 60.7349 35.5606 60.5048 35.2244C60.2783 34.8888 59.9184 34.6691 59.5426 34.541C58.9421 34.3322 58.3008 34.2926 57.6705 34.28C57.0571 34.2807 56.4439 34.2798 55.8307 34.2805Z" fill="#A42A25"/>
<path d="M67.0762 24.5566C69.4915 24.5543 71.907 24.5564 74.3225 24.5557C75.1036 24.5472 75.8878 24.5726 76.661 24.6948C77.3107 24.7968 77.9544 24.9629 78.5573 25.2308C79.0999 25.4716 79.6083 25.7992 80.0304 26.2204C80.4305 26.6154 80.7461 27.0947 80.9624 27.6144C81.1605 28.0898 81.2782 28.5965 81.3345 29.108C81.4059 29.7545 81.3943 30.4106 81.293 31.0532C81.2155 31.5297 81.0798 31.998 80.8758 32.4356C80.4532 33.354 79.7085 34.1028 78.8288 34.583C78.3495 34.8474 77.8317 35.0375 77.3007 35.1658C76.5874 35.342 75.8512 35.4044 75.1186 35.414C73.9905 35.4147 72.8628 35.4143 71.735 35.4143C71.7336 37.3388 71.7345 39.2634 71.7345 41.1877C71.7329 41.2534 71.7286 41.3193 71.7266 41.3854C70.1771 41.3854 68.6277 41.3826 67.0782 41.3865C67.0696 40.4205 67.0771 39.4539 67.0746 38.4879C67.0757 33.8441 67.0725 29.2004 67.0762 24.5566ZM71.735 27.705C71.7334 29.1714 71.7352 30.638 71.7341 32.1046C72.3775 32.105 73.0209 32.1046 73.6643 32.1048C74.0739 32.1105 74.4858 32.0899 74.8889 32.0105C75.2237 31.9435 75.5561 31.8358 75.8456 31.6493C76.0641 31.5098 76.2527 31.3204 76.3852 31.0957C76.5594 30.8079 76.6421 30.4726 76.6696 30.139C76.695 29.7378 76.675 29.3242 76.5283 28.9458C76.402 28.6068 76.1586 28.314 75.8494 28.1296C75.5539 27.9505 75.2181 27.8514 74.8809 27.7892C74.4418 27.7082 73.994 27.6991 73.5489 27.7048C72.9443 27.7048 72.3395 27.7048 71.735 27.705Z" fill="#A42A25"/>
<path d="M82.9189 24.559C84.4636 24.5508 86.0089 24.5572 87.5538 24.5558C87.5543 29.7341 87.5538 34.9123 87.5541 40.0907C87.5554 40.5206 87.5511 40.9504 87.5561 41.3803C86.011 41.3896 84.4654 41.3823 82.92 41.3839C82.9189 35.7756 82.9214 30.1673 82.9189 24.559Z" fill="#A42A25"/>
</g>
</svg>
