<svg width="72" height="62" viewBox="0 0 72 62" fill="none" xmlns="http://www.w3.org/2000/svg">
<path d="M22.2145 32.2788C22.1477 32.826 22.0076 33.3668 21.794 33.901C21.5803 34.4221 21.2666 34.8912 20.8527 35.3081C20.3187 35.8423 19.6979 36.2528 18.9903 36.5394C18.2827 36.813 17.5485 36.9498 16.7875 36.9498C16.0265 36.9498 15.2989 36.826 14.6047 36.5785C13.9238 36.3309 13.3097 35.94 12.7623 35.4058C12.3751 35.028 12.0614 34.6306 11.8211 34.2137C11.5941 33.7967 11.4205 33.3537 11.3004 32.8847C11.1802 32.4156 11.1001 31.927 11.0601 31.4189C11.02 30.8977 11 30.3505 11 29.7772C11 29.2169 11.02 28.6762 11.0601 28.155C11.1001 27.6339 11.1802 27.1387 11.3004 26.6697C11.4205 26.2006 11.5941 25.7576 11.8211 25.3407C12.0614 24.9238 12.3751 24.5264 12.7623 24.1485C13.3097 23.6143 13.9238 23.2234 14.6047 22.9759C15.2989 22.7153 16.0265 22.585 16.7875 22.585C17.5485 22.585 18.2827 22.7218 18.9903 22.9954C19.6979 23.256 20.3187 23.6534 20.8527 24.1876C21.2666 24.6045 21.5803 25.0736 21.794 25.5948C22.0076 26.1159 22.1477 26.6501 22.2145 27.1974H19.5711C19.5444 26.8977 19.4776 26.6371 19.3708 26.4156C19.264 26.1811 19.1172 25.9531 18.9303 25.7316C18.7033 25.4449 18.3962 25.23 18.0091 25.0866C17.6352 24.9433 17.2281 24.8716 16.7875 24.8716C16.3736 24.8716 15.9731 24.9498 15.5859 25.1062C15.2121 25.2625 14.885 25.4905 14.6047 25.7902C14.3643 26.0378 14.1774 26.3244 14.0439 26.6501C13.9104 26.9759 13.8103 27.3212 13.7435 27.686C13.6901 28.0378 13.6568 28.3961 13.6434 28.7609C13.6301 29.1257 13.6234 29.4645 13.6234 29.7772C13.6234 30.0899 13.6301 30.4286 13.6434 30.7935C13.6568 31.1583 13.6901 31.5231 13.7435 31.8879C13.8103 32.2397 13.9104 32.5785 14.0439 32.9042C14.1774 33.23 14.3643 33.5166 14.6047 33.7642C14.885 34.0638 15.2121 34.2918 15.5859 34.4482C15.9731 34.6045 16.3736 34.6827 16.7875 34.6827C17.2281 34.6827 17.6352 34.6111 18.0091 34.4677C18.3962 34.3114 18.7033 34.0899 18.9303 33.8032C19.3041 33.3602 19.5177 32.8521 19.5711 32.2788H22.2145Z" fill="#616161"/>
<path d="M34.2086 36.5785C33.995 36.6697 33.8081 36.7348 33.6479 36.7739C33.501 36.826 33.2741 36.8521 32.967 36.8521C32.4196 36.8521 31.9991 36.7088 31.7054 36.4221C31.4117 36.1355 31.2448 35.8032 31.2047 35.4254C30.9644 35.8423 30.5639 36.2006 30.0032 36.5003C29.4424 36.8 28.7883 36.9498 28.0406 36.9498C27.4131 36.9498 26.8658 36.8651 26.3985 36.6957C25.9312 36.5133 25.5374 36.2788 25.217 35.9922C24.9099 35.6925 24.6763 35.3537 24.5161 34.9759C24.3559 34.585 24.2758 34.1811 24.2758 33.7642C24.2758 33.2821 24.3625 32.8521 24.5361 32.4743C24.723 32.0964 24.9767 31.7707 25.2971 31.4971C25.6175 31.2234 25.9913 31.015 26.4185 30.8716C26.8457 30.7153 27.3063 30.6176 27.8003 30.5785L30.8643 30.3635V29.7381C30.8643 29.256 30.7441 28.8716 30.5038 28.585C30.2769 28.2853 29.8096 28.1355 29.102 28.1355C28.5146 28.1355 28.054 28.2593 27.7202 28.5068C27.3998 28.7544 27.2262 29.1127 27.1995 29.5817H24.7764C24.8165 29.0085 24.95 28.5133 25.1769 28.0964C25.4172 27.6795 25.731 27.3407 26.1181 27.0801C26.5053 26.8065 26.9526 26.6045 27.4599 26.4743C27.9672 26.344 28.5146 26.2788 29.102 26.2788C29.9965 26.2788 30.7908 26.4352 31.4851 26.7479C32.1927 27.0475 32.7 27.5817 33.007 28.3505C33.1406 28.6762 33.2207 29.015 33.2474 29.3668C33.2874 29.7186 33.3074 30.0638 33.3074 30.4026V34.1746C33.3074 34.4091 33.3475 34.5785 33.4276 34.6827C33.521 34.7739 33.6746 34.8195 33.8882 34.8195C33.995 34.8195 34.0684 34.813 34.1085 34.8C34.1485 34.8 34.1819 34.7935 34.2086 34.7804V36.5785ZM30.8643 32.1811L28.2209 32.3765C27.8337 32.4026 27.4866 32.5264 27.1795 32.7479C26.8724 32.9694 26.7189 33.2886 26.7189 33.7055C26.7189 34.0964 26.8658 34.4091 27.1595 34.6436C27.4665 34.8651 27.8137 34.9759 28.2008 34.9759C28.9885 34.9759 29.6293 34.7804 30.1233 34.3896C30.6173 33.9857 30.8643 33.4058 30.8643 32.6501V32.1811Z" fill="#616161"/>
<path d="M45.2734 33.5492C45.2734 34.0443 45.1866 34.4743 45.013 34.8391C44.8528 35.2039 44.6392 35.5166 44.3722 35.7772C43.945 36.1941 43.4243 36.4938 42.8102 36.6762C42.1961 36.8586 41.5285 36.9498 40.8076 36.9498C40.1401 36.9498 39.5193 36.8586 38.9452 36.6762C38.3711 36.4808 37.8705 36.1811 37.4433 35.7772C37.1362 35.4905 36.8759 35.1453 36.6622 34.7414C36.4486 34.3374 36.3418 33.8944 36.3418 33.4124H38.6849C38.6849 33.6339 38.7383 33.8554 38.8451 34.0769C38.9519 34.2984 39.0854 34.4743 39.2456 34.6045C39.4458 34.7609 39.6661 34.8782 39.9064 34.9563C40.1601 35.0215 40.4672 35.0541 40.8276 35.0541C41.0412 35.0541 41.2682 35.041 41.5085 35.015C41.7622 34.9759 41.9958 34.9107 42.2094 34.8195C42.423 34.7283 42.5966 34.598 42.7301 34.4286C42.8769 34.2593 42.9504 34.0378 42.9504 33.7642C42.9504 33.4645 42.8569 33.2234 42.67 33.041C42.4831 32.8586 42.2294 32.7414 41.909 32.6892C41.4418 32.6241 40.9611 32.572 40.4672 32.5329C39.9732 32.4808 39.4926 32.4026 39.0253 32.2984C38.6648 32.2202 38.3377 32.0964 38.044 31.927C37.7637 31.7576 37.5167 31.5557 37.3031 31.3212C37.0895 31.0736 36.9226 30.8065 36.8024 30.5199C36.6956 30.2202 36.6422 29.9075 36.6422 29.5817C36.6422 29.0606 36.7423 28.6176 36.9426 28.2528C37.1429 27.8749 37.3965 27.5557 37.7036 27.2951C38.0908 26.9694 38.5514 26.7218 39.0854 26.5524C39.6194 26.37 40.2135 26.2788 40.8677 26.2788C41.4952 26.2788 42.0959 26.3765 42.67 26.572C43.2574 26.7674 43.7447 27.0671 44.1319 27.471C44.4123 27.7707 44.6325 28.1029 44.7928 28.4677C44.9663 28.8195 45.0531 29.1843 45.0531 29.5622H42.67C42.67 29.3668 42.63 29.1909 42.5499 29.0345C42.4698 28.8782 42.3696 28.7348 42.2495 28.6045C42.1026 28.4612 41.9024 28.3505 41.6487 28.2723C41.4084 28.1811 41.1547 28.1355 40.8877 28.1355C40.7008 28.1355 40.5206 28.142 40.347 28.155C40.1734 28.1681 39.9932 28.2137 39.8063 28.2918C39.5793 28.383 39.3858 28.5199 39.2256 28.7023C39.0787 28.8847 39.0053 29.1062 39.0053 29.3668C39.0053 29.7316 39.1321 29.9857 39.3858 30.129C39.6528 30.2593 39.9265 30.344 40.2068 30.383C40.4471 30.4091 40.6474 30.4352 40.8076 30.4612C40.9678 30.4743 41.128 30.4938 41.2882 30.5199C41.4484 30.5329 41.6153 30.5524 41.7889 30.5785C41.9624 30.6045 42.176 30.6371 42.4297 30.6762C43.2574 30.8065 43.9383 31.1192 44.4723 31.6143C45.0064 32.0964 45.2734 32.7414 45.2734 33.5492Z" fill="#616161"/>
<path d="M54.7954 36.6957V30.4221C54.7954 29.8358 54.6752 29.3733 54.4349 29.0345C54.1946 28.6957 53.7407 28.5264 53.0731 28.5264C52.6993 28.5264 52.3722 28.6176 52.0919 28.8C51.8249 28.9694 51.6046 29.1909 51.431 29.4645C51.2575 29.7381 51.1306 30.0443 51.0505 30.383C50.9704 30.7088 50.9304 31.028 50.9304 31.3407V36.6957H48.4271V22.585H50.9304V27.6078C51.2374 27.1778 51.6513 26.8521 52.172 26.6306C52.6927 26.3961 53.2267 26.2788 53.7741 26.2788C54.3348 26.2788 54.8288 26.37 55.256 26.5524C55.6965 26.7348 56.0637 26.9889 56.3574 27.3146C56.6645 27.6404 56.8981 28.0247 57.0583 28.4677C57.2185 28.9107 57.2986 29.3928 57.2986 29.914V36.6957H54.7954Z" fill="#616161"/>
<path d="M74.577 36.6955L73.6559 34.0376H68.0086L67.0874 36.6955H64.484L69.4704 22.8389H72.2941L77.2805 36.6955H74.577ZM70.8322 25.9268L68.8096 31.7705H72.8548L70.8322 25.9268Z" fill="#616161"/>
</svg>
