<svg width="112" height="62" viewBox="0 0 112 62" fill="none" xmlns="http://www.w3.org/2000/svg">
<mask id="mask0_11122_50215" style="mask-type:luminance" maskUnits="userSpaceOnUse" x="37" y="11" width="38" height="39">
<path d="M75 11.585H37V49.585H75V11.585Z" fill="white"/>
</mask>
<g mask="url(#mask0_11122_50215)">
<path d="M56 49.585C66.4934 49.585 75 41.0784 75 30.585C75 20.0916 66.4934 11.585 56 11.585C45.5066 11.585 37 20.0916 37 30.585C37 41.0784 45.5066 49.585 56 49.585Z" fill="url(#paint0_radial_11122_50215)"/>
<g opacity="0.09726">
<path d="M56 46.7743C64.9411 46.7743 72.1893 39.526 72.1893 30.5849C72.1893 21.6437 64.9411 14.3955 56 14.3955C47.0588 14.3955 39.8106 21.6437 39.8106 30.5849C39.8106 39.526 47.0588 46.7743 56 46.7743Z" stroke="white" stroke-width="0.00102402"/>
<path d="M56.0562 43.6262C63.2277 43.6262 69.0414 37.8125 69.0414 30.641C69.0414 23.4695 63.2277 17.6558 56.0562 17.6558C48.8847 17.6558 43.071 23.4695 43.071 30.641C43.071 37.8125 48.8847 43.6262 56.0562 43.6262Z" stroke="white" stroke-width="0.00102402"/>
<path d="M56.1125 40.0289C61.266 40.0289 65.4438 35.8511 65.4438 30.6975C65.4438 25.544 61.266 21.3662 56.1125 21.3662C50.9589 21.3662 46.7811 25.544 46.7811 30.6975C46.7811 35.8511 50.9589 40.0289 56.1125 40.0289Z" stroke="white" stroke-width="0.00102402"/>
</g>
<path fill-rule="evenodd" clip-rule="evenodd" d="M47.3567 37.7421C47.3117 37.7421 47.2691 37.7438 47.2285 37.7472C47.1881 37.7505 47.1554 37.7545 47.1307 37.7589V38.5246C47.1397 38.5267 47.1532 38.5291 47.1713 38.5314C47.1892 38.5336 47.2084 38.5353 47.2285 38.5363C47.2488 38.5375 47.2684 38.5381 47.2877 38.5381H47.3298C47.3906 38.5381 47.4506 38.5325 47.5101 38.5212C47.5697 38.51 47.6231 38.4892 47.6704 38.4588C47.7176 38.4284 47.7552 38.3862 47.7834 38.3323C47.8115 38.2784 47.8255 38.2076 47.8255 38.1198C47.8255 38.0457 47.8121 37.9844 47.7852 37.9361C47.7581 37.8877 47.7226 37.8489 47.6788 37.8196C47.6351 37.7905 47.5849 37.7702 47.5287 37.7589C47.4725 37.7477 47.4153 37.7421 47.3567 37.7421ZM46.6687 37.4015C46.7632 37.3835 46.8672 37.3695 46.9806 37.3593C47.0942 37.3492 47.2071 37.3442 47.3196 37.3442C47.4365 37.3442 47.554 37.3537 47.6722 37.3728C47.7901 37.3919 47.8964 37.4301 47.9909 37.4874C48.0852 37.5448 48.1622 37.6247 48.2218 37.727C48.2814 37.8293 48.3112 37.9625 48.3112 38.1266C48.3112 38.275 48.2853 38.4003 48.2337 38.5027C48.1819 38.605 48.1133 38.6888 48.028 38.754C47.9424 38.8192 47.8452 38.8664 47.7361 38.8956C47.6271 38.9248 47.5141 38.9393 47.3971 38.9393H47.3432C47.3185 38.9393 47.2927 38.939 47.2656 38.9378C47.2387 38.9367 47.2122 38.9349 47.1864 38.9327C47.1605 38.9305 47.1419 38.9282 47.1307 38.9259V39.7388H46.6687V37.4015Z" fill="#F1E431"/>
<path fill-rule="evenodd" clip-rule="evenodd" d="M48.9689 39.4048C49.0566 39.4048 49.1263 39.3851 49.178 39.3458C49.2297 39.3064 49.268 39.2643 49.2928 39.2193V39C49.2231 38.9933 49.1561 38.9922 49.0921 38.9967C49.0279 39.0012 48.9713 39.0113 48.9217 39.0271C48.8723 39.0428 48.8329 39.0653 48.8036 39.0944C48.7745 39.1238 48.7599 39.1608 48.7599 39.2057C48.7599 39.2688 48.7785 39.3177 48.8155 39.3525C48.8526 39.3874 48.9037 39.4048 48.9689 39.4048ZM48.4125 38.1501C48.5024 38.1095 48.6091 38.0775 48.7328 38.0539C48.8565 38.0303 48.9857 38.0186 49.1208 38.0186C49.2376 38.0186 49.3354 38.0326 49.4141 38.0608C49.4928 38.0889 49.5552 38.1286 49.6013 38.1804C49.6474 38.2322 49.68 38.2941 49.6991 38.366C49.7182 38.4379 49.7278 38.5189 49.7278 38.6088C49.7278 38.7078 49.7245 38.8072 49.7177 38.9074C49.711 39.0074 49.707 39.1058 49.706 39.2024C49.7047 39.2991 49.7075 39.393 49.7144 39.4841C49.721 39.5751 49.738 39.6611 49.7649 39.7421H49.4074L49.3367 39.5094H49.3197C49.2747 39.5791 49.2123 39.6392 49.1325 39.6898C49.0527 39.7403 48.9498 39.7657 48.8239 39.7657C48.7452 39.7657 48.6743 39.7538 48.6114 39.7303C48.5485 39.7067 48.4945 39.6729 48.4496 39.6291C48.4045 39.5851 48.3697 39.5335 48.3449 39.4738C48.3202 39.4144 48.3078 39.3474 48.3078 39.2733C48.3078 39.1698 48.3309 39.0827 48.377 39.0119C48.4232 38.9411 48.4894 38.8836 48.5761 38.8398C48.6625 38.796 48.7659 38.7656 48.8864 38.7488C49.0065 38.732 49.1409 38.7269 49.2894 38.7335C49.3051 38.6077 49.296 38.5172 49.2623 38.462C49.2287 38.4071 49.1532 38.3795 49.0365 38.3795C48.9486 38.3795 48.8559 38.3885 48.7581 38.4065C48.6604 38.4245 48.5799 38.4481 48.5169 38.4773L48.4125 38.1501Z" fill="#F1E431"/>
<path fill-rule="evenodd" clip-rule="evenodd" d="M50.7126 39.4147C50.7982 39.4147 50.8639 39.3956 50.91 39.3574C50.956 39.3192 50.9914 39.2618 51.0162 39.1854V38.4265C50.9465 38.3972 50.86 38.3826 50.7566 38.3826C50.644 38.3826 50.5564 38.4248 50.4935 38.5091C50.4305 38.5934 50.399 38.7279 50.399 38.9121C50.399 39.0763 50.4259 39.2011 50.48 39.2866C50.5339 39.372 50.6115 39.4147 50.7126 39.4147ZM51.4547 39.7385C51.4547 39.9836 51.3884 40.1641 51.2556 40.2798C51.123 40.3956 50.9375 40.4535 50.6992 40.4535C50.5373 40.4535 50.4097 40.4423 50.3165 40.4197C50.2231 40.3972 50.1529 40.3736 50.1057 40.349L50.1966 40.0016C50.2483 40.0217 50.3084 40.0421 50.3771 40.0623C50.4456 40.0824 50.5306 40.0926 50.6317 40.0926C50.7847 40.0926 50.8886 40.0594 50.9438 39.9931C50.9987 39.9268 51.0263 39.8339 51.0263 39.7149V39.607H51.0129C50.9341 39.7126 50.7947 39.7655 50.5946 39.7655C50.3766 39.7655 50.214 39.698 50.1072 39.5631C50.0004 39.4282 49.947 39.2169 49.947 38.9291C49.947 38.6277 50.019 38.3995 50.1628 38.2444C50.3068 38.0892 50.5159 38.0117 50.7902 38.0117C50.9341 38.0117 51.0629 38.0218 51.1764 38.042C51.29 38.0623 51.3827 38.0858 51.4547 38.1128V39.7385Z" fill="#F1E431"/>
<path fill-rule="evenodd" clip-rule="evenodd" d="M52.1392 38.8953C52.1392 38.9695 52.1461 39.0382 52.1596 39.101C52.173 39.1641 52.1932 39.219 52.2203 39.2663C52.2473 39.3135 52.2826 39.35 52.3264 39.3759C52.3703 39.4017 52.4226 39.4147 52.4833 39.4147C52.5979 39.4147 52.6834 39.3731 52.7396 39.2899C52.7958 39.2068 52.824 39.0753 52.824 38.8953C52.824 38.7401 52.798 38.6148 52.7463 38.5193C52.6946 38.4237 52.6069 38.3759 52.4833 38.3759C52.3754 38.3759 52.2911 38.4164 52.2304 38.4973C52.1696 38.5783 52.1392 38.7109 52.1392 38.8953ZM51.6873 38.8953C51.6873 38.6097 51.7571 38.3899 51.8965 38.2359C52.0358 38.082 52.2314 38.0049 52.4833 38.0049C52.6182 38.0049 52.7351 38.0263 52.8341 38.069C52.933 38.1117 53.015 38.1719 53.0802 38.2494C53.1454 38.327 53.1945 38.4209 53.2271 38.531C53.2595 38.6412 53.2759 38.7626 53.2759 38.8953C53.2759 39.1809 53.2067 39.4006 53.0685 39.5547C52.9301 39.7087 52.7351 39.7857 52.4833 39.7857C52.3483 39.7857 52.2314 39.7642 52.1325 39.7216C52.0336 39.679 51.9509 39.6188 51.8846 39.5412C51.8183 39.4636 51.7687 39.3697 51.7362 39.2595C51.7036 39.1495 51.6873 39.028 51.6873 38.8953Z" fill="#F1E431"/>
<path fill-rule="evenodd" clip-rule="evenodd" d="M54.2101 39.2735C54.2101 39.2285 54.191 39.1924 54.1528 39.1655C54.1145 39.1386 54.0673 39.1138 54.0111 39.0914C53.9549 39.0689 53.8932 39.0458 53.8256 39.0222C53.7582 38.9986 53.6963 38.966 53.6402 38.9244C53.5839 38.8827 53.5366 38.83 53.4985 38.7658C53.4602 38.7018 53.4411 38.6192 53.4411 38.5179C53.4411 38.3516 53.4906 38.2246 53.5895 38.1369C53.6885 38.0491 53.8312 38.0054 54.0179 38.0054C54.1461 38.0054 54.2618 38.0188 54.3652 38.0458C54.4686 38.0727 54.5496 38.1031 54.6081 38.1369L54.5103 38.4539C54.4586 38.4336 54.3934 38.4123 54.3147 38.3898C54.236 38.3674 54.1562 38.3561 54.0753 38.3561C53.9449 38.3561 53.8796 38.4067 53.8796 38.5078C53.8796 38.5483 53.8986 38.5809 53.9369 38.6057C53.9751 38.6304 54.0223 38.6534 54.0786 38.6748C54.1348 38.6962 54.1966 38.7191 54.264 38.744C54.3315 38.7687 54.3934 38.8007 54.4496 38.8401C54.5058 38.8794 54.553 38.9306 54.5913 38.9935C54.6294 39.0564 54.6486 39.1375 54.6486 39.2364C54.6486 39.4071 54.594 39.5416 54.485 39.6394C54.3759 39.7373 54.2123 39.7861 53.9942 39.7861C53.8751 39.7861 53.7632 39.771 53.6588 39.7405C53.5541 39.7102 53.4692 39.6747 53.404 39.6344L53.5254 39.3072C53.5771 39.3364 53.6457 39.365 53.7311 39.3931C53.8166 39.4213 53.9043 39.4353 53.9942 39.4353C54.0594 39.4353 54.1117 39.423 54.1512 39.3982C54.1904 39.3735 54.2101 39.332 54.2101 39.2735Z" fill="#F1E431"/>
<path fill-rule="evenodd" clip-rule="evenodd" d="M56.6823 39.1047C56.6823 39.0326 56.6559 38.9742 56.6031 38.9291C56.5502 38.8843 56.4838 38.8432 56.404 38.8062C56.3242 38.7691 56.2376 38.7308 56.1444 38.6913C56.0511 38.6522 55.9644 38.6038 55.8847 38.5464C55.8048 38.489 55.7385 38.4177 55.6857 38.3323C55.6329 38.2468 55.6065 38.1378 55.6065 38.0051C55.6065 37.8903 55.6256 37.7908 55.6636 37.7065C55.7019 37.6222 55.7565 37.5519 55.8273 37.4957C55.8981 37.4396 55.982 37.3979 56.0786 37.371C56.1752 37.3441 56.2832 37.3306 56.4024 37.3306C56.5395 37.3306 56.6689 37.3422 56.7903 37.3659C56.9117 37.3896 57.0118 37.4239 57.0905 37.4688L56.9454 37.8566C56.8959 37.8252 56.8216 37.7966 56.7227 37.7707C56.6238 37.7448 56.517 37.7319 56.4024 37.7319C56.2945 37.7319 56.2117 37.7532 56.1545 37.7959C56.0972 37.8387 56.0685 37.8961 56.0685 37.968C56.0685 38.0354 56.0948 38.0917 56.1478 38.1367C56.2005 38.1816 56.2669 38.2232 56.3467 38.2615C56.4266 38.2996 56.5131 38.3389 56.6063 38.3795C56.6997 38.4199 56.7864 38.4689 56.8662 38.5261C56.946 38.5835 57.0123 38.6544 57.0651 38.7387C57.1179 38.823 57.1443 38.9281 57.1443 39.0541C57.1443 39.1799 57.1236 39.2885 57.082 39.3794C57.0404 39.4706 56.9819 39.5465 56.9067 39.6072C56.8312 39.6679 56.7402 39.7129 56.6334 39.7421C56.5265 39.7713 56.409 39.7859 56.281 39.7859C56.1123 39.7859 55.964 39.7702 55.8358 39.7387C55.7076 39.7071 55.6132 39.6758 55.5525 39.6443L55.7009 39.2497C55.7255 39.2631 55.7575 39.2778 55.797 39.2935C55.8364 39.3091 55.8808 39.3237 55.9302 39.3372C55.9797 39.3508 56.032 39.3621 56.087 39.3711C56.142 39.3801 56.1988 39.3845 56.2574 39.3845C56.3944 39.3845 56.4996 39.3615 56.5726 39.3154C56.6458 39.2694 56.6823 39.1991 56.6823 39.1047Z" fill="#F1E431"/>
<path fill-rule="evenodd" clip-rule="evenodd" d="M58.0955 38.3557C57.9809 38.3557 57.896 38.3899 57.8409 38.4585C57.7858 38.5271 57.7526 38.6188 57.7415 38.7333H58.3687C58.3777 38.612 58.3592 38.5187 58.3132 38.4535C58.267 38.3883 58.1945 38.3557 58.0955 38.3557ZM58.7229 39.5935C58.6554 39.6474 58.5638 39.693 58.448 39.7301C58.3321 39.7672 58.2091 39.7857 58.0788 39.7857C57.8066 39.7857 57.6076 39.7065 57.4817 39.5478C57.3558 39.3893 57.2928 39.1719 57.2928 38.8953C57.2928 38.5985 57.3637 38.3759 57.5053 38.2274C57.647 38.0791 57.846 38.0049 58.1024 38.0049C58.1877 38.0049 58.271 38.0162 58.3519 38.0386C58.4328 38.0611 58.5048 38.0982 58.5677 38.1499C58.6307 38.2017 58.6813 38.2714 58.7195 38.3591C58.7577 38.4468 58.777 38.5558 58.777 38.6861C58.777 38.7333 58.774 38.784 58.7684 38.838C58.7628 38.892 58.7544 38.9482 58.7431 39.0066H57.7313C57.738 39.1483 57.7746 39.2551 57.8409 39.3271C57.9073 39.399 58.0146 39.4349 58.1631 39.4349C58.2552 39.4349 58.3378 39.421 58.4109 39.3928C58.484 39.3647 58.5397 39.336 58.5778 39.3068L58.7229 39.5935Z" fill="#F1E431"/>
<path fill-rule="evenodd" clip-rule="evenodd" d="M59.6874 39.4147C59.7729 39.4147 59.8387 39.3956 59.8847 39.3574C59.9309 39.3192 59.9661 39.2618 59.991 39.1854V38.4265C59.9213 38.3972 59.8347 38.3826 59.7314 38.3826C59.6188 38.3826 59.5312 38.4248 59.4682 38.5091C59.4053 38.5934 59.3737 38.7279 59.3737 38.9121C59.3737 39.0763 59.4008 39.2011 59.4549 39.2866C59.5087 39.372 59.5864 39.4147 59.6874 39.4147ZM60.4296 39.7385C60.4296 39.9836 60.3631 40.1641 60.2305 40.2798C60.0977 40.3956 59.9123 40.4535 59.6739 40.4535C59.512 40.4535 59.3844 40.4423 59.2913 40.4197C59.1979 40.3972 59.1277 40.3736 59.0804 40.349L59.1714 40.0016C59.2231 40.0217 59.2833 40.0421 59.352 40.0623C59.4204 40.0824 59.5053 40.0926 59.6065 40.0926C59.7594 40.0926 59.8633 40.0594 59.9186 39.9931C59.9736 39.9268 60.0011 39.8339 60.0011 39.7149V39.607H59.9876C59.9089 39.7126 59.7695 39.7655 59.5694 39.7655C59.3513 39.7655 59.1887 39.698 59.082 39.5631C58.9752 39.4282 58.9218 39.2169 58.9218 38.9291C58.9218 38.6277 58.9937 38.3995 59.1377 38.2444C59.2816 38.0892 59.4907 38.0117 59.765 38.0117C59.9089 38.0117 60.0377 38.0218 60.1512 38.042C60.2647 38.0623 60.3575 38.0858 60.4296 38.1128V39.7385Z" fill="#F1E431"/>
<path fill-rule="evenodd" clip-rule="evenodd" d="M61.1647 38.0522V39.0101C61.1647 39.1473 61.181 39.2462 61.2136 39.3069C61.2462 39.3676 61.3097 39.3979 61.4041 39.3979C61.4874 39.3979 61.5564 39.3732 61.6116 39.3237C61.6667 39.2743 61.7077 39.2136 61.7347 39.1416V38.0522H62.1732V39.2259C62.1732 39.3183 62.1777 39.4086 62.1866 39.4974C62.1957 39.5864 62.2091 39.6667 62.2271 39.7386H61.8966L61.819 39.489H61.8055C61.7537 39.5745 61.6818 39.6453 61.5897 39.7015C61.4975 39.7577 61.3884 39.7858 61.2625 39.7858C61.177 39.7858 61.1006 39.7744 61.0332 39.7521C60.9657 39.7296 60.9094 39.6925 60.8645 39.6408C60.8195 39.5891 60.7853 39.5194 60.7616 39.4317C60.738 39.344 60.7263 39.2339 60.7263 39.1011V38.0522H61.1647Z" fill="#F1E431"/>
<path fill-rule="evenodd" clip-rule="evenodd" d="M63.4212 38.4637C63.3515 38.439 63.2884 38.4266 63.2322 38.4266C63.1535 38.4266 63.0877 38.4474 63.0349 38.489C62.9822 38.5306 62.9466 38.584 62.9287 38.6491V39.7386H62.4903V38.0522H62.8309L62.8815 38.2748H62.8949C62.9331 38.1916 62.9848 38.1275 63.0501 38.0825C63.1153 38.0376 63.1918 38.0151 63.2795 38.0151C63.338 38.0151 63.4043 38.0275 63.4785 38.0522L63.4212 38.4637Z" fill="#F1E431"/>
<path fill-rule="evenodd" clip-rule="evenodd" d="M63.9775 38.8953C63.9775 38.9695 63.9844 39.0382 63.9979 39.101C64.0112 39.1641 64.0315 39.219 64.0586 39.2663C64.0855 39.3135 64.1208 39.35 64.1647 39.3759C64.2087 39.4017 64.261 39.4147 64.3216 39.4147C64.4362 39.4147 64.5217 39.3731 64.5778 39.2899C64.6341 39.2068 64.6622 39.0753 64.6622 38.8953C64.6622 38.7401 64.6363 38.6148 64.5846 38.5193C64.5328 38.4237 64.4452 38.3759 64.3216 38.3759C64.2137 38.3759 64.1294 38.4164 64.0687 38.4973C64.008 38.5783 63.9775 38.7109 63.9775 38.8953ZM63.5255 38.8953C63.5255 38.6097 63.5952 38.3899 63.7347 38.2359C63.8741 38.082 64.0697 38.0049 64.3216 38.0049C64.4564 38.0049 64.5734 38.0263 64.6724 38.069C64.7714 38.1117 64.8533 38.1719 64.9185 38.2494C64.9837 38.327 65.0326 38.4209 65.0653 38.531C65.0979 38.6412 65.1141 38.7626 65.1141 38.8953C65.1141 39.1809 65.045 39.4006 64.9068 39.5547C64.7684 39.7087 64.5734 39.7857 64.3216 39.7857C64.1866 39.7857 64.0697 39.7642 63.9707 39.7216C63.8718 39.679 63.7892 39.6188 63.7228 39.5412C63.6566 39.4636 63.6071 39.3697 63.5745 39.2595C63.5419 39.1495 63.5255 39.028 63.5255 38.8953Z" fill="#F1E431"/>
<path fill-rule="evenodd" clip-rule="evenodd" d="M66.0484 39.2735C66.0484 39.2285 66.0293 39.1924 65.991 39.1655C65.9527 39.1386 65.9055 39.1138 65.8494 39.0914C65.7931 39.0689 65.7313 39.0458 65.6639 39.0222C65.5964 38.9986 65.5346 38.966 65.4784 38.9244C65.4222 38.8827 65.375 38.83 65.3367 38.7658C65.2985 38.7018 65.2794 38.6192 65.2794 38.5179C65.2794 38.3516 65.3289 38.2246 65.4278 38.1369C65.5267 38.0491 65.6695 38.0054 65.8561 38.0054C65.9843 38.0054 66.1001 38.0188 66.2035 38.0458C66.307 38.0727 66.3879 38.1031 66.4464 38.1369L66.3486 38.4539C66.2969 38.4336 66.2317 38.4123 66.1529 38.3898C66.0742 38.3674 65.9945 38.3561 65.9135 38.3561C65.783 38.3561 65.718 38.4067 65.718 38.5078C65.718 38.5483 65.7368 38.5809 65.7752 38.6057C65.8134 38.6304 65.8606 38.6534 65.9169 38.6748C65.973 38.6962 66.0349 38.7191 66.1024 38.744C66.1698 38.7687 66.2317 38.8007 66.2878 38.8401C66.3441 38.8794 66.3913 38.9306 66.4295 38.9935C66.4676 39.0564 66.4869 39.1375 66.4869 39.2364C66.4869 39.4071 66.4323 39.5416 66.3233 39.6394C66.2142 39.7373 66.0506 39.7861 65.8326 39.7861C65.7134 39.7861 65.6015 39.771 65.497 39.7405C65.3924 39.7102 65.3075 39.6747 65.2423 39.6344L65.3637 39.3072C65.4154 39.3364 65.4839 39.365 65.5695 39.3931C65.6549 39.4213 65.7426 39.4353 65.8326 39.4353C65.8977 39.4353 65.95 39.423 65.9894 39.3982C66.0287 39.3735 66.0484 39.332 66.0484 39.2735Z" fill="#F1E431"/>
<path fill-rule="evenodd" clip-rule="evenodd" d="M50.8913 41.0879H52.291V41.4994H51.3534V42.0492H52.2067V42.4606H51.3534V43.0374H52.308V43.4489H50.8913V41.0879Z" fill="#F1E431"/>
<path fill-rule="evenodd" clip-rule="evenodd" d="M53.6874 43.4485V42.4906C53.6874 42.3535 53.6677 42.2545 53.6285 42.1938C53.589 42.1331 53.5222 42.1027 53.4277 42.1027C53.3445 42.1027 53.2742 42.1269 53.2169 42.1752C53.1595 42.2236 53.1185 42.2838 53.0938 42.3557V43.4485H52.6553V41.762H53.0027L53.0533 41.9846H53.0668C53.1185 41.9127 53.1871 41.8497 53.2727 41.7958C53.358 41.7418 53.4682 41.7148 53.6031 41.7148C53.6863 41.7148 53.7604 41.7262 53.8257 41.7486C53.8909 41.7711 53.946 41.8082 53.991 41.8599C54.0359 41.9116 54.0696 41.9819 54.0923 42.0707C54.1146 42.1595 54.1259 42.2692 54.1259 42.3995V43.4485H53.6874Z" fill="#F1E431"/>
<path fill-rule="evenodd" clip-rule="evenodd" d="M55.8257 42.8822C55.8257 42.9609 55.8358 43.0182 55.8561 43.0542C55.8763 43.0903 55.9088 43.1082 55.954 43.1082C55.9808 43.1082 56.0072 43.1059 56.0332 43.1015C56.0589 43.0969 56.091 43.0868 56.1292 43.0711L56.1765 43.4151C56.1405 43.4331 56.0855 43.4511 56.0112 43.4691C55.937 43.487 55.8606 43.4961 55.7818 43.4961C55.6538 43.4961 55.556 43.4661 55.4884 43.4066C55.421 43.3472 55.3873 43.2487 55.3873 43.1116V41.0879H55.8257V42.8822Z" fill="#F1E431"/>
<path fill-rule="evenodd" clip-rule="evenodd" d="M56.6047 41.0205H57.05V41.1216L56.6756 41.5398H56.426L56.6047 41.0205ZM56.4226 43.4489H56.8611V41.7625H56.4226V43.4489Z" fill="#F1E431"/>
<path fill-rule="evenodd" clip-rule="evenodd" d="M58.3315 43.4485V42.4906C58.3315 42.3535 58.3119 42.2545 58.2726 42.1938C58.2331 42.1331 58.1663 42.1027 58.0718 42.1027C57.9886 42.1027 57.9184 42.1269 57.861 42.1752C57.8038 42.2236 57.7627 42.2838 57.7381 42.3557V43.4485H57.2995V41.762H57.6469L57.6975 41.9846H57.7109C57.7627 41.9127 57.8312 41.8497 57.9168 41.7958C58.0021 41.7418 58.1124 41.7148 58.2472 41.7148C58.3304 41.7148 58.4046 41.7262 58.4698 41.7486C58.5351 41.7711 58.5901 41.8082 58.6351 41.8599C58.6802 41.9116 58.7138 41.9819 58.7364 42.0707C58.7588 42.1595 58.77 42.2692 58.77 42.3995V43.4485H58.3315Z" fill="#F1E431"/>
<path fill-rule="evenodd" clip-rule="evenodd" d="M59.8729 42.0656C59.7582 42.0656 59.6733 42.1 59.6183 42.1685C59.5632 42.2371 59.53 42.3287 59.5189 42.4433H60.146C60.1551 42.322 60.1365 42.2287 60.0905 42.1634C60.0443 42.0982 59.9718 42.0656 59.8729 42.0656ZM60.5002 43.3034C60.4328 43.3574 60.3411 43.4029 60.2253 43.44C60.1094 43.4772 59.9864 43.4957 59.8561 43.4957C59.5839 43.4957 59.385 43.4164 59.259 43.2578C59.1331 43.0993 59.0702 42.8819 59.0702 42.6053C59.0702 42.3085 59.141 42.0859 59.2826 41.9374C59.4243 41.7891 59.6233 41.7148 59.8797 41.7148C59.9651 41.7148 60.0484 41.7261 60.1292 41.7486C60.2102 41.7711 60.2821 41.8082 60.3451 41.8599C60.408 41.9116 60.4586 41.9813 60.4968 42.069C60.5351 42.1567 60.5543 42.2657 60.5543 42.3961C60.5543 42.4433 60.5514 42.494 60.5457 42.5479C60.5401 42.6019 60.5317 42.6581 60.5205 42.7166H59.5086C59.5154 42.8582 59.5519 42.965 59.6183 43.037C59.6846 43.109 59.7919 43.1449 59.9404 43.1449C60.0325 43.1449 60.1152 43.131 60.1883 43.1028C60.2613 43.0746 60.317 43.046 60.3552 43.0168L60.5002 43.3034Z" fill="#F1E431"/>
<path fill-rule="evenodd" clip-rule="evenodd" d="M61.4245 43.1146C61.5121 43.1146 61.5818 43.095 61.6335 43.0556C61.6852 43.0163 61.7235 42.9742 61.7483 42.9292V42.7098C61.6786 42.7032 61.6117 42.702 61.5477 42.7066C61.4834 42.7111 61.4268 42.7212 61.3773 42.7369C61.3278 42.7526 61.2884 42.7751 61.2591 42.8043C61.23 42.8336 61.2154 42.8707 61.2154 42.9156C61.2154 42.9786 61.234 43.0275 61.2711 43.0624C61.3081 43.0972 61.3592 43.1146 61.4245 43.1146ZM60.868 41.86C60.9579 41.8194 61.0648 41.7874 61.1883 41.7637C61.312 41.7402 61.4413 41.7285 61.5763 41.7285C61.6932 41.7285 61.791 41.7425 61.8697 41.7706C61.9483 41.7987 62.0108 41.8385 62.0569 41.8902C62.1029 41.942 62.1355 42.0039 62.1547 42.0759C62.1737 42.1478 62.1834 42.2288 62.1834 42.3187C62.1834 42.4176 62.18 42.5172 62.1733 42.6172C62.1665 42.7172 62.1625 42.8156 62.1615 42.9123C62.1602 43.009 62.1631 43.1029 62.1699 43.1939C62.1766 43.285 62.1935 43.3709 62.2205 43.452H61.8629L61.7922 43.2192H61.7753C61.7303 43.2889 61.6678 43.3491 61.5881 43.3996C61.5082 43.4502 61.4053 43.4756 61.2795 43.4756C61.2008 43.4756 61.1298 43.4637 61.0669 43.4401C61.0041 43.4165 60.95 43.3828 60.9051 43.339C60.86 43.295 60.8253 43.2434 60.8004 43.1837C60.7757 43.1242 60.7634 43.0572 60.7634 42.9831C60.7634 42.8797 60.7864 42.7926 60.8325 42.7218C60.8787 42.6509 60.9449 42.5935 61.0316 42.5498C61.1181 42.5059 61.2215 42.4754 61.3419 42.4587C61.4621 42.4418 61.5964 42.4368 61.745 42.4434C61.7606 42.3176 61.7517 42.227 61.7178 42.1719C61.6842 42.1169 61.6089 42.0894 61.492 42.0894C61.4041 42.0894 61.3115 42.0983 61.2137 42.1163C61.1159 42.1343 61.0354 42.1579 60.9724 42.1871L60.868 41.86Z" fill="#F1E431"/>
<g filter="url(#filter0_d_11122_50215)">
<path d="M42.516 39.7272C42.4296 39.5108 42.3687 39.2904 42.4093 39.0541C42.4497 38.864 44.7703 27.9741 45.0828 26.5054C45.1098 26.0916 45.2723 25.3969 44.8011 25.1541C45.1124 24.8176 45.5616 24.3435 46.1486 23.7319L47.0504 24.1598C47.1973 24.1173 47.4007 24.0311 47.6607 23.9012C47.9459 23.7736 48.3171 23.507 49.0336 23.507C49.6195 23.507 50.3363 23.3541 51.2563 23.9012C51.615 24.1598 52.0508 24.6073 52.2167 25.5351C52.3826 26.4629 51.5516 31.7003 51.4232 31.9136C50.5662 34.5648 49.4089 34.7685 47.2708 34.7685C47.0154 34.7951 46.1083 34.6532 45.9165 34.5648C45.5118 34.3784 45.4997 34.3884 45.4041 34.8399C45.3734 34.9851 44.4051 39.418 44.3873 39.4572C44.2759 39.6906 44.1089 39.8779 43.906 40.036C43.7992 40.1024 43.6888 40.1612 43.5601 40.1723C43.5395 40.1702 43.5187 40.1681 43.4981 40.1659C43.0827 40.2167 42.734 40.1181 42.516 39.7272ZM49.0525 25.1511C48.0628 24.9587 47.1046 25.605 46.9123 26.5947L46.0425 31.0694C45.8501 32.059 46.4964 33.0172 47.4861 33.2096L47.489 33.2101C48.4786 33.4025 49.4368 32.7562 49.6292 31.7665L50.499 27.2919C50.6914 26.3022 50.045 25.344 49.0554 25.1516L49.0525 25.1511Z" fill="black"/>
</g>
<path d="M42.516 39.7272C42.4296 39.5108 42.3687 39.2904 42.4093 39.0541C42.4497 38.864 44.7703 27.9741 45.0828 26.5054C45.1098 26.0916 45.2723 25.3969 44.8011 25.1541C45.1124 24.8176 45.5616 24.3435 46.1486 23.7319L47.0504 24.1598C47.1973 24.1173 47.4007 24.0311 47.6607 23.9012C47.9459 23.7736 48.3171 23.507 49.0336 23.507C49.6195 23.507 50.3363 23.3541 51.2563 23.9012C51.615 24.1598 52.0508 24.6073 52.2167 25.5351C52.3826 26.4629 51.5516 31.7003 51.4232 31.9136C50.5662 34.5648 49.4089 34.7685 47.2708 34.7685C47.0154 34.7951 46.1083 34.6532 45.9165 34.5648C45.5118 34.3784 45.4997 34.3884 45.4041 34.8399C45.3734 34.9851 44.4051 39.418 44.3873 39.4572C44.2759 39.6906 44.1089 39.8779 43.906 40.036C43.7992 40.1024 43.6888 40.1612 43.5601 40.1723C43.5395 40.1702 43.5187 40.1681 43.4981 40.1659C43.0827 40.2167 42.734 40.1181 42.516 39.7272ZM49.0525 25.1511C48.0628 24.9587 47.1046 25.605 46.9123 26.5947L46.0425 31.0694C45.8501 32.059 46.4964 33.0172 47.4861 33.2096L47.489 33.2101C48.4786 33.4025 49.4368 32.7562 49.6292 31.7665L50.499 27.2919C50.6914 26.3022 50.045 25.344 49.0554 25.1516L49.0525 25.1511Z" fill="#FEFEFE"/>
<g filter="url(#filter1_d_11122_50215)">
<path d="M62.7869 25.0673C62.8543 25.0076 63.6086 24.009 64.4476 23.7811C64.604 23.7045 64.7679 23.6481 64.9327 23.5932C65.2372 23.4843 66.0593 23.3962 66.1531 23.4078C66.4663 23.4812 67.0667 23.4078 67.6915 23.8878C68.0295 24.1647 68.3294 24.476 68.5599 24.8507C68.649 25.0129 68.7048 25.1888 68.7715 25.3606C68.9662 25.9717 68.5229 28.5127 68.4006 28.9458C68.3528 29.1153 68.342 29.3064 68.1673 29.4147C67.9663 29.4978 63.6764 29.4487 63.5206 29.5157C63.4417 29.5618 63.3883 29.6301 63.3538 29.7143C63.2907 29.855 63.007 31.2501 63.0313 31.6144C63.0421 32.0644 63.2413 32.4111 63.6086 32.6651C63.8494 32.7963 64.0954 32.9106 64.3772 32.9137C64.5659 32.9152 64.7553 32.932 64.94 32.8766C65.0583 32.847 65.1798 32.8311 65.2954 32.7905C65.3697 32.7627 65.4418 32.7297 65.513 32.6948C65.767 32.5773 65.9983 32.4254 66.206 32.2375C66.4747 32.0309 66.7205 31.7875 67.0667 31.7062C67.2284 31.6732 67.3775 31.7195 67.525 31.778C67.725 31.8709 67.8475 32.032 67.9249 32.233C68.0234 32.5581 67.8777 32.8171 67.6984 33.067C67.6734 33.1048 66.6609 34.1969 65.2569 34.5758C65.1048 34.6252 64.9516 34.6692 64.7906 34.6777C64.561 34.6676 63.7169 34.9352 62.4389 34.3057C62.2618 34.1888 62.0501 34.1161 61.9357 33.9179C61.481 33.3838 61.1008 32.7905 61.1008 31.2373C61.1349 30.5889 61.661 28.45 61.736 27.9996C62.0868 26.317 62.437 25.3396 62.7869 25.0673ZM65.6811 25.0761C64.7957 25.0761 64.0379 25.7116 63.8836 26.5834L63.645 27.9315H66.9234L67.1531 26.7011C67.1686 26.618 67.1765 26.5337 67.1765 26.4491C67.1765 25.6908 66.5618 25.0761 65.8035 25.0761H65.6811Z" fill="black"/>
</g>
<path d="M62.7869 25.0673C62.8543 25.0076 63.6086 24.009 64.4476 23.7811C64.604 23.7045 64.7679 23.6481 64.9327 23.5932C65.2372 23.4843 66.0593 23.3962 66.1531 23.4078C66.4663 23.4812 67.0667 23.4078 67.6915 23.8878C68.0295 24.1647 68.3294 24.476 68.5599 24.8507C68.649 25.0129 68.7048 25.1888 68.7715 25.3606C68.9662 25.9717 68.5229 28.5127 68.4006 28.9458C68.3528 29.1153 68.342 29.3064 68.1673 29.4147C67.9663 29.4978 63.6764 29.4487 63.5206 29.5157C63.4417 29.5618 63.3883 29.6301 63.3538 29.7143C63.2907 29.855 63.007 31.2501 63.0313 31.6144C63.0421 32.0644 63.2413 32.4111 63.6086 32.6651C63.8494 32.7963 64.0954 32.9106 64.3772 32.9137C64.5659 32.9152 64.7553 32.932 64.94 32.8766C65.0583 32.847 65.1798 32.8311 65.2954 32.7905C65.3697 32.7627 65.4418 32.7297 65.513 32.6948C65.767 32.5773 65.9983 32.4254 66.206 32.2375C66.4747 32.0309 66.7205 31.7875 67.0667 31.7062C67.2284 31.6732 67.3775 31.7195 67.525 31.778C67.725 31.8709 67.8475 32.032 67.9249 32.233C68.0234 32.5581 67.8777 32.8171 67.6984 33.067C67.6734 33.1048 66.6609 34.1969 65.2569 34.5758C65.1048 34.6252 64.9516 34.6692 64.7906 34.6777C64.561 34.6676 63.7169 34.9352 62.4389 34.3057C62.2618 34.1888 62.0501 34.1161 61.9357 33.9179C61.481 33.3838 61.1008 32.7905 61.1008 31.2373C61.1349 30.5889 61.661 28.45 61.736 27.9996C62.0868 26.317 62.437 25.3396 62.7869 25.0673ZM65.6811 25.0761C64.7957 25.0761 64.0379 25.7116 63.8836 26.5834L63.645 27.9315H66.9234L67.1531 26.7011C67.1686 26.618 67.1765 26.5337 67.1765 26.4491C67.1765 25.6908 66.5618 25.0761 65.8035 25.0761H65.6811Z" fill="#FEFEFE"/>
<g filter="url(#filter2_d_11122_50215)">
<path d="M57.6423 34.2845C56.2221 34.9204 54.9044 34.974 53.2323 33.9585C52.543 33.1672 52.4575 32.4936 52.4158 32.2459C52.4372 32.0619 52.5736 31.9753 52.7148 31.8929C53.0232 31.7318 53.36 31.6301 53.656 31.4419C53.7412 31.4102 53.829 31.401 53.9192 31.4097C54.15 31.4409 54.222 31.6228 54.2987 31.8047C54.8212 33.0425 55.9752 33.3283 57.0403 32.4718C57.3653 32.2105 57.6756 31.922 57.7522 31.4754C57.7908 31.246 57.8863 31.0206 57.7944 30.7833C57.6387 30.1702 57.1663 29.9457 56.6131 29.833C56.0092 29.71 55.4173 29.5585 54.9044 29.1966C54.5115 28.9194 54.1502 28.6098 53.9333 28.1651C53.8613 27.9185 53.8055 27.6679 53.7378 27.42C53.6522 27.0735 53.7588 26.741 53.8095 26.4043C54.2987 24.7378 55.1256 24.4196 55.3747 24.226C55.8381 23.9047 56.3855 23.7876 56.903 23.5977L58.2342 23.5713C58.9487 23.701 59.5692 23.9982 60.0294 24.5802C60.5161 25.1363 60.5584 25.6175 60.1684 26.1549C59.7696 26.4514 59.3607 26.5254 58.9353 26.2082C58.8676 26.1505 58.8073 26.0842 58.7524 26.0137C58.0026 25.0539 57.2529 24.9328 56.2221 25.606C56.1722 25.6386 56.1259 25.6761 56.0802 25.7138C55.8902 25.9018 55.767 26.1277 55.6987 26.3848C55.647 26.5336 55.6372 26.6867 55.6536 26.8422C55.6626 26.9177 55.6838 26.9902 55.705 27.0627C55.7279 27.1341 55.7529 27.2047 55.7873 27.2715C55.8656 27.4363 56.0087 27.5295 56.1621 27.6121C56.6236 27.8698 57.1516 27.9159 57.6423 28.0802C58.8796 28.4797 59.6329 29.2815 59.7478 30.6141C59.5193 32.8884 59.17 33.1055 57.6423 34.2845Z" fill="black"/>
</g>
<path d="M57.6423 34.2845C56.2221 34.9204 54.9044 34.974 53.2323 33.9585C52.543 33.1672 52.4575 32.4936 52.4158 32.2459C52.4372 32.0619 52.5736 31.9753 52.7148 31.8929C53.0232 31.7318 53.36 31.6301 53.656 31.4419C53.7412 31.4102 53.829 31.401 53.9192 31.4097C54.15 31.4409 54.222 31.6228 54.2987 31.8047C54.8212 33.0425 55.9752 33.3283 57.0403 32.4718C57.3653 32.2105 57.6756 31.922 57.7522 31.4754C57.7908 31.246 57.8863 31.0206 57.7944 30.7833C57.6387 30.1702 57.1663 29.9457 56.6131 29.833C56.0092 29.71 55.4173 29.5585 54.9044 29.1966C54.5115 28.9194 54.1502 28.6098 53.9333 28.1651C53.8613 27.9185 53.8055 27.6679 53.7378 27.42C53.6522 27.0735 53.7588 26.741 53.8095 26.4043C54.2987 24.7378 55.1256 24.4196 55.3747 24.226C55.8381 23.9047 56.3855 23.7876 56.903 23.5977L58.2342 23.5713C58.9487 23.701 59.5692 23.9982 60.0294 24.5802C60.5161 25.1363 60.5584 25.6175 60.1684 26.1549C59.7696 26.4514 59.3607 26.5254 58.9353 26.2082C58.8676 26.1505 58.8073 26.0842 58.7524 26.0137C58.0026 25.0539 57.2529 24.9328 56.2221 25.606C56.1722 25.6386 56.1259 25.6761 56.0802 25.7138C55.8902 25.9018 55.767 26.1277 55.6987 26.3848C55.647 26.5336 55.6372 26.6867 55.6536 26.8422C55.6626 26.9177 55.6838 26.9902 55.705 27.0627C55.7279 27.1341 55.7529 27.2047 55.7873 27.2715C55.8656 27.4363 56.0087 27.5295 56.1621 27.6121C56.6236 27.8698 57.1516 27.9159 57.6423 28.0802C58.8796 28.4797 59.6329 29.2815 59.7478 30.6141C59.5193 32.8884 59.17 33.1055 57.6423 34.2845Z" fill="#FEFEFE"/>
<path d="M55.6196 19.0234L55.9529 19.0753L55.7484 20.3877L55.4152 20.3358L55.6196 19.0234Z" fill="url(#paint1_radial_11122_50215)"/>
<path d="M53.6939 17.4501L53.8447 17.1484L54.8209 17.6365L54.6701 17.9382L53.6939 17.4501Z" fill="url(#paint2_radial_11122_50215)"/>
<path d="M54.8734 18.604L55.0518 18.8902L53.8218 19.657L53.6433 19.3707L54.8734 18.604Z" fill="url(#paint3_radial_11122_50215)"/>
<path d="M56.0317 16.3926L56.3639 16.4509L56.1839 17.4774L55.8517 17.4192L56.0317 16.3926Z" fill="url(#paint4_radial_11122_50215)"/>
<path d="M57.9086 16.9175L58.0874 17.2035L56.902 17.9444L56.7232 17.6584L57.9086 16.9175Z" fill="url(#paint5_radial_11122_50215)"/>
<path d="M57.8929 19.4184L57.7117 19.7029L56.3793 18.8542L56.5605 18.5698L57.8929 19.4184Z" fill="url(#paint6_radial_11122_50215)"/>
<path d="M55.7751 19.5674C56.5202 19.5674 57.1243 18.9633 57.1243 18.2182C57.1243 17.4731 56.5202 16.8691 55.7751 16.8691C55.03 16.8691 54.426 17.4731 54.426 18.2182C54.426 18.9633 55.03 19.5674 55.7751 19.5674Z" fill="url(#paint7_radial_11122_50215)"/>
<path d="M59.0355 17.8808C59.7806 17.8808 60.3846 17.2768 60.3846 16.5317C60.3846 15.7866 59.7806 15.1826 59.0355 15.1826C58.2904 15.1826 57.6864 15.7866 57.6864 16.5317C57.6864 17.2768 58.2904 17.8808 59.0355 17.8808Z" fill="url(#paint8_radial_11122_50215)"/>
<path d="M52.9083 17.9933C53.5602 17.9933 54.0888 17.4648 54.0888 16.8128C54.0888 16.1608 53.5602 15.6323 52.9083 15.6323C52.2563 15.6323 51.7278 16.1608 51.7278 16.8128C51.7278 17.4648 52.2563 17.9933 52.9083 17.9933Z" fill="url(#paint9_radial_11122_50215)"/>
<path d="M56.281 16.6439C56.7468 16.6439 57.1243 16.2664 57.1243 15.8007C57.1243 15.335 56.7468 14.9575 56.281 14.9575C55.8153 14.9575 55.4378 15.335 55.4378 15.8007C55.4378 16.2664 55.8153 16.6439 56.281 16.6439Z" fill="url(#paint10_radial_11122_50215)"/>
<path d="M53.4704 20.579C53.9361 20.579 54.3136 20.2015 54.3136 19.7358C54.3136 19.2701 53.9361 18.8926 53.4704 18.8926C53.0047 18.8926 52.6272 19.2701 52.6272 19.7358C52.6272 20.2015 53.0047 20.579 53.4704 20.579Z" fill="url(#paint11_radial_11122_50215)"/>
<path d="M55.4941 22.1531C56.084 22.1531 56.5622 21.675 56.5622 21.0851C56.5622 20.4952 56.084 20.0171 55.4941 20.0171C54.9042 20.0171 54.426 20.4952 54.426 21.0851C54.426 21.675 54.9042 22.1531 55.4941 22.1531Z" fill="url(#paint12_radial_11122_50215)"/>
<path d="M58.1923 20.4668C58.658 20.4668 59.0355 20.0893 59.0355 19.6235C59.0355 19.1578 58.658 18.7803 58.1923 18.7803C57.7266 18.7803 57.3491 19.1578 57.3491 19.6235C57.3491 20.0893 57.7266 20.4668 58.1923 20.4668Z" fill="url(#paint13_radial_11122_50215)"/>
</g>
<defs>
<filter id="filter0_d_11122_50215" x="42.3909" y="23.486" width="9.85306" height="16.7019" filterUnits="userSpaceOnUse" color-interpolation-filters="sRGB">
<feFlood flood-opacity="0" result="BackgroundImageFix"/>
<feColorMatrix in="SourceAlpha" type="matrix" values="0 0 0 0 0 0 0 0 0 0 0 0 0 0 0 0 0 0 127 0" result="hardAlpha"/>
<feOffset dy="0.00421407"/>
<feGaussianBlur stdDeviation="0.00273915"/>
<feColorMatrix type="matrix" values="0 0 0 0 0 0 0 0 0 0 0 0 0 0 0 0 0 0 0.2 0"/>
<feBlend mode="normal" in2="BackgroundImageFix" result="effect1_dropShadow_11122_50215"/>
<feBlend mode="normal" in="SourceGraphic" in2="effect1_dropShadow_11122_50215" result="shape"/>
</filter>
<filter id="filter1_d_11122_50215" x="61.0954" y="23.4055" width="7.73038" height="11.3298" filterUnits="userSpaceOnUse" color-interpolation-filters="sRGB">
<feFlood flood-opacity="0" result="BackgroundImageFix"/>
<feColorMatrix in="SourceAlpha" type="matrix" values="0 0 0 0 0 0 0 0 0 0 0 0 0 0 0 0 0 0 127 0" result="hardAlpha"/>
<feOffset dy="0.00421407"/>
<feGaussianBlur stdDeviation="0.00273915"/>
<feColorMatrix type="matrix" values="0 0 0 0 0 0 0 0 0 0 0 0 0 0 0 0 0 0 0.2 0"/>
<feBlend mode="normal" in2="BackgroundImageFix" result="effect1_dropShadow_11122_50215"/>
<feBlend mode="normal" in="SourceGraphic" in2="effect1_dropShadow_11122_50215" result="shape"/>
</filter>
<filter id="filter2_d_11122_50215" x="52.4103" y="23.57" width="8.02634" height="11.1848" filterUnits="userSpaceOnUse" color-interpolation-filters="sRGB">
<feFlood flood-opacity="0" result="BackgroundImageFix"/>
<feColorMatrix in="SourceAlpha" type="matrix" values="0 0 0 0 0 0 0 0 0 0 0 0 0 0 0 0 0 0 127 0" result="hardAlpha"/>
<feOffset dy="0.00421407"/>
<feGaussianBlur stdDeviation="0.00273915"/>
<feColorMatrix type="matrix" values="0 0 0 0 0 0 0 0 0 0 0 0 0 0 0 0 0 0 0.2 0"/>
<feBlend mode="normal" in2="BackgroundImageFix" result="effect1_dropShadow_11122_50215"/>
<feBlend mode="normal" in="SourceGraphic" in2="effect1_dropShadow_11122_50215" result="shape"/>
</filter>
<radialGradient id="paint0_radial_11122_50215" cx="0" cy="0" r="1" gradientUnits="userSpaceOnUse" gradientTransform="translate(56 30.9118) scale(18.6732)">
<stop stop-color="#1CAFCE"/>
<stop offset="1" stop-color="#353B58"/>
</radialGradient>
<radialGradient id="paint1_radial_11122_50215" cx="0" cy="0" r="1" gradientUnits="userSpaceOnUse" gradientTransform="translate(53.7635 14.6712) rotate(-166.46) scale(0.436582 0.566708)">
<stop stop-color="#F7E840"/>
<stop offset="1" stop-color="#F4A031"/>
</radialGradient>
<radialGradient id="paint2_radial_11122_50215" cx="0" cy="0" r="1" gradientUnits="userSpaceOnUse" gradientTransform="translate(53.2572 14.8457) rotate(-166.46) scale(0.740934 0.720266)">
<stop stop-color="#F7E840"/>
<stop offset="1" stop-color="#F4A031"/>
</radialGradient>
<radialGradient id="paint3_radial_11122_50215" cx="0" cy="0" r="1" gradientUnits="userSpaceOnUse" gradientTransform="translate(54.8747 18.8256) rotate(-31.8754) scale(0.908444 0.7967)">
<stop stop-color="#F7E840"/>
<stop offset="1" stop-color="#F4A031"/>
</radialGradient>
<radialGradient id="paint4_radial_11122_50215" cx="0" cy="0" r="1" gradientUnits="userSpaceOnUse" gradientTransform="translate(56.2269 15.9576) rotate(-18.6954) scale(0.562583 0.764103)">
<stop stop-color="#F7E840"/>
<stop offset="1" stop-color="#F4A031"/>
</radialGradient>
<radialGradient id="paint5_radial_11122_50215" cx="0" cy="0" r="1" gradientUnits="userSpaceOnUse" gradientTransform="translate(50.8616 14.328) rotate(-166.46) scale(0.961339 0.938498)">
<stop stop-color="#F7E840"/>
<stop offset="1" stop-color="#F4A031"/>
</radialGradient>
<radialGradient id="paint6_radial_11122_50215" cx="0" cy="0" r="1" gradientUnits="userSpaceOnUse" gradientTransform="translate(51.2792 12.6728) rotate(-166.46) scale(1.06094 1.03538)">
<stop stop-color="#F7E840"/>
<stop offset="1" stop-color="#F4A031"/>
</radialGradient>
<radialGradient id="paint7_radial_11122_50215" cx="0" cy="0" r="1" gradientUnits="userSpaceOnUse" gradientTransform="translate(56.3682 18.8025) scale(2.49578)">
<stop stop-color="#F7E840"/>
<stop offset="1" stop-color="#F4A031"/>
</radialGradient>
<radialGradient id="paint8_radial_11122_50215" cx="0" cy="0" r="1" gradientUnits="userSpaceOnUse" gradientTransform="translate(59.6285 17.1161) scale(2.49578)">
<stop stop-color="#F7E840"/>
<stop offset="1" stop-color="#F4A031"/>
</radialGradient>
<radialGradient id="paint9_radial_11122_50215" cx="0" cy="0" r="1" gradientUnits="userSpaceOnUse" gradientTransform="translate(53.4272 17.3241) scale(2.18381)">
<stop stop-color="#F7E840"/>
<stop offset="1" stop-color="#F4A031"/>
</radialGradient>
<radialGradient id="paint10_radial_11122_50215" cx="0" cy="0" r="1" gradientUnits="userSpaceOnUse" gradientTransform="translate(56.6517 16.1659) scale(1.55986 1.55986)">
<stop stop-color="#F7E840"/>
<stop offset="1" stop-color="#F4A031"/>
</radialGradient>
<radialGradient id="paint11_radial_11122_50215" cx="0" cy="0" r="1" gradientUnits="userSpaceOnUse" gradientTransform="translate(53.8411 20.101) scale(1.55986 1.55986)">
<stop stop-color="#F7E840"/>
<stop offset="1" stop-color="#F4A031"/>
</radialGradient>
<radialGradient id="paint12_radial_11122_50215" cx="0" cy="0" r="1" gradientUnits="userSpaceOnUse" gradientTransform="translate(55.9636 21.5477) scale(1.97582 1.97582)">
<stop stop-color="#F7E840"/>
<stop offset="1" stop-color="#F4A031"/>
</radialGradient>
<radialGradient id="paint13_radial_11122_50215" cx="0" cy="0" r="1" gradientUnits="userSpaceOnUse" gradientTransform="translate(58.563 19.9887) scale(1.55986)">
<stop stop-color="#F7E840"/>
<stop offset="1" stop-color="#F4A031"/>
</radialGradient>
</defs>
</svg>
