<svg width="112" height="62" viewBox="0 0 112 62" fill="none" xmlns="http://www.w3.org/2000/svg">
<path d="M22.9831 43.4867L23.6491 43.4226C23.6888 43.6442 23.7703 43.8068 23.8928 43.9111C24.0153 44.015 24.1808 44.067 24.3886 44.067C24.6091 44.067 24.775 44.0205 24.887 43.9283C24.9985 43.8357 25.0546 43.7276 25.0546 43.6036C25.0546 43.5244 25.031 43.4566 24.9841 43.4004C24.9368 43.3451 24.8549 43.2965 24.7379 43.255C24.6576 43.2274 24.4752 43.1784 24.1897 43.1084C23.8231 43.0179 23.5655 42.9073 23.4177 42.7757C23.2095 42.591 23.1056 42.3652 23.1056 42.0992C23.1056 41.9282 23.1546 41.7677 23.2526 41.619C23.3501 41.4695 23.4912 41.3563 23.6757 41.278C23.8595 41.2001 24.082 41.1611 24.3426 41.1611C24.7679 41.1611 25.088 41.2537 25.3029 41.4389C25.5179 41.6236 25.6311 41.8708 25.6416 42.1796L24.9575 42.2093C24.9279 42.0363 24.8654 41.9123 24.7691 41.8365C24.6728 41.7611 24.528 41.7229 24.3354 41.7229C24.1369 41.7229 23.9811 41.7636 23.8687 41.8448C23.7961 41.8964 23.7598 41.9663 23.7598 42.0535C23.7598 42.1327 23.7936 42.2009 23.8616 42.2575C23.9477 42.3296 24.1576 42.4042 24.4904 42.4821C24.8232 42.56 25.0694 42.6409 25.229 42.7242C25.3887 42.8076 25.5133 42.9215 25.6036 43.0657C25.6936 43.2106 25.7388 43.3891 25.7388 43.6015C25.7388 43.7942 25.6847 43.9744 25.577 44.1428C25.4689 44.3108 25.3165 44.4356 25.1192 44.5178C24.922 44.5994 24.6762 44.6405 24.3819 44.6405C23.9532 44.6405 23.6242 44.5421 23.3945 44.3456C23.1647 44.1491 23.0279 43.8629 22.9831 43.4867Z" fill="#10298E"/>
<path d="M26.4519 41.2188H27.1014V41.8149H26.4519V41.2188ZM26.4519 42.1451H27.1014V44.5808H26.4519V42.1451Z" fill="#10298E"/>
<path d="M30.1426 44.5805H29.4931V43.3374C29.4931 43.0743 29.4791 42.9042 29.4513 42.8272C29.4238 42.7501 29.3786 42.6897 29.3161 42.647C29.2536 42.6043 29.1784 42.5829 29.0906 42.5829C28.9783 42.5829 28.8773 42.6135 28.7878 42.6747C28.6982 42.7358 28.637 42.8167 28.6041 42.9177C28.5707 43.0186 28.5542 43.2051 28.5542 43.4774V44.5805H27.9047V42.1447H28.5082V42.5025C28.7223 42.2272 28.9922 42.0898 29.3174 42.0898C29.4605 42.0898 29.5915 42.1153 29.7101 42.1665C29.8288 42.218 29.9188 42.2833 29.9796 42.3625C30.0404 42.4422 30.0826 42.5326 30.1067 42.6332C30.1308 42.7342 30.1426 42.8787 30.1426 43.0668V44.5805Z" fill="#10298E"/>
<path d="M30.8835 44.7414L31.6255 44.8311C31.6377 44.9166 31.6665 44.9752 31.7112 45.0075C31.7729 45.0535 31.8696 45.0762 32.0026 45.0762C32.1719 45.0762 32.2991 45.051 32.384 45.0007C32.441 44.9668 32.4841 44.9128 32.5132 44.8378C32.533 44.7841 32.5432 44.6857 32.5432 44.542V44.1863C32.3493 44.4494 32.104 44.581 31.8084 44.581C31.4785 44.581 31.2171 44.4423 31.0245 44.1658C30.8733 43.9471 30.7977 43.6752 30.7977 43.3492C30.7977 42.9412 30.897 42.6291 31.095 42.4137C31.2931 42.198 31.5393 42.0903 31.8337 42.0903C32.1373 42.0903 32.3878 42.2223 32.585 42.487V42.1452H33.1931V44.3308C33.1931 44.6182 33.1691 44.8332 33.1213 44.9752C33.0736 45.1176 33.0065 45.2291 32.9203 45.3104C32.8338 45.3912 32.7185 45.4545 32.5744 45.5006C32.4304 45.5462 32.248 45.5693 32.028 45.5693C31.6115 45.5693 31.3163 45.4985 31.1424 45.3573C30.9683 45.2157 30.8814 45.0364 30.8814 44.8194L30.8835 44.7414ZM31.4637 43.3128C31.4637 43.5709 31.514 43.7602 31.6154 43.8805C31.7159 44.0003 31.8404 44.0602 31.9887 44.0602C32.1471 44.0602 32.2814 43.9986 32.3907 43.8759C32.5001 43.7527 32.555 43.5705 32.555 43.3287C32.555 43.0765 32.5026 42.8892 32.3979 42.7669C32.2927 42.6446 32.1602 42.5834 32.0001 42.5834C31.8442 42.5834 31.7159 42.6433 31.6154 42.7632C31.514 42.8834 31.4637 43.0664 31.4637 43.3128Z" fill="#10298E"/>
<path d="M33.9777 41.2188H34.6272V44.5808H33.9777V41.2188Z" fill="#10298E"/>
<path d="M36.857 43.8054L37.5044 43.9131C37.4212 44.1485 37.2894 44.3278 37.1099 44.451C36.9304 44.5742 36.7058 44.6358 36.4363 44.6358C36.0094 44.6358 35.6935 44.4971 35.4882 44.2206C35.3265 43.999 35.2458 43.7191 35.2458 43.381C35.2458 42.9775 35.3518 42.6612 35.5647 42.4325C35.7775 42.2042 36.0461 42.0898 36.3713 42.0898C36.7366 42.0898 37.025 42.2096 37.2362 42.4488C37.4474 42.688 37.5483 43.0546 37.539 43.5486H35.9114C35.9161 43.7396 35.9684 43.8883 36.0685 43.9948C36.1686 44.1008 36.2936 44.154 36.4431 44.154C36.5449 44.154 36.6306 44.1263 36.6999 44.0714C36.7691 44.0166 36.8215 43.9277 36.857 43.8054ZM36.8941 43.1539C36.8895 42.9675 36.8409 42.8255 36.7484 42.7287C36.6559 42.6315 36.5432 42.5829 36.4106 42.5829C36.2691 42.5829 36.1517 42.6344 36.0592 42.7366C35.9667 42.8389 35.9215 42.9784 35.9228 43.1539H36.8941Z" fill="#10298E"/>
<path d="M39.6726 44.5808V41.2188H42.1854V41.7873H40.3568V42.5329H42.0583V43.0993H40.3568V44.0143H42.2504V44.5808H39.6726Z" fill="#10298E"/>
<path d="M44.5839 44.5808V44.2163C44.4943 44.3462 44.3769 44.4484 44.2312 44.5234C44.0855 44.5984 43.9318 44.6357 43.7701 44.6357C43.6049 44.6357 43.4571 44.6001 43.3262 44.528C43.1953 44.456 43.1002 44.3554 43.042 44.2251C42.9833 44.0952 42.9541 43.9155 42.9541 43.6863V42.145H43.6036V43.2644C43.6036 43.6067 43.6155 43.8166 43.6395 43.8941C43.6632 43.9712 43.7067 44.0324 43.7701 44.0776C43.8334 44.1225 43.9136 44.1451 44.0104 44.1451C44.1214 44.1451 44.2211 44.1149 44.3089 44.0546C44.3968 43.9943 44.4568 43.9188 44.4893 43.8296C44.5214 43.74 44.5378 43.5213 44.5378 43.1727V42.145H45.1874V44.5808H44.5839Z" fill="#10298E"/>
<path d="M46.624 44.5805H45.9744V42.1447H46.578V42.4912C46.681 42.3274 46.7739 42.2197 46.8562 42.1677C46.9386 42.1158 47.0324 42.0898 47.1371 42.0898C47.2854 42.0898 47.4277 42.1305 47.5649 42.2113L47.3639 42.7731C47.2541 42.7032 47.1527 42.6679 47.0586 42.6679C46.9678 42.6679 46.8905 42.6927 46.8275 42.7425C46.7642 42.792 46.7144 42.882 46.6785 43.0119C46.6421 43.1418 46.624 43.4141 46.624 43.828V44.5805Z" fill="#10298E"/>
<path d="M47.8365 43.3287C47.8365 43.1146 47.8897 42.9076 47.9961 42.7074C48.1025 42.5067 48.2529 42.3538 48.448 42.2486C48.6427 42.1431 48.8606 42.0903 49.1009 42.0903C49.4725 42.0903 49.777 42.2101 50.0143 42.4493C50.2513 42.6885 50.3704 42.9906 50.3704 43.3563C50.3704 43.7246 50.2505 44.03 50.0106 44.2722C49.7711 44.5147 49.4695 44.6358 49.1055 44.6358C48.8804 44.6358 48.6659 44.5855 48.4619 44.4846C48.2575 44.3836 48.1025 44.2357 47.9961 44.0409C47.8897 43.8457 47.8365 43.6086 47.8365 43.3287ZM48.5025 43.363C48.5025 43.6048 48.5599 43.7895 48.6756 43.9182C48.7913 44.0463 48.9337 44.1109 49.1034 44.1109C49.2728 44.1109 49.4151 44.0463 49.53 43.9182C49.6444 43.7895 49.7023 43.6031 49.7023 43.3584C49.7023 43.12 49.6444 42.9366 49.53 42.8079C49.4151 42.6797 49.2728 42.6156 49.1034 42.6156C48.9337 42.6156 48.7913 42.6797 48.6756 42.8079C48.5599 42.9366 48.5025 43.1213 48.5025 43.363Z" fill="#10298E"/>
<path d="M52.4829 44.5808V41.2188H53.581C53.9974 41.2188 54.2685 41.2354 54.3948 41.269C54.589 41.3197 54.7516 41.4295 54.8826 41.5984C55.0135 41.7672 55.0789 41.9854 55.0789 42.2531C55.0789 42.4592 55.0413 42.6327 54.9658 42.7734C54.8902 42.9142 54.7943 43.0248 54.6781 43.1052C54.5616 43.1853 54.4433 43.2386 54.323 43.2645C54.16 43.2964 53.923 43.3126 53.6135 43.3126H53.1671V44.5808H52.4829ZM53.1671 41.7873V42.7416H53.5417C53.8116 42.7416 53.9919 42.7241 54.0827 42.6889C54.1735 42.6537 54.2449 42.5984 54.2964 42.5238C54.3483 42.4488 54.3741 42.3616 54.3741 42.2623C54.3741 42.14 54.3378 42.039 54.2656 41.9594C54.1929 41.8798 54.1013 41.8299 53.9902 41.8102C53.9087 41.7952 53.7444 41.7873 53.4977 41.7873H53.1671Z" fill="#10298E"/>
<path d="M56.2638 42.8884L55.6746 42.7828C55.7405 42.5473 55.855 42.373 56.0167 42.2599C56.1785 42.1468 56.4188 42.0903 56.738 42.0903C57.0273 42.0903 57.2431 42.1242 57.385 42.1925C57.5269 42.2604 57.6266 42.3466 57.6844 42.4514C57.7423 42.5562 57.771 42.7484 57.771 43.0283L57.7643 43.7803C57.7643 43.9948 57.7748 44.1523 57.7955 44.2542C57.8162 44.3555 57.8551 44.4649 57.9125 44.5809H57.2697C57.2524 44.5382 57.2317 44.4745 57.2068 44.3907C57.1962 44.3526 57.1886 44.3271 57.184 44.3149C57.0729 44.4217 56.9542 44.5022 56.828 44.5558C56.7017 44.6094 56.567 44.6358 56.4234 44.6358C56.1704 44.6358 55.9715 44.568 55.8258 44.4318C55.6801 44.2956 55.6075 44.1238 55.6075 43.9156C55.6075 43.7782 55.6404 43.6555 55.7067 43.5478C55.7726 43.4401 55.8655 43.3576 55.9854 43.2998C56.1045 43.2428 56.2768 43.1925 56.5019 43.1498C56.8056 43.0932 57.0159 43.0404 57.1329 42.9914V42.9273C57.1329 42.8033 57.1025 42.7153 57.0404 42.6625C56.9788 42.6098 56.8626 42.5834 56.6916 42.5834C56.5759 42.5834 56.4855 42.606 56.4209 42.6513C56.3563 42.6961 56.3039 42.7753 56.2638 42.8884ZM57.1329 43.4112C57.0497 43.4389 56.9183 43.4715 56.738 43.5101C56.5577 43.5482 56.4394 43.5855 56.3841 43.6224C56.2992 43.6819 56.257 43.7577 56.257 43.8495C56.257 43.9395 56.2908 44.0175 56.3588 44.0832C56.4264 44.149 56.5125 44.1817 56.6177 44.1817C56.7346 44.1817 56.8461 44.1435 56.9526 44.0673C57.0311 44.0091 57.0831 43.9378 57.108 43.854C57.1244 43.7988 57.1329 43.694 57.1329 43.5398V43.4112Z" fill="#10298E"/>
<path d="M58.246 42.145H58.9374L59.5249 43.8744L60.0979 42.145H60.7705L59.9037 44.489L59.7487 44.913C59.6918 45.0554 59.6372 45.164 59.5859 45.239C59.5342 45.3135 59.4751 45.3747 59.4078 45.4212C59.3407 45.4677 59.2583 45.5042 59.1604 45.5301C59.0624 45.5561 58.9521 45.5691 58.8284 45.5691C58.7038 45.5691 58.5814 45.5561 58.4614 45.5301L58.4031 45.0257C58.5049 45.0454 58.5966 45.0554 58.6785 45.0554C58.8293 45.0554 58.9412 45.0115 59.0134 44.9235C59.086 44.8355 59.1414 44.7236 59.1802 44.5875L58.246 42.145Z" fill="#10298E"/>
<path d="M61.2803 42.1452H61.8792V42.4779C62.0933 42.2194 62.3482 42.0903 62.6443 42.0903C62.8015 42.0903 62.9377 42.1222 63.0534 42.1863C63.1687 42.2508 63.2638 42.348 63.3379 42.4779C63.4453 42.348 63.5621 42.2508 63.6871 42.1863C63.8117 42.1222 63.945 42.0903 64.0869 42.0903C64.2673 42.0903 64.4196 42.1263 64.5443 42.1988C64.6693 42.2717 64.7628 42.3782 64.8242 42.5189C64.8688 42.6232 64.8916 42.7912 64.8916 43.0238V44.581H64.2414V43.1888C64.2414 42.9471 64.2197 42.7912 64.1748 42.7209C64.1146 42.6291 64.0221 42.5834 63.8975 42.5834C63.8061 42.5834 63.7208 42.6107 63.6407 42.666C63.5602 42.7209 63.5029 42.8017 63.4674 42.9077C63.4315 43.0141 63.4142 43.1817 63.4142 43.4113V44.581H62.7644V43.2462C62.7644 43.0091 62.7528 42.8562 62.7296 42.7875C62.7068 42.7188 62.6709 42.6672 62.6222 42.6337C62.5739 42.6002 62.5081 42.5834 62.4246 42.5834C62.3243 42.5834 62.2344 42.6098 62.154 42.6635C62.0742 42.7171 62.0162 42.7942 61.9822 42.8951C61.947 42.9961 61.9298 43.1637 61.9298 43.3974V44.581H61.2803V42.1452Z" fill="#10298E"/>
<path d="M67.1026 43.8054L67.7498 43.9131C67.6667 44.1485 67.5349 44.3278 67.3556 44.451C67.176 44.5742 66.9514 44.6358 66.6819 44.6358C66.2544 44.6358 65.9389 44.4971 65.7338 44.2206C65.5721 43.999 65.4909 43.7191 65.4909 43.381C65.4909 42.9775 65.5972 42.6612 65.8101 42.4325C66.0231 42.2042 66.2915 42.0898 66.6168 42.0898C66.9821 42.0898 67.2707 42.2096 67.4818 42.4488C67.6925 42.688 67.7939 43.0546 67.7846 43.5486H66.1567C66.1616 43.7396 66.214 43.8883 66.3139 43.9948C66.4146 44.1008 66.5393 44.154 66.6886 44.154C66.7904 44.154 66.8762 44.1263 66.9454 44.0714C67.0146 44.0166 67.067 43.9277 67.1026 43.8054ZM67.1397 43.1539C67.1352 42.9675 67.0865 42.8255 66.9941 42.7287C66.9016 42.6315 66.7886 42.5829 66.6561 42.5829C66.5146 42.5829 66.397 42.6344 66.3046 42.7366C66.2121 42.8389 66.1665 42.9784 66.1683 43.1539H67.1397Z" fill="#10298E"/>
<path d="M70.6892 44.5805H70.0397V43.3374C70.0397 43.0743 70.0259 42.9042 69.9978 42.8272C69.9701 42.7501 69.9252 42.6897 69.8627 42.647C69.8002 42.6043 69.725 42.5829 69.6374 42.5829C69.5247 42.5829 69.424 42.6135 69.3346 42.6747C69.2447 42.7358 69.1837 42.8167 69.1508 42.9177C69.1178 43.0186 69.101 43.2051 69.101 43.4774V44.5805H68.4512V42.1447H69.055V42.5025C69.2691 42.2272 69.5389 42.0898 69.8638 42.0898C70.0072 42.0898 70.1382 42.1153 70.2568 42.1665C70.3755 42.218 70.465 42.2833 70.5263 42.3625C70.587 42.4422 70.6296 42.5326 70.6532 42.6332C70.6776 42.7342 70.6892 42.8787 70.6892 43.0668V44.5805Z" fill="#10298E"/>
<path d="M72.6161 42.1453V42.6589H72.1721V43.6405C72.1721 43.8391 72.1763 43.9552 72.1849 43.9879L72.2425 44.0695C72.2728 44.0909 72.3091 44.1014 72.3526 44.1014C72.4124 44.1014 72.4997 44.0809 72.6134 44.0398L72.6688 44.5396C72.518 44.6037 72.3469 44.636 72.1557 44.636C72.0389 44.636 71.933 44.6163 71.8394 44.5777C71.7451 44.5384 71.6762 44.4881 71.6324 44.4261C71.5886 44.3641 71.5575 44.2803 71.5407 44.1751C71.5268 44.1001 71.5201 43.9489 71.5201 43.721V42.6589H71.2218V42.1453H71.5201V41.6614L72.1721 41.2852V42.1453H72.6161Z" fill="#10298E"/>
<path d="M72.9799 43.886L73.6323 43.7875C73.6596 43.9128 73.7158 44.0079 73.8007 44.0728C73.8853 44.1377 74.0043 44.1704 74.1567 44.1704C74.3247 44.1704 74.4509 44.1398 74.5359 44.0787C74.5928 44.0359 74.6216 43.9786 74.6216 43.9065C74.6216 43.8575 74.6059 43.8173 74.5752 43.785C74.543 43.7544 74.47 43.7263 74.3581 43.7004C73.8337 43.5856 73.5017 43.4808 73.3613 43.3862C73.167 43.2546 73.0701 43.072 73.0701 42.8377C73.0701 42.627 73.1539 42.4494 73.322 42.3057C73.4897 42.162 73.7502 42.0903 74.1039 42.0903C74.4397 42.0903 74.6893 42.1444 74.8525 42.2529C75.0157 42.3618 75.1284 42.5223 75.1901 42.7347L74.5774 42.847C74.5512 42.7523 74.5018 42.6798 74.4281 42.6291C74.3551 42.5788 74.2506 42.5537 74.1148 42.5537C73.9437 42.5537 73.8217 42.5771 73.7476 42.6245C73.6982 42.658 73.6735 42.7016 73.6735 42.7552C73.6735 42.8013 73.6952 42.8402 73.7386 42.8721C73.797 42.9148 73.9991 42.9756 74.345 43.0535C74.6908 43.1314 74.9326 43.2269 75.07 43.3401C75.2051 43.4549 75.2732 43.6145 75.2732 43.8193C75.2732 44.0426 75.1797 44.2345 74.9914 44.395C74.8031 44.5555 74.525 44.6359 74.1567 44.6359C73.8221 44.6359 73.5578 44.5684 73.3628 44.434C73.1674 44.2995 73.0401 44.1168 72.9799 43.886Z" fill="#10298E"/>
<path d="M80.3267 44.5808H79.5822L79.2865 43.817H77.9315L77.6515 44.5808H76.9262L78.2459 41.2188H78.9698L80.3267 44.5808ZM79.0668 43.2506L78.5997 42.003L78.1419 43.2506H79.0668Z" fill="#10298E"/>
<path d="M81.4488 44.5805H80.7994V42.1447H81.4028V42.4912C81.5061 42.3274 81.5989 42.2197 81.6813 42.1677C81.7636 42.1158 81.8572 42.0898 81.962 42.0898C82.1102 42.0898 82.2528 42.1305 82.3898 42.2113L82.1888 42.7731C82.0792 42.7032 81.9777 42.6679 81.8834 42.6679C81.7928 42.6679 81.7153 42.6927 81.6525 42.7425C81.5892 42.792 81.5394 42.882 81.5031 43.0119C81.4672 43.1418 81.4488 43.4141 81.4488 43.828V44.5805Z" fill="#10298E"/>
<path d="M84.2336 43.8054L84.8808 43.9131C84.7977 44.1485 84.6663 44.3278 84.487 44.451C84.307 44.5742 84.0824 44.6358 83.8129 44.6358C83.3858 44.6358 83.0699 44.4971 82.8648 44.2206C82.7031 43.999 82.6219 43.7191 82.6219 43.381C82.6219 42.9775 82.7282 42.6612 82.9412 42.4325C83.1538 42.2042 83.4229 42.0898 83.7478 42.0898C84.1131 42.0898 84.4017 42.2096 84.6128 42.4488C84.8239 42.688 84.925 43.0546 84.9156 43.5486H83.2878C83.2926 43.7396 83.345 43.8883 83.445 43.9948C83.5453 44.1008 83.6699 44.154 83.8197 44.154C83.9215 44.154 84.0072 44.1263 84.0764 44.0714C84.1457 44.0166 84.1981 43.9277 84.2336 43.8054ZM84.2707 43.1539C84.2662 42.9675 84.2175 42.8255 84.1251 42.7287C84.0326 42.6315 83.9196 42.5829 83.7871 42.5829C83.6456 42.5829 83.5281 42.6344 83.4356 42.7366C83.3432 42.8389 83.2979 42.9784 83.2994 43.1539H84.2707Z" fill="#10298E"/>
<path d="M86.0722 42.8884L85.4831 42.7828C85.5489 42.5473 85.6635 42.373 85.8252 42.2599C85.9869 42.1468 86.2272 42.0903 86.5465 42.0903C86.8358 42.0903 87.0518 42.1242 87.194 42.1925C87.3355 42.2604 87.435 42.3466 87.4931 42.4514C87.5507 42.5562 87.5795 42.7484 87.5795 43.0283L87.5728 43.7803C87.5728 43.9948 87.5833 44.1523 87.6039 44.2542C87.6248 44.3555 87.6634 44.4649 87.721 44.5809H87.0783C87.0607 44.5382 87.0402 44.4745 87.0158 44.3907C87.0046 44.3526 86.9971 44.3271 86.9926 44.3149C86.8814 44.4217 86.7628 44.5022 86.6363 44.5558C86.5101 44.6094 86.3754 44.6358 86.232 44.6358C85.979 44.6358 85.7799 44.568 85.6343 44.4318C85.4887 44.2956 85.4157 44.1238 85.4157 43.9156C85.4157 43.7782 85.449 43.6555 85.5153 43.5478C85.5815 43.4401 85.674 43.3576 85.7941 43.2998C85.9131 43.2428 86.0853 43.1925 86.3103 43.1498C86.6142 43.0932 86.8246 43.0404 86.9413 42.9914V42.9273C86.9413 42.8033 86.911 42.7153 86.8489 42.6625C86.7871 42.6098 86.6711 42.5834 86.5 42.5834C86.3848 42.5834 86.2945 42.606 86.2294 42.6513C86.1647 42.6961 86.1123 42.7753 86.0722 42.8884ZM86.9413 43.4112C86.8582 43.4389 86.7269 43.4715 86.5465 43.5101C86.366 43.5482 86.2478 43.5855 86.1927 43.6224C86.1078 43.6819 86.0655 43.7577 86.0655 43.8495C86.0655 43.9395 86.0992 44.0175 86.1673 44.0832C86.2347 44.149 86.3211 44.1817 86.4263 44.1817C86.5431 44.1817 86.655 44.1435 86.7609 44.0673C86.8399 44.0091 86.8916 43.9378 86.9166 43.854C86.9331 43.7988 86.9413 43.694 86.9413 43.5398V43.4112Z" fill="#10298E"/>
<path d="M37.3852 28.0054H32.9437C32.9437 27.2823 32.858 26.7971 32.6873 26.55C32.423 26.1846 31.6936 26.0016 30.4997 26.0016C29.34 26.0016 28.5714 26.1067 28.1964 26.3174C27.8214 26.529 27.6334 26.9886 27.6334 27.6962C27.6334 28.3368 27.7998 28.7591 28.133 28.961C28.3717 29.1047 28.6871 29.189 29.0799 29.2141L29.9756 29.2769C31.8955 29.403 33.0944 29.4923 33.5725 29.543C35.0907 29.6946 36.1913 30.0951 36.8742 30.7441C37.4114 31.2506 37.7319 31.9125 37.8342 32.7295C37.8941 33.2184 37.9237 33.7719 37.9237 34.3865C37.9237 35.8034 37.7873 36.8407 37.5149 37.498C37.0203 38.7046 35.9092 39.4667 34.1807 39.7868C33.4564 39.9221 32.3486 39.9895 30.8583 39.9895C28.3708 39.9895 26.6376 39.8429 25.6587 39.5475C24.4576 39.186 23.6653 38.4532 23.2823 37.3501C23.0686 36.7359 22.963 35.7129 22.963 34.2809H27.4045C27.4045 34.4405 27.405 34.5628 27.405 34.647C27.405 35.4112 27.6262 35.9022 28.0684 36.1213C28.3746 36.2721 28.7441 36.3513 29.1787 36.361H30.8118C31.645 36.361 32.1767 36.3186 32.4061 36.2336C32.8145 36.0744 33.0826 35.818 33.2106 35.4632C33.2786 35.2445 33.3124 34.9621 33.3124 34.616C33.3124 33.8414 33.0273 33.3701 32.458 33.2008C32.2447 33.1342 31.2548 33.0408 29.487 32.9231C28.0672 32.8225 27.081 32.7257 26.529 32.6319C25.075 32.3621 24.1058 31.807 23.6222 30.9645C23.197 30.2489 22.9845 29.1659 22.9845 27.7167C22.9845 26.6136 23.0994 25.7288 23.3291 25.0635C23.5589 24.3978 23.9293 23.8926 24.4403 23.5469C25.189 23.0161 26.1473 22.7048 27.3133 22.6118C28.2838 22.5276 29.3603 22.4849 30.5445 22.4849C32.4086 22.4849 33.7372 22.5913 34.5291 22.802C36.462 23.3173 37.4283 24.7602 37.4283 27.1315C37.4283 27.3258 37.4139 27.6166 37.3852 28.0054Z" fill="#10298E"/>
<path d="M56.9169 39.9898V22.3921H63.8754H64.9676H65.812C67.0319 22.3921 67.9627 22.4906 68.6024 22.6883C70.0656 23.1429 71.047 24.0742 71.5501 25.4811C71.8091 26.2197 71.9393 27.3316 71.9393 28.8163C71.9393 30.6015 71.7952 31.8839 71.5104 32.6652C70.9396 34.2095 69.7658 35.0994 67.9923 35.3298C67.7838 35.3646 66.8964 35.3951 65.3299 35.4203L64.5375 35.4462H61.6913V39.9898H56.9169ZM61.6913 31.364H64.6674C65.6114 31.3305 66.1852 31.2584 66.3918 31.1457C66.6737 30.9919 66.8634 30.6836 66.9577 30.2215C67.018 29.914 67.048 29.4565 67.048 28.849C67.048 28.1046 66.9881 27.5528 66.8675 27.1925C66.6961 26.6877 66.2848 26.3806 65.6335 26.2687C65.5043 26.2519 65.1959 26.2427 64.7074 26.2427H61.6913V31.364Z" fill="#10298E"/>
<path d="M82.1304 36.9485H75.7471L74.8892 39.9897H69.9499L75.28 22.3921H82.4815L87.8767 39.9897H83.0411L82.1304 36.9485ZM81.1823 33.5202L78.9451 25.892L76.7746 33.5202H81.1823Z" fill="#10298E"/>
<path d="M50.3273 24.8676C52.2962 24.8676 54.0539 25.7675 55.2089 27.1769L56.2382 24.9879C54.6287 23.4788 52.4381 22.5483 50.022 22.5483C46.26 22.5483 43.0419 24.8023 41.7213 27.993H39.7144L38.5294 30.513H41.1111C41.0916 30.7468 41.0789 30.9805 41.0789 31.2193C41.0789 31.508 41.0941 31.7937 41.1229 32.0757H39.8255L38.6409 34.5965H41.783C43.1412 37.7064 46.3191 39.8895 50.022 39.8895C51.8883 39.8895 53.6198 39.3349 55.0535 38.3872V35.2978C53.8989 36.602 52.21 37.4261 50.3273 37.4261C48.1266 37.4261 46.1907 36.3004 45.0635 34.5965H51.6425L52.8275 32.0757H44.0956C44.0504 31.7724 44.0263 31.4623 44.0263 31.1464C44.0263 30.9328 44.0373 30.7216 44.0584 30.513H53.5619L54.7465 27.993H44.8798C45.9711 26.1249 48.0016 24.8676 50.3273 24.8676Z" fill="#FFBE00"/>
<path d="M50.3273 24.9432C52.2037 24.9432 53.9614 25.7753 55.1498 27.2248L55.2267 27.3186L55.2786 27.2093L56.3074 25.0203L56.3302 24.9704L56.2909 24.9327C54.5991 23.3466 52.3726 22.4731 50.022 22.4731C48.1862 22.4731 46.42 23.0051 44.9136 24.0119C43.4427 24.9947 42.3142 26.3618 41.6512 27.9642L41.7213 27.9173H39.7144H39.6654L39.6452 27.9609L38.4606 30.4813L38.4099 30.589H38.5294H41.111L41.035 30.5069C41.0135 30.7687 41.0029 31.0013 41.0029 31.2195C41.0029 31.5023 41.0177 31.7935 41.0468 32.0834L41.1229 32.0004H39.8255H39.7773L39.7571 32.044L38.5716 34.5644L38.5214 34.6721H38.6409H41.783L41.7129 34.6264C43.1293 37.8695 46.3909 39.9651 50.022 39.9651C51.8422 39.9651 53.5961 39.4419 55.0958 38.4506L55.1291 38.4284V38.3874V35.298V35.0973L54.9961 35.2482C53.8132 36.5842 52.1116 37.3501 50.3273 37.3501C48.2284 37.3501 46.2845 36.3047 45.1269 34.5548L45.0635 34.6721H51.6424H51.6914L51.7117 34.6289L52.8967 32.1077L52.9474 32.0004H52.8275H44.0956L44.1712 32.0649C44.126 31.7595 44.1027 31.4512 44.1027 31.1466C44.1027 30.9392 44.1133 30.7289 44.1344 30.5207L44.0584 30.589H53.5619H53.6109L53.6312 30.5454L54.8157 28.025L54.8669 27.9173H54.7465H44.8798L44.9457 28.0309C46.0581 26.1263 48.1207 24.9432 50.3273 24.9432ZM44.8798 28.0686H54.7465L54.6772 27.9609L53.493 30.4813L53.5619 30.4377H44.0584H43.9896L43.982 30.506C43.9608 30.7189 43.9503 30.9346 43.9503 31.1466C43.9503 31.4583 43.9739 31.775 44.02 32.0872L44.0301 32.1517H44.0956H52.8275L52.7587 32.044L51.574 34.5644L51.6424 34.5209H45.0635H44.922L44.9998 34.6373C46.1852 36.4313 48.1773 37.5009 50.3273 37.5009C52.1551 37.5009 53.8989 36.7166 55.111 35.3479L54.9771 35.298V38.3874L55.0109 38.3249C53.5366 39.299 51.8118 39.8139 50.022 39.8139C46.4513 39.8139 43.245 37.7539 41.853 34.5661L41.8328 34.5209H41.783H38.6409L38.7106 34.6289L39.8948 32.1077L39.8255 32.1517H41.1229H41.2069L41.1989 32.0683C41.1702 31.7834 41.155 31.4973 41.155 31.2195C41.155 31.0058 41.1655 30.7767 41.187 30.5195L41.1938 30.4377H41.111H38.5294L38.5982 30.5454L39.7833 28.025L39.7144 28.0686H41.7213H41.7724L41.7914 28.0217C42.4439 26.4468 43.5529 25.1037 44.9989 24.1371C46.4796 23.148 48.217 22.6247 50.022 22.6247C52.3338 22.6247 54.5223 23.4832 56.1858 25.0429L56.1689 24.9558L55.1405 27.1452L55.2685 27.1293C54.0501 25.6441 52.2498 24.792 50.3273 24.792C48.0658 24.792 45.9538 26.004 44.8135 27.9551L44.7472 28.0686H44.8798Z" fill="#10298E"/>
</svg>
