<svg width="112" height="62" viewBox="0 0 112 62" fill="none" xmlns="http://www.w3.org/2000/svg">
<mask id="mask0_11122_50294" style="mask-type:luminance" maskUnits="userSpaceOnUse" x="20" y="17" width="73" height="33">
<path d="M93 17.585H20V49.585H93V17.585Z" fill="white"/>
</mask>
<g mask="url(#mask0_11122_50294)">
<path fill-rule="evenodd" clip-rule="evenodd" d="M23.52 22.7139H46.9837C48.5442 22.7139 49.8207 23.9905 49.8207 25.5508V41.9698C49.8207 43.5303 48.5442 44.8067 46.9837 44.8067H22.8369C21.2764 44.8067 20 43.5303 20 41.9698V21.688C20 20.95 20.6094 20.44 21.3415 20.3466L42.9778 17.585C43.7158 17.5853 44.319 18.1884 44.319 18.9264V21.2218H22.1678C22.1678 22.1854 22.4552 22.7139 23.52 22.7139ZM36.6791 40.7057C34.7057 41.0843 32.1684 40.4268 30.7878 38.9432C30.1641 38.2741 31.1692 37.263 31.7957 37.938C32.7241 38.9375 34.3783 39.4045 35.728 39.373C37.4481 39.3361 38.98 37.77 38.0033 36.0217C36.6506 33.6013 33.3163 34.2791 31.6021 32.3769C30.2153 30.8421 30.8731 28.4276 32.5017 27.3569C34.1988 26.2406 37.1291 26.2834 38.5241 27.8838C39.1253 28.5697 38.1199 29.5805 37.5164 28.8887C36.3886 27.5962 33.7261 27.7724 32.7097 29.1023C31.2632 31.0014 33.4272 32.024 34.9392 32.4822C37.018 33.1116 39.3246 34.262 39.7029 36.6452C40.0049 38.5643 38.5185 40.3497 36.6791 40.7057Z" fill="#ED4C2F"/>
<path fill-rule="evenodd" clip-rule="evenodd" d="M36.6791 40.7057C34.7058 41.0846 32.1687 40.4269 30.7878 38.9432C30.164 38.2741 31.1692 37.2632 31.7957 37.938C32.7239 38.9375 34.3783 39.4045 35.728 39.3732C37.4481 39.3363 38.9799 37.7701 38.0031 36.0218C36.6507 33.6014 33.3163 34.279 31.6019 32.377C30.2153 30.8422 30.873 28.4276 32.5017 27.3569C34.1989 26.2406 37.129 26.2835 38.5243 27.8838C39.1251 28.5698 38.1199 29.5808 37.5163 28.8887C36.3886 27.596 33.7261 27.7724 32.7097 29.1022C31.2633 31.0017 33.4272 32.0238 34.9393 32.4824C37.0179 33.1116 39.3244 34.262 39.7031 36.6453C40.005 38.5645 38.5186 40.3499 36.6791 40.7057Z" fill="white"/>
<path fill-rule="evenodd" clip-rule="evenodd" d="M77.0915 21.7058C76.253 21.7058 75.498 22.0619 74.981 22.6262V21.9714C74.981 21.3793 74.03 21.3775 74.03 21.9714V29.7184C74.03 30.3123 74.981 30.3141 74.981 29.7184V26.2691C75.5 26.8336 76.253 27.1877 77.0915 27.1877C78.6485 27.1877 79.915 25.9593 79.915 24.4468C79.915 22.9361 78.6485 21.7058 77.0915 21.7058ZM77.0915 26.1972C76.095 26.1972 75.287 25.4114 75.287 24.4468C75.287 23.578 75.943 22.8531 76.8025 22.7184C76.806 22.7184 76.812 22.7166 76.8175 22.7166C76.907 22.7037 76.9985 22.6963 77.0915 22.6963C77.8275 22.6963 78.4625 23.1261 78.742 23.7421L78.7435 23.7495C78.8405 23.9635 78.894 24.1996 78.894 24.4468C78.894 25.4114 78.086 26.1972 77.0915 26.1972ZM70.079 27.1881C68.5209 27.1881 67.2533 25.9586 67.2533 24.4472C67.2533 22.9357 68.5209 21.7061 70.079 21.7061C71.637 21.7061 72.9045 22.9357 72.9045 24.4472C72.9045 25.9586 71.637 27.1881 70.079 27.1881ZM70.079 22.6968C69.084 22.6968 68.2745 23.4821 68.2745 24.4472C68.2745 25.4122 69.084 26.1974 70.079 26.1974C71.0735 26.1974 71.883 25.4122 71.883 24.4472C71.883 23.4821 71.0735 22.6968 70.079 22.6968ZM92.784 24.3929C92.7615 23.1331 92.096 21.995 90.719 21.7423C89.5325 21.5247 88.1465 22.1315 87.6405 23.2086C87.116 24.3283 87.3365 25.8648 88.371 26.645C89.491 27.488 91.2385 27.2279 92.3865 26.6044C92.921 26.3149 92.442 25.518 91.9055 25.8076C91.1775 26.2042 90.2265 26.3978 89.411 26.1341C88.8005 25.9367 88.4585 25.4258 88.3555 24.854H92.3085C92.5615 24.854 92.788 24.6419 92.784 24.3929ZM88.39 23.9318C88.3975 23.8967 88.407 23.8635 88.4165 23.8303C88.6445 23.0796 89.4225 22.6443 90.2095 22.624C91.1145 22.5999 91.6225 23.2051 91.78 23.9318H88.39ZM86.456 24.4006C86.4335 23.1408 85.768 22.0027 84.391 21.7501C83.2045 21.5324 81.8185 22.1393 81.3125 23.2165C80.788 24.3361 81.0085 25.8725 82.043 26.6527C83.163 27.4957 84.9105 27.2356 86.059 26.6122C86.593 26.3226 86.114 25.5258 85.5775 25.8154C84.8495 26.2119 83.8985 26.4056 83.083 26.1419C82.4725 25.9445 82.1305 25.4336 82.0275 24.8618H85.981C86.2335 24.8618 86.46 24.6496 86.456 24.4006ZM82.062 23.9396C82.0695 23.9045 82.079 23.8713 82.0885 23.8381C82.3165 23.0873 83.0945 22.652 83.8815 22.6318C84.7865 22.6078 85.2945 23.2128 85.452 23.9396H82.062ZM66.139 23.5123V26.7146C66.139 27.3183 65.1883 27.3183 65.1883 26.7146V23.5748C65.156 22.9539 64.6258 22.669 64.6086 22.6615C63.9319 22.368 62.7031 22.5026 61.971 23.4305V26.7146C61.971 27.3183 61.0203 27.3183 61.0203 26.7146V18.4891C61.0203 17.8855 61.971 17.8874 61.971 18.4891V22.1838C63.1366 21.4059 64.6192 21.4927 65.3158 21.9693C65.3158 21.9693 66.1533 22.4267 66.139 23.5123ZM59.4612 18.8673C58.5289 17.8399 56.5737 17.8125 55.4389 18.5298C54.3526 19.2165 53.9131 20.7678 54.8379 21.7534C55.9836 22.9745 58.2095 22.539 59.1129 24.0926C59.7658 25.2154 58.7428 26.2207 57.5943 26.2452C56.6934 26.2643 55.5882 25.9642 54.9678 25.3223C54.5504 24.8904 53.8792 25.5379 54.2955 25.9686C55.2163 26.9213 56.9121 27.3436 58.2283 27.0995C59.4574 26.8715 60.4496 25.7243 60.2474 24.4925C59.9963 22.9629 58.456 22.224 57.0674 21.8205C56.0566 21.5268 54.612 20.8696 55.579 19.6513C56.2578 18.7961 58.0352 18.6831 58.7889 19.5136C59.192 19.9577 59.8621 19.309 59.4612 18.8673Z" fill="#ED4C2F"/>
<path fill-rule="evenodd" clip-rule="evenodd" d="M84.2485 49.5851H81.2295L84.461 43.4788L79.157 33.4572H82.4325L86.099 40.3846L89.765 33.4572H92.7845L84.2485 49.5851ZM54.1639 44.8067H56.6957V40.182L60.1069 40.1829C63.6459 40.1829 66.5151 37.7005 66.5151 34.6382C66.5151 31.5762 63.6459 29.0938 60.1069 29.0938H54.1639C54.1639 34.3316 54.1639 39.5688 54.1639 44.8067ZM56.6957 37.6502V31.6255H60.1069C62.0298 31.6255 63.5885 32.9739 63.5885 34.6376C63.5885 36.3013 62.0298 37.6502 60.1069 37.6502H56.6957ZM75.993 33.5548H78.215V44.7088H75.993V43.455C75.0025 44.2977 73.7195 44.8067 72.317 44.8067C69.1829 44.8067 66.6424 42.2663 66.6424 39.132C66.6424 35.9978 69.1829 33.4572 72.317 33.4572C73.7195 33.4572 75.0025 33.9662 75.993 34.8089V33.5548ZM72.317 35.8484C74.1305 35.8484 75.601 37.3185 75.601 39.132C75.601 40.9456 74.1305 42.4156 72.317 42.4156C70.5035 42.4156 69.0336 40.9456 69.0336 39.132C69.0336 37.3185 70.5035 35.8484 72.317 35.8484Z" fill="#ED4C2F"/>
</g>
</svg>
