<svg width="112" height="62" viewBox="0 0 112 62" fill="none" xmlns="http://www.w3.org/2000/svg">
<path fill-rule="evenodd" clip-rule="evenodd" d="M36.8202 33.2235V28.895H38.9597V33.1793C38.9597 34.2917 39.5167 34.8205 40.3682 34.8205C41.2307 34.8205 41.7874 34.314 41.7874 33.2344V28.895H43.9272V33.1682C43.9272 35.6465 42.519 36.7479 40.3463 36.7479C38.1848 36.7479 36.8202 35.6357 36.8202 33.2235Z" fill="#262626"/>
<path fill-rule="evenodd" clip-rule="evenodd" d="M45.2246 30.6464H47.2989V31.4835C47.6812 30.9877 48.2271 30.5142 49.0676 30.5142C50.3231 30.5142 51.0763 31.3513 51.0763 32.7061V36.6051H49.0131V33.378C49.0131 32.7169 48.6746 32.3646 48.1723 32.3646C47.6702 32.3646 47.2989 32.7169 47.2989 33.378V36.6051H45.2246V30.6464Z" fill="#262626"/>
<mask id="mask0_11122_50303" style="mask-type:alpha" maskUnits="userSpaceOnUse" x="14" y="20" width="84" height="21">
<path d="M14 40.7076H98V20.585H14V40.7076Z" fill="white"/>
</mask>
<g mask="url(#mask0_11122_50303)">
<path fill-rule="evenodd" clip-rule="evenodd" d="M52.363 30.0279H54.4264V28.564H52.363V30.0279Z" fill="#4C4C4E"/>
<path fill-rule="evenodd" clip-rule="evenodd" d="M52.363 36.6047H54.4264V30.646H52.363V36.6047Z" fill="#262626"/>
<path fill-rule="evenodd" clip-rule="evenodd" d="M60.0371 33.6528V33.6309C60.0371 32.8929 59.5023 32.2761 58.771 32.2761C58.0175 32.2761 57.5373 32.8816 57.5373 33.609V33.6309C57.5373 34.3577 58.0613 34.9745 58.7927 34.9745C59.5461 34.9745 60.0371 34.3687 60.0371 33.6528ZM55.5286 33.6528V33.6309C55.5286 31.9346 56.904 30.5137 58.7927 30.5137C60.6815 30.5137 62.0461 31.9125 62.0461 33.609V33.6309C62.0461 35.3272 60.6704 36.7479 58.771 36.7479C56.893 36.7479 55.5286 35.3491 55.5286 33.6528Z" fill="#262626"/>
<path fill-rule="evenodd" clip-rule="evenodd" d="M63.0815 30.6459H65.1557V31.483C65.5379 30.9872 66.084 30.5137 66.9244 30.5137C68.1799 30.5137 68.9334 31.3508 68.9334 32.7056V36.6046H66.87V33.3775C66.87 32.7164 66.5314 32.3641 66.0293 32.3641C65.527 32.3641 65.1557 32.7164 65.1557 33.3775V36.6046H63.0815V30.6459Z" fill="#262626"/>
<path fill-rule="evenodd" clip-rule="evenodd" d="M73.6458 33.4652H72.3488V34.8862H73.6675C74.3227 34.8862 74.6831 34.6327 74.6831 34.1811V34.1592C74.6831 33.7404 74.3554 33.4652 73.6458 33.4652ZM74.3773 31.2735C74.3773 30.8438 74.0388 30.6127 73.4164 30.6127H72.3488V31.9673H73.3621C74.0063 31.9673 74.3773 31.747 74.3773 31.2954V31.2735ZM70.2858 28.8945H73.9232C74.7303 28.8945 75.3746 29.143 75.8362 29.5691C76.3644 30.0568 76.6243 31.0263 76.3256 31.799C76.1806 32.1738 75.8723 32.4129 75.5075 32.5733C76.4341 32.8557 76.9958 33.4102 76.9958 34.4567V34.4786C76.9958 35.8002 75.9259 36.6043 74.1026 36.6043H70.2858V28.8945Z" fill="#262626"/>
<path fill-rule="evenodd" clip-rule="evenodd" d="M81.6052 34.4458V34.1707C81.3868 34.0827 81.092 34.0163 80.7864 34.0163C80.1859 34.0163 79.8365 34.303 79.8365 34.7544V34.7765C79.8365 35.1841 80.1421 35.4262 80.5678 35.4262C81.1794 35.4262 81.6052 35.0408 81.6052 34.4458ZM77.8497 34.8977V34.8755C77.8497 33.6309 78.7775 33.003 80.1642 33.003C80.7099 33.003 81.2447 33.1023 81.5835 33.2343V33.1355C81.5835 32.5076 81.2011 32.1551 80.4041 32.1551C79.7821 32.1551 79.3017 32.2873 78.7668 32.4855L78.3411 31.0207C79.0067 30.7452 79.7166 30.5581 80.7318 30.5581C81.7908 30.5581 82.5115 30.8113 82.9808 31.2848C83.4283 31.7256 83.6139 32.3424 83.6139 33.1793V36.6048H81.5724V35.9769C81.1575 36.4285 80.601 36.737 79.8257 36.737C78.7011 36.737 77.8497 36.076 77.8497 34.8977Z" fill="#262626"/>
<path fill-rule="evenodd" clip-rule="evenodd" d="M84.8353 30.6459H86.9096V31.483C87.2917 30.9872 87.8378 30.5137 88.6782 30.5137C89.9337 30.5137 90.687 31.3508 90.687 32.7056V36.6046H88.6238V33.3775C88.6238 32.7164 88.2852 32.3641 87.7831 32.3641C87.2809 32.3641 86.9096 32.7164 86.9096 33.3775V36.6046H84.8353V30.6459Z" fill="#262626"/>
<path fill-rule="evenodd" clip-rule="evenodd" d="M91.9191 28.564H93.9934V32.6393L95.5983 30.6457H97.9454L95.8931 33.0247L98.0001 36.6044H95.7074L94.5284 34.5669L93.9934 35.1947V36.6044H91.9191V28.564Z" fill="#262626"/>
<path fill-rule="evenodd" clip-rule="evenodd" d="M27.0271 31.1775C26.181 31.0678 25.8124 31.0236 25.8124 31.0236V28.011C26.0215 28.0628 27.3975 28.3974 27.3975 28.3974C28.2405 28.564 28.6695 29.1771 28.6695 29.9117C28.6695 30.6466 28.0154 31.3058 27.0271 31.1775ZM30.4224 32.423C30.4224 32.423 31.399 31.452 31.399 29.6233C31.399 28.0968 30.3702 26.4051 28.5577 25.7682L22.5997 23.6546L22.5805 33.992C22.5805 33.992 22.5824 35.4891 20.9124 35.8056C19.7943 36.0175 18.7046 35.0054 18.7046 33.7476C18.7046 33.7476 18.7107 25.6005 18.7061 22.2616L14 20.5845V34.1935C14 39.0548 18.4103 41.1111 21.1197 40.6422C24.354 40.0826 25.8124 37.5838 25.8124 34.8794V33.9192L28.0942 33.9973C28.8489 33.9973 29.4101 34.6554 29.4101 35.3452C29.4101 35.957 28.9829 36.6155 28.1036 36.6917L26.8498 36.7874C26.6487 37.6128 26.2132 38.7521 25.2351 39.8907L28.909 39.2409C30.3886 38.9733 32.109 37.6887 32.109 35.5667C32.109 34.6627 31.8035 33.3394 30.4224 32.423Z" fill="#FF8000"/>
</g>
</svg>
