<svg width="112" height="62" viewBox="0 0 112 62" fill="none" xmlns="http://www.w3.org/2000/svg">
<mask id="mask0_11122_50319" style="mask-type:luminance" maskUnits="userSpaceOnUse" x="25" y="19" width="63" height="23">
<path d="M87.2724 19.585H25V41.585H87.2724V19.585Z" fill="white"/>
</mask>
<g mask="url(#mask0_11122_50319)">
<path d="M25.5056 38.4834H25.9718L25.5386 40.2927C25.4743 40.5611 25.4864 40.7632 25.5753 40.898C25.6638 41.033 25.8286 41.1005 26.0694 41.1005C26.3087 41.1005 26.5049 41.033 26.6582 40.898C26.8117 40.7632 26.9206 40.5611 26.9849 40.2927L27.4179 38.4834H27.8901L27.4463 40.3375C27.3499 40.7403 27.1781 41.0419 26.932 41.2418C26.6858 41.4421 26.363 41.5421 25.9637 41.5421C25.564 41.5421 25.2899 41.4423 25.1406 41.2428C24.9912 41.0436 24.9651 40.7417 25.0618 40.3375L25.5056 38.4834Z" fill="#696A6A"/>
<path d="M27.8275 41.4625L28.5689 38.3652L29.9778 40.1866C30.0155 40.2379 30.0536 40.2929 30.0911 40.3513C30.1286 40.4097 30.167 40.4753 30.2064 40.5487L30.701 38.4831H31.1373L30.3964 41.5781L28.9578 39.7243C28.9193 39.6743 28.8835 39.6214 28.85 39.5657C28.8161 39.51 28.7857 39.4516 28.7578 39.3907L28.2618 41.4625H27.8275Z" fill="#696A6A"/>
<path d="M31.0988 41.4628L31.812 38.4834H32.2839L31.5709 41.4628H31.0988Z" fill="#696A6A"/>
<path d="M32.2494 41.4628L32.9626 38.4834H34.5832L34.4848 38.8944H33.3362L33.1583 39.6372H34.3069L34.2052 40.0625H33.0565L32.7214 41.4628H32.2494Z" fill="#696A6A"/>
<path d="M34.3899 41.4628L35.1031 38.4834H35.5749L34.8619 41.4628H34.3899Z" fill="#696A6A"/>
<path d="M35.5404 41.4628L36.2536 38.4834H37.8743L37.7758 38.8944H36.6272L36.4483 39.6413H37.5969L37.4953 40.0667H36.3467L36.1161 41.0293H37.2647L37.1611 41.4628H35.5404Z" fill="#696A6A"/>
<path d="M38.2796 41.0248H38.6765C38.8946 41.0248 39.0618 41.0098 39.1781 40.98C39.2944 40.9502 39.4011 40.8999 39.4989 40.8294C39.6317 40.7333 39.7426 40.6135 39.8318 40.4703C39.9208 40.3272 39.9883 40.1604 40.0337 39.9704C40.079 39.7804 40.0914 39.6142 40.0709 39.4713C40.0502 39.3279 39.9967 39.2083 39.91 39.1118C39.8449 39.0415 39.7589 38.991 39.6515 38.961C39.544 38.9314 39.369 38.9164 39.1256 38.9164H38.955H38.7843L38.2796 41.0248ZM37.7029 41.4625L38.4161 38.4829H39.0528C39.4667 38.4829 39.7528 38.5041 39.9114 38.5469C40.0696 38.5898 40.2003 38.6615 40.3031 38.7618C40.4396 38.8934 40.5265 39.0624 40.5638 39.2683C40.601 39.4747 40.5879 39.7101 40.5246 39.9746C40.4613 40.2392 40.3619 40.4736 40.2262 40.6778C40.0909 40.8821 39.9231 41.0505 39.7236 41.1835C39.5726 41.2839 39.4107 41.3554 39.2387 41.3984C39.0662 41.4409 38.8091 41.4625 38.4664 41.4625H38.3394H37.7029Z" fill="#696A6A"/>
<path d="M42.823 39.7289H42.9442C43.2059 39.7289 43.3875 39.6994 43.4888 39.6412C43.5902 39.583 43.6584 39.4798 43.6937 39.3319C43.7318 39.1732 43.7121 39.0611 43.6343 38.9962C43.5566 38.931 43.393 38.8982 43.1431 38.8982H43.0219L42.823 39.7289ZM42.6983 40.1254L42.3782 41.4628H41.936L42.6493 38.4834H43.3634C43.5749 38.4834 43.7279 38.4952 43.8221 38.5189C43.9161 38.5425 43.9936 38.5817 44.0549 38.636C44.1294 38.7052 44.1784 38.7984 44.202 38.9157C44.2254 39.0332 44.2203 39.1624 44.1867 39.3033C44.1527 39.4445 44.0958 39.5747 44.0157 39.6942C43.9356 39.8135 43.8417 39.9073 43.7343 39.9749C43.6471 40.0293 43.551 40.068 43.4457 40.0909C43.3402 40.1141 43.1818 40.1254 42.9703 40.1254H42.8772H42.6983Z" fill="#696A6A"/>
<path d="M44.7694 40.2924H45.5787L45.4436 39.6125C45.4372 39.5693 45.4311 39.5194 45.4259 39.4631C45.421 39.4067 45.4177 39.3439 45.4155 39.2748C45.3842 39.3399 45.3527 39.4006 45.3212 39.457C45.2899 39.5132 45.2595 39.565 45.2295 39.6125L44.7694 40.2924ZM45.7946 41.4625L45.6487 40.6953H44.4981L43.9773 41.4625H43.4817L45.6292 38.3652L46.2924 41.4625H45.7946Z" fill="#696A6A"/>
<path d="M46.969 41.4628L47.2951 40.0992L46.7041 38.4834H47.2L47.5669 39.4949C47.5753 39.5208 47.5854 39.5546 47.597 39.5967C47.6088 39.6387 47.6203 39.684 47.631 39.733C47.6607 39.6855 47.6911 39.6404 47.7216 39.5985C47.752 39.5564 47.7828 39.5179 47.814 39.4826L48.6778 38.4834H49.15L47.7633 40.0992L47.437 41.4628H46.969Z" fill="#696A6A"/>
<path d="M51.4732 39.9912C51.4734 39.9681 51.4801 39.9045 51.4932 39.8C51.5033 39.7132 51.5112 39.6411 51.517 39.5841C51.4888 39.6521 51.4557 39.7201 51.4177 39.7877C51.3795 39.8555 51.3357 39.9247 51.2857 39.9954L50.1459 41.5829L49.774 39.9629C49.7582 39.8963 49.7461 39.8318 49.738 39.7695C49.7299 39.7071 49.7243 39.6454 49.7217 39.5841C49.7055 39.6467 49.685 39.712 49.6599 39.7807C49.6348 39.8491 49.6049 39.9208 49.5697 39.9954L48.907 41.4627H48.4728L49.9024 38.3569L50.3093 40.2376C50.3152 40.2673 50.3238 40.317 50.3342 40.3862C50.3447 40.4553 50.3569 40.5408 50.3712 40.6425C50.4194 40.557 50.4887 40.4486 50.5799 40.317C50.6042 40.2817 50.6227 40.2546 50.6351 40.2355L51.922 38.3569L51.8808 41.4627H51.4422L51.4732 39.9912Z" fill="#696A6A"/>
<path d="M52.2577 41.4628L52.971 38.4834H54.5917L54.4932 38.8944H53.3445L53.1658 39.6413H54.3143L54.2127 40.0667H53.0639L52.8336 41.0293H53.9821L53.8781 41.4628H52.2577Z" fill="#696A6A"/>
<path d="M54.4199 41.4625L55.1614 38.3652L56.5703 40.1866C56.608 40.2379 56.646 40.2929 56.6836 40.3513C56.7211 40.4097 56.7595 40.4753 56.7988 40.5487L57.2934 38.4831H57.73L56.9888 41.5781L55.5503 39.7243C55.5118 39.6743 55.4759 39.6214 55.4424 39.5657C55.4086 39.51 55.3782 39.4516 55.3502 39.3907L54.8543 41.4625H54.4199Z" fill="#696A6A"/>
<path d="M59.2362 38.8943L58.6214 41.4628H58.1494L58.764 38.8943H57.9924L58.0908 38.4834H60.1022L60.0039 38.8943H59.2362Z" fill="#696A6A"/>
<path d="M59.7262 40.8663L60.1459 40.6874C60.1501 40.8202 60.1912 40.9217 60.2696 40.9915C60.348 41.0615 60.4613 41.0964 60.6097 41.0964C60.7497 41.0964 60.8709 41.0563 60.9726 40.9762C61.0744 40.8963 61.1415 40.7891 61.1737 40.6548C61.2156 40.4796 61.1111 40.3236 60.8612 40.1868C60.8261 40.1664 60.7992 40.1514 60.7807 40.1418C60.4988 39.9818 60.3201 39.8369 60.2447 39.7073C60.1695 39.5777 60.154 39.4194 60.1988 39.2322C60.2568 38.9894 60.3844 38.7927 60.5811 38.6421C60.7778 38.4914 61.0064 38.416 61.2671 38.416C61.4813 38.416 61.6504 38.4584 61.7741 38.5433C61.898 38.6283 61.9687 38.7499 61.9862 38.9086L61.5707 39.104C61.5346 39.0104 61.4872 38.9419 61.4283 38.8984C61.3692 38.8549 61.2945 38.8332 61.2048 38.8332C61.0779 38.8332 60.9689 38.8674 60.8778 38.9349C60.7873 39.0029 60.7279 39.0937 60.7004 39.2078C60.6577 39.3869 60.7817 39.5537 61.0727 39.7083C61.0951 39.7204 61.1126 39.7302 61.1252 39.7369C61.3798 39.8724 61.5454 40.0052 61.6213 40.1348C61.6974 40.2645 61.7124 40.4262 61.6657 40.6201C61.5983 40.9025 61.4581 41.1267 61.245 41.2928C61.032 41.4589 60.7778 41.542 60.4832 41.542C60.2356 41.542 60.047 41.4838 59.9171 41.367C59.7868 41.2503 59.7232 41.0836 59.7262 40.8663Z" fill="#696A6A"/>
<path d="M63.2139 41.4628L63.9271 38.4834H64.3992L63.686 41.4628H63.2139Z" fill="#696A6A"/>
<path d="M64.3645 41.4625L65.106 38.3652L66.5149 40.1866C66.5526 40.2379 66.5906 40.2929 66.6281 40.3513C66.6657 40.4097 66.704 40.4753 66.7434 40.5487L67.238 38.4831H67.6744L66.9334 41.5781L65.4949 39.7243C65.4563 39.6743 65.4203 39.6214 65.3868 39.5657C65.3532 39.51 65.3225 39.4516 65.2946 39.3907L64.7988 41.4625H64.3645Z" fill="#696A6A"/>
<path d="M69.1807 38.8943L68.5658 41.4628H68.0939L68.7085 38.8943H67.9369L68.0354 38.4834H70.0468L69.9485 38.8943H69.1807Z" fill="#696A6A"/>
<path d="M69.6946 41.4628L70.4079 38.4834H72.0285L71.9302 38.8944H70.7816L70.6027 39.6413H71.7513L71.6495 40.0667H70.5009L70.2705 41.0293H71.4191L71.3153 41.4628H69.6946Z" fill="#696A6A"/>
<path d="M72.7382 39.7531H72.8237C73.0734 39.7531 73.2466 39.7235 73.3429 39.6638C73.4391 39.604 73.5058 39.4984 73.5418 39.3462C73.5812 39.1821 73.565 39.0664 73.4928 38.9994C73.4213 38.9319 73.2663 38.8984 73.0283 38.8984H72.9428L72.7382 39.7531ZM72.6184 40.1296L72.2991 41.4628H71.8569L72.5702 38.4834H73.2288C73.4218 38.4834 73.5685 38.4962 73.6687 38.5221C73.769 38.5479 73.8497 38.5904 73.9108 38.6503C73.9835 38.722 74.0307 38.8153 74.0525 38.9292C74.0739 39.043 74.0683 39.1678 74.036 39.3033C73.979 39.5421 73.878 39.7291 73.7333 39.8642C73.5886 39.999 73.4031 40.0803 73.1771 40.1072L73.8526 41.4628H73.3188L72.6719 40.1296H72.6184Z" fill="#696A6A"/>
<path d="M74.1323 41.4628L74.8455 38.4834H76.4661L76.3679 38.8944H75.2191L75.0412 39.6372H76.19L76.0882 40.0625H74.9396L74.6044 41.4628H74.1323Z" fill="#696A6A"/>
<path d="M77.0134 40.2924H77.8228L77.6877 39.6125C77.6811 39.5693 77.6752 39.5194 77.67 39.4631C77.6651 39.4067 77.6618 39.3439 77.6596 39.2748C77.6281 39.3399 77.5967 39.4006 77.5654 39.457C77.534 39.5132 77.5034 39.565 77.4735 39.6125L77.0134 40.2924ZM78.0387 41.4625L77.8928 40.6953H76.7423L76.2214 41.4625H75.7256L77.8731 38.3652L78.5365 41.4625H78.0387Z" fill="#696A6A"/>
<path d="M81.6094 39.2075C81.5039 39.0908 81.3837 39.0033 81.2488 38.9449C81.1141 38.8869 80.9647 38.8574 80.8006 38.8574C80.4834 38.8574 80.2 38.9619 79.9511 39.1708C79.7019 39.3798 79.5376 39.6504 79.458 39.9829C79.3811 40.3045 79.4146 40.5696 79.5583 40.7784C79.702 40.9874 79.9215 41.0921 80.2162 41.0921C80.3883 41.0921 80.5593 41.0608 80.7296 40.9984C80.8999 40.9359 81.0717 40.8417 81.2446 40.7153L81.1135 41.2629C80.9642 41.3565 80.8092 41.4265 80.6488 41.4724C80.4883 41.5186 80.3208 41.5416 80.1463 41.5416C79.9242 41.5416 79.7276 41.5044 79.5571 41.4297C79.3865 41.3551 79.247 41.2454 79.1391 41.1C79.0317 40.9576 78.9629 40.7899 78.9335 40.5963C78.9035 40.4031 78.9148 40.1972 78.967 39.9785C79.0193 39.7603 79.1066 39.5551 79.2286 39.3631C79.3505 39.1711 79.5011 39.0025 79.6798 38.8574C79.8592 38.7108 80.0511 38.6001 80.2554 38.5245C80.4598 38.4495 80.6707 38.4116 80.8876 38.4116C81.0583 38.4116 81.2148 38.4372 81.3573 38.4882C81.4999 38.5388 81.6315 38.6158 81.7525 38.7192L81.6094 39.2075Z" fill="#696A6A"/>
<path d="M81.655 41.4628L82.3682 38.4834H83.9888L83.8904 38.8944H82.742L82.5631 39.6413H83.7116L83.6098 40.0667H82.4613L82.2309 41.0293H83.3794L83.2756 41.4628H81.655Z" fill="#696A6A"/>
<path d="M73.0448 35.8869H69.7997L74.3128 19.5874H77.5581L73.0448 35.8869Z" fill="#66686C"/>
<path d="M71.36 20.1029C71.135 19.7927 70.788 19.6362 70.3166 19.6362H52.472L51.5882 22.8286H54.8351V22.8268H67.8217L66.877 26.2383H53.89L53.8912 26.2313H50.6456L47.9518 35.9561H51.1991L53.0068 29.4289H67.6051C68.061 29.4289 68.4902 29.2734 68.8937 28.9624C69.2964 28.6511 69.5615 28.2672 69.6885 27.8088L71.4961 21.2802C71.6281 20.8065 71.5825 20.4134 71.36 20.1029Z" fill="#66686C"/>
<path d="M46.0609 34.8693C45.8817 35.5147 45.294 35.9611 44.6241 35.9611H27.8809C27.4247 35.9611 27.0856 35.8056 26.8626 35.495C26.6398 35.184 26.592 34.7993 26.7194 34.341L30.8048 19.6348H34.0529L30.4039 32.7697H43.3967L47.0457 19.6348H50.2932L46.0609 34.8693Z" fill="#66686C"/>
<path d="M83.1627 19.6177L87.2713 27.7886L78.6344 35.9573L83.1627 19.6177Z" fill="#27803B"/>
<path d="M80.2827 19.6177L84.3882 27.7886L75.7478 35.9573L80.2827 19.6177Z" fill="#E9661C"/>
</g>
</svg>
