<svg width="112" height="62" viewBox="0 0 112 62" fill="none" xmlns="http://www.w3.org/2000/svg">
<mask id="mask0_11122_50353" style="mask-type:luminance" maskUnits="userSpaceOnUse" x="16" y="18" width="75" height="25">
<path d="M91 18.585H16V42.585H91V18.585Z" fill="white"/>
</mask>
<g mask="url(#mask0_11122_50353)">
<path d="M48.4462 42.2386H42.4088L46.185 19.0059H52.2221L48.4462 42.2386Z" fill="#00579F"/>
<path d="M70.3328 19.5741C69.1418 19.104 67.2533 18.585 64.9177 18.585C58.9554 18.585 54.7569 21.7484 54.7313 26.2712C54.6819 29.6081 57.7373 31.4614 60.0227 32.574C62.3583 33.711 63.1524 34.4531 63.1524 35.4665C63.1286 37.0229 61.265 37.7403 59.5268 37.7403C57.1162 37.7403 55.8246 37.3704 53.8622 36.5045L53.0671 36.1333L52.2222 41.3486C53.6382 41.9904 56.2471 42.56 58.9554 42.585C65.2905 42.585 69.4147 39.4705 69.4637 34.6508C69.4878 32.0061 67.8744 29.9796 64.3957 28.3236C62.2841 27.2606 60.991 26.5438 60.991 25.4562C61.0158 24.4674 62.0847 23.4546 64.4685 23.4546C66.4313 23.405 67.8732 23.8744 68.9658 24.3442L69.5116 24.5909L70.3328 19.5741Z" fill="#00579F"/>
<path d="M78.357 34.0081C78.8541 32.6734 80.7672 27.5078 80.7672 27.5078C80.7423 27.5574 81.2636 26.1484 81.5617 25.2835L81.9838 27.2854C81.9838 27.2854 83.1269 32.8465 83.3753 34.0081C82.4315 34.0081 79.5495 34.0081 78.357 34.0081ZM85.8096 19.0059H81.1396C79.6995 19.0059 78.6054 19.4258 77.9839 20.9336L69.016 42.2382H75.351C75.351 42.2382 76.3938 39.3708 76.6181 38.7532C77.3131 38.7532 83.4755 38.7532 84.3695 38.7532C84.5428 39.5689 85.0901 42.2382 85.0901 42.2382H90.68L85.8096 19.0059Z" fill="#00579F"/>
<path d="M37.3662 19.0059L31.4536 34.8484L30.8075 31.6353C29.7144 27.9279 26.2861 23.8999 22.4604 21.897L27.8761 42.2139H34.2606L43.7503 19.0059H37.3662Z" fill="#00579F"/>
<path d="M25.9632 19.0059H16.2496L16.1503 19.4754C23.7275 21.4033 28.7457 26.0506 30.8075 31.6363L28.6959 20.9589C28.3482 19.475 27.2799 19.0549 25.9632 19.0059Z" fill="#FAA61A"/>
</g>
</svg>
