<svg width="18" height="20" viewBox="0 0 18 20" fill="none" xmlns="http://www.w3.org/2000/svg">
<path d="M9.00018 4.44444C9.31905 4.44444 9.58652 4.33778 9.8026 4.12444C10.0187 3.91111 10.1263 3.64741 10.1256 3.33333C10.1256 3.01852 10.0176 2.75444 9.80147 2.54111C9.58539 2.32778 9.3183 2.22148 9.00018 2.22222C8.68131 2.22222 8.41384 2.32889 8.19776 2.54222C7.98168 2.75556 7.87402 3.01926 7.87477 3.33333C7.87477 3.64815 7.98281 3.91222 8.19889 4.12556C8.41497 4.33889 8.68206 4.44518 9.00018 4.44444ZM12.1795 4.44444H14.1489C14.7116 4.44444 15.1993 4.62963 15.612 5C16.0246 5.37037 16.2778 5.82407 16.3716 6.36111L17.9753 17.4722C18.0691 18.1389 17.8954 18.727 17.4543 19.2367C17.0131 19.7463 16.4459 20.0007 15.7526 20H2.24771C1.55371 20 0.986125 19.7452 0.544964 19.2356C0.103803 18.7259 -0.0695107 18.1381 0.0250239 17.4722L1.62873 6.36111C1.72252 5.82407 1.97574 5.37037 2.38839 5C2.80104 4.62963 3.28872 4.44444 3.85142 4.44444H5.82089C5.76462 4.25926 5.71773 4.07889 5.68022 3.90333C5.6427 3.72778 5.62395 3.53778 5.62395 3.33333C5.62395 2.40741 5.95219 1.62037 6.60868 0.972222C7.26517 0.324074 8.06234 0 9.00018 0C9.93802 0 10.7352 0.324074 11.3917 0.972222C12.0482 1.62037 12.3764 2.40741 12.3764 3.33333C12.3764 3.53704 12.3577 3.72704 12.3201 3.90333C12.2826 4.07963 12.2357 4.26 12.1795 4.44444Z" fill="#DF2323"/>
</svg>
