<svg width="19" height="20" viewBox="0 0 19 20" fill="none" xmlns="http://www.w3.org/2000/svg">
<path d="M1.35318e-06 2V3.46021e-06H8V2H1.35318e-06ZM3 9V5H1.35318e-06V3H8V5H5V9H3ZM10.7 19.6L9.3 18.2L17.1 10.4L18.5 11.8L10.7 19.6ZM11.5 14C11.0667 14 10.7083 13.8583 10.425 13.575C10.1417 13.2917 10 12.9333 10 12.5C10 12.0667 10.1417 11.7083 10.425 11.425C10.7083 11.1417 11.0667 11 11.5 11C11.9333 11 12.2917 11.1417 12.575 11.425C12.8583 11.7083 13 12.0667 13 12.5C13 12.9333 12.8583 13.2917 12.575 13.575C12.2917 13.8583 11.9333 14 11.5 14ZM16.5 19C16.0667 19 15.7083 18.8583 15.425 18.575C15.1417 18.2917 15 17.9333 15 17.5C15 17.0667 15.1417 16.7083 15.425 16.425C15.7083 16.1417 16.0667 16 16.5 16C16.9333 16 17.2917 16.1417 17.575 16.425C17.8583 16.7083 18 17.0667 18 17.5C18 17.9333 17.8583 18.2917 17.575 18.575C17.2917 18.8583 16.9333 19 16.5 19ZM12.5 9C11.8167 9 11.229 8.754 10.737 8.262C10.245 7.77 9.99933 7.18267 10 6.5C10 5.81667 10.246 5.22067 10.738 4.712C11.23 4.20334 11.8173 3.94934 12.5 3.95C12.7 3.95 12.879 3.96267 13.037 3.988C13.195 4.01334 13.3493 4.05067 13.5 4.1V1C13.5 0.71667 13.596 0.479003 13.788 0.287003C13.98 0.0950034 14.2173 -0.000663206 14.5 3.46021e-06H18V2H15V6.5C15 7.18334 14.754 7.771 14.262 8.263C13.77 8.755 13.1827 9.00067 12.5 9ZM2.5 20C1.81667 20 1.229 19.7457 0.737001 19.237C0.245001 18.7283 -0.000665313 18.1327 1.35318e-06 17.45C1.35318e-06 17.15 0.062668 16.846 0.188001 16.538C0.313335 16.23 0.500668 15.9507 0.750001 15.7L1.8 14.65L1.45 14.3C1.2 14.05 1.01233 13.779 0.887001 13.487C0.761668 13.195 0.699335 12.8827 0.700001 12.55C0.700001 11.8667 0.946001 11.279 1.438 10.787C1.93 10.295 2.51733 10.0493 3.2 10.05C3.88333 10.05 4.471 10.296 4.963 10.788C5.455 11.28 5.70067 11.8673 5.7 12.55C5.7 12.8833 5.646 13.196 5.538 13.488C5.43 13.78 5.25067 14.0507 5 14.3L4.65 14.65L5.35 15.35L6.75 13.95L8.15 15.4L6.75 16.8L8.15 18.2L6.75 19.6L5.35 18.2L4.3 19.25C4.05 19.5 3.77067 19.6877 3.462 19.813C3.15333 19.9383 2.83267 20.0007 2.5 20ZM3.2 13.25L3.55 12.9C3.6 12.85 3.63767 12.8 3.663 12.75C3.68833 12.7 3.70067 12.6333 3.7 12.55C3.7 12.4 3.65 12.279 3.55 12.187C3.45 12.095 3.33333 12.0493 3.2 12.05C3.06667 12.05 2.95 12.096 2.85 12.188C2.75 12.28 2.7 12.4007 2.7 12.55C2.7 12.6 2.71233 12.6583 2.737 12.725C2.76167 12.7917 2.79933 12.85 2.85 12.9L3.2 13.25ZM2.45 18C2.5 18 2.56667 17.9873 2.65 17.962C2.73333 17.9367 2.8 17.8993 2.85 17.85L3.95 16.8L3.25 16.1L2.15 17.15C2.1 17.2 2.06233 17.2583 2.037 17.325C2.01167 17.3917 1.99933 17.4667 2 17.55C2 17.6833 2.04167 17.7917 2.125 17.875C2.20833 17.9583 2.31667 18 2.45 18Z" fill="#DF2323"/>
</svg>
