<svg width="80" height="81" viewBox="0 0 80 81" fill="none" xmlns="http://www.w3.org/2000/svg">
<rect x="0.5" y="1.14844" width="79" height="79" rx="19.5" fill="#E8FFF4"/>
<rect x="0.5" y="1.14844" width="79" height="79" rx="19.5" stroke="#0CAF60"/>
<path d="M50 47.6484V50.6484H30V47.6484C30 47.0984 30.45 46.6484 31 46.6484H49C49.55 46.6484 50 47.0984 50 47.6484Z" fill="#3DE297" stroke="#3DE297" stroke-width="1.5" stroke-miterlimit="10" stroke-linecap="round" stroke-linejoin="round"/>
<path d="M35 39.6484H33V46.6484H35V39.6484Z" fill="#3DE297"/>
<path d="M39 39.6484H37V46.6484H39V39.6484Z" fill="#3DE297"/>
<path d="M43 39.6484H41V46.6484H43V39.6484Z" fill="#3DE297"/>
<path d="M47 39.6484H45V46.6484H47V39.6484Z" fill="#3DE297"/>
<path d="M51 51.3984H29C28.59 51.3984 28.25 51.0584 28.25 50.6484C28.25 50.2384 28.59 49.8984 29 49.8984H51C51.41 49.8984 51.75 50.2384 51.75 50.6484C51.75 51.0584 51.41 51.3984 51 51.3984Z" fill="#3DE297"/>
<path d="M49.37 34.3984L40.37 30.7984C40.17 30.7184 39.83 30.7184 39.63 30.7984L30.63 34.3984C30.28 34.5384 30 34.9484 30 35.3284V38.6484C30 39.1984 30.45 39.6484 31 39.6484H49C49.55 39.6484 50 39.1984 50 38.6484V35.3284C50 34.9484 49.72 34.5384 49.37 34.3984ZM40 37.1484C39.17 37.1484 38.5 36.4784 38.5 35.6484C38.5 34.8184 39.17 34.1484 40 34.1484C40.83 34.1484 41.5 34.8184 41.5 35.6484C41.5 36.4784 40.83 37.1484 40 37.1484Z" fill="#3DE297"/>
</svg>
