<svg width="80" height="81" viewBox="0 0 80 81" fill="none" xmlns="http://www.w3.org/2000/svg">
<rect x="0.5" y="1.14844" width="79" height="79" rx="19.5" fill="#EBF4FA"/>
<rect x="0.5" y="1.14844" width="79" height="79" rx="19.5" stroke="#0D76E9"/>
<path d="M53.3334 40.6484C53.3334 48.0084 47.36 53.9817 40 53.9817C32.64 53.9817 26.6667 48.0084 26.6667 40.6484C26.6667 33.2884 32.64 27.3151 40 27.3151" fill="#0D76E9"/>
<path d="M53.3334 40.6484C53.3334 48.0084 47.36 53.9817 40 53.9817C32.64 53.9817 26.6667 48.0084 26.6667 40.6484C26.6667 33.2884 32.64 27.3151 40 27.3151C48.9789 27.3151 53.3334 34.7074 53.3334 40.6484Z" fill="#0D76E9"/>
<path d="M53.3334 40.6484C53.3334 48.0084 47.36 53.9817 40 53.9817C32.64 53.9817 26.6667 48.0084 26.6667 40.6484C26.6667 33.2884 32.64 27.3151 40 27.3151C48.9789 27.3151 53.3334 34.7074 53.3334 40.6484Z" stroke="#0D76E9" stroke-width="2" stroke-linecap="round" stroke-linejoin="round"/>
<path d="M36.6667 42.9817C36.6667 44.275 37.6667 45.315 38.8934 45.315H41.4C42.4667 45.315 43.3334 44.4084 43.3334 43.275C43.3334 42.0617 42.8 41.6217 42.0134 41.3417L38 39.9417C37.2134 39.6617 36.68 39.235 36.68 38.0084C36.68 36.8884 37.5467 35.9684 38.6133 35.9684H41.12C42.3467 35.9684 43.3467 37.0084 43.3467 38.3017" stroke="#EBF4FA" stroke-width="2" stroke-linecap="round" stroke-linejoin="round"/>
<path d="M40 34.6484V46.6484" stroke="#EBF4FA" stroke-width="2" stroke-linecap="round" stroke-linejoin="round"/>
</svg>
