<svg width="22" height="22" viewBox="0 0 22 22" fill="none" xmlns="http://www.w3.org/2000/svg">
  <path d="M9.12604 1.96704C10.146 0.89644 11.854 0.89644 12.874 1.96704L13.0111 2.11104C13.5692 2.69682 14.3691 2.98794 15.1731 2.89792L15.3707 2.87579C16.8402 2.71127 18.1487 3.80918 18.2418 5.28491L18.2543 5.4834C18.3053 6.29084 18.7309 7.028 19.4047 7.47586L19.5703 7.58595C20.8018 8.40449 21.0984 10.0866 20.2211 11.2769L20.1031 11.437C19.6232 12.0883 19.4754 12.9266 19.7036 13.7028L19.7598 13.8936C20.1769 15.3122 19.3229 16.7914 17.8858 17.1394L17.6925 17.1862C16.9062 17.3766 16.2541 17.9237 15.9301 18.665L15.8504 18.8473C15.2581 20.2021 13.6531 20.7863 12.3285 20.1291L12.1503 20.0407C11.4256 19.6812 10.5744 19.6812 9.84966 20.0407L9.67149 20.1291C8.3469 20.7863 6.74186 20.2021 6.1496 18.8473L6.06994 18.665C5.74589 17.9237 5.09383 17.3766 4.30751 17.1862L4.11421 17.1394C2.67707 16.7914 1.82305 15.3122 2.24025 13.8936L2.29636 13.7028C2.52463 12.9266 2.37682 12.0883 1.89685 11.437L1.77886 11.2769C0.901636 10.0866 1.19823 8.40449 2.42968 7.58595L2.59532 7.47586C3.2691 7.028 3.69469 6.29084 3.74566 5.4834L3.75819 5.28491C3.85134 3.80918 5.15977 2.71127 6.62926 2.87579L6.82691 2.89792C7.63094 2.98794 8.4308 2.69682 8.98885 2.11104L9.12604 1.96704Z" fill="#3DE297"/>
  <path d="M7.85352 11.5749L9.56773 13.2892L14.1461 8.71082" stroke="white" stroke-width="1.94118" stroke-linecap="round" stroke-linejoin="round"/>
</svg>
