<svg width="22" height="22" viewBox="0 0 22 22" fill="none" xmlns="http://www.w3.org/2000/svg">
  <path d="M9.63712 1.43058C10.3789 0.651956 11.6211 0.651956 12.3629 1.43058L13.2527 2.36461C13.6586 2.79063 14.2403 3.00236 14.825 2.93689L16.1071 2.79335C17.1758 2.6737 18.1274 3.47218 18.1951 4.54544L18.2764 5.83293C18.3135 6.42016 18.623 6.95627 19.113 7.28199L20.1874 7.99611C21.083 8.59141 21.2987 9.81475 20.6607 10.6805L19.8954 11.719C19.5463 12.1926 19.4388 12.8023 19.6048 13.3668L19.9688 14.6044C20.2722 15.6361 19.6511 16.7119 18.6059 16.965L17.3521 17.2686C16.7802 17.4071 16.306 17.805 16.0703 18.3441L15.5536 19.5262C15.1229 20.5115 13.9556 20.9364 12.9922 20.4584L11.8366 19.8851C11.3095 19.6236 10.6905 19.6236 10.1634 19.8851L9.00775 20.4584C8.04441 20.9364 6.87711 20.5115 6.44638 19.5262L5.92966 18.3441C5.69399 17.805 5.21977 17.4071 4.64789 17.2686L3.39408 16.965C2.34888 16.7119 1.72778 15.6361 2.0312 14.6044L2.39518 13.3668C2.56119 12.8023 2.45369 12.1926 2.10462 11.719L1.3393 10.6805C0.701312 9.81475 0.917019 8.59141 1.81262 7.99611L2.88698 7.28199C3.37701 6.95627 3.68653 6.42016 3.7236 5.83293L3.80487 4.54544C3.87261 3.47218 4.8242 2.6737 5.89292 2.79335L7.17496 2.93689C7.75971 3.00236 8.34142 2.79063 8.74728 2.36461L9.63712 1.43058Z" fill="#df2323"/>
  <path d="M8.37456 11.693L11.874 11.693L11.8758 6.015" stroke="white" stroke-width="2.03787" stroke-linecap="round" stroke-linejoin="round"/>
</svg>
