<svg viewBox="0 0 376 60" fill="none" xmlns="http://www.w3.org/2000/svg">
<path d="M36.2838 15.0082V44.3242H30.4038V25.8022L22.4238 44.3242H18.1818L10.2438 25.8862V44.3242H4.32175V15.0082H10.9158L20.3238 36.7222L29.7318 15.0082H36.2838ZM64.1353 32.3542C64.1353 33.1662 64.0793 33.9222 63.9673 34.6222H46.9993C47.1393 36.1342 47.6993 37.3522 48.6793 38.2762C49.6593 39.2002 50.9053 39.6622 52.4173 39.6622C53.5933 39.6622 54.5313 39.4382 55.2313 38.9902C55.9313 38.5422 56.5053 37.9262 56.9533 37.1422H63.3373C62.6653 39.3542 61.3633 41.1602 59.4313 42.5602C57.4993 43.9602 55.1613 44.6602 52.4173 44.6602C50.2053 44.6602 48.2313 44.1702 46.4953 43.1902C44.7593 42.1822 43.4013 40.7822 42.4213 38.9902C41.4413 37.1702 40.9513 35.0562 40.9513 32.6482C40.9513 30.2402 41.4413 28.1402 42.4213 26.3482C43.4013 24.5562 44.7593 23.1702 46.4953 22.1902C48.2593 21.2102 50.2613 20.7202 52.5013 20.7202C54.7413 20.7202 56.7293 21.1962 58.4653 22.1482C60.2293 23.1002 61.6153 24.4582 62.6233 26.2222C63.6313 27.9582 64.1353 30.0022 64.1353 32.3542ZM58.0033 30.8002C57.9193 29.2602 57.3453 28.0282 56.2813 27.1042C55.2453 26.1802 53.9573 25.7182 52.4173 25.7182C50.9893 25.7182 49.7713 26.1802 48.7633 27.1042C47.7833 28.0282 47.1953 29.2602 46.9993 30.8002H58.0033ZM90.3443 32.3542C90.3443 33.1662 90.2883 33.9222 90.1763 34.6222H73.2083C73.3483 36.1342 73.9083 37.3522 74.8883 38.2762C75.8683 39.2002 77.1143 39.6622 78.6263 39.6622C79.8023 39.6622 80.7403 39.4382 81.4403 38.9902C82.1403 38.5422 82.7143 37.9262 83.1623 37.1422H89.5463C88.8743 39.3542 87.5723 41.1602 85.6403 42.5602C83.7083 43.9602 81.3703 44.6602 78.6263 44.6602C76.4143 44.6602 74.4403 44.1702 72.7043 43.1902C70.9683 42.1822 69.6103 40.7822 68.6303 38.9902C67.6503 37.1702 67.1603 35.0562 67.1603 32.6482C67.1603 30.2402 67.6503 28.1402 68.6303 26.3482C69.6103 24.5562 70.9683 23.1702 72.7043 22.1902C74.4683 21.2102 76.4703 20.7202 78.7103 20.7202C80.9503 20.7202 82.9383 21.1962 84.6743 22.1482C86.4383 23.1002 87.8243 24.4582 88.8323 26.2222C89.8403 27.9582 90.3443 30.0022 90.3443 32.3542ZM84.2123 30.8002C84.1283 29.2602 83.5543 28.0282 82.4903 27.1042C81.4543 26.1802 80.1663 25.7182 78.6263 25.7182C77.1983 25.7182 75.9803 26.1802 74.9723 27.1042C73.9923 28.0282 73.4043 29.2602 73.2083 30.8002H84.2123ZM106.851 39.3682V44.3242H103.113C100.733 44.3242 98.8993 43.7782 97.6113 42.6862C96.3233 41.5942 95.6793 39.7882 95.6793 37.2682V25.8862H93.2013V21.0562H95.6793V15.3022H101.601V21.0562H106.809V25.8862H101.601V37.2682C101.601 38.0242 101.783 38.5702 102.147 38.9062C102.511 39.2142 103.141 39.3682 104.037 39.3682H106.851Z" fill="#1C1C1C"/>
<g clip-path="url(#clip0_11638_55023)">
<path d="M136.725 8.36665V38.5687C136.725 43.6926 142.215 46.9401 146.664 44.4503L174.545 28.8622C179.21 26.2642 179.102 19.4804 174.402 17.0267L146.521 2.37675C142.072 0.0313145 136.725 3.27885 136.725 8.33056V8.36665Z" fill="#0D76E9"/>
<path d="M124.738 15.1146V45.3166C124.738 50.4405 130.228 53.688 134.678 51.1982L162.558 35.6101C167.223 33.0121 167.115 26.2283 162.415 23.7746L134.534 9.16075C130.085 6.81531 124.738 10.0628 124.738 15.1146Z" fill="#04103D"/>
<path d="M138.867 22.5405V52.7426C138.867 57.8665 144.357 61.114 148.806 58.6242L176.687 43.0361C181.351 40.438 181.244 33.6543 176.543 31.2006L148.663 16.5867C144.213 14.2413 138.867 17.4888 138.867 22.5405Z" fill="#3DE297"/>
<path d="M271.237 20.7082C264.348 20.6721 260.221 26.4094 260.221 32.7241C260.221 38.6418 264.814 44.8121 271.811 44.8121C275.938 44.8121 279.633 43.7296 281.966 41.1316L278.019 38.0645C277.158 39.3635 274 40.2295 272.349 40.1934C268.905 40.1934 266.142 37.6676 265.89 35.0334H282.038C283.813 27.5089 279.197 20.7082 271.237 20.7082ZM265.819 30.523C265.819 27.4092 268.465 24.7135 271.596 24.7135C274.789 24.7135 277.373 27.3115 277.373 30.523H265.819Z" fill="black"/>
<path d="M362.877 20.7082C355.987 20.6721 351.861 26.4094 351.861 32.7241C351.861 38.6418 356.454 44.8121 363.451 44.8121C367.577 44.8121 371.273 43.7296 373.605 41.1316L369.658 38.0645C368.797 39.3635 365.64 40.2295 363.989 40.1934C360.544 40.1934 357.781 37.6676 357.53 35.0334H373.677C375.453 27.5089 370.836 20.7082 362.877 20.7082ZM357.458 30.523C357.458 27.4092 360.105 24.7135 363.235 24.7135C366.429 24.7135 369.012 27.3115 369.012 30.523H357.458Z" fill="black"/>
<path d="M194.949 23.9913C194.949 17.2437 200.404 12.8054 207.114 12.8054H219.601V18.0736H209.123C204.638 18.0736 201.014 20.6717 201.014 25.1821H212.029V30.5225H201.014V44.8116H194.949V23.9913Z" fill="black"/>
<path d="M220.03 20.7443H224.946V23.4505C226.094 21.3216 229.323 20.5638 232.266 20.7443V25.9403C228.642 25.363 225.197 27.528 225.197 31.1364V44.8482H220.03V20.7803V20.7443Z" fill="black"/>
<path d="M286.268 35.033V12.8054H291.435V34.9608C291.435 37.5949 292.655 39.5073 295.023 39.5073V44.8477C289.677 44.8477 286.304 40.7342 286.304 35.069L286.268 35.033Z" fill="black"/>
<path d="M323.379 32.8681C323.379 39.4714 318.033 44.8118 311.502 44.8118C304.972 44.8118 299.625 39.4714 299.625 32.8681V12.553H304.792V24.4606C306.228 22.3677 308.703 20.9605 311.502 20.9605C318.033 20.9605 323.379 26.337 323.379 32.9042V32.8681ZM318.212 32.8681C318.212 29.1515 315.198 26.1204 311.502 26.1204C307.806 26.1204 304.792 29.1515 304.792 32.8681C304.792 36.5847 307.806 39.6157 311.502 39.6157C315.198 39.6157 318.212 36.6208 318.212 32.8681Z" fill="black"/>
<path fill-rule="evenodd" clip-rule="evenodd" d="M234.467 32.7241C234.467 26.4094 238.593 20.6721 245.482 20.7082C253.442 20.7082 258.059 27.5089 256.283 35.0334H240.136C240.387 37.6676 243.15 40.1934 246.595 40.1934C248.245 40.2295 251.403 39.3635 252.264 38.0645L256.211 41.1316C253.879 43.7296 250.183 44.8121 246.057 44.8121C239.059 44.8121 234.467 38.6418 234.467 32.7241ZM240.064 30.523H251.618C251.618 27.3115 249.035 24.7135 245.841 24.7135C242.711 24.7135 240.064 27.4092 240.064 30.523Z" fill="black"/>
<path d="M337.122 20.7082C330.233 20.6721 326.106 26.4094 326.106 32.7241C326.106 38.6418 330.699 44.8121 337.696 44.8121C341.823 44.8121 345.519 43.7296 347.851 41.1316L343.904 38.0645C343.043 39.3635 339.885 40.2295 338.234 40.1934C334.79 40.1934 332.027 37.6676 331.776 35.0334H347.923C349.698 27.5089 345.082 20.7082 337.122 20.7082ZM331.704 30.523C331.704 27.4092 334.35 24.7135 337.481 24.7135C340.674 24.7135 343.258 27.3115 343.258 30.523H331.704Z" fill="black"/>
</g>
<defs>
<clipPath id="clip0_11638_55023">
<rect width="250.524" height="59.6485" fill="white" transform="translate(124.738)"/>
</clipPath>
</defs>
</svg>
