<?xml version="1.0" standalone="no"?>
<!DOCTYPE svg PUBLIC "-//W3C//DTD SVG 20010904//EN"
 "http://www.w3.org/TR/2001/REC-SVG-20010904/DTD/svg10.dtd">
<svg version="1.0" xmlns="http://www.w3.org/2000/svg"
 width="700.000000pt" height="700.000000pt" viewBox="0 0 700.000000 700.000000"
 preserveAspectRatio="xMidYMid meet">
<metadata>
Created by potrace 1.14, written by Peter Selinger 2001-2017
</metadata>
<g transform="translate(0.000000,700.000000) scale(0.100000,-0.100000)"
fill="#000000" stroke="none">
<path d="M2428 6875 c-2 -1 -30 -5 -63 -9 -97 -9 -233 -50 -330 -99 -225 -112
-433 -333 -510 -542 -10 -27 -21 -53 -24 -57 -4 -4 -38 -2 -76 3 -240 36 -507
-17 -712 -142 -270 -164 -472 -474 -507 -779 -7 -59 -8 -3336 -1 -3375 27
-151 52 -230 108 -342 126 -255 361 -454 637 -542 163 -51 361 -61 532 -25 25
5 29 1 62 -68 54 -113 120 -205 215 -298 213 -209 457 -308 752 -308 231 1
350 40 679 223 91 51 188 105 215 120 102 57 971 539 1010 560 22 12 56 31 75
43 19 11 181 101 360 200 179 99 348 192 375 207 28 16 64 36 80 45 57 32 430
239 472 262 23 13 76 42 118 65 194 108 353 272 447 458 39 77 84 212 98 292
13 78 16 281 5 351 -22 147 -95 328 -180 447 -25 35 -45 66 -45 70 0 3 18 29
39 58 76 101 143 258 175 407 21 99 18 329 -6 432 -37 160 -90 278 -184 405
-117 159 -243 255 -529 403 -77 40 -194 101 -260 135 -66 34 -176 92 -245 127
-198 103 -377 196 -485 253 -55 29 -158 83 -230 120 -71 37 -179 93 -240 125
-105 55 -204 106 -505 263 -74 38 -184 96 -245 127 -60 32 -173 90 -250 130
-77 40 -167 87 -200 105 -148 79 -277 125 -399 141 -50 6 -223 13 -228 9z
m192 -381 c91 -13 203 -63 505 -224 39 -20 133 -70 210 -110 169 -88 335 -174
470 -245 55 -29 154 -81 220 -115 66 -35 161 -84 210 -110 50 -26 149 -78 220
-115 203 -106 352 -184 450 -235 50 -26 144 -76 210 -110 66 -34 165 -86 220
-115 55 -29 163 -85 240 -125 229 -120 301 -172 377 -276 169 -231 177 -552
20 -792 l-35 -52 -41 24 c-53 31 -131 72 -341 181 -93 48 -215 111 -270 140
-55 29 -163 85 -240 125 -310 161 -408 213 -430 230 -5 4 -95 51 -200 105
-104 54 -230 119 -280 145 -49 26 -200 105 -335 175 -135 70 -301 157 -370
193 -69 36 -181 94 -250 130 -69 35 -161 83 -205 107 -81 43 -223 117 -510
265 -88 45 -182 95 -210 110 -27 15 -126 67 -220 115 -93 48 -174 91 -180 96
-24 23 66 187 152 276 165 170 376 242 613 207z m-1225 -697 c11 -3 26 -6 32
-6 10 -1 13 -475 13 -2226 l0 -2224 -43 -12 c-23 -6 -80 -11 -127 -11 -325 -1
-599 211 -680 527 -20 77 -20 107 -20 1714 1 1832 -5 1703 75 1866 91 188 265
322 475 370 52 12 231 13 275 2z m575 -269 l138 -73 -91 -48 c-50 -26 -115
-66 -144 -88 -29 -22 -54 -38 -54 -37 -7 15 -3 318 3 318 5 0 72 -33 148 -72z
m705 -394 c65 -16 191 -76 480 -229 90 -47 330 -173 675 -353 276 -144 330
-172 460 -240 74 -39 164 -86 198 -104 140 -73 263 -222 318 -383 37 -110 43
-267 14 -381 -27 -106 -79 -207 -148 -286 -69 -79 -110 -106 -382 -255 -30
-17 -316 -175 -635 -353 -319 -177 -605 -336 -635 -353 -30 -16 -93 -51 -140
-78 -131 -73 -225 -102 -346 -105 -182 -4 -318 41 -457 150 -136 107 -231 269
-253 431 -4 28 -7 480 -6 1005 0 1038 -1 1014 56 1143 85 194 266 344 471 391
39 8 79 17 90 19 44 7 174 -3 240 -19z m2625 -1349 c58 -31 147 -77 197 -103
51 -26 93 -49 93 -52 0 -5 -382 -220 -392 -220 -3 0 -1 21 3 48 9 53 4 300 -6
350 -4 17 -6 32 -3 32 2 0 51 -25 108 -55z m683 -468 c66 -109 98 -215 102
-345 8 -254 -134 -501 -357 -621 -35 -18 -205 -112 -378 -209 -173 -96 -335
-186 -360 -200 -25 -13 -227 -126 -449 -249 -222 -124 -420 -233 -440 -244
-20 -11 -43 -24 -51 -30 -8 -5 -150 -84 -315 -175 -318 -176 -383 -212 -455
-252 -280 -157 -453 -251 -492 -270 -189 -88 -430 -76 -625 34 -66 37 -186
146 -230 209 -37 54 -75 137 -69 151 3 8 14 17 23 21 10 4 34 16 53 28 19 12
69 40 110 62 41 22 149 82 240 133 91 51 188 105 215 120 131 73 1406 781
1450 805 137 76 407 226 460 255 33 18 123 69 200 113 191 110 260 148 330
187 33 18 175 97 315 175 258 144 306 171 415 230 33 19 103 58 155 88 52 31
98 56 102 56 3 1 26 -32 51 -72z m-4095 -1481 c30 -22 96 -61 149 -87 l95 -47
-64 -36 c-34 -20 -70 -41 -78 -46 -8 -6 -24 -14 -35 -19 -11 -5 -44 -23 -73
-40 -29 -17 -56 -31 -60 -31 -4 0 -7 81 -7 179 -1 120 3 177 10 173 5 -3 34
-24 63 -46z"/>
</g>
</svg>
